<?xml version="1.0" encoding="UTF-8" standalone="no"?>
<!-- Generator: Adobe Illustrator 24.0.1, SVG Export Plug-In . SVG Version: 6.00 Build 0)  -->

<svg
   version="1.1"
   id="Layer_3"
   x="0px"
   y="0px"
   viewBox="0 0 580.49998 244.69999"
   xml:space="preserve"
   sodipodi:docname="3do_controller.svg"
   width="580.5"
   height="244.7"
   inkscape:version="1.1.2 (0a00cf5339, 2022-02-04)"
   xmlns:inkscape="http://www.inkscape.org/namespaces/inkscape"
   xmlns:sodipodi="http://sodipodi.sourceforge.net/DTD/sodipodi-0.dtd"
   xmlns="http://www.w3.org/2000/svg"
   xmlns:svg="http://www.w3.org/2000/svg"><defs
   id="defs25" /><sodipodi:namedview
   id="namedview23"
   pagecolor="#ffffff"
   bordercolor="#666666"
   borderopacity="1.0"
   inkscape:pageshadow="2"
   inkscape:pageopacity="0.0"
   inkscape:pagecheckerboard="true"
   showgrid="false"
   fit-margin-top="1"
   fit-margin-left="0"
   fit-margin-right="0"
   fit-margin-bottom="0"
   inkscape:zoom="3.1374913"
   inkscape:cx="290.20001"
   inkscape:cy="124.62186"
   inkscape:window-width="2560"
   inkscape:window-height="1440"
   inkscape:window-x="1920"
   inkscape:window-y="0"
   inkscape:window-maximized="1"
   inkscape:current-layer="Layer_3" />
<g
   id="g20"
   transform="translate(0,1)"
   style="fill:#ffffff">
	<path
   style="fill:#ffffff"
   d="m 258,106.4 h -20 c -5.3,0 -9.7,4.3 -9.7,9.7 0,5.3 4.3,9.7 9.7,9.7 h 20 c 5.3,0 9.7,-4.3 9.7,-9.7 0,-5.3 -4.4,-9.7 -9.7,-9.7 z m 6.8,9.7 c 0,3.7 -3,6.8 -6.8,6.8 h -20 c -3.7,0 -6.8,-3 -6.8,-6.8 0,-3.8 3,-6.8 6.8,-6.8 h 20 c 3.7,0 6.8,3.1 6.8,6.8 z"
   id="path2" />
	<path
   style="fill:#ffffff"
   d="m 531.3,43.2 -0.6,-0.4 C 512.1,30.3 480.4,19.6 439,12 396.7,4.1 347.1,0 295.6,0 H 284.9 C 233.4,0 183.8,4.1 141.5,12 100,19.6 68.3,30.3 49.7,42.8 l -0.6,0.4 v 0 C 18.4,63.5 0,97.6 0,134.4 c 0,60.2 49,109.2 109.2,109.2 15.3,0 30,-3.1 43.9,-9.2 v 0 h 0.1 c 1,-0.5 2,-0.9 3.1,-1.4 h 0.1 c 0.5,-0.2 0.9,-0.5 1.4,-0.7 35.4,-16.9 75.3,-26.2 118.6,-27.7 v 4.9 h 27.8 v -4.9 c 13.9,0.5 27.4,1.7 40.5,3.8 5.4,6.8 13.4,10.6 22.1,10.6 4.4,0 8.8,-1 12.7,-3 15.1,4.3 29.5,9.7 43.3,16.3 0.5,0.2 0.9,0.5 1.4,0.7 l 0.1,0.1 c 14.7,7 30.5,10.6 47,10.6 60.2,0 109.2,-49 109.2,-109.2 -0.1,-36.9 -18.4,-71 -49.2,-91.3 z M 291.6,201.4 h -2.7 c -41.2,0 -79.4,6.8 -113.9,20.3 27,-20.4 43.5,-52.5 43.5,-87.3 0,-60.1 -48.7,-108.9 -108.7,-109.2 h -0.5 c -4.9,0 -9.8,0.3 -14.6,1 13.8,-4.3 29.7,-8.1 47.4,-11.4 C 184.1,7 233.5,2.9 284.9,2.9 h 10.6 c 51.3,0 100.7,4.1 142.9,11.9 17.7,3.3 33.5,7.1 47.3,11.3 -4.8,-0.6 -9.6,-1 -14.5,-1 h -0.3 v 0 C 410.8,25.4 362,74.3 362,134.4 c 0,34.8 16.6,67 43.6,87.3 -34.6,-13.5 -72.8,-20.3 -114,-20.3 z m -136.6,29 -0.3,0.1 c -14.3,6.8 -29.6,10.2 -45.5,10.2 C 50.6,240.7 2.9,193 2.9,134.4 2.9,98.5 20.8,65.3 50.9,45.5 l 0.4,-0.3 c 0.9,-0.6 1.8,-1.2 2.8,-1.8 v 0 l 0.4,-0.3 C 71,33.2 89.9,28 109.2,28 c 58.6,0 106.3,47.7 106.3,106.3 0,40.3 -22.9,77.1 -58.6,95 -0.6,0.5 -1.3,0.8 -1.9,1.1 z m 272.4,0.9 c -0.6,-0.3 -1.3,-0.6 -1.9,-0.9 0,0 0,0 0,0 v 0 c -36.9,-17.6 -60.6,-55 -60.6,-96 0,-58.6 47.7,-106.3 106.3,-106.3 19.4,0 38.3,5.2 54.7,15.1 v 0 c 1.1,0.7 2.1,1.3 3.1,2 l 0.5,0.3 c 30,19.8 48,53 48,88.9 0,58.6 -47.7,106.3 -106.3,106.3 -15.3,0 -30,-3.1 -43.8,-9.4 z M 279.2,204.4 c 3.2,-0.1 6.4,-0.1 9.6,-0.1 h 2.7 c 3.2,0 6.4,0 9.6,0.1 v 2.1 h -22 v -2.1 z m 95.7,10.3 c -2.6,0.9 -5.4,1.3 -8.2,1.3 -6.6,0 -12.8,-2.5 -17.4,-6.9 8.7,1.6 17.2,3.4 25.6,5.6 z"
   id="path4" />
	<path
   style="fill:#ffffff"
   d="m 342.4,106.4 h -20 c -5.3,0 -9.7,4.3 -9.7,9.7 0,5.3 4.3,9.7 9.7,9.7 h 20 c 5.3,0 9.7,-4.3 9.7,-9.7 0,-5.3 -4.3,-9.7 -9.7,-9.7 z m 6.8,9.7 c 0,3.7 -3,6.8 -6.8,6.8 h -20 c -3.7,0 -6.8,-3 -6.8,-6.8 0,-3.8 3,-6.8 6.8,-6.8 h 20 c 3.8,0 6.8,3.1 6.8,6.8 z"
   id="path6" />
	<path
   style="fill:#ffffff"
   d="m 130.3,64.2 h -1 v 0 C 103.2,64.5 82,85.8 82,112 c 0,26.4 21.5,47.8 47.8,47.8 26.4,0 47.8,-21.5 47.8,-47.8 0,-26.2 -21.2,-47.6 -47.3,-47.8 z m -13.9,4.9 v 28 c 0,0.9 -0.2,1.2 -0.3,1.2 -0.1,0.1 -0.5,0.4 -1.6,0.4 0,0 0,0 0,0 H 86.9 C 89,91.8 92.8,85.5 98,80.2 c 5.2,-5.2 11.6,-9 18.4,-11.1 z m -1.6,56.2 c 0.8,0 1.1,0.2 1.3,0.4 0.1,0.2 0.4,0.6 0.4,1.5 v 27.7 c -6.9,-2.1 -13.2,-5.9 -18.4,-11.2 -5.2,-5.2 -9,-11.5 -11.2,-18.4 z m 28.3,29.6 v -27.7 c 0,-0.7 0.1,-1.3 0.4,-1.5 0.3,-0.3 0.7,-0.4 1.4,-0.4 h 27.7 c -2.1,6.9 -5.9,13.2 -11.2,18.4 -5.1,5.3 -11.4,9.1 -18.3,11.2 z M 145,98.7 c -0.8,0 -1.3,-0.1 -1.6,-0.4 -0.2,-0.2 -0.4,-0.6 -0.4,-1.2 v -28 c 6.9,2.1 13.2,5.9 18.4,11.2 5.2,5.2 9,11.6 11.2,18.4 H 145 Z m -3.6,1.6 c 0.8,0.8 2.1,1.3 3.6,1.3 h 28.4 c 0.8,3.4 1.2,6.9 1.2,10.4 0,3.6 -0.4,7.1 -1.2,10.4 h -28.5 c 0,0 0,0 0,0 -1.5,0 -2.7,0.4 -3.5,1.3 -0.8,0.8 -1.3,2 -1.3,3.6 v 28.4 c -3.4,0.8 -6.9,1.2 -10.4,1.2 -3.6,0 -7.1,-0.4 -10.4,-1.2 v -28.5 c 0,-1.4 -0.4,-2.6 -1.1,-3.4 -0.8,-0.9 -2,-1.3 -3.4,-1.4 H 86.1 c -0.8,-3.4 -1.2,-6.9 -1.2,-10.4 0,-3.6 0.4,-7.1 1.2,-10.4 h 28.5 c 1.6,0 2.7,-0.4 3.6,-1.1 0.8,-0.8 1.3,-1.9 1.3,-3.4 V 68.3 c 3.4,-0.8 6.9,-1.2 10.4,-1.2 3.6,0 7.1,0.4 10.4,1.2 V 97 c -0.1,1.4 0.3,2.5 1.1,3.3 z"
   id="path8" />
	<path
   style="fill:#ffffff"
   d="m 129.8,101.2 c -5.9,0 -10.8,4.8 -10.8,10.8 0,5.9 4.8,10.7 10.8,10.7 5.9,0 10.8,-4.8 10.8,-10.7 -0.1,-5.9 -4.9,-10.8 -10.8,-10.8 z m 7.8,10.8 c 0,4.3 -3.5,7.8 -7.9,7.8 -4.4,0 -7.9,-3.5 -7.9,-7.8 0,-4.3 3.5,-7.9 7.9,-7.9 4.4,0 7.9,3.6 7.9,7.9 z"
   id="path10" />
	<path
   style="fill:#ffffff"
   d="M 177.6,64.2 C 164.8,51.4 147.9,44.4 129.8,44.4 92.5,44.4 62.2,74.7 62.2,112 c 0,37.3 30.3,67.6 67.6,67.6 37.3,0 67.6,-30.3 67.6,-67.6 0,-18 -7,-35 -19.8,-47.8 z m 16.9,47.8 c 0,35.7 -29,64.7 -64.7,64.7 -35.7,0 -64.7,-29 -64.7,-64.7 0,-35.7 29,-64.7 64.7,-64.7 35.7,0 64.7,29 64.7,64.7 z"
   id="path12" />
	<path
   style="fill:#ffffff"
   d="m 415.7,125.2 c -13.8,0 -25.1,11.3 -25.1,25.1 0,13.8 11.3,25.1 25.1,25.1 13.8,0 25.1,-11.3 25.1,-25.1 -0.1,-13.9 -11.3,-25.1 -25.1,-25.1 z m 22.1,25.1 c 0,12.2 -9.9,22.2 -22.2,22.2 -12.2,0 -22.2,-10 -22.2,-22.2 0,-12.2 10,-22.2 22.2,-22.2 12.3,0 22.2,9.9 22.2,22.2 z"
   id="path14" />
	<path
   style="fill:#ffffff"
   d="m 484.4,112 c 0,-13.8 -11.3,-25.1 -25.1,-25.1 -13.8,0 -25.1,11.3 -25.1,25.1 0,13.8 11.3,25.1 25.1,25.1 13.8,0 25.1,-11.3 25.1,-25.1 z m -2.9,0 c 0,12.2 -9.9,22.2 -22.2,22.2 -12.3,0 -22.2,-9.9 -22.2,-22.2 0,-12.3 9.9,-22.2 22.2,-22.2 12.3,0 22.2,9.9 22.2,22.2 z"
   id="path16" />
	<path
   style="fill:#ffffff"
   d="m 511.3,109.6 c 13.8,0 25.1,-11.3 25.1,-25.1 0,-13.8 -11.3,-25.1 -25.1,-25.1 -13.8,0 -25.1,11.3 -25.1,25.1 0,13.9 11.2,25.1 25.1,25.1 z M 489.1,84.5 c 0,-12.2 10,-22.2 22.2,-22.2 12.2,0 22.2,9.9 22.2,22.2 0,12.2 -9.9,22.2 -22.2,22.2 -12.3,0 -22.2,-9.9 -22.2,-22.2 z"
   id="path18" />
</g>
</svg>
