<?xml version="1.0" encoding="UTF-8" standalone="no"?>
<svg
   viewBox="0 0 494.62306 501.57232"
   version="1.1"
   id="svg402"
   sodipodi:docname="3ds_controller.svg"
   width="494.62305"
   height="501.57233"
   inkscape:version="1.1.2 (0a00cf5339, 2022-02-04)"
   xmlns:inkscape="http://www.inkscape.org/namespaces/inkscape"
   xmlns:sodipodi="http://sodipodi.sourceforge.net/DTD/sodipodi-0.dtd"
   xmlns:xlink="http://www.w3.org/1999/xlink"
   xmlns="http://www.w3.org/2000/svg"
   xmlns:svg="http://www.w3.org/2000/svg">
  <sodipodi:namedview
     id="namedview404"
     pagecolor="#ffffff"
     bordercolor="#666666"
     borderopacity="1.0"
     inkscape:pageshadow="2"
     inkscape:pageopacity="0.0"
     inkscape:pagecheckerboard="true"
     showgrid="false"
     fit-margin-top="0"
     fit-margin-left="0"
     fit-margin-right="0"
     fit-margin-bottom="0"
     inkscape:zoom="1.6437567"
     inkscape:cx="247.29937"
     inkscape:cy="250.64537"
     inkscape:window-width="2560"
     inkscape:window-height="1440"
     inkscape:window-x="1920"
     inkscape:window-y="0"
     inkscape:window-maximized="1"
     inkscape:current-layer="svg402" />
  <path
     style="color:#000000;fill:#ffffff;stroke-miterlimit:10;-inkscape-stroke:none"
     d="m 8.9355468,267.74219 -0.00195,0.74804 c 0,0 -0.072266,32.12807 -0.072266,50.33008 0,18.1935 -0.2363281,161.61719 -0.2363281,161.61719 v 0.002 c 0,10.8756 8.7728173,19.7385 19.6484373,19.84961 39.694235,0.40702 134.99598,1.28321 219.0371,1.28321 84.04113,0 179.34288,-0.87619 219.03711,-1.28321 10.87562,-0.11111 19.64844,-8.97401 19.64844,-19.84961 v -0.002 c 0,0 -0.23633,-143.42369 -0.23633,-161.61719 0,-18.20198 -0.0723,-50.33008 -0.0723,-50.33008 l -0.002,-0.74804 h -42.41015 v 1.5 h 40.91414 c 0.002,0.93091 0.0703,31.65064 0.0703,49.57812 0,18.20647 0.23633,161.61914 0.23633,161.61914 0,10.07039 -8.0937,18.24868 -18.16406,18.35157 -39.69169,0.40698 -134.99078,1.28125 -219.02149,1.28125 -84.0307,0 -179.329792,-0.87427 -219.021478,-1.28125 -10.070358,-0.10289 -18.164062,-8.28118 -18.164062,-18.35157 0,0 0.236328,-143.41267 0.236328,-161.61914 0,-17.92745 0.06818,-48.64721 0.07031,-49.57812 h 40.914073 v -1.5 z"
     id="path2" />
  <path
     style="color:#000000;fill:#ffffff;stroke-miterlimit:10;-inkscape-stroke:none"
     d="m 442.92382,269.99414 -2.04296,1.11523 h -62.94532 l -2.05859,1.0293 v 217.72852 c 0,1.50572 -0.53155,2.96815 -1.54883,4.02734 v 0.002 c -0.49662,0.51761 -1.01487,0.81641 -1.41601,0.81641 l -125.76172,-0.74414 -125.76367,0.74414 c -0.40115,0 -0.91781,-0.30001 -1.41602,-0.81836 -1.01728,-1.05919 -1.54883,-2.52162 -1.54883,-4.02734 V 272.14062 l -2.05859,-1.02929 H 53.421875 l -2.042969,-1.11524 H 13.511719 c -1.272927,7.9e-4 -2.323633,1.04545 -2.330078,2.31836 v 0.002 l -0.486328,117.28707 v 91.57421 c 0,9.6079 7.776923,17.42542 17.384765,17.47657 l 219.072262,1.15039 h 0.004 l 219.0664,-1.15235 c 9.60794,-0.0501 17.38672,-7.86867 17.38672,-17.47656 v -91.57422 l -0.49023,-117.28711 c -0.006,-1.27347 -1.05464,-2.32032 -2.32813,-2.32031 z m 0.38086,1.5 h 37.48633 c 0.46518,0 0.82607,0.361 0.82813,0.82617 l 0.49023,117.28516 v 91.57031 c 0,8.80009 -7.09449,15.93067 -15.89453,15.97656 L 247.15625,498.30469 28.08789,497.1543 c -8.800139,-0.0469 -15.892577,-7.17647 -15.892577,-15.97657 v -91.57031 l 0.486328,-117.28515 c 0.0024,-0.46528 0.364796,-0.82589 0.830078,-0.82618 h 37.484375 l 2.042968,1.11524 h 62.968748 l 0.91406,0.45703 v 216.79883 c 0,1.85827 0.65408,3.6996 1.9668,5.0664 v 0.002 c 0.63978,0.66564 1.46319,1.27734 2.49805,1.27734 h 0.002 l 125.76172,-0.74414 125.75976,0.74414 h 0.002 c 1.03485,0 1.85866,-0.6129 2.49804,-1.2793 1.31272,-1.3668 1.9668,-3.20813 1.9668,-5.0664 V 273.06641 l 0.91406,-0.45704 h 62.97071 z"
     id="path4" />
  <path
     style="color:#000000;fill:#ffffff;stroke-miterlimit:10;-inkscape-stroke:none"
     d="m 443.08398,269.41211 -2.04297,1.11328 H 378.0957 l -2.05859,1.0293 V 489.2832 c 0,1.50572 -0.53155,2.97011 -1.54883,4.0293 -0.49707,0.5172 -1.01557,0.81641 -1.41602,0.81641 l -125.76367,-0.74219 -125.76172,0.74219 c -0.40115,0 -0.9178,-0.29806 -1.41601,-0.81641 -1.01714,-1.05904 -1.54883,-2.52468 -1.54883,-4.0293 V 271.55664 l -2.0586,-1.0293 H 53.582031 l -2.042969,-1.11328 H 13.671875 c -1.272927,7.9e-4 -2.323633,1.04545 -2.330078,2.31836 l -0.488281,117.28711 v 91.57422 c 0,9.60789 7.776923,17.42541 17.384765,17.47656 l 219.072259,1.15039 h 0.004 l 219.06836,-1.15039 c 9.60794,-0.0501 17.38476,-7.86867 17.38476,-17.47656 v -91.57422 l -0.48828,-117.28906 c -0.006,-1.27348 -1.05463,-2.31837 -2.32812,-2.31836 z m 0.38086,1.5 h 37.48633 c 0.46517,-10e-6 0.82606,0.361 0.82812,0.82617 l 0.48828,117.28516 v 91.57031 c 0,8.80009 -7.09253,15.93067 -15.89257,15.97656 L 247.31445,497.7207 28.246094,496.57031 c -8.80014,-0.0469 -15.892578,-7.17647 -15.892578,-15.97656 v -91.57031 l 0.488281,-117.28321 c 0.0024,-0.46527 0.364796,-0.82588 0.830078,-0.82617 H 51.15625 l 2.042969,1.11328 h 62.968751 l 0.91406,0.45703 V 489.2832 c 0,1.85738 0.65393,3.70141 1.9668,5.06836 0.63978,0.66565 1.46319,1.27735 2.49804,1.27735 h 0.002 l 125.75976,-0.74219 125.76172,0.74219 h 0.002 c 1.03555,0 1.85912,-0.61255 2.49805,-1.27735 1.31272,-1.3668 1.9668,-3.21008 1.9668,-5.06836 V 272.48242 l 0.91406,-0.45703 h 62.9707 z"
     id="path6" />
  <path
     style="color:#000000;fill:#ffffff;stroke-miterlimit:10;-inkscape-stroke:none"
     d="m 400.61914,328.34766 c -8.20027,0 -14.86524,6.66496 -14.86524,14.86523 0,8.20027 6.66497,14.86328 14.86524,14.86328 8.20027,0 14.86328,-6.66301 14.86328,-14.86328 0,-8.20027 -6.66301,-14.86523 -14.86328,-14.86523 z m 0,1.5 c 7.38961,0 13.36328,5.97562 13.36328,13.36523 0,7.38961 -5.97367,13.36328 -13.36328,13.36328 -7.38961,0 -13.36524,-5.97367 -13.36524,-13.36328 0,-7.38961 5.97563,-13.36523 13.36524,-13.36523 z"
     id="circle8" />
  <path
     style="color:#000000;fill:#ffffff;stroke-miterlimit:10;-inkscape-stroke:none"
     d="m 400.61914,329.73047 c -7.43646,0 -13.48242,6.04596 -13.48242,13.48242 0,7.43646 6.04596,13.48047 13.48242,13.48047 7.43646,0 13.48047,-6.04401 13.48047,-13.48047 0,-7.43646 -6.04401,-13.48242 -13.48047,-13.48242 z m 0,1.5 c 6.6258,0 11.98047,5.35662 11.98047,11.98242 0,6.6258 -5.35467,11.98047 -11.98047,11.98047 -6.6258,0 -11.98242,-5.35467 -11.98242,-11.98047 0,-6.6258 5.35662,-11.98242 11.98242,-11.98242 z"
     id="circle10" />
  <linearGradient
     id="a"
     gradientUnits="userSpaceOnUse"
     x1="404.61499"
     y1="349.14801"
     x2="390.62799"
     y2="335.16101">
    <stop
       offset="0"
       stop-color="#1f8abe"
       id="stop12" />
    <stop
       offset="1"
       stop-color="#38abce"
       id="stop14" />
  </linearGradient>
  <path
     style="color:#000000;fill:#ffffff;stroke-miterlimit:10;-inkscape-stroke:none"
     d="m 400.61914,331.60156 c -6.40314,0 -11.61133,5.20819 -11.61133,11.61133 0,6.40314 5.20819,11.60938 11.61133,11.60938 6.40313,0 11.60937,-5.20624 11.60937,-11.60938 0,-6.40314 -5.20624,-11.61133 -11.60937,-11.61133 z m 0,1.5 c 5.59247,0 10.10937,4.51885 10.10937,10.11133 0,5.59248 -4.5169,10.10938 -10.10937,10.10938 -5.59248,0 -10.11133,-4.5169 -10.11133,-10.10938 0,-5.59248 4.51885,-10.11133 10.11133,-10.11133 z"
     id="circle17" />
  <path
     style="color:#000000;fill:#ffffff;stroke-miterlimit:10;-inkscape-stroke:none"
     d="m 400.61914,331.60156 c -6.4033,0 -11.60938,5.20804 -11.60938,11.61133 0,2.27088 0.66488,4.38783 1.79102,6.17578 l 2.55859,4.06445 -1.19922,-4.65234 c -0.2487,-0.96459 -0.37509,-1.957 -0.3789,-2.95312 0,-6.7e-4 0,-0.001 0,-0.002 -10e-6,-6.5e-4 0,-0.001 0,-0.002 0.002,-6.68378 5.40555,-12.08594 12.08984,-12.08594 0.11544,0 0.26983,0.0169 0.47461,0.0254 l 4.71094,0.19336 -4.41797,-1.64648 c -0.0743,-0.0277 -0.15764,-0.0149 -0.23242,-0.041 l 0.002,-0.006 c -0.009,-3.8e-4 -0.0275,-0.001 -0.0371,-0.002 -1.20884,-0.41831 -2.46957,-0.67741 -3.75,-0.67969 z m -2.57617,2.01953 c -3.85371,1.84474 -6.70858,5.42047 -7.51172,9.74219 -8e-4,-0.0521 -0.0215,-0.0981 -0.0215,-0.15039 0,-4.6783 3.22602,-8.43314 7.53321,-9.5918 z"
     id="path19" />
  <path
     style="color:#000000;fill:#ffffff;stroke-miterlimit:10;-inkscape-stroke:none"
     d="m 428.02148,301.13086 c -8.20027,0 -14.86328,6.66301 -14.86328,14.86328 0,8.20027 6.66301,14.86523 14.86328,14.86523 8.20027,0 14.86328,-6.66496 14.86328,-14.86523 0,-8.20027 -6.66301,-14.86328 -14.86328,-14.86328 z m 0,1.5 c 7.38961,0 13.36328,5.97367 13.36328,13.36328 0,7.38961 -5.97367,13.36523 -13.36328,13.36523 -7.38961,0 -13.36328,-5.97562 -13.36328,-13.36523 0,-7.38961 5.97367,-13.36328 13.36328,-13.36328 z"
     id="circle21" />
  <path
     style="color:#000000;fill:#ffffff;stroke-miterlimit:10;-inkscape-stroke:none"
     d="m 428.02148,302.51367 c -7.43646,0 -13.48047,6.04401 -13.48047,13.48047 0,7.43646 6.04401,13.48242 13.48047,13.48242 7.43646,0 13.48047,-6.04596 13.48047,-13.48242 0,-7.43646 -6.04401,-13.48047 -13.48047,-13.48047 z m 0,1.5 c 6.6258,0 11.98047,5.35467 11.98047,11.98047 0,6.6258 -5.35467,11.98242 -11.98047,11.98242 -6.6258,0 -11.98047,-5.35662 -11.98047,-11.98242 0,-6.6258 5.35467,-11.98047 11.98047,-11.98047 z"
     id="circle23" />
  <linearGradient
     id="b"
     gradientUnits="userSpaceOnUse"
     x1="430.811"
     y1="320.72299"
     x2="418.16101"
     y2="308.073">
    <stop
       offset="0"
       stop-color="#1f8abe"
       id="stop25" />
    <stop
       offset="1"
       stop-color="#38abce"
       id="stop27" />
  </linearGradient>
  <path
     style="color:#000000;fill:#ffffff;stroke-miterlimit:10;-inkscape-stroke:none"
     d="m 428.02148,304.38477 c -6.40313,0 -11.60937,5.20623 -11.60937,11.60937 0,6.40314 5.20624,11.61133 11.60937,11.61133 6.40314,0 11.60938,-5.20819 11.60938,-11.61133 0,-6.40314 -5.20624,-11.60937 -11.60938,-11.60937 z m 0,1.5 c 5.59248,0 10.10938,4.51689 10.10938,10.10937 0,5.59248 -4.5169,10.11133 -10.10938,10.11133 -5.59248,0 -10.10937,-4.51885 -10.10937,-10.11133 0,-5.59248 4.51689,-10.10937 10.10937,-10.10937 z"
     id="circle30" />
  <path
     style="color:#000000;fill:#ffffff;stroke-miterlimit:10;-inkscape-stroke:none"
     d="m 428.02148,304.38477 c -6.40329,0 -11.60937,5.20608 -11.60937,11.60937 0,2.27088 0.66487,4.38783 1.79101,6.17578 l 2.56055,4.06641 -1.19922,-4.65235 c -0.2487,-0.96459 -0.37705,-1.957 -0.38086,-2.95312 0,-6.7e-4 0,-10e-4 0,-0.002 0,-6.5e-4 0,-10e-4 0,-0.002 0.002,-6.68377 5.40556,-12.08789 12.08984,-12.08789 0.11545,0 0.26984,0.0169 0.47461,0.0254 l 4.71094,0.19532 -4.41797,-1.64649 c -0.0743,-0.0277 -0.15763,-0.0149 -0.23242,-0.041 l 0.002,-0.006 c -0.01,-4.1e-4 -0.0289,-10e-4 -0.0391,-0.002 -1.20829,-0.4179 -2.46826,-0.67741 -3.74805,-0.67968 z m -2.57422,2.01757 c -3.85357,1.84435 -6.70999,5.42099 -7.51367,9.74219 -8e-4,-0.0521 -0.0215,-0.0981 -0.0215,-0.15039 0,-4.67867 3.22745,-8.43348 7.53515,-9.5918 z"
     id="path32" />
  <path
     style="color:#000000;fill:#ffffff;stroke-miterlimit:10;-inkscape-stroke:none"
     d="m 428.02148,354.98828 c -8.20027,0 -14.86328,6.66497 -14.86328,14.86524 0,8.20026 6.66301,14.86328 14.86328,14.86328 8.20027,0 14.86328,-6.66302 14.86328,-14.86328 0,-8.20027 -6.66301,-14.86524 -14.86328,-14.86524 z m 0,1.5 c 7.38961,0 13.36328,5.97563 13.36328,13.36524 0,7.38961 -5.97367,13.36328 -13.36328,13.36328 -7.38961,0 -13.36328,-5.97367 -13.36328,-13.36328 0,-7.38961 5.97367,-13.36524 13.36328,-13.36524 z"
     id="circle34" />
  <path
     style="color:#000000;fill:#ffffff;stroke-miterlimit:10;-inkscape-stroke:none"
     d="m 428.02148,356.37109 c -7.43646,0 -13.48047,6.04597 -13.48047,13.48243 0,7.43646 6.04401,13.48046 13.48047,13.48046 7.43646,0 13.48047,-6.044 13.48047,-13.48046 0,-7.43646 -6.04401,-13.48243 -13.48047,-13.48243 z m 0,1.5 c 6.6258,0 11.98047,5.35663 11.98047,11.98243 0,6.6258 -5.35467,11.98046 -11.98047,11.98046 -6.6258,0 -11.98047,-5.35466 -11.98047,-11.98046 0,-6.6258 5.35467,-11.98243 11.98047,-11.98243 z"
     id="circle36" />
  <linearGradient
     id="c"
     gradientUnits="userSpaceOnUse"
     x1="433.59698"
     y1="377.367"
     x2="419.849"
     y2="363.61899">
    <stop
       offset="0"
       stop-color="#1f8abe"
       id="stop38" />
    <stop
       offset="1"
       stop-color="#38abce"
       id="stop40" />
  </linearGradient>
  <path
     style="color:#000000;fill:#ffffff;stroke-miterlimit:10;-inkscape-stroke:none"
     d="m 428.02148,358.24219 c -6.40313,0 -11.60937,5.20819 -11.60937,11.61133 0,6.40313 5.20624,11.60937 11.60937,11.60937 6.40314,0 11.60938,-5.20624 11.60938,-11.60937 0,-6.40314 -5.20624,-11.61133 -11.60938,-11.61133 z m 0,1.5 c 5.59248,0 10.10938,4.51885 10.10938,10.11133 0,5.59247 -4.5169,10.10937 -10.10938,10.10937 -5.59248,0 -10.10937,-4.5169 -10.10937,-10.10937 0,-5.59248 4.51689,-10.11133 10.10937,-10.11133 z"
     id="circle43" />
  <path
     style="color:#000000;fill:#ffffff;stroke-miterlimit:10;-inkscape-stroke:none"
     d="m 428.02148,358.24219 c -6.40329,0 -11.60937,5.20803 -11.60937,11.61133 0,2.27088 0.66487,4.38783 1.79101,6.17578 l 2.5586,4.06445 -1.19727,-4.65234 c -0.24866,-0.96463 -0.377,-1.95699 -0.38086,-2.95313 0,-6.6e-4 0,-10e-4 0,-0.002 0,-6.5e-4 0,-0.001 0,-0.002 0.002,-6.68377 5.40556,-12.08593 12.08984,-12.08593 0.11545,0 0.26984,0.0169 0.47461,0.0254 l 4.71094,0.19531 -4.41797,-1.64844 c -0.0743,-0.0277 -0.15763,-0.0149 -0.23242,-0.041 l 0.002,-0.006 c -0.009,-3.8e-4 -0.0275,-0.001 -0.0371,-0.002 -1.20883,-0.41831 -2.46956,-0.67741 -3.75,-0.67968 z m -2.57812,2.01953 c -3.85157,1.84492 -6.70636,5.42051 -7.50977,9.74023 -7.8e-4,-0.0515 -0.0215,-0.0968 -0.0215,-0.14843 0,-4.67729 3.22549,-8.43219 7.53125,-9.5918 z"
     id="path45" />
  <path
     style="color:#000000;fill:#ffffff;stroke-miterlimit:10;-inkscape-stroke:none"
     d="m 455.59179,328.34766 c -8.20027,0 -14.86523,6.66496 -14.86523,14.86523 0,8.20027 6.66496,14.86328 14.86523,14.86328 8.20027,0 14.86328,-6.66301 14.86328,-14.86328 0,-8.20027 -6.66301,-14.86523 -14.86328,-14.86523 z m 0,1.5 c 7.38961,0 13.36328,5.97562 13.36328,13.36523 0,7.38961 -5.97367,13.36328 -13.36328,13.36328 -7.38961,0 -13.36523,-5.97367 -13.36523,-13.36328 0,-7.38961 5.97562,-13.36523 13.36523,-13.36523 z"
     id="circle47" />
  <path
     style="color:#000000;fill:#ffffff;stroke-miterlimit:10;-inkscape-stroke:none"
     d="m 455.59179,329.73047 c -7.43646,0 -13.48047,6.04596 -13.48047,13.48242 0,7.43646 6.04401,13.48047 13.48047,13.48047 7.43646,0 13.48047,-6.04401 13.48047,-13.48047 0,-7.43646 -6.04401,-13.48242 -13.48047,-13.48242 z m 0,1.5 c 6.6258,0 11.98047,5.35662 11.98047,11.98242 0,6.6258 -5.35467,11.98047 -11.98047,11.98047 -6.6258,0 -11.98047,-5.35467 -11.98047,-11.98047 0,-6.6258 5.35467,-11.98242 11.98047,-11.98242 z"
     id="circle49" />
  <linearGradient
     id="d"
     gradientUnits="userSpaceOnUse"
     x1="459.216"
     y1="348.776"
     x2="444.612"
     y2="334.172">
    <stop
       offset="0"
       stop-color="#1f8abe"
       id="stop51" />
    <stop
       offset="1"
       stop-color="#38abce"
       id="stop53" />
  </linearGradient>
  <path
     style="color:#000000;fill:#ffffff;stroke-miterlimit:10;-inkscape-stroke:none"
     d="m 455.59179,331.60156 c -6.40313,0 -11.60937,5.20819 -11.60937,11.61133 0,6.40314 5.20624,11.60938 11.60937,11.60938 6.40314,0 11.60938,-5.20624 11.60938,-11.60938 0,-6.40314 -5.20624,-11.61133 -11.60938,-11.61133 z m 0,1.5 c 5.59248,0 10.10938,4.51885 10.10938,10.11133 0,5.59248 -4.5169,10.10938 -10.10938,10.10938 -5.59247,0 -10.10937,-4.5169 -10.10937,-10.10938 0,-5.59248 4.5169,-10.11133 10.10937,-10.11133 z"
     id="circle56" />
  <path
     style="color:#000000;fill:#ffffff;stroke-miterlimit:10;-inkscape-stroke:none"
     d="m 455.59179,331.60156 c -6.40329,0 -11.60937,5.20804 -11.60937,11.61133 0,2.27088 0.66292,4.38783 1.78906,6.17578 l 2.55664,4.0586 -1.19531,-4.64649 c -0.24831,-0.9649 -0.37659,-1.95681 -0.38086,-2.95312 0,-6.7e-4 0,-0.001 0,-0.002 0,-6.5e-4 0,-0.001 0,-0.002 0.002,-6.68378 5.40556,-12.08594 12.08984,-12.08594 0.11545,0 0.27179,0.0169 0.47657,0.0254 l 4.71093,0.19336 -4.41797,-1.64648 c -0.0744,-0.0277 -0.15752,-0.0168 -0.23242,-0.043 v -0.004 c -0.009,-3.6e-4 -0.026,-0.001 -0.0352,-0.002 -1.20884,-0.41831 -2.46957,-0.67741 -3.75,-0.67969 z m -2.57617,2.01953 c -3.85314,1.84447 -6.70809,5.41936 -7.51172,9.74024 -7.8e-4,-0.0515 -0.0215,-0.0968 -0.0215,-0.14844 0,-4.6783 3.22602,-8.43314 7.5332,-9.5918 z"
     id="path58" />
  <path
     style="color:#000000;fill:#ffffff;stroke-miterlimit:10;-inkscape-stroke:none"
     d="m 247.44336,4.7050781 -0.0137,0.00195 L 27.097656,7.6953125 11.175781,17.267578 4.4160156,236.38672 c -0.070305,2.29408 1.7907864,4.20891 4.0859375,4.20508 L 486.32617,239.71875 c 2.25524,-0.004 4.09064,-1.86204 4.07031,-4.11719 L 488.45898,20.318359 476.3789,10.136719 Z m -0.0215,1.5 h 0.0293 L 475.81445,11.625 l 11.15039,9.396484 1.93359,214.593746 c 0.013,1.44068 -1.13543,2.60098 -2.57617,2.60352 L 8.5,239.0918 c -1.467368,0.002 -2.6289329,-1.19152 -2.5839844,-2.65821 L 12.650391,18.130859 27.523437,9.1894531 Z"
     id="path60" />
  <g
     fill="#474747"
     id="g72"
     style="fill:#ffffff;stroke:#000000;stroke-width:1.5;stroke-miterlimit:10"
     transform="translate(2.6894531,0.75)">
    <path
       style="color:#000000;fill:#ffffff;stroke:none;-inkscape-stroke:none"
       d="m 53.484375,106.48828 c -1.430921,0 -2.607422,1.1765 -2.607422,2.60742 0,1.43092 1.176501,2.60742 2.607422,2.60743 1.430921,0 2.607422,-1.17651 2.607422,-2.60743 0,-1.43092 -1.176501,-2.60742 -2.607422,-2.60742 z m 0,1.5 c 0.620262,0 1.107422,0.48716 1.107422,1.10742 0,0.62027 -0.48716,1.10743 -1.107422,1.10743 -0.620262,0 -1.107422,-0.48716 -1.107422,-1.10743 0,-0.62026 0.48716,-1.10742 1.107422,-1.10742 z"
       id="circle62" />
    <path
       style="color:#000000;fill:#ffffff;stroke:none;-inkscape-stroke:none"
       d="m 53.484375,118.18945 c -1.430921,0 -2.607422,1.1765 -2.607422,2.60743 0,1.43092 1.176501,2.60546 2.607422,2.60546 1.430921,0 2.607422,-1.17454 2.607422,-2.60546 0,-1.43093 -1.176501,-2.60743 -2.607422,-2.60743 z m 0,1.5 c 0.620262,0 1.107422,0.48716 1.107422,1.10743 0,0.62026 -0.48716,1.10546 -1.107422,1.10546 -0.620262,0 -1.107422,-0.4852 -1.107422,-1.10546 0,-0.62027 0.48716,-1.10743 1.107422,-1.10743 z"
       id="circle64" />
    <path
       style="color:#000000;fill:#ffffff;stroke:none;-inkscape-stroke:none"
       d="m 53.484375,129.89062 c -1.430921,0 -2.607422,1.17455 -2.607422,2.60547 0,1.43093 1.176501,2.60743 2.607422,2.60743 1.430921,0 2.607422,-1.1765 2.607422,-2.60743 0,-1.43092 -1.176501,-2.60547 -2.607422,-2.60547 z m 0,1.5 c 0.620262,0 1.107422,0.48521 1.107422,1.10547 0,0.62027 -0.48716,1.10743 -1.107422,1.10743 -0.620262,0 -1.107422,-0.48716 -1.107422,-1.10743 0,-0.62026 0.48716,-1.10547 1.107422,-1.10547 z"
       id="circle66" />
    <path
       style="color:#000000;fill:#ffffff;stroke:none;-inkscape-stroke:none"
       d="m 65.183594,118.18945 c -1.430922,0 -2.607422,1.1765 -2.607422,2.60743 0,1.43092 1.1765,2.60546 2.607422,2.60546 1.430921,0 2.607422,-1.17454 2.607422,-2.60546 0,-1.43093 -1.176501,-2.60743 -2.607422,-2.60743 z m 0,1.5 c 0.620262,0 1.107422,0.48716 1.107422,1.10743 0,0.62026 -0.48716,1.10546 -1.107422,1.10546 -0.620262,0 -1.107422,-0.4852 -1.107422,-1.10546 0,-0.62027 0.48716,-1.10743 1.107422,-1.10743 z"
       id="circle68" />
    <path
       style="color:#000000;fill:#ffffff;stroke:none;-inkscape-stroke:none"
       d="m 41.783203,118.18945 c -1.430921,0 -2.607422,1.1765 -2.607422,2.60743 0,1.43092 1.176501,2.60546 2.607422,2.60546 1.430922,0 2.607422,-1.17454 2.607422,-2.60546 0,-1.43093 -1.1765,-2.60743 -2.607422,-2.60743 z m 0,1.5 c 0.620262,0 1.107422,0.48716 1.107422,1.10743 0,0.62026 -0.48716,1.10546 -1.107422,1.10546 -0.620262,0 -1.107422,-0.4852 -1.107422,-1.10546 0,-0.62027 0.48716,-1.10743 1.107422,-1.10743 z"
       id="circle70" />
  </g>
  <g
     fill="#383838"
     id="g84"
     style="fill:#ffffff;stroke:#000000;stroke-width:1.5;stroke-miterlimit:10"
     transform="translate(2.6894531,0.75)">
    <path
       style="color:#000000;fill:#ffffff;stroke:none;-inkscape-stroke:none"
       d="m 435.04492,106.48828 c -1.43092,0 -2.60742,1.1765 -2.60742,2.60742 0,1.43092 1.1765,2.60742 2.60742,2.60743 1.43092,0 2.60547,-1.17651 2.60547,-2.60743 0,-1.43092 -1.17455,-2.60742 -2.60547,-2.60742 z m 0,1.5 c 0.62026,0 1.10547,0.48716 1.10547,1.10742 0,0.62027 -0.48521,1.10743 -1.10547,1.10743 -0.62026,0 -1.10742,-0.48716 -1.10742,-1.10743 0,-0.62026 0.48716,-1.10742 1.10742,-1.10742 z"
       id="circle74" />
    <path
       style="color:#000000;fill:#ffffff;stroke:none;-inkscape-stroke:none"
       d="m 435.04492,118.18945 c -1.43092,0 -2.60742,1.1765 -2.60742,2.60743 0,1.43092 1.1765,2.60546 2.60742,2.60546 1.43092,0 2.60547,-1.17454 2.60547,-2.60546 0,-1.43093 -1.17455,-2.60743 -2.60547,-2.60743 z m 0,1.5 c 0.62026,0 1.10547,0.48716 1.10547,1.10743 0,0.62026 -0.48521,1.10546 -1.10547,1.10546 -0.62026,0 -1.10742,-0.4852 -1.10742,-1.10546 0,-0.62027 0.48716,-1.10743 1.10742,-1.10743 z"
       id="circle76" />
    <path
       style="color:#000000;fill:#ffffff;stroke:none;-inkscape-stroke:none"
       d="m 435.04492,129.89062 c -1.43092,0 -2.60742,1.17455 -2.60742,2.60547 0,1.43093 1.1765,2.60743 2.60742,2.60743 1.43092,0 2.60547,-1.1765 2.60547,-2.60743 0,-1.43092 -1.17455,-2.60547 -2.60547,-2.60547 z m 0,1.5 c 0.62026,0 1.10547,0.48521 1.10547,1.10547 0,0.62027 -0.48521,1.10743 -1.10547,1.10743 -0.62026,0 -1.10742,-0.48716 -1.10742,-1.10743 0,-0.62026 0.48716,-1.10547 1.10742,-1.10547 z"
       id="circle78" />
    <path
       style="color:#000000;fill:#ffffff;stroke:none;-inkscape-stroke:none"
       d="m 423.34375,118.18945 c -1.43092,0 -2.60742,1.1765 -2.60742,2.60743 0,1.43092 1.1765,2.60546 2.60742,2.60546 1.43092,0 2.60742,-1.17454 2.60742,-2.60546 0,-1.43093 -1.1765,-2.60743 -2.60742,-2.60743 z m 0,1.5 c 0.62026,0 1.10742,0.48716 1.10742,1.10743 0,0.62026 -0.48716,1.10546 -1.10742,1.10546 -0.62026,0 -1.10742,-0.4852 -1.10742,-1.10546 0,-0.62027 0.48716,-1.10743 1.10742,-1.10743 z"
       id="circle80" />
    <path
       style="color:#000000;fill:#ffffff;stroke:none;-inkscape-stroke:none"
       d="m 446.74414,118.18945 c -1.43092,0 -2.60742,1.1765 -2.60742,2.60743 0,1.43092 1.1765,2.60546 2.60742,2.60546 1.43092,0 2.60742,-1.17454 2.60742,-2.60546 0,-1.43093 -1.1765,-2.60743 -2.60742,-2.60743 z m 0,1.5 c 0.62026,0 1.10742,0.48716 1.10742,1.10743 0,0.62026 -0.48716,1.10546 -1.10742,1.10546 -0.62026,0 -1.10742,-0.4852 -1.10742,-1.10546 0,-0.62027 0.48716,-1.10743 1.10742,-1.10743 z"
       id="circle82" />
  </g>
  <linearGradient
     id="e"
     gradientUnits="userSpaceOnUse"
     x1="242.55"
     y1="21.551001"
     x2="249.849"
     y2="31.075001">
    <stop
       offset="0"
       stop-color="#1c1c1c"
       id="stop86" />
    <stop
       offset="1"
       stop-color="#2c3332"
       id="stop88" />
  </linearGradient>
  <path
     style="color:#000000;fill:#ffffff;stroke-miterlimit:10;-inkscape-stroke:none"
     d="m 247.21484,16.273438 c -4.74407,0 -8.60547,3.861394 -8.60547,8.605468 0,4.744075 3.8614,8.605469 8.60547,8.605469 4.74407,0 8.60742,-3.861394 8.60742,-8.605469 0,-4.744074 -3.86335,-8.605468 -8.60742,-8.605468 z m 0,1.499999 c 3.93342,0 7.10742,3.172054 7.10742,7.105469 0,3.933415 -3.174,7.105469 -7.10742,7.105469 -3.93341,0 -7.10547,-3.172054 -7.10547,-7.105469 0,-3.933415 3.17206,-7.105469 7.10547,-7.105469 z"
     id="circle91" />
  <path
     style="color:#000000;fill:#ffffff;stroke-miterlimit:10;-inkscape-stroke:none"
     d="m 247.31054,16.828125 c -4.51322,0 -8.1875,3.676233 -8.1875,8.189453 0,4.51322 3.67428,8.1875 8.1875,8.1875 4.51322,0 8.18946,-3.67428 8.18946,-8.1875 0,-4.51322 -3.67624,-8.189453 -8.18946,-8.189453 z m 0,1.5 c 3.70256,0 6.68946,2.986893 6.68946,6.689453 0,3.70256 -2.9869,6.6875 -6.68946,6.6875 -3.70256,0 -6.6875,-2.98494 -6.6875,-6.6875 0,-3.70256 2.98494,-6.689453 6.6875,-6.689453 z"
     id="circle93" />
  <linearGradient
     id="f"
     gradientUnits="userSpaceOnUse"
     x1="242.787"
     y1="20.636999"
     x2="246.79201"
     y2="28.559">
    <stop
       offset="0"
       stop-color="#1c1c1c"
       id="stop95" />
    <stop
       offset="1"
       stop-color="#2c3332"
       id="stop97" />
  </linearGradient>
  <path
     style="color:#000000;fill:#ffffff;stroke-miterlimit:10;-inkscape-stroke:none"
     d="m 247.31054,19.175781 c -3.217,0 -5.83984,2.624789 -5.83984,5.841797 0,3.217009 2.62284,5.839844 5.83984,5.839844 3.21701,0 5.8418,-2.622835 5.8418,-5.839844 0,-3.217008 -2.62479,-5.841797 -5.8418,-5.841797 z m 0,1.5 c 2.40635,0 4.3418,1.935448 4.3418,4.341797 0,2.406349 -1.93545,4.339844 -4.3418,4.339844 -2.40635,0 -4.33984,-1.933495 -4.33984,-4.339844 0,-2.406349 1.93349,-4.341797 4.33984,-4.341797 z"
     id="circle100" />
  <path
     style="color:#000000;fill:#ffffff;stroke-miterlimit:10;-inkscape-stroke:none"
     d="m 247.31054,19.708984 c -2.92264,0 -5.30664,2.385953 -5.30664,5.308594 0,2.922641 2.384,5.306641 5.30664,5.306641 2.92264,0 5.3086,-2.384 5.3086,-5.306641 0,-2.922641 -2.38596,-5.308594 -5.3086,-5.308594 z m 0,1.5 c 2.11199,0 3.8086,1.696612 3.8086,3.808594 0,2.111982 -1.69661,3.806641 -3.8086,3.806641 -2.11198,0 -3.80664,-1.694659 -3.80664,-3.806641 0,-2.111982 1.69466,-3.808594 3.80664,-3.808594 z"
     id="circle102" />
  <path
     style="color:#000000;fill:#ffffff;stroke-miterlimit:10;-inkscape-stroke:none"
     d="m 247.31054,23.402344 c -0.8825,0 -1.61328,0.732731 -1.61328,1.615234 0,0.882503 0.73078,1.613281 1.61328,1.613281 0.88251,0 1.61524,-0.730778 1.61524,-1.613281 0,-0.882503 -0.73273,-1.615234 -1.61524,-1.615234 z m 0,1.5 c 0.0718,0 0.11524,0.04339 0.11524,0.115234 0,0.07184 -0.0434,0.113281 -0.11524,0.113281 -0.0718,0 -0.11328,-0.04144 -0.11328,-0.113281 0,-0.07184 0.0414,-0.115234 0.11328,-0.115234 z"
     id="circle104" />
  <g
     fill="#14100d"
     id="g116"
     style="fill:#ffffff;stroke:#000000;stroke-width:1.5;stroke-miterlimit:10"
     transform="translate(2.6894531,0.75)">
    <path
       style="color:#000000;fill:#ffffff;stroke:none;-inkscape-stroke:none"
       d="m 53.300781,106.16016 c -1.430921,0 -2.607422,1.1765 -2.607422,2.60742 0,1.43092 1.176501,2.60742 2.607422,2.60742 1.430922,0 2.607422,-1.1765 2.607422,-2.60742 0,-1.43092 -1.1765,-2.60742 -2.607422,-2.60742 z m 0,1.5 c 0.620262,0 1.107422,0.48716 1.107422,1.10742 0,0.62026 -0.48716,1.10742 -1.107422,1.10742 -0.620262,0 -1.107422,-0.48716 -1.107422,-1.10742 0,-0.62026 0.48716,-1.10742 1.107422,-1.10742 z"
       id="circle106" />
    <path
       style="color:#000000;fill:#ffffff;stroke:none;-inkscape-stroke:none"
       d="m 53.300781,117.86133 c -1.430921,0 -2.607422,1.1765 -2.607422,2.60742 0,1.43092 1.176501,2.60547 2.607422,2.60547 1.430922,0 2.607422,-1.17455 2.607422,-2.60547 0,-1.43092 -1.1765,-2.60742 -2.607422,-2.60742 z m 0,1.5 c 0.620262,0 1.107422,0.48716 1.107422,1.10742 0,0.62026 -0.48716,1.10547 -1.107422,1.10547 -0.620262,0 -1.107422,-0.48521 -1.107422,-1.10547 0,-0.62026 0.48716,-1.10742 1.107422,-1.10742 z"
       id="circle108" />
    <path
       style="color:#000000;fill:#ffffff;stroke:none;-inkscape-stroke:none"
       d="m 53.300781,129.5625 c -1.430921,0 -2.607422,1.1765 -2.607422,2.60742 0,1.43092 1.176501,2.60547 2.607422,2.60547 1.430922,0 2.607422,-1.17455 2.607422,-2.60547 0,-1.43092 -1.1765,-2.60742 -2.607422,-2.60742 z m 0,1.5 c 0.620262,0 1.107422,0.48716 1.107422,1.10742 0,0.62026 -0.48716,1.10547 -1.107422,1.10547 -0.620262,0 -1.107422,-0.48521 -1.107422,-1.10547 0,-0.62026 0.48716,-1.10742 1.107422,-1.10742 z"
       id="circle110" />
    <path
       style="color:#000000;fill:#ffffff;stroke:none;-inkscape-stroke:none"
       d="m 65.001953,117.86133 c -1.430921,0 -2.607422,1.1765 -2.607422,2.60742 0,1.43092 1.176501,2.60547 2.607422,2.60547 1.430922,0 2.605469,-1.17455 2.605469,-2.60547 0,-1.43092 -1.174547,-2.60742 -2.605469,-2.60742 z m 0,1.5 c 0.620262,0 1.105469,0.48716 1.105469,1.10742 0,0.62026 -0.485207,1.10547 -1.105469,1.10547 -0.620262,0 -1.107422,-0.48521 -1.107422,-1.10547 0,-0.62026 0.48716,-1.10742 1.107422,-1.10742 z"
       id="circle112" />
    <path
       style="color:#000000;fill:#ffffff;stroke:none;-inkscape-stroke:none"
       d="m 41.601562,117.86133 c -1.430921,0 -2.607421,1.1765 -2.607421,2.60742 0,1.43092 1.1765,2.60547 2.607421,2.60547 1.430922,0 2.605469,-1.17455 2.605469,-2.60547 0,-1.43092 -1.174547,-2.60742 -2.605469,-2.60742 z m 0,1.5 c 0.620263,0 1.105469,0.48716 1.105469,1.10742 0,0.62026 -0.485206,1.10547 -1.105469,1.10547 -0.620262,0 -1.107421,-0.48521 -1.107421,-1.10547 0,-0.62026 0.487159,-1.10742 1.107421,-1.10742 z"
       id="circle114" />
  </g>
  <g
     fill="#14100d"
     id="g128"
     style="fill:#ffffff;stroke:#000000;stroke-width:1.5;stroke-miterlimit:10"
     transform="translate(2.6894531,0.75)">
    <path
       style="color:#000000;fill:#ffffff;stroke:none;-inkscape-stroke:none"
       d="m 434.86133,106.16016 c -1.43092,0 -2.60742,1.1765 -2.60742,2.60742 0,1.43092 1.1765,2.60742 2.60742,2.60742 1.43092,0 2.60742,-1.1765 2.60742,-2.60742 0,-1.43092 -1.1765,-2.60742 -2.60742,-2.60742 z m 0,1.5 c 0.62026,0 1.10742,0.48716 1.10742,1.10742 0,0.62026 -0.48716,1.10742 -1.10742,1.10742 -0.62026,0 -1.10742,-0.48716 -1.10742,-1.10742 0,-0.62026 0.48716,-1.10742 1.10742,-1.10742 z"
       id="circle118" />
    <path
       style="color:#000000;fill:#ffffff;stroke:none;-inkscape-stroke:none"
       d="m 434.86133,117.86133 c -1.43092,0 -2.60742,1.1765 -2.60742,2.60742 0,1.43092 1.1765,2.60547 2.60742,2.60547 1.43092,0 2.60742,-1.17455 2.60742,-2.60547 0,-1.43092 -1.1765,-2.60742 -2.60742,-2.60742 z m 0,1.5 c 0.62026,0 1.10742,0.48716 1.10742,1.10742 0,0.62026 -0.48716,1.10547 -1.10742,1.10547 -0.62026,0 -1.10742,-0.48521 -1.10742,-1.10547 0,-0.62026 0.48716,-1.10742 1.10742,-1.10742 z"
       id="circle120" />
    <path
       style="color:#000000;fill:#ffffff;stroke:none;-inkscape-stroke:none"
       d="m 434.86133,129.5625 c -1.43092,0 -2.60742,1.1765 -2.60742,2.60742 0,1.43092 1.1765,2.60547 2.60742,2.60547 1.43092,0 2.60742,-1.17455 2.60742,-2.60547 0,-1.43092 -1.1765,-2.60742 -2.60742,-2.60742 z m 0,1.5 c 0.62026,0 1.10742,0.48716 1.10742,1.10742 0,0.62026 -0.48716,1.10547 -1.10742,1.10547 -0.62026,0 -1.10742,-0.48521 -1.10742,-1.10547 0,-0.62026 0.48716,-1.10742 1.10742,-1.10742 z"
       id="circle122" />
    <path
       style="color:#000000;fill:#ffffff;stroke:none;-inkscape-stroke:none"
       d="m 423.16016,117.86133 c -1.43093,0 -2.60547,1.1765 -2.60547,2.60742 0,1.43092 1.17454,2.60547 2.60547,2.60547 1.43092,0 2.60742,-1.17455 2.60742,-2.60547 0,-1.43092 -1.1765,-2.60742 -2.60742,-2.60742 z m 0,1.5 c 0.62026,0 1.10742,0.48716 1.10742,1.10742 0,0.62026 -0.48716,1.10547 -1.10742,1.10547 -0.62027,0 -1.10547,-0.48521 -1.10547,-1.10547 0,-0.62026 0.4852,-1.10742 1.10547,-1.10742 z"
       id="circle124" />
    <path
       style="color:#000000;fill:#ffffff;stroke:none;-inkscape-stroke:none"
       d="m 446.5625,117.86133 c -1.43092,0 -2.60742,1.1765 -2.60742,2.60742 0,1.43092 1.1765,2.60547 2.60742,2.60547 1.43092,0 2.60742,-1.17455 2.60742,-2.60547 0,-1.43092 -1.1765,-2.60742 -2.60742,-2.60742 z m 0,1.5 c 0.62026,0 1.10742,0.48716 1.10742,1.10742 0,0.62026 -0.48716,1.10547 -1.10742,1.10547 -0.62026,0 -1.10742,-0.48521 -1.10742,-1.10547 0,-0.62026 0.48716,-1.10742 1.10742,-1.10742 z"
       id="circle126" />
  </g>
  <path
     style="color:#000000;fill:#ffffff;stroke-miterlimit:10;-inkscape-stroke:none"
     d="m 12.628906,26.529297 v 35.853515 l 1.017578,-0.388671 1.490235,-0.56836 c 1.545167,-0.591434 2.568148,-2.079886 2.566406,-3.734375 V 31.21875 c 0,-1.655862 -1.023371,-3.145925 -2.568359,-3.734375 z m 469.365234,0 -2.50782,0.955078 c -1.54498,0.58845 -2.56835,2.078513 -2.56835,3.734375 v 26.472656 c -0.002,1.654489 1.02123,3.142941 2.5664,3.734375 h 0.002 l 2.50782,0.957031 v -1.08789 z m -1.5,2.175781 v 31.5 l -0.47266,-0.179687 c -0.96868,-0.370775 -1.60461,-1.29482 -1.60351,-2.332032 V 31.21875 c 0,-1.040135 0.63655,-1.964482 1.60156,-2.332031 z m -466.365234,0.002 0.472656,0.179688 c 0.96501,0.367549 1.601563,1.291896 1.601563,2.332031 v 26.474609 c 0.0011,1.037212 -0.634838,1.961257 -1.603516,2.332032 l -0.470703,0.179687 z"
     id="path130" />
  <path
     style="color:#000000;fill:#ffffff;stroke-miterlimit:10;-inkscape-stroke:none"
     d="m 11.595703,26.529297 v 35.851562 l 1.017578,-0.384765 1.494141,-0.56836 c 1.549821,-0.587571 2.578472,-2.078864 2.578125,-3.736328 V 31.21875 c -3.58e-4,-1.65706 -1.026978,-3.146287 -2.576172,-3.734375 z m 1.5,2.175781 0.480469,0.181641 c 0.971364,0.368738 1.60915,1.293033 1.609375,2.332031 v 26.472656 c 2.17e-4,1.038952 -0.637897,1.965676 -1.609375,2.333985 l -0.480469,0.18164 z"
     id="path132" />
  <path
     style="color:#000000;fill:#ffffff;stroke-miterlimit:10;-inkscape-stroke:none"
     d="m 483.02539,26.529297 -2.51172,0.955078 c -1.54919,0.587708 -2.57813,2.077029 -2.57813,3.734375 v 26.472656 c -3.4e-4,1.657464 1.02831,3.148757 2.57813,3.736328 l 2.51172,0.953125 v -1.085937 z m -1.5,2.175781 v 31.501953 l -0.48047,-0.18164 c -0.97148,-0.368309 -1.60959,-1.295033 -1.60938,-2.333985 V 31.21875 c 0,-1.038652 0.63857,-1.96374 1.60938,-2.332031 z"
     id="path134" />
  <path
     style="color:#000000;fill:#ffffff;stroke-miterlimit:10;-inkscape-stroke:none"
     d="m 106.88281,50.638672 c -1.94731,0 -3.54102,1.595661 -3.54102,3.542969 V 224.03516 c 0,1.9473 1.59371,3.54101 3.54102,3.54101 h 140.42773 140.42969 c 1.94731,0 3.54102,-1.59371 3.54102,-3.54101 V 54.181641 c 0,-1.947308 -1.59371,-3.542969 -3.54102,-3.542969 z m 0,1.5 h 280.85742 c 1.13665,0 2.04102,0.906321 2.04102,2.042969 V 224.03516 c 0,1.13664 -0.90437,2.04101 -2.04102,2.04101 H 247.31054 106.88281 c -1.13665,0 -2.04102,-0.90437 -2.04102,-2.04101 V 54.181641 c 0,-1.136648 0.90437,-2.042969 2.04102,-2.042969 z"
     id="path136" />
  <path
     style="color:#000000;fill:#ffffff;stroke-miterlimit:10;-inkscape-stroke:none"
     d="m 108.36914,54.353516 c -0.51137,0 -0.94336,0.430038 -0.94336,0.941406 V 222.91992 c 0,0.51166 0.4317,0.94141 0.94336,0.94141 h 138.1914 v 0.002 h 0.75 138.94336 c 0.51137,0 0.94141,-0.43004 0.94141,-0.94141 V 55.294922 c 0,-0.511368 -0.43004,-0.941406 -0.94141,-0.941406 z m 0.55664,1.5 H 385.69531 V 222.36328 H 248.06054 v -0.002 H 108.92578 Z"
     id="path138" />
  <path
     style="color:#000000;fill:#ffffff;stroke-miterlimit:10;-inkscape-stroke:none"
     d="m 30.167969,235.73633 v 28.14648 h -8.47461 l 0.410156,1.92188 -17.7539057,-0.0977 7.2773437,5.73828 h 42.287109 v -0.0371 h 0.501953 l -0.01953,-0.22461 c 0.09289,1.07749 1.008417,1.91602 2.089844,1.91602 H 438.13672 c 1.08142,0 1.99695,-0.83853 2.08984,-1.91602 l -0.0195,0.22461 h 0.50195 v 0.0371 h 42.28125 l 7.45703,-5.73828 -17.92773,0.0977 0.4082,-1.92188 h -9.40625 v -28.14648 z m 1.5,1.5 H 462.02148 v 28.14648 h 9.05469 l -0.41016,1.9336 0.92969,-0.006 14.41211,-0.0801 -3.52734,2.71484 h -40.27149 v -0.0371 h -3.37695 l -0.0996,1.14649 c -0.0271,0.31451 -0.27713,0.54492 -0.5957,0.54492 H 56.486328 c -0.318571,0 -0.56859,-0.23041 -0.595703,-0.54492 l -0.09961,-1.14649 h -3.376953 v 0.0371 H 12.148438 l -3.4433599,-2.71484 15.2519529,0.0859 -0.410156,-1.9336 h 8.121094 z"
     id="path140" />
  <path
     style="color:#000000;fill:#ffffff;stroke-miterlimit:10;-inkscape-stroke:none"
     d="m 14.699219,231.52734 c -0.609675,0 -1.121094,0.50947 -1.121094,1.11914 v 2.47266 c 0,0.60988 0.512682,1.12109 1.121094,1.12109 h 37.480468 l -0.71875,20.59375 H 443.16015 l -0.71679,-20.59375 h 37.48046 c 0.60968,0 1.1211,-0.51141 1.1211,-1.12109 v -2.47266 c 0,-0.60967 -0.51142,-1.11914 -1.1211,-1.11914 h -40.30859 c -1.15308,0 -2.10351,0.95044 -2.10351,2.10352 v 0.12695 l -190.20118,0.24024 -190.199212,-0.24024 v -0.12695 c 0,-1.15308 -0.950437,-2.10352 -2.103516,-2.10352 z m 0.378906,1.5 h 39.929687 c 0.34292,0 0.603516,0.2606 0.603516,0.60352 v 0.50586 c -9e-6,0.60802 0.50722,1.11781 1.115234,1.12109 h 0.002 l 190.582028,0.24024 190.58594,-0.24024 h 0.002 c 0.60637,-0.005 1.11168,-0.51276 1.11329,-1.11914 v -0.50781 c 0,-0.34292 0.26059,-0.60352 0.60351,-0.60352 h 39.92969 v 1.71289 h -37.49414 -0.002 c -0.62347,7.2e-4 -1.14105,0.5349 -1.11914,1.15821 l 0.67774,19.43554 H 53.015625 l 0.677734,-19.43554 c 0.02194,-0.62396 -0.496755,-1.15859 -1.121094,-1.15821 h -37.49414 z"
     id="path142" />
  <path
     style="color:#000000;fill:#ffffff;stroke-miterlimit:10;-inkscape-stroke:none"
     d="m 247.33203,243.94727 c -48.34063,0.005 -96.68032,0.0581 -132.93555,0.10937 -18.12761,0.0257 -33.234184,0.0514 -43.80859,0.0703 -5.287202,0.009 -9.441018,0.016 -12.273437,0.0215 -1.416209,0.003 -2.502666,0.006 -3.234375,0.008 -0.365855,7.5e-4 -0.642233,0.002 -0.828125,0.002 -0.185892,4e-4 -0.28125,0 -0.28125,0 l -0.746094,0.70508 -0.630859,10.45117 h 389.43554 l -0.58593,-9.69336 c 0,-0.006 -0.33191,-0.63698 -0.4336,-0.6875 -0.10168,-0.0505 -0.15496,-0.0614 -0.20703,-0.0742 -0.10414,-0.0257 -0.19058,-0.0377 -0.29883,-0.0508 -0.2165,-0.0262 -0.50136,-0.0484 -0.875,-0.0703 -0.74728,-0.0438 -1.83768,-0.0843 -3.25781,-0.12305 -2.84025,-0.0775 -6.99599,-0.14747 -12.28516,-0.20898 -10.57832,-0.12302 -25.6859,-0.21618 -43.81445,-0.28516 -36.25709,-0.13794 -84.59882,-0.17907 -132.93945,-0.17382 z m 0,1.5 c 48.33965,-0.005 96.68041,0.0359 132.93359,0.17382 18.12659,0.069 33.23223,0.16223 43.80274,0.28516 5.28525,0.0615 9.4371,0.13193 12.26171,0.20898 1.41231,0.0385 2.4948,0.0791 3.21094,0.1211 0.20228,0.0118 0.30032,0.0215 0.44141,0.0332 l 0.45312,7.54492 H 54.1875 l 0.492187,-8.1582 c 0.135841,-2.8e-4 0.226118,3.6e-4 0.404297,0 0.731656,-0.001 1.816253,-0.005 3.232422,-0.008 2.832339,-0.006 6.986317,-0.012 12.273438,-0.0215 10.574241,-0.019 25.681197,-0.0446 43.808586,-0.0703 36.2548,-0.0513 84.59395,-0.10412 132.9336,-0.10937 z"
     id="path144" />
  <path
     style="color:#000000;fill:#ffffff;stroke-miterlimit:10;-inkscape-stroke:none"
     d="m 66.285156,287.42578 c -26.252782,0 -47.550781,21.298 -47.550781,47.55078 0,26.25278 21.297999,47.55078 47.550781,47.55078 26.252782,0 47.550774,-21.298 47.550774,-47.55078 0,-26.25278 -21.297992,-47.55078 -47.550774,-47.55078 z m 0,1.5 c 25.442122,0 46.050774,20.60866 46.050774,46.05078 0,25.44212 -20.608652,46.05078 -46.050774,46.05078 -25.442122,0 -46.050781,-20.60866 -46.050781,-46.05078 0,-25.44212 20.608659,-46.05078 46.050781,-46.05078 z"
     id="circle146" />
  <linearGradient
     id="g"
     gradientUnits="userSpaceOnUse"
     x1="46.821999"
     y1="314.28699"
     x2="89.413002"
     y2="363.31601">
    <stop
       offset="0"
       stop-color="#1a75a1"
       id="stop148" />
    <stop
       offset="1"
       stop-color="#499fc9"
       id="stop150" />
  </linearGradient>
  <path
     style="color:#000000;fill:#ffffff;stroke-miterlimit:10;-inkscape-stroke:none"
     d="m 67.318359,287.98437 c -26.252781,0 -47.550781,21.298 -47.550781,47.55079 0,26.25278 21.298,47.55273 47.550781,47.55273 26.252782,0 47.550781,-21.29995 47.550781,-47.55273 0,-26.25279 -21.297999,-47.55079 -47.550781,-47.55079 z m 0,1.5 c 25.442123,0 46.050781,20.60866 46.050781,46.05079 0,25.44212 -20.608658,46.05273 -46.050781,46.05273 -25.442122,0 -46.050781,-20.61061 -46.050781,-46.05273 0,-25.44213 20.608659,-46.05079 46.050781,-46.05079 z"
     id="circle153" />
  <linearGradient
     id="h"
     gradientUnits="userSpaceOnUse"
     x1="89.786003"
     y1="312.104"
     x2="29.365999"
     y2="366.58099">
    <stop
       offset="0"
       stop-color="#1f8abe"
       id="stop155" />
    <stop
       offset=".478"
       stop-color="#81c8eb"
       id="stop157" />
    <stop
       offset="1"
       stop-color="#1f8abe"
       id="stop159" />
  </linearGradient>
  <path
     style="color:#000000;fill:#ffffff;stroke-miterlimit:10;-inkscape-stroke:none"
     d="m 67.318359,291.69922 c -24.201046,0 -43.835937,19.63489 -43.835937,43.83594 0,24.20104 19.634891,43.83593 43.835937,43.83593 24.201046,0 43.835931,-19.63489 43.835931,-43.83593 0,-24.20105 -19.634885,-43.83594 -43.835931,-43.83594 z m 0,1.5 c 23.390387,0 42.335931,18.94555 42.335931,42.33594 0,23.39038 -18.945544,42.33593 -42.335931,42.33593 -23.390386,0 -42.335937,-18.94555 -42.335937,-42.33593 0,-23.39039 18.945551,-42.33594 42.335937,-42.33594 z"
     id="circle162" />
  <path
     style="color:#000000;fill:#ffffff;stroke-miterlimit:10;-inkscape-stroke:none"
     d="m 67.318359,296.47461 c -21.564442,0 -39.0625,17.4961 -39.0625,39.06055 0,21.56444 17.498058,39.0625 39.0625,39.0625 21.564442,0 39.062501,-17.49806 39.062501,-39.0625 0,-21.56445 -17.498059,-39.06055 -39.062501,-39.06055 z m 0,1.5 c 20.753783,0 37.562501,16.80676 37.562501,37.56055 0,20.75378 -16.808718,37.5625 -37.562501,37.5625 -20.753782,0 -37.5625,-16.80872 -37.5625,-37.5625 0,-20.75379 16.808718,-37.56055 37.5625,-37.56055 z"
     id="circle164" />
  <path
     style="color:#000000;fill:#ffffff;stroke-miterlimit:10;-inkscape-stroke:none"
     d="m 68.060547,298.18164 c -21.03204,0 -38.097656,17.06562 -38.097657,38.09766 10e-7,21.03204 17.065617,38.09765 38.097657,38.09765 21.032039,0 38.099603,-17.06561 38.099603,-38.09765 0,-21.03204 -17.067564,-38.09766 -38.099603,-38.09766 z m 0,1.5 c 20.22138,0 36.599603,16.37628 36.599603,36.59766 0,20.22138 -16.378223,36.59765 -36.599603,36.59765 -20.221381,0 -36.597657,-16.37627 -36.597657,-36.59765 10e-7,-20.22138 16.376276,-36.59766 36.597657,-36.59766 z"
     id="circle166" />
  <path
     style="color:#000000;fill:#ffffff;stroke-miterlimit:10;-inkscape-stroke:none"
     d="m 70.675781,310.64258 c -16.00294,0 -28.992187,12.98925 -28.992187,28.99219 0,16.00294 12.989247,28.99218 28.992187,28.99218 16.00294,0 28.992188,-12.98924 28.992188,-28.99218 0,-16.00294 -12.989248,-28.99219 -28.992188,-28.99219 z m 0,1.5 c 15.192281,0 27.492188,12.2999 27.492188,27.49219 0,15.19228 -12.299907,27.49218 -27.492188,27.49218 -15.192281,0 -27.492187,-12.2999 -27.492187,-27.49218 0,-15.19229 12.299906,-27.49219 27.492187,-27.49219 z"
     id="circle168" />
  <linearGradient
     id="i"
     gradientUnits="userSpaceOnUse"
     x1="77.837997"
     y1="356.21899"
     x2="51.59"
     y2="313.62799">
    <stop
       offset="0"
       stop-color="#787878"
       id="stop170" />
    <stop
       offset="1"
       stop-color="#bfbfbf"
       id="stop172" />
  </linearGradient>
  <path
     style="color:#000000;fill:#ffffff;stroke-miterlimit:10;-inkscape-stroke:none"
     d="m 67.318359,307.67187 c -15.380515,0 -27.865234,12.48277 -27.865234,27.86329 0,15.38051 12.484719,27.86523 27.865234,27.86523 15.380516,0 27.865235,-12.48472 27.865235,-27.86523 0,-15.38052 -12.484719,-27.86329 -27.865235,-27.86329 z m 0,1.5 c 14.569856,0 26.365235,11.79343 26.365235,26.36329 0,14.56985 -11.795379,26.36523 -26.365235,26.36523 -14.569856,0 -26.365234,-11.79538 -26.365234,-26.36523 0,-14.56986 11.795378,-26.36329 26.365234,-26.36329 z"
     id="circle175" />
  <linearGradient
     id="j"
     gradientUnits="userSpaceOnUse"
     x1="77.537003"
     y1="349.97101"
     x2="52.036999"
     y2="319.97101">
    <stop
       offset="0"
       stop-color="#8c8c8c"
       id="stop177" />
    <stop
       offset="1"
       stop-color="#c4c4c4"
       id="stop179" />
  </linearGradient>
  <path
     style="color:#000000;fill:#ffffff;stroke-miterlimit:10;-inkscape-stroke:none"
     d="m 67.318359,309.3125 c -14.474218,0 -26.224609,11.74844 -26.224609,26.22266 0,14.47421 11.750391,26.22461 26.224609,26.22461 14.474218,0 26.22461,-11.7504 26.22461,-26.22461 0,-14.47422 -11.750392,-26.22266 -26.22461,-26.22266 z m 0,1.5 c 13.663559,0 24.72461,11.0591 24.72461,24.72266 0,13.66355 -11.061051,24.72461 -24.72461,24.72461 -13.663558,0 -24.724609,-11.06106 -24.724609,-24.72461 0,-13.66356 11.061051,-24.72266 24.724609,-24.72266 z"
     id="circle182" />
  <linearGradient
     id="k"
     gradientUnits="userSpaceOnUse"
     x1="54.511002"
     y1="320.75601"
     x2="72.360001"
     y2="345.504">
    <stop
       offset="0"
       stop-color="#919191"
       id="stop184" />
    <stop
       offset="1"
       stop-color="#bfbfbf"
       id="stop186" />
  </linearGradient>
  <path
     style="color:#000000;fill:#ffffff;stroke-miterlimit:10;-inkscape-stroke:none"
     d="m 67.318359,313.61328 c -12.098291,0 -21.921875,9.82359 -21.921875,21.92188 0,12.09829 9.823584,21.92382 21.921875,21.92382 12.098291,0 21.921875,-9.82553 21.921875,-21.92382 0,-12.09829 -9.823584,-21.92188 -21.921875,-21.92188 z m 0,1.5 c 11.287632,0 20.421875,9.13424 20.421875,20.42188 0,11.28763 -9.134243,20.42382 -20.421875,20.42382 -11.287632,0 -20.421875,-9.13619 -20.421875,-20.42382 0,-11.28764 9.134243,-20.42188 20.421875,-20.42188 z"
     id="circle189" />
  <path
     style="color:#000000;fill:#ffffff;stroke-miterlimit:10;-inkscape-stroke:none"
     d="m 56.630859,392.96094 c -0.964187,0 -1.761719,0.79753 -1.761719,1.76172 v 18.21875 c 0,0.32452 -0.247745,0.57226 -0.572265,0.57226 h -18.21875 c -0.964187,0 -1.761719,0.79753 -1.761719,1.76172 v 20.01367 c 0,0.96419 0.797532,1.76367 1.761719,1.76367 h 18.21875 c 0.32452,0 0.572266,0.2458 0.572265,0.57032 v 18.2207 c 0,0.96419 0.797532,1.76172 1.761719,1.76172 h 20.013672 c 0.964187,0 1.763672,-0.79753 1.763672,-1.76172 v -18.2207 c 0,-0.32452 0.245792,-0.57032 0.570312,-0.57032 h 18.220704 c 0.964186,0 1.761718,-0.79948 1.761718,-1.76367 v -20.01367 c -9.51e-4,-0.96414 -0.79953,-1.76172 -1.763672,-1.76172 h -18.21875 c -0.32452,0 -0.572265,-0.24774 -0.572265,-0.57226 v -18.21875 c 0,-0.96419 -0.797532,-1.76172 -1.761719,-1.76172 z m 0,1.5 h 20.013672 c 0.153812,0 0.261719,0.1079 0.261719,0.26172 v 18.21875 c 0,1.13547 0.936787,2.07226 2.072265,2.07226 h 18.21875 c 0.154006,0 0.26352,0.10967 0.263672,0.26367 v 20.01172 c 0,0.15381 -0.107906,0.26367 -0.261718,0.26367 H 78.978515 c -1.135478,0 -2.070312,0.93484 -2.070312,2.07032 v 18.2207 c 0,0.15381 -0.10986,0.26172 -0.263672,0.26172 H 56.630859 c -0.153812,0 -0.261719,-0.10791 -0.261719,-0.26172 v -18.2207 c 0,-1.13548 -0.936787,-2.07032 -2.072265,-2.07032 h -18.21875 c -0.153812,0 -0.261719,-0.10986 -0.261719,-0.26367 v -20.01367 c 0,-0.15381 0.107907,-0.26172 0.261719,-0.26172 h 18.21875 c 1.135478,0 2.072265,-0.93679 2.072265,-2.07226 v -18.21875 c 0,-0.15382 0.107907,-0.26172 0.261719,-0.26172 z"
     id="path191" />
  <path
     style="color:#000000;fill:#ffffff;stroke-miterlimit:10;-inkscape-stroke:none"
     d="m 57.695312,394.44727 c -0.732,-1.7e-4 -1.343039,0.60958 -1.341797,1.34179 v 19.06055 c 0,0.0917 -0.05671,0.15039 -0.148437,0.15039 h -19.060547 -0.002 c -0.732,-1.7e-4 -1.343039,0.60958 -1.341797,1.3418 v 17.88476 c -0.0012,0.73222 0.609797,1.34197 1.341797,1.3418 h 19.0625 c 0.09173,0 0.148438,0.0587 0.148437,0.15039 v 19.06055 c -0.0012,0.73221 0.609797,1.34196 1.341797,1.34179 h 17.886719 c 0.732001,1.7e-4 1.341086,-0.60958 1.339844,-1.34179 v -19.06055 c 0,-0.0917 0.05866,-0.15039 0.15039,-0.15039 h 19.0625 c 0.732001,1.7e-4 1.341086,-0.60958 1.339844,-1.3418 V 416.33789 C 97.472162,415.60729 96.86342,415 96.132812,415 H 77.072265 c -0.09173,0 -0.15039,-0.0587 -0.15039,-0.15039 v -19.06055 -0.002 c 1.68e-4,-0.732 -0.609583,-1.34109 -1.341797,-1.33984 H 57.697265 Z m 0.158203,1.5 h 17.56836 v 18.90234 c 0,0.90238 0.748005,1.65039 1.65039,1.65039 h 18.902344 v 17.56836 H 77.072265 c -0.902385,0 -1.65039,0.748 -1.65039,1.65039 v 18.90234 h -17.56836 v -18.90234 c 0,-0.90239 -0.746052,-1.65039 -1.648437,-1.65039 H 37.300781 V 416.5 h 18.904297 c 0.902385,0 1.648437,-0.74801 1.648437,-1.65039 z"
     id="path193" />
  <defs
     id="defs196">
    <path
       id="l"
       d="m 94.035,433.476 a 0.59,0.59 0 0 1 -0.591,0.591 H 74.382 a 0.9,0.9 0 0 0 -0.9,0.9 v 19.062 a 0.59,0.59 0 0 1 -0.591,0.591 H 55.006 a 0.59,0.59 0 0 1 -0.591,-0.591 v -19.062 a 0.9,0.9 0 0 0 -0.9,-0.9 H 34.453 a 0.59,0.59 0 0 1 -0.591,-0.591 V 415.59 a 0.59,0.59 0 0 1 0.591,-0.591 h 19.062 a 0.9,0.9 0 0 0 0.9,-0.9 v -19.062 a 0.59,0.59 0 0 1 0.591,-0.591 h 17.886 a 0.59,0.59 0 0 1 0.591,0.591 V 414.1 a 0.9,0.9 0 0 0 0.9,0.9 h 19.203 a 0.45,0.45 0 0 1 0.45,0.45 v 18.026 z" />
  </defs>
  <path
     style="color:#000000;fill:#ffffff;stroke-miterlimit:10;-inkscape-stroke:none"
     d="m 57.695312,394.44531 c -0.732,-1.7e-4 -1.343039,0.61154 -1.341797,1.34375 v 19.06055 c 0,0.0917 -0.05671,0.14844 -0.148437,0.14844 h -19.060547 -0.002 c -0.732,-1.7e-4 -1.343039,0.61153 -1.341797,1.34375 v 17.88476 c -1.7e-4,0.73136 0.610441,1.34001 1.341797,1.33985 h 19.0625 c 0.09173,0 0.148438,0.0587 0.148437,0.15039 v 19.0625 c -1.69e-4,0.73135 0.610441,1.34001 1.341797,1.33984 h 17.884766 c 0.732858,10e-4 1.34304,-0.60894 1.341797,-1.3418 V 435.7168 c 0,-0.0917 0.05866,-0.15039 0.15039,-0.15039 h 19.060547 c 0.442021,7.5e-4 0.781682,-0.25285 1.027344,-0.58985 h 0.314453 v -0.75195 -18.02539 C 97.474562,415.54536 96.929201,415 96.275343,415 H 77.072265 c -0.09173,0 -0.15039,-0.0587 -0.15039,-0.15039 v -19.06055 -0.002 c 1.68e-4,-0.73136 -0.608487,-1.34197 -1.339844,-1.3418 H 57.697265 Z m 0.158203,1.5 h 17.56836 v 18.9043 c 0,0.90238 0.748005,1.65039 1.65039,1.65039 h 18.902344 v 16.97656 h -0.002 l 0.002,0.58985 H 77.072265 c -0.902385,0 -1.65039,0.748 -1.65039,1.65039 v 18.90234 H 57.853515 V 435.7168 c 10e-7,-0.90239 -0.746052,-1.65039 -1.648437,-1.65039 H 37.300781 v -17.56836 h 18.904297 c 0.902385,0 1.648438,-0.74606 1.648437,-1.64844 z"
     id="use198" />
  <clipPath
     id="m">
    <use
       xlink:href="#l"
       overflow="visible"
       id="use200"
       x="0"
       y="0"
       width="100%"
       height="100%" />
  </clipPath>
  <path
     style="color:#000000;fill:#ffffff;stroke-linecap:round;stroke-linejoin:round;stroke-miterlimit:10;-inkscape-stroke:none"
     d="m 59.501953,395.93359 c -0.909013,0 -1.662109,0.7531 -1.662109,1.66211 v 18.41992 c 0,0.26822 -0.20249,0.47071 -0.470704,0.47071 H 38.949219 c -0.909013,0 -1.66211,0.75309 -1.66211,1.66211 v 11.30078 a 0.75,0.75 0 0 0 0.75,0.75 0.75,0.75 0 0 0 0.75,-0.75 v -11.30078 c 0,-0.0984 0.06376,-0.16211 0.16211,-0.16211 H 57.36914 c 1.079786,0 1.970704,-0.89092 1.970704,-1.97071 V 397.5957 c 0,-0.0984 0.06376,-0.16211 0.162109,-0.16211 h 11.300781 a 0.75,0.75 0 0 0 0.75,-0.75 0.75,0.75 0 0 0 -0.75,-0.75 z m 20.119141,20.55274 a 0.75,0.75 0 0 0 -0.75,0.75 0.75,0.75 0 0 0 0.75,0.75 h 11.734375 a 0.75,0.75 0 0 0 0.75,-0.75 0.75,0.75 0 0 0 -0.75,-0.75 z m -21.03125,21.03125 a 0.75,0.75 0 0 0 -0.75,0.75 v 11.73437 a 0.75,0.75 0 0 0 0.75,0.75 0.75,0.75 0 0 0 0.75,-0.75 v -11.73437 a 0.75,0.75 0 0 0 -0.75,-0.75 z"
     id="path203" />
  <linearGradient
     id="n"
     gradientUnits="userSpaceOnUse"
     x1="47.629002"
     y1="402.01199"
     x2="72.390999"
     y2="436.18399">
    <stop
       offset="0"
       stop-color="#1f8abe"
       id="stop205" />
    <stop
       offset="1"
       stop-color="#38abce"
       id="stop207" />
  </linearGradient>
  <path
     style="color:#000000;fill:#ffffff;stroke-miterlimit:10;-inkscape-stroke:none"
     d="m 59.501953,395.93359 c -0.909013,0 -1.662109,0.7531 -1.662109,1.66211 v 18.41992 c 0,0.26822 -0.20249,0.47071 -0.470704,0.47071 H 38.949219 c -0.909013,0 -1.66211,0.75309 -1.66211,1.66211 v 14.27148 c 0,0.90876 0.753349,1.66211 1.66211,1.66211 H 57.36914 c 0.268214,0 0.470704,0.20249 0.470704,0.4707 v 18.41993 c 0,0.90876 0.753348,1.66211 1.662109,1.66211 H 73.77539 c 0.909013,0 1.660157,-0.7531 1.660157,-1.66211 v -18.41993 c 0,-0.26821 0.204443,-0.4707 0.472656,-0.4707 h 18.419922 c 0.909013,0 1.662109,-0.7531 1.662109,-1.66211 v -14.27148 -0.002 c -9.95e-4,-0.90888 -0.755178,-1.66015 -1.664062,-1.66015 H 75.90625 c -0.269009,0 -0.470703,-0.2017 -0.470703,-0.47071 V 397.5957 c 0,-0.90901 -0.753097,-1.66211 -1.66211,-1.66211 z m 0,1.5 h 14.271484 c 0.09835,0 0.16211,0.0638 0.16211,0.16211 v 18.41992 c 0,1.07967 0.891034,1.97071 1.970703,1.97071 h 18.419922 c 0.09881,0 0.163954,0.0633 0.164062,0.16211 v 14.27148 c 0,0.0984 -0.06376,0.16211 -0.162109,0.16211 H 75.908203 c -1.079785,0 -1.972656,0.89092 -1.972656,1.9707 v 18.41993 c 0,0.0983 -0.0618,0.16211 -0.160157,0.16211 H 59.501953 c -0.09924,0 -0.162109,-0.0629 -0.162109,-0.16211 v -18.41993 c 0,-1.07978 -0.890918,-1.9707 -1.970704,-1.9707 H 38.949219 c -0.09924,0 -0.16211,-0.0629 -0.16211,-0.16211 v -14.27148 c 0,-0.0984 0.06376,-0.16211 0.16211,-0.16211 H 57.36914 c 1.079786,0 1.970704,-0.89092 1.970704,-1.97071 V 397.5957 c 0,-0.0984 0.06376,-0.16211 0.162109,-0.16211 z"
     id="path210" />
  <g
     fill="#d0effe"
     id="g214"
     style="fill:#ffffff;stroke:#000000;stroke-width:1.5;stroke-miterlimit:10"
     transform="translate(2.6894531,0.75)">
    <path
       style="color:#000000;fill:#ffffff;stroke:none;-inkscape-stroke:none"
       d="m 63.949219,399.70117 c -0.336916,0 -0.684473,0.11038 -0.966797,0.36133 -0.282324,0.25095 -0.464844,0.65581 -0.464844,1.07031 v 10.77149 c 0,0.78143 0.650206,1.43164 1.431641,1.43164 0.780429,-10e-4 1.430497,-0.64926 1.43164,-1.42969 v -10.77344 c 0,-0.4145 -0.18252,-0.81936 -0.464843,-1.07031 -0.282324,-0.25095 -0.629881,-0.36133 -0.966797,-0.36133 z m -23.400391,23.40039 c -0.414499,0 -0.821311,0.18252 -1.072266,0.46485 -0.250954,0.28232 -0.359375,0.62988 -0.359375,0.96679 0,0.33692 0.108421,0.68448 0.359375,0.9668 0.250955,0.28232 0.657767,0.46484 1.072266,0.46484 h 10.769531 c 0.781801,0.001 1.433674,-0.65005 1.433594,-1.43164 0,-0.78143 -0.650205,-1.43164 -1.431641,-1.43164 z m 36.027344,0 c -0.780941,0 -1.428619,0.64897 -1.429688,1.42969 -0.0012,0.78244 0.649197,1.43475 1.431641,1.43359 h 10.771484 c 0.4145,0 0.819359,-0.18252 1.070313,-0.46484 0.250954,-0.28232 0.359375,-0.62988 0.359375,-0.9668 0,-0.33691 -0.108421,-0.68447 -0.359375,-0.96679 -0.250954,-0.28233 -0.655813,-0.46485 -1.070313,-0.46485 z"
       id="path212" />
  </g>
  <path
     style="color:#000000;fill:#ffffff;stroke-miterlimit:10;-inkscape-stroke:none"
     d="m 389.26953,457.73047 c -2.30906,0 -4.19531,1.88821 -4.19531,4.19726 v 12.41993 c 0,2.30905 1.88625,4.19726 4.19531,4.19726 h 12.42187 c 2.30906,0 4.19727,-1.88821 4.19727,-4.19726 v -12.41993 c 0,-2.30905 -1.88821,-4.19726 -4.19727,-4.19726 z m 0,1.5 h 12.42187 c 1.4984,0 2.69727,1.19887 2.69727,2.69726 v 12.41993 c 0,1.49839 -1.19887,2.69726 -2.69727,2.69726 h -12.42187 c -1.4984,0 -2.69531,-1.19887 -2.69531,-2.69726 v -12.41993 c 0,-1.49839 1.19691,-2.69726 2.69531,-2.69726 z"
     id="path216" />
  <path
     style="color:#000000;fill:#ffffff;stroke-miterlimit:10;-inkscape-stroke:none"
     d="m 388.52734,459.14844 c -1.11563,0 -2.03516,0.91952 -2.03516,2.03515 v 13.90821 c 0,1.11563 0.91953,2.03515 2.03516,2.03515 h 13.90625 c 1.11563,0 2.03711,-0.91952 2.03711,-2.03515 v -13.90821 c 0,-1.11563 -0.92148,-2.03515 -2.03711,-2.03515 z m 0,1.5 h 13.90625 c 0.30437,0 0.53711,0.23079 0.53711,0.53515 v 13.90821 c 0,0.30436 -0.23274,0.53515 -0.53711,0.53515 h -13.90625 c -0.30437,0 -0.53516,-0.23079 -0.53516,-0.53515 v -13.90821 c 0,-0.30436 0.23079,-0.53515 0.53516,-0.53515 z"
     id="path218" />
  <path
     style="color:#000000;fill:#ffffff;stroke-miterlimit:10;-inkscape-stroke:none"
     d="m 377.68945,488.30078 -257.29883,5.68555 v 0.73242 c -6.8e-4,1.22162 0.8203,2.05975 1.56446,2.5 0.37207,0.22013 0.7382,0.36593 1.04296,0.46094 0.30401,0.0948 0.44585,0.14713 0.75196,0.14843 h 0.002 l 123.55859,0.6504 123.35547,-0.65625 c 0.23804,-0.002 0.28729,-0.0369 0.42188,-0.0742 0.13459,-0.0373 0.29241,-0.0875 0.47265,-0.15235 0.36049,-0.12972 0.81152,-0.31711 1.29493,-0.56054 0.9668,-0.48687 2.07023,-1.17844 2.7871,-2.18946 1.35346,-1.9088 1.70688,-4.65407 1.88477,-5.64258 z m -1.83203,1.54102 c -0.23853,1.24406 -0.61859,2.97984 -1.4375,4.13476 -0.46513,0.65598 -1.39354,1.29237 -2.24024,1.71875 -0.42334,0.21319 -0.82425,0.37935 -1.12695,0.48828 -0.15135,0.0545 -0.2793,0.0953 -0.36523,0.11914 -0.0859,0.0238 -0.19329,0.0206 -0.0312,0.0195 l -123.34571,0.65625 -123.55273,-0.6504 c 0.1602,5.5e-4 -0.0993,-0.0156 -0.3125,-0.082 -0.21317,-0.0664 -0.48189,-0.17361 -0.72656,-0.31836 -0.19632,-0.11614 -0.19634,-0.33967 -0.33203,-0.48437 z"
     id="path222" />
  <path
     style="color:#000000;fill:#ffffff;stroke-miterlimit:10;-inkscape-stroke:none"
     d="m 122.59961,272.63281 c -1.66969,3.4e-4 -3.04102,1.3711 -3.04102,3.04102 v 212.29883 c 0,3.81071 3.1053,6.91601 6.91602,6.91601 h 120.83593 120.83594 c 3.81072,0 6.91602,-3.1053 6.91602,-6.91601 V 275.67383 c 0,-1.67006 -1.37096,-3.04102 -3.04102,-3.04102 H 122.60156 Z m 0,1.5 h 249.42187 c 0.8594,0 1.54102,0.68162 1.54102,1.54102 v 212.29883 c 0,3.00005 -2.41596,5.41601 -5.41602,5.41601 H 247.31054 126.47461 c -3.00006,0 -5.41602,-2.41596 -5.41602,-5.41601 V 275.67383 c 0,-0.85968 0.68134,-1.54139 1.54102,-1.54102 z"
     id="path226" />
  <path
     style="color:#000000;fill:#ffffff;stroke-miterlimit:10;-inkscape-stroke:none"
     d="m 126.30468,275.35547 c -1.39117,0 -2.53515,1.14398 -2.53515,2.53515 V 466.28711 H 370.85156 V 277.89062 c 0,-1.39117 -1.14262,-2.53515 -2.5332,-2.53515 z m 0,1.5 h 242.01368 c 0.57941,0 1.0332,0.45433 1.0332,1.03515 V 464.78711 H 125.26953 V 277.89062 c 0,-0.58082 0.45433,-1.03515 1.03515,-1.03515 z"
     id="path228" />
  <path
     style="color:#000000;fill:#ffffff;stroke-miterlimit:10;-inkscape-stroke:none"
     d="m 126.30468,275.17187 c -1.49253,0 -2.7207,1.22513 -2.7207,2.71875 v 188.58204 h 247.45508 v -0.75 -187.83204 c 0,-1.49253 -1.22708,-2.71875 -2.7207,-2.71875 z m 0,1.8711 h 242.01368 c 0.47497,0 0.84961,0.37358 0.84961,0.84765 V 464.60156 H 125.45508 V 277.89062 c 2.9e-4,-0.47787 0.37173,-0.84735 0.8496,-0.84765 z"
     id="path230" />
  <path
     style="color:#000000;fill:#ffffff;stroke-miterlimit:10;-inkscape-stroke:none"
     d="m 134.41797,283.15625 c -1.76948,0 -3.21875,1.45123 -3.21875,3.2207 v 171.13867 c 0,1.34809 1.10894,2.45704 2.45703,2.45704 h 113.65429 113.65625 c 1.34809,0 2.45704,-1.10895 2.45703,-2.45704 V 286.37695 c 1e-5,-1.76947 -1.44927,-3.2207 -3.21875,-3.2207 z m 0,1.5 h 225.7871 c 0.95882,0 1.71876,0.76189 1.71875,1.7207 v 171.13867 c 0,0.53791 -0.41912,0.95704 -0.95703,0.95704 H 247.31054 133.65625 c -0.53791,0 -0.95703,-0.41913 -0.95703,-0.95704 V 286.37695 c 0,-0.95881 0.75993,-1.7207 1.71875,-1.7207 z"
     id="path232" />
  <path
     style="color:#000000;fill:#ffffff;stroke-miterlimit:10;-inkscape-stroke:none"
     d="m 134.41797,282.41406 c -1.76948,0 -3.21875,1.45123 -3.21875,3.22071 v 171.13867 c 0,1.34809 1.10894,2.45703 2.45703,2.45703 h 113.65429 113.65625 c 1.34809,0 2.45704,-1.10894 2.45703,-2.45703 V 285.63477 c 1e-5,-1.76948 -1.44927,-3.22071 -3.21875,-3.22071 z m 0,1.5 h 225.7871 c 0.95882,0 1.71876,0.76189 1.71875,1.72071 v 171.13867 c 0,0.53791 -0.41912,0.95703 -0.95703,0.95703 H 247.31054 133.65625 c -0.53791,0 -0.95703,-0.41912 -0.95703,-0.95703 V 285.63477 c 0,-0.95882 0.75993,-1.72071 1.71875,-1.72071 z"
     id="path234" />
  <path
     style="color:#000000;fill:#ffffff;stroke-miterlimit:10;-inkscape-stroke:none"
     d="M 135.28515,286.49805 V 454.63477 H 247.31054 359.33789 V 286.49805 Z m 1.5,1.5 H 357.83789 V 453.13477 H 247.31054 136.78515 Z"
     id="path236" />
  <path
     style="color:#000000;fill:#ffffff;stroke-miterlimit:10;-inkscape-stroke:none"
     d="m 123.95508,464.97461 v 23.37109 c 0.003,2.68006 2.19103,4.86785 4.87109,4.8711 h 0.002 236.96875 c 2.68006,-0.003 4.86785,-2.19104 4.8711,-4.8711 v -23.37109 z m 1.5,1.5 h 243.71289 v 21.86914 c -0.002,1.87069 -1.50237,3.37078 -3.37305,3.37305 h -236.9668 c -1.87002,-0.002 -3.36971,-1.50134 -3.37304,-3.3711 z"
     id="path238" />
  <path
     style="color:#000000;fill:#ffffff;stroke-miterlimit:10;-inkscape-stroke:none"
     d="m 123.95508,464.97461 v 23.37109 c 0.003,2.68006 2.19103,4.86785 4.87109,4.8711 h 0.002 236.96875 c 2.68006,-0.003 4.86785,-2.19104 4.8711,-4.8711 v -23.37109 z m 1.5,1.5 h 243.71289 v 21.86914 c -0.002,1.87069 -1.50237,3.37078 -3.37305,3.37305 h -236.9668 c -1.87002,-0.002 -3.36971,-1.50134 -3.37304,-3.3711 z"
     id="path240" />
  <path
     style="color:#000000;fill:#ffffff;stroke-miterlimit:10;-inkscape-stroke:none"
     d="m 123.58398,464.60156 v 0.75 22.99414 c 0.004,2.88467 2.35752,5.23835 5.24219,5.24219 h 236.9707 c 2.88467,-0.004 5.23834,-2.35752 5.24219,-5.24219 v -23.74414 z m 1.68555,1.68555 h 244.08203 v 22.05664 c 0,1.97391 -1.58273,3.55859 -3.55664,3.55859 h -236.9668 c -1.97391,0 -3.55859,-1.58468 -3.55859,-3.55859 z"
     id="path242" />
  <path
     style="color:#000000;fill:#ffffff;stroke-miterlimit:10;-inkscape-stroke:none"
     d="m 123.76953,464.78711 v 1.12109 22.43555 c 0,2.78457 2.27402,5.05859 5.05859,5.05859 h 236.9668 c 2.78457,0 5.05859,-2.27402 5.05859,-5.05859 v -23.55664 z m 1.68555,1.68555 h 243.71289 v 21.87109 c -0.002,1.87069 -1.50237,3.37078 -3.37305,3.37305 h -236.9668 c -1.87068,-0.002 -3.37078,-1.50236 -3.37304,-3.37305 z"
     id="path244" />
  <linearGradient
     id="o"
     gradientUnits="userSpaceOnUse"
     x1="168.25999"
     y1="481.37799"
     x2="168.25999"
     y2="474.771">
    <stop
       offset="0"
       stop-color="#1f8abe"
       id="stop246" />
    <stop
       offset="1"
       stop-color="#38abce"
       id="stop248" />
  </linearGradient>
  <path
     style="color:#000000;fill:#ffffff;stroke-miterlimit:10;-inkscape-stroke:none"
     d="m 145.68359,473.64844 v 0.75 11.57422 h 50.5293 v -12.32422 z m 1.5,1.5 h 47.5293 v 9.32422 h -47.5293 z"
     id="path251" />
  <linearGradient
     id="p"
     gradientUnits="userSpaceOnUse"
     x1="244.46201"
     y1="481.37799"
     x2="244.46201"
     y2="474.771">
    <stop
       offset="0"
       stop-color="#1f8abe"
       id="stop253" />
    <stop
       offset="1"
       stop-color="#38abce"
       id="stop255" />
  </linearGradient>
  <path
     style="color:#000000;fill:#ffffff;stroke-miterlimit:10;-inkscape-stroke:none"
     d="m 221.88672,473.64844 v 0.75 11.57422 h 50.52929 v -12.32422 z m 1.5,1.5 h 47.52929 v 9.32422 h -47.52929 z"
     id="path258" />
  <linearGradient
     id="q"
     gradientUnits="userSpaceOnUse"
     x1="320.98401"
     y1="481.37799"
     x2="320.98401"
     y2="474.771">
    <stop
       offset="0"
       stop-color="#1f8abe"
       id="stop260" />
    <stop
       offset="1"
       stop-color="#38abce"
       id="stop262" />
  </linearGradient>
  <path
     style="color:#000000;fill:#ffffff;stroke-miterlimit:10;-inkscape-stroke:none"
     d="m 298.41015,473.64844 v 0.75 11.57422 h 50.52735 v -12.32422 z m 1.5,1.5 h 47.52735 v 9.32422 h -47.52735 z"
     id="path265" />
  <path
     style="color:#000000;fill:#ffffff;stroke-miterlimit:10;-inkscape-stroke:none"
     d="M 25.048828,237.27539 C 11.183531,237.24251 1.9394531,247.63486 1.9394531,260.33008 v 4.63672 l 49.3789059,0.25195 0.0039,-0.75195 0.75,-0.004 -0.09766,-15.31641 1.058594,-11.80273 z m -0.0039,1.5 26.347656,0.0645 -0.919922,10.24414 0.09375,14.63086 -47.1269589,-0.24028 v -3.14453 c 0,-11.97676 8.4827929,-21.58581 21.6054689,-21.55469 z"
     id="path267" />
  <path
     style="color:#000000;fill:#ffffff;stroke-miterlimit:10;-inkscape-stroke:none"
     d="m 0,263.45703 9.4726562,5.78516 H 52.101562 l -0.0293,-4.7793 -0.75,0.004 0.0039,-0.74805 z m 5.3789062,1.52734 45.1972658,0.23047 0.01758,2.52735 H 9.8945312 Z"
     id="path269" />
  <path
     style="color:#000000;fill:#ffffff;stroke-miterlimit:10;-inkscape-stroke:none"
     d="m 19.591797,261.61328 0.193359,0.90625 1.425781,6.72266 h 30.890625 l -0.04883,-7.62891 z m 1.851562,1.5 H 50.5625 l 0.0293,4.62891 H 22.425781 Z"
     id="path271" />
  <path
     style="color:#000000;fill:#ffffff;stroke-miterlimit:10;-inkscape-stroke:none"
     d="m 51.96875,247.59375 -27.800781,1.06445 c -2.448443,0.0935 -4.400255,2.12009 -4.400391,4.57032 v 8.39062 0.75195 h 32.296875 z m -1.488281,1.55859 0.07422,11.71875 H 21.267578 v -7.64257 c 9.2e-5,-1.65987 1.29838,-3.00694 2.957031,-3.07032 z"
     id="path273" />
  <path
     style="color:#000000;fill:#ffffff;stroke-miterlimit:10;-inkscape-stroke:none"
     d="m 51.96875,248.33789 -27.800781,1.06445 c -2.448443,0.0935 -4.400255,2.12009 -4.400391,4.57032 v 8.39062 0.75 h 32.296875 z m -1.488281,1.55664 0.07422,11.71875 H 21.267578 v -7.64062 c 9.2e-5,-1.65987 1.29838,-3.0089 2.957031,-3.07227 z"
     id="path275" />
  <path
     style="color:#000000;fill:#ffffff;stroke-miterlimit:10;-inkscape-stroke:none"
     d="m 469.57422,237.27539 -27.98438,0.0684 1.05859,11.80273 -0.0976,15.31641 0.75,0.004 0.004,0.75195 49.37891,-0.25195 v -4.63868 c 0,-12.69522 -9.24411,-23.08561 -23.10937,-23.05273 z m 0.004,1.5 c 13.12272,-0.0311 21.60547,9.57598 21.60547,21.55273 v 3.14649 l -47.12695,0.24023 0.0937,-14.63086 -0.91992,-10.24414 z"
     id="path277" />
  <path
     style="color:#000000;fill:#ffffff;stroke-miterlimit:10;-inkscape-stroke:none"
     d="m 494.62304,263.45703 -51.32617,0.26172 0.004,0.74805 -0.75,-0.004 -0.0293,4.7793 h 42.62695 z m -5.38086,1.52734 -4.51562,2.75782 h -40.69727 l 0.0176,-2.52735 z"
     id="path279" />
  <path
     style="color:#000000;fill:#ffffff;stroke-miterlimit:10;-inkscape-stroke:none"
     d="m 442.56836,261.61328 -0.0469,7.62891 h 30.89063 l 1.61718,-7.62891 h -0.92578 z m 1.49218,1.5 h 29.11914 l -0.98242,4.62891 h -28.16601 z"
     id="path281" />
  <path
     style="color:#000000;fill:#ffffff;stroke-miterlimit:10;-inkscape-stroke:none"
     d="m 442.65429,247.59375 -0.0957,14.77734 h 32.29492 v -0.75195 -8.39062 c -1.3e-4,-2.45023 -1.94999,-4.47677 -4.39844,-4.57032 z m 1.48828,1.55859 26.25586,1.00586 c 1.65866,0.0634 2.95499,1.41045 2.95508,3.07032 v 7.64257 h -29.28515 z"
     id="path283" />
  <path
     style="color:#000000;fill:#ffffff;stroke-miterlimit:10;-inkscape-stroke:none"
     d="m 442.65429,248.33789 -0.0957,14.77539 h 32.29492 v -0.75 -8.39062 c -1.3e-4,-2.45023 -1.94999,-4.47677 -4.39844,-4.57032 z m 1.48828,1.55664 26.25586,1.00586 c 1.65866,0.0634 2.95499,1.4124 2.95508,3.07227 v 7.64062 h -29.28515 z"
     id="path285" />
  <path
     style="color:#000000;fill:#ffffff;stroke-miterlimit:10;-inkscape-stroke:none"
     d="m 8.3457031,297.13281 v 5.43164 h -0.066406 c -0.6720829,0 -1.2324218,0.56034 -1.2324218,1.23242 v 2.00586 c 0,0.6715 0.5609281,1.23243 1.2324218,1.23243 h 0.066406 v 5.71093 h 2.0175779 l 0.01758,-15.61328 H 9.6308592 Z m 0.2011719,6.93164 h 0.3261718 l -0.00195,1.47071 H 8.546875 Z"
     id="path287" />
  <path
     style="color:#000000;fill:#ffffff;stroke-miterlimit:10;-inkscape-stroke:none"
     d="m 484.62109,145.43555 v 0.75 50.93554 h 4.81445 v -51.68554 z m 1.5,1.5 h 1.81445 v 48.68554 h -1.81445 z"
     id="path289" />
  <path
     style="color:#000000;fill:#ffffff;stroke-miterlimit:10;-inkscape-stroke:none"
     d="m 485.70703,145.43555 v 0.75 50.93554 h 3.50976 v -51.68554 z m 1.5,1.5 h 0.50976 v 48.68554 h -0.50976 z"
     id="path291" />
  <path
     style="color:#000000;fill:#ffffff;stroke-miterlimit:10;-inkscape-stroke:none"
     d="m 487.19336,145.43555 v 0.75 50.93554 h 3.50976 v -51.68554 z m 1.5,1.5 h 0.50976 v 48.68554 h -0.50976 z"
     id="path293" />
  <path
     style="color:#000000;fill:#ffffff;stroke-miterlimit:10;-inkscape-stroke:none"
     d="m 470.17968,157.5625 0.14649,0.875 4.36133,26.04102 1.48828,-0.12305 V 157.5625 Z m 1.77149,1.5 h 2.72461 v 16.26953 z"
     id="path295" />
  <g
     id="g319"
     style="fill:#ffffff;stroke:#000000;stroke-width:1.5;stroke-miterlimit:10"
     transform="translate(2.6894531,0.75)">
    <path
       style="color:#000000;fill:#ffffff;stroke:none;-inkscape-stroke:none"
       d="M 244.61914,-0.75 C 138.9014,-0.42498234 36.27666,1.1267137 24.755859,1.2304687 12.528627,1.2340833 1.2304688,12.53419 1.2304687,24.761719 V 234.74023 c -8.253e-4,1.22937 1.0128172,2.24302 2.2421876,2.24219 h 6.9355467 v -1.5625 H 6.7734375 V 25.109375 c 0,-9.088284 8.0996315,-17.2871152 17.1874995,-17.4101563 L 244.08008,4.7128906 464.20117,7.6992187 c 9.08787,0.1230411 17.1875,8.3218723 17.1875,17.4101563 V 145.43555 h 0.75 v 0.75 h 5.875 V 24.761719 c 0,-12.227529 -11.29816,-23.5276357 -23.52539,-23.5312503 h -0.006 C 452.95492,1.126604 350.33859,-0.4249951 244.625,-0.75 h -0.004 z m 0,1.5 c 105.70605,0.3249817 208.28029,1.876224 219.85547,1.9804688 h 0.004 0.004 c 11.29249,0 22.03125,10.7387592 22.03125,22.0312502 V 144.68555 h -3.625 V 25.109375 c 0,-9.969697 -8.69985,-18.7751975 -18.66797,-18.9101563 L 244.08008,3.2128906 23.941406,6.1992187 C 13.973293,6.3341775 5.2734375,15.139678 5.2734375,25.109375 V 235.48242 h -1.8007812 -0.00195 c -0.417999,2.8e-4 -0.740515,-0.32223 -0.7402343,-0.74023 V 24.761719 c 0,-11.292491 10.738759,-22.0312502 22.03125,-22.0312502 h 0.0039 0.0039 C 36.344474,2.6262261 138.91535,1.0750246 244.61914,0.75 Z"
       id="path297" />
    <path
       style="color:#000000;fill:#ffffff;stroke:none;-inkscape-stroke:none"
       d="m 244.08008,1.7265625 c -95.48766,0 -220.115743,3.7297826 -220.138674,3.7304687 C 13.973293,5.59199 5.2734375,14.39749 5.2734375,24.367187 V 236.17773 H 10.40625 V 25.753906 c 0,-3.85015 1.963475,-7.584283 4.742188,-10.345703 2.778712,-2.76142 6.358916,-4.505859 9.365234,-4.505859 H 464.72852 c 3.00686,0 6.58665,1.744451 9.36523,4.505859 2.77858,2.761408 4.74219,6.495523 4.74219,10.345703 V 145.44336 h 4.05273 v -0.75 V 24.367187 C 482.88867,14.39749 474.18882,5.59199 464.2207,5.4570312 464.1978,5.4563451 339.56773,1.7265625 244.08008,1.7265625 Z m 0,1.5 c 95.45737,0 220.10937,3.7285156 220.10937,3.7285156 h 0.006 0.006 c 9.08787,0.1230411 17.1875,8.3238259 17.1875,17.4121089 V 143.94336 h -1.05273 V 25.753906 c 0,-4.354811 -2.17964,-8.42282 -5.18555,-11.410156 -3.00591,-2.987336 -6.85274,-4.9414063 -10.42187,-4.9414062 H 24.513672 C 20.944997,9.4023437 17.097828,11.356426 14.091797,14.34375 11.085766,17.331074 8.90625,21.399064 8.90625,25.753906 V 234.67773 H 6.7734375 V 24.367187 c 0,-9.088283 8.0996315,-17.2890678 17.1874995,-17.4121089 h 0.0059 0.0059 c 0,0 124.650053,-3.7285156 220.107423,-3.7285156 z"
       id="path299" />
    <path
       style="color:#000000;fill:#ffffff;stroke:none;-inkscape-stroke:none"
       d="M 244.08008,3.2128906 23.941406,6.1992187 C 13.973293,6.3341775 5.2734375,15.139678 5.2734375,25.109375 V 236.91992 H 10.40625 V 26.496094 c 0,-3.85015 1.963475,-7.584283 4.742188,-10.345703 2.778712,-2.761421 6.358916,-4.503907 9.365234,-4.503907 H 464.72852 c 3.00686,0 6.58665,1.742499 9.36523,4.503907 2.77858,2.761408 4.74219,6.495522 4.74219,10.345703 V 146.18555 h 4.05273 v -0.75 -120.326175 c 0,-9.969697 -8.69985,-18.7751975 -18.66797,-18.9101563 z m 0,1.5 220.12109,2.9863281 c 9.08787,0.1230411 17.1875,8.3218723 17.1875,17.4101563 V 144.68555 h -1.05273 V 26.496094 c 0,-4.354812 -2.17964,-8.420867 -5.18555,-11.408203 -3.00591,-2.987337 -6.85274,-4.941407 -10.42187,-4.941407 H 24.513672 c -3.568675,0 -7.415844,1.954083 -10.421875,4.941407 C 11.085766,18.075215 8.90625,22.141252 8.90625,26.496094 V 235.41992 H 6.7734375 V 25.109375 c 0,-9.088284 8.0996315,-17.2871152 17.1874995,-17.4101563 z"
       id="path301" />
    <path
       style="color:#000000;fill:#ffffff;stroke:none;-inkscape-stroke:none"
       d="m 480.25781,144.35547 v 23.30469 h 6.55274 c 0.67641,0 1.24218,-0.56578 1.24218,-1.24219 v -20.82031 c 0,-0.67706 -0.56513,-1.24219 -1.24218,-1.24219 z m 1.5,1.5 h 4.79492 v 20.30469 h -4.79492 z"
       id="path303" />
    <path
       style="color:#000000;fill:#ffffff;stroke:none;-inkscape-stroke:none"
       d="m 486.27734,144.35547 v 23.30469 h 1.17188 c 0.25687,0 0.45641,-0.13491 0.55273,-0.23243 0.0963,-0.0975 0.13325,-0.17383 0.16211,-0.23437 0.0577,-0.12107 0.0736,-0.19852 0.0899,-0.2793 0.0324,-0.16155 0.0449,-0.31965 0.0449,-0.49609 v -20.82031 c 0,-0.17644 -0.0125,-0.33454 -0.0449,-0.4961 -0.0162,-0.0808 -0.0321,-0.16017 -0.0899,-0.28125 -0.0289,-0.0605 -0.0658,-0.13491 -0.16211,-0.23242 -0.0963,-0.0975 -0.29586,-0.23242 -0.55273,-0.23242 z"
       id="path305" />
    <path
       style="color:#000000;fill:#ffffff;stroke:none;-inkscape-stroke:none"
       d="m 480.25781,144.35547 v 0.75 22.55469 h 3.83203 v -23.30469 z m 1.5,1.5 h 0.83203 v 20.30469 h -0.83203 z"
       id="path307" />
    <path
       style="color:#000000;fill:#ffffff;stroke:none;-inkscape-stroke:none"
       d="m 481.75781,144.03711 -1.00586,0.36328 -1.74023,0.62891 c -0.48382,0.17508 -0.81206,0.63977 -0.8125,1.15429 v 19.64649 c 0,0.51388 0.32815,0.9822 0.81445,1.15625 l 2.74414,0.99219 z m -1.5,2.13672 v 19.66797 l -0.55859,-0.20118 V 146.375 Z"
       id="path309" />
    <path
       style="color:#000000;fill:#ffffff;stroke:none;-inkscape-stroke:none"
       d="m 483.33203,155.20703 v 0.75 3.16016 h 4.64063 c 0.49,0 1.01953,-0.36757 1.01953,-0.97657 v -1.95507 c 0,-0.60616 -0.53287,-0.97852 -1.01953,-0.97852 z m 1.5,1.5 h 2.66016 v 0.91016 h -2.66016 z"
       id="path311" />
    <path
       style="color:#000000;fill:#ffffff;stroke:none;-inkscape-stroke:none"
       d="m 484.83203,155.12305 -0.82812,0.0898 -3.75,0.40039 c -0.43307,0.0461 -0.88477,0.39962 -0.88477,0.94922 v 1.19922 c 0,0.54475 0.4524,0.90352 0.88477,0.94922 l 4.57812,0.49023 z m -1.5,1.66992 v 0.73828 l -2.46289,-0.26367 v -0.21094 z"
       id="path313" />
    <path
       style="color:#000000;fill:#ffffff;stroke:none;-inkscape-stroke:none"
       d="m 483.33203,154.46484 v 0.75 3.15821 h 4.64063 c 0.49,0 1.01953,-0.36757 1.01953,-0.97657 v -1.95507 c 0,-0.60616 -0.53287,-0.97657 -1.01953,-0.97657 z m 1.5,1.5 h 2.66016 v 0.90821 h -2.66016 z"
       id="path315" />
    <path
       style="color:#000000;fill:#ffffff;stroke:none;-inkscape-stroke:none"
       d="m 484.83203,154.38086 -0.82812,0.0879 -3.75,0.40234 c -0.43307,0.0461 -0.88477,0.39767 -0.88477,0.94727 v 1.20117 c 0,0.54475 0.4524,0.90352 0.88477,0.94922 v -0.002 l 4.57812,0.49023 z m -1.5,1.66797 v 0.74023 l -2.46289,-0.26367 v -0.21289 z"
       id="path317" />
  </g>
  <g
     id="g323"
     style="fill:#ffffff;stroke:#000000;stroke-width:1.5;stroke-miterlimit:10"
     transform="translate(2.6894531,0.75)">
    <path
       style="color:#000000;fill:#ffffff;stroke:none;-inkscape-stroke:none"
       d="m 482.13867,194.87109 v 0.75 h -0.75 v 39.79883 h -2.55273 v 1.5625 h 6.93554 c 1.22937,8.3e-4 2.24302,-1.01282 2.24219,-2.24219 v -39.86914 z m 0.75,1.5 h 3.625 v 38.3711 c 2.8e-4,0.418 -0.32223,0.74051 -0.74023,0.74023 h -0.002 -2.88281 z"
       id="path321" />
  </g>
  <path
     style="color:#000000;fill:#ffffff;stroke-miterlimit:10;-inkscape-stroke:none"
     d="m 468.42773,250.26562 c -0.77195,-0.0422 -1.43614,0.60417 -1.41406,1.37696 v 0.002 l 0.12109,4.01172 c 0.0211,0.70114 0.59769,1.27774 1.29883,1.29883 l 4.39258,0.13086 c 0.74537,0.0215 1.37921,-0.59416 1.3789,-1.33985 v -2.23242 c 0,-1.73922 -1.49836,-3.09961 -3.19921,-3.09961 z m 0.0918,1.50782 2.46484,0.14062 h 0.0215 c 0.87914,0 1.69922,0.75884 1.69921,1.59961 v 2.06641 l -4.07421,-0.1211 z"
     id="path325" />
  <path
     style="color:#000000;fill:#ffffff;stroke-miterlimit:10;-inkscape-stroke:none"
     d="m 467.74218,249.56445 c -0.79877,-0.0446 -1.48688,0.62588 -1.46289,1.42578 l 0.13086,4.31836 c 0.0216,0.72531 0.61844,1.32217 1.34375,1.34375 l 4.72657,0.14063 c 0.77129,0.0231 1.42808,-0.61313 1.42773,-1.38477 v -2.40234 c 0,-1.83824 -1.58859,-3.28125 -3.38867,-3.28125 h 0.043 l -2.81836,-0.16016 z m 0.041,1.50586 2.7168,0.1543 h 0.0195 c 0.97791,0 1.88867,0.84149 1.88867,1.78125 v 2.28516 l -4.50391,-0.13282 z"
     id="path327" />
  <path
     style="color:#000000;fill:#ffffff;stroke-miterlimit:10;-inkscape-stroke:none"
     d="m 468.18164,250.01172 c -0.77248,-0.0436 -1.43839,0.60381 -1.41602,1.37695 l 0.1211,4.01172 c 0.0211,0.70114 0.59769,1.27775 1.29882,1.29883 l 4.39258,0.13086 c 0.74537,0.0215 1.37922,-0.59416 1.37891,-1.33985 v -2.23046 c 0,-1.73923 -1.49837,-3.10157 -3.19922,-3.10157 z m 0.0898,1.50781 2.46484,0.13867 h 0.0215 c 0.87915,0 1.69922,0.76079 1.69922,1.60157 v 2.0664 l -4.07422,-0.12109 z"
     id="path329" />
  <path
     style="color:#000000;fill:#ffffff;stroke-miterlimit:10;-inkscape-stroke:none"
     d="m 483.88281,303.79297 v 28.49609 h 2.32617 v -7.15625 h 1.11524 l -0.46875,-3.98047 h -0.64649 v -1.31836 h 1.11524 l -0.0996,-0.83789 -0.36914,-3.14257 h -0.64649 v -1.31836 h 1.11524 l -0.46875,-3.98047 h -0.64649 v -6.76172 z m 1.5,8.26172 h 0.13867 l 0.11524,0.98047 h -0.25391 z m 0,5.29883 h 0.13867 l 0.11524,0.98046 h -0.25391 z m 0,5.29882 h 0.13867 l 0.11524,0.98047 h -0.25391 z"
     id="path331" />
  <path
     style="color:#000000;fill:#ffffff;stroke-miterlimit:10;-inkscape-stroke:none"
     d="m 13.617187,270.15625 c -1.252547,0 -2.285156,1.03261 -2.285156,2.28516 v 3.17578 h 0.75 42.058594 v -4.04102 l -2.601563,-1.41992 z m 429.466793,0 -2.60156,1.41992 v 4.04102 h 42.80859 v -0.75 -2.42578 c 0,-1.25255 -1.03261,-2.28516 -2.28515,-2.28516 z m -429.466793,1.5 H 51.15625 l 1.484375,0.81055 v 1.65039 H 12.832031 v -1.67578 c 0,-0.44145 0.343706,-0.78516 0.785156,-0.78516 z m 429.849603,0 h 37.53907 c 0.44145,0 0.78515,0.34371 0.78515,0.78516 v 1.67578 h -39.80859 v -1.65039 z"
     id="path333" />
  <path
     style="color:#000000;fill:#ffffff;stroke-miterlimit:10;-inkscape-stroke:none"
     d="m 13.617187,269.41406 c -1.252547,0 -2.285156,1.03066 -2.285156,2.28321 v 3.17773 h 0.75 42.058594 v -4.04297 l -2.601563,-1.41797 z m 429.466793,0 -2.60156,1.41797 v 4.04297 h 42.80859 v -0.75 -2.42773 c 0,-1.25255 -1.03261,-2.28321 -2.28515,-2.28321 z m -429.466793,1.5 H 51.15625 l 1.484375,0.8086 V 273.375 H 12.832031 v -1.67773 c 0,-0.44145 0.343706,-0.78321 0.785156,-0.78321 z m 429.849603,0 h 37.53907 c 0.44145,0 0.78515,0.34176 0.78515,0.78321 v 1.67773 h -39.80859 v -1.65234 z"
     id="path335" />
  <path
     style="color:#000000;fill:#ffffff;stroke-miterlimit:10;-inkscape-stroke:none"
     d="m 481.52539,195.62109 v 0.75 41.29883 h 4.05273 v -42.04883 z m 1.5,1.5 h 1.05273 v 39.04883 h -1.05273 z"
     id="path337" />
  <g
     id="g349"
     style="fill:#ffffff;stroke:#000000;stroke-width:1.5;stroke-miterlimit:10"
     transform="translate(2.6894531,0.75)">
    <defs
       id="defs340">
      <path
         id="r"
         d="m 385.838,475.627 h 13.907 c 0.71,0 1.286,-0.576 1.286,-1.286 v -13.907 c 0,-0.71 -0.576,-1.286 -1.286,-1.286 h -13.907 c -0.71,0 -1.286,0.576 -1.286,1.286 v 13.907 c 0,0.71 0.576,1.286 1.286,1.286 z" />
    </defs>
    <path
       style="color:#000000;fill:#ffffff;stroke:none;-inkscape-stroke:none"
       d="m 385.83789,458.39844 c -1.11563,0 -2.03516,0.91952 -2.03516,2.03515 v 13.90821 c 0,1.11563 0.91953,2.03515 2.03516,2.03515 h 13.90625 c 1.11563,0 2.03711,-0.91952 2.03711,-2.03515 v -13.90821 c 0,-1.11563 -0.92148,-2.03515 -2.03711,-2.03515 z m 0,1.5 h 13.90625 c 0.30437,0 0.53711,0.23079 0.53711,0.53515 v 13.90821 c 0,0.30436 -0.23274,0.53515 -0.53711,0.53515 h -13.90625 c -0.30437,0 -0.53516,-0.23079 -0.53516,-0.53515 v -13.90821 c 0,-0.30436 0.23079,-0.53515 0.53516,-0.53515 z"
       id="use342" />
    <clipPath
       id="s">
      <use
         xlink:href="#r"
         overflow="visible"
         id="use344"
         x="0"
         y="0"
         width="100%"
         height="100%" />
    </clipPath>
    <path
       style="color:#000000;fill:#ffffff;stroke:none;stroke-linecap:round;stroke-linejoin:round;-inkscape-stroke:none"
       d="m 385.41797,459.26367 a 0.750075,0.750075 0 0 0 -0.75,0.75 v 12.89453 a 0.75,0.75 0 0 0 0.75,0.75 0.75,0.75 0 0 0 0.75,-0.75 v -12.14453 h 12.10351 a 0.75,0.75 0 0 0 0.75,-0.75 0.75,0.75 0 0 0 -0.75,-0.75 z"
       id="path347" />
  </g>
  <linearGradient
     id="t"
     gradientUnits="userSpaceOnUse"
     x1="400.746"
     y1="475.34201"
     x2="385.62299"
     y2="460.21899">
    <stop
       offset="0"
       stop-color="#1f8abe"
       id="stop351" />
    <stop
       offset="1"
       stop-color="#38abce"
       id="stop353" />
  </linearGradient>
  <path
     style="color:#000000;fill:#ffffff;stroke-miterlimit:10;-inkscape-stroke:none"
     d="m 388.91015,460.01367 c -0.84881,0 -1.55273,0.70392 -1.55273,1.55274 v 13.14257 c 0,0.84828 0.70445,1.55274 1.55273,1.55274 h 13.14258 c 0.84941,0 1.55274,-0.70454 1.55274,-1.55274 v -13.14257 c 0,-0.84882 -0.70392,-1.55274 -1.55274,-1.55274 z m 0,1.5 h 13.14258 c 0.0382,0 0.0527,0.0146 0.0527,0.0527 v 13.14257 c 0,0.0378 -0.0141,0.0527 -0.0527,0.0527 h -13.14258 c -0.0397,0 -0.0527,-0.013 -0.0527,-0.0527 v -13.14257 c 0,-0.0382 0.0146,-0.0527 0.0527,-0.0527 z"
     id="path356" />
  <path
     style="color:#000000;fill:#ffffff;stroke-miterlimit:10;-inkscape-stroke:none"
     d="m 56.734375,235.42773 c -0.639997,0 -1.190704,0.29523 -1.589844,0.66016 -0.39914,0.36493 -0.683213,0.80482 -0.90625,1.22461 -0.446074,0.83959 -0.646484,1.6543 -0.646484,1.6543 l -0.01758,0.0684 -0.398438,6.62109 388.314451,0.7168 -0.0488,-0.79688 -0.39258,-6.54101 -0.0176,-0.0684 c 0,0 -0.20041,-0.81471 -0.64649,-1.6543 -0.22303,-0.41979 -0.50711,-0.85968 -0.90625,-1.22461 -0.39914,-0.36493 -0.94984,-0.66016 -1.58984,-0.66016 H 247.31054 Z m 0,1.5 H 247.31054 437.88867 c 0.1955,0 0.36603,0.0754 0.57617,0.26758 0.21014,0.19213 0.42412,0.49736 0.5957,0.82031 0.33295,0.62667 0.49006,1.23728 0.5,1.2754 l 0.33594,5.57812 -385.126949,-0.71094 0.292969,-4.86718 c 0.0099,-0.0381 0.16705,-0.64873 0.5,-1.2754 0.171588,-0.32295 0.385562,-0.62818 0.595703,-0.82031 0.210141,-0.19213 0.380669,-0.26758 0.576172,-0.26758 z"
     id="path358" />
  <g
     id="g362"
     style="fill:#ffffff;stroke:#000000;stroke-width:1.5;stroke-miterlimit:10"
     transform="translate(2.6894531,0.75)">
    <path
       style="color:#000000;fill:#ffffff;stroke:none;-inkscape-stroke:none"
       d="m 49.240234,260.49219 0.667969,7.74218 c 0.09355,1.08421 1.013326,1.92892 2.101563,1.92969 H 437.23242 c 1.08878,-3e-5 2.0087,-0.84487 2.10156,-1.92969 l 0.66797,-7.74218 z m 1.634766,1.5 h 387.49219 l -0.52735,6.11328 c -0.0276,0.32229 -0.28395,0.55858 -0.60742,0.55859 H 52.009766 c -0.323642,-2.3e-4 -0.5796,-0.23615 -0.607422,-0.55859 z"
       id="path360" />
  </g>
  <g
     id="g366"
     style="fill:#ffffff;stroke:#000000;stroke-width:1.5;stroke-miterlimit:10"
     transform="translate(2.6894531,0.75)">
    <path
       style="color:#000000;fill:#ffffff;stroke:none;-inkscape-stroke:none"
       d="m 48.732422,254.58594 0.636719,7.40625 H 50.058594 439.875 l 0.63672,-7.40625 z m 1.634765,1.5 H 438.87695 l -0.3789,4.40625 H 50.746094 Z"
       id="path364" />
  </g>
  <g
     id="g394"
     style="fill:#ffffff;stroke:#000000;stroke-width:1.5;stroke-miterlimit:10"
     transform="translate(2.6894531,0.75)">
    <g
       fill="#e3f4f5"
       id="g370"
       style="fill:#ffffff">
      <path
         style="color:#000000;fill:#ffffff;stroke:none;-inkscape-stroke:none"
         d="m 155.46484,475.66797 c -0.65226,0 -1.27418,0.18213 -1.75976,0.57031 v 0.002 c -0.49041,0.39233 -0.79102,1.00934 -0.79102,1.63477 0,0.49862 0.18233,1.00878 0.53516,1.36328 l 0.002,0.002 c 0.0881,0.0881 0.21833,0.11391 0.31836,0.1875 l -1.24805,1.59375 0.41602,0.4668 c 0.63295,0.71416 1.55729,1.08203 2.56641,1.08203 0.76626,0 1.46437,-0.17733 1.96875,-0.65625 0.20866,-0.1981 0.21354,-0.50647 0.33398,-0.76562 v 1.32812 h 4.52539 0.39649 2.67968 0.75196 v -1.49804 l 0.27539,0.27539 v 1.22265 h 4.92187 v -0.75 -0.84179 c 0.14406,0.24821 0.26557,0.51045 0.47461,0.71484 0.64629,0.63372 1.51132,0.9707 2.43945,0.9707 1.03159,0 1.97694,-0.49926 2.59571,-1.34961 l 0.50195,-0.6914 -1.89648,-1.03125 -0.38282,0.56445 c -0.0828,0.12252 -0.18534,0.21811 -0.35156,0.30859 l -0.002,0.002 c -0.15387,0.0844 -0.29271,0.11914 -0.46485,0.11914 -0.40021,0 -0.64085,-0.10548 -0.89648,-0.3711 h -0.002 c -0.24932,-0.2584 -0.36524,-0.54179 -0.36524,-1.00195 0,-0.46721 0.11733,-0.74958 0.36328,-1.00586 0.24936,-0.25983 0.49108,-0.36523 0.90039,-0.36523 h 0.002 c 0.16312,-5.8e-4 0.32322,0.0397 0.46679,0.11718 l 0.006,0.002 0.004,0.004 c 0.13597,0.0708 0.25311,0.17307 0.33789,0.30078 l 0.38477,0.58204 1.63281,-0.92188 h 0.68359 v 4.64453 h 2.15039 v -0.75 -3.89453 h 1.66016 v -2.07812 h -5.46094 v 0.625 c -0.54166,-0.41386 -1.15895,-0.71094 -1.86719,-0.71094 -0.92813,0 -1.79316,0.33699 -2.43945,0.9707 -0.20874,0.20468 -0.33045,0.46827 -0.47461,0.7168 v -1.60156 h -4.92187 v 4.64453 h -1.95313 v -4.64453 h -1.7539 -0.39649 -4.52539 v 0.84961 c -0.60355,-0.60944 -1.4365,-0.93555 -2.3418,-0.93555 z m -1.26172,0.95703 c -0.003,0.002 -9.1e-4,0.008 -0.004,0.01 -0.004,0.003 -0.01,9.5e-4 -0.0137,0.004 z m 3.60352,1.10937 v 1.3379 c -0.16658,-0.22999 -0.41394,-0.38337 -0.6582,-0.53321 z m -2.39648,0.0215 c 0.47295,0 0.72166,0.11704 0.95117,0.375 l 0.0254,0.0273 c -0.0934,-0.0329 -0.17545,-0.0683 -0.27344,-0.0996 -0.27942,-0.0893 -0.54154,-0.16675 -0.78711,-0.22851 -0.0395,-0.0101 -0.0481,-0.0237 -0.0801,-0.0352 0.0494,-0.0151 0.0656,-0.0391 0.16407,-0.0391 z m 4.54687,0.0762 h 2.375 v 0.18555 h -2.375 z m 8.62891,0 h 2.48828 c -0.0217,0.058 -0.0146,0.12619 -0.0332,0.18555 h -2.45508 z m -14.99805,0.004 c 0,0.003 0.004,0.005 0.004,0.008 3e-5,0.002 -0.004,0.003 -0.004,0.006 z m 0.58008,1.82812 c 0.12875,0.0628 0.22726,0.17491 0.36523,0.2168 0.31645,0.0961 0.63398,0.18294 0.95117,0.26172 l 0.008,0.002 h 0.008 c 0.17566,0.0398 0.3401,0.11674 0.49219,0.21289 0.002,0.009 0.0115,0.0102 -0.0391,0.0566 -0.006,0.005 -0.11152,0.0781 -0.42578,0.0781 -0.46727,0 -0.75859,-0.13431 -1.07031,-0.49414 z m 5.78906,0.43164 h 2.375 v 0.30274 h -2.375 z m 8.62891,0 h 2.43164 c 0.0268,0.0982 0.0196,0.20807 0.0547,0.30274 h -2.48633 z m -11.07813,0.23828 v 0.0117 c 4e-5,-0.002 -0.002,-0.004 -0.002,-0.006 1e-5,-0.002 0.002,-0.004 0.002,-0.006 z"
         id="path368" />
    </g>
    <g
       fill="#e3f4f5"
       id="g374"
       style="fill:#ffffff">
      <path
         style="color:#000000;fill:#ffffff;stroke:none;-inkscape-stroke:none"
         d="m 256.00195,473.46484 -0.92187,2.28907 h -0.61719 l -1.11523,2.77148 -1.12305,-2.77148 h -0.61719 l -0.91992,-2.27344 v 2.27344 h -0.65039 v 1.87304 c -0.15292,-0.3465 -0.33537,-0.68061 -0.59961,-0.95898 -0.62039,-0.65358 -1.48526,-1 -2.41602,-1 -0.93075,0 -1.79419,0.34694 -2.41211,1.00195 -0.26275,0.27853 -0.44373,0.61279 -0.5957,0.95899 v -1.875 h -2.15039 v 2.24804 h -1.55469 v -2.24804 h -2.15039 v 6.72265 h 2.15039 v -2.39648 h 1.55469 v 2.39648 h 2.15039 v -0.75 -1.11523 c 0.15202,0.34606 0.33276,0.67885 0.5957,0.95703 0.61792,0.65502 1.48136,1.00391 2.41211,1.00391 0.93019,0 1.79606,-0.34817 2.41602,-1.00196 0.26405,-0.2782 0.44667,-0.61254 0.59961,-0.95898 v 1.86523 h 2.15039 v -1.28906 l 0.52148,1.28906 h 0.6211 l 0.0215,0.0547 0.0215,-0.0547 h 0.61523 l 0.51367,-1.27539 v 1.27539 h 2.02735 0.12304 4.79883 v -0.75 -1.32812 h -2.77148 v -0.30274 h 2.71679 v -2.07812 h -2.71679 v -0.18555 h 2.77148 v -2.07812 h -4.79883 -0.12304 -0.52735 z m -8.98047,4.28321 c 0.39979,0 0.61245,0.0987 0.83399,0.34765 0.22715,0.25531 0.3418,0.55111 0.3418,1.02344 0,0.47233 -0.11539,0.76961 -0.3418,1.02344 v 0.002 c -0.22156,0.24964 -0.4342,0.34766 -0.83399,0.34766 -0.40758,0 -0.61285,-0.0977 -0.82812,-0.34375 l -0.002,-0.002 c -0.22288,-0.25344 -0.33789,-0.55339 -0.33789,-1.02734 0,-0.4801 0.11617,-0.77781 0.33789,-1.0293 0.21435,-0.24314 0.42076,-0.34179 0.83007,-0.34179 z"
         id="path372" />
    </g>
    <g
       fill="#adadad"
       id="g378"
       style="fill:#ffffff">
      <path
         style="color:#000000;fill:#ffffff;stroke:none;-inkscape-stroke:none"
         d="m 455.9707,178.87695 c -0.92997,0 -1.79454,0.34791 -2.41211,1.00391 -0.61353,0.64969 -0.92968,1.51497 -0.92968,2.44726 0,0.93294 0.31784,1.79802 0.92968,2.44727 0.6179,0.65636 1.48279,1.00391 2.41211,1.00391 0.92933,0 1.79565,-0.34705 2.41602,-1.00196 0.26452,-0.27895 0.44653,-0.61361 0.59961,-0.96093 v 1.86914 h 1.40039 0.75195 v -2.37891 h 2.31836 v 2.37891 h 1.40039 0.75195 v -2.37891 h 2.7168 v -2.08008 h -2.7168 v -0.18359 h 2.77149 v -2.08008 h -4.4707 -0.45313 -4.4707 v 1.87695 c -0.15308,-0.34732 -0.33509,-0.68198 -0.59961,-0.96093 -0.62004,-0.65456 -1.48604,-1.00196 -2.41602,-1.00196 z m 0,2.07813 c 0.40109,0 0.6138,0.0995 0.83399,0.34765 0.22762,0.25583 0.34375,0.55388 0.34375,1.02539 0,0.47152 -0.11613,0.76761 -0.34375,1.02344 -0.22154,0.249 -0.4342,0.34766 -0.83399,0.34766 -0.40628,0 -0.61712,-0.0983 -0.83008,-0.3418 -0.2231,-0.25507 -0.33789,-0.55534 -0.33789,-1.0293 0,-0.4809 0.11587,-0.78224 0.33594,-1.03125 0.21389,-0.24261 0.42402,-0.34179 0.83203,-0.34179 z m 5.16797,0.0879 h 2.31836 v 0.18359 h -2.31836 z"
         id="path376" />
    </g>
    <g
       fill="#008255"
       id="g382"
       style="fill:#ffffff">
      <path
         style="color:#000000;fill:#ffffff;stroke:none;-inkscape-stroke:none"
         d="m 442.97461,167.7168 c -0.92146,0 -1.77841,0.34236 -2.36133,1.00195 l -0.41797,0.4707 1.04688,1.3125 -2.91602,0.52539 2.82617,0.28516 -1,1.26562 0.37696,0.4668 c 0.27098,0.33466 0.63367,0.5867 1.04492,0.76367 0.42918,0.1847 0.90118,0.26953 1.39453,0.26953 0.67349,10e-6 1.30166,-0.15784 1.79883,-0.53515 0.12374,-0.0938 0.10401,-0.28235 0.20312,-0.40235 v 0.85157 h 2.61328 c 0.88367,0 1.70464,-0.28058 2.3125,-0.84766 0.61219,-0.57102 0.92774,-1.38584 0.92774,-2.25781 0,-0.86648 -0.32137,-1.67927 -0.93164,-2.25 -0.60922,-0.56852 -1.43207,-0.85156 -2.31641,-0.85156 h -2.60547 v 0.91601 c -0.11369,-0.1548 -0.0979,-0.38186 -0.25195,-0.49414 l -0.002,-0.002 c -0.48436,-0.35074 -1.08684,-0.48828 -1.74219,-0.48828 z m 0.87109,1.11718 0.0391,0.0215 c -0.01,-0.006 -0.0215,-0.002 -0.0312,-0.008 -0.005,-0.003 -0.003,-0.0111 -0.008,-0.0137 z m 0.6543,1.08008 v 0.0137 c 5e-5,-0.003 -0.004,-0.003 -0.004,-0.006 3e-5,-0.003 0.004,-0.005 0.004,-0.008 z m 2.97266,0.25586 h 0.10937 c 0.31793,0 0.43126,0.0627 0.53516,0.17383 0.12383,0.1325 0.18359,0.2645 0.18359,0.54297 0,0.2601 -0.0555,0.39099 -0.19336,0.53711 -0.1205,0.12775 -0.23657,0.1875 -0.53125,0.1875 h -0.10351 z m -2.90039,1.66211 -0.002,0.0508 c 5.7e-4,-0.01 -0.014,-0.0137 -0.0137,-0.0234 1.7e-4,-0.0111 0.0157,-0.0162 0.0156,-0.0273 z m -0.54688,1.05078 -0.0293,0.0215 c 0.005,-0.003 0.003,-0.0122 0.008,-0.0156 0.007,-0.005 0.015,-0.001 0.0215,-0.006 z"
         id="path380" />
    </g>
    <g
       fill="#e3f4f5"
       id="g386"
       style="fill:#ffffff">
      <path
         style="color:#000000;fill:#ffffff;stroke:none;-inkscape-stroke:none"
         d="m 319.52148,475.11914 -0.24804,0.63477 h -0.65625 l -0.80078,1.98632 v -1.98632 h -5.46289 v 0.57617 c -0.55518,-0.39859 -1.20328,-0.66211 -1.9336,-0.66211 -0.65152,0 -1.27382,0.18299 -1.75976,0.57031 v 0.002 h -0.002 c -0.48848,0.39195 -0.78906,1.00817 -0.78906,1.63477 0,0.49632 0.18095,1.00793 0.53516,1.36328 4e-4,4e-4 0.002,-4e-4 0.002,0 4.4e-4,4.4e-4 -4.4e-4,0.002 0,0.002 0.0878,0.088 0.21682,0.11419 0.31641,0.1875 l -1.2461,1.5918 0.41406,0.46875 c 0.63221,0.71478 1.55534,1.08203 2.56446,1.08203 0.76709,0 1.46709,-0.1776 1.9707,-0.65429 v -0.002 c 0.44335,-0.4209 0.70899,-1.01719 0.70899,-1.62695 0,-0.42948 -0.1207,-0.86223 -0.37305,-1.21289 -0.16629,-0.23196 -0.41504,-0.38393 -0.6582,-0.5332 l 0.58007,-0.70899 h 1.32227 v 4.64453 h 1.39844 0.50195 0.25 2.11523 l 0.46289,-1.16601 h 1.58008 l 0.46094,1.16601 h 1.3418 1.02343 1.12696 v -1.89648 l 1.21094,1.89648 h 2.57421 l -0.76953,-1.16406 -0.95312,-1.43945 c 0.13085,-0.0856 0.30753,-0.0821 0.41797,-0.19336 0.41296,-0.41609 0.61328,-1.00557 0.61328,-1.60157 0,-0.0925 -0.0915,-0.15451 -0.10156,-0.24609 h 0.99804 v 4.64453 h 1.39844 0.75195 v -4.64453 h 1.66016 v -2.07812 h -5.46289 v 0.61132 c -0.44483,-0.39213 -1.02722,-0.61132 -1.63867,-0.61132 h -2.84961 v 4.17773 l -1.67969,-4.17773 h -0.66602 z m -10.36523,1.50781 c -0.002,0.002 -10e-4,0.006 -0.004,0.008 -0.003,0.003 -0.008,10e-4 -0.0117,0.004 z m 1.20898,1.12891 c 0.47295,0 0.72167,0.11704 0.95118,0.375 l 0.0234,0.0273 c -0.0936,-0.033 -0.17502,-0.0702 -0.27343,-0.10156 v 0.002 c -0.27894,-0.0895 -0.53959,-0.16675 -0.78516,-0.22851 -0.0395,-0.0101 -0.0482,-0.0237 -0.0801,-0.0352 0.0494,-0.0151 0.0656,-0.0391 0.16406,-0.0391 z m 5.79102,0.0762 h 1.62305 l -1.62305,4.02539 z m 8.11133,0.002 h 0.61914 c 0.16175,0 0.19183,0.0231 0.24219,0.0703 0.0488,0.0458 0.0586,0.0435 0.0586,0.17382 v 0.0117 0.0117 c 0.002,0.0595 -0.0215,0.11502 -0.0645,0.15625 v 0.002 c -0.0525,0.0506 -0.0794,0.0703 -0.23633,0.0703 h -0.61914 z m -15.72461,0.002 c 0,0.003 0.004,0.005 0.004,0.008 3e-5,0.002 -0.004,0.003 -0.004,0.006 z m 18.14453,0.21875 v 0.0234 c 0,-0.004 -0.004,-0.008 -0.004,-0.0117 -10e-5,-0.004 0.004,-0.007 0.004,-0.0117 z m -14.89063,1.05859 0.0117,0.008 c -0.003,-0.002 -0.007,-0.002 -0.01,-0.004 -10e-4,-8.4e-4 -6.5e-4,-0.003 -0.002,-0.004 z m 7.73047,0.10742 0.006,0.0176 h -0.0137 z m -10.4082,0.44141 c 0.12982,0.0634 0.2302,0.17656 0.36914,0.21875 0.31601,0.096 0.63165,0.18284 0.94922,0.26172 l 0.008,0.002 h 0.008 c 0.17594,0.04 0.33978,0.11666 0.49219,0.21289 0.002,0.009 0.008,0.0147 -0.0371,0.0566 -3e-5,3e-5 -0.002,-3e-5 -0.002,0 -0.009,0.008 -0.11292,0.0781 -0.42578,0.0781 -0.46598,0 -0.75829,-0.13342 -1.06836,-0.49219 z m 3.3418,0.67187 -0.002,0.0137 c 3e-5,-0.002 -0.002,-0.002 -0.002,-0.004 3e-5,-0.004 0.004,-0.006 0.004,-0.01 z"
         id="path384" />
    </g>
    <g
       fill="#e3f4f5"
       id="g390"
       style="fill:#ffffff">
      <path
         style="color:#000000;fill:#ffffff;stroke:none;-inkscape-stroke:none"
         d="m 419.51953,463.0293 -0.29687,1.08593 h -0.54102 l -0.61328,2.23243 -0.5957,-2.23243 h -2.29102 l 0.25,0.87891 c -0.61666,-0.62525 -1.45697,-0.9668 -2.36523,-0.9668 -0.92942,0 -1.79462,0.34868 -2.41211,1.00391 -0.21402,0.2264 -0.34361,0.50667 -0.48438,0.7793 -0.10459,-0.35626 -0.14081,-0.74329 -0.40039,-1.01172 -0.44249,-0.45916 -1.08237,-0.6836 -1.73828,-0.6836 h -2.84766 v 6.72461 h 1.39844 0.75195 v -2.07617 h 0.69727 c 0.6524,0 1.28969,-0.2269 1.73242,-0.68164 0.0302,-0.031 0.0187,-0.0846 0.0469,-0.11719 0.0936,0.73976 0.34181,1.43381 0.84375,1.96485 0.61749,0.65522 1.48269,1.0039 2.41211,1.0039 0.92941,0 1.7941,-0.34817 2.41406,-1.00195 0.47917,-0.50381 0.7203,-1.15914 0.83008,-1.85547 l 0.78711,2.76367 h 0.61523 l 0.33203,1.25 0.34375,-1.25 h 0.55274 l 0.57812,-2.11718 0.57813,2.11718 h 0.56054 l 0.34766,1.26172 0.33398,-1.26172 h 0.59961 l 0.15625,-0.54492 0.90039,-3.14453 v 3.68945 h 4.61133 0.3125 1.83789 v -1.90234 l 1.21289,1.90234 h 2.57227 l -0.76953,-1.16406 -0.95313,-1.44141 c 0.13094,-0.0856 0.30747,-0.082 0.41797,-0.19335 0.41296,-0.41609 0.61328,-1.00557 0.61328,-1.60157 0,-0.635 -0.23813,-1.26066 -0.69531,-1.68945 -0.4496,-0.42168 -1.06507,-0.63477 -1.69922,-0.63477 h -2.53711 -0.3125 -3.74219 -0.86914 -1.43164 l -0.58789,2.22461 -0.61133,-2.22461 h -0.54882 z m -6.45312,3.08007 c 0.40108,0 0.61184,0.0975 0.83203,0.34571 v 0.002 h 0.002 c 0.22762,0.25583 0.3418,0.55192 0.3418,1.02344 0,0.47152 -0.11493,0.76908 -0.3418,1.02344 l -0.002,0.002 c -0.22156,0.24964 -0.43225,0.34766 -0.83203,0.34766 -0.40629,0 -0.61528,-0.0983 -0.83008,-0.34375 v -0.002 c -0.22236,-0.25358 -0.33789,-0.55339 -0.33789,-1.02734 0,-0.4809 0.11469,-0.7803 0.33593,-1.03125 0.21389,-0.24261 0.42402,-0.33985 0.83204,-0.33985 z m -5.73438,0.0859 h 0.62109 c 0.16014,0 0.18151,0.0212 0.23047,0.0684 0.0532,0.0513 0.0606,0.0499 0.0606,0.17578 0,0.12747 -0.008,0.12721 -0.0586,0.17578 -0.0501,0.048 -0.0739,0.0684 -0.23243,0.0684 h -0.62109 z m 17.81445,0 h 2.46094 v 0.1836 h -2.46094 z m 4.61329,0 h 0.61914 c 0.16175,0 0.19183,0.0231 0.24218,0.0703 0.0488,0.0458 0.0586,0.0435 0.0586,0.17383 v 0.0117 0.0117 c 0.002,0.0595 -0.0216,0.11502 -0.0645,0.15625 -0.0525,0.0506 -0.0794,0.0723 -0.23632,0.0723 h -0.61914 z m 2.41796,0.22071 0.002,0.0234 c 0,-0.005 -0.006,-0.009 -0.006,-0.0137 -9e-5,-0.004 0.004,-0.006 0.004,-0.01 z m -7.03125,2.04101 h 2.46094 v 0.30274 h -2.46094 z"
         id="path388" />
    </g>
    <path
       style="color:#000000;fill:#ffffff;stroke:none;-inkscape-stroke:none"
       d="m 419.80273,309.60547 4.03711,5.35351 -4.25781,5.59766 h 3.32031 l 2.64258,-3.52344 2.64258,3.52344 h 3.31641 l -0.91211,-1.20312 -3.3418,-4.40625 4.03711,-5.3418 h -3.32813 l -2.41601,3.26172 -2.42774,-3.26172 z m 33.52149,26.73633 -0.0391,0.0977 h -1.1875 l -4.41602,10.95117 h 2.9668 l 0.83593,-2.11132 h 3.6836 l 0.83594,2.11132 h 2.96679 l -0.41406,-1.03125 -3.98633,-9.91992 h -1.20703 z m -61.12305,0.0977 4.39844,6.43555 v 4.51562 h 2.67578 v -0.75 -3.76562 l 4.37891,-6.43555 h -3.19141 l -2.5332,3.79297 -2.53321,-3.79297 z m 61.12891,4.00391 0.90625,2.30078 h -1.8086 z m -31.88477,22.95117 v 10.95117 h 5.0586 c 0.98764,0 1.87821,-0.29396 2.52343,-0.91015 h 0.002 v -0.002 c 0.63288,-0.60944 0.95898,-1.46405 0.95898,-2.38867 0,-0.72677 -0.25179,-1.42732 -0.71094,-2 -0.13935,-0.1739 -0.37344,-0.18837 -0.54101,-0.32617 0.12574,-0.11046 0.31328,-0.12669 0.41797,-0.25977 0.4303,-0.52873 0.65039,-1.20171 0.65039,-1.90625 0,-0.88373 -0.33031,-1.70946 -0.95508,-2.29101 v -0.002 c -0.63229,-0.586 -1.49517,-0.86524 -2.44531,-0.86524 z m 2.67578,2.54688 h 2.08399 c 0.36754,0 0.53515,0.082 0.66601,0.21289 0.15295,0.15391 0.21485,0.28712 0.21485,0.56836 0,0.28432 -0.0615,0.41497 -0.20703,0.56054 -0.12016,0.12016 -0.29159,0.20167 -0.66797,0.20313 h -2.08985 z m 0,4.0957 h 2.1543 c 0.40166,0 0.59216,0.0921 0.74609,0.25 0.1801,0.18606 0.2461,0.34642 0.2461,0.63086 0,0.3483 -0.0748,0.50209 -0.22656,0.64648 -0.14517,0.13854 -0.35208,0.23242 -0.76563,0.23242 h -0.75 -1.4043 z"
       id="path392" />
  </g>
  <g
     fill="none"
     stroke="#e3f4f5"
     stroke-width="1.486"
     stroke-linecap="round"
     stroke-linejoin="round"
     stroke-miterlimit="10"
     id="g398"
     style="fill:#ffffff;stroke:#000000;stroke-width:1.5;stroke-miterlimit:10"
     transform="translate(2.6894531,0.75)">
    <path
       style="color:#000000;fill:#ffffff;stroke:none;-inkscape-stroke:none"
       d="m 392.74609,462.08789 a 0.75,0.75 0 0 0 -0.75,0.75 v 4.41602 a 0.75,0.75 0 0 0 0.75,0.75 0.75,0.75 0 0 0 0.75,-0.75 v -4.41602 a 0.75,0.75 0 0 0 -0.75,-0.75 z m -2.32422,1.25586 A 0.75,0.75 0 0 0 389.86914,463.5 c -1.70712,1.34146 -2.12081,3.45705 -1.52344,5.18359 0.59737,1.72654 2.22968,3.13477 4.40039,3.13477 2.17071,0 3.80498,-1.40823 4.40235,-3.13477 0.59737,-1.72654 0.18368,-3.84213 -1.52344,-5.18359 a 0.75,0.75 0 0 0 -1.05469,0.125 0.75,0.75 0 0 0 0.12696,1.05469 c 1.2106,0.95129 1.44479,2.32407 1.0332,3.51367 -0.41159,1.1896 -1.44521,2.125 -2.98438,2.125 -1.53916,0 -2.57083,-0.9354 -2.98242,-2.125 -0.41159,-1.1896 -0.1774,-2.56238 1.0332,-3.51367 a 0.75,0.75 0 0 0 0.125,-1.05469 0.75,0.75 0 0 0 -0.5,-0.28125 z"
       id="path396" />
  </g>
  <path
     style="color:#000000;fill:#ffffff;stroke-miterlimit:10;-inkscape-stroke:none"
     d="m 233.18359,473.48828 -0.54883,0.58789 -6.16797,6.61524 h 2.44336 v 4.72265 h 8.54688 v -4.72265 h 2.44336 z m 0,2.19922 3.26758,3.50391 h -0.49414 v 4.72265 h -5.54688 v -4.72265 h -0.49414 z m -2.07031,3.81836 v 3.93945 h 4.14258 v -0.75 -3.18945 z m 1.5,1.5 h 1.14258 v 0.93945 h -1.14258 z"
     id="path400" />
</svg>
