<?xml version="1.0" encoding="UTF-8" standalone="no"?>
<svg
   viewBox="0 0 391.00076 173.23252"
   version="1.1"
   id="svg221"
   sodipodi:docname="amigacd32_controller.svg"
   width="391.00073"
   height="173.23251"
   inkscape:version="1.1.2 (0a00cf5339, 2022-02-04)"
   xmlns:inkscape="http://www.inkscape.org/namespaces/inkscape"
   xmlns:sodipodi="http://sodipodi.sourceforge.net/DTD/sodipodi-0.dtd"
   xmlns="http://www.w3.org/2000/svg"
   xmlns:svg="http://www.w3.org/2000/svg">
  <defs
     id="defs225" />
  <sodipodi:namedview
     id="namedview223"
     pagecolor="#ffffff"
     bordercolor="#666666"
     borderopacity="1.0"
     inkscape:pageshadow="2"
     inkscape:pageopacity="0.0"
     inkscape:pagecheckerboard="true"
     showgrid="false"
     fit-margin-top="0"
     fit-margin-left="0"
     fit-margin-right="0"
     fit-margin-bottom="0"
     inkscape:zoom="2.1186387"
     inkscape:cx="195.1725"
     inkscape:cy="86.376219"
     inkscape:window-width="2560"
     inkscape:window-height="1440"
     inkscape:window-x="1920"
     inkscape:window-y="0"
     inkscape:window-maximized="1"
     inkscape:current-layer="svg221" />
  <linearGradient
     id="a"
     gradientUnits="userSpaceOnUse"
     x1="-103.2"
     y1="191.201"
     x2="272.81201"
     y2="191.201"
     gradientTransform="rotate(90,84.806,193.992)">
    <stop
       offset="0"
       stop-color="#545454"
       id="stop4" />
    <stop
       offset="1"
       stop-color="#3b3b3b"
       id="stop6" />
  </linearGradient>
  <linearGradient
     id="b"
     gradientUnits="userSpaceOnUse"
     x1="220.71899"
     y1="175.07899"
     x2="211.724"
     y2="151.093"
     gradientTransform="rotate(90,84.806,193.992)">
    <stop
       offset="0"
       stop-color="#383838"
       id="stop21" />
    <stop
       offset="1"
       stop-color="#242424"
       id="stop23" />
  </linearGradient>
  <linearGradient
     id="c"
     gradientUnits="userSpaceOnUse"
     x1="227.092"
     y1="206.174"
     x2="222.295"
     y2="186.386"
     gradientTransform="rotate(90,84.806,193.992)">
    <stop
       offset="0"
       stop-color="#383838"
       id="stop36" />
    <stop
       offset="1"
       stop-color="#242424"
       id="stop38" />
  </linearGradient>
  <path
     style="color:#000000;fill:#ffffff;-inkscape-stroke:none"
     d="M 7.0811371e-4,118.72274 C 0.02450811,122.46771 0.79939811,130.71612 6.6257081,136.7911 c 2.976039,3.10374 6.4443979,6.83687 10.5468779,9.11914 h 0.002 c 0.63371,0.35231 1.5336,0.68901 3.03711,1.23438 1.5035,0.54537 3.49646,1.22535 5.86328,1.98437 4.73364,1.51805 10.96054,3.34833 17.70117,5.01954 7.97222,1.97693 25.72017,5.8558 49.37891,9.6914 29.391584,4.76421 67.466804,9.39258 102.345654,9.39258 34.87884,0 72.95505,-4.62837 102.3457,-9.39258 23.65881,-3.83461 41.4068,-7.7145 49.37891,-9.6914 6.74056,-1.67169 12.96756,-3.50358 17.70117,-5.02149 2.3668,-0.75895 4.35783,-1.43909 5.86133,-1.98437 1.5035,-0.54529 2.40524,-0.88006 3.03906,-1.23243 4.10248,-2.28227 7.57279,-6.0154 10.54883,-9.11914 7.76749,-8.09905 6.55664,-20.06445 6.55664,-20.06445 l -0.002,-0.0137 -0.002,-0.0137 c 0,0 -1.50254,-13.52897 -4.80469,-34.84375 -3.34995,-21.62336 -15.67578,-53.19727 -15.67578,-53.19727 l 0.0566,0.17383 c 0,0 -1.89396,-7.48959 -8.51367,-13.79492 h -0.002 v -0.002 c -2.30264,-2.19226 -9.12234,-8.58984 -17.375,-8.58984 h -28.93164 -35.83008 c -6.76317,0 -10.34403,6.89616 -11.34375,8.62695 -1.31619,2.27876 -3.17977,6.85427 -2.43164,11.54688 0.63865,4.00441 2.23676,8.06703 3.79883,11.58203 1.56207,3.515 3.11287,6.5619 3.60547,8.04687 1.35069,4.07267 3.43591,11.565 4.33398,14.83399 l 0.002,0.002 c 0.009,0.033 0.0201,0.0158 -0.0137,0.0215 h -0.002 c -8.00838,1.3682 -44.32876,7.18554 -82.30078,7.18554 -37.97202,0 -74.2924,-5.81734 -82.30078,-7.18554 h -0.002 c -0.0337,-0.006 -0.0228,0.0115 -0.0137,-0.0215 v -0.002 c 0.89683,-3.26809 2.98604,-10.76077 4.33594,-14.83399 0.49201,-1.48449 2.04133,-4.53189 3.60351,-8.04687 1.56219,-3.51498 3.16018,-7.57755 3.79883,-11.58203 0.74809,-4.69237 -1.11383,-9.26726 -2.43164,-11.54688 C 121.49074,13.3411 117.91122,6.4453 111.14887,6.4453 H 75.319066 46.385476 c -8.25164,0 -15.07157,6.39776 -17.375,8.5918 -6.61971,6.30533 -8.51563,13.79492 -8.51563,13.79492 l 0.0566,-0.17383 c 0,0 -12.3258179,31.57195 -15.6757779,53.19532 -3.30214,21.31481 -4.80467999,34.84378 -4.80467999,34.84378 l -0.002,0.0156 -0.002,0.0137 c 0,0 -0.0743,0.74777 -0.0663999963,1.9961 z M 3.0202481,118.79894 c -0.0207,-1.12167 0.0352,-1.79882 0.0352,-1.79882 0.005,-0.042 1.49646,-13.45955 4.78516,-34.6875 C 11.086636,61.36003 23.348416,29.74621 23.348416,29.74621 l 0.0332,-0.0859 0.0215,-0.0898 c 0,0 1.7035,-6.67268 7.67578,-12.36133 2.20256,-2.09795 8.67629,-7.76367 15.30664,-7.76367 h 28.93359 35.830084 c 4.62963,0 7.66006,5.25012 8.74414,7.12695 1.01418,1.75439 2.63231,6.0246 2.0664,9.57422 -0.56434,3.53852 -2.05686,7.41742 -3.57617,10.83594 -1.51931,3.41852 -3.03995,6.29581 -3.71094,8.32031 -1.4041,4.23677 -3.47969,11.70047 -4.38086,14.98438 l 0.002,-0.002 c -0.47004,1.69926 0.66418,3.48204 2.40234,3.77735 8.10171,1.38412 44.52844,7.22851 82.80469,7.22851 38.2779,0 74.70704,-5.84472 82.80664,-7.22851 1.7371,-0.29627 2.87025,-2.0787 2.40039,-3.77735 l 0.002,0.002 c -0.90192,-3.28301 -2.97555,-10.74705 -4.38086,-14.98438 -0.6714,-2.02402 -2.19371,-4.90182 -3.71289,-8.32031 -1.51918,-3.41849 -3.01182,-7.29736 -3.57617,-10.83594 -0.56587,-3.54938 1.0526,-7.81897 2.06641,-9.57422 1.08428,-1.87719 4.11527,-7.12695 8.74609,-7.12695 h 35.83006 28.93164 c 6.63132,0 13.10329,5.66594 15.30664,7.76367 5.97228,5.68865 7.67578,12.36133 7.67578,12.36133 l 0.0234,0.0898 0.0332,0.0859 c 0,0 12.25982,31.61577 15.50586,52.56836 3.28904,21.23013 4.7808,34.64827 4.78516,34.6875 0,0 0.88212,10.81396 -5.73438,17.71289 -2.98996,3.11826 -6.34233,6.62654 -9.83984,8.57227 -0.0857,0.0476 -1.14727,0.507 -2.60352,1.03515 -1.45625,0.52815 -3.42112,1.19992 -5.75781,1.94922 -4.67338,1.49859 -10.84344,3.31449 -17.50586,4.9668 -7.85188,1.94709 -25.55957,5.81924 -49.13672,9.64062 -29.28933,4.74778 -67.25219,9.35352 -101.86527,9.35352 -34.61309,0 -72.57493,-4.60573 -101.865234,-9.35352 -23.57722,-3.82238 -41.28496,-7.69356 -49.13672,-9.64062 -6.66236,-1.6518 -12.83446,-3.46809 -17.50781,-4.9668 -2.33668,-0.74935 -4.29962,-1.41904 -5.75586,-1.94726 -1.45625,-0.52823 -2.51773,-0.98942 -2.60352,-1.03711 -3.49751,-1.94573 -6.84988,-5.45401 -9.8398379,-8.57227 -4.96318,-5.17501 -5.70927,-12.55099 -5.77148,-15.91601 z"
     id="path2" />
  <path
     style="color:#000000;fill:#ffffff;-inkscape-stroke:none"
     d="m 5.9948181,119.3184 c 0,7.1737 3.949799,12.82267 10.5156189,14.91016 23.95381,7.6131 58.50147,13.56045 68.55079,15.21093 0.97508,0.16035 1.9743,0.3233 2.99023,0.48829 h 0.002 l 4.29102,0.68554 h 0.002 c 23.426623,3.70116 59.636123,8.62891 103.154293,8.62891 43.51817,0 79.72851,-4.92675 103.16015,-8.62891 h 0.002 l 4.29101,-0.6875 c 1.0111,-0.16401 2.01013,-0.32596 2.98438,-0.48633 10.05037,-1.65049 44.59795,-7.59782 68.55078,-15.21093 6.5681,-2.08643 10.51562,-7.73661 10.51562,-14.91016 5.1e-4,-15.77285 -4.62031,-37.82099 -9.88672,-57.04688 -2.6332,-9.61294 -5.42937,-18.5069 -7.9082,-25.52343 -2.47883,-7.01654 -4.53886,-12.03746 -6.08789,-14.4043 -5.90556,-9.02274 -17.59884,-11.49984 -18.26953,-11.64453 h -0.002 l -0.34375,-0.0742 -24.64649,-1.39649 -30.20312,-0.19921 -0.16992,-0.002 -0.17188,0.0137 c -0.49603,0.0335 -7.94742,0.49898 -11.92773,6.52735 -3.06039,4.63654 -2.81176,9.46469 -2.06836,11.93359 l 0.004,0.0195 0.0645,0.19141 0.008,0.0234 c -0.0538,-0.14758 0.88836,2.46566 2.21094,6.18945 1.32258,3.72378 3.09345,8.74691 4.91015,13.99023 1.34554,3.88449 2.36736,7.81456 3.36328,11.65625 h 0.002 c 0.34181,1.31741 0.68071,2.57115 1.02148,3.83203 -6.18141,1.3537 -22.55059,3.50215 -44.63672,5.22657 -21.73845,1.69679 -43.08518,2.43723 -44.76562,2.49414 -1.68119,-0.0569 -23.02623,-0.79735 -44.76367,-2.49414 -22.08613,-1.72442 -38.45531,-3.87287 -44.63672,-5.22657 0.34123,-1.2625 0.68131,-2.51663 1.02343,-3.83593 0.996,-3.84099 2.01686,-7.772 3.36133,-11.6543 2.33783,-6.74115 4.7132,-13.46856 7.125,-20.18359 l 0.006,-0.0195 0.0625,-0.18946 0.006,-0.0176 c 0.74179,-2.46766 0.99212,-7.29886 -2.06836,-11.93554 C 111.6371,9.53943 104.18221,9.07447 103.68695,9.041 h -0.008 l -0.16211,-0.0117 -30.224603,0.19335 -24.44336,1.38282 -0.35352,0.0195 -0.34375,0.0742 h -0.002 c -0.67119,0.14478 -12.36447,2.62188 -18.27002,11.64462 -1.54912,2.36668 -3.6071,7.38788 -6.08594,14.4043 -2.47885,7.01641 -5.2769,15.90854 -7.91016,25.52148 -5.26652,19.22589 -9.8886689,41.27552 -9.8886689,57.04883 z m 2.999999,0 c 0,-15.18066 4.5517899,-37.16528 9.7812499,-56.25586 2.61473,-9.54529 5.39593,-18.38032 7.8457,-25.31445 2.44978,-6.93414 4.66969,-12.08441 5.76758,-13.76172 5.01326,-7.65946 16.09699,-10.29127 16.39453,-10.35547 h 0.002 l 0.11328,-0.0234 0.11719,-0.008 24.36914,-1.37696 30.033213,-0.19335 0.0527,0.004 h 0.004 c 0.11195,0.008 6.61135,0.60609 9.63672,5.18945 2.46552,3.73532 2.15743,7.89169 1.69921,9.41602 l -0.0254,0.0781 -0.0137,0.0371 c -2.41092,6.71303 -4.78398,13.43866 -7.12109,20.17774 h -0.002 c -1.39553,4.02969 -2.43369,8.04376 -3.42969,11.88476 -0.48695,1.8778 -0.95324,3.67492 -1.43946,5.40039 l -0.41992,1.49024 1.50196,0.37305 c 6.02484,1.49536 23.40668,3.72697 46.64062,5.54101 21.85928,1.7063 43.30965,2.44855 44.94727,2.50391 l 0.0508,0.002 0.0508,-0.002 c 1.63634,-0.0554 23.08894,-0.79761 44.94922,-2.50391 23.23394,-1.81404 40.61578,-4.04565 46.64062,-5.54101 l 1.50196,-0.37305 -0.41993,-1.49024 c -0.48601,-1.72278 -0.95238,-3.5192 -1.43945,-5.39648 -0.99608,-3.8423 -2.03518,-7.85521 -3.43164,-11.88672 -1.82029,-5.25366 -3.5955,-10.28276 -4.91992,-14.01172 -1.31487,-3.70207 -2.10472,-5.8976 -2.20313,-6.16797 l -0.006,-0.0176 c -4.1e-4,-0.001 -0.009,-0.0263 -0.01,-0.0273 l -0.0234,-0.0723 c -0.45842,-1.52404 -0.76382,-5.6815 1.70117,-9.41602 3.02678,-4.58256 9.52306,-5.17993 9.63477,-5.1875 h 0.004 l 0.0527,-0.004 h 0.0508 l 30.13086,0.19726 24.33789,1.37891 0.11523,0.0254 c 0.29754,0.0642 11.38127,2.69601 16.39454,10.35547 1.09797,1.67765 3.31781,6.82745 5.76757,13.76172 2.44976,6.93426 5.23104,15.77111 7.84571,25.3164 5.22933,19.09058 9.77978,41.07379 9.77929,56.25391 0,6.13644 -2.95394,10.31321 -8.42382,12.05078 -23.58713,7.49688 -58.1333,13.46787 -68.12891,15.10938 -0.96851,0.15942 -1.96504,0.32256 -2.97461,0.48632 h -0.004 l -4.28125,0.68555 h -0.002 c -23.36636,3.69181 -59.39875,8.5918 -102.68945,8.5918 -43.2907,0 -79.32223,-4.90099 -102.683603,-8.5918 h -0.002 l -4.2832,-0.68555 h -0.004 c -1.01473,-0.16479 -2.01079,-0.32687 -2.98047,-0.48632 -9.99466,-1.64151 -44.54076,-7.61249 -68.12891,-15.10938 -5.46816,-1.7385 -8.4238199,-5.91449 -8.4238199,-12.05078 z"
     id="path9" />
  <path
     style="color:#000000;fill:#ffffff;-inkscape-stroke:none"
     d="m 11.049507,120.46098 c 0,1.68843 0.22704,4.0891 1.400391,6.4414 1.17336,2.3523 3.36788,4.61525 6.935549,5.7793 20.18691,6.58817 49.38787,12.30949 67.3789,15.34375 0.96122,0.1622 1.94641,0.32687 2.94532,0.49219 h 0.002 l 4.23633,0.69726 h 0.002 c 24.737483,4.01308 59.731153,8.72461 101.550783,8.72461 41.81961,0 76.81622,-4.71152 101.55272,-8.72461 l 4.24024,-0.69726 2.94336,-0.49219 h 0.002 c 17.99007,-3.03427 47.19013,-8.75662 67.37695,-15.34375 3.56719,-1.16407 5.76404,-3.42706 6.9375,-5.7793 1.17347,-2.35224 1.40039,-4.75281 1.40039,-6.4414 -5.1e-4,-16.03229 -4.55775,-38.17837 -9.69922,-57.36133 -2.57073,-9.59148 -5.29118,-18.42973 -7.67578,-25.35938 -2.38459,-6.92965 -4.32356,-11.81619 -5.7539,-14.06054 -5.25426,-8.24339 -16.23047,-10.52149 -16.23047,-10.52149 l -0.11719,-0.0273 -24.14648,-1.4043 -29.77735,-0.19726 -0.0566,0.004 c 0,0 -6.36034,0.30628 -9.55469,5.27539 -3.04729,4.74037 -1.67578,9.52344 -1.67578,9.52344 l 0.01,0.0391 0.0137,0.0371 c 0,0 3.4171,9.74252 7.05664,20.53125 2.21046,6.55402 3.55483,13.14039 5.25,18.98828 -0.56438,0.21056 -1.44293,0.47095 -2.66211,0.74219 -2.61518,0.58183 -6.49179,1.21764 -11.14258,1.85352 -9.30156,1.27174 -21.72694,2.54992 -33.79687,3.51757 -22.57802,1.81019 -44.41671,2.54039 -44.49413,2.54297 -0.0805,-0.003 -21.91577,-0.73291 -44.49219,-2.54297 -12.06993,-0.96765 -24.49531,-2.24583 -33.79687,-3.51757 -4.65079,-0.63588 -8.5274,-1.27169 -11.14258,-1.85352 -1.21918,-0.27124 -2.09773,-0.53163 -2.66211,-0.74219 1.69512,-5.84801 3.03868,-12.43447 5.25,-18.98828 3.63953,-10.78873 7.05664,-20.53125 7.05664,-20.53125 l 0.0117,-0.0371 0.0117,-0.0391 c 0,0 1.37151,-4.78307 -1.67579,-9.52344 -3.19427,-4.97019 -9.55468,-5.27539 -9.55468,-5.27539 l -0.0566,-0.004 -29.777354,0.19726 -24.14648,1.4043 -0.11719,0.0273 c 0,0 -10.97624,2.27704 -16.23047,10.52149 -1.43033,2.24433 -3.36923,7.13089 -5.7539,14.06054 -2.385119,6.92965 -5.105439,15.76789 -7.676229,25.35938 -5.14159,19.18297 -9.69922,41.329 -9.69922,57.36133 z m 3,0 c 0,-15.45764 4.49151,-37.5352 9.597661,-56.58594 2.553069,-9.52537 5.255609,-18.30703 7.61328,-25.1582 2.35767,-6.85118 4.479099,-11.90663 5.44726,-13.42579 4.31528,-6.77112 14.17917,-9.15468 14.29102,-9.18164 l 23.76953,-1.38476 29.552732,-0.19531 c 0.0347,0.003 5.02076,0.48646 7.21484,3.90039 2.34229,3.64365 1.32978,7.0303 1.32422,7.04882 -0.0213,0.0607 -3.40985,9.72648 -7.04492,20.50196 -2.41446,7.15588 -3.7819,14.23085 -5.54687,20.07812 -0.13201,0.43754 -0.0481,0.96654 0.12305,1.30078 0.17111,0.33424 0.37744,0.52539 0.56445,0.67578 0.37403,0.30079 0.7294,0.46003 1.14843,0.62696 0.83808,0.33386 1.92591,0.62705 3.3125,0.93554 2.77319,0.61699 6.69397,1.25656 11.38868,1.89844 9.38941,1.28376 21.84684,2.56381 33.96289,3.53516 22.70789,1.8206 44.68359,2.55273 44.68359,2.55273 l 0.0488,0.002 0.0508,-0.002 c 0,0 21.9757,-0.73213 44.68359,-2.55273 12.11605,-0.97135 24.57348,-2.2514 33.96289,-3.53516 4.66977,-0.63847 8.55756,-1.27472 11.32813,-1.88867 l 0.15625,0.4707 3.98047,-1.32617 -0.14258,-0.42969 c 0.17174,-0.0926 0.3557,-0.14908 0.52734,-0.28711 0.18701,-0.15039 0.39335,-0.34154 0.56446,-0.67578 0.17111,-0.33424 0.25505,-0.86324 0.12304,-1.30078 -1.76502,-5.84742 -3.1335,-12.92246 -5.54687,-20.07812 -3.63507,-10.77548 -7.02365,-20.44128 -7.04492,-20.50196 -0.006,-0.0185 -1.02002,-3.40517 1.32226,-7.04882 2.19402,-3.41301 7.18209,-3.89705 7.2168,-3.90039 l 29.55078,0.19531 23.77148,1.38476 c 0.11186,0.027 9.97382,2.41146 14.28907,9.18164 0.96815,1.51914 3.09162,6.5746 5.44921,13.42579 2.3576,6.85118 5.06027,15.63282 7.61329,25.1582 5.10602,19.05075 9.59716,41.12825 9.59765,56.58594 0,1.4044 -0.2122,3.35405 -1.08398,5.10156 -0.87178,1.7475 -2.32779,3.33565 -5.1836,4.26758 -19.86055,6.48066 -49.03932,12.21652 -66.94335,15.23632 h -0.002 l -2.93945,0.49219 -4.22852,0.69531 h -0.004 c -24.66125,4.00079 -59.47602,8.68555 -101.06836,8.68555 -41.59234,0 -76.40415,-4.68476 -101.066403,-8.68555 h -0.004 l -4.23047,-0.69531 h -0.002 c -0.99443,-0.16458 -1.97739,-0.3305 -2.93555,-0.49219 -17.90493,-3.01973 -47.08426,-8.7545 -66.94531,-15.23632 -2.85632,-0.93195 -4.31195,-2.52014 -5.1836,-4.26758 -0.87164,-1.74745 -1.08398,-3.697 -1.08398,-5.10156 z m 79.28125,2.04687 2.99219,0.2207 c 0.25237,-3.42979 0.57771,-6.85345 0.97461,-10.26953 l -2.98047,-0.3457 c -0.40177,3.45802 -0.73086,6.92264 -0.98633,10.39453 z M 293.7038,112.45902 c 0.41223,3.52827 0.731,6.98228 0.97461,10.26953 l 2.99219,-0.2207 c -0.24639,-3.32474 -0.56856,-6.82076 -0.98633,-10.39648 z"
     id="path11" />
  <path
     style="color:#000000;fill:#ffffff;-inkscape-stroke:none"
     d="m 27.945992,69.99027 c 0,16.70761 13.57559,30.28516 30.2832,30.28516 16.707607,0 30.285157,-13.57755 30.285157,-30.28516 0,-16.70761 -13.57755,-30.2832 -30.285157,-30.2832 -16.70761,0 -30.2832,13.57559 -30.2832,30.2832 z m 3,0 c 0,-15.08629 12.19691,-27.2832 27.2832,-27.2832 15.086287,0 27.285157,12.19691 27.285157,27.2832 0,15.08629 -12.19887,27.28516 -27.285157,27.28516 -15.08629,0 -27.2832,-12.19887 -27.2832,-27.28516 z"
     id="circle13" />
  <path
     style="color:#000000;fill:#ffffff;-inkscape-stroke:none"
     d="m 29.822944,69.1973 c 0,15.34181 12.47069,27.81055 27.8125,27.81055 15.341807,0 27.810548,-12.46874 27.810548,-27.81055 0,-15.34181 -12.46874,-27.8125 -27.810548,-27.8125 -15.34181,0 -27.8125,12.47069 -27.8125,27.8125 z m 3,0 c 0,-13.72049 11.09201,-24.8125 24.8125,-24.8125 13.720487,0 24.810548,11.09201 24.810548,24.8125 0,13.72049 -11.09006,24.81055 -24.810548,24.81055 -13.72049,0 -24.8125,-11.09006 -24.8125,-24.81055 z"
     id="circle15" />
  <path
     style="color:#000000;fill:#ffffff;-inkscape-stroke:none"
     d="m 30.422552,70.39457 c 0,15.34181 12.47069,27.8125 27.8125,27.8125 15.341807,0 27.810547,-12.4707 27.810547,-27.8125 0,-15.34181 -12.46874,-27.81055 -27.810547,-27.81055 -15.34181,0 -27.8125,12.46874 -27.8125,27.81055 z m 3,0 c 0,-13.72049 11.09201,-24.81055 24.8125,-24.81055 13.720487,0 24.810547,11.09006 24.810547,24.81055 0,13.72049 -11.09006,24.8125 -24.810547,24.8125 -13.72049,0 -24.8125,-11.09201 -24.8125,-24.8125 z"
     id="circle17" />
  <path
     style="color:#000000;fill:#ffffff;-inkscape-stroke:none"
     d="M 44.885438,9.44536 H 109.50068 V 4.30278 l -0.0137,-0.0996 c -0.0966,-0.72023 -0.4561,-1.4667 -1.04493,-1.94726 -0.58883,-0.48057 -1.29664,-0.67086 -1.98242,-0.72071 l -0.0625,-0.006 -58.689453,0.64843 -0.0117,0.002 c -0.71687,0.0181 -1.50416,0.2592 -2.05078,0.83007 -0.54662,0.57088 -0.73721,1.31401 -0.75977,1.9668 v 0.0254 2.94141 z m 3,-3 V 5.17583 L 106.27216,4.53325 c 0.17807,0.0204 0.23125,0.0421 0.22852,0.0391 V 6.4454 Z M 106.5124,4.57427 c -0.001,-0.001 0.0369,0.009 0.0332,0.006 -0.0341,-0.0278 -0.0507,-0.12134 -0.0312,0.0234 z M 281.50067,9.44536 H 346.1159 V 7.94341 5.002 l -0.002,-0.0254 c -0.0226,-0.65279 -0.21315,-1.39592 -0.75977,-1.9668 -0.54662,-0.57087 -1.33391,-0.81198 -2.05078,-0.83007 l -0.01,-0.002 -58.68946,-0.64843 -0.0625,0.006 c -0.68578,0.0498 -1.39359,0.24014 -1.98242,0.72071 -0.58883,0.48056 -0.94833,1.22703 -1.04492,1.94726 l -0.0137,0.0996 z m 2.95703,-4.86523 c -0.004,0.003 0.0345,-0.007 0.0332,-0.006 l -0.002,0.0293 c 0.0194,-0.14477 0.003,-0.0513 -0.0312,-0.0234 z m 0.043,1.86523 V 4.57231 c -0.004,0.004 0.0495,-0.0185 0.22851,-0.0391 l 58.38672,0.64258 v 1.26953 z"
     id="path19" />
  <path
     style="color:#000000;fill:#ffffff;-inkscape-stroke:none"
     d="m 294.91669,60.39066 c 0,7.56477 6.16677,13.73048 13.73242,13.73048 1.87867,0 3.64443,-0.43095 5.26954,-1.1133 l 34.24609,-9.7246 -0.0254,-0.0996 c 5.83046,-1.58553 10.20703,-6.73174 10.20703,-13.05078 0,-7.56499 -6.16377,-13.72939 -13.72852,-13.73047 h -0.002 c -1.8311,-0.002 -3.64467,0.36302 -5.33203,1.07422 l 0.1543,-0.0566 -31.1211,9.27539 c -7.40956,0.18132 -13.40039,6.24414 -13.40039,13.69531 z m 3,0 c 0,-5.94321 4.78809,-10.72851 10.73242,-10.72851 h 0.21875 l 31.50586,-9.38867 0.0762,-0.0332 c 1.31809,-0.55556 2.73366,-0.83958 4.16406,-0.83789 h 0.002 c 5.94434,0 10.73047,4.78614 10.73047,10.73047 0,5.42245 -4.0013,9.8649 -9.20508,10.60742 l -1.64648,0.23438 0.0547,0.21679 -30.30469,8.60547 -0.12696,-0.12695 -0.95117,0.44336 c -1.38064,0.64319 -2.90192,1.00781 -4.51758,1.00781 -5.94433,0 -10.73242,-4.78725 -10.73242,-10.73047 z"
     id="path26" />
  <path
     style="color:#000000;fill:#ffffff;-inkscape-stroke:none"
     d="m 295.84443,60.39066 c 0,7.05368 5.75101,12.80469 12.80468,12.80469 7.05368,0 12.80274,-5.75101 12.80274,-12.80469 0,-7.05368 -5.74906,-12.80273 -12.80274,-12.80273 -7.05367,0 -12.80468,5.74905 -12.80468,12.80273 z m 3,0 c 0,-5.43236 4.37232,-9.80273 9.80468,-9.80273 5.43237,0 9.80274,4.37037 9.80274,9.80273 0,5.43236 -4.37037,9.80469 -9.80274,9.80469 -5.43236,0 -9.80468,-4.37233 -9.80468,-9.80469 z"
     id="circle28" />
  <path
     style="color:#000000;fill:#ffffff;-inkscape-stroke:none"
     d="m 296.97528,60.39066 c 0,6.4296 5.24423,11.67383 11.67383,11.67383 6.42959,0 11.67382,-5.24423 11.67382,-11.67383 0,-6.4296 -5.24423,-11.67381 -11.67382,-11.67383 -6.4296,0 -11.67383,5.24423 -11.67383,11.67383 z m 3,0 c 0,-4.80828 3.86555,-8.67383 8.67383,-8.67383 4.80827,0 8.67382,3.86555 8.67382,8.67383 0,4.80827 -3.86555,8.67383 -8.67382,8.67383 -4.80827,0 -8.67383,-3.86556 -8.67383,-8.67383 z"
     id="circle30" />
  <path
     style="color:#000000;fill:#ffffff;-inkscape-stroke:none"
     d="m 332.1081,50.13285 c 0,6.88965 5.61816,12.50586 12.50781,12.50586 6.88965,0 12.50586,-5.61621 12.50586,-12.50586 0,-6.88965 -5.61621,-12.50781 -12.50586,-12.50781 -6.88965,0 -12.50781,5.61816 -12.50781,12.50781 z m 3,0 c 0,-5.26833 4.23948,-9.50781 9.50781,-9.50781 5.26833,0 9.50586,4.23948 9.50586,9.50781 0,5.26833 -4.23753,9.50586 -9.50586,9.50586 -5.26833,0 -9.50781,-4.23753 -9.50781,-9.50586 z"
     id="circle32" />
  <path
     style="color:#000000;fill:#ffffff;-inkscape-stroke:none"
     d="m 333.20771,50.13285 c 0,6.28214 5.12606,11.40625 11.4082,11.40625 6.28214,0 11.40625,-5.12411 11.40625,-11.40625 0,-6.28214 -5.12411,-11.4082 -11.40625,-11.4082 -6.28214,0 -11.4082,5.12606 -11.4082,11.4082 z m 3,0 c 0,-4.66082 3.74738,-8.4082 8.4082,-8.4082 4.66082,0 8.40625,3.74738 8.40625,8.4082 0,4.66082 -3.74543,8.40625 -8.40625,8.40625 -4.66082,0 -8.4082,-3.74543 -8.4082,-8.40625 z"
     id="circle34" />
  <path
     style="color:#000000;fill:#ffffff;-inkscape-stroke:none"
     d="m 302.49286,95.97854 c 0,9.21377 7.50108,16.7168 16.71485,16.7168 5.06944,0 9.58924,-2.3047 12.6543,-5.87695 l 25.79102,-7.67383 -0.20703,0.0469 c 1.29946,-0.1938 2.54264,-0.56677 3.70117,-1.10157 l -0.19922,0.0742 1.77735,-0.52929 -0.21094,-0.42383 c 3.92858,-2.41663 6.625,-6.64774 6.625,-11.58594 0,-7.56565 -6.16497,-13.73047 -13.73048,-13.73047 -2.14902,0 -4.1672,0.53917 -5.97656,1.41992 l -25.29883,6.78907 c -1.56687,-0.4869 -3.20092,-0.8418 -4.92578,-0.8418 -9.21468,0 -16.71485,7.50315 -16.71485,16.7168 z m 3,0 c 0,-7.59233 6.12154,-13.7168 13.71485,-13.7168 1.59768,0 3.12618,0.27603 4.55078,0.77735 l 0.4375,0.1543 24.76953,-6.64844 0.13672,0.27539 1.35352,-0.70703 c 1.48592,-0.7755 3.16228,-1.21875 4.95312,-1.21875 5.94449,0 10.73048,4.78613 10.73048,10.73047 0,4.31315 -2.53885,8.00287 -6.19531,9.71484 l -0.0547,0.0254 c -0.89947,0.41521 -1.86618,0.70717 -2.88672,0.85937 l -0.10352,0.0156 -26.68946,7.93946 -0.29297,0.36523 c -2.51598,3.13935 -6.3661,5.15039 -10.70898,5.15039 -7.59221,0 -13.71485,-6.12458 -13.71485,-13.71679 z"
     id="path41" />
  <path
     style="color:#000000;fill:#ffffff;-inkscape-stroke:none"
     d="m 342.90302,85.62504 c 0,6.88965 5.61621,12.50781 12.50586,12.50781 6.88965,0 12.50781,-5.61816 12.50781,-12.50781 0,-6.88965 -5.61816,-12.50586 -12.50781,-12.50586 -6.88965,0 -12.50586,5.61621 -12.50586,12.50586 z m 3,0 c 0,-5.26834 4.23753,-9.50586 9.50586,-9.50586 5.26833,0 9.50781,4.23752 9.50781,9.50586 0,5.26833 -4.23948,9.50781 -9.50781,9.50781 -5.26833,0 -9.50586,-4.23948 -9.50586,-9.50781 z"
     id="circle43" />
  <path
     style="color:#000000;fill:#ffffff;-inkscape-stroke:none"
     d="m 344.00263,85.62504 c 0,6.28214 5.12411,11.4082 11.40625,11.4082 6.28214,0 11.4082,-5.12606 11.4082,-11.4082 0,-6.28214 -5.12606,-11.40625 -11.4082,-11.40625 -6.28214,0 -11.40625,5.12411 -11.40625,11.40625 z m 3,0 c 0,-4.66082 3.74543,-8.40625 8.40625,-8.40625 4.66082,0 8.4082,3.74543 8.4082,8.40625 0,4.66082 -3.74738,8.4082 -8.4082,8.4082 -4.66082,0 -8.40625,-3.74738 -8.40625,-8.4082 z"
     id="circle45" />
  <path
     style="color:#000000;fill:#ffffff;-inkscape-stroke:none"
     d="m 303.60029,95.9766 c 0,8.60284 7.00653,15.60937 15.60937,15.60937 8.60284,0 15.60938,-7.00653 15.60938,-15.60937 0,-8.60284 -7.00654,-15.60742 -15.60938,-15.60742 -8.60284,0 -15.60937,7.00458 -15.60937,15.60742 z m 3,0 c 0,-6.98152 5.62785,-12.60742 12.60937,-12.60742 6.98152,0 12.60938,5.6259 12.60938,12.60742 0,6.98152 -5.62786,12.60937 -12.60938,12.60937 -6.98152,0 -12.60937,-5.62785 -12.60937,-12.60937 z"
     id="circle47" />
  <path
     style="color:#000000;fill:#ffffff;-inkscape-stroke:none"
     d="m 305.0124,95.9766 c 0,7.82356 6.3737,14.19922 14.19726,14.19922 7.82357,0 14.19727,-6.37566 14.19727,-14.19922 0,-7.82356 -6.3737,-14.19727 -14.19727,-14.19727 -7.82356,0 -14.19726,6.37371 -14.19726,14.19727 z m 3,0 c 0,-6.20225 4.99502,-11.19727 11.19726,-11.19727 6.20225,0 11.19727,4.99502 11.19727,11.19727 0,6.20224 -4.99502,11.19922 -11.19727,11.19922 -6.20224,0 -11.19726,-4.99698 -11.19726,-11.19922 z"
     id="circle49" />
  <path
     style="color:#000000;fill:#ffffff;-inkscape-stroke:none"
     d="m 189.71746,34.10356 c -0.10234,2.39503 0.0217,4.09125 0.0937,4.81446 l -0.008,-0.14844 v 33.88671 l 1.26563,-0.1582 c 0.0828,0.0287 0.18611,0.0863 0.26367,0.10742 0.37228,0.10155 0.74405,0.15342 1.17578,0.19922 0.86346,0.0916 1.93071,0.13281 3.00586,0.13281 1.07515,0 2.1424,-0.0412 3.00586,-0.13281 0.43173,-0.0458 0.80154,-0.0977 1.17383,-0.19922 0.0945,-0.0258 0.21807,-0.0913 0.32226,-0.13086 l 1.1836,0.0742 V 38.49612 l -0.0371,-0.60547 -0.006,-0.043 c -0.044,-0.36678 -1.72416,-15.3088 11.28906,-28.87695 L 213.48272,7.88867 205.25811,0 204.221,1.08203 c -11.85677,12.36194 -14.19687,25.8364 -14.50391,33.02148 z m 2.99414,0.15821 c 0.26735,-6.43301 2.40923,-18.55339 12.71485,-29.94532 l 3.89648,3.73829 C 196.62115,22.18745 198.06939,37.29671 198.1784,38.20513 l -0.008,-0.0859 0.0293,0.4707 v 30.85352 h -0.0449 v 0.38086 c -0.68818,0.0707 -1.6631,0.11328 -2.64062,0.11328 -0.97824,0 -1.95433,-0.0425 -2.64258,-0.11328 v -0.38086 h -0.0684 V 38.6954 l -0.008,-0.0742 c -0.0599,-0.60129 -0.17611,-2.14266 -0.084,-4.35937 z m 7.07227,35.20312 0.01,-0.01 c 0.25025,0.0156 0.40057,0.0837 0.37304,0.0742 -0.0206,-0.007 -0.20749,-0.0422 -0.38281,-0.0644 z"
     id="path51" />
  <path
     style="color:#000000;fill:#ffffff;-inkscape-stroke:none"
     d="m 189.21552,70.67191 c 0,0.54004 0.27903,1.01529 0.53711,1.27734 0.25808,0.26205 0.50363,0.39541 0.73633,0.5039 0.4654,0.217 0.9219,0.32449 1.4375,0.41797 1.03119,0.18698 2.27049,0.26563 3.52148,0.26563 1.251,0 2.48834,-0.0787 3.51954,-0.26563 0.5156,-0.0935 0.97406,-0.20097 1.43946,-0.41797 0.2327,-0.10849 0.47629,-0.24185 0.73437,-0.5039 0.25808,-0.26205 0.53907,-0.7373 0.53906,-1.27734 v -0.83008 c 1e-5,-0.37305 -0.04,-0.8207 -0.36523,-1.3164 -0.32524,-0.49571 -1.06172,-0.88281 -1.66016,-0.88281 h -1.50001 v 0.38281 c -0.68824,0.0708 -1.66433,0.11133 -2.64257,0.11133 -0.97823,0 -1.95238,-0.0405 -2.64063,-0.11133 v -0.38281 h -1.5 c -1.19688,0 -2.15625,1.11373 -2.15625,2.19921 z"
     id="path53" />
  <path
     style="color:#000000;fill:#ffffff;-inkscape-stroke:none"
     d="m 61.293649,38.84965 c -0.19597,1.06394 0.44899,2.25901 1.58984,2.5039 l 3.42774,0.75782 c 1.2797,0.28295 2.55724,-0.73988 2.55859,-2.05078 v -0.006 -0.004 c -0.001,-0.21351 -0.0351,-0.42538 -0.0996,-0.62891 l -1.06055,-3.35547 v -0.002 c -0.22116,-0.69699 -0.8313,-1.26147 -1.55273,-1.41992 -0.71568,-0.15718 -1.50961,0.0932 -2.00586,0.63672 l -2.36914,2.58789 -0.002,0.004 c -0.26262,0.28444 -0.42127,0.62332 -0.48633,0.97656 z m 3.74219,-0.0918 0.28125,-0.30859 0.12695,0.39843 z"
     id="path55" />
  <path
     style="color:#000000;fill:#ffffff;-inkscape-stroke:none"
     d="m 60.985142,39.2931 c -0.003,1.09503 0.77112,2.06279 1.8418,2.29492 h -0.006 l 3.43359,0.75781 c 0.69249,0.15519 1.42087,-0.0154 1.97461,-0.45898 0.75169,-0.60218 1.06122,-1.61695 0.76953,-2.53516 l 0.002,0.002 -1.05859,-3.34765 c -0.24817,-0.80119 -0.91348,-1.41061 -1.73242,-1.58985 -0.81764,-0.18277 -1.67559,0.0897 -2.23828,0.71094 l -2.36914,2.58594 c -0.39638,0.43007 -0.61637,0.99535 -0.61719,1.58008 z"
     id="path57" />
  <path
     style="color:#000000;fill:#ffffff;-inkscape-stroke:none"
     d="m 69.764347,19.36918 c 0,0.8099 0.45699,1.58999 1.14844,1.99219 h 0.002 l 4.71875,2.72656 c 5.6e-4,3.3e-4 10e-4,-3.3e-4 0.002,0 l 0.002,0.002 c 0.71365,0.41453 1.60024,0.41127 2.3125,-0.006 0.69522,-0.40523 1.14453,-1.18385 1.14453,-1.98828 v -5.44336 c 0.006,-0.82483 -0.43948,-1.59337 -1.15429,-2.0039 -0.71313,-0.41324 -1.60146,-0.41426 -2.3125,0.004 l -4.70899,2.72071 c -0.69933,0.40239 -1.1543,1.18619 -1.1543,1.99609 z m 3.69727,0 2.63281,-1.52149 v 3.04102 z"
     id="path59" />
  <path
     style="color:#000000;fill:#ffffff;-inkscape-stroke:none"
     d="m 69.526066,19.37309 c 0.002,0.89267 0.49666,1.75251 1.26954,2.19921 l 4.71484,2.72071 c 0.78808,0.46209 1.77024,0.46143 2.55859,0 0.76995,-0.44862 1.26563,-1.30585 1.26563,-2.19727 v -5.45312 c 0,-0.89143 -0.49568,-1.74865 -1.26563,-2.19727 -0.78835,-0.46144 -1.77051,-0.46209 -2.55859,0 l -4.70703,2.7168 c -0.79196,0.45134 -1.2809,1.2997 -1.27735,2.21094 z m 4.41211,-0.004 1.91602,-1.10547 v 2.21289 z"
     id="path61" />
  <path
     style="color:#000000;fill:#ffffff;-inkscape-stroke:none"
     d="m 248.01435,133.59769 0.38867,5.48828 c 0.0529,0.82279 0.54939,1.55879 1.29102,1.91797 0.73768,0.36075 1.61752,0.29914 2.29687,-0.16211 l 0.004,-0.002 c 0.001,-8.4e-4 0.003,-0.001 0.004,-0.002 l 4.50782,-3.04883 c 0.63181,-0.42612 1.01181,-1.14246 1.01367,-1.9043 0.004,-0.8853 -0.50847,-1.70233 -1.3086,-2.08203 l -4.88671,-2.37695 c -0.71168,-0.3483 -1.55679,-0.30462 -2.22852,0.11523 -0.6624,0.41288 -1.08203,1.24837 -1.08203,2.00391 z m 3.08203,1.05273 2.73242,1.32813 -2.51953,1.70312 z"
     id="path63" />
  <path
     style="color:#000000;fill:#ffffff;-inkscape-stroke:none"
     d="m 247.77216,133.54691 0.006,0.11133 0.38672,5.45508 c 0.0639,0.88993 0.61846,1.71563 1.42578,2.10742 0.80577,0.39138 1.79617,0.31945 2.53711,-0.18164 l 4.51367,-3.05078 c 0.69967,-0.4713 1.1211,-1.26958 1.1211,-2.10938 0,-0.96131 -0.56506,-1.8653 -1.42774,-2.28711 h -0.002 l -4.90039,-2.38476 -0.004,-0.002 c -0.78435,-0.3819 -1.71666,-0.33235 -2.45703,0.1289 -0.74481,0.46243 -1.20055,1.28148 -1.19922,2.15821 z m 3.5918,1.49805 1.98828,0.9668 -1.83203,1.23828 z m 5.91406,0.83203 c 0,-0.002 0.004,-0.003 0.004,-0.006 v 0.0176 c 2e-5,-0.004 -0.004,-0.007 -0.004,-0.0117 z"
     id="path65" />
  <path
     style="color:#000000;fill:#ffffff;-inkscape-stroke:none"
     d="m 47.000678,99.47074 c -0.09034,0.34779 -0.09018,0.72272 0.02734,1.09179 l 1.056641,3.34375 c 0.222722,0.71872 0.820097,1.26483 1.554687,1.42578 0.733537,0.16295 1.503053,-0.0815 2.007813,-0.63867 3.8e-4,-4.2e-4 0.0016,4.2e-4 0.002,0 l 2.371094,-2.58789 c 0.353666,-0.38585 0.550715,-0.89069 0.552734,-1.41406 0.005,-0.98356 -0.694807,-1.8543 -1.65625,-2.0625 L 49.48705,97.86917 c -1.13461,-0.251 -2.215349,0.5582 -2.486372,1.60157 z m 3.353516,1.66406 0.404297,0.0898 -0.279297,0.30469 z"
     id="path67" />
  <path
     style="color:#000000;fill:#ffffff;-inkscape-stroke:none"
     d="m 46.686225,99.92191 c -2.52e-4,0.2437 0.03822,0.48493 0.113282,0.7168 l 1.054687,3.33789 c 0.248168,0.80118 0.913485,1.4106 1.732422,1.58984 0.818185,0.1829 1.677564,-0.0888 2.240234,-0.71094 l 2.363282,-2.58008 c 6.36e-4,-6.8e-4 0.0013,-10e-4 0.002,-0.002 1.185412,-1.27645 0.475953,-3.51824 -1.228516,-3.88086 l -3.421875,-0.75781 h -0.002 c -0.691103,-0.1542 -1.415761,0.017 -1.96875,0.45903 -0.555968,0.44277 -0.884105,1.11535 -0.884766,1.82618 z"
     id="path69" />
  <path
     style="color:#000000;fill:#ffffff;-inkscape-stroke:none"
     d="m 85.502632,79.16214 c 0.0044,1.3774 1.424895,2.41506 2.738281,2 l 3.355469,-1.06054 c 0.86976,-0.27384 1.468897,-1.09439 1.46875,-2.00586 7.72e-4,-0.59087 -0.248044,-1.15748 -0.685547,-1.55469 l -2.583985,-2.36719 -0.0039,-0.002 c -0.552179,-0.51078 -1.341871,-0.68507 -2.058594,-0.45703 -0.696064,0.22089 -1.261672,0.8322 -1.419922,1.55273 l -0.779296,3.51563 -0.03125,0.29687 z m 3.314453,-1.32812 0.08984,-0.40625 0.306641,0.28125 z"
     id="path71" />
  <path
     style="color:#000000;fill:#ffffff;-inkscape-stroke:none"
     d="m 85.262401,79.15824 c 9.2e-4,1.54196 1.583003,2.6969 3.052731,2.23047 l -0.002,0.002 2.925782,-0.92579 c 0.07397,0.0145 0.109604,0.0788 0.1875,0.084 0.507227,0.0336 0.990273,-0.17009 1.291015,-0.40625 0.601484,-0.4723 0.759922,-0.97358 0.869141,-1.46679 0.109219,-0.49322 0.175928,-1.01518 -0.169922,-1.69727 -0.172925,-0.34104 -0.524041,-0.72845 -0.998047,-0.91211 -0.07197,-0.0279 -0.13078,0.0141 -0.203125,-0.004 l -2.259765,-2.06836 c -0.615205,-0.56982 -1.496279,-0.76188 -2.294922,-0.50781 -0.795674,0.25059 -1.402952,0.90968 -1.582032,1.72461 l -0.761718,3.44141 v 0.004 c -0.0352,0.16283 -0.05408,0.32754 -0.05469,0.49414 v 0.004 z"
     id="path73" />
  <path
     style="color:#000000;fill:#ffffff;-inkscape-stroke:none"
     d="m 22.805209,62.46863 c 1.1e-4,0.59078 0.24774,1.15579 0.68554,1.55273 l 2.58594,2.36719 c 0.001,0.001 0.003,9.3e-4 0.004,0.002 l 0.002,0.002 c 0.55142,0.50636 1.33683,0.67824 2.05078,0.45312 0.7182,-0.22489 1.26738,-0.82239 1.42578,-1.55859 l 0.77539,-3.50977 0.01,-0.084 0.0215,-0.21289 v -0.0801 c -0.001,-1.37952 -1.42371,-2.41913 -2.73828,-2.00195 l -3.34766,1.05859 c -0.87459,0.27167 -1.477,1.09648 -1.4746,2.01172 z m 3.85156,0.38281 0.39648,-0.125 -0.0898,0.40625 z"
     id="path75" />
  <path
     style="color:#000000;fill:#ffffff;-inkscape-stroke:none"
     d="m 22.563224,62.46688 c 5.2e-4,0.65984 0.27462,1.28146 0.76172,1.72657 l 2.58789,2.37109 c 0.61521,0.56982 1.49628,0.76189 2.29492,0.50781 0.79933,-0.25139 1.40987,-0.91467 1.58594,-1.73437 l 0.75781,-3.42774 c 0.37557,-1.69078 -1.34289,-3.26335 -2.99414,-2.74218 h -0.004 l -3.35351,1.06054 c -0.9691,0.30675 -1.6367,1.22012 -1.63672,2.23633 z"
     id="path77" />
  <path
     style="color:#000000;fill:#ffffff;-inkscape-stroke:none"
     d="m 76.098334,19.36918 c 0,0.8099 0.45699,1.58999 1.14844,1.99219 h 0.002 l 4.71875,2.72461 c 0.71257,0.41645 1.59978,0.41543 2.3125,0 0.69804,-0.40408 1.15039,-1.18487 1.15039,-1.99024 v -1.5 h -0.002 v -3.94336 c 0.006,-0.82483 -0.43948,-1.59337 -1.1543,-2.0039 -0.71313,-0.41324 -1.60146,-0.41426 -2.3125,0.004 l -4.70898,2.72071 c -0.70082,0.40324 -1.1543,1.18963 -1.1543,1.99609 z m 3.69727,0 2.63281,-1.52149 v 3.04102 z"
     id="path79" />
  <path
     style="color:#000000;fill:#ffffff;-inkscape-stroke:none"
     d="m 75.862007,19.37309 c 0.002,0.89267 0.49666,1.75251 1.26953,2.19921 l 4.71289,2.72071 c 0.78681,0.46135 1.76893,0.46116 2.55664,0.002 0.77135,-0.44823 1.26758,-1.30685 1.26758,-2.19922 v -5.45312 c 0,-0.89237 -0.49623,-1.751 -1.26758,-2.19922 -0.78771,-0.45921 -1.76983,-0.4594 -2.55664,0.002 l -4.70508,2.7168 c -0.79195,0.45134 -1.2809,1.2997 -1.27734,2.21094 z m 4.41015,-0.004 1.91602,-1.10547 v 2.21289 z"
     id="path81" />
  <path
     style="color:#000000;fill:#ffffff;-inkscape-stroke:none"
     d="m 316.7038,21.48832 c -0.004,0.82252 0.4401,1.58937 1.15235,2 0.71221,0.41293 1.59874,0.41459 2.31054,0 l 4.71094,-2.7207 c 8.3e-4,-4.8e-4 10e-4,-0.001 0.002,-0.002 l 0.004,-0.002 c 0.7119,-0.40914 1.15041,-1.17319 1.14844,-1.99414 0.001,-0.82251 -0.43979,-1.58967 -1.1543,-1.99805 l -4.71484,-2.72265 h -0.002 c -0.70263,-0.40625 -1.60633,-0.40266 -2.30273,-0.002 -0.70082,0.40325 -1.1543,1.18963 -1.1543,1.9961 z m 3,-1.19727 v -3.04296 l 2.63477,1.52148 z"
     id="path83" />
  <path
     style="color:#000000;fill:#ffffff;-inkscape-stroke:none"
     d="m 316.46357,21.49613 c 0,0.8933 0.49679,1.75334 1.26953,2.20117 0.78588,0.45814 1.7649,0.45814 2.55078,0 l 4.71875,-2.72461 c 0.77413,-0.44743 1.27148,-1.30888 1.27148,-2.20312 0,-0.89424 -0.49735,-1.75374 -1.27148,-2.20117 l -4.71875,-2.72461 c -0.78348,-0.45674 -1.75832,-0.45591 -2.54297,-0.002 -0.79204,0.45199 -1.28404,1.30057 -1.27734,2.21289 z m 3.48047,-1.62109 V 17.6641 l 1.91406,1.10547 z"
     id="path85" />
  <path
     style="color:#000000;fill:#ffffff;-inkscape-stroke:none"
     d="m 310.36982,21.49613 c 0,0.80724 0.45598,1.59183 1.15039,1.99414 0.7003,0.40573 1.60515,0.40447 2.30469,0.002 l 4.71679,-2.72461 c 0.71554,-0.40826 1.15823,-1.17472 1.15625,-1.99805 10e-4,-0.82108 -0.43805,-1.58719 -1.15039,-1.99609 l -0.004,-0.002 -4.70704,-2.71679 c -0.71286,-0.41924 -1.60234,-0.4184 -2.3164,-0.002 -0.70165,0.40545 -1.15039,1.18842 -1.15039,1.99024 z m 3,-1.20508 v -3.04296 l 2.63281,1.52148 z"
     id="path87" />
  <path
     style="color:#000000;fill:#ffffff;-inkscape-stroke:none"
     d="m 310.12958,21.49613 c 0,0.8933 0.4968,1.75334 1.26953,2.20117 0.78716,0.45888 1.76622,0.45841 2.55274,-0.002 5.6e-4,-3.3e-4 0.001,3.3e-4 0.002,0 l 4.71485,-2.72266 c 0.77413,-0.44743 1.27148,-1.30888 1.27148,-2.20312 0,-0.89424 -0.49735,-1.75374 -1.27148,-2.20117 l -4.71485,-2.72266 h -0.002 c -0.78413,-0.45896 -1.759,-0.45859 -2.54492,-0.004 -0.79204,0.45199 -1.28405,1.30057 -1.27735,2.21289 z m 3.48047,-1.62109 V 17.6641 l 1.91406,1.10547 z"
     id="path89" />
  <path
     style="color:#000000;fill:#ffffff;-inkscape-stroke:none"
     d="m 237.33272,134.13284 0.20898,5.89844 c 0.023,0.65686 0.3084,1.27844 0.78907,1.72656 0.48196,0.45124 1.12524,0.69337 1.78515,0.66797 l 0.75195,-0.0254 c 1.3247,-0.0419 2.40376,-1.16097 2.4004,-2.48633 v -0.0234 -0.0254 l -0.20899,-5.89844 c -0.042,-1.35891 -1.21765,-2.45375 -2.57617,-2.40039 l 0.008,-0.002 -0.76172,0.0273 h -0.002 c -1.31307,0.047 -2.39453,1.21093 -2.39453,2.51367 z"
     id="path91" />
  <path
     style="color:#000000;fill:#ffffff;-inkscape-stroke:none"
     d="m 237.09445,134.10353 0.002,0.0625 0.20703,5.8711 c 0.0241,0.71728 0.34252,1.41288 0.86719,1.90039 0.52335,0.48627 1.23586,0.75258 1.94922,0.72851 l 0.76172,-0.0273 c 1.44452,-0.0502 2.6289,-1.27472 2.6289,-2.7207 v -0.0254 l -0.20898,-5.94141 v -0.002 c -0.0549,-1.48305 -1.33121,-2.67248 -2.81445,-2.62304 h -0.002 l -0.75195,0.0273 c -1.45675,0.0431 -2.6441,1.26919 -2.63867,2.72656 z"
     id="path93" />
  <g
     id="g99"
     style="fill:none;stroke:#ffffff;stroke-width:3"
     transform="rotate(-90,86.620474,85.111981)">
    <path
       style="color:#000000;fill:#ffffff;stroke:none;-inkscape-stroke:none"
       d="m 37.734375,239.7207 -5.900391,0.20703 h -0.002 c -1.349829,0.0513 -2.435439,1.21635 -2.390625,2.56641 v 0.002 l 0.02734,0.75782 c 0.04195,1.32563 1.161996,2.40511 2.488281,2.40039 h 0.02344 0.02344 l 5.90625,-0.20899 h 0.002 c 1.351178,-0.05 2.436849,-1.21704 2.390625,-2.56836 l -0.02734,-0.76172 c -0.04698,-1.31307 -1.210924,-2.39453 -2.513672,-2.39453 z"
       id="path95" />
    <path
       style="color:#000000;fill:#ffffff;stroke:none;-inkscape-stroke:none"
       d="m 37.765625,239.48047 -0.06055,0.002 -5.875,0.20703 c -0.71664,0.0246 -1.411351,0.34297 -1.898437,0.86719 -0.486277,0.52335 -0.752586,1.23586 -0.728516,1.94922 v 0.002 l 0.02734,0.75977 c 0.05019,1.44452 1.274716,2.6289 2.720703,2.6289 h 0.02539 l 5.9375,-0.20898 c 0.717288,-0.0241 1.41289,-0.34252 1.900391,-0.86719 0.486277,-0.52334 0.752586,-1.23391 0.728516,-1.94726 v -0.002 l -0.02734,-0.7539 c -0.0442,-1.45565 -1.268297,-2.64098 -2.724609,-2.63672 z"
       id="path97" />
  </g>
  <g
     id="g105"
     style="fill:none;stroke:#ffffff;stroke-width:3"
     transform="rotate(-90,86.620473,85.111991)">
    <path
       style="color:#000000;fill:#ffffff;stroke:none;-inkscape-stroke:none"
       d="m 53.837891,318.75586 -0.263672,0.0195 -1.146485,0.25 c -1.114751,0.24352 -1.84594,1.38068 -1.605468,2.49609 v 0.002 l 1.099609,5.05273 0.002,0.006 c 0.214541,0.94632 1.070702,1.63422 2.041016,1.64063 h 0.0625 l 0.0625,-0.004 0.207031,-0.0156 1.140625,-0.25 c 1.120477,-0.24081 1.854949,-1.38684 1.607422,-2.50585 l -1.097656,-5.03907 c -0.210058,-0.96276 -1.06364,-1.65234 -2.050782,-1.65234 z"
       id="path101" />
    <path
       style="color:#000000;fill:#ffffff;stroke:none;-inkscape-stroke:none"
       d="m 53.886719,318.51562 c -0.160404,9e-4 -0.319545,0.018 -0.476563,0.0508 l -0.0059,0.002 -1.025391,0.22266 c -1.246125,0.2707 -2.060857,1.53907 -1.789062,2.78515 l 1.099609,5.04688 v 0.004 c 0.275685,1.23823 1.53441,2.04817 2.775391,1.78516 l 0.0039,-0.002 1.021484,-0.22266 c 1.247068,-0.26993 2.062932,-1.53852 1.791016,-2.78516 l -1.099609,-5.04687 v -0.002 c -0.235389,-1.06117 -1.19235,-1.83282 -2.279297,-1.8379 h -0.0078 z"
       id="path103" />
  </g>
  <g
     id="g111"
     style="fill:none;stroke:#ffffff;stroke-width:3"
     transform="rotate(-90,86.620474,85.111981)">
    <path
       style="color:#000000;fill:#ffffff;stroke:none;-inkscape-stroke:none"
       d="m 59.402344,319.82422 -1.109375,0.22461 0.265625,1.22265 C 58.240297,319.83049 56.231181,319.30532 55.25,320.4082 l -1.154297,1.29297 c -0.437049,0.48809 -0.609069,1.16079 -0.470703,1.80078 0.138246,0.64498 0.577967,1.18883 1.183594,1.45117 l 1.666015,0.73243 0.417969,0.125 h 0.220703 0.05469 0.002 c 0.6673,-0.002 1.183422,-0.39714 1.52539,-0.92383 l 1.533204,-0.3086 c 0.49108,-0.0985 0.923568,-0.39237 1.193359,-0.81445 l 0.07227,-0.11328 0.298828,-0.72656 -0.363282,-1.66211 -0.002,-0.01 c -0.182344,-0.77866 -1.14158,-1.42773 -1.855468,-1.42773 z"
       id="path107" />
    <path
       style="color:#000000;fill:#ffffff;stroke:none;-inkscape-stroke:none"
       d="m 56.677734,319.52344 c -0.612293,0.002 -1.197545,0.26596 -1.605468,0.72265 l -1.15625,1.29883 c -1.008102,1.13088 -0.595984,3.01813 0.792968,3.625 h -0.0039 l 1.591797,0.69922 h 0.002 c 0.935242,0.40787 1.922056,-0.0189 2.505859,-0.75781 l 1.476563,-0.29688 0.0039,-0.002 c 1.119527,-0.23258 1.860595,-1.37021 1.621094,-2.48828 v -0.002 l -0.238281,-1.10157 -0.002,-0.002 c -0.210273,-0.94685 -1.065253,-1.63793 -2.035157,-1.64258 h -0.0039 -0.195312 l -0.220704,0.043 -1.429687,0.28711 c -0.333021,-0.2048 -0.693562,-0.38364 -1.101563,-0.38281 z"
       id="path109" />
  </g>
  <g
     id="g117"
     style="fill:none;stroke:#ffffff;stroke-width:3"
     transform="rotate(-90,86.620476,85.111981)">
    <path
       style="color:#000000;fill:#ffffff;stroke:none;-inkscape-stroke:none"
       d="m 128.32812,294.63867 -0.27539,0.48047 c -0.17523,0.0155 -0.34817,0.0262 -0.53515,0.0664 l -0.0137,0.002 -0.0137,0.004 c -0.19287,0.0454 -0.29054,0.22661 -0.45312,0.32617 -0.11367,-0.0251 -0.22694,-0.12305 -0.33398,-0.12305 h -0.0273 l -0.19922,0.008 -0.14062,0.0332 c -0.27336,0.0633 -0.55806,0.1289 -0.89844,0.30468 -0.34038,0.17579 -0.71091,0.50971 -0.92383,0.86329 l -0.01,0.0156 -0.008,0.0156 c -0.19414,0.34091 -0.26593,0.7754 -0.2832,1.1621 l -1.73828,0.7461 1.86133,0.54492 c 0.009,0.0426 0.008,0.075 0.0176,0.11914 l 0.002,0.002 c 0.23206,1.06028 0.32269,1.58961 0.69531,2.20899 l 0.002,0.004 0.002,0.002 c 0.37362,0.61454 1.26915,1.16406 2.02734,1.16406 0.24719,0 0.46988,-0.0326 0.6836,-0.0781 0.18288,-0.039 0.49973,-0.11822 0.82812,-0.29493 0.0604,-0.003 0.11959,-0.0174 0.17969,-0.0234 l 1.25195,1.58789 -0.0352,-1.98633 c 0.40534,-0.23021 0.80727,-0.5611 1.0293,-1.10156 v -0.002 c 0.33767,-0.8248 0.16145,-1.51678 -0.0391,-2.4414 -0.13998,-0.64575 -0.23727,-1.20922 -0.56445,-1.83789 -0.29401,-0.56493 -1.08361,-1.1169 -1.85743,-1.23633 z m -2.16015,2.30078 c -4.9e-4,0.007 -0.004,0.014 -0.004,0.0215 l -0.5664,0.24218 -0.0176,-0.082 z"
       id="path113" />
    <path
       style="color:#000000;fill:#ffffff;stroke:none;-inkscape-stroke:none"
       d="m 128.30664,294.84766 c -0.27579,0 -0.53589,0.0378 -0.79101,0.0937 h -0.002 l -0.0508,0.0117 c -0.17569,0.0386 -0.28743,0.1844 -0.44336,0.26368 -0.0881,-0.0117 -0.16186,-0.0699 -0.25195,-0.0703 h -0.004 -0.19922 l -0.2539,0.0469 -0.0293,0.008 c -0.61371,0.14336 -1.51222,0.51551 -1.96875,1.27344 l -0.008,0.0137 -0.008,0.0137 c -0.53341,0.92716 -0.36504,1.8853 -0.17579,2.75586 v 0.002 c 0.2402,1.10199 0.35966,1.67443 0.72461,2.28125 v 0.002 l 0.002,0.002 c 0.43034,0.71158 1.38023,1.28321 2.23632,1.2832 0.25898,0 0.50315,-0.0348 0.73829,-0.0859 0.0794,-0.0171 0.37926,-0.23866 0.5625,-0.29492 0.0394,0.002 0.078,0.0156 0.11718,0.0156 0.24458,0 0.47681,-0.0343 0.69532,-0.082 0.50081,-0.10844 1.59889,-0.51217 2.04492,-1.59766 0.33968,-0.82494 0.1862,-1.60557 -0.0273,-2.58789 -0.13196,-0.60534 -0.23143,-1.23129 -0.5957,-1.91992 -0.36427,-0.68863 -1.33473,-1.42773 -2.3125,-1.42773 z m 0.81641,7.05859 -0.0254,0.006 c 0.003,-6.5e-4 0.007,-0.003 0.01,-0.004 0.005,-0.001 0.0105,-7.3e-4 0.0156,-0.002 z m -0.54688,0.0723 c 0.003,-1.5e-4 0.005,0.002 0.008,0.002 l -0.0449,0.002 c 0.0125,-3.2e-4 0.0246,-0.003 0.0371,-0.004 z"
       id="path115" />
  </g>
  <g
     id="g123"
     style="fill:none;stroke:#ffffff;stroke-width:3"
     transform="rotate(-90,86.620476,85.111981)">
    <path
       style="color:#000000;fill:#ffffff;stroke:none;-inkscape-stroke:none"
       d="m 131.14453,298.2832 c -0.58972,-0.003 -1.1485,0.27354 -1.50391,0.74414 l -0.32617,0.42969 v 0.002 c -0.20366,0.27117 -0.20082,0.60474 -0.23633,0.92579 -0.95157,0.2486 -1.5795,1.21978 -1.37695,2.1875 l 0.002,0.008 0.14453,0.66211 c 1.9e-4,9.2e-4 0.002,10e-4 0.002,0.002 0.18447,0.85435 0.95582,1.47901 1.83008,1.48047 h 0.0859 l 0.0859,-0.01 0.1543,-0.0176 2.8418,-0.61719 c 0.49487,-0.10125 0.92592,-0.40238 1.19726,-0.82813 0.17716,-0.27664 0.15174,-0.61057 0.16797,-0.93359 l 0.45313,-0.0996 -0.38086,-0.30273 c -0.005,-0.027 0.0196,-0.0513 0.0137,-0.0781 l -0.31055,-1.43555 -0.28906,-0.65625 -1.5293,-1.1582 -0.58398,-0.30469 z m -1.49609,3.77344 0.0137,0.01 c 4.8e-4,3.7e-4 -4.8e-4,0.002 0,0.002 z"
       id="path119" />
    <path
       style="color:#000000;fill:#ffffff;stroke:none;-inkscape-stroke:none"
       d="m 131.13477,298.04297 c -0.65851,0.002 -1.28271,0.31202 -1.68165,0.83594 l -0.32617,0.42968 v 0.002 c -0.21114,0.27957 -0.19397,0.62389 -0.24609,0.95312 -0.44118,0.15489 -0.86399,0.38211 -1.11914,0.7793 -0.30343,0.47089 -0.4101,1.04441 -0.29102,1.5918 v 0.002 l 0.14453,0.66601 v 0.004 c 0.21234,0.95768 1.07767,1.65489 2.0586,1.66016 h 0.004 0.18555 l 0.23828,-0.043 2.81641,-0.61133 h -0.006 c 0.54933,-0.11754 1.02853,-0.45333 1.33203,-0.92578 0.30359,-0.47094 0.41035,-1.04429 0.29102,-1.5918 v -0.002 l -0.2793,-1.2832 v -0.002 c -0.10688,-0.49106 -0.38541,-0.92973 -0.78516,-1.23437 h -0.002 l -1.03906,-0.78711 c -0.3694,-0.28694 -0.82522,-0.44373 -1.29297,-0.44336 z"
       id="path121" />
  </g>
  <g
     id="g129"
     style="fill:none;stroke:#ffffff;stroke-width:3"
     transform="rotate(-90,86.620474,85.111981)">
    <path
       style="color:#000000;fill:#ffffff;stroke:none;-inkscape-stroke:none"
       d="m 130.22852,302.66406 c -0.29148,0 -0.56232,0.0454 -0.84766,0.10742 -0.14478,0.0302 -0.21794,0.1819 -0.34961,0.24414 l -0.14258,-0.01 h -0.043 c -0.38687,0 -0.70209,0.0641 -1.19531,0.17187 l -0.004,0.002 -0.006,0.002 c -0.0816,0.0184 -0.17383,0.0383 -0.28711,0.0703 -0.94471,0.26062 -1.54026,1.24551 -1.33204,2.20313 l 0.73438,3.38867 0.002,0.004 c 0.18845,0.85187 0.96152,1.47073 1.83399,1.46875 h 0.084 l 0.082,-0.01 0.15625,-0.0176 0.50196,-0.10937 c 5.5e-4,-1.2e-4 0.001,1.2e-4 0.002,0 0.20266,-0.0436 0.3064,-0.2326 0.47656,-0.33594 0.0918,0.009 0.17886,0.05 0.27149,0.0488 h 0.008 l 0.008,-0.002 c 0.27254,-0.007 0.54359,-0.0436 0.80859,-0.10742 0.30194,-0.066 0.63262,-0.14336 1.01758,-0.36914 0.39128,-0.22948 0.79682,-0.67988 0.97656,-1.15429 0.1153,-0.30338 0.18489,-0.84432 0.14063,-1.23047 -0.0445,-0.38873 -0.1309,-0.76647 -0.27148,-1.41211 v -0.002 c -0.12554,-0.57979 -0.21067,-1.1032 -0.54883,-1.71484 -0.33851,-0.61227 -1.27357,-1.23633 -2.07617,-1.23633 z m -2.03125,0.91211 c -0.005,0.007 5.3e-4,0.0165 -0.004,0.0234 -0.004,0.006 -0.0137,0.005 -0.0176,0.0117 z m 0.43554,3.77735 c 0.14704,0.009 0.18499,0.18931 0.31446,0.25195 0.003,0.0142 0.0435,0.0684 0.0488,0.0859 l -0.96093,0.3164 c 0.10636,-0.30194 0.29836,-0.52883 0.59765,-0.65429 z"
       id="path125" />
    <path
       style="color:#000000;fill:#ffffff;stroke:none;-inkscape-stroke:none"
       d="m 130.22656,302.42383 c -0.30935,0 -0.60217,0.0478 -0.91211,0.11523 -0.14171,0.0308 -0.19966,0.19394 -0.33008,0.25196 -0.0509,-0.002 -0.0994,-0.0221 -0.15039,-0.0215 -0.38517,10e-4 -0.71979,0.0642 -1.21484,0.17188 h -0.002 -0.002 c -0.10531,0.0232 -0.20792,0.0445 -0.33398,0.0801 h 0.006 c -1.06601,0.2964 -1.73638,1.40501 -1.50195,2.48633 h 0.002 l 0.73633,3.38672 v 0.004 c 0.21233,0.95768 1.07571,1.65489 2.05664,1.66015 h 0.006 0.1875 l 0.23828,-0.043 0.46289,-0.10156 h 0.002 c 0.21908,-0.048 0.38576,-0.19423 0.57422,-0.30469 0.0344,0.001 0.0651,0.0236 0.0996,0.0234 6.4e-4,0 0.001,0 0.002,0 0.30099,-5.9e-4 0.57741,-0.0458 0.86328,-0.10742 h 0.002 c 0.26884,-0.0584 0.6445,-0.13627 1.07617,-0.38086 0.4296,-0.24341 0.89324,-0.72062 1.11328,-1.30078 0.13295,-0.34778 0.20351,-0.89323 0.1582,-1.31055 -0.0456,-0.41977 -0.13726,-0.81682 -0.27929,-1.46875 -0.11444,-0.52571 -0.20462,-1.11652 -0.57422,-1.7832 -0.36961,-0.66668 -1.33217,-1.35742 -2.28516,-1.35742 z m -0.82031,0.58594 c -0.003,7.5e-4 -0.004,0.005 -0.008,0.006 -0.01,0.002 -0.0197,0.001 -0.0293,0.004 l 0.002,-0.002 z m 3.35742,5.1582 -0.006,0.0156 c 8.4e-4,-0.002 0.001,-0.008 0.002,-0.01 7.3e-4,-0.002 0.003,-0.004 0.004,-0.006 z"
       id="path127" />
  </g>
  <g
     id="g135"
     style="fill:none;stroke:#ffffff;stroke-width:3"
     transform="rotate(-90,86.620472,85.111981)">
    <path
       style="color:#000000;fill:#ffffff;stroke:none;-inkscape-stroke:none"
       d="m 140.58203,331.31641 -3.17773,0.99414 c -0.78074,0.24337 -1.44135,0.80651 -1.80664,1.53515 -0.37079,0.73782 -0.4221,1.59801 -0.14258,2.375 2.3e-4,6.4e-4 -2.3e-4,10e-4 0,0.002 l 2.00976,5.65625 c 0.42727,1.20231 1.57559,2.01349 2.85157,2.01562 h 0.004 0.002 c 0.29544,-8.2e-4 0.5903,-0.0451 0.87304,-0.13086 l 3.07617,-0.92187 c 0.78975,-0.23385 1.44992,-0.78313 1.82618,-1.51563 0.37526,-0.72647 0.44018,-1.59149 0.17968,-2.36133 l -0.34179,-1.0039 c -0.16208,-0.47544 -0.53259,-0.8024 -0.96485,-1.0293 l 0.41407,-1.87109 c 0.18479,-0.83942 -0.34895,-1.52079 -1.0586,-1.91602 l 0.043,0.13281 c -0.0279,-0.0866 -0.13095,-0.11099 -0.16602,-0.19336 -0.23403,-0.10838 -0.40369,-0.33227 -0.67578,-0.33203 h -0.0605 l -0.31641,0.0254 0.62305,-0.19726 c -0.74699,-1.01617 -1.93527,-1.65823 -3.19336,-1.26172 z m 2.31836,8.04296 c 0.003,2e-5 0.005,0.004 0.008,0.004 h -0.0176 c 0.004,4e-5 0.006,-0.004 0.01,-0.004 z"
       id="path131" />
    <path
       style="color:#000000;fill:#ffffff;stroke:none;-inkscape-stroke:none"
       d="m 141.48633,330.9375 c -0.32984,0 -0.6594,0.0496 -0.97852,0.15039 l -3.17578,0.99219 c -0.84279,0.26337 -1.55539,0.87055 -1.94922,1.6582 -0.39506,0.79012 -0.45056,1.72613 -0.15429,2.55859 l 2.01171,5.66407 c 0.57998,1.62433 2.36462,2.52958 4.01758,2.03711 l 3.08203,-0.92578 c 0.85454,-0.25285 1.56947,-0.84689 1.97461,-1.64063 0.40004,-0.78039 0.47001,-1.71005 0.1875,-2.54297 v -0.002 l -0.33984,-1 v -0.002 c -0.16015,-0.46915 -0.53061,-0.7847 -0.92383,-1.04102 l 0.38086,-1.72461 c 0.14149,-0.63326 -0.0153,-1.29911 -0.42187,-1.80469 -0.16151,-0.20109 -0.44711,-0.19123 -0.66407,-0.32031 l 0.0664,0.20703 c -0.0356,-0.10998 -0.14895,-0.16354 -0.19531,-0.26758 -0.29442,-0.14902 -0.53176,-0.41714 -0.86914,-0.41797 -0.0225,-0.0271 -0.039,-0.0578 -0.0625,-0.084 l 0.46289,-0.14258 c -0.60943,-0.77091 -1.43015,-1.35234 -2.44922,-1.35156 z m 2.46875,1.83789 0.18359,0.56641 c -10e-4,-5.9e-4 -0.003,5.8e-4 -0.004,0 -0.068,-0.20833 -0.25767,-0.32598 -0.36915,-0.50782 z"
       id="path133" />
  </g>
  <g
     id="g141"
     style="fill:none;stroke:#ffffff;stroke-width:3"
     transform="rotate(-90,86.620473,85.111981)">
    <path
       style="color:#000000;fill:#ffffff;stroke:none;-inkscape-stroke:none"
       d="m 69.298828,355.26562 -0.324219,0.0312 -6.257812,1.82422 h -0.0039 c -1.046403,0.31027 -1.668283,1.44507 -1.367188,2.49414 l 0.002,0.004 L 63,365.28906 c 0.248461,0.85404 1.044028,1.4522 1.933594,1.45313 h 0.07422 l 0.07422,-0.008 0.251953,-0.0234 6.257813,-1.82422 0.0039,-0.002 c 1.046403,-0.31027 1.668282,-1.44507 1.367188,-2.49415 v -0.002 l -1.654297,-5.67187 c -0.25079,-0.85817 -1.038426,-1.45118 -1.935547,-1.45118 z m -0.59375,3.23633 1.101563,3.78125 -4.201172,1.22266 -1.101563,-3.78125 z"
       id="path137" />
    <path
       style="color:#000000;fill:#ffffff;stroke:none;-inkscape-stroke:none"
       d="m 69.375,355.02539 c -0.213294,-1.6e-4 -0.425985,0.0305 -0.630859,0.0898 h -0.002 l -6.089843,1.77539 c -1.178304,0.34482 -1.877737,1.61792 -1.535157,2.79688 l 1.654297,5.67187 v 0.002 c 0.346992,1.17429 1.616227,1.86984 2.792969,1.53125 h 0.002 l 6.091797,-1.77539 c 1.178304,-0.34482 1.877737,-1.61792 1.535156,-2.79688 h -0.002 l -1.652344,-5.67187 -0.002,-0.004 c -0.28219,-0.94992 -1.167259,-1.61465 -2.158203,-1.61914 h -0.002 z m -0.833984,3.77344 0.96875,3.32031 -3.742188,1.08984 -0.966797,-3.32031 z"
       id="path139" />
  </g>
  <g
     id="g145"
     style="fill:none;stroke:#ffffff;stroke-width:3"
     transform="rotate(-90,86.620474,85.111981)">
    <path
       style="color:#000000;fill:#ffffff;stroke:none;-inkscape-stroke:none"
       d="m 106.73828,31.570312 c -3.2744,0 -5.96094,2.686539 -5.96094,5.960938 0,3.274399 2.68654,5.960937 5.96094,5.960937 3.2744,0 5.96094,-2.686538 5.96094,-5.960937 0,-3.274399 -2.68654,-5.960938 -5.96094,-5.960938 z m 0,3 c 1.65308,0 2.96094,1.307858 2.96094,2.960938 0,1.65308 -1.30786,2.960937 -2.96094,2.960937 -1.65308,0 -2.96094,-1.307857 -2.96094,-2.960937 0,-1.65308 1.30786,-2.960938 2.96094,-2.960938 z"
       id="circle143" />
  </g>
  <g
     id="g149"
     style="fill:none;stroke:#ffffff;stroke-width:3"
     transform="rotate(-90,86.620469,85.111981)">
    <path
       style="color:#000000;fill:#ffffff;stroke:none;-inkscape-stroke:none"
       d="m 120.89648,55.220703 c -3.27439,0 -5.96093,2.686538 -5.96093,5.960938 0,3.274399 2.68654,5.960937 5.96093,5.960937 3.2744,0 5.96094,-2.686538 5.96094,-5.960937 0,-3.2744 -2.68654,-5.960938 -5.96094,-5.960938 z m 0,3 c 1.65308,0 2.96094,1.307857 2.96094,2.960938 0,1.65308 -1.30786,2.960937 -2.96094,2.960937 -1.65308,0 -2.96093,-1.307857 -2.96093,-2.960937 0,-1.653081 1.30785,-2.960938 2.96093,-2.960938 z"
       id="circle147" />
  </g>
  <g
     id="g153"
     style="fill:none;stroke:#ffffff;stroke-width:3"
     transform="rotate(-90,86.620474,85.111981)">
    <path
       style="color:#000000;fill:#ffffff;stroke:none;-inkscape-stroke:none"
       d="m 96.683594,70.324219 c -3.274399,0 -5.960938,2.686538 -5.960938,5.960937 0,3.274399 2.686539,5.960938 5.960938,5.960938 3.274399,0 5.960936,-2.686539 5.960936,-5.960938 0,-3.274399 -2.686537,-5.960937 -5.960936,-5.960937 z m 0,3 c 1.65308,0 2.960937,1.307857 2.960937,2.960937 0,1.653081 -1.307857,2.960938 -2.960937,2.960938 -1.653081,0 -2.960938,-1.307857 -2.960938,-2.960938 0,-1.65308 1.307857,-2.960937 2.960938,-2.960937 z"
       id="circle151" />
  </g>
  <g
     id="g157"
     style="fill:none;stroke:#ffffff;stroke-width:3"
     transform="rotate(-90,86.620473,85.111981)">
    <path
       style="color:#000000;fill:#ffffff;stroke:none;-inkscape-stroke:none"
       d="m 81.599609,45.996094 c -3.274399,0 -5.960937,2.686538 -5.960937,5.960937 0,3.274399 2.686538,5.960938 5.960937,5.960938 3.2744,0 5.960938,-2.686539 5.960938,-5.960938 0,-3.274399 -2.686538,-5.960937 -5.960938,-5.960937 z m 0,3 c 1.653081,0 2.960938,1.307857 2.960938,2.960937 0,1.653081 -1.307857,2.960938 -2.960938,2.960938 -1.65308,0 -2.960937,-1.307857 -2.960937,-2.960938 0,-1.65308 1.307857,-2.960937 2.960937,-2.960937 z"
       id="circle155" />
  </g>
  <path
     style="color:#000000;fill:#ffffff;-inkscape-stroke:none"
     d="m 90.891305,147.61918 0.06445,1.20507 1.189453,0.19532 3.664062,0.59961 -0.101562,-1.86328 c -0.163581,-3.0097 0.185454,-12.54732 0.591797,-20.70313 0.220009,-4.40618 0.427415,-8.57222 0.537109,-11.83789 0.149503,-4.45182 1.930847,-15.74125 3.855476,-26.07227 0.9623,-5.16551 1.95895,-10.12592 2.80078,-13.95703 0.42091,-1.91556 0.80475,-3.54975 1.12109,-4.77539 0.31634,-1.22563 0.64463,-2.16034 0.65234,-2.17578 l 0.85157,-1.70312 -4.61524,-1.06446 -0.52929,1.05469 c -0.35674,0.71325 -0.59675,1.59707 -0.95118,2.94141 -0.354426,1.34433 -0.761588,3.06184 -1.203124,5.05273 -0.883067,3.98178 -1.901807,9.05069 -2.878902,14.29297 -1.95419,10.48455 -3.74123,21.51093 -3.900391,26.24609 -0.107296,3.20995 -0.315166,7.36196 -0.535156,11.75977 -0.410397,8.22195 -0.809291,17.17743 -0.613282,20.80469 z"
     id="path159" />
  <path
     style="color:#000000;fill:#ffffff;-inkscape-stroke:none"
     d="m 92.090521,147.61917 0.06445,1.20508 1.189453,0.19531 3.664063,0.59961 -0.101563,-1.86328 c -0.16358,-3.0097 0.183501,-12.54732 0.589844,-20.70313 0.220009,-4.40618 0.427415,-8.57222 0.53711,-11.83789 0.149503,-4.45182 1.932801,-15.74124 3.857422,-26.07226 0.96231,-5.16551 1.95896,-10.12592 2.80078,-13.95703 0.42091,-1.91556 0.80476,-3.54975 1.1211,-4.77539 0.31633,-1.22563 0.64462,-2.16034 0.65234,-2.17578 l 0.85156,-1.70312 -4.61523,-1.06446 -0.5293,1.05469 c -0.35673,0.71325 -0.59674,1.59707 -0.95117,2.94141 -0.35443,1.34433 -0.76159,3.06184 -1.20312,5.05273 -0.883077,3.98178 -1.901819,9.05069 -2.878914,14.29297 -1.95419,10.48455 -3.74123,21.51093 -3.90039,26.24609 -0.107297,3.20995 -0.315166,7.36196 -0.535157,11.75976 -0.410396,8.22195 -0.80929,17.17743 -0.613281,20.80469 z"
     id="path161" />
  <path
     style="color:#000000;fill:#ffffff;-inkscape-stroke:none"
     d="m 91.490915,147.61918 0.06445,1.20507 1.189453,0.19532 3.664063,0.59961 -0.101563,-1.86329 c -0.16358,-3.00969 0.185454,-12.54731 0.591797,-20.70312 0.220009,-4.40618 0.427415,-8.57222 0.537109,-11.83789 0.149504,-4.45182 1.930849,-15.74125 3.855476,-26.07227 0.9623,-5.16551 1.96091,-10.12592 2.80273,-13.95703 0.42091,-1.91556 0.8028,-3.54975 1.11914,-4.77539 0.31634,-1.22563 0.64463,-2.16034 0.65234,-2.17578 l 0.85156,-1.70312 -4.61523,-1.06446 -0.52734,1.05469 c -0.35673,0.71325 -0.5987,1.59707 -0.95313,2.94141 -0.35442,1.34433 -0.761584,3.06184 -1.20312,5.05273 -0.883071,3.98178 -1.901812,9.05069 -2.878907,14.29297 -1.95419,10.48455 -3.74123,21.51093 -3.900391,26.24609 -0.107296,3.20995 -0.313213,7.36196 -0.533203,11.75977 -0.410397,8.22195 -0.811244,17.17743 -0.615234,20.80469 z"
     id="path163" />
  <path
     style="color:#000000;fill:#ffffff;-inkscape-stroke:none"
     d="m 91.389346,145.75785 0.09961,1.86132 c 0.273427,5.07147 0.942421,14.94101 0.941406,14.92578 l 0.07813,1.19141 1.179687,0.18945 3.679688,0.5918 -0.125,-1.88086 c -0.01198,-0.17977 -0.666907,-9.87389 -0.9375,-14.88086 l -0.06445,-1.20508 z"
     id="path165" />
  <path
     style="color:#000000;fill:#ffffff;-inkscape-stroke:none"
     d="m 100.72139,68.2266 4.61718,1.06445 0.52734,-1.05664 c 0.40503,-0.81006 1.09733,-1.19216 1.82227,-1.41211 0.36246,-0.10997 0.71373,-0.16336 0.96484,-0.1875 0.12556,-0.0121 0.22636,-0.0175 0.29297,-0.0195 0.0333,-0.001 0.057,-0.002 0.0762,-0.002 0.01,-9e-5 0.0176,1.3e-4 0.0312,0 0.007,-7e-5 0.0135,5.3e-4 0.0332,0 0.01,-2.6e-4 0.022,-4.1e-4 0.0488,-0.002 0.0268,-0.002 0.21853,-0.0293 0.21875,-0.0293 l 0.11133,-2.91016 c 0,0 -0.46103,-0.0296 -0.54492,-0.0508 0.0153,-0.002 0.0379,-0.006 0.043,-0.006 0.0186,-10e-4 0.0238,-0.002 0.0312,-0.002 -0.0279,2.5e-4 -0.0729,0.003 -0.12305,0.004 -0.39494,-0.098 -1.0702,-0.3185 -2.37109,-0.22071 -1.62662,0.12228 -3.81612,0.90176 -4.92774,3.125 z"
     id="path167" />
  <path
     style="color:#000000;fill:#ffffff;-inkscape-stroke:none"
     d="m 284.88349,66.53129 0.85156,1.70312 c 0.008,0.0154 0.33796,0.95015 0.6543,2.17578 0.31634,1.22564 0.69823,2.85984 1.11914,4.77539 0.84182,3.83111 1.83847,8.79153 2.80078,13.95703 1.92462,10.33102 3.70792,21.62045 3.85742,26.07227 0.1097,3.26567 0.3171,7.43171 0.53711,11.83789 0.40635,8.15581 0.75343,17.69343 0.58985,20.70313 l -0.10157,1.86328 4.85352,-0.79492 0.0664,-1.20508 c 0.19601,-3.62726 -0.20484,-12.58274 -0.61524,-20.80469 -0.21999,-4.3978 -0.42591,-8.54982 -0.5332,-11.75977 -0.15916,-4.73515 -1.9462,-15.76154 -3.90039,-26.24609 -0.9771,-5.24227 -1.99779,-10.31119 -2.88086,-14.29297 -0.44154,-1.9909 -0.8487,-3.7084 -1.20313,-5.05273 -0.35442,-1.34434 -0.59444,-2.22816 -0.95117,-2.94141 l -0.52734,-1.05469 z"
     id="path169" />
  <path
     style="color:#000000;fill:#ffffff;-inkscape-stroke:none"
     d="m 283.68427,66.53129 0.85156,1.70312 c 0.008,0.0154 0.33601,0.95015 0.65235,2.17578 0.31633,1.22564 0.70018,2.85984 1.12109,4.7754 0.84182,3.83111 1.83847,8.79152 2.80078,13.95703 1.92462,10.33102 3.70597,21.62044 3.85547,26.07226 0.1097,3.26567 0.3171,7.43171 0.53711,11.8379 0.40634,8.15581 0.75538,17.69342 0.5918,20.70312 l -0.10157,1.86328 4.85352,-0.79492 0.0644,-1.20508 c 0.19601,-3.62726 -0.20288,-12.58273 -0.61328,-20.80469 -0.21999,-4.3978 -0.42786,-8.54981 -0.53515,-11.75976 -0.15916,-4.73516 -1.9462,-15.76155 -3.90039,-26.2461 -0.9771,-5.24227 -1.99584,-10.31118 -2.87891,-14.29296 -0.44154,-1.9909 -0.8487,-3.70841 -1.20313,-5.05274 -0.35442,-1.34434 -0.59444,-2.22816 -0.95117,-2.94141 l -0.52929,-1.05469 z"
     id="path171" />
  <path
     style="color:#000000;fill:#ffffff;-inkscape-stroke:none"
     d="m 284.28388,66.53129 0.85156,1.70312 c 0.008,0.0154 0.33601,0.95015 0.65235,2.17578 0.31633,1.22564 0.70018,2.85984 1.12109,4.7754 0.84182,3.83111 1.83847,8.79152 2.80078,13.95703 1.92462,10.33102 3.70792,21.62044 3.85742,26.07226 0.1097,3.26567 0.3171,7.43171 0.53711,11.8379 0.40635,8.15581 0.75343,17.69342 0.58985,20.70312 l -0.10157,1.86328 4.85352,-0.79492 0.0645,-1.20508 c 0.19601,-3.62726 -0.20288,-12.58273 -0.61328,-20.80469 -0.21999,-4.3978 -0.42786,-8.54981 -0.53515,-11.75976 -0.15916,-4.73516 -1.94621,-15.76155 -3.9004,-26.2461 -0.97709,-5.24227 -1.99583,-10.31118 -2.8789,-14.29296 -0.44154,-1.9909 -0.8487,-3.70841 -1.20313,-5.05274 -0.35442,-1.34434 -0.59444,-2.22816 -0.95117,-2.94141 l -0.5293,-1.05469 z"
     id="path173" />
  <path
     style="color:#000000;fill:#ffffff;-inkscape-stroke:none"
     d="m 293.63349,164.51761 4.85742,-0.78125 0.0801,-1.1914 c -10e-4,0.0152 0.66603,-9.85432 0.93945,-14.92578 l 0.10157,-1.86133 -4.85157,0.79297 -0.0664,1.20507 c -0.27062,5.00697 -0.92359,14.70109 -0.93557,14.88086 z"
     id="path175" />
  <path
     style="color:#000000;fill:#ffffff;-inkscape-stroke:none"
     d="m 281.53583,63.67191 0.11133,2.91016 c 2.3e-4,5e-5 0.19195,0.0277 0.21875,0.0293 0.0268,0.002 0.039,0.002 0.0488,0.002 0.0197,5.3e-4 0.0264,-7e-5 0.0332,0 0.0137,1.3e-4 0.0216,-9e-5 0.0312,0 0.0192,1.7e-4 0.0429,9.3e-4 0.0762,0.002 0.0666,0.002 0.16742,0.007 0.29297,0.0195 0.25112,0.0241 0.60238,0.0775 0.96485,0.1875 0.72493,0.21995 1.41723,0.60205 1.82226,1.41211 l 0.5293,1.05664 4.61523,-1.06445 -0.85156,-1.70508 c -1.11215,-2.22298 -3.30122,-3.00272 -4.92773,-3.125 -1.30081,-0.0978 -1.9762,0.12269 -2.3711,0.22071 -0.0502,-10e-4 -0.0952,-0.004 -0.12304,-0.004 0.007,2.1e-4 0.0143,8.6e-4 0.0332,0.002 0.005,3e-4 0.0275,0.004 0.043,0.006 -0.0845,0.0213 -0.54688,0.0508 -0.54688,0.0508 z"
     id="path177" />
  <path
     style="color:#000000;fill:#ffffff;-inkscape-stroke:none"
     d="m 93.113961,123.82621 1.43945,0.26758 c 15.820499,2.93378 54.016789,8.96094 100.947269,8.96094 46.93047,0 85.1287,-6.02716 100.94922,-8.96094 l 1.43945,-0.26758 -0.66406,-4.12695 -1.50977,0.2793 c -15.80158,2.92227 -53.71791,8.87695 -100.21484,8.87695 -46.49696,0 -84.41153,-5.95372 -100.212889,-8.87695 l -1.51172,-0.2793 z"
     id="path179" />
  <path
     style="color:#000000;fill:#ffffff;-inkscape-stroke:none"
     d="m 94.307318,114.7598 1.25781,0.20508 c 15.764992,2.57502 58.127572,8.79492 99.935552,8.79492 41.80798,0 84.17056,-6.2199 99.93554,-8.79492 l 1.25782,-0.20508 v -4.23828 l -1.74219,0.2832 c -15.67898,2.56097 -57.94123,8.75586 -99.45117,8.75586 -41.50994,0 -83.77415,-6.19489 -99.453132,-8.75586 l -1.74023,-0.2832 z"
     id="path181" />
  <path
     style="color:#000000;fill:#ffffff;-inkscape-stroke:none"
     d="m 93.406921,122.68363 1.33398,0.2461 c 15.928379,2.94572 54.006789,8.92773 100.759769,8.92773 46.75295,0 84.83118,-5.98097 100.75977,-8.92773 l 1.33399,-0.2461 -0.11133,-1.35351 c -0.22158,-2.67708 -0.48849,-5.34933 -0.79883,-8.01758 l -0.18164,-1.56055 -1.55078,0.25391 c -15.67898,2.56097 -57.94124,8.75586 -99.45118,8.75586 -41.50994,0 -83.77416,-6.19489 -99.453129,-8.75586 l -1.54883,-0.25391 -0.18164,1.56055 c -0.31033,2.66825 -0.57724,5.3405 -0.79882,8.01758 z m 3.23828,-2.47851 c 0.14787,-1.66961 0.31323,-3.33777 0.49609,-5.00391 16.618939,2.67864 57.556699,8.56055 98.359379,8.56055 40.80146,0 81.7375,-5.88179 98.35743,-8.56055 0.18287,1.66616 0.35017,3.33428 0.49805,5.00391 -16.38675,2.98394 -53.35956,8.65234 -98.85548,8.65234 -45.49591,0 -82.46855,-5.66926 -98.855469,-8.65234 z"
     id="path183" />
  <g
     id="g187"
     style="fill:none;stroke:#ffffff;stroke-width:3"
     transform="rotate(-90,86.620474,85.111981)">
    <path
       style="color:#000000;fill:#ffffff;stroke:none;-inkscape-stroke:none"
       d="m 45.539062,216.61328 c -3.166905,0.44596 -5.820312,3.28459 -5.820312,6.79102 0,0.11605 0.0031,0.23952 0.0098,0.36718 0.681697,13.43725 1.813959,26.84762 3.394531,40.20899 0.344828,2.91202 2.474106,5.40369 5.40625,5.89062 0.813406,0.13561 1.644443,0.13256 2.457031,-0.008 3.227282,-0.55475 5.402344,-3.49689 5.402344,-6.6875 0,-0.26787 -0.01681,-0.53971 -0.04883,-0.8125 l 0.002,0.004 c -1.334365,-11.61107 -2.619832,-25.15642 -3.425781,-39.41016 -0.142959,-2.52772 -1.61925,-4.86404 -3.986329,-5.87305 l -0.0059,-0.002 -0.123047,-0.0508 -0.002,-0.002 c -1.090558,-0.44711 -2.20413,-0.56467 -3.259766,-0.41602 z m 2.035157,4.85742 0.07422,0.0293 c 0.540321,0.22999 1.026916,0.89611 1.074219,1.72852 0.714805,12.64292 1.87514,25.99371 3.449219,39.6875 l 0.002,0.004 v 0.004 c 0.0092,0.0767 0.01367,0.1649 0.01367,0.25195 0,1.02427 -0.705368,1.83485 -1.416016,1.95703 v 0.002 c -0.299062,0.0516 -0.556838,0.0507 -0.855468,0.002 -0.656302,-0.10915 -1.317043,-0.77179 -1.429688,-1.7207 -1.568538,-13.25512 -2.691339,-26.55819 -3.367187,-39.88868 v -0.008 -0.006 c -0.0447,-0.74424 0.301896,-1.4517 0.917968,-1.87109 0.508477,-0.34088 1.01271,-0.38702 1.53711,-0.17188 z"
       id="path185" />
  </g>
  <path
     style="color:#000000;fill:#ffffff;-inkscape-stroke:none"
     d="m 92.285769,121.91415 c 0.006,0.2518 0.0137,0.4462 0.0195,0.58008 0.003,0.0669 0.006,0.11895 0.008,0.1543 9.2e-4,0.0177 10e-4,0.0307 0.002,0.0391 4.6e-4,0.008 0.002,0.0254 0.002,0.0254 l 1.4961,1.40625 h 2.37695 l 1.26563,-13.33399 h -4.42579 l -0.16796,1.31055 c -0.40489,3.16717 -0.5404,5.80284 -0.57618,7.65625 -0.0179,0.92671 -0.0121,1.65851 0,2.16211 z m 201.259771,-11.1289 1.26367,13.33398 h 3.78711 l 0.0879,-1.40625 c 0,0 0.26393,-4.28275 -0.54687,-10.61719 l -0.16602,-1.31054 h -1.32031 z"
     id="path189" />
  <g
     id="g205"
     style="fill:none;stroke:#ffffff;stroke-width:3"
     transform="rotate(-90,86.620473,85.111981)">
    <path
       style="color:#000000;fill:#ffffff;stroke:none;-inkscape-stroke:none"
       d="m 109.79102,21.453125 c -0.62187,-0.137295 -1.30581,0.01296 -1.76563,0.515625 l -0.48047,0.523437 0.875,1.164063 c -0.021,-0.04278 -0.0888,-0.04122 -0.10351,-0.08789 l 0.4082,1.289063 c -0.44355,-0.04473 -0.86531,-0.244587 -1.00586,-0.685547 l 1.26172,3.994141 1.07812,0.236328 c 1.33019,0.293711 2.5902,-1.081502 2.17969,-2.38086 l -1.06055,-3.355468 c -0.205,-0.6505 -0.76431,-1.075477 -1.38671,-1.212892 z M 72.341797,45.552734 c -0.307267,-0.08128 -0.635934,-0.08315 -0.960938,0.01953 l -3.361328,1.0625 h -0.0059 c -1.011083,0.326826 -1.552192,1.498376 -1.146485,2.480468 l 0.525391,1.271485 2.416016,-0.761719 -0.496094,2.244141 0.980469,0.542968 C 71.340477,52.99061 72.737889,52.362888 73,51.195312 l 0.002,-0.0039 0.759766,-3.4375 v -0.002 c 0.220246,-0.99747 -0.498745,-1.955532 -1.419922,-2.199219 z m 60.619143,14.296875 c -0.93681,-0.166852 -1.98986,0.395191 -2.21289,1.390625 v 0.0039 l -0.33399,1.509765 0.93946,0.470703 2.2207,2.03125 0.38281,1.103516 1.76758,-0.556641 c 1.30009,-0.409719 1.70399,-2.232064 0.69922,-3.152343 l -0.002,-0.002 -2.5957,-2.376953 -0.002,-0.002 c -0.25135,-0.229018 -0.55101,-0.364304 -0.86328,-0.419922 z m 19.53515,8.521485 c -0.70429,0 -1.40799,0.3274 -1.78711,0.984375 l -1.75586,3.039062 2.45508,-0.378906 1.63086,2.822266 c -0.86312,-0.222581 -1.84961,0.02091 -2.33008,0.853515 l -1.75586,3.03711 2.45508,-0.378907 2.29102,3.964844 0.0703,1.195313 h 1.45313 c 1.51694,0 2.54586,-1.780999 1.78711,-3.095704 l -1.8711,-3.240234 h 0.084 c 1.51694,0 2.54586,-1.780999 1.78711,-3.095703 l -2.72657,-4.722656 c -0.37929,-0.656107 -1.08328,-0.984375 -1.78711,-0.984375 z M 93.113281,84.105469 c -1.33093,-0.295555 -2.590402,1.080843 -2.179687,2.380859 v 0.002 l 0.320312,1.009766 2.128906,0.470703 -0.570312,0.623047 1.724609,2.378906 c 0.03385,-0.01532 0.324507,-0.120736 0.605469,-0.425781 l 0.002,-0.002 2.378906,-2.59961 0.002,-0.002 c 0.916072,-1.005396 0.356542,-2.776846 -0.970704,-3.074219 l -0.002,-0.002 z m -55.404297,151.791011 -5.873047,0.20508 h -0.0078 c -1.055401,0.0468 -1.949212,0.85031 -2.109375,1.89453 l -0.320313,2.0918 2.080079,-0.39062 c 0.316373,-0.0593 0.193764,-0.0157 -0.125,0.002 l 5.082031,-0.17969 -0.05273,0.32227 -4.410156,0.15625 h -0.0078 c -1.055401,0.0468 -1.949212,0.84835 -2.109375,1.89257 l -0.320313,2.0918 2.080078,-0.39062 c 0.266609,-0.05 0.13711,-0.0202 -0.07617,0 l 5.033204,-0.17774 -0.302735,1.89453 2.033203,-0.3125 c 1.101665,-0.16921 1.926063,-1.15533 1.896485,-2.26953 v -0.008 l -0.02734,-0.76367 v -0.002 c -0.02185,-0.62079 -0.313199,-1.17165 -0.748047,-1.5664 0.392754,-0.41878 0.65273,-0.94963 0.636719,-1.55274 v -0.008 l -0.02734,-0.76562 v -0.002 c -0.043,-1.22156 -1.102529,-2.20725 -2.324219,-2.16211 z m 0.515625,10.67969 -5.439453,0.38477 c -1.106911,0.0789 -1.973831,1.06376 -1.914062,2.17187 l 0.08203,1.52344 5.267578,-0.37305 -2.679687,5.50977 2.603515,-0.19727 c 0.731272,-0.0553 1.383894,-0.50093 1.701172,-1.16211 l 2.380859,-4.89257 v -0.002 c 0.664066,-1.36389 -0.4884,-3.07097 -2.001953,-2.96289 z m 90.599611,48.60938 c -0.46343,-0.0803 -0.79366,-0.008 -1.07227,0.0527 h -0.002 l -0.0469,0.01 c -0.21958,0.0477 -0.34323,0.23884 -0.51758,0.36523 -0.22469,-0.0477 -0.43243,-0.17031 -0.66602,-0.11523 -0.27828,0.0647 -0.52778,0.12446 -0.83984,0.28515 -0.31424,0.16182 -0.66384,0.50356 -0.82227,0.76563 l -0.0195,0.0312 -0.0156,0.0312 c -0.14866,0.27491 -0.23869,0.57894 -0.26172,0.89062 l -0.15625,2.13282 0.47265,-0.13282 c 0.0484,0.24058 0.0865,0.48317 0.14844,0.72071 l 0.006,0.0234 0.006,0.0234 c 0.0636,0.21436 0.12763,0.40447 0.22656,0.61524 l 0.0781,0.16992 0.11914,0.14258 c 0.18531,0.22648 0.54578,0.48368 0.90039,0.57031 0.3546,0.0866 0.62908,0.0446 0.8164,0.004 h 0.002 c 0.0504,-0.011 0.13915,-0.0839 0.19922,-0.10156 l -0.043,0.55469 0.80078,-0.20508 c -0.002,0.12032 -0.091,0.22252 -0.0644,0.34375 l 0.38867,1.77734 2.35547,-0.50976 0.10351,0.48047 2.03125,-0.44336 c 0.86139,-0.18839 1.4344,-1.07484 1.25195,-1.9375 l -0.002,-0.004 -0.2793,-1.2832 c -0.0831,-0.39155 -0.30822,-0.73966 -0.63085,-0.97656 l -1.0254,-0.7793 c -5.3e-4,-4.1e-4 -0.001,4.1e-4 -0.002,0 -0.39015,-0.29819 -0.86908,-0.34552 -1.32617,-0.24609 -0.0243,-0.11129 -0.0322,-0.19504 -0.0586,-0.31641 -0.19052,-0.87657 -0.231,-1.44659 -0.78321,-2.16406 -0.2761,-0.35874 -0.80805,-0.69507 -1.27148,-0.77539 z m 0.14844,1.03711 0.40429,0.36523 c 0.002,0.011 -0.008,0.0202 -0.006,0.0312 -0.0496,-0.059 -0.12402,-0.0878 -0.18164,-0.14453 -0.10929,-0.0866 -0.0638,-0.18719 -0.21679,-0.25195 z m -2.8418,0.33789 0.0801,0.0664 c -0.093,0.0488 -0.12211,0.0131 -0.24024,0.10547 -0.11283,0.0882 -0.0909,0.22043 -0.17382,0.34766 l 0.31445,-0.0918 0.10547,-0.0273 c -0.10132,0.0222 -0.30546,0.14331 -0.45899,0.20117 -0.0638,0.11063 -0.10194,0.18142 -0.14453,0.29297 -0.009,-0.0291 -0.0442,-0.0404 -0.0508,-0.0703 v -0.006 l -0.0254,-0.1211 c -0.0692,0.0418 -0.0844,0.008 -0.16602,0.0723 -0.23399,0.18287 -0.25426,0.4474 -0.35937,0.72265 -0.008,-0.0282 -0.0424,-0.0393 -0.0488,-0.0684 v -0.006 l -0.13281,-0.61133 0.68555,-0.20313 -0.0859,-0.39648 z m 3.26172,0.043 0.30664,0.27539 c -0.0517,-0.0937 -0.21831,-0.13972 -0.29688,-0.23633 z m 0.42187,4.875 c 0.0615,0.068 0.0565,0.17297 0.13086,0.23046 h 0.002 l 0.52929,0.40821 0.0215,0.0469 0.15039,0.69531 c -0.0828,0.0959 -0.20035,0.14454 -0.30664,0.21485 l -0.1836,-0.14063 -0.002,-0.002 c -0.24303,-0.18796 -0.40483,-0.45825 -0.47852,-0.75586 -0.0473,-0.24458 0.0479,-0.47032 0.13086,-0.69531 0.002,-9.4e-4 0.004,-10e-4 0.006,-0.002 z m 20.55274,7.45117 c -1.17089,0.001 -2.13386,1.03296 -2.05469,2.20117 l 0.0937,1.39844 h 5.19531 l -1.58008,2.73437 h -1.65234 -0.002 c -1.17089,0.001 -2.13386,1.03296 -2.05469,2.20117 l 0.0957,1.39844 h 5.19336 l -3.23047,5.5957 2.98438,-0.36523 c 0.46669,-0.0571 0.7946,-0.41053 1.11719,-0.74023 0.11878,-0.12141 0.32557,-0.12153 0.41211,-0.27149 l 2.7246,-4.72266 c 0.75873,-1.31414 -0.27161,-3.09721 -1.78906,-3.0957 h -0.0801 l 1.86914,-3.23828 c 0.7584,-1.31357 -0.27075,-3.09565 -1.7871,-3.0957 z m -96.736331,9.93554 -1.017578,0.22266 c -0.988101,0.21467 -1.638193,1.22906 -1.421875,2.2168 l 0.34375,1.55664 1.023438,-0.22266 0.105468,0.48828 -0.615234,0.12305 0.699219,0.30664 -0.457031,0.51367 0.560546,-0.0879 0.861329,3.95899 1.808593,-0.39454 c 0.987434,-0.21452 1.638831,-1.22773 1.423828,-2.21484 l -0.0078,-0.0391 c 0.699509,0.13668 1.394758,-0.20336 1.761719,-0.79688 l 1.623047,-0.32617 0.0098,-0.002 c 0.853013,-0.18312 1.421299,-1.06103 1.238281,-1.91406 l -0.002,-0.002 -0.238281,-1.09375 c -0.18312,-0.85301 -1.061028,-1.41934 -1.914062,-1.23633 L 57.779297,320.25 c -0.588387,-0.40148 -1.376715,-0.43638 -1.962891,-0.004 -0.239679,-0.95712 -1.216243,-1.59314 -2.185547,-1.38086 z m 0.1875,0.42969 0.07422,0.33008 c -0.283733,-0.082 -0.554583,-0.2256 -0.857422,-0.16016 z m 6.759766,1.76563 0.152344,0.69336 v 0.006 c -0.05796,-0.27199 -0.2737,-0.4418 -0.449219,-0.64063 z m -3.126953,2.79492 -0.109375,1.01172 -0.585938,-0.40625 -0.121093,-0.55078 c 0.09887,-0.002 0.179175,0.0743 0.279296,0.0527 6.77e-4,-1.5e-4 0.0013,1.5e-4 0.002,0 z"
       id="path191" />
    <g
       id="g195">
      <path
         style="color:#000000;fill:#ffffff;stroke:none;-inkscape-stroke:none"
         d="m 130.54687,302.73828 c -0.42351,-0.0327 -0.71632,0.0344 -0.99804,0.0957 -0.15904,0.0345 -0.23858,0.18612 -0.375,0.26368 -0.49074,-0.0467 -0.80901,0.0285 -1.32227,0.14062 -0.0966,0.0201 -0.1918,0.0429 -0.28711,0.0684 l -0.01,0.002 -0.01,0.002 c -0.7114,0.20003 -1.10891,0.89178 -1.10547,1.61132 l -0.11132,0.0234 0.0586,0.27344 c 2.7e-4,10e-4 -2.8e-4,0.003 0,0.004 v 0.006 l 0.38281,1.74804 0.3711,1.69922 0.0137,0.0527 c 0.22264,0.75697 1.07088,1.31711 1.90625,1.14062 h 0.004 l 0.26758,-0.0586 -0.004,0.0645 0.98633,-0.27734 1.39258,-0.30274 -0.082,-0.11523 c 0.17639,-0.0632 0.34633,-0.10516 0.54883,-0.24805 0.30459,-0.21493 0.59088,-0.59505 0.71875,-0.93359 0.0965,-0.25706 0.16477,-0.80231 0.12109,-1.15235 -0.0441,-0.35361 -0.12401,-0.7117 -0.26367,-1.35351 -0.17636,-0.80957 -0.1807,-1.39235 -0.85938,-2.11719 -0.33933,-0.36242 -0.92023,-0.60404 -1.34375,-0.63672 z m -1.33398,0.34766 0.041,0.004 c -0.0114,-0.001 -0.0181,0.005 -0.0293,0.004 -0.005,-5.1e-4 -0.007,-0.007 -0.0117,-0.008 z m 2.4043,1.27343 0.0469,0.0723 c -0.006,-0.009 -0.0156,-0.007 -0.0215,-0.0156 -0.0173,-0.026 -0.005,-0.0284 -0.0254,-0.0566 z m 0.0508,3.17188 -0.006,0.084 c 0.003,-0.0249 -0.01,-0.0352 -0.008,-0.0586 5.2e-4,-0.006 0.0133,-0.0192 0.0137,-0.0254 z"
         id="path193" />
    </g>
    <g
       id="g199">
      <path
         style="color:#000000;fill:#ffffff;stroke:none;-inkscape-stroke:none"
         d="m 140.78711,331.37305 -3.17969,0.99218 c -0.33708,0.10551 -0.49615,0.45042 -0.76562,0.66797 -0.0782,0.0336 -0.19053,0.0762 -0.21485,0.0879 l 0.0527,0.0527 c -0.24815,0.23483 -0.60679,0.34329 -0.75586,0.6582 l -1.81641,3.83594 3.17969,-1.5332 c 0.0105,0.14355 -0.0774,0.27753 -0.0273,0.41796 l 1.40234,4.11524 0.002,0.006 c 0.29647,0.8458 1.23988,1.31616 2.08985,1.05859 l 1.36132,-0.41601 c 0.0994,-0.0294 0.13309,-0.14126 0.22266,-0.1875 l -1.43555,3.00586 3.84961,-1.86133 c 0.31391,-0.15177 0.45437,-0.47401 0.6836,-0.72071 l 0.0176,0.0176 c 0.006,-0.0116 -0.003,-0.0274 0.002,-0.0391 0.66157,-0.72723 1.06211,-1.67091 0.72656,-2.66016 l -0.33789,-0.99804 -0.002,-0.002 c -0.16519,-0.48648 -0.55738,-0.80228 -1.01368,-0.97851 l 0.45313,-2.04297 v -0.002 c 0.17459,-0.76759 -0.34571,-1.34475 -1.00781,-1.67383 -5.9e-4,-2.9e-4 -10e-4,2.9e-4 -0.002,0 -0.35685,-0.17687 -0.7134,-0.40539 -1.11718,-0.27539 l 0.008,-0.002 0.6875,-0.21679 c -0.65907,-1.04117 -1.84147,-1.68778 -3.0625,-1.30664 z m 2.70312,1.83007 0.1836,0.57032 c -0.001,-6.6e-4 -0.003,-10e-4 -0.004,-0.002 -0.0717,-0.21932 -0.30097,-0.30423 -0.41992,-0.49218 z m -2.60546,1.69532 0.50195,1.55468 -0.0742,0.33399 -0.62305,-1.82813 z m 0.85351,3.77734 c 0.0503,0.0513 0.0992,0.0988 0.14063,0.1582 l 0.81054,1.56055 -0.14258,0.29688 c -0.0533,0.0272 -0.071,0.0957 -0.1289,0.11523 z"
         id="path197" />
    </g>
    <g
       id="g203">
      <path
         style="color:#000000;fill:#ffffff;stroke:none;-inkscape-stroke:none"
         d="m 69.009766,355.4043 -6.089844,1.77539 h -0.002 c -0.923367,0.27018 -1.474155,1.27496 -1.207032,2.19922 v 0.006 l 0.462891,1.56054 5.900391,-1.71875 1.691406,5.80664 1.888672,-0.54687 h 0.002 c 0.923367,-0.27018 1.476108,-1.27692 1.208984,-2.20117 v -0.002 l -1.654297,-5.66992 c -0.270177,-0.92337 -1.274963,-1.47611 -2.199218,-1.20898 z m 0.972656,7.71093 0.002,0.006 -0.002,-0.002 c -3.8e-4,-0.001 3.74e-4,-0.003 0,-0.004 z"
         id="path201" />
    </g>
  </g>
  <g
     id="g219"
     style="fill:none"
     transform="rotate(-90,86.620474,85.111981)">
    <g
       fill="#da2b27"
       id="g213"
       style="stroke:#ffffff;stroke-width:3">
      <path
         style="color:#000000;fill:#ffffff;stroke:none;-inkscape-stroke:none"
         d="m 67.621094,184.89648 c -0.995768,-0.0556 -1.933002,0.48567 -2.431641,1.16407 -0.49897,0.67885 -0.693695,1.45693 -0.675781,2.24023 0.02709,1.21114 0.05858,2.42168 0.0957,3.63281 v 0.0137 l 0.002,0.0137 c 0.01663,0.34507 0.257993,0.62937 0.359375,0.96093 l -0.314453,-0.0176 0.05859,1.64453 c 0.09034,2.51758 0.205419,5.03293 0.339843,7.54687 l 0.07227,1.34571 1.345703,0.0723 c 0.468678,0.0248 0.938843,0.05 1.414063,0.0762 l 1.669922,0.0918 -0.01953,-0.36133 c 0.329539,0.12251 0.578086,0.39327 0.945313,0.41406 l 0.917969,0.0508 c 1.772305,0.099 3.372339,-1.4284 3.283203,-3.21485 -0.06396,-1.27176 -0.122806,-2.54414 -0.175782,-3.8164 -0.03309,-0.77731 -0.270999,-1.53047 -0.755859,-2.18946 -0.05945,-0.0808 -0.166994,-0.13537 -0.236328,-0.21289 0.09343,-0.0951 0.239348,-0.14866 0.310547,-0.25586 0.469405,-0.70672 0.530446,-1.42795 0.509765,-2.09179 -0.03504,-1.13092 -0.06572,-2.26143 -0.0918,-3.39258 v -0.002 c -0.01859,-0.77844 -0.245043,-1.53641 -0.722657,-2.20312 -0.477614,-0.66671 -1.304681,-1.25119 -2.300781,-1.30664 h -0.002 l -1.294922,-0.0703 v -0.006 l -2.300781,-0.12696 z m 2.86914,2.05664 0.03906,0.002 0.699219,0.0371 -0.201172,0.19531 c -0.191665,-0.0591 -0.329168,-0.22852 -0.53711,-0.23438 z"
         id="path207" />
      <g
         id="g211">
        <path
           style="color:#000000;fill:#ffffff;stroke:none;-inkscape-stroke:none"
           d="m 66.976562,102.80859 c -0.454269,-0.0113 -1.20816,0.24681 -1.564453,0.81836 l -0.0059,0.01 -0.0059,0.008 c -0.162003,0.268 -0.260154,0.56972 -0.294922,0.88086 -0.04621,0.31155 -0.08337,0.6204 -0.105469,0.92774 v 0.004 0.002 c -0.01678,0.24584 -0.04353,0.49145 -0.08008,0.73829 -0.03983,0.22426 -0.08631,0.44871 -0.140625,0.66992 -0.07175,0.28789 -0.130465,0.57454 -0.179688,0.85742 -0.07279,0.37913 -0.04221,0.772 0.08984,1.13477 l 0.0039,0.0117 0.0059,0.0137 c 0.05207,0.13538 0.248118,0.14189 0.349609,0.26367 -0.157018,0.0927 -0.327882,0.0517 -0.449219,0.19922 l -0.01172,0.0156 -0.01172,0.0156 c -0.224845,0.28836 -0.363537,0.63452 -0.402344,0.99804 -0.06035,0.43282 -0.112182,0.86938 -0.150391,1.31446 -0.03431,0.39872 -0.07923,0.79251 -0.132812,1.18164 -0.0401,0.25951 -0.08649,0.51843 -0.140625,0.77539 v 0.002 0.002 c -0.05948,0.28633 -0.109226,0.57191 -0.154297,0.85743 -0.04094,0.19816 0.0092,0.39723 0.02344,0.59765 -0.07289,0.19302 -0.162442,0.38124 -0.179688,0.58789 -0.03582,0.27089 -0.06748,0.54112 -0.0918,0.8086 v 0.002 0.002 c -0.02152,0.2466 -0.04873,0.49449 -0.08008,0.73828 -0.03236,0.21468 -0.07231,0.42837 -0.119141,0.63868 -0.06386,0.27903 -0.116017,0.56062 -0.158203,0.84375 v 0.002 c -0.05785,0.38964 -0.006,0.78694 0.150391,1.14844 0.0048,0.011 0.02417,0.0106 0.0293,0.0215 -0.01133,0.0174 -0.04443,0.0257 -0.05469,0.043 -0.189519,0.31856 -0.251393,0.60324 -0.287109,0.85937 l -0.0059,0.0371 -0.0039,0.0352 c -0.01912,0.21201 0.173544,0.42498 0.222657,0.66016 h -0.01172 l 0.01563,0.0117 c 0.07385,0.34509 0.10163,0.68877 0.326172,0.96875 -0.23042,0.11185 -0.481161,0.0918 -0.640625,0.29687 l -0.0078,0.0117 -0.0098,0.0117 c -0.225879,0.30233 -0.359635,0.663 -0.390625,1.03906 -0.04129,0.38783 -0.06767,0.78048 -0.07422,1.17578 -0.0058,0.31178 -0.02709,0.62336 -0.05859,0.9336 -0.04353,0.32323 -0.09629,0.64616 -0.164062,0.96679 v -0.008 c -0.08566,0.3951 -0.152187,0.79215 -0.203125,1.18945 -2.08e-4,0.001 2.05e-4,0.003 0,0.004 -0.05345,0.33734 -0.01683,0.68087 0.08008,1.00781 -0.140611,0.25144 -0.269232,0.514 -0.292969,0.80274 -0.03318,0.37193 -0.05192,0.75071 -0.05078,1.13671 8.4e-4,0.28556 -0.01398,0.57701 -0.03906,0.87696 -0.03663,0.32958 -0.08215,0.66037 -0.136719,0.99414 -0.0603,0.36886 -0.108826,0.7381 -0.15039,1.10547 -0.04094,0.26059 -0.05407,0.52547 -0.04492,0.78906 0.0084,0.34138 0.117346,0.80494 0.439453,1.17578 0.300124,0.34553 0.708367,0.49435 1.039063,0.56055 -0.6137,0.56274 -1.21188,1.15392 -1.566407,1.91211 -0.438908,0.9152 -0.707062,1.90231 -0.789062,2.91406 -0.09055,1.12739 -0.0438,2.26211 0.134765,3.37891 0.01044,0.0782 0.0383,0.15335 0.05273,0.23046 -0.02091,0.0323 -0.066,0.042 -0.08398,0.0762 l -0.0078,0.0117 -0.0059,0.0137 c -0.143153,0.28569 -0.221154,0.60045 -0.226563,0.91992 -2.2e-5,0.001 1.9e-5,0.003 0,0.004 -0.01647,0.30752 -0.02111,0.61636 -0.01367,0.92774 0.0059,0.24796 -5.14e-4,0.49672 -0.01367,0.74805 -0.01662,0.21332 -0.0414,0.43238 -0.07617,0.66015 -0.04523,0.29624 -0.07868,0.59427 -0.101562,0.89258 -0.02946,0.35946 0.03464,0.75443 0.189453,1.08984 l 0.0059,0.01 0.0059,0.0117 c 0.06099,0.12686 0.25159,0.13296 0.357422,0.24609 -0.130761,0.0937 -0.280904,0.0459 -0.38086,0.1836 l -0.01367,0.0195 -0.01367,0.0195 c -0.214691,0.31681 -0.330879,0.69154 -0.332032,1.07422 -2e-6,6.3e-4 2e-6,0.001 0,0.002 -0.01905,0.42837 -0.02844,0.85991 -0.02539,1.29883 0.0028,0.39615 -0.0054,0.79044 -0.02148,1.18359 -0.01621,0.26013 -0.03854,0.52038 -0.06836,0.7793 -0.03318,0.28655 -0.05771,0.57266 -0.07617,0.86133 -1.47e-4,0.001 1.44e-4,0.003 0,0.004 -0.0393,0.35461 0.0088,0.71259 0.138672,1.04493 l 0.01172,0.0312 0.01367,0.0293 c 0.282983,0.64009 1.056082,1.01167 1.52539,1.05078 l 0.06055,0.006 h 0.06445 l -0.07031,-0.002 c 0.401511,0.0188 1.126823,-0.1223 1.552734,-0.7168 l 0.01953,-0.0273 0.01953,-0.0273 c 0.0661,-0.10148 0.07149,-0.22738 0.11914,-0.3379 0.02834,0.001 0.02161,-0.004 0.05273,-0.002 l 0.04687,0.002 7.878906,0.0371 -0.08398,-0.004 c 0.377281,0.0229 0.739672,0.0142 1.119141,-0.0684 h 0.002 l 0.002,-0.002 c 0.463834,-0.102 0.945078,-0.45881 1.179688,-0.83985 0.23461,-0.38104 0.294302,-0.7335 0.316406,-1.04297 l 0.002,-0.0351 0.002,-0.0332 c 0.0025,-0.10119 -0.119199,-0.21518 -0.130859,-0.32617 l 0.365234,0.008 -0.521484,-0.39843 c -0.10199,-0.37677 -0.101524,-0.77025 -0.425781,-1.0625 l -0.002,-0.004 -0.0039,-0.002 c -0.220513,-0.19617 -0.455147,-0.37899 -0.699218,-0.54492 l 0.08789,0.0644 c -1.671529,-1.32007 -3.338807,-2.64694 -5.005859,-3.97266 0.119972,-0.0937 0.287969,-0.0708 0.36914,-0.18945 l 0.0059,-0.008 0.0039,-0.008 c 0.205106,-0.30861 0.319572,-0.66877 0.332031,-1.03906 0.02258,-0.40888 0.03352,-0.81831 0.0293,-1.23047 -0.0036,-0.3552 0.0066,-0.71047 0.0293,-1.06836 0.02795,-0.326 0.0657,-0.6541 0.115234,-0.98047 0.05951,-0.39319 0.106468,-0.78372 0.142579,-1.17187 0.03741,-0.341 -3.73e-4,-0.68516 -0.111329,-1.00977 v -0.002 c -0.08088,-0.23656 -0.29082,-0.4319 -0.49414,-0.62109 0.45449,0.25826 0.889092,0.55259 1.240234,0.9414 0.387717,0.44069 0.729661,0.99925 1.013672,1.70508 0.164306,0.40833 0.159641,0.7526 0.207031,1.11524 -0.305614,-0.008 -0.613278,0.007 -0.902343,0.10937 l -0.0078,0.004 -0.0098,0.004 C 68.544973,145.67372 68.059267,146.46934 68,147.00586 l -0.0098,0.0859 v 0.0859 c 0.0034,0.64381 0.467099,1.41034 0.998047,1.72266 l 0.002,0.002 c 0.24432,0.14288 0.506899,0.26828 0.798828,0.36133 l -0.103515,-0.0371 c 0.137779,0.0554 0.392311,0.15554 0.794922,0.31055 l 0.0039,0.002 h 0.0039 c 0.415562,0.15752 0.579564,0.23659 0.947266,0.32227 l 1.839844,0.42969 v -1.29493 c 0.141871,-0.22781 0.271314,-0.45358 0.332031,-0.66015 0.118779,-0.40411 0.199217,-0.82338 0.246094,-1.25391 0.03739,-0.34436 0.0583,-0.55644 0.06836,-0.76953 0.10252,-1.4875 -0.08403,-3.0297 -0.535156,-4.60938 v -0.002 c -0.230806,-0.80793 -0.539296,-1.57298 -0.919922,-2.28906 l 0.183594,-2.64844 -0.04687,2.96289 c 0.01359,4.4e-4 0.0328,-0.0195 0.04687,-0.0195 v 0.0195 h 0.002 l 0.002,-0.0215 c 0.394715,-0.002 0.962306,-0.15839 1.314453,-0.53711 l 0.0059,-0.006 0.0078,-0.006 c 0.283062,-0.31178 0.451293,-0.7125 0.476562,-1.13281 0.01235,-0.16448 0.01953,-0.33179 0.01953,-0.50196 0,-0.14783 -0.0028,-0.29333 -0.0059,-0.4375 v -0.002 c -2.7e-5,-0.001 2.8e-5,-0.003 0,-0.004 -0.005,-0.29428 0.0028,-0.594 0.02539,-0.89843 l 0.002,-0.006 v -0.004 c 0.02283,-0.33383 0.05171,-0.66626 0.08594,-0.99805 0.02485,-0.22466 0.05456,-0.44803 0.0918,-0.66796 0.04673,-0.27606 0.08818,-0.55976 0.119141,-0.84961 0.04153,-0.37438 -0.06941,-0.7391 -0.228516,-1.07813 0.0053,-0.006 0.0143,-0.002 0.01953,-0.008 l 0.01172,-0.0137 0.0098,-0.0117 c 0.253771,-0.30811 0.404583,-0.68952 0.429687,-1.08789 0.02977,-0.31436 0.05948,-0.6395 0.08008,-0.97656 v -0.01 c 0.0201,-0.29979 0.04624,-0.59909 0.07617,-0.89648 0.02996,-0.18777 0.06422,-0.41835 0.109375,-0.73438 v -0.004 c 0.07088,-0.48325 0.224254,-0.95289 -0.263671,-1.71875 l -0.134766,-0.21093 -0.197266,-0.15625 c -0.06411,-0.0511 -0.133827,-0.0931 -0.203125,-0.13672 -0.0371,-0.0234 -0.07092,-0.0511 -0.109375,-0.0723 0.03074,0.0169 0.05973,0.0357 0.08789,0.0566 -0.77395,-0.59496 -1.545234,-1.19303 -2.318359,-1.78906 l 1.77539,0.0527 -0.142578,-0.0117 c 0.218719,0.0273 0.4469,0.0375 0.699219,0.004 0.410398,-0.0547 0.881069,-0.34145 1.117187,-0.66015 0.236119,-0.31871 0.300017,-0.60525 0.333985,-0.83008 l 0.0039,-0.0234 0.0039,-0.0234 c 0.04341,-0.36798 0.08136,-0.73698 0.117188,-1.10547 0.03102,-0.31909 0.0731,-0.63709 0.125,-0.95312 l 0.0039,-0.0176 c 2.11e-4,-0.001 -2.11e-4,-0.003 0,-0.004 0.03307,-0.18295 0.06731,-0.36421 0.103516,-0.53907 0.04379,-0.21146 0.07905,-0.42005 0.109375,-0.6289 0.0555,-0.31263 0.05197,-0.6323 -0.01172,-0.94336 v -0.004 l -0.002,-0.006 c -0.07127,-0.33718 -0.294965,-0.749 -0.617188,-1.00586 -0.322222,-0.25686 -0.667535,-0.35088 -0.933594,-0.38281 l -0.195312,-0.0234 -0.195313,0.0273 c -0.44884,0.0639 -0.97097,0.34605 -1.271484,0.73046 -0.01818,0.0233 -0.01056,0.045 -0.02734,0.0684 -0.932641,-0.40442 -1.865552,-0.80999 -2.798828,-1.21289 -0.991316,-0.42801 -1.976861,-0.86735 -2.957031,-1.32031 l -0.0293,-0.0137 -0.0293,-0.0117 c -0.188482,-0.0776 -0.154561,-0.0627 -0.220703,-0.10156 -0.0012,-0.0576 -0.02783,-0.11078 -0.0332,-0.16797 0.02182,0.001 0.01772,-0.004 0.04102,-0.002 l 0.04883,0.004 7.873047,0.0352 -0.08984,-0.002 c 0.383769,0.0247 0.752586,0.0106 1.123047,-0.0684 h 0.002 c 0.451984,-0.0969 0.903586,-0.4152 1.148437,-0.75977 0.244852,-0.34457 0.33564,-0.67793 0.386719,-0.97852 l 0.0078,-0.0391 0.0039,-0.0371 c 0.01572,-0.13385 -0.02435,-0.30386 -0.0332,-0.45898 l 0.201172,0.004 -0.212891,-0.17382 c -0.05453,-0.43423 -0.186097,-0.88627 -0.558594,-1.24805 v -0.002 h -0.002 c -0.208921,-0.20168 -0.432779,-0.38828 -0.667969,-0.5586 l 0.0918,0.0703 c -2.082907,-1.76996 -4.161278,-3.54311 -6.236328,-5.32227 l -1.074219,-0.92188 -0.02734,-0.0215 c -0.12077,-0.0944 -0.229051,-0.2028 -0.335938,-0.3125 8.76e-4,-0.19832 0.01055,-0.39798 -0.02344,-0.59375 l -0.0039,-0.0117 -0.002,-0.0117 c -0.07173,-0.37595 -0.321305,-0.82544 -0.666015,-1.08984 -0.344711,-0.26441 -0.704956,-0.35265 -0.992188,-0.38281 l -0.05859,-0.006 z m 1.814454,2.26758 c 5.4e-4,0.0105 0.01008,0.0187 0.0098,0.0293 l -0.0059,0.0898 c 0.0036,-0.0397 -0.0061,-0.0794 -0.0039,-0.11914 z m -0.953125,4.07813 c 0.05326,0.041 0.07082,0.0562 0.11914,0.0937 -0.0481,0.31057 -0.09706,0.62097 -0.144531,0.93164 -0.05591,-0.001 -0.112067,-0.002 -0.167969,-0.004 -0.03736,-0.19653 -0.06342,-0.37006 -0.171875,-0.56055 0.0274,-0.0203 0.06379,-0.0112 0.08984,-0.0332 0.151563,-0.12795 0.180218,-0.28062 0.275391,-0.42773 z m -2.947266,2.39843 c 1.95e-4,9.8e-4 0.0018,9.8e-4 0.002,0.002 5.25e-4,0.003 -5.3e-4,0.005 0,0.008 z m 2.314453,3.68555 -0.03711,0.14649 c 0.0032,-0.0103 -0.04003,0.0302 -0.03906,0.0254 0.01786,-0.0606 0.06358,-0.10972 0.07617,-0.17188 z m -0.07813,0.63281 c -0.0019,-0.0179 0.0143,0.0271 0.01367,0.006 v 0.0606 c 2.34e-4,-0.0228 -0.01324,-0.0436 -0.01367,-0.0664 z m 8.589844,4.0918 -0.002,0.01 c -3.3e-5,2.5e-4 -0.0096,0.0202 -0.0098,0.0215 0.0013,-0.01 0.01055,-0.0217 0.01172,-0.0312 z m -3.033203,1.62695 c 0.137796,0.0596 0.289166,0.0738 0.433593,0.11329 -0.0048,0.0437 -0.01116,0.0871 -0.01563,0.13085 l -0.474609,-0.0137 z m -1.044922,6.59961 c 0.172125,0.13249 0.343459,0.26601 0.515625,0.39844 l -0.625,-0.19531 z m -6.533203,1.3418 c 0.06152,0.019 0.130774,0.0375 0.1875,0.0566 l 0.01758,0.006 6.103515,1.9043 c 0.01617,0.0992 0.0071,0.20153 0.0332,0.29882 1.68e-4,6.3e-4 -1.69e-4,0.001 0,0.002 0.03148,0.1165 0.162486,0.2066 0.230468,0.31836 -0.05802,0.0564 -0.151099,0.0499 -0.199218,0.11328 l -6.00586,-2.11328 -0.04102,-0.0137 c -0.05657,-0.0163 -0.11019,-0.042 -0.166016,-0.0606 -0.0081,-0.0675 -0.0094,-0.13586 -0.01953,-0.20313 -0.01339,-0.0934 -0.109976,-0.20345 -0.140625,-0.30664 -1.62e-4,-5.4e-4 1.62e-4,-0.001 0,-0.002 z m 0.197265,0.87695 c -6e-6,-8e-5 0.002,0.002 0.002,0.002 l 0.0098,0.10937 c -0.0018,-0.0373 -0.0093,-0.0741 -0.01172,-0.11133 z m 6.044922,0.46485 c -0.0022,0.046 0.01571,0.0907 0.01563,0.13672 -1.3e-5,7.8e-4 -0.01763,-0.0255 -0.01758,-0.0234 z m -5.667969,10.0332 c 0.18022,0.012 0.34082,0.10742 0.517579,0.14062 -0.321587,0.0479 -0.68376,0.12341 -0.970704,0.38672 -0.161163,0.1479 -0.172869,0.31455 -0.261718,0.48243 -0.08098,-0.0273 -0.08283,-0.0172 -0.175782,-0.0527 h -0.002 c -0.200151,-0.0763 -0.399971,-0.15481 -0.599609,-0.23242 0.06779,-0.11661 0.0887,-0.34719 0.197266,-0.42383 0.308615,-0.21784 0.673454,-0.33273 1.294921,-0.30078 z m -2.433593,9.65234 c 0.101163,0.0729 0.139666,0.102 0.224609,0.16407 -0.01753,0.28514 -0.03371,0.5703 -0.05078,0.85546 -0.04364,-0.001 -0.08723,-0.002 -0.13086,-0.004 -0.05003,-0.22506 -0.107033,-0.4357 -0.248046,-0.64649 0.123355,-0.11354 0.12447,-0.2424 0.205078,-0.36914 z m 0.01758,5.95118 -0.02539,0.1582 c 0.0017,-0.008 -0.0408,0.0341 -0.04102,0.0312 0.01346,-0.0662 0.05929,-0.12197 0.06641,-0.18945 z"
           id="path209" />
      </g>
    </g>
    <g
       fill="#e3e7e6"
       id="g217"
       style="stroke:#ffffff;stroke-width:3">
      <path
         style="color:#000000;fill:#ffffff;stroke:none;-inkscape-stroke:none"
         d="m 63.757812,158.5918 c -2.217637,-0.12527 -4.19767,1.58753 -4.263671,3.82031 -0.05515,1.84105 -0.09971,3.68381 -0.132813,5.52539 -0.01744,0.96739 0.35758,1.82399 0.916016,2.5332 l -0.966797,-0.0547 -0.01367,1.57226 c -0.02492,2.68007 -0.02614,5.36093 -0.0039,8.04102 0.02014,2.36206 1.937762,4.24419 4.283203,4.375 l 4.75,0.26562 c 2.345744,0.13083 4.408878,-1.73393 4.386719,-4.08594 -0.02492,-2.66138 -0.02679,-5.32388 -0.0059,-7.98828 l 0.01172,-1.42968 -1.203125,-0.0684 c 0.746164,-0.69454 1.237035,-1.6582 1.255859,-2.7461 v -0.002 c 0.02989,-1.75476 0.07124,-3.51068 0.121094,-5.26758 v -0.002 c 0.05581,-2.03871 -1.465198,-3.70065 -3.425781,-4.06641 -0.02125,-0.0114 -0.06835,-0.0371 -0.06836,-0.0371 0,0 -0.0057,0.0172 -0.0059,0.0176 -0.150172,-0.0251 -0.280627,-0.10261 -0.435547,-0.11133 l 0.136719,0.0625 c 0.114977,0.033 0.153637,0.0443 0.285156,0.082 -0.001,0.003 -0.01193,0.0344 -0.01367,0.0391 l 0.5,0.22265 c 0.09976,0.0909 0.199235,0.18166 0.199219,0.18164 0,0 -1.066115,0.81424 -1.148437,0.87696 l 0.002,-0.0898 c -0.0074,0.0197 -0.04687,0.12305 -0.04687,0.12305 3e-6,0 -0.03885,0.0549 -0.04297,0.0605 l 0.04297,-1.56055 c -2.7e-5,0 0.06932,0.0206 0.08594,0.0254 v -0.0234 h -0.002 z m 5.865235,0.50586 c 0.0044,0.001 0.04297,0.0117 0.04297,0.0117 -5e-6,0 0.02378,0.0221 0.02734,0.0254 -0.02019,-0.0109 -0.03763,-0.0195 -0.07031,-0.0371 z m -4.859375,5.01562 2.550781,0.14453 c -0.02043,0.78625 -0.03858,1.57303 -0.05469,2.35938 l -1.392579,-0.0781 -0.0039,0.22266 -1.160156,-0.0664 c 0.01799,-0.86087 0.03799,-1.72117 0.06055,-2.58203 z m 5.011719,4.01172 c -0.001,0.058 -0.0029,0.11588 -0.0039,0.17383 -0.0089,0.51293 -0.371349,0.84484 -0.947265,0.86328 6.9e-5,-0.005 -7e-5,-0.009 0,-0.0137 0.447661,-0.25491 0.706667,-0.57299 0.951172,-1.02344 z m -5.179688,8.04687 2.787109,0.15625 c 4.2e-5,0.93223 -2.5e-5,1.86483 0.0059,2.79688 l -2.748047,-0.1543 c -0.02283,-0.001 -0.04338,-0.0626 -0.04297,0.0156 v -0.002 c -0.0057,-0.93709 -0.0022,-1.87458 -0.002,-2.8125 z m 4.787109,5.21485 c -0.01785,0.0163 -0.05312,0.0103 -0.07227,0.0254 0.02013,-0.0164 0.05258,-0.008 0.07227,-0.0254 z"
         id="path215" />
    </g>
  </g>
</svg>
