<?xml version="1.0" encoding="UTF-8" standalone="no"?>
<svg
   viewBox="-6 246.3 592.61794 300.60383"
   version="1.1"
   id="svg1726"
   sodipodi:docname="amiga1200_controller.svg"
   inkscape:version="1.1.2 (0a00cf5339, 2022-02-04)"
   width="592.61792"
   height="300.60382"
   xmlns:inkscape="http://www.inkscape.org/namespaces/inkscape"
   xmlns:sodipodi="http://sodipodi.sourceforge.net/DTD/sodipodi-0.dtd"
   xmlns="http://www.w3.org/2000/svg"
   xmlns:svg="http://www.w3.org/2000/svg">
  <defs
     id="defs1730" />
  <sodipodi:namedview
     id="namedview1728"
     pagecolor="#ffffff"
     bordercolor="#666666"
     borderopacity="1.0"
     inkscape:pageshadow="2"
     inkscape:pageopacity="0.0"
     inkscape:pagecheckerboard="true"
     showgrid="false"
     inkscape:zoom="0.68014837"
     inkscape:cx="38.962087"
     inkscape:cy="-68.367436"
     inkscape:window-width="2560"
     inkscape:window-height="1409"
     inkscape:window-x="1920"
     inkscape:window-y="0"
     inkscape:window-maximized="1"
     inkscape:current-layer="svg1726"
     fit-margin-top="0"
     fit-margin-left="0"
     fit-margin-right="0"
     fit-margin-bottom="0" />
  <path
     style="color:#000000;fill:#ffffff;fill-opacity:1;stroke:#ffffff;stroke-width:1;stroke-miterlimit:4.02857;stroke-dasharray:none;stroke-opacity:1"
     d="m -1.3651649,246.80016 c -1.3021276,0 -2.4593223,0.10855 -3.2997416,1.01768 -0.8404194,0.90919 -0.8249354,1.95493 -0.8249354,3.03888 v 135.8165 c 0,1.34074 -0.1268801,2.19641 0.5604994,3.19436 0.3436948,0.49897 0.9587328,0.83444 1.4429123,0.94698 0.4841895,0.11261 0.8899798,0.11029 1.3365741,0.11029 H 4.7284275 583.17157 c 0.75811,0 1.44374,0.0929 2.22186,-0.57669 0.38905,-0.3348 0.59278,-0.81917 0.66109,-1.16184 0.0683,-0.34267 0.0633,-0.60205 0.0633,-0.86785 v -10.9258 c 0,-0.30583 -0.1348,-1.06445 -0.69847,-1.51802 -0.56368,-0.45357 -1.15039,-0.50883 -1.75621,-0.50883 h -5.11345 v -92.03128 h 2.26211 c 0.20705,0 0.40157,4.1e-4 0.67547,-0.0509 0.2739,-0.0514 0.71161,-0.20215 1.03475,-0.56536 0.32317,-0.36323 0.40383,-0.75905 0.43116,-0.98941 0.0274,-0.23035 0.0202,-0.37514 0.0202,-0.52014 v -28.03115 c 0,-2.79519 -1.71812,-4.61646 -3.27961,-5.44453 -1.56149,-0.82808 -3.08992,-0.93005 -3.08992,-0.93005 l -0.0576,-0.003 z m 0,2.8947 H 576.391 c 0.0174,9.9e-4 0.96928,0.0914 1.9057,0.58799 0.94492,0.50111 1.73322,1.14654 1.73322,2.89471 v 27.26225 h -2.16726 c -0.48416,0 -1.11702,0.0159 -1.69011,0.5795 -0.57309,0.56361 -0.56624,1.2053 -0.56624,1.54347 v 95.69771 h 7.56813 v 9.77244 c -0.007,6e-5 0.004,-0.003 -0.003,-0.003 H 4.7283675 -2.1499161 c -0.2071885,0 -0.2365869,-0.009 -0.350672,-0.0169 0.058777,0.0152 -0.045982,-0.25589 -0.045982,-1.33988 V 250.85672 c 0,-0.9461 0.1635956,-1.20569 0.060376,-1.094 -0.1032394,0.11174 0.064175,-0.0679 1.1209889,-0.0679 z"
     id="path1294" />
  <path
     style="color:#000000;fill:#ffffff;fill-opacity:1;stroke:#ffffff;stroke-width:1;stroke-miterlimit:4.02857;stroke-dasharray:none;stroke-opacity:1"
     d="m 5.0920194,312.38385 c -2.01805,0 -3.5478,0.45077 -4.38509002,1.6275 -0.83729,1.17675 -0.72749,2.40345 -0.72749,3.48507 V 391.9308 H 2.9239194 v -74.43438 c 0,-1.08162 0.11177,-1.67548 0.18403,-1.77703 0.0722,-0.10159 0.36393,-0.39106 1.98407,-0.39106 H 577.07441 v -2.94448 z"
     id="path1296" />
  <path
     style="color:#000000;fill:#ffffff;fill-opacity:1;stroke:#ffffff;stroke-width:1;stroke-miterlimit:4.02857;stroke-dasharray:none;stroke-opacity:1"
     d="m 5.0920194,312.48449 c -2.30984,0 -3.86976,1.37035 -4.50011002,2.63104 -0.63035,1.26071 -0.61247,2.47866 -0.61247,2.47866 v 218.88064 c 0,2.15939 0.28217,4.52603 1.51249002,6.51581 1.23033,1.98979 3.55603,3.41318 6.74585,3.41318 H 574.71366 c 3.2323,0 5.5695,-1.42492 6.78897,-3.42179 1.21947,-1.99689 1.46937,-4.35978 1.46937,-6.5072 V 317.59419 c 0,-1.92025 -1.37581,-3.13479 -2.45566,-3.87901 -1.07984,-0.74422 -2.1336,-1.1358 -2.1336,-1.1358 l -0.25303,-0.095 z m 0,2.94448 H 577.52012 c 0.15202,0.0618 0.67533,0.26209 1.32559,0.71024 0.73925,0.50948 1.18181,1.11366 1.18181,1.45498 v 218.88064 c 0,1.8841 -0.29093,3.75116 -1.03805,4.97457 -0.74712,1.2234 -1.80501,2.00994 -4.27581,2.00994 H 8.2377794 c -2.41496,0 -3.48047,-0.78806 -4.24131,-2.01857 -0.76085,-1.2305 -1.07255,-3.09381 -1.07255,-4.96594 V 317.59419 c 0,0 0.0199,-0.60329 0.29905,-1.16168 0.27919,-0.55841 0.5407,-1.00354 1.86905,-1.00354 z"
     id="path1298" />
  <path
     style="color:#000000;fill:#ffffff;fill-opacity:1;stroke:#ffffff;stroke-width:1;stroke-miterlimit:4.02857;stroke-dasharray:none;stroke-opacity:1"
     d="m 13.154829,349.75056 c -0.5647,0 -1.10204,0.19626 -1.52112,0.61534 -0.41908,0.41907 -0.70121,1.20603 -0.46583,1.91219 l -0.0748,-0.46582 v 23.00949 c 0,0.47466 0.14944,0.96892 0.51759,1.38311 0.36814,0.41417 0.9794,0.6786 1.54412,0.6786 h 22.51779 c 0.47467,0 0.96894,-0.15231 1.38311,-0.52045 0.41416,-0.36817 0.67861,-0.97654 0.67861,-1.54126 v -23.00949 c 0,-0.47466 -0.15231,-0.96894 -0.52047,-1.38311 -0.36815,-0.41417 -0.97654,-0.6786 -1.54125,-0.6786 z m 36.47819,0 c -0.5647,0 -1.17309,0.26443 -1.54125,0.6786 -0.36816,0.41417 -0.52046,0.90845 -0.52046,1.38311 v 23.00949 c 0,0.47466 0.15231,0.96892 0.52046,1.38311 0.36815,0.41417 0.97653,0.6786 1.54125,0.6786 H 198.30911 c 0.47465,0 0.96893,-0.15231 1.3831,-0.52045 0.41417,-0.36817 0.67861,-0.97654 0.67861,-1.54126 v -23.00949 c 0,-0.47466 -0.1523,-0.96894 -0.52047,-1.38311 -0.36816,-0.41417 -0.97655,-0.6786 -1.54124,-0.6786 z m 158.901251,0 c -0.5647,0 -1.17309,0.26443 -1.54126,0.6786 -0.36814,0.41419 -0.52045,0.90848 -0.52045,1.38311 v 23.00949 c 0,0.47463 0.15232,0.96892 0.52045,1.38311 0.36815,0.41417 0.97654,0.6786 1.54126,0.6786 h 149.06715 c 0.47468,0 0.97181,-0.15231 1.38598,-0.52045 0.41416,-0.36815 0.67861,-0.97654 0.67861,-1.54126 v -23.00949 c 0,-0.47466 -0.15231,-0.96894 -0.52046,-1.38311 -0.36815,-0.41416 -0.97942,-0.6786 -1.54413,-0.6786 z m -194.496671,2.94448 h 20.75226 v 21.24395 h -20.75226 z m 36.47819,0 H 197.42634 v 21.24395 H 50.515789 Z m 158.901251,0 h 147.30449 v 21.24395 H 209.41704 Z M 12.760889,387.21503 c -0.47466,0 -0.96893,0.14945 -1.3831,0.51758 -0.41416,0.36815 -0.67861,0.97941 -0.67861,1.54413 v 94.68917 c 0,0.47465 0.14943,0.97181 0.51759,1.38597 0.36815,0.41417 0.97942,0.67861 1.54412,0.67861 h 16.02786 c 0.47598,0 0.59133,0.0954 0.61248,0.11219 0.0211,0.0166 0.0293,0.0147 0.0546,0.12367 0.0507,0.21851 -0.0173,0.63834 -0.0173,0.63834 l -0.0575,0.19842 v 20.9564 c 0,0.47467 0.15232,0.96893 0.52046,1.38311 0.36815,0.41417 0.97653,0.6786 1.54125,0.6786 H 363.10788 c 0.47466,0 0.97181,-0.1523 1.38597,-0.52045 0.41417,-0.36815 0.67861,-0.97654 0.67861,-1.54126 V 487.2325 l -0.0431,-0.16966 c 0,0 -0.049,-0.40295 0.0259,-0.6441 0.0374,-0.12058 0.0579,-0.154 0.1409,-0.21279 0.083,-0.0587 0.29549,-0.1754 0.85976,-0.1754 h 12.58879 c 0.47465,0 0.96893,-0.1523 1.3831,-0.52045 0.41419,-0.36815 0.67861,-0.97941 0.67861,-1.54413 V 389.2768 c 0,-0.47467 -0.15231,-0.97181 -0.52045,-1.38597 -0.36815,-0.41417 -0.97652,-0.67574 -1.54126,-0.67574 z m 462.148131,0 c -0.56472,0 -1.17309,0.26157 -1.54124,0.67574 -0.36816,0.41416 -0.52047,0.9113 -0.52047,1.38597 v 118.97824 c 0,0.56472 0.26445,1.17311 0.67862,1.54126 0.41417,0.36815 0.90843,0.52047 1.38309,0.52047 h 95.28152 c 0.56472,0 1.17598,-0.26445 1.54413,-0.67862 0.36815,-0.41417 0.51758,-0.90844 0.51758,-1.38311 V 389.27674 c 0,-0.56472 -0.26444,-1.17598 -0.67861,-1.54413 -0.41417,-0.36813 -0.90844,-0.51758 -1.3831,-0.51758 z m -82.98888,0.0978 c -0.56472,0 -1.17598,0.26445 -1.54413,0.6786 -0.36815,0.41417 -0.51758,0.90845 -0.51758,1.38311 v 23.9929 c 0,0.56474 0.26444,1.17311 0.67861,1.54126 0.41417,0.36815 0.90843,0.52045 1.3831,0.52045 h 72.07361 c 0.56472,0 1.17598,-0.26444 1.54413,-0.6786 0.36813,-0.41417 0.52045,-0.90843 0.52045,-1.38311 v -23.9929 c 0,-0.5647 -0.26444,-1.17598 -0.67861,-1.54412 -0.41416,-0.36815 -0.9113,-0.51759 -1.38597,-0.51759 z M 13.643659,390.15956 H 377.86197 v 92.9265 h -11.70603 c -1.009,0 -1.88636,0.24011 -2.55916,0.716 -0.6728,0.47588 -1.06988,1.15309 -1.2537,1.74541 -0.36765,1.18462 -0.0748,2.20548 -0.0748,2.20548 l -0.0402,-0.34505 v 19.76883 H 32.325569 v -19.8666 l -0.0575,0.40544 c 0,0 0.32636,-0.95537 0.0575,-2.11346 -0.13442,-0.57906 -0.46507,-1.27175 -1.09843,-1.7713 -0.63336,-0.49954 -1.48859,-0.74475 -2.4384,-0.74475 h -15.14509 z m 462.148131,0 h 93.51598 v 117.21272 h -93.51598 z m -82.98888,0.0978 h 70.31094 v 22.22736 h -70.31094 z m 23.0095,43.27004 c -0.56474,0 -1.17311,0.26445 -1.54126,0.67862 -0.36815,0.41417 -0.52047,0.90844 -0.52047,1.38309 v 21.26985 l 0.0147,0.0805 c 0.0278,-0.0509 0.28919,-0.009 -0.40831,-0.009 h -21.43662 c -0.56473,0 -1.17599,0.26157 -1.54413,0.67572 -0.36815,0.41417 -0.51758,0.91131 -0.51758,1.38599 v 24.87566 c 0,0.56473 0.26444,1.17599 0.67861,1.54413 0.41417,0.36815 0.90843,0.51758 1.3831,0.51758 h 72.07361 c 0.56472,0 1.17598,-0.26444 1.54413,-0.67861 0.36813,-0.41416 0.52045,-0.90843 0.52045,-1.3831 v -24.87566 c 0,-0.56471 -0.26444,-1.17599 -0.67861,-1.54413 -0.41416,-0.36815 -0.91131,-0.51758 -1.38597,-0.51758 h -21.82768 c -0.0879,0 -0.038,-0.006 -0.1007,-0.0118 v -0.18977 -21.14045 c 0,-0.56473 -0.26444,-1.17597 -0.67861,-1.54413 -0.41417,-0.36815 -0.90845,-0.51758 -1.3831,-0.51758 z m 0.88275,2.94448 h 22.42579 v 20.25768 l 0.1409,-0.62685 c 0,0 -0.44998,0.74312 -0.20129,1.80004 0.12441,0.52846 0.52418,1.14485 1.10131,1.49525 0.57712,0.35039 1.24042,0.47733 2.0042,0.47733 h 20.94778 v 23.11013 h -70.31094 v -23.11012 h 20.55385 c 1.46083,0 2.65869,-0.7938 3.07674,-1.68215 0.41806,-0.88835 0.23867,-1.71953 0.23867,-1.71953 l 0.023,0.25592 z"
     id="path1300" />
  <path
     style="color:#000000;fill:#ffffff;fill-opacity:1;stroke:#ffffff;stroke-width:1;stroke-miterlimit:4.02857;stroke-dasharray:none;stroke-opacity:1"
     d="m 235.47741,435.78744 c -1.64544,0 -3.08904,1.28293 -2.83521,3.05949 l -0.0147,-0.2099 v 19.46979 c 0,1.52276 1.32685,2.84959 2.84959,2.84959 h 19.07586 c 1.52275,0 2.84959,-1.32684 2.84959,-2.84959 v -19.46979 c 0,-1.52275 -1.32683,-2.84959 -2.84959,-2.84959 z m 0.0948,2.94448 h 18.88608 v 19.28001 h -18.88608 z"
     id="path1302" />
  <path
     style="color:#000000;fill:#ffffff;fill-opacity:1;stroke:#ffffff;stroke-width:1;stroke-miterlimit:4.02857;stroke-dasharray:none;stroke-opacity:1"
     d="m 258.97861,435.78744 c -1.64544,0 -2.8496,1.32001 -2.8496,2.84959 v 19.46979 c 0,1.52275 1.32686,2.84959 2.8496,2.84959 h 19.07585 c 1.52276,0 2.8496,-1.32684 2.8496,-2.84959 v -19.46979 c 0,-1.52275 -1.32683,-2.84959 -2.8496,-2.84959 z m 0.095,2.94448 h 18.88608 v 19.28001 h -18.88608 z"
     id="path1306" />
  <path
     style="color:#000000;fill:#ffffff;fill-opacity:1;stroke:#ffffff;stroke-width:1;stroke-miterlimit:4.02857;stroke-dasharray:none;stroke-opacity:1"
     d="m 282.47981,435.78744 c -1.64543,0 -2.84958,1.32001 -2.84958,2.84959 v 19.46979 c 0,1.52275 1.32684,2.84959 2.84958,2.84959 h 19.07586 c 1.52275,0 2.84672,-1.32684 2.84672,-2.84959 v -19.46979 c 0,-1.52275 -1.32396,-2.84959 -2.84672,-2.84959 z m 0.095,2.94448 h 18.8832 v 19.28001 h -18.8832 z"
     id="path1310" />
  <path
     style="color:#000000;fill:#ffffff;fill-opacity:1;stroke:#ffffff;stroke-width:1;stroke-miterlimit:4.02857;stroke-dasharray:none;stroke-opacity:1"
     d="m 305.97814,435.78744 c -1.64543,0 -2.84671,1.32001 -2.84671,2.84959 v 19.46979 c 0,1.52275 1.32396,2.84959 2.84671,2.84959 H 325.054 c 1.52275,0 2.84959,-1.32683 2.84959,-2.84959 v -19.46979 c 0,-1.52276 -1.32683,-2.84959 -2.84959,-2.84959 z m 0.0978,2.94448 h 18.8832 v 19.28001 h -18.8832 z"
     id="path1314" />
  <path
     style="color:#000000;fill:#ffffff;fill-opacity:1;stroke:#ffffff;stroke-width:1;stroke-miterlimit:4.02857;stroke-dasharray:none;stroke-opacity:1"
     d="m 329.47934,435.78744 c -1.64543,0 -2.8467,1.32 -2.8467,2.84959 v 19.46979 c 0,1.52276 1.32395,2.84959 2.8467,2.84959 h 19.07586 c 1.52275,0 2.84959,-1.32683 2.84959,-2.84959 v -19.46979 c 0,-1.52276 -1.32683,-2.84959 -2.84959,-2.84959 z m 0.0978,2.94448 h 18.8832 v 19.28001 h -18.8832 z"
     id="path1318" />
  <path
     style="color:#000000;fill:#ffffff;fill-opacity:1;stroke:#ffffff;stroke-width:1;stroke-miterlimit:4.02857;stroke-dasharray:none;stroke-opacity:1"
     d="m 394.08249,458.6014 c -0.76137,0 -1.48361,0.27347 -2.03583,0.79938 -0.55222,0.52592 -0.9095,1.37354 -0.80225,2.23137 l -0.0118,-0.18116 v 19.46693 c 0,1.52275 1.32684,2.84958 2.84959,2.84958 h 19.07586 c 1.52275,0 2.84959,-1.32684 2.84959,-2.84958 v -19.46693 c 0,-1.52275 -1.32684,-2.84959 -2.84959,-2.84959 z m 0.095,2.94448 h 18.88604 v 19.27714 h -18.88608 z"
     id="path1322" />
  <path
     style="color:#000000;fill:#ffffff;fill-opacity:1;stroke:#ffffff;stroke-width:1;stroke-miterlimit:4.02857;stroke-dasharray:none;stroke-opacity:1"
     d="m 442.65777,458.6014 c -1.52275,0 -2.93982,1.43498 -2.74032,3.03075 l -0.0118,-0.18116 v 19.46693 c 0,1.52275 1.32684,2.84958 2.84959,2.84958 h 19.07586 c 1.52274,0 2.84958,-1.32684 2.84958,-2.84958 v -19.46693 c 0,-1.52275 -1.32684,-2.84959 -2.84958,-2.84959 z m 0.19266,2.94448 h 18.88607 v 19.27714 h -18.88607 z"
     id="path1326" />
  <path
     style="color:#000000;fill:#ffffff;fill-opacity:1;stroke:#ffffff;stroke-width:1;stroke-miterlimit:4.02857;stroke-dasharray:none;stroke-opacity:1"
     d="m 418.37157,458.6014 c -1.52275,0 -2.84959,1.32683 -2.84959,2.84959 v 19.46693 c 0,1.52275 1.32684,2.84958 2.84959,2.84958 h 19.07586 c 1.52274,0 2.84671,-1.32684 2.84671,-2.84958 v -19.46693 c 0,-1.52275 -1.32397,-2.84959 -2.84671,-2.84959 z m 0.095,2.94448 h 18.8832 v 19.27714 H 418.4665 Z"
     id="path1330" />
  <path
     style="color:#000000;fill:#ffffff;fill-opacity:1;stroke:#ffffff;stroke-width:1;stroke-miterlimit:4.02857;stroke-dasharray:none;stroke-opacity:1"
     d="m 418.37157,434.90467 c -1.52275,0 -2.84959,1.32394 -2.84959,2.84671 v 19.4698 c 0,1.52276 1.32683,2.84959 2.84959,2.84959 h 19.07586 c 1.52277,0 2.84671,-1.32684 2.84671,-2.84959 v -19.4698 c 0,-1.52274 -1.32397,-2.84671 -2.84671,-2.84671 z m 0.095,2.94448 h 18.8832 v 19.27714 H 418.4665 Z"
     id="path1334" />
  <path
     style="color:#000000;fill:#ffffff;fill-opacity:1;stroke:#ffffff;stroke-width:1;stroke-miterlimit:4.02857;stroke-dasharray:none;stroke-opacity:1"
     d="m 477.36755,412.48464 c -1.52277,0 -2.84958,1.32684 -2.84958,2.84959 v 19.46693 c 0,1.52274 1.32684,2.84958 2.84958,2.84958 h 19.07585 c 1.52275,0 2.8496,-1.32684 2.8496,-2.84958 v -19.46693 c 0,-1.52275 -1.32683,-2.84959 -2.8496,-2.84959 z m 0.095,2.94448 h 18.88606 v 19.27714 h -18.88606 z"
     id="path1338" />
  <path
     style="color:#000000;fill:#ffffff;fill-opacity:1;stroke:#ffffff;stroke-width:1;stroke-miterlimit:4.02857;stroke-dasharray:none;stroke-opacity:1"
     d="m 501.26269,412.48464 c -0.76138,0 -1.48362,0.27347 -2.03583,0.79938 -0.55222,0.52591 -0.9095,1.37354 -0.80225,2.23137 l -0.0118,-0.18116 v 19.46693 c 0,1.52277 1.32686,2.84958 2.8496,2.84958 h 19.07585 c 1.52275,0 2.84959,-1.32681 2.84959,-2.84958 v -19.46693 c 0,-1.52276 -1.32682,-2.84959 -2.84959,-2.84959 z m 0.095,2.94448 h 18.88608 v 19.27714 h -18.88608 z"
     id="path1342" />
  <path
     style="color:#000000;fill:#ffffff;fill-opacity:1;stroke:#ffffff;stroke-width:1;stroke-miterlimit:4.02857;stroke-dasharray:none;stroke-opacity:1"
     d="m 525.05719,412.48464 c -1.5296,0 -2.84959,1.20416 -2.84959,2.84959 v 19.46693 c 0,1.52274 1.32684,2.84958 2.84959,2.84958 h 19.07586 c 1.52275,0 2.84959,-1.32684 2.84959,-2.84958 v -19.46693 c 0,-1.52275 -1.32683,-2.84959 -2.84959,-2.84959 z m 0.0948,2.94448 h 18.88609 v 19.27714 h -18.88609 z"
     id="path1346" />
  <path
     style="color:#000000;fill:#ffffff;fill-opacity:1;stroke:#ffffff;stroke-width:1;stroke-miterlimit:4.02857;stroke-dasharray:none;stroke-opacity:1"
     d="m 477.36755,435.98584 c -1.64544,0 -2.84958,1.32002 -2.84958,2.84959 v 19.46693 c 0,1.52274 1.32681,2.84958 2.84958,2.84958 h 19.07585 c 1.52277,0 2.8496,-1.32684 2.8496,-2.84958 v -19.46693 c 0,-1.52275 -1.32685,-2.84959 -2.8496,-2.84959 z m 0.095,2.94448 h 18.88606 v 19.27714 h -18.88606 z"
     id="path1350" />
  <path
     style="color:#000000;fill:#ffffff;fill-opacity:1;stroke:#ffffff;stroke-width:1;stroke-miterlimit:4.02857;stroke-dasharray:none;stroke-opacity:1"
     d="m 501.26269,435.98584 c -1.64543,0 -3.08904,1.28007 -2.83521,3.05663 l -0.0147,-0.20704 v 19.46693 c 0,1.52277 1.32682,2.84958 2.84959,2.84958 h 19.07586 c 1.52276,0 2.84959,-1.32681 2.84959,-2.84958 v -19.46693 c 0,-1.52276 -1.32684,-2.84959 -2.84959,-2.84959 z m 0.095,2.94448 h 18.88608 v 19.27714 h -18.88608 z"
     id="path1354" />
  <path
     style="color:#000000;fill:#ffffff;fill-opacity:1;stroke:#ffffff;stroke-width:1;stroke-miterlimit:4.02857;stroke-dasharray:none;stroke-opacity:1"
     d="m 525.05719,435.98584 c -0.83489,0 -1.49749,0.37031 -1.98695,0.85977 -0.48946,0.48946 -0.86264,1.15493 -0.86264,1.98982 v 19.46693 c 0,1.52274 1.32682,2.84958 2.84959,2.84958 h 19.07586 c 1.52276,0 2.84959,-1.32684 2.84959,-2.84958 v -19.46693 c 0,-1.52275 -1.32684,-2.84959 -2.84959,-2.84959 z m 0.0948,2.94448 h 18.88609 v 19.27714 h -18.88609 z"
     id="path1358" />
  <path
     style="color:#000000;fill:#ffffff;fill-opacity:1;stroke:#ffffff;stroke-width:1;stroke-miterlimit:4.02857;stroke-dasharray:none;stroke-opacity:1"
     d="m 477.36755,460.07653 c -1.52277,0 -2.84958,1.32684 -2.84958,2.84957 v 19.46693 c 0,1.52275 1.32684,2.84959 2.84958,2.84959 h 19.07585 c 1.52275,0 2.8496,-1.32684 2.8496,-2.84959 V 462.9261 c 0,-1.52273 -1.32683,-2.84957 -2.8496,-2.84957 z m 0.095,2.94448 h 18.88606 v 19.27713 h -18.88606 z"
     id="path1362" />
  <path
     style="color:#000000;fill:#ffffff;fill-opacity:1;stroke:#ffffff;stroke-width:1;stroke-miterlimit:4.02857;stroke-dasharray:none;stroke-opacity:1"
     d="m 501.26269,460.07653 c -0.76138,0 -1.48362,0.27345 -2.03583,0.79936 -0.55222,0.52593 -0.9095,1.37356 -0.80225,2.23137 l -0.0118,-0.18116 v 19.46693 c 0,1.52277 1.32686,2.84959 2.8496,2.84959 h 19.07585 c 1.52275,0 2.84959,-1.32682 2.84959,-2.84959 V 462.9261 c 0,-1.52276 -1.32682,-2.84957 -2.84959,-2.84957 z m 0.095,2.94448 h 18.88608 v 19.27713 h -18.88608 z"
     id="path1366" />
  <path
     style="color:#000000;fill:#ffffff;fill-opacity:1;stroke:#ffffff;stroke-width:1;stroke-miterlimit:4.02857;stroke-dasharray:none;stroke-opacity:1"
     d="m 525.05719,460.07653 c -1.5296,0 -2.84959,1.20414 -2.84959,2.84957 v 19.46693 c 0,1.52275 1.32684,2.84959 2.84959,2.84959 h 19.07586 c 1.52275,0 2.84959,-1.32684 2.84959,-2.84959 V 462.9261 c 0,-1.52273 -1.32683,-2.84957 -2.84959,-2.84957 z m 0.0948,2.94448 h 18.88609 v 19.27713 h -18.88609 z"
     id="path1370" />
  <path
     style="color:#000000;fill:#ffffff;fill-opacity:1;stroke:#ffffff;stroke-width:1;stroke-miterlimit:4.02857;stroke-dasharray:none;stroke-opacity:1"
     d="m 477.36755,484.06943 c -1.64544,0 -2.84958,1.31713 -2.84958,2.8467 v 19.4698 c 0,1.52275 1.32681,2.84959 2.84958,2.84959 h 42.97099 c 1.52277,0 2.8496,-1.32682 2.8496,-2.84959 v -19.4698 c 0,-1.52275 -1.32684,-2.8467 -2.8496,-2.8467 z m 0.095,2.94447 h 42.78121 v 19.27714 h -42.78121 z"
     id="path1374" />
  <path
     style="color:#000000;fill:#ffffff;fill-opacity:1;stroke:#ffffff;stroke-width:1;stroke-miterlimit:4.02857;stroke-dasharray:none;stroke-opacity:1"
     d="m 525.05719,484.06943 c -0.83489,0 -1.49749,0.37031 -1.98695,0.85975 -0.48946,0.48946 -0.86264,1.15206 -0.86264,1.98695 v 19.4698 c 0,1.52275 1.32682,2.84959 2.84959,2.84959 h 19.07586 c 1.52276,0 2.84959,-1.32684 2.84959,-2.84959 v -19.4698 c 0,-1.52273 -1.32684,-2.8467 -2.84959,-2.8467 z m 0.0948,2.94447 h 18.88609 v 19.27714 h -18.88609 z"
     id="path1378" />
  <path
     style="color:#000000;fill:#ffffff;fill-opacity:1;stroke:#ffffff;stroke-width:1;stroke-miterlimit:4.02857;stroke-dasharray:none;stroke-opacity:1"
     d="m 211.97621,435.78744 c -1.64544,0 -3.08904,1.28293 -2.83521,3.05949 l -0.0147,-0.2099 v 19.46979 c 0,1.52276 1.32684,2.84959 2.84959,2.84959 h 19.07585 c 1.52276,0 2.8496,-1.32683 2.8496,-2.84959 v -19.46979 c 0,-1.52276 -1.32683,-2.84959 -2.8496,-2.84959 z m 0.095,2.94448 h 18.88608 v 19.28001 h -18.88608 z"
     id="path1382" />
  <path
     style="color:#000000;fill:#ffffff;fill-opacity:1;stroke:#ffffff;stroke-width:1;stroke-miterlimit:4.02857;stroke-dasharray:none;stroke-opacity:1"
     d="m 188.47501,435.78744 c -1.64544,0 -3.08617,1.28293 -2.83234,3.05949 l -0.0172,-0.2099 v 19.46979 c 0,1.52276 1.32684,2.84959 2.8496,2.84959 h 19.07585 c 1.52275,0 2.84959,-1.32683 2.84959,-2.84959 v -19.46979 c 0,-1.52276 -1.32682,-2.84959 -2.84959,-2.84959 z m 0.0948,2.94448 h 18.88608 v 19.28001 h -18.88601 z"
     id="path1386" />
  <path
     style="color:#000000;fill:#ffffff;fill-opacity:1;stroke:#ffffff;stroke-width:1;stroke-miterlimit:4.02857;stroke-dasharray:none;stroke-opacity:1"
     d="m 164.9738,435.78744 c -1.64543,0 -3.08616,1.28295 -2.83233,3.05949 l -0.0147,-0.2099 v 19.46979 c 0,1.52275 1.32395,2.84959 2.8467,2.84959 h 19.07586 c 1.52275,0 2.84959,-1.32684 2.84959,-2.84959 v -19.46979 c 0,-1.52275 -1.32682,-2.84959 -2.84959,-2.84959 z m 0.0978,2.94448 h 18.8832 v 19.28001 h -18.8832 z"
     id="path1390" />
  <path
     style="color:#000000;fill:#ffffff;fill-opacity:1;stroke:#ffffff;stroke-width:1;stroke-miterlimit:4.02857;stroke-dasharray:none;stroke-opacity:1"
     d="m 141.37483,435.78744 c -0.83489,0 -1.49749,0.37318 -1.98694,0.86265 -0.48946,0.48944 -0.85977,1.15204 -0.85977,1.98694 v 19.46979 c 0,1.52276 1.32397,2.84959 2.84671,2.84959 h 19.07586 c 1.52275,0 2.84959,-1.32684 2.84959,-2.84959 v -19.46979 c 0,-1.52275 -1.32683,-2.84959 -2.84959,-2.84959 z m 0.0978,2.94448 h 18.8832 v 19.28001 h -18.8832 z"
     id="path1394" />
  <path
     style="color:#000000;fill:#ffffff;fill-opacity:1;stroke:#ffffff;stroke-width:1;stroke-miterlimit:4.02857;stroke-dasharray:none;stroke-opacity:1"
     d="m 117.87363,435.78744 c -1.64543,0 -2.84671,1.32001 -2.84671,2.84959 v 19.46979 c 0,1.52276 1.32397,2.84959 2.84671,2.84959 h 19.07586 c 1.52275,0 2.84959,-1.32683 2.84959,-2.84959 v -19.46979 c 0,-1.52276 -1.32683,-2.84959 -2.84959,-2.84959 z m 0.0978,2.94448 h 18.8832 v 19.28001 h -18.8832 z"
     id="path1398" />
  <path
     style="color:#000000;fill:#ffffff;fill-opacity:1;stroke:#ffffff;stroke-width:1;stroke-miterlimit:4.02857;stroke-dasharray:none;stroke-opacity:1"
     d="m 94.375307,435.78744 c -1.645434,0 -2.849589,1.32001 -2.849589,2.84959 v 19.46979 c 0,1.52276 1.326843,2.84959 2.849589,2.84959 h 19.075853 c 1.52275,0 2.84672,-1.32683 2.84672,-2.84959 v -19.46979 c 0,-1.52276 -1.32395,-2.84959 -2.84672,-2.84959 z m 0.09489,2.94448 H 113.3534 v 19.28001 H 94.470201 Z"
     id="path1402" />
  <path
     style="color:#000000;fill:#ffffff;fill-opacity:1;stroke:#ffffff;stroke-width:1;stroke-miterlimit:4.02857;stroke-dasharray:none;stroke-opacity:1"
     d="m 70.874109,435.78744 c -1.64544,0 -2.84959,1.32001 -2.84959,2.84959 v 19.46979 c 0,1.52276 1.32684,2.84959 2.84959,2.84959 h 19.07585 c 1.522749,0 2.849592,-1.32683 2.849592,-2.84959 v -19.46979 c 0,-1.52276 -1.326823,-2.84959 -2.849592,-2.84959 z m 0.0949,2.94448 h 18.88608 v 19.28001 h -18.88607 z"
     id="path1406" />
  <path
     style="color:#000000;fill:#ffffff;fill-opacity:1;stroke:#ffffff;stroke-width:1;stroke-miterlimit:4.02857;stroke-dasharray:none;stroke-opacity:1"
     d="m 223.67649,459.48704 c -1.52958,0 -2.84672,1.20129 -2.84672,2.84672 v 19.4698 c 0,1.52274 1.32396,2.84958 2.84672,2.84958 h 19.07586 c 1.52276,0 2.84958,-1.32684 2.84958,-2.84958 v -19.4698 c 0,-1.52275 -1.32684,-2.84672 -2.84958,-2.84672 z m 0.0978,2.94448 h 18.8832 v 19.27714 h -18.8832 z"
     id="path1410" />
  <path
     style="color:#000000;fill:#ffffff;fill-opacity:1;stroke:#ffffff;stroke-width:1;stroke-miterlimit:4.02857;stroke-dasharray:none;stroke-opacity:1"
     d="m 247.27545,459.48704 c -0.76137,0 -1.48073,0.27348 -2.03296,0.79938 -0.5522,0.52592 -0.90949,1.37356 -0.80225,2.23137 l -0.0118,-0.18403 v 19.4698 c 0,1.52277 1.32394,2.84958 2.84671,2.84958 H 266.351 c 1.52277,0 2.8496,-1.32681 2.8496,-2.84958 v -19.4698 c 0,-1.52276 -1.32684,-2.84672 -2.8496,-2.84672 z m 0.0978,2.94448 h 18.88319 v 19.27714 h -18.88319 z"
     id="path1414" />
  <path
     style="color:#000000;fill:#ffffff;fill-opacity:1;stroke:#ffffff;stroke-width:1;stroke-miterlimit:4.02857;stroke-dasharray:none;stroke-opacity:1"
     d="m 270.77665,459.48704 c -0.76137,0 -1.4836,0.27348 -2.03583,0.79938 -0.55222,0.52592 -0.9095,1.37356 -0.80225,2.23137 l -0.009,-0.18403 v 19.4698 c 0,1.52277 1.32396,2.84958 2.84671,2.84958 h 19.07585 c 1.52277,0 2.8496,-1.32681 2.8496,-2.84958 v -19.4698 c 0,-1.52276 -1.32684,-2.84672 -2.8496,-2.84672 z m 0.0978,2.94448 h 18.8832 v 19.27714 h -18.88319 z"
     id="path1418" />
  <path
     style="color:#000000;fill:#ffffff;fill-opacity:1;stroke:#ffffff;stroke-width:1;stroke-miterlimit:4.02857;stroke-dasharray:none;stroke-opacity:1"
     d="m 294.27786,459.48704 c -0.76137,0 -1.48361,0.27348 -2.03583,0.79938 -0.55222,0.52592 -0.90949,1.37356 -0.80226,2.23137 l -0.0118,-0.18403 v 19.4698 c 0,1.52277 1.32682,2.84958 2.84958,2.84958 h 19.07586 c 1.52276,0 2.84958,-1.32684 2.84958,-2.84958 v -19.4698 c 0,-1.52275 -1.32684,-2.84672 -2.84958,-2.84672 z m 0.0949,2.94448 h 18.88607 v 19.27714 h -18.88607 z"
     id="path1422" />
  <path
     style="color:#000000;fill:#ffffff;fill-opacity:1;stroke:#ffffff;stroke-width:1;stroke-miterlimit:4.02857;stroke-dasharray:none;stroke-opacity:1"
     d="m 200.17816,459.48704 c -1.52275,0 -2.84959,1.32397 -2.84959,2.84672 v 19.4698 c 0,1.52274 1.32683,2.84958 2.84959,2.84958 h 19.07586 c 1.52276,0 2.84671,-1.32684 2.84671,-2.84958 v -19.4698 c 0,-1.52275 -1.32396,-2.84672 -2.84671,-2.84672 z m 0.0948,2.94448 h 18.8832 v 19.27714 h -18.88319 z"
     id="path1426" />
  <path
     style="color:#000000;fill:#ffffff;fill-opacity:1;stroke:#ffffff;stroke-width:1;stroke-miterlimit:4.02857;stroke-dasharray:none;stroke-opacity:1"
     d="m 176.67696,459.48704 c -1.52275,0 -2.84959,1.32396 -2.84959,2.84672 v 19.4698 c 0,1.52277 1.32683,2.84958 2.84959,2.84958 h 19.07586 c 1.52276,0 2.84671,-1.32684 2.84671,-2.84958 v -19.4698 c 0,-1.52275 -1.32396,-2.84672 -2.84671,-2.84672 z m 0.095,2.94448 h 18.8832 v 19.27714 h -18.8832 z"
     id="path1430" />
  <path
     style="color:#000000;fill:#ffffff;fill-opacity:1;stroke:#ffffff;stroke-width:1;stroke-miterlimit:4.02857;stroke-dasharray:none;stroke-opacity:1"
     d="m 153.17576,459.48704 c -1.52275,0 -2.84959,1.32396 -2.84959,2.84672 v 19.4698 c 0,1.52275 1.32682,2.84958 2.84959,2.84958 h 19.07586 c 1.52276,0 2.84959,-1.32681 2.84959,-2.84958 v -19.4698 c 0,-1.52276 -1.32686,-2.84672 -2.84959,-2.84672 z m 0.095,2.94448 h 18.88608 v 19.27714 h -18.88608 z"
     id="path1434" />
  <path
     style="color:#000000;fill:#ffffff;fill-opacity:1;stroke:#ffffff;stroke-width:1;stroke-miterlimit:4.02857;stroke-dasharray:none;stroke-opacity:1"
     d="m 129.67455,459.48704 c -1.52274,0 -2.84958,1.32397 -2.84958,2.84672 v 19.4698 c 0,1.52275 1.32682,2.84958 2.84958,2.84958 h 19.07586 c 1.52277,0 2.84958,-1.32683 2.84958,-2.84958 v -19.4698 c 0,-1.52275 -1.32683,-2.84672 -2.84958,-2.84672 z m 0.0949,2.94448 h 18.88608 v 19.27714 h -18.88608 z"
     id="path1438" />
  <path
     style="color:#000000;fill:#ffffff;fill-opacity:1;stroke:#ffffff;stroke-width:1;stroke-miterlimit:4.02857;stroke-dasharray:none;stroke-opacity:1"
     d="m 106.17335,459.48704 c -1.52274,0 -2.84959,1.32397 -2.84959,2.84672 v 19.4698 c 0,1.52275 1.32683,2.84958 2.84959,2.84958 h 19.07586 c 1.52276,0 2.84959,-1.32683 2.84959,-2.84958 v -19.4698 c 0,-1.52275 -1.32684,-2.84672 -2.84959,-2.84672 z m 0.0949,2.94448 h 18.88608 v 19.27714 h -18.88608 z"
     id="path1442" />
  <path
     style="color:#000000;fill:#ffffff;fill-opacity:1;stroke:#ffffff;stroke-width:1;stroke-miterlimit:4.02857;stroke-dasharray:none;stroke-opacity:1"
     d="m 82.672149,459.48704 c -1.52274,0 -2.84671,1.32397 -2.84671,2.84672 v 19.4698 c 0,1.52275 1.32395,2.84958 2.84671,2.84958 h 19.075861 c 1.52276,0 2.84959,-1.32683 2.84959,-2.84958 v -19.4698 c 0,-1.52275 -1.32685,-2.84672 -2.84959,-2.84672 z m 0.0978,2.94448 h 18.883201 v 19.27714 H 82.769949 Z"
     id="path1446" />
  <path
     style="color:#000000;fill:#ffffff;fill-opacity:1;stroke:#ffffff;stroke-width:1;stroke-miterlimit:4.02857;stroke-dasharray:none;stroke-opacity:1"
     d="m 59.170949,459.48704 c -0.76137,0 -1.48074,0.27347 -2.03295,0.79938 -0.55222,0.52592 -0.90949,1.37357 -0.80226,2.23137 l -0.0115,-0.18403 v 19.4698 c 0,1.52275 1.32394,2.84958 2.84671,2.84958 h 19.07586 c 1.52276,0 2.84959,-1.32683 2.84959,-2.84958 v -19.4698 c 0,-1.52275 -1.32685,-2.84672 -2.84959,-2.84672 z m 0.0978,2.94448 h 18.8832 v 19.27714 h -18.8832 z"
     id="path1450" />
  <path
     style="color:#000000;fill:#ffffff;fill-opacity:1;stroke:#ffffff;stroke-width:1;stroke-miterlimit:4.02857;stroke-dasharray:none;stroke-opacity:1"
     d="m 94.375307,483.08601 c -1.645452,0 -2.849589,1.31713 -2.849589,2.84673 v 19.46978 c 0,1.52276 1.326843,2.84959 2.849589,2.84959 H 301.35727 c 1.52274,0 2.84958,-1.32684 2.84958,-2.84959 v -19.46978 c 0,-1.52276 -1.32682,-2.84673 -2.84958,-2.84673 z m 0.09489,2.94448 H 301.26237 v 19.27714 H 94.470197 Z"
     id="path1454" />
  <path
     style="color:#000000;fill:#ffffff;fill-opacity:1;stroke:#ffffff;stroke-width:1;stroke-miterlimit:4.02857;stroke-dasharray:none;stroke-opacity:1"
     d="m 228.79195,412.18847 c -1.52276,0 -2.84959,1.32683 -2.84959,2.84959 v 19.4698 c 0,1.52277 1.32684,2.84958 2.84959,2.84958 h 19.07586 c 1.52273,0 2.8467,-1.32684 2.8467,-2.84958 v -19.4698 c 0,-1.52275 -1.32394,-2.84959 -2.8467,-2.84959 z m 0.0948,2.94448 h 18.8832 v 19.28001 h -18.8832 z"
     id="path1458" />
  <path
     style="color:#000000;fill:#ffffff;fill-opacity:1;stroke:#ffffff;stroke-width:1;stroke-miterlimit:4.02857;stroke-dasharray:none;stroke-opacity:1"
     d="m 252.29027,412.18847 c -1.52277,0 -2.84671,1.32684 -2.84671,2.84959 v 19.4698 c 0,1.52274 1.32397,2.84959 2.84671,2.84958 h 19.07585 c 1.52275,0 2.8496,-1.32684 2.8496,-2.84958 v -19.4698 c 0,-1.52275 -1.32683,-2.84959 -2.8496,-2.84959 z m 0.0978,2.94448 h 18.88319 v 19.28001 h -18.8832 z"
     id="path1462" />
  <path
     style="color:#000000;fill:#ffffff;fill-opacity:1;stroke:#ffffff;stroke-width:1;stroke-miterlimit:4.02857;stroke-dasharray:none;stroke-opacity:1"
     d="m 275.88924,412.18847 c -0.76138,0 -1.48075,0.27347 -2.03296,0.79938 -0.5522,0.52591 -0.9095,1.37643 -0.80225,2.23424 l -0.0118,-0.18403 v 19.4698 c 0,1.52274 1.32396,2.84958 2.84671,2.84958 h 19.07873 c 1.52275,0 2.84672,-1.32681 2.84672,-2.84958 v -19.4698 c 0,-1.52276 -1.32395,-2.84959 -2.84672,-2.84959 z m 0.0978,2.94448 h 18.8832 v 19.28001 h -18.8832 z"
     id="path1466" />
  <path
     style="color:#000000;fill:#ffffff;fill-opacity:1;stroke:#ffffff;stroke-width:1;stroke-miterlimit:4.02857;stroke-dasharray:none;stroke-opacity:1"
     d="m 299.39044,412.18847 c -0.76138,0 -1.48362,0.27347 -2.03582,0.79938 -0.55223,0.52591 -0.90664,1.37643 -0.79939,2.23424 l -0.0118,-0.18403 v 19.4698 c 0,1.52277 1.32395,2.84958 2.8467,2.84958 h 19.07586 c 1.52275,0 2.84959,-1.32681 2.84959,-2.84958 v -19.4698 c 0,-1.52276 -1.32682,-2.84959 -2.84959,-2.84959 z m 0.0978,2.94448 h 18.8832 v 19.28001 h -18.8832 z"
     id="path1470" />
  <path
     style="color:#000000;fill:#ffffff;fill-opacity:1;stroke:#ffffff;stroke-width:1;stroke-miterlimit:4.02857;stroke-dasharray:none;stroke-opacity:1"
     d="m 322.89164,412.18847 c -0.76138,0 -1.48362,0.27347 -2.03582,0.79938 -0.55223,0.52591 -0.90951,1.37643 -0.80226,2.23424 l -0.0118,-0.18403 v 19.4698 c 0,1.52277 1.32685,2.84958 2.84959,2.84958 h 19.07585 c 1.52276,0 2.8496,-1.32681 2.8496,-2.84958 v -19.4698 c 0,-1.52276 -1.32683,-2.84959 -2.8496,-2.84959 z m 0.0948,2.94448 h 18.88608 v 19.28001 h -18.88608 z"
     id="path1474" />
  <path
     style="color:#000000;fill:#ffffff;fill-opacity:1;stroke:#ffffff;stroke-width:1;stroke-miterlimit:4.02857;stroke-dasharray:none;stroke-opacity:1"
     d="m 205.29074,412.18847 c -1.52276,0 -2.84958,1.32683 -2.84958,2.84959 v 19.4698 c 0,1.52277 1.32684,2.84959 2.84958,2.84958 h 19.07587 c 1.52273,0 2.84957,-1.32681 2.84957,-2.84958 v -19.4698 c 0,-1.52276 -1.32682,-2.84959 -2.84957,-2.84959 z m 0.095,2.94448 h 18.88606 v 19.28001 h -18.88606 z"
     id="path1478" />
  <path
     style="color:#000000;fill:#ffffff;fill-opacity:1;stroke:#ffffff;stroke-width:1;stroke-miterlimit:4.02857;stroke-dasharray:none;stroke-opacity:1"
     d="m 182.18348,412.18847 c -0.76139,0 -1.48361,0.27347 -2.03583,0.79938 -0.55222,0.52591 -0.90951,1.37643 -0.80225,2.23424 l -0.0118,-0.18403 v 19.4698 c 0,1.52277 1.32684,2.84959 2.84958,2.84958 h 19.07585 c 1.52275,0 2.84672,-1.32684 2.84672,-2.84958 v -19.4698 c 0,-1.52275 -1.32395,-2.84959 -2.84672,-2.84959 z m 0.095,2.94448 h 18.88319 v 19.28001 h -18.88319 z"
     id="path1482" />
  <path
     style="color:#000000;fill:#ffffff;fill-opacity:1;stroke:#ffffff;stroke-width:1;stroke-miterlimit:4.02857;stroke-dasharray:none;stroke-opacity:1"
     d="m 158.28833,412.18847 c -1.52275,0 -2.84957,1.32684 -2.84957,2.84959 v 19.4698 c 0,1.52274 1.32684,2.84959 2.84957,2.84958 h 19.07587 c 1.52274,0 2.84958,-1.32684 2.84958,-2.84958 v -19.4698 c 0,-1.52275 -1.32682,-2.84959 -2.84958,-2.84959 z m 0.095,2.94448 h 18.88607 v 19.28001 h -18.88612 z"
     id="path1486" />
  <path
     style="color:#000000;fill:#ffffff;fill-opacity:1;stroke:#ffffff;stroke-width:1;stroke-miterlimit:4.02857;stroke-dasharray:none;stroke-opacity:1"
     d="m 134.78714,412.18847 c -1.52277,0 -2.84959,1.32684 -2.84959,2.84959 v 19.4698 c 0,1.52275 1.32684,2.84958 2.84959,2.84958 h 19.07585 c 1.52275,0 2.84959,-1.32684 2.84959,-2.84958 v -19.4698 c 0,-1.52275 -1.32682,-2.84959 -2.84959,-2.84959 z m 0.0949,2.94448 h 18.88608 v 19.28001 h -18.88608 z"
     id="path1490" />
  <path
     style="color:#000000;fill:#ffffff;fill-opacity:1;stroke:#ffffff;stroke-width:1;stroke-miterlimit:4.02857;stroke-dasharray:none;stroke-opacity:1"
     d="m 111.28593,412.18847 c -1.52276,0 -2.84671,1.32684 -2.84671,2.84959 v 19.4698 c 0,1.52275 1.32397,2.84958 2.84671,2.84958 h 19.07586 c 1.52275,0 2.84959,-1.32683 2.84959,-2.84958 v -19.4698 c 0,-1.52275 -1.32682,-2.84959 -2.84959,-2.84959 z m 0.0978,2.94448 h 18.8832 v 19.28001 h -18.8832 z"
     id="path1494" />
  <path
     style="color:#000000;fill:#ffffff;fill-opacity:1;stroke:#ffffff;stroke-width:1;stroke-miterlimit:4.02857;stroke-dasharray:none;stroke-opacity:1"
     d="m 87.784739,412.18847 c -0.76139,0 -1.48075,0.27347 -2.03296,0.79938 -0.55221,0.52591 -0.90948,1.37644 -0.80226,2.23424 l -0.0115,-0.18403 v 19.4698 c 0,1.52275 1.32397,2.84958 2.84671,2.84958 h 19.078731 c 1.52275,0 2.84672,-1.32683 2.84672,-2.84958 v -19.4698 c 0,-1.52275 -1.32395,-2.84959 -2.84672,-2.84959 z m 0.0978,2.94448 h 18.883191 v 19.28001 H 87.882529 Z"
     id="path1498" />
  <path
     style="color:#000000;fill:#ffffff;fill-opacity:1;stroke:#ffffff;stroke-width:1;stroke-miterlimit:4.02857;stroke-dasharray:none;stroke-opacity:1"
     d="m 64.286409,412.18847 c -0.76138,0 -1.48362,0.27347 -2.03583,0.79938 -0.55221,0.52591 -0.90949,1.37644 -0.80226,2.23424 l -0.0115,-0.18403 v 19.4698 c 0,1.52275 1.32684,2.84958 2.84959,2.84958 h 19.07585 c 1.52275,0 2.84672,-1.32683 2.84672,-2.84958 v -19.4698 c 0,-1.52275 -1.32395,-2.84959 -2.84672,-2.84959 z m 0.0949,2.94448 h 18.8832 v 19.28001 h -18.88319 z"
     id="path1502" />
  <path
     style="color:#000000;fill:#ffffff;fill-opacity:1;stroke:#ffffff;stroke-width:1;stroke-miterlimit:4.02857;stroke-dasharray:none;stroke-opacity:1"
     d="m 216.59708,388.5895 c -1.52274,1e-5 -2.84671,1.32682 -2.84671,2.84959 v 19.4698 c 0,1.52276 1.32394,2.84959 2.84671,2.84959 h 19.07586 c 1.52276,0 2.84959,-1.32684 2.84959,-2.84959 v -19.4698 c 0,-1.52274 -1.32684,-2.84958 -2.84959,-2.84959 z m 0.0978,2.94448 h 18.8832 V 410.814 h -18.8832 z"
     id="path1506" />
  <path
     style="color:#000000;fill:#ffffff;fill-opacity:1;stroke:#ffffff;stroke-width:1;stroke-miterlimit:4.02857;stroke-dasharray:none;stroke-opacity:1"
     d="m 240.19605,388.5895 c -0.76137,1e-5 -1.4836,0.27346 -2.03582,0.79938 -0.55223,0.52593 -0.90664,1.37644 -0.79939,2.23424 l -0.0118,-0.18403 v 19.4698 c 0,1.52275 1.32395,2.84959 2.84671,2.84959 h 19.07586 c 1.52276,0 2.84959,-1.32684 2.84959,-2.84959 v -19.4698 c 0,-1.52274 -1.32684,-2.84958 -2.84959,-2.84959 z m 0.0978,2.94448 h 18.8832 V 410.814 h -18.8832 z"
     id="path1510" />
  <path
     style="color:#000000;fill:#ffffff;fill-opacity:1;stroke:#ffffff;stroke-width:1;stroke-miterlimit:4.02857;stroke-dasharray:none;stroke-opacity:1"
     d="m 263.69725,388.5895 c -0.76136,1e-5 -1.48362,0.27346 -2.03582,0.79938 -0.55223,0.52593 -0.90951,1.37644 -0.80226,2.23424 l -0.0118,-0.18403 v 19.4698 c 0,1.52275 1.32683,2.84959 2.8496,2.84959 h 19.07585 c 1.52277,0 2.8496,-1.32683 2.8496,-2.84959 v -19.4698 c 0,-1.52277 -1.32685,-2.84959 -2.8496,-2.84959 z m 0.0948,2.94448 h 18.8861 V 410.814 h -18.88608 z"
     id="path1514" />
  <path
     style="color:#000000;fill:#ffffff;fill-opacity:1;stroke:#ffffff;stroke-width:1;stroke-miterlimit:4.02857;stroke-dasharray:none;stroke-opacity:1"
     d="m 287.19846,388.5895 c -0.76137,1e-5 -1.48361,0.27348 -2.03583,0.79938 -0.55222,0.52591 -0.90951,1.37642 -0.80226,2.23424 l -0.0118,-0.18403 v 19.4698 c 0,1.52276 1.32683,2.84959 2.8496,2.84959 h 19.07586 c 1.52276,0 2.84959,-1.32683 2.84959,-2.84959 v -19.4698 c 0,-1.52277 -1.32684,-2.84958 -2.84959,-2.84959 z m 0.095,2.94448 h 18.88608 V 410.814 h -18.88608 z"
     id="path1518" />
  <path
     style="color:#000000;fill:#ffffff;fill-opacity:1;stroke:#ffffff;stroke-width:1;stroke-miterlimit:4.02857;stroke-dasharray:none;stroke-opacity:1"
     d="m 310.69966,388.5895 c -0.76137,1e-5 -1.48361,0.27348 -2.03583,0.79938 -0.55222,0.52591 -0.9095,1.37642 -0.80225,2.23424 l -0.0118,-0.18403 v 19.4698 c 0,1.52276 1.32683,2.84959 2.84959,2.84959 h 19.07586 c 1.52277,0 2.84959,-1.32683 2.84959,-2.84959 v -19.4698 c 0,-1.52277 -1.32684,-2.84959 -2.84959,-2.84959 z m 0.0948,2.94448 h 18.88608 V 410.814 h -18.88608 z"
     id="path1522" />
  <path
     style="color:#000000;fill:#ffffff;fill-opacity:1;stroke:#ffffff;stroke-width:1;stroke-miterlimit:4.02857;stroke-dasharray:none;stroke-opacity:1"
     d="m 334.20086,388.5895 c -0.76137,1e-5 -1.48361,0.27348 -2.03583,0.79938 -0.55222,0.52591 -0.9095,1.37642 -0.80225,2.23424 l -0.0118,-0.18403 v 19.4698 c 0,1.52276 1.32683,2.84959 2.8496,2.84959 h 19.07585 c 1.52277,0 2.84672,-1.32684 2.84672,-2.84959 v -19.4698 c 0,-1.52274 -1.32397,-2.84958 -2.84672,-2.84959 z m 0.095,2.94448 h 18.88321 V 410.814 h -18.88321 z"
     id="path1526" />
  <path
     style="color:#000000;fill:#ffffff;fill-opacity:1;stroke:#ffffff;stroke-width:1;stroke-miterlimit:4.02857;stroke-dasharray:none;stroke-opacity:1"
     d="m 193.09588,388.5895 c -1.52274,1e-5 -2.84671,1.32682 -2.84671,2.84959 v 19.4698 c 0,1.52276 1.32394,2.84959 2.84671,2.84959 h 19.07585 c 1.52277,0 2.8496,-1.32683 2.8496,-2.84959 v -19.4698 c 0,-1.52277 -1.32684,-2.84959 -2.8496,-2.84959 z m 0.0978,2.94448 h 18.88319 V 410.814 h -18.88319 z"
     id="path1530" />
  <path
     style="color:#000000;fill:#ffffff;fill-opacity:1;stroke:#ffffff;stroke-width:1;stroke-miterlimit:4.02857;stroke-dasharray:none;stroke-opacity:1"
     d="m 169.59755,388.5895 c -1.52274,1e-5 -2.84958,1.32682 -2.84958,2.84959 v 19.4698 c 0,1.52276 1.32683,2.84959 2.84958,2.84959 h 19.07587 c 1.52275,0 2.84671,-1.32683 2.84671,-2.84959 v -19.4698 c 0,-1.52277 -1.32397,-2.84958 -2.84671,-2.84959 z m 0.095,2.94448 h 18.8832 V 410.814 h -18.8832 z"
     id="path1534" />
  <path
     style="color:#000000;fill:#ffffff;fill-opacity:1;stroke:#ffffff;stroke-width:1;stroke-miterlimit:4.02857;stroke-dasharray:none;stroke-opacity:1"
     d="m 146.09635,388.5895 c -1.52274,1e-5 -2.84959,1.32684 -2.84959,2.84959 v 19.4698 c 0,1.52275 1.32683,2.84959 2.84959,2.84959 h 19.07587 c 1.52275,0 2.84671,-1.32684 2.84671,-2.84959 v -19.4698 c 0,-1.52274 -1.32397,-2.84958 -2.84671,-2.84959 z m 0.0949,2.94448 h 18.88321 V 410.814 h -18.8832 z"
     id="path1538" />
  <path
     style="color:#000000;fill:#ffffff;fill-opacity:1;stroke:#ffffff;stroke-width:1;stroke-miterlimit:4.02857;stroke-dasharray:none;stroke-opacity:1"
     d="m 122.59515,388.5895 c -1.52275,1e-5 -2.84959,1.32684 -2.84959,2.84959 v 19.4698 c 0,1.52275 1.32683,2.84959 2.84959,2.84959 h 19.07586 c 1.52276,0 2.84959,-1.32684 2.84959,-2.84959 v -19.4698 c 0,-1.52275 -1.32685,-2.84958 -2.84959,-2.84959 z m 0.0949,2.94448 h 18.88608 V 410.814 h -18.88608 z"
     id="path1542" />
  <path
     style="color:#000000;fill:#ffffff;fill-opacity:1;stroke:#ffffff;stroke-width:1;stroke-miterlimit:4.02857;stroke-dasharray:none;stroke-opacity:1"
     d="m 99.09395,388.5895 c -1.522746,1e-5 -2.849587,1.32684 -2.849587,2.84959 v 19.4698 c 0,1.52275 1.326823,2.84959 2.849587,2.84959 h 19.07586 c 1.52276,0 2.84959,-1.32684 2.84959,-2.84959 v -19.4698 c 0,-1.52275 -1.32685,-2.84958 -2.84959,-2.84959 z m 0.09489,2.94448 h 18.88607 V 410.814 H 99.188846 Z"
     id="path1546" />
  <path
     style="color:#000000;fill:#ffffff;fill-opacity:1;stroke:#ffffff;stroke-width:1;stroke-miterlimit:4.02857;stroke-dasharray:none;stroke-opacity:1"
     d="m 75.592749,388.5895 c -0.76137,1e-5 -1.48362,0.27346 -2.03583,0.79938 -0.55222,0.52591 -0.90948,1.37644 -0.80226,2.23424 l -0.0115,-0.18403 v 19.4698 c 0,1.52275 1.32682,2.84959 2.84959,2.84959 h 19.075854 c 1.522765,0 2.849589,-1.32684 2.849589,-2.84959 v -19.4698 c 0,-1.52275 -1.326843,-2.84958 -2.849589,-2.84959 z m 0.0949,2.94448 H 94.573725 V 410.814 H 75.687649 Z"
     id="path1550" />
  <path
     style="color:#000000;fill:#ffffff;fill-opacity:1;stroke:#ffffff;stroke-width:1;stroke-miterlimit:4.02857;stroke-dasharray:none;stroke-opacity:1"
     d="m 52.091549,388.5895 c -0.76138,1e-5 -1.48362,0.27346 -2.03583,0.79938 -0.55222,0.52591 -0.90661,1.37644 -0.79938,2.23424 l -0.0115,-0.18403 v 19.4698 c 0,1.52275 1.32395,2.84959 2.84672,2.84959 h 19.07585 c 1.52277,0 2.84959,-1.32684 2.84959,-2.84959 v -19.4698 c 0,-1.52275 -1.32684,-2.84958 -2.84959,-2.84959 z m 0.0978,2.94448 h 18.8832 V 410.814 h -18.88321 z"
     id="path1554" />
  <path
     style="color:#000000;fill:#ffffff;fill-opacity:1;stroke:#ffffff;stroke-width:1;stroke-miterlimit:4.02857;stroke-dasharray:none;stroke-opacity:1"
     d="m 14.923249,459.48704 c -0.76138,0 -1.48362,0.27347 -2.03584,0.79938 -0.55221,0.52592 -0.90948,1.37357 -0.80225,2.23137 l -0.0115,-0.18403 v 19.4698 c 0,1.52275 1.32682,2.84958 2.84959,2.84958 h 39.43129 c 1.52277,0 2.84959,-1.32683 2.84959,-2.84958 v -19.4698 c 0,-1.52275 -1.32684,-2.84672 -2.84959,-2.84672 z m 0.0949,2.94448 h 39.24151 v 19.27714 h -39.24151 z"
     id="path1558" />
  <path
     style="color:#000000;fill:#ffffff;fill-opacity:1;stroke:#ffffff;stroke-width:1;stroke-miterlimit:4.02857;stroke-dasharray:none;stroke-opacity:1"
     d="m 317.6813,459.48704 c -0.76137,0 -1.48362,0.27347 -2.03583,0.79938 -0.55222,0.52593 -0.9095,1.37356 -0.80227,2.23137 l -0.0118,-0.18403 v 19.4698 c 0,1.52274 1.32682,2.84958 2.84959,2.84958 h 59.29216 c 1.52277,0 2.84958,-1.32684 2.84958,-2.84958 v -19.4698 c 0,-1.52275 -1.32684,-2.84672 -2.84958,-2.84672 z m 0.0948,2.94448 h 59.10237 v 19.27714 H 317.7761 Z"
     id="path1562" />
  <path
     style="color:#000000;fill:#ffffff;fill-opacity:1;stroke:#ffffff;stroke-width:1;stroke-miterlimit:4.02857;stroke-dasharray:none;stroke-opacity:1"
     d="m 33.901339,483.08601 c -1.64546,0 -3.08901,1.28009 -2.83522,3.05662 l -0.0144,-0.20989 v 19.46978 c 0,1.52276 1.32684,2.84959 2.84958,2.84959 h 26.35367 c 1.52275,0 2.84671,-1.32683 2.84671,-2.84959 v -19.46978 c 0,-1.52277 -1.32394,-2.84673 -2.84671,-2.84673 z m 0.0949,2.94448 h 26.16101 v 19.27714 h -26.161 z"
     id="path1566" />
  <path
     style="color:#000000;fill:#ffffff;fill-opacity:1;stroke:#ffffff;stroke-width:1;stroke-miterlimit:4.02857;stroke-dasharray:none;stroke-opacity:1"
     d="m 64.286409,483.08601 c -1.64545,0 -3.08901,1.28009 -2.83521,3.05662 l -0.0144,-0.20989 v 19.46978 c 0,1.52276 1.32684,2.84959 2.84959,2.84959 h 26.35079 c 1.522746,0 2.849589,-1.32683 2.849589,-2.84959 v -19.46978 c 0,-1.52277 -1.326825,-2.84673 -2.849589,-2.84673 z m 0.0949,2.94448 h 26.161015 v 19.27714 H 64.381319 Z"
     id="path1570" />
  <path
     style="color:#000000;fill:#ffffff;fill-opacity:1;stroke:#ffffff;stroke-width:1;stroke-miterlimit:4.02857;stroke-dasharray:none;stroke-opacity:1"
     d="m 394.08249,388.5895 c -0.76137,1e-5 -1.48361,0.27348 -2.03583,0.79938 -0.55222,0.52591 -0.9095,1.37642 -0.80225,2.23424 l -0.0118,-0.18403 v 19.4698 c 0,1.52276 1.32683,2.84959 2.84959,2.84959 h 31.86018 c 1.52277,0 2.84673,-1.32683 2.84673,-2.84959 v -19.4698 c 0,-1.52277 -1.32397,-2.84959 -2.84673,-2.84959 z m 0.095,2.94448 h 31.66754 V 410.814 h -31.66754 z"
     id="path1574" />
  <path
     style="color:#000000;fill:#ffffff;fill-opacity:1;stroke:#ffffff;stroke-width:1;stroke-miterlimit:4.02857;stroke-dasharray:none;stroke-opacity:1"
     d="m 429.87345,388.5895 c -1.52276,1e-5 -2.93696,1.43787 -2.73746,3.03362 l -0.0118,-0.18403 v 19.4698 c 0,1.52275 1.32682,2.84959 2.84959,2.84959 h 31.85731 c 1.52277,0 2.84958,-1.32684 2.84958,-2.84959 v -19.4698 c 0,-1.52274 -1.32684,-2.84958 -2.84958,-2.84959 z m 0.19552,2.94448 H 461.7365 V 410.814 h -31.66753 z"
     id="path1578" />
  <path
     style="color:#000000;fill:#ffffff;fill-opacity:1;stroke:#ffffff;stroke-width:1;stroke-miterlimit:4.02857;stroke-dasharray:none;stroke-opacity:1"
     d="m 305.58707,483.08601 c -1.64545,0 -2.84958,1.31714 -2.84958,2.84673 v 19.46978 c 0,1.52275 1.32684,2.84959 2.84958,2.84959 h 25.36738 c 1.52276,0 2.8496,-1.32683 2.8496,-2.84959 v -19.46978 c 0,-1.52277 -1.32683,-2.84673 -2.8496,-2.84673 z m 0.095,2.94448 h 25.1776 v 19.27714 h -25.1776 z"
     id="path1582" />
  <path
     style="color:#000000;fill:#ffffff;fill-opacity:1;stroke:#ffffff;stroke-width:1;stroke-miterlimit:4.02857;stroke-dasharray:none;stroke-opacity:1"
     d="m 335.47757,483.08601 c -1.64545,0 -3.08617,1.28007 -2.83234,3.05662 l -0.0147,-0.20989 v 19.46978 c 0,1.52275 1.32396,2.84959 2.84671,2.84959 h 25.37025 c 1.52275,0 2.8496,-1.32683 2.8496,-2.84959 v -19.46978 c 0,-1.52277 -1.32683,-2.84673 -2.8496,-2.84673 z m 0.0978,2.94448 h 25.17759 v 19.27714 h -25.17763 z"
     id="path1586" />
  <path
     style="color:#000000;fill:#ffffff;fill-opacity:1;stroke:#ffffff;stroke-width:1;stroke-miterlimit:4.02857;stroke-dasharray:none;stroke-opacity:1"
     d="m 14.923249,435.78744 c -1.64544,0 -3.08613,1.28297 -2.83234,3.05949 l -0.0172,-0.2099 v 19.46979 c 0,1.52276 1.32684,2.84959 2.84959,2.84959 h 28.02431 c 1.52275,0 2.84959,-1.32683 2.84959,-2.84959 v -19.46979 c 0,-1.52276 -1.32683,-2.84959 -2.84959,-2.84959 z m 0.0949,2.94448 h 27.83453 v 19.28001 h -27.83453 z"
     id="path1590" />
  <path
     style="color:#000000;fill:#ffffff;fill-opacity:1;stroke:#ffffff;stroke-width:1;stroke-miterlimit:4.02857;stroke-dasharray:none;stroke-opacity:1"
     d="m 47.568439,435.78744 c -1.64544,0 -2.84672,1.32001 -2.84672,2.84959 v 19.46979 c 0,1.52276 1.32397,2.84959 2.84672,2.84959 h 18.88032 c 1.52275,0 2.84959,-1.32683 2.84959,-2.84959 v -19.46979 c 0,-1.52276 -1.32682,-2.84959 -2.84959,-2.84959 z m 0.0978,2.94448 h 18.68767 v 19.28001 h -18.68768 z"
     id="path1594" />
  <path
     style="color:#000000;fill:#ffffff;fill-opacity:1;stroke:#ffffff;stroke-width:1;stroke-miterlimit:4.02857;stroke-dasharray:none;stroke-opacity:1"
     d="m 357.70206,388.5895 c -1.52274,1e-5 -2.84958,1.32685 -2.84958,2.84959 v 19.4698 c 0,1.52275 1.32681,2.84959 2.84958,2.84959 h 18.87746 c 1.52276,0 2.84958,-1.32684 2.84958,-2.84959 v -19.4698 c 0,-1.52274 -1.32685,-2.84958 -2.84958,-2.84959 z m 0.095,2.94448 h 18.68765 V 410.814 h -18.68765 z"
     id="path1598" />
  <path
     style="color:#000000;fill:#ffffff;fill-opacity:1;stroke:#ffffff;stroke-width:1;stroke-miterlimit:4.02857;stroke-dasharray:none;stroke-opacity:1"
     d="m 14.923249,412.18847 c -0.76139,0 -1.48363,0.27347 -2.03584,0.79938 -0.55221,0.52591 -0.90948,1.37644 -0.80225,2.23424 l -0.0115,-0.18403 v 19.4698 c 0,1.52275 1.32684,2.84958 2.84959,2.84958 h 45.03558 c 1.52275,0 2.84959,-1.32683 2.84959,-2.84958 v -19.4698 c 0,-1.52275 -1.32683,-2.84959 -2.84959,-2.84959 z m 0.0949,2.94448 h 44.8458 v 19.28001 h -44.8458 z"
     id="path1602" />
  <path
     style="color:#000000;fill:#ffffff;fill-opacity:1;stroke:#ffffff;stroke-width:1;stroke-miterlimit:4.02857;stroke-dasharray:none;stroke-opacity:1"
     d="m 14.923249,388.5895 c -0.76138,1e-5 -1.48362,0.27346 -2.03584,0.79938 -0.55221,0.52591 -0.90948,1.37644 -0.80225,2.23424 l -0.0115,-0.18403 v 19.4698 c 0,1.52275 1.32682,2.84959 2.84959,2.84959 h 32.84359 c 1.52277,0 2.84672,-1.32684 2.84672,-2.84959 v -19.4698 c 0,-1.52275 -1.32397,-2.84958 -2.84672,-2.84959 z m 0.0949,2.94448 h 32.65094 V 410.814 h -32.65094 z"
     id="path1606" />
  <path
     style="color:#000000;fill:#ffffff;fill-opacity:1;stroke:#ffffff;stroke-width:1;stroke-miterlimit:4.02857;stroke-dasharray:none;stroke-opacity:1"
     d="m 346.58837,412.18847 c -1.52958,0 -2.8467,1.20416 -2.8467,2.84959 v 18.48639 c 0,0.71266 0.0621,1.80242 0.81088,2.8007 0.7487,0.99828 2.13549,1.62177 3.90489,1.62177 0.90316,0 1.4794,0.18667 1.7339,0.38243 0.25451,0.19578 0.43132,0.41785 0.43132,1.29108 v 18.38863 c 0,1.52275 1.32685,2.84671 2.8496,2.84671 h 23.10726 c 1.52273,0 2.84958,-1.32396 2.84958,-2.84671 v -42.971 c 0,-1.52275 -1.32682,-2.84959 -2.84958,-2.84959 z m 0.0978,2.94448 h 29.79847 v 42.77834 h -22.91751 v -18.29086 c 0,-1.48667 -0.55773,-2.83843 -1.58151,-3.62596 -1.02378,-0.78752 -2.26812,-0.99203 -3.52819,-0.99203 -1.1805,0 -1.41363,-0.26114 -1.54989,-0.44283 -0.13633,-0.18168 -0.22141,-0.56787 -0.22141,-1.03516 z"
     id="path1610" />
  <path
     style="color:#000000;fill:#ffffff;fill-opacity:1;stroke:#ffffff;stroke-width:1;stroke-miterlimit:4.02857;stroke-dasharray:none;stroke-opacity:1"
     d="m 14.825479,350.73396 c -0.76137,0 -1.48362,0.27347 -2.03583,0.79938 -0.55222,0.52593 -0.90948,1.37357 -0.80226,2.23137 l -0.0115,-0.18116 v 19.46693 c 0,1.52275 1.32683,2.84958 2.84959,2.84958 h 19.07586 c 1.52276,0 2.84958,-1.32683 2.84958,-2.84958 v -19.46693 c 0,-1.52275 -1.32684,-2.84959 -2.84958,-2.84959 z m 0.0949,2.94448 h 18.88608 v 19.27714 h -18.88608 z"
     id="path1614" />
  <path
     style="color:#000000;fill:#ffffff;fill-opacity:1;stroke:#ffffff;stroke-width:1;stroke-miterlimit:4.02857;stroke-dasharray:none;stroke-opacity:1"
     d="m 51.502079,350.73396 c -1.52275,0 -2.84959,1.32684 -2.84959,2.84959 v 19.46693 c 0,1.52275 1.32682,2.84958 2.84959,2.84958 h 25.76419 c 1.52277,0 2.84672,-1.32683 2.84672,-2.84958 v -19.46693 c 0,-1.52275 -1.32397,-2.84959 -2.84672,-2.84959 z m 0.0949,2.94448 h 25.57154 v 19.27714 h -25.57154 z"
     id="path1618" />
  <path
     style="color:#000000;fill:#ffffff;fill-opacity:1;stroke:#ffffff;stroke-width:1;stroke-miterlimit:4.02857;stroke-dasharray:none;stroke-opacity:1"
     d="m 81.395439,350.73396 c -0.76137,0 -1.48361,0.27347 -2.03583,0.79938 -0.55221,0.52593 -0.90948,1.37357 -0.80225,2.23137 l -0.0115,-0.18116 v 19.46693 c 0,1.52275 1.32683,2.84958 2.84959,2.84958 h 25.761321 c 1.52277,0 2.84959,-1.32683 2.84959,-2.84958 v -19.46693 c 0,-1.52275 -1.32684,-2.84959 -2.84959,-2.84959 z m 0.0949,2.94448 h 25.571541 v 19.27714 H 81.490349 Z"
     id="path1622" />
  <path
     style="color:#000000;fill:#ffffff;fill-opacity:1;stroke:#ffffff;stroke-width:1;stroke-miterlimit:4.02857;stroke-dasharray:none;stroke-opacity:1"
     d="m 111.18817,350.73396 c -1.52958,0 -2.84959,1.20416 -2.84959,2.84959 v 19.46693 c 0,1.52275 1.32682,2.84958 2.84959,2.84958 h 25.76132 c 1.52276,0 2.84959,-1.32683 2.84959,-2.84958 v -19.46693 c 0,-1.52275 -1.32684,-2.84959 -2.84959,-2.84959 z m 0.0949,2.94448 h 25.57154 v 19.27714 h -25.57154 z"
     id="path1626" />
  <path
     style="color:#000000;fill:#ffffff;fill-opacity:1;stroke:#ffffff;stroke-width:1;stroke-miterlimit:4.02857;stroke-dasharray:none;stroke-opacity:1"
     d="m 141.08154,350.73396 c -1.52275,0 -2.84959,1.32684 -2.84959,2.84959 v 19.46693 c 0,1.52275 1.32682,2.84958 2.84959,2.84958 h 25.76132 c 1.52276,0 2.84959,-1.32685 2.84959,-2.84958 v -19.46693 c 0,-1.52275 -1.32684,-2.84959 -2.84959,-2.84959 z m 0.0949,2.94448 h 25.57155 v 19.27714 h -25.57154 z"
     id="path1630" />
  <path
     style="color:#000000;fill:#ffffff;fill-opacity:1;stroke:#ffffff;stroke-width:1;stroke-miterlimit:4.02857;stroke-dasharray:none;stroke-opacity:1"
     d="m 170.97203,350.73396 c -1.52275,0 -2.84672,1.32682 -2.84672,2.84959 v 19.46693 c 0,1.52276 1.32396,2.84958 2.84672,2.84958 h 25.7642 c 1.52277,0 2.84671,-1.32682 2.84671,-2.84958 v -19.46693 c 0,-1.52277 -1.32397,-2.84959 -2.84671,-2.84959 z m 0.0978,2.94448 h 25.56867 v 19.27714 h -25.56867 z"
     id="path1634" />
  <path
     style="color:#000000;fill:#ffffff;fill-opacity:1;stroke:#ffffff;stroke-width:1;stroke-miterlimit:4.02857;stroke-dasharray:none;stroke-opacity:1"
     d="m 210.59885,350.73396 c -1.52273,0 -2.84671,1.32684 -2.84671,2.84959 v 19.46693 c 0,1.52273 1.32396,2.84958 2.84671,2.84958 h 25.7642 c 1.52277,0 2.84672,-1.32682 2.84672,-2.84958 v -19.46693 c 0,-1.52277 -1.32397,-2.84959 -2.84672,-2.84959 z m 0.0978,2.94448 h 25.56867 v 19.27714 h -25.56866 z"
     id="path1638" />
  <path
     style="color:#000000;fill:#ffffff;fill-opacity:1;stroke:#ffffff;stroke-width:1;stroke-miterlimit:4.02857;stroke-dasharray:none;stroke-opacity:1"
     d="m 240.49222,350.73396 c -1.52273,0 -2.94735,1.20416 -2.94735,2.84959 v 19.46693 c 0,1.52273 1.32683,2.84958 2.84958,2.84958 h 25.76133 c 1.52276,0 2.84959,-1.32682 2.84959,-2.84958 v -19.46693 c 0,-1.52277 -1.32684,-2.84959 -2.84959,-2.84959 z m -0.003,2.84959 c 0,0.0721 -0.0477,0.095 0.003,0.095 h 25.56867 v 19.27714 h -25.57154 z"
     id="path1642" />
  <path
     style="color:#000000;fill:#ffffff;fill-opacity:1;stroke:#ffffff;stroke-width:1;stroke-miterlimit:4.02857;stroke-dasharray:none;stroke-opacity:1"
     d="m 270.28495,350.73396 c -1.52958,0 -2.8467,1.20416 -2.8467,2.84959 v 19.46693 c 0,1.52273 1.32394,2.84958 2.8467,2.84958 h 25.7642 c 1.52277,0 2.84671,-1.32685 2.84671,-2.84958 v -19.46693 c 0,-1.52275 -1.32396,-2.84959 -2.84671,-2.84959 z m 0.0978,2.94448 h 25.56866 v 19.27714 h -25.56866 z"
     id="path1646" />
  <path
     style="color:#000000;fill:#ffffff;fill-opacity:1;stroke:#ffffff;stroke-width:1;stroke-miterlimit:4.02857;stroke-dasharray:none;stroke-opacity:1"
     d="m 300.17833,350.73396 c -1.52275,0 -2.8496,1.32684 -2.8496,2.84959 v 19.46693 c 0,1.52273 1.32683,2.84958 2.8496,2.84958 h 25.76131 c 1.52276,0 2.84959,-1.32685 2.84959,-2.84958 v -19.46693 c 0,-1.52275 -1.32684,-2.84959 -2.84959,-2.84959 z m 0.0948,2.94448 h 25.57154 v 19.27714 h -25.57154 z"
     id="path1650" />
  <path
     style="color:#000000;fill:#ffffff;fill-opacity:1;stroke:#ffffff;stroke-width:1;stroke-miterlimit:4.02857;stroke-dasharray:none;stroke-opacity:1"
     d="m 330.06881,350.73396 c -1.52275,0 -2.8467,1.32684 -2.8467,2.84959 v 19.46693 c 0,1.52273 1.32394,2.84958 2.8467,2.84958 h 25.7642 c 1.52277,0 2.84959,-1.32685 2.84959,-2.84958 v -19.46693 c 0,-1.52275 -1.32684,-2.84959 -2.84959,-2.84959 z m 0.0978,2.94448 h 25.57154 v 19.27714 h -25.57154 z"
     id="path1654" />
  <path
     style="color:#000000;fill:#ffffff;fill-opacity:1;stroke:#ffffff;stroke-width:1;stroke-miterlimit:4.02857;stroke-dasharray:none;stroke-opacity:1"
     d="m 477.36755,388.5895 c -1.52274,1e-5 -2.84958,1.32685 -2.84958,2.84959 v 19.4698 c 0,1.52275 1.32681,2.84959 2.84958,2.84959 h 19.07585 c 1.52277,0 2.8496,-1.32684 2.8496,-2.84959 v -19.4698 c 0,-1.52274 -1.32685,-2.84958 -2.8496,-2.84959 z m 0.095,2.94448 h 18.88606 V 410.814 h -18.88606 z"
     id="path1658" />
  <path
     style="color:#000000;fill:#ffffff;fill-opacity:1;stroke:#ffffff;stroke-width:1;stroke-miterlimit:4.02857;stroke-dasharray:none;stroke-opacity:1"
     d="m 501.26269,388.5895 c -0.76137,1e-5 -1.48361,0.27348 -2.03583,0.79938 -0.55222,0.52591 -0.9095,1.37642 -0.80225,2.23424 l -0.0118,-0.18403 v 19.4698 c 0,1.52276 1.32683,2.84959 2.8496,2.84959 h 19.07585 c 1.52277,0 2.84959,-1.32683 2.84959,-2.84959 v -19.4698 c 0,-1.52277 -1.32684,-2.84959 -2.84959,-2.84959 z m 0.095,2.94448 h 18.88608 V 410.814 h -18.88608 z"
     id="path1662" />
  <path
     style="color:#000000;fill:#ffffff;fill-opacity:1;stroke:#ffffff;stroke-width:1;stroke-miterlimit:4.02857;stroke-dasharray:none;stroke-opacity:1"
     d="m 525.05719,388.5895 c -1.52957,1e-5 -2.84959,1.20416 -2.84959,2.84959 v 19.4698 c 0,1.52275 1.32682,2.84959 2.84959,2.84959 h 19.07586 c 1.52276,0 2.84959,-1.32684 2.84959,-2.84959 v -19.4698 c 0,-1.52274 -1.32684,-2.84958 -2.84959,-2.84959 z m 0.0948,2.94448 h 18.88609 V 410.814 h -18.88609 z"
     id="path1666" />
  <path
     style="color:#000000;fill:#ffffff;fill-opacity:1;stroke:#ffffff;stroke-width:1;stroke-miterlimit:4.02857;stroke-dasharray:none;stroke-opacity:1"
     d="m 548.95233,388.5895 c -1.52275,1e-5 -2.84959,1.32682 -2.84959,2.84959 v 19.4698 c 0,1.52276 1.32683,2.84959 2.84959,2.84959 h 19.07586 c 1.52277,0 2.84959,-1.32683 2.84959,-2.84959 v -19.4698 c 0,-1.52277 -1.32684,-2.84959 -2.84959,-2.84959 z m 0.095,2.94448 h 18.88609 V 410.814 h -18.88609 z"
     id="path1670" />
  <path
     style="color:#000000;fill:#ffffff;fill-opacity:1;stroke:#ffffff;stroke-width:1;stroke-miterlimit:4.02857;stroke-dasharray:none;stroke-opacity:1"
     d="m 548.95233,412.48464 c -1.52276,0 -2.84959,1.32683 -2.84959,2.84959 v 19.46693 c 0,1.52277 1.32684,2.84958 2.84959,2.84958 h 19.07586 c 1.52275,0 2.84959,-1.32681 2.84959,-2.84958 v -19.46693 c 0,-1.52276 -1.32682,-2.84959 -2.84959,-2.84959 z m 0.095,2.94448 h 18.88609 v 19.27714 h -18.88609 z"
     id="path1674" />
  <path
     style="color:#000000;fill:#ffffff;fill-opacity:1;stroke:#ffffff;stroke-width:1;stroke-miterlimit:4.02857;stroke-dasharray:none;stroke-opacity:1"
     d="m 548.95233,435.98584 c -1.64543,0 -2.84959,1.32 -2.84959,2.84959 v 19.46693 c 0,1.52277 1.32683,2.84958 2.84959,2.84958 h 19.07586 c 1.52277,0 2.84959,-1.32681 2.84959,-2.84958 v -19.46693 c 0,-1.52276 -1.32684,-2.84959 -2.84959,-2.84959 z m 0.095,2.94448 h 18.88609 v 19.27714 h -18.88609 z"
     id="path1678" />
  <path
     style="color:#000000;fill:#ffffff;fill-opacity:1;stroke:#ffffff;stroke-width:1;stroke-miterlimit:4.02857;stroke-dasharray:none;stroke-opacity:1"
     d="m 548.95233,460.36981 c -1.64543,0 -2.84959,1.32 -2.84959,2.84959 v 43.16653 c 0,1.52277 1.32683,2.84959 2.84959,2.84959 h 19.07586 c 1.52277,0 2.84959,-1.32682 2.84959,-2.84959 V 463.2194 c 0,-1.52276 -1.32684,-2.84959 -2.84959,-2.84959 z m 0.095,2.94448 h 18.88609 v 42.97675 h -18.88609 z"
     id="path1682" />
  <path
     style="color:#000000;fill:#ffffff;fill-opacity:1;stroke:#ffffff;stroke-width:1;stroke-miterlimit:4.02857;stroke-dasharray:none;stroke-opacity:1"
     d="m 14.529309,322.12018 c -1.27683,0 -2.45565,1.04777 -2.45565,2.45566 v 13.96326 c 0,0.35115 0.38578,0.54339 0.55784,0.87414 0.0789,0.2248 0.1372,0.56196 0.18978,0.66712 l 0.14377,-0.14384 c 0.22116,0.25784 0.24292,0.66635 0.51471,0.80226 l 3.95089,1.97545 -1.97544,-3.95091 c -0.0984,-0.19667 -0.0431,-0.22506 -0.0431,0.0691 v -13.47444 h 59.19727 c 0.0874,0 -0.13191,0.0783 -0.57509,-0.2933 h 0.28179 c -0.3593,0 -0.55031,-0.23402 -0.35368,-0.0374 l 2.08184,-2.08185 c -0.19669,-0.19668 -0.77888,-0.82525 -1.72816,-0.82525 z"
     id="path1688" />
  <path
     style="color:#000000;fill:#ffffff;fill-opacity:1;stroke:#ffffff;stroke-width:1;stroke-miterlimit:4.02857;stroke-dasharray:none;stroke-opacity:1"
     d="m 73.367139,321.12527 -0.16103,3.24065 0.1294,0.12941 v 13.25879 h -59.12826 c -0.12545,-0.0384 -0.28932,-0.0978 -0.56071,-0.0978 h -2.75183 l 1.52688,2.28888 c 0.22821,0.34231 0.73618,0.42954 1.13006,0.6441 -0.0607,-0.0118 -0.16865,-0.0284 -0.12652,-0.0147 0.0149,0.004 0.11234,0.0162 0.14377,0.0259 0.30278,0.16121 0.45535,0.49172 0.86264,0.49172 h 59.6861 c 1.27685,0 2.45564,-1.04777 2.45564,-2.45566 v -14.061 l -0.0748,0.46581 c 0.18884,-0.5665 0.071,-1.19201 -0.1524,-1.60163 -0.14743,-0.27029 -0.35241,-0.41023 -0.54346,-0.57797 -0.0361,-0.0436 -0.011,-0.0714 -0.0546,-0.11499 l 0.0374,0.0948 c -0.0925,-0.0797 -0.1648,-0.21433 -0.26167,-0.27892 z"
     id="path1690" />
  <path
     style="color:#000000;fill:#ffffff;fill-opacity:1;stroke:#ffffff;stroke-width:1;stroke-miterlimit:4.02857;stroke-dasharray:none;stroke-opacity:1"
     d="m 31.618209,325.7174 -4.43397,1.10992 0.83964,4.47135 4.43397,-1.10992 -0.25592,-1.36299 z"
     id="path1692" />
  <path
     style="color:#000000;fill:#ffffff;fill-opacity:1;stroke:#ffffff;stroke-width:1;stroke-miterlimit:4.02857;stroke-dasharray:none;stroke-opacity:1"
     d="m 17.971239,327.40529 -0.4687,1.30259 h -0.1754 l -0.83964,2.35501 -2.36939,6.68546 h 3.3413 l 0.46295,-1.38886 0.46295,1.38886 h 4.40234 v -0.0978 h 0.1524 0.53484 0.6326 l 0.46295,1.32559 0.36806,-1.22783 h 4.43685 v -0.0978 h 3.14576 v -0.54348 c 0.85227,0.52546 1.85791,0.73957 2.97036,0.54348 h 2.81508 l 0.46295,-1.39174 0.46295,1.39174 h 3.84163 l -0.0489,0.0978 h 4.96306 l 0.0489,-0.0978 3.26653,0.18114 v -1.20769 l 1.00641,-2.0157 h -1.37735 l 0.10927,-4.72152 h -0.62397 v -1.92657 l -1.42048,1.92657 h -0.4457 l -0.43707,0.65561 c -0.37238,0.55856 -0.85091,1.2275 -1.42911,1.99844 -0.56196,0.74927 -1.02226,1.39881 -1.42048,1.98982 l -0.0776,0.0776 h -0.59235 l -1.06105,2.1221 v -2.22268 h -1.11568 l -2.06459,-5.89759 h -1.1013 l -0.4342,-1.20482 -0.43419,1.20482 h -0.30768 l -0.44858,1.25083 c -0.0639,-0.11351 -0.0116,-0.11233 -0.22716,-0.32781 l -0.10351,-0.1035 -0.12077,-0.0805 c -0.96688,-0.64456 -2.20581,-0.89356 -3.49657,-0.60672 l -0.0172,0.006 -0.0201,0.003 c -0.41957,0.10497 -0.76529,0.3493 -1.12143,0.57223 v -0.51759 h -3.833 -1.17607 -0.39394 -2.57066 l -0.19266,0.64123 -0.22429,-0.64123 h -4.4886 l -0.0345,-0.0978 h -1.04668 -0.12077 z m 42.38153,2.67993 c -0.2057,0 -0.55201,0.0624 -0.87414,0.12073 l 0.0115,-0.023 h -4.20679 l 0.0575,0.58947 h -1.06392 l -1.08118,3.24065 h 0.81951 l -0.21853,0.59522 h -0.84539 l -1.57001,3.14001 h 6.00111 l 0.0316,-0.0978 h 4.20393 l 0.20991,-0.48885 c 0.45427,0.26932 0.84737,0.68437 1.37448,0.68437 0.63873,0 1.29164,-0.13456 1.90068,-0.54059 0.17852,-0.11895 0.43437,-0.34287 0.66999,-0.52908 0.53943,0.68791 1.32619,1.06967 2.15085,1.06967 0.63873,0 1.28876,-0.13456 1.89781,-0.54059 0.29496,-0.19665 0.69925,-0.46346 1.10993,-0.87414 0.41066,-0.41067 0.72273,-0.88476 0.96328,-1.36584 0.28444,-0.56889 0.40775,-1.08754 0.50608,-1.48087 0.14385,-0.57539 0.11299,-1.55672 -0.49746,-2.30326 -0.53766,-0.72754 -1.36447,-1.09842 -2.21123,-1.09842 -0.63873,0 -1.10049,0.15723 -1.43773,0.24153 l -0.2473,0.0604 -0.21278,0.14089 c -0.0843,0.0562 -0.40997,0.38757 -0.6441,0.54633 l 0.12939,0.15817 c -0.0226,-0.0339 -0.0739,-0.0166 -0.0978,-0.0489 -0.024,-0.0293 -0.02,-0.0664 -0.046,-0.0948 -0.02,0.0133 -0.0341,0.0309 -0.0546,0.0459 -0.53993,-0.65942 -1.29941,-1.04955 -2.10772,-1.04955 -0.63873,0 -1.10049,0.15724 -1.43774,0.24154 l -0.24729,0.0604 -0.21278,0.14089 c -0.0696,0.0464 -0.35301,0.3429 -0.53196,0.45145 l -0.16678,-0.16964 c -0.54366,-0.54367 -1.14026,-0.8224 -2.02433,-0.8224 z m -25.76707,1.66778 c 0,0.0721 -0.0476,0.0948 0.003,0.0948 0.0455,0 0.0905,0.0452 0.10351,0.0805 v 0.71311 h -0.0978 c 0.0144,-0.28733 -0.0353,-0.4797 -0.0115,-0.76488 l 0.003,-0.0633 z m 36.80024,2.72594 -0.17253,0.35368 c 0.009,-0.0133 -2.5e-4,-0.0118 0.009,-0.0259 0.0468,-0.11277 0.12452,-0.20968 0.1639,-0.3278 z m -0.57222,1.17607 -0.092,0.16102 c 0.0259,-0.0387 0.0355,-0.0847 0.0604,-0.12367 0.0124,-0.0234 0.0196,-0.0132 0.0316,-0.0374 z m -21.81905,1.67927 c 0.0349,0.0169 0.0696,0.0495 0.10351,0.0633 l -0.0288,0.0546 h -0.51759 c 0.18772,0 0.20464,-0.0694 0.33068,-0.1035 0.0314,-10e-4 0.0245,0.004 0.0863,-0.003 0.004,-4.8e-4 0.0211,-0.0103 0.0259,-0.0118 z m 5.81132,0.11793 h 0.0173 l -0.0518,0.1007 h -0.16678 z m -9.0376,0.0718 0.49458,0.0287 h -0.56071 c 0.0315,0 0.0345,-0.0258 0.0661,-0.0287 z m -10.82901,0.006 c 0.0334,-0.003 0.0701,0.0133 0.10351,0.009 l -0.003,0.006 -0.15528,0.009 c 0.0241,0 0.031,-0.0222 0.0546,-0.023 z"
     id="path1694" />
  <path
     style="color:#000000;fill:#ffffff;fill-opacity:1;stroke:#ffffff;stroke-width:1;stroke-miterlimit:4.02857;stroke-dasharray:none;stroke-opacity:1"
     d="m 534.79352,350.04385 c -0.5399,0 -0.90784,0.22638 -1.17606,0.49458 -0.26823,0.2682 -0.49457,0.63615 -0.49457,1.17607 v 2.36076 c 0,0.5399 0.22637,0.90783 0.49457,1.17606 0.26821,0.26823 0.63615,0.49171 1.17606,0.49171 h 17.50298 c 0.53991,0 0.90784,-0.2235 1.17607,-0.49171 0.26822,-0.2682 0.49171,-0.63614 0.49171,-1.17606 v -2.36076 c 0,-0.5399 -0.22352,-0.90784 -0.49171,-1.17607 -0.2682,-0.26823 -0.63614,-0.49458 -1.17607,-0.49458 z m 0,10.13027 c -0.5399,0 -0.90784,0.22352 -1.17606,0.49171 -0.26823,0.2682 -0.49457,0.63614 -0.49457,1.17607 v 2.36075 c 0,0.5399 0.22637,0.90785 0.49457,1.17607 0.26821,0.26823 0.63615,0.4917 1.17606,0.4917 h 17.50298 c 0.53991,0 0.90784,-0.2235 1.17607,-0.4917 0.26822,-0.26819 0.49171,-0.63615 0.49171,-1.17607 v -2.36075 c 0,-0.53991 -0.22352,-0.90784 -0.49171,-1.17607 -0.2682,-0.26822 -0.63614,-0.49171 -1.17607,-0.49171 z"
     id="path1696" />
  <path
     style="color:#000000;fill:#ffffff;fill-opacity:1;stroke:#ffffff;stroke-width:1;stroke-miterlimit:4.02857;stroke-dasharray:none;stroke-opacity:1"
     d="m 534.79352,370.30153 c -0.5399,0 -0.90784,0.2235 -1.17606,0.49169 -0.26823,0.26822 -0.49457,0.63616 -0.49457,1.17607 v 2.36077 c 0,0.5399 0.22637,0.90784 0.49457,1.17607 0.26821,0.26823 0.63615,0.4917 1.17606,0.4917 h 17.50298 c 0.53991,0 0.90784,-0.2235 1.17607,-0.4917 0.26822,-0.26821 0.49171,-0.63616 0.49171,-1.17607 v -2.36077 c 0,-0.5399 -0.22352,-0.90784 -0.49171,-1.17607 -0.2682,-0.26822 -0.63614,-0.49169 -1.17607,-0.49169 z"
     id="path1698" />
  <path
     style="color:#000000;fill:#ffffff;fill-opacity:1;fill-rule:evenodd;stroke:#ffffff;stroke-width:1;stroke-miterlimit:4.02857;stroke-dasharray:none;stroke-opacity:1"
     d="m 536.85812,370.891 c -0.63823,0 -1.1044,0.27338 -1.44637,0.61535 -0.34196,0.34197 -0.61535,0.80814 -0.61535,1.44636 v 0.29617 c 0,0.63821 0.27339,1.1044 0.61535,1.44635 0.34197,0.34198 0.80814,0.61536 1.44637,0.61536 h 13.37093 c 0.47465,0 0.97181,-0.15231 1.38596,-0.52046 0.41417,-0.36816 0.67862,-0.97655 0.67862,-1.54125 v -0.29617 c 0,-0.63822 -0.27627,-1.10439 -0.61823,-1.44636 -0.34197,-0.34197 -0.80814,-0.61535 -1.44635,-0.61535 z"
     id="path1700" />
  <path
     style="color:#000000;fill:#ffffff;fill-opacity:1;stroke:#ffffff;stroke-width:1;stroke-miterlimit:4.02857;stroke-dasharray:none;stroke-opacity:1"
     d="m 406.86682,349.25885 1.37448,1.37447 h -2.84672 v 1.57001 19.47266 c 0,0.54176 0.3542,0.97383 0.53483,1.47513 h -7.79539 l -1.0783,3.24065 h 11.60252 1.92368 9.144 l 1.17894,-3.53395 h -2.04446 c -0.19665,0 -0.11262,0.0133 -0.22141,-0.023 l -0.9374,-0.31342 c -0.0203,-0.0286 -0.12073,-0.11145 -0.12073,-0.15815 0,-0.14089 0.0782,-0.72997 0.17252,-1.39461 l 3.78124,-15.52465 -0.0317,-0.26453 -0.19553,-1.67065 -2.88984,-0.18403 -4.13205,16.61733 0.0147,-0.0489 c -0.24753,0.86637 -0.25303,1.58442 -0.25303,2.07608 0,0.50776 0.33805,0.77705 0.52621,1.18182 h -2.90997 l 0.0977,-0.2933 h -2.04445 c -0.295,0 -0.18327,-0.0197 -0.0287,0.0576 l -0.83963,1.67928 -0.43133,-0.5981 0.16678,-1.3601 0.64123,0.31917 c -0.0571,-0.0763 -0.21344,-0.43709 -0.29618,-1.02941 v -22.66742 z m 17.30457,0.49171 v 2.94448 h -0.67286 l 2.18823,14.27094 -0.13794,0.24155 0.69011,0.39394 -3.64898,5.54965 h -0.87414 v 3.33841 h 3.05375 l 12.92523,-19.74009 -0.56071,-0.36806 1.04954,-1.59588 -2.45852,-1.61889 -7.44172,11.32072 -2.25723,-14.73677 z m 20.47333,0 -0.14089,0.42557 c -0.93069,0.11778 -1.82727,0.37034 -2.53617,1.05241 -0.98775,0.85196 -1.50834,2.10419 -1.83454,3.73524 l 0.0147,-0.0691 -3.84162,15.27736 -0.009,0.0344 c -0.17212,0.86062 -0.41257,1.55642 -0.27605,2.54191 0.006,0.15698 0.1753,0.25032 0.20992,0.40257 h -8.59766 l -1.08117,3.24065 h 15.28885 l 0.16391,-0.98342 h 0.0776 l -0.0661,-0.0661 0.4112,-2.4844 h -2.87259 c -0.009,-0.007 -0.0191,-0.0639 -0.023,-0.0691 0.0118,-0.31831 0.0714,-0.8422 0.23867,-1.68502 l 3.81862,-15.27449 c 0.34446,-1.2917 0.79828,-2.02816 0.96041,-2.21123 0.19998,-0.14877 0.67061,-0.33355 1.64765,-0.33355 h 1.06104 l 1.17894,-3.53395 z m -40.82877,2.9876 -9.79959,12.215 0.66136,0.52908 h -1.01217 l -1.90069,2.40677 -1.68502,1.98119 -0.0259,0.0374 c -0.45984,0.61316 -0.70696,1.20135 -0.73612,1.24507 l -0.10924,0.16391 -0.0633,0.18691 c -0.0492,0.14752 -0.11984,0.34289 -0.17252,0.63259 -0.0324,0.17838 0.0543,0.50472 0.095,0.78789 0.0147,0.14693 0.14836,0.1961 0.1869,0.32781 h -0.14663 c 0.0243,0.0658 -0.0147,0.0951 0.0202,0.16389 l -0.0374,-0.16389 h -4.2298 l -1.08118,3.23776 h 10.69386 v -1.2767 h 1.8173 l -1.8173,-1.21057 v -0.48308 l -0.81375,-0.40832 c -0.32947,-0.16476 -0.51006,-0.13206 -0.75051,-0.15239 l -0.37093,-0.2473 0.023,-0.0892 c -0.0132,0.0528 0.14722,-0.25557 0.4227,-0.62972 l 1.64764,-1.94095 1.04954,-1.32847 h 8.8018 l -1.0783,-3.24065 h -1.06104 -4.09467 l 5.56691,-6.95863 z m -14.00066,18.86883 c -0.0381,0.0763 0.003,0.0825 -0.0259,0.15239 -0.0216,0.0685 -0.0649,0.0757 -0.0833,0.14954 z m 28.91859,1.70228 1.0553,0.52621 -0.18692,0.75337 -1.15881,0.63548 -0.12073,-0.16965 z"
     id="path1702" />
  <path
     style="color:#000000;fill:#ffffff;fill-opacity:1;stroke:#ffffff;stroke-width:1;stroke-miterlimit:4.02857;stroke-dasharray:none;stroke-opacity:1"
     d="m 447.16075,351.05027 -0.0978,0.29617 2.79208,0.93165 0.0978,-0.29617 z"
     id="path1704" />
  <path
     style="color:#000000;fill:#ffffff;fill-opacity:1;stroke:#ffffff;stroke-width:1;stroke-miterlimit:4.02857;stroke-dasharray:none;stroke-opacity:1"
     d="m 458.70576,349.75056 -0.14384,0.42557 c -0.82899,0.11733 -1.61683,0.35698 -2.24285,0.9604 -1.03552,0.89904 -1.4025,2.11718 -1.80868,3.64035 l -0.003,0.009 -3.83012,15.22272 c -0.31487,1.15447 -0.44571,1.91185 -0.44571,2.55054 0,0.23713 0.25548,0.37167 0.30769,0.59236 h -8.35324 l -1.0783,3.24065 h 15.00131 l 0.39106,-1.17894 h 1.04954 l -0.85688,-0.57222 0.59235,-1.78279 h -3.26653 l -0.2243,-0.14952 c 0.0103,-0.20659 0.0611,-0.7049 0.31343,-1.63041 l 0.003,-0.0147 3.83299,-15.23424 0.003,-0.006 c 0.37161,-1.38884 0.79898,-2.11173 0.89427,-2.19112 0.24389,-0.20325 0.6306,-0.34792 1.4176,-0.34792 h 1.06105 l 1.17894,-3.53395 z m -3.88763,25.46227 h 0.99491 l -0.19554,0.58947 h -0.3738 z"
     id="path1706" />
  <g
     fill="#777878"
     id="g1712"
     style="fill:#ffffff;fill-opacity:1;stroke:#ffffff;stroke-width:0.679237;stroke-miterlimit:4.02857;stroke-dasharray:none;stroke-opacity:1"
     transform="matrix(1.4722397,0,0,1.4722397,4.5830594,-114.34139)">
    <path
       style="color:#000000;fill:#ffffff;fill-opacity:1;stroke:#ffffff;stroke-width:0.679237;stroke-miterlimit:4.02857;stroke-dasharray:none;stroke-opacity:1"
       d="m 322.81836,314.82812 0.4375,1.31641 c 0.0149,0.0446 0.036,0.14471 0.0606,0.25 l -0.61329,3.375 h -0.23242 v 2.20117 h 2.23438 l 0.96875,-5.31836 v -0.0898 c 0,0 2.1e-4,-0.17018 -0.0254,-0.375 -0.0256,-0.20482 0.0769,-0.45433 -0.40235,-0.93359 -0.18464,-0.18464 -0.39763,-0.30052 -0.57422,-0.35938 -0.17658,-0.0589 -0.40039,-0.0664 -0.40039,-0.0664 z m -2.62109,0.66797 c -1.40993,0 -2.99861,0.52096 -4.31641,1.45118 -1.22472,0.8645 -2.76292,2.22609 -3.61133,4.15429 -0.77463,1.76052 -1.29227,3.65634 -1.21875,5.71485 v 0.004 0.002 c 0.0729,1.74839 0.53237,3.2263 1.5332,4.31054 l 0.0137,0.0137 0.0137,0.0156 c 0.32573,0.32573 0.74647,0.59085 1.17187,0.84766 0.0565,0.0391 0.16519,0.14977 0.20508,0.17968 L 314,332.16797 c 0.0748,0.0382 0.11417,0.10669 0.19336,0.14062 l 0.99414,-1.71875 c -0.33116,-0.24836 -0.55239,-0.39166 -0.6875,-0.56054 l -0.0215,-0.0273 -0.0234,-0.0254 c -0.60178,-0.65192 -0.94536,-1.58659 -1.00586,-2.9707 -3e-5,-7.5e-4 3e-5,-10e-4 0,-0.002 -0.0585,-1.67871 0.3591,-3.25364 1.05273,-4.83008 0.62095,-1.41125 1.88749,-2.58775 2.9336,-3.32617 0.95302,-0.67273 2.30316,-1.08594 3.16406,-1.08594 0.37228,0 0.49066,0.0387 0.75781,0.10547 l 0.86719,-1.75196 c -0.10396,-0.0832 -0.2924,-0.0583 -0.41211,-0.125 l 0.0312,-0.0645 c -0.0906,-0.0226 -0.29742,-0.0301 -0.42188,-0.0547 -0.39512,-0.15111 -0.74052,-0.375 -1.2246,-0.375 z m -7.25782,15.78321 c 0.0111,0.0139 0.0181,0.0118 0.0293,0.0254 0.007,0.008 0.008,0.0196 0.0156,0.0273 z"
       id="path1708" />
    <path
       style="color:#000000;fill:#ffffff;fill-opacity:1;stroke:#ffffff;stroke-width:0.679237;stroke-miterlimit:4.02857;stroke-dasharray:none;stroke-opacity:1"
       d="m 323.55078,323.44336 -0.13476,0.40234 c -0.21593,0.0694 -0.51125,0.0955 -0.66016,0.16992 l -0.0547,0.0293 -0.0527,0.0332 c -0.32838,0.21892 -0.65003,0.54029 -0.87305,0.98633 -0.18605,0.37209 -0.27629,0.73495 -0.41992,1.45313 l 0.01,-0.0469 -1.0664,4.26367 c -1.4363,0.52205 -2.94853,0.85743 -4.57617,0.85743 -1.34815,0 -2.39538,-0.23719 -3.33985,-0.65039 l -0.84765,1.81054 c 0.0143,0.007 0.0811,0.0728 0.33398,0.19922 1.2326,0.6163 2.66334,0.90821 4.25391,0.9082 2.05182,0 4.00403,-0.35771 5.81445,-1.15429 l 0.44727,-0.19727 1.32812,-5.30664 0.004,-0.0234 c 0.12352,-0.6176 0.30051,-1.0561 0.24804,-0.95117 0.0441,-0.0883 0.121,-0.16855 0.19336,-0.21679 -0.0983,0.0655 0.14872,-0.0464 0.58985,-0.10938 l 0.74218,-0.10547 0.33594,-2.35156 z"
       id="path1710" />
  </g>
  <path
     style="color:#000000;fill:#ffffff;fill-opacity:1;stroke:#ffffff;stroke-width:1;stroke-miterlimit:4.02857;stroke-dasharray:none;stroke-opacity:1"
     d="m 500.08088,349.25885 1.37447,1.37447 h -2.84671 v 1.57001 19.47266 c 0,0.54192 0.35696,0.97371 0.53771,1.47513 h -7.7954 l -1.07829,3.24065 h 13.5262 l 1.17607,-3.53395 h -2.04159 c -0.29499,0 -0.18326,-0.0197 -0.0287,0.0576 l -0.83964,1.68216 -0.4342,-0.60097 0.16967,-1.36299 0.63834,0.32206 c -0.0571,-0.0763 -0.21056,-0.43711 -0.2933,-1.02941 v -22.66732 z m -2.36077,2.80645 -10.38619,12.88497 0.66136,0.53197 h -1.11568 l -1.90069,2.40677 -1.68214,1.98119 -0.0259,0.0374 c -0.45984,0.61316 -0.70697,1.20135 -0.73612,1.24507 l -0.10924,0.16391 -0.0633,0.18691 c -0.0492,0.14752 -0.12278,0.34289 -0.1754,0.63259 -0.0324,0.17776 0.0579,0.5031 0.0978,0.78502 0.0132,0.14797 0.14809,0.1981 0.1869,0.33068 h -0.14664 c 0.0243,0.0658 -0.0147,0.0951 0.0202,0.16389 l -0.0374,-0.16389 h -4.13205 l -1.08117,3.23776 h 10.69387 v -1.2767 h 1.71953 l -1.71953,-1.14731 v -0.69874 l -1.00643,-0.33642 c -0.3304,-0.11013 -0.51967,-0.10306 -0.7246,-0.11793 l -0.30193,-0.20128 0.023,-0.0892 c -0.0132,0.0529 0.14722,-0.25557 0.42269,-0.62972 l 1.64764,-1.94095 1.04955,-1.32847 h 8.13183 v -3.24065 h -1.47224 -3.98827 l 6.15062,-7.64587 z m -14.68788,19.54169 c -0.0361,0.0721 10e-4,0.0774 -0.0259,0.14369 -0.023,0.0717 -0.0668,0.0804 -0.0863,0.15816 z"
     id="path1714" />
  <g
     fill="#e8e8e8"
     id="g1724"
     style="fill:#ffffff;fill-opacity:1;stroke:#ffffff;stroke-width:0.679237;stroke-miterlimit:4.02857;stroke-dasharray:none;stroke-opacity:1"
     transform="matrix(1.4722397,0,0,1.4722397,4.5830594,-114.34139)">
    <path
       style="color:#000000;fill:#ffffff;fill-opacity:1;stroke:#ffffff;stroke-width:0.679237;stroke-miterlimit:4.02857;stroke-dasharray:none;stroke-opacity:1"
       d="m 272.56836,314.89453 -11.32227,13.99805 -0.002,0.002 c -0.77442,0.96803 -1.35979,1.57972 -1.64844,1.79102 -0.2701,0.15658 -0.56351,0.2889 -0.74023,0.31836 l -0.59375,0.0996 -0.76367,2.2871 h 2.57617 l 0.16406,-0.48828 c 0.31306,-0.10685 0.6252,-0.15722 0.92188,-0.39062 0.64104,-0.46412 1.23623,-1.15581 2.04296,-2.16406 l 0.004,-0.004 2.39649,-2.96289 h 3.50195 v 1.80469 c 0,0.81697 -0.0989,1.2994 -0.16016,1.42187 -0.1304,0.20326 -0.22784,0.32584 -0.15429,0.28906 0.17172,-0.0859 0.0457,-0.0197 -0.11915,0.008 -0.16482,0.0275 -0.41551,0.0597 -0.73632,0.0918 l -0.64453,0.0645 -0.7754,2.33007 h 2.57422 l 0.0957,-0.2871 c 0.0652,-0.009 0.15782,-0.0175 0.21679,-0.0274 0.23592,-0.0393 0.37829,-0.0387 0.6836,-0.1914 l 0.0547,-0.0274 0.0527,-0.0351 c 0.31686,-0.21125 0.6512,-0.58778 0.9082,-1.08008 0.4363,-0.74473 0.40625,-1.44838 0.40625,-2.35742 v -3.33594 h -0.40039 l 0.0606,-4.87305 0.20508,-0.27344 -0.33008,-0.24804 2.88086,-3.56055 h 0.65625 v -2.19922 z m 6.30078,0.33399 -0.80078,2.40039 h 2.85547 v -0.20118 h 5.47656 v -2.19921 z m 14.52344,2.5039 -0.83789,1.21875 -2.50977,10.17774 c -0.24221,0.90828 -0.5689,1.40312 -0.67578,1.49218 -0.13207,0.11006 -0.58246,0.30274 -1.29687,0.30274 h -0.72071 l -0.80078,2.40039 h 2.47461 l 0.0996,-0.20117 c 0.71994,-0.0586 1.41154,-0.21295 1.95703,-0.74024 0.66798,-0.57754 1.0104,-1.39836 1.29688,-2.47265 l 0.002,-0.008 2.80664,-11.36328 z M 269.14648,323 l -0.0273,2.17969 h -1.73633 z"
       id="path1716" />
    <path
       style="color:#000000;fill:#ffffff;fill-opacity:1;stroke:#ffffff;stroke-width:0.679237;stroke-miterlimit:4.02857;stroke-dasharray:none;stroke-opacity:1"
       d="m 293.81445,315.22852 -7.50976,11.33398 0.35351,0.23437 -0.28711,0.43165 1.66602,1.10742 7.25,-10.90821 h 4.88867 l -0.0664,0.20118 h 1.38868 c 0.13357,0 0.24372,0.073 0.0195,-0.0391 l 0.99414,0.49805 c -0.0233,0.23033 -0.0375,0.43196 -0.12305,0.86328 l -2.5957,10.32422 v 0.002 c -0.24338,0.97352 -0.63681,1.50242 -0.58985,1.46485 l -0.043,0.0351 -0.0391,0.0391 c -0.004,0.004 -0.33894,0.17382 -1.02929,0.17382 h -0.72266 l -0.79883,2.40039 h 2.85352 v -0.29882 c 0.53042,-0.0876 1.03356,-0.25036 1.44531,-0.66211 0.56965,-0.56965 0.90126,-1.35774 1.19336,-2.45313 l 0.002,-0.006 2.61328,-10.38281 0.004,-0.0254 c 0.13861,-0.69303 0.2207,-1.19678 0.2207,-1.66406 0,-0.18837 -0.19533,-0.29812 -0.24414,-0.47071 h 5.57422 l 0.73438,-2.19921 h -9.48438 -0.57226 z m -12.10742,0.90625 -0.80469,1.38867 -0.0762,-0.27539 -3.0664,11.92968 c -0.22915,0.80201 -0.51313,1.24025 -0.91993,1.55664 l -0.006,0.004 -0.006,0.004 c -0.10539,0.0843 -0.30919,0.18164 -0.84375,0.18164 h -0.84765 l -0.40039,2.40039 h 2.64844 v -0.42969 c 0.37019,-0.0975 0.79678,-0.0887 1.08984,-0.32226 0.79043,-0.61842 1.30533,-1.51397 1.60937,-2.57813 l 0.004,-0.0117 1.83984,-7.16015 1.53907,10.56835 h 1.19922 v -2 h 0.53125 l -1.78516,-12.24804 0.1582,-0.68555 -0.49219,-0.11328 0.22657,-0.88281 -0.40235,-0.4043 c -0.27664,-0.27664 -0.56952,-0.472 -0.86718,-0.66992 -0.0768,-0.0629 -0.12923,-0.12847 -0.22071,-0.18945 l -0.008,0.0137 c -0.036,-0.0198 -0.0626,-0.0576 -0.0996,-0.0762 z m 21.10547,1.29296 h 0.15625 l -0.20703,0.20704 z m 13.91406,5.94922 -0.125,0.86719 h -0.0859 l 0.0762,0.0762 -0.21875,1.52344 h 1.15429 0.58789 l 0.10743,0.10742 c 0.1218,0.1218 0.041,0.0271 0.041,-0.0391 0,-0.0219 -0.0455,0.45542 -0.23242,1.14062 l -0.004,0.01 -0.92382,3.69531 c -0.26635,0.0645 -0.60862,0.16602 -0.7129,0.16602 -0.36764,0 -0.68064,-0.0852 -1.07421,-0.25391 l -0.94922,1.75195 c 0.0573,0.0382 0.12158,0.0181 0.17968,0.0527 l -0.0195,0.0352 c 0.18,0.0771 0.42159,0.0773 0.61914,0.13867 0.5493,0.21619 1.10102,0.47461 1.64454,0.47461 0.62295,0 1.21025,-0.17035 1.85351,-0.38477 l 0.51953,-0.17383 1.19727,-4.78515 c 0.21386,-0.78416 0.30273,-1.24343 0.30273,-1.66602 0,-0.20995 -0.20783,-0.34166 -0.27929,-0.53711 h 4.875 l 0.73437,-2.19922 z m -16.1914,8.85352 -0.084,0.0742 c 0.0162,-0.0129 0.0214,-0.0337 0.0371,-0.0469 0.0141,-0.0134 0.0329,-0.0134 0.0469,-0.0273 z m -22.45704,0.0742 -0.0117,0.008 c 0.002,-0.002 0.004,-0.004 0.006,-0.006 0.002,-10e-4 0.004,-6.8e-4 0.006,-0.002 z"
       id="path1718" />
    <path
       style="color:#000000;fill:#ffffff;fill-opacity:1;stroke:#ffffff;stroke-width:0.679237;stroke-miterlimit:4.02857;stroke-dasharray:none;stroke-opacity:1"
       d="m 321.26758,314.75977 c -0.98267,0 -1.77061,0.0684 -1.8711,0.0684 h -0.0254 -0.0254 c -2.82432,0.14122 -5.43368,0.93171 -7.67383,2.52149 l -0.0117,0.008 -0.01,0.008 c -2.86569,2.14928 -4.35356,5.0205 -4.20703,8.39063 v 0.002 0.002 c 0.0745,1.56377 0.53408,3.02124 1.36328,4.30273 0.8133,1.25691 1.8299,2.20596 3.0625,2.82227 l 0.21094,0.10546 h 3.83594 l -3.00782,-1.85156 c -0.75226,-0.46293 -1.43791,-1.09105 -2.02539,-1.9707 -0.63651,-0.98624 -0.97945,-2.06228 -1.03906,-3.29883 -0.12063,-2.77446 0.92882,-4.84505 3.40625,-6.70312 1.89165,-1.40227 3.99338,-2.01173 6.5957,-2.13868 h -0.0488 c 0.43383,0 0.98367,-0.0664 1.8711,-0.0664 0.73468,0 1.61585,6.8e-4 2.83398,0.1289 l 1.10352,0.11524 v -1.11133 c 0,0 0.0143,-0.22526 -0.11328,-0.48047 -0.10751,-0.21502 -0.47823,-0.41481 -0.80274,-0.49414 l 0.0215,-0.0195 c -0.0254,-0.003 -0.0334,6.2e-4 -0.0586,-0.002 -0.0456,-0.009 -0.0696,-0.0703 -0.11328,-0.0703 l 0.17188,0.0723 0.53515,0.2207 c -0.18464,-0.18464 -0.39763,-0.29856 -0.57422,-0.35742 -0.17658,-0.0589 -0.40039,-0.0684 -0.40039,-0.0684 -1.3064,-0.12504 -2.22815,-0.13476 -3.0039,-0.13476 z"
       id="path1720" />
    <path
       style="color:#000000;fill:#ffffff;fill-opacity:1;stroke:#ffffff;stroke-width:0.679237;stroke-miterlimit:4.02857;stroke-dasharray:none;stroke-opacity:1"
       d="m 335.95117,314.89453 -11.32226,13.99805 -0.002,0.002 c -0.77442,0.96803 -1.35979,1.57972 -1.64843,1.79102 -0.27011,0.15658 -0.56352,0.2889 -0.74024,0.31836 l -0.59375,0.0996 -0.76367,2.2871 h 2.57617 l 0.16406,-0.48828 c 0.31306,-0.10685 0.6252,-0.15722 0.92188,-0.39062 0.64105,-0.46412 1.23623,-1.15581 2.04297,-2.16406 l 0.004,-0.004 2.39649,-2.96289 h 3.50195 v 1.80469 c 0,0.81697 -0.0989,1.2994 -0.16016,1.42187 -0.1304,0.20326 -0.22783,0.32584 -0.15429,0.28906 0.17172,-0.0859 0.0476,-0.0197 -0.11719,0.008 -0.16482,0.0275 -0.41747,0.0597 -0.73828,0.0918 l -0.64453,0.0645 -0.77539,2.33007 h 2.57422 l 0.0957,-0.2871 c 0.0652,-0.009 0.15782,-0.0175 0.2168,-0.0274 0.23591,-0.0393 0.37829,-0.0387 0.68359,-0.1914 l 0.0566,-0.0274 0.0508,-0.0351 c 0.31687,-0.21125 0.65121,-0.58778 0.9082,-1.08008 0.4363,-0.74473 0.40625,-1.44838 0.40625,-2.35742 v -3.26954 h -0.46484 l 0.12109,-4.89843 0.16993,-0.19727 -0.34571,-0.29687 2.93555,-3.62891 h 0.65625 v -2.19922 z m -13.43555,1.375 -1.00195,1.72656 c -0.0428,-0.0285 0.22001,0.21679 0.47852,0.4375 0.27093,0.30104 0.41427,1.14209 0.54883,2.68946 l 0.0801,0.91406 h 0.91602 1.5 l -0.10352,-1.0957 c -0.1323,-1.38915 -0.12209,-2.64944 -1.08984,-3.61719 -0.29464,-0.29464 -0.62808,-0.53617 -0.97656,-0.77539 -0.0937,-0.0857 -0.0878,-0.11258 -0.24414,-0.2168 l -0.01,0.0156 c -0.0393,-0.0217 -0.0564,-0.0575 -0.0977,-0.0781 z m 9.98438,6.76563 -0.0527,2.14453 h -1.68165 z"
       id="path1722" />
  </g>
</svg>
