<?xml version="1.0" encoding="UTF-8" standalone="no"?>
<svg
   viewBox="0 0 357.33402 122.68282"
   version="1.1"
   id="svg242"
   sodipodi:docname="amigacdtv_controller.svg"
   width="357.33401"
   height="122.68283"
   inkscape:version="1.1.2 (0a00cf5339, 2022-02-04)"
   xmlns:inkscape="http://www.inkscape.org/namespaces/inkscape"
   xmlns:sodipodi="http://sodipodi.sourceforge.net/DTD/sodipodi-0.dtd"
   xmlns="http://www.w3.org/2000/svg"
   xmlns:svg="http://www.w3.org/2000/svg">
  <defs
     id="defs246" />
  <sodipodi:namedview
     id="namedview244"
     pagecolor="#ffffff"
     bordercolor="#666666"
     borderopacity="1.0"
     inkscape:pageshadow="2"
     inkscape:pageopacity="0.0"
     inkscape:pagecheckerboard="true"
     showgrid="false"
     fit-margin-top="0"
     fit-margin-left="0"
     fit-margin-right="0"
     fit-margin-bottom="0"
     inkscape:zoom="2.3198516"
     inkscape:cx="178.24416"
     inkscape:cy="61.210812"
     inkscape:window-width="2560"
     inkscape:window-height="1440"
     inkscape:window-x="1920"
     inkscape:window-y="0"
     inkscape:window-maximized="1"
     inkscape:current-layer="svg242" />
  <path
     d="M 144.917,10.016 V 2.485 A 0.987,0.987 0 0 0 143.933,1.501 H 11.625003 c -5.569,-10e-4 -10.125,4.556 -10.125,10.124 v 87.75 c 0.75,8.208 6,12.625 13.167,14 C 47.542,118.5 128.753,121.382 178.667,121.172 c 49.914,0.21 131.125,-2.672 164,-7.797 7.167,-1.375 12.417,-5.792 13.167,-14 V 11.625 C 355.834,6.056 351.278,1.5 345.709,1.5 H 213.401 a 0.987,0.987 0 0 0 -0.984,0.984 v 7.765 a 0.753,0.753 0 0 1 -0.75,0.75 h -66 c -0.413,0 -0.75,-0.338 -0.75,-0.75 z"
     fill="#2b2b2d"
     id="path2"
     style="fill:none;stroke:#ffffff;stroke-width:3;stroke-miterlimit:10;stroke-dasharray:none;stroke-opacity:1" />
  <g
     fill="#232323"
     id="g6"
     transform="rotate(-90,61.341498,59.841498)"
     style="fill:none;stroke:#ffffff;stroke-width:3;stroke-miterlimit:10;stroke-dasharray:none;stroke-opacity:1">
    <path
       d="M 112.491,71.542 H 2.744 C 4.027,47.687 5.734,26.47 7.807,13.167 9.183,6 13.599,0.75 21.808,0 h 80.832 c 5.418,0 9.851,4.169 9.851,9.264 z m 0,211.25 H 2.744 c 1.283,23.855 2.99,45.072 5.063,58.375 1.375,7.167 5.792,12.417 14,13.167 h 80.832 c 5.418,0 9.851,-4.169 9.851,-9.264 z"
       id="path4"
       style="fill:none;stroke:#ffffff;stroke-width:3;stroke-miterlimit:10;stroke-dasharray:none;stroke-opacity:1" />
  </g>
  <g
     fill="#1b1c1e"
     id="g10"
     transform="rotate(-90,61.341498,59.841498)"
     style="fill:none;stroke:#ffffff;stroke-width:3;stroke-miterlimit:10;stroke-dasharray:none;stroke-opacity:1">
    <path
       d="m 2.744,71.542 h 109.747 c 0.319,0.161 2.092,2.64 2.379,3.458 H 2.562 Z m 0,211.25 h 109.747 c 0.319,-0.161 2.092,-2.64 2.379,-3.458 H 2.562 Z"
       id="path8"
       style="fill:none;stroke:#ffffff;stroke-width:3;stroke-miterlimit:10;stroke-dasharray:none;stroke-opacity:1" />
  </g>
  <radialGradient
     id="a"
     cx="-80.232002"
     cy="190.054"
     r="10.883"
     gradientTransform="translate(117.326,-117.325)"
     gradientUnits="userSpaceOnUse">
    <stop
       offset="0"
       stop-color="#1b1c1b"
       id="stop12" />
    <stop
       offset="1"
       stop-color="#232323"
       id="stop14" />
  </radialGradient>
  <path
     d="m 38.594,72.084 -8.523,-8.523 c -0.392,-0.392 -1.191,-0.23 -1.783,0.363 -0.593,0.593 -0.755,1.391 -0.363,1.783 l 8.523,8.523 -8.523,8.523 c -0.392,0.392 -0.23,1.191 0.363,1.783 0.593,0.593 1.391,0.755 1.783,0.363 l 8.523,-8.523 8.523,8.523 c 0.392,0.392 1.191,0.23 1.783,-0.363 0.593,-0.593 0.755,-1.391 0.363,-1.783 L 40.74,74.23 49.263,65.707 c 0.392,-0.392 0.23,-1.191 -0.363,-1.783 -0.593,-0.593 -1.391,-0.755 -1.783,-0.363 z"
     fill="url(#a)"
     id="path17"
     style="fill:none;stroke:#ffffff;stroke-width:3;stroke-miterlimit:10;stroke-dasharray:none;stroke-opacity:1" />
  <path
     d="M 46.594,63.551 V 55.105 A 2.32,2.32 0 0 0 44.281,52.792 H 32.906 a 2.32,2.32 0 0 0 -2.313,2.313 v 8.446 c 0,0.341 0.136,0.669 0.377,0.91 l 7.623,7.623 7.623,-7.623 c 0.242,-0.242 0.378,-0.569 0.378,-0.91 z m -18.68,2.679 h -8.446 a 2.32,2.32 0 0 0 -2.312997,2.313 V 79.917 A 2.32,2.32 0 0 0 19.468,82.23 h 8.446 c 0.341,0 0.669,-0.136 0.91,-0.377 L 36.447,74.23 28.824,66.607 C 28.583,66.365 28.256,66.23 27.914,66.23 Z m 2.679,18.679 v 8.446 a 2.32,2.32 0 0 0 2.313,2.313 h 11.375 a 2.32,2.32 0 0 0 2.313,-2.313 v -8.446 c 0,-0.341 -0.136,-0.669 -0.377,-0.91 l -7.623,-7.623 -7.623,7.623 a 1.283,1.283 0 0 0 -0.378,0.91 z M 49.273,66.23 h 8.446 a 2.32,2.32 0 0 1 2.313,2.313 v 11.374 a 2.32,2.32 0 0 1 -2.313,2.313 h -8.446 c -0.341,0 -0.669,-0.136 -0.91,-0.377 L 40.74,74.23 48.363,66.607 c 0.241,-0.242 0.568,-0.377 0.91,-0.377 z"
     fill="#06090e"
     id="path19"
     style="fill:none;stroke:#ffffff;stroke-width:3;stroke-miterlimit:10;stroke-dasharray:none;stroke-opacity:1" />
  <g
     fill="#1b1c1b"
     id="g23"
     transform="rotate(-90,61.341498,59.841498)"
     style="fill:none;stroke:#ffffff;stroke-width:3;stroke-miterlimit:10;stroke-dasharray:none;stroke-opacity:1">
    <path
       d="m 57.324,30.071 a 0.433,0.433 0 0 1 0.308,-0.127 h 8.446 c 0.806,0 1.462,0.656 1.462,1.462 v 11.375 c 0,0.806 -0.656,1.462 -1.462,1.462 H 57.632 A 0.433,0.433 0 0 1 57.324,44.116 L 50.302,37.094 Z M 39.931,26.723 a 0.433,0.433 0 0 1 -0.127,-0.308 v -8.446 c 0,-0.806 0.656,-1.462 1.462,-1.462 h 11.375 c 0.806,0 1.462,0.656 1.462,1.462 v 8.446 a 0.433,0.433 0 0 1 -0.127,0.308 l -7.022,7.022 z m -3.348,17.392 a 0.433,0.433 0 0 1 -0.308,0.127 H 27.829 A 1.464,1.464 0 0 1 26.367,42.78 V 31.406 c 0,-0.806 0.656,-1.462 1.462,-1.462 h 8.446 c 0.116,0 0.226,0.045 0.308,0.127 l 7.022,7.022 z m 3.348,3.349 a 0.433,0.433 0 0 0 -0.127,0.308 v 8.446 c 0,0.806 0.656,1.462 1.462,1.462 h 11.375 c 0.806,0 1.462,-0.656 1.462,-1.462 v -8.446 a 0.433,0.433 0 0 0 -0.127,-0.308 l -7.022,-7.022 z"
       id="path21"
       style="fill:none;stroke:#ffffff;stroke-width:3;stroke-miterlimit:10;stroke-dasharray:none;stroke-opacity:1" />
  </g>
  <g
     fill="#1c1c1e"
     id="g27"
     transform="rotate(-90,61.341498,59.841498)"
     style="fill:none;stroke:#ffffff;stroke-width:3;stroke-miterlimit:10;stroke-dasharray:none;stroke-opacity:1">
    <path
       d="M 99.016,71.403 V 1.732 C 99.016,1.33 99.345,1 99.748,1 h 0.702 c 0.403,0 0.732,0.33 0.732,0.732 v 69.671 c 0,0.403 -0.33,0.732 -0.732,0.732 h -0.702 a 0.734,0.734 0 0 1 -0.732,-0.732 z m -5.167,0 V 1.732 C 93.849,1.33 94.179,1 94.582,1 h 0.702 c 0.403,0 0.732,0.33 0.732,0.732 v 69.671 a 0.734,0.734 0 0 1 -0.732,0.732 h -0.702 a 0.734,0.734 0 0 1 -0.733,-0.732 z m -5.166,0 V 1.732 C 88.683,1.33 89.012,1 89.415,1 h 0.702 c 0.403,0 0.732,0.33 0.732,0.732 v 69.671 a 0.734,0.734 0 0 1 -0.732,0.732 h -0.702 a 0.734,0.734 0 0 1 -0.732,-0.732 z m -5.167,0 V 1.732 C 83.516,1.33 83.845,1 84.248,1 h 0.702 c 0.403,0 0.732,0.33 0.732,0.732 v 69.671 c 0,0.403 -0.33,0.732 -0.732,0.732 h -0.702 a 0.734,0.734 0 0 1 -0.732,-0.732 z"
       id="path25"
       style="fill:none;stroke:#ffffff;stroke-width:3;stroke-miterlimit:10;stroke-dasharray:none;stroke-opacity:1" />
  </g>
  <g
     fill="#121212"
     id="g31"
     transform="rotate(-90,61.341498,59.841498)"
     style="fill:none;stroke:#ffffff;stroke-width:3;stroke-miterlimit:10;stroke-dasharray:none;stroke-opacity:1">
    <path
       d="m 65.203,36.51 -6.119,-3.059 a 0.652,0.652 0 0 0 -0.944,0.583 v 6.119 c 0,0.485 0.51,0.8 0.944,0.583 l 6.119,-3.059 a 0.652,0.652 0 0 0 0,-1.167 z M 46.37,18.844 43.311,24.963 a 0.652,0.652 0 0 0 0.583,0.944 h 6.119 c 0.485,0 0.8,-0.51 0.583,-0.944 l -3.059,-6.119 a 0.652,0.652 0 0 0 -1.167,0 z m -17.667,18.833 6.119,3.059 a 0.652,0.652 0 0 0 0.944,-0.583 v -6.119 c 0,-0.485 -0.51,-0.8 -0.944,-0.583 l -6.119,3.059 a 0.653,0.653 0 0 0 0,1.167 z M 46.37,55.344 43.311,49.225 a 0.652,0.652 0 0 1 0.583,-0.944 h 6.119 c 0.485,0 0.8,0.51 0.583,0.944 l -3.059,6.119 a 0.653,0.653 0 0 1 -1.167,0 z"
       id="path29"
       style="fill:none;stroke:#ffffff;stroke-width:3;stroke-miterlimit:10;stroke-dasharray:none;stroke-opacity:1" />
  </g>
  <path
     d="m 76.5,6.313 h 204.333 v 112.308 c -34.295,1.768 -73.421,2.672 -102.167,2.551 -28.745,0.121 -67.871,-0.783 -102.166,-2.551 z"
     fill="#26272b"
     id="path33"
     style="fill:none;stroke:#ffffff;stroke-width:3;stroke-miterlimit:10;stroke-dasharray:none;stroke-opacity:1" />
  <path
     d="m 78.167,105.867 a 0.71,0.71 0 0 0 0.627,0.708 c 30.755,3.632 64.494,5.575 99.873,5.575 35.379,0 69.118,-1.943 99.873,-5.575 a 0.71,0.71 0 0 0 0.627,-0.708 V 20.712 a 0.71,0.71 0 0 0 -0.711,-0.711 H 78.878 a 0.71,0.71 0 0 0 -0.711,0.711 z"
     fill="#313133"
     id="path35"
     style="fill:none;stroke:#ffffff;stroke-width:3;stroke-miterlimit:10;stroke-dasharray:none;stroke-opacity:1" />
  <path
     d="m 144.917,2.938 h 67.5 v 8 h -67.5 z"
     id="path37"
     style="fill:none;stroke:#ffffff;stroke-width:3;stroke-miterlimit:10;stroke-dasharray:none;stroke-opacity:1" />
  <linearGradient
     id="b"
     gradientUnits="userSpaceOnUse"
     x1="59.841"
     y1="126.2"
     x2="59.841"
     y2="117.325"
     gradientTransform="translate(117.326,-117.325)">
    <stop
       offset="0"
       stop-color="#2c232d"
       id="stop39" />
    <stop
       offset=".5"
       stop-color="#312c39"
       id="stop41" />
    <stop
       offset="1"
       stop-color="#2c232d"
       id="stop43" />
  </linearGradient>
  <path
     d="m 145.592,9.456 c 0,0.506 0.434,0.92 0.965,0.92 h 64.22 c 0.531,0 0.965,-0.414 0.965,-0.92 V 2.42 c 0,-0.506 -0.434,-0.92 -0.965,-0.92 h -64.22 c -0.531,0 -0.965,0.414 -0.965,0.92 z"
     fill="url(#b)"
     id="path46"
     style="fill:none;stroke:#ffffff;stroke-width:3;stroke-miterlimit:10;stroke-dasharray:none;stroke-opacity:1" />
  <g
     fill="#f4f1f0"
     id="g52"
     transform="rotate(-90,61.341498,59.841498)"
     style="fill:none;stroke:#ffffff;stroke-width:3;stroke-miterlimit:10;stroke-dasharray:none;stroke-opacity:1">
    <path
       d="m 89.595,89.485 a 2.524,2.524 0 0 1 -0.353,-1.256 2.442,2.442 0 0 1 2.437,-2.437 2.442,2.442 0 0 1 2.437,2.437 c 0,0.437 -0.132,0.884 -0.352,1.256 h 2.618 c 0.095,-0.4 0.172,-0.838 0.172,-1.256 a 4.884,4.884 0 0 0 -4.875,-4.875 4.884,4.884 0 0 0 -4.874,4.875 c 0,0.417 0.077,0.855 0.171,1.256 z"
       id="path48"
       style="fill:none;stroke:#ffffff;stroke-width:3;stroke-miterlimit:10;stroke-dasharray:none;stroke-opacity:1" />
    <path
       d="m 91.887,89.485 v 2.05 l 1.824,1.826 v -3.876 z m -2.24,3.876 1.825,-1.826 v -2.05 h -1.825 z m 2.371,10.661 a 0.868,0.868 0 0 0 -0.36,-0.724 c -0.237,-0.185 -0.553,-0.275 -0.951,-0.275 -0.393,0 -0.705,0.09 -0.946,0.275 a 0.88,0.88 0 0 0 -0.36,0.724 0.88,0.88 0 0 0 0.355,0.729 c 0.237,0.18 0.553,0.27 0.951,0.27 0.398,0 0.719,-0.09 0.956,-0.27 a 0.881,0.881 0 0 0 0.355,-0.729 z m -2.688,45.493 a 2.027,2.027 0 0 0 -0.033,0.398 c 0,0.227 0.033,0.473 0.094,0.729 0.072,0.272 0.168,0.536 0.288,0.791 h -1.126 a 4.66,4.66 0 0 1 -0.208,-0.805 5.177,5.177 0 0 1 -0.071,-0.87 c 0,-0.081 0.005,-0.161 0.005,-0.242 0.043,-0.724 0.26,-1.296 0.658,-1.722 0.445,-0.469 1.055,-0.705 1.845,-0.705 0.714,0 1.283,0.217 1.704,0.652 0.421,0.435 0.634,1.023 0.634,1.761 v 0.014 c -0.005,0.739 -0.222,1.306 -0.653,1.709 -0.431,0.407 -1.051,0.611 -1.85,0.611 h -0.384 v -3.228 c -0.298,0.034 -0.53,0.161 -0.691,0.388 a 1.26,1.26 0 0 0 -0.212,0.519 z m 1.831,0 v 0.923 c 0.312,-0.029 0.553,-0.128 0.729,-0.294 a 0.838,0.838 0 0 0 0.265,-0.63 v -0.005 a 0.799,0.799 0 0 0 -0.265,-0.624 c -0.175,-0.161 -0.417,-0.266 -0.729,-0.298 z m -1.76,-9.64 a 0.87,0.87 0 0 0 0.355,0.724 c 0.237,0.184 0.553,0.274 0.951,0.274 0.398,0 0.719,-0.09 0.956,-0.274 a 0.868,0.868 0 0 0 0.355,-0.724 0.869,0.869 0 0 0 -0.36,-0.724 c -0.237,-0.185 -0.553,-0.279 -0.951,-0.279 -0.393,0 -0.705,0.094 -0.946,0.279 a 0.878,0.878 0 0 0 -0.36,0.724 z m 3.72,0 c 0,0.828 -0.218,1.477 -0.644,1.941 -0.426,0.469 -1.023,0.7 -1.78,0.7 -0.753,0 -1.344,-0.232 -1.77,-0.7 -0.431,-0.464 -0.644,-1.112 -0.644,-1.941 0,-0.828 0.213,-1.476 0.644,-1.94 0.426,-0.469 1.017,-0.7 1.77,-0.7 0.757,0 1.353,0.232 1.78,0.7 0.426,0.463 0.644,1.112 0.644,1.94 z m -0.052,6.862 -1.359,-0.08 a 1.313,1.313 0 0 0 0.076,-0.493 c 0,-0.373 -0.119,-0.657 -0.36,-0.847 -0.241,-0.19 -0.597,-0.289 -1.065,-0.289 h -1.959 v -1.576 h 4.595 v 1.411 h -0.875 c 0.336,0.156 0.592,0.35 0.753,0.582 0.16,0.232 0.246,0.502 0.246,0.819 0,0.08 -0.019,0.227 -0.047,0.445 z m -3.568,-12.962 c 0.005,0.298 0.113,0.53 0.326,0.705 0.218,0.17 0.525,0.256 0.909,0.256 0.379,0 0.677,-0.09 0.899,-0.27 a 0.887,0.887 0 0 0 0.332,-0.691 v -0.043 a 0.785,0.785 0 0 0 -0.346,-0.662 c -0.237,-0.175 -0.535,-0.26 -0.904,-0.26 -0.374,0 -0.672,0.085 -0.89,0.26 a 0.834,0.834 0 0 0 -0.326,0.696 z m 3.548,0 a 1.795,1.795 0 0 1 -0.118,0.317 1.768,1.768 0 0 1 -0.568,0.653 h 2.74 v 1.576 h -6.701 v -1.415 h 0.918 a 1.842,1.842 0 0 1 -0.922,-1.131 2.104,2.104 0 0 1 -0.067,-0.53 c 0,-0.611 0.222,-1.103 0.667,-1.481 0.445,-0.379 1.037,-0.563 1.765,-0.563 0.719,0 1.292,0.179 1.718,0.549 0.426,0.37 0.639,0.862 0.639,1.481 0.002,0.183 -0.022,0.366 -0.071,0.544 z m -3.648,-5.964 c 0,0.303 0.119,0.545 0.355,0.729 0.237,0.18 0.553,0.27 0.951,0.27 0.398,0 0.719,-0.09 0.956,-0.27 a 0.877,0.877 0 0 0 0.355,-0.729 0.88,0.88 0 0 0 -0.36,-0.724 c -0.237,-0.185 -0.553,-0.274 -0.951,-0.274 -0.393,0 -0.705,0.09 -0.946,0.274 a 0.893,0.893 0 0 0 -0.36,0.724 z m 3.72,0 c 0,0.828 -0.218,1.477 -0.644,1.945 -0.426,0.468 -1.023,0.7 -1.78,0.7 -0.753,0 -1.344,-0.232 -1.77,-0.7 -0.431,-0.469 -0.644,-1.117 -0.644,-1.945 0,-0.828 0.213,-1.471 0.644,-1.935 0.426,-0.469 1.017,-0.7 1.77,-0.7 0.757,0 1.353,0.232 1.78,0.7 0.426,0.464 0.644,1.108 0.644,1.935 z m -4.837,-23.789 c 0,-0.828 0.213,-1.472 0.644,-1.94 0.426,-0.464 1.017,-0.696 1.77,-0.696 0.757,0 1.353,0.232 1.78,0.696 0.426,0.469 0.644,1.112 0.644,1.94 0,0.828 -0.218,1.477 -0.644,1.945 -0.426,0.464 -1.023,0.701 -1.78,0.701 -0.753,0 -1.344,-0.237 -1.77,-0.701 -0.431,-0.469 -0.644,-1.117 -0.644,-1.945 z m 3.862,8.097 c 0.313,0.18 0.549,0.407 0.715,0.686 0.167,0.279 0.253,0.598 0.251,0.923 0,0.54 -0.175,0.956 -0.516,1.24 -0.345,0.288 -0.847,0.43 -1.504,0.43 h -2.688 v -1.552 h 2.361 c 0.355,0 0.62,-0.062 0.791,-0.18 0.166,-0.118 0.251,-0.298 0.251,-0.544 a 0.716,0.716 0 0 0 -0.322,-0.611 c -0.218,-0.147 -0.506,-0.222 -0.875,-0.222 h -2.205 v -1.567 h 2.361 c 0.355,0 0.62,-0.057 0.791,-0.175 0.166,-0.114 0.251,-0.298 0.251,-0.549 a 0.713,0.713 0 0 0 -0.322,-0.606 c -0.218,-0.156 -0.511,-0.232 -0.875,-0.232 h -2.205 v -1.557 h 4.595 v 1.41 h -0.824 c 0.298,0.18 0.535,0.402 0.696,0.677 0.16,0.278 0.244,0.593 0.241,0.913 0,0.355 -0.085,0.662 -0.251,0.923 a 1.569,1.569 0 0 1 -0.717,0.593 z m 0,8.921 c 0.313,0.18 0.549,0.407 0.715,0.686 0.166,0.279 0.253,0.598 0.251,0.923 0,0.54 -0.175,0.951 -0.516,1.235 -0.345,0.288 -0.847,0.431 -1.504,0.431 h -2.688 v -1.548 h 2.361 c 0.355,0 0.62,-0.061 0.791,-0.18 0.166,-0.114 0.251,-0.298 0.251,-0.544 0,-0.256 -0.109,-0.454 -0.322,-0.611 -0.218,-0.147 -0.506,-0.222 -0.875,-0.222 h -2.205 v -1.567 h 2.361 c 0.355,0 0.62,-0.057 0.791,-0.17 0.166,-0.118 0.251,-0.303 0.251,-0.554 a 0.713,0.713 0 0 0 -0.322,-0.606 c -0.218,-0.156 -0.511,-0.232 -0.875,-0.232 h -2.205 v -1.557 h 4.595 v 1.415 h -0.824 c 0.298,0.175 0.535,0.398 0.696,0.677 0.16,0.275 0.241,0.578 0.241,0.913 0,0.35 -0.085,0.658 -0.251,0.918 a 1.58,1.58 0 0 1 -0.717,0.593 z m 2.271,-20.374 -1.297,-0.142 a 3.09,3.09 0 0 0 0.312,-0.72 c 0.068,-0.25 0.103,-0.508 0.105,-0.767 0,-0.62 -0.18,-1.112 -0.545,-1.477 -0.359,-0.369 -0.843,-0.554 -1.453,-0.554 -0.611,0 -1.098,0.189 -1.463,0.563 -0.359,0.374 -0.544,0.871 -0.544,1.496 0,0.241 0.033,0.492 0.09,0.748 0.065,0.265 0.155,0.523 0.27,0.771 l -1.391,0.099 a 7.568,7.568 0 0 1 -0.185,-0.89 7.082,7.082 0 0 1 -0.061,-0.899 c 0,-1.126 0.288,-2.002 0.866,-2.631 0.577,-0.629 1.387,-0.946 2.418,-0.946 0.989,0 1.77,0.312 2.347,0.932 0.582,0.62 0.871,1.462 0.871,2.522 0,0.355 -0.028,0.691 -0.085,1.013 a 4.047,4.047 0 0 1 -0.255,0.882 z"
       id="path50"
       style="fill:none;stroke:#ffffff;stroke-width:3;stroke-miterlimit:10;stroke-dasharray:none;stroke-opacity:1" />
  </g>
  <path
     d="m 257.407,31.445 v -3.508 c 0,-0.927 0.337,-1.362 1.322,-1.362 h 0.956 c 0.449,0 0.422,-0.028 0.422,-0.551 v -1.015 c 0,-0.493 0.112,-0.609 0.506,-0.609 h 0.843 c 0.647,0 0.647,0 0.647,0.754 v 7.044 c 0,0.58 -0.084,0.58 -0.759,0.58 h -2.108 c -1.351,0.001 -1.829,-0.087 -1.829,-1.333 z m 4.329,-6.695 h -1.293 v 1.421 c 0,0.667 0,0.754 -0.759,0.754 h -0.788 c -1.068,0 -1.21,0.232 -1.21,1.101 v 3.275 c 0,0.899 0.253,1.159 0.816,1.159 l 3.233,-0.028 z m -2.727,6.116 V 28.46 c 0,-0.58 0.169,-0.986 0.703,-0.986 0.562,0 0.731,0.464 0.731,1.015 v 2.406 c 0,0.492 -0.112,1.015 -0.731,1.015 -0.507,-0.001 -0.703,-0.436 -0.703,-1.044 z m 0.252,-2.407 v 2.348 c 0,0.377 0.282,0.724 0.534,0.724 0.225,0 0.309,-0.203 0.309,-0.638 v -2.405 c 0,-0.493 -0.084,-0.667 -0.337,-0.667 -0.281,10e-4 -0.506,0.32 -0.506,0.638 z m 10.826,2.957 v -3.508 c 0,-0.811 0.394,-1.333 1.293,-1.333 h 1.687 c 0.872,0 1.435,0.319 1.435,1.189 v 1.043 c 0,0.377 -0.112,0.464 -0.478,0.464 h -0.759 c -0.422,0 -0.59,-0.146 -0.59,-0.435 v -0.435 c 0,-0.29 -0.141,-0.493 -0.337,-0.493 -0.309,0 -0.422,0.175 -0.422,0.812 v 2.087 c 0,0.463 0.112,0.666 0.366,0.666 0.224,0 0.394,-0.174 0.394,-0.522 v -0.607 c 0,-0.261 0.141,-0.377 0.394,-0.377 h 1.013 c 0.253,0 0.422,0.175 0.422,0.464 v 1.072 c 0,0.754 -0.507,1.276 -1.013,1.276 h -2.25 c -0.958,0 -1.155,-0.609 -1.155,-1.363 z m 2.925,-3.103 v 0.551 h 1.181 v -1.131 c 0,-0.609 -0.309,-0.812 -1.097,-0.812 h -1.659 c -0.872,0 -1.012,0.319 -1.012,1.073 v 3.391 c 0,0.928 0.309,1.044 1.097,1.044 h 1.828 c 0.619,0 0.843,-0.406 0.843,-1.072 v -1.015 h -1.182 v 0.551 c 0,0.608 -0.337,0.957 -0.759,0.957 -0.366,0 -0.619,-0.319 -0.619,-0.869 v -2.523 c 0,-0.579 0.282,-0.898 0.675,-0.898 0.367,-10e-4 0.704,0.346 0.704,0.753 z m -7.76,0.813 v -1.043 c 0,-1.073 0.253,-1.508 1.378,-1.508 h 2.081 c 0.647,0 0.675,0 0.675,0.464 v 0.667 c 0,0.551 -0.028,0.551 -0.703,0.551 h -1.181 c -0.422,0 -0.647,0 -0.647,0.203 0,0.261 0.225,0.261 0.647,0.261 h 0.928 c 0.788,0 1.153,0.58 1.153,1.246 v 1.392 c 0,1.101 -0.394,1.421 -1.546,1.421 H 265.9 c -0.591,0 -0.647,0 -0.647,-0.407 V 31.56 c 0,-0.348 0.084,-0.464 0.422,-0.464 h 1.632 c 0.449,0 0.619,-0.087 0.619,-0.261 0,-0.26 -0.169,-0.319 -0.619,-0.319 h -1.013 c -0.986,0.001 -1.042,-0.693 -1.042,-1.39 z m 2.279,2.317 h -1.997 v 0.986 h 2.531 c 1.068,0 1.181,-0.261 1.181,-0.928 v -1.883 c 0,-0.319 -0.534,-0.522 -0.816,-0.522 h -0.872 c -0.731,0 -0.984,-0.145 -0.984,-0.579 0,-0.319 0.224,-0.609 0.731,-0.609 h 1.771 v -0.986 h -2.447 c -0.759,0 -1.097,0.116 -1.097,1.015 v 1.131 c 0,0.754 0.197,1.13 0.956,1.13 h 0.929 c 0.366,0 0.843,0.087 0.843,0.609 0.002,0.404 -0.364,0.636 -0.729,0.636 z m -1.351,-7.042 v 1.652 h 0.394 v -1.159 l 0.45,1.159 h 0.366 l 0.449,-1.159 v 1.159 h 0.395 v -1.652 h -0.647 l -0.338,1.014 -0.393,-1.014 z m -3.489,7.508 v -4.724 c 0,-0.493 0.056,-0.609 0.534,-0.609 h 0.9 c 0.562,0 0.562,0.029 0.562,0.725 v 4.84 c 0,0.639 -0.141,0.639 -0.534,0.639 h -0.9 c -0.562,-10e-4 -0.562,-10e-4 -0.562,-0.871 z m 1.66,-4.985 h -1.322 v 5.536 l 1.322,-0.028 z m 5.596,-0.871 0.564,-1.652 h 0.589 l 0.534,1.652 h -0.407 l -0.094,-0.261 h -0.65 l -0.087,0.261 z m 0.873,-1.218 -0.224,0.638 h 0.449 z m -5.653,-0.462 c 0.619,0 0.731,0.232 0.731,0.869 0,0.667 -0.337,0.841 -0.675,0.841 -0.576,0 -0.843,-0.173 -0.843,-0.812 -10e-4,-0.695 0.196,-0.898 0.787,-0.898 z m 0.365,0.753 c 0,-0.319 -0.169,-0.406 -0.337,-0.406 -0.308,0 -0.394,0.126 -0.394,0.492 0,0.391 0.098,0.54 0.366,0.525 0.22,-0.012 0.365,-0.037 0.365,-0.611 z m 7.193,0.32 c -0.025,0.227 -0.023,0.289 -0.22,0.289 -0.337,0 -0.394,-0.175 -0.394,-0.493 0,-0.406 0.169,-0.463 0.366,-0.463 0.197,0 0.264,0.018 0.272,0.175 l 0.346,-0.001 c 0,-0.435 -0.169,-0.551 -0.704,-0.551 -0.478,0 -0.703,0.232 -0.703,0.812 0,0.782 0.309,0.869 0.872,0.869 0.422,0 0.493,-0.18 0.523,-0.639 z m -4.101,-1.045 h 0.647 c 0.506,0 0.759,0.087 0.759,0.551 0,0.638 -0.169,0.666 -0.956,0.666 v 0.435 h -0.45 z m 0.954,0.636 c 0,-0.26 -0.052,-0.289 -0.502,-0.289 v 0.551 c 0.45,0 0.502,-0.088 0.502,-0.262 z m 3.659,-0.636 v 0.347 h 0.45 v 1.305 h 0.394 v -1.305 h 0.421 v -0.347 z m -9.495,1.009 c -0.025,0.227 -0.023,0.289 -0.219,0.289 -0.337,0 -0.395,-0.174 -0.395,-0.492 0,-0.406 0.169,-0.464 0.366,-0.464 0.196,0 0.265,0.018 0.272,0.175 l 0.346,-0.002 c 0,-0.435 -0.169,-0.551 -0.703,-0.551 -0.478,0 -0.704,0.232 -0.704,0.811 0,0.783 0.31,0.869 0.872,0.869 0.422,0 0.493,-0.18 0.523,-0.638 z"
     fill="#f4f1f0"
     id="path54"
     style="fill:none;stroke:#ffffff;stroke-width:3;stroke-miterlimit:10;stroke-dasharray:none;stroke-opacity:1" />
  <path
     fill="none"
     stroke="#f4f1f0"
     stroke-width="0.75"
     stroke-miterlimit="10"
     d="M 84.854,37.209 H 274.503"
     id="path56"
     style="fill:none;stroke:#ffffff;stroke-width:3;stroke-miterlimit:10;stroke-dasharray:none;stroke-opacity:1" />
  <g
     fill="#f4f1f0"
     id="g60"
     transform="rotate(-90,61.341498,59.841498)"
     style="fill:none;stroke:#ffffff;stroke-width:3;stroke-miterlimit:10;stroke-dasharray:none;stroke-opacity:1">
    <path
       d="m 90.992,159.03 a 0.778,0.778 0 0 0 0.317,-0.396 0.796,0.796 0 0 0 0.045,-0.267 0.89,0.89 0 0 0 -0.098,-0.432 0.83,0.83 0 0 0 -0.264,-0.288 1.178,1.178 0 0 0 -0.376,-0.161 1.86,1.86 0 0 0 -0.857,0 1.127,1.127 0 0 0 -0.367,0.161 0.834,0.834 0 0 0 -0.262,0.288 0.89,0.89 0 0 0 -0.099,0.432 c 0,0.23 0.071,0.411 0.211,0.54 0.14,0.129 0.327,0.209 0.557,0.238 v 0.729 c -0.214,-0.02 -0.408,-0.069 -0.581,-0.149 -0.173,-0.08 -0.32,-0.186 -0.442,-0.317 -0.122,-0.131 -0.214,-0.285 -0.278,-0.46 a 1.69,1.69 0 0 1 -0.096,-0.581 c 0,-0.262 0.045,-0.499 0.137,-0.708 0.092,-0.209 0.217,-0.386 0.377,-0.53 a 1.69,1.69 0 0 1 0.564,-0.332 c 0.216,-0.077 0.449,-0.115 0.698,-0.115 0.256,0 0.494,0.038 0.713,0.115 0.219,0.077 0.41,0.188 0.574,0.332 0.163,0.144 0.291,0.321 0.384,0.53 0.093,0.209 0.139,0.446 0.139,0.708 0,0.189 -0.027,0.367 -0.082,0.535 -0.055,0.168 -0.134,0.318 -0.238,0.451 -0.104,0.133 -0.232,0.243 -0.386,0.329 -0.154,0.086 -0.33,0.141 -0.528,0.163 v -0.729 a 0.63,0.63 0 0 0 0.238,-0.086 z m 0.914,2.836 c 0,0.221 -0.035,0.426 -0.105,0.617 a 1.357,1.357 0 0 1 -0.845,0.821 2.12,2.12 0 0 1 -0.744,0.118 c -0.25,0 -0.48,-0.032 -0.691,-0.096 a 1.512,1.512 0 0 1 -0.547,-0.291 1.379,1.379 0 0 1 -0.363,-0.485 1.643,1.643 0 0 1 -0.132,-0.684 v -1.479 h 3.427 z m -2.793,-0.052 c 0,0.109 0.018,0.214 0.053,0.317 a 0.69,0.69 0 0 0 0.175,0.273 c 0.082,0.08 0.188,0.144 0.319,0.192 0.131,0.048 0.292,0.072 0.48,0.072 0.173,0 0.329,-0.017 0.468,-0.05 a 0.934,0.934 0 0 0 0.357,-0.166 c 0.099,-0.077 0.175,-0.178 0.228,-0.305 0.053,-0.127 0.079,-0.282 0.079,-0.468 v -0.538 h -2.16 v 0.673 z m 2.159,1.862 h 0.634 v 2.808 h -0.634 v -1.027 h -2.793 v -0.753 h 2.793 z m -2.793,3.946 3.427,-1.109 v 0.773 l -2.41,0.763 v 0.01 l 2.41,0.772 v 0.778 l -3.427,-1.138 z m 3.427,5.462 c 0,0.154 -0.025,0.292 -0.074,0.415 -0.05,0.124 -0.118,0.229 -0.204,0.317 -0.086,0.088 -0.187,0.155 -0.3,0.202 a 0.967,0.967 0 0 1 -0.367,0.07 c -0.202,0 -0.376,-0.042 -0.523,-0.127 a 0.801,0.801 0 0 1 -0.336,-0.415 h -0.01 a 0.583,0.583 0 0 1 -0.305,0.378 c -0.072,0.039 -0.151,0.066 -0.238,0.084 -0.087,0.018 -0.173,0.03 -0.259,0.036 l -0.192,0.01 c -0.074,0.003 -0.149,0.009 -0.226,0.017 -0.077,0.008 -0.149,0.021 -0.218,0.039 -0.069,0.018 -0.127,0.044 -0.175,0.079 v -0.753 c 0.109,-0.042 0.238,-0.067 0.389,-0.077 a 5.64,5.64 0 0 0 0.432,-0.043 c 0.179,-0.026 0.311,-0.08 0.394,-0.163 0.083,-0.083 0.125,-0.219 0.125,-0.408 v -0.753 H 88.48 v -0.754 h 3.427 v 1.846 z m -1.55,-0.269 c 0,0.173 0.038,0.303 0.115,0.389 0.077,0.086 0.201,0.129 0.374,0.129 0.167,0 0.288,-0.043 0.363,-0.129 0.075,-0.086 0.113,-0.216 0.113,-0.389 v -0.825 h -0.965 z m 1.55,4.45 h -0.634 v -1.81 h -0.734 v 1.661 h -0.585 v -1.661 h -0.84 v 1.848 h -0.634 v -2.602 h 3.427 z m 0,1.608 -2.357,0.801 v 0.01 l 2.357,0.758 v 1.061 h -3.427 v -0.706 h 2.429 v -0.01 l -2.429,-0.84 v -0.581 l 2.405,-0.84 v -0.01 h -2.405 v -0.706 h 3.427 z m -1.015,3.259 c 0.219,0.077 0.41,0.188 0.574,0.332 0.163,0.144 0.291,0.321 0.384,0.53 0.093,0.209 0.139,0.446 0.139,0.708 0,0.266 -0.046,0.502 -0.139,0.71 -0.093,0.208 -0.221,0.384 -0.384,0.528 a 1.736,1.736 0 0 1 -0.574,0.332 2.137,2.137 0 0 1 -0.713,0.115 2.06,2.06 0 0 1 -0.698,-0.115 1.673,1.673 0 0 1 -0.564,-0.332 c -0.16,-0.144 -0.286,-0.32 -0.377,-0.528 -0.091,-0.208 -0.137,-0.445 -0.137,-0.71 0,-0.262 0.045,-0.499 0.137,-0.708 0.092,-0.209 0.217,-0.386 0.377,-0.53 a 1.69,1.69 0 0 1 0.564,-0.332 c 0.216,-0.077 0.449,-0.115 0.698,-0.115 0.256,0 0.494,0.038 0.713,0.115 z m -1.133,0.688 a 1.127,1.127 0 0 0 -0.367,0.161 0.834,0.834 0 0 0 -0.262,0.288 c -0.065,0.119 -0.099,0.263 -0.099,0.432 0,0.169 0.033,0.313 0.099,0.432 a 0.825,0.825 0 0 0 0.262,0.288 c 0.108,0.073 0.231,0.127 0.367,0.161 0.136,0.034 0.276,0.05 0.42,0.05 0.15,0 0.296,-0.017 0.437,-0.05 0.141,-0.034 0.266,-0.087 0.376,-0.161 a 0.83,0.83 0 0 0 0.264,-0.288 c 0.065,-0.119 0.098,-0.263 0.098,-0.432 0,-0.169 -0.033,-0.313 -0.098,-0.432 a 0.83,0.83 0 0 0 -0.264,-0.288 1.178,1.178 0 0 0 -0.376,-0.161 1.86,1.86 0 0 0 -0.857,0 z m 1.514,2.811 h 0.634 v 2.808 h -0.634 v -1.027 h -2.793 v -0.753 h 2.793 z m 0.634,5.765 h -0.634 v -1.81 h -0.734 v 1.661 h -0.585 v -1.661 h -0.84 v 1.848 h -0.634 v -2.602 h 3.427 z m -0.914,4.08 a 0.778,0.778 0 0 0 0.317,-0.396 0.796,0.796 0 0 0 0.045,-0.267 0.89,0.89 0 0 0 -0.098,-0.432 0.83,0.83 0 0 0 -0.264,-0.288 1.178,1.178 0 0 0 -0.376,-0.161 1.86,1.86 0 0 0 -0.857,0 1.127,1.127 0 0 0 -0.367,0.161 0.834,0.834 0 0 0 -0.262,0.288 0.89,0.89 0 0 0 -0.099,0.432 c 0,0.23 0.071,0.411 0.211,0.54 0.14,0.129 0.327,0.209 0.557,0.238 v 0.729 c -0.214,-0.02 -0.408,-0.069 -0.581,-0.149 -0.173,-0.08 -0.32,-0.186 -0.442,-0.317 -0.122,-0.131 -0.214,-0.285 -0.278,-0.46 a 1.69,1.69 0 0 1 -0.096,-0.581 c 0,-0.262 0.045,-0.499 0.137,-0.708 0.092,-0.209 0.217,-0.386 0.377,-0.53 a 1.69,1.69 0 0 1 0.564,-0.332 c 0.216,-0.077 0.449,-0.115 0.698,-0.115 0.256,0 0.494,0.038 0.713,0.115 0.219,0.077 0.41,0.188 0.574,0.332 0.163,0.144 0.291,0.321 0.384,0.53 0.093,0.209 0.139,0.446 0.139,0.708 0,0.189 -0.027,0.367 -0.082,0.535 -0.055,0.168 -0.134,0.318 -0.238,0.451 -0.104,0.133 -0.232,0.243 -0.386,0.329 -0.154,0.086 -0.33,0.141 -0.528,0.163 v -0.729 a 0.63,0.63 0 0 0 0.238,-0.086 z m -0.101,1.324 c 0.219,0.077 0.41,0.188 0.574,0.332 0.163,0.144 0.291,0.321 0.384,0.53 0.093,0.209 0.139,0.446 0.139,0.708 0,0.266 -0.046,0.502 -0.139,0.71 -0.093,0.208 -0.221,0.384 -0.384,0.528 a 1.736,1.736 0 0 1 -0.574,0.332 2.137,2.137 0 0 1 -0.713,0.115 2.06,2.06 0 0 1 -0.698,-0.115 1.673,1.673 0 0 1 -0.564,-0.332 c -0.16,-0.144 -0.286,-0.32 -0.377,-0.528 -0.091,-0.208 -0.137,-0.445 -0.137,-0.71 0,-0.262 0.045,-0.499 0.137,-0.708 0.092,-0.209 0.217,-0.386 0.377,-0.53 A 1.69,1.69 0 0 1 89.48,196.8 c 0.216,-0.077 0.449,-0.115 0.698,-0.115 0.256,0.001 0.494,0.039 0.713,0.115 z m -1.133,0.689 a 1.127,1.127 0 0 0 -0.367,0.161 0.834,0.834 0 0 0 -0.262,0.288 c -0.065,0.119 -0.099,0.263 -0.099,0.432 0,0.169 0.033,0.313 0.099,0.432 a 0.825,0.825 0 0 0 0.262,0.288 c 0.108,0.073 0.231,0.127 0.367,0.161 0.136,0.034 0.276,0.05 0.42,0.05 0.15,0 0.296,-0.017 0.437,-0.05 0.141,-0.034 0.266,-0.087 0.376,-0.161 a 0.83,0.83 0 0 0 0.264,-0.288 c 0.065,-0.119 0.098,-0.263 0.098,-0.432 0,-0.169 -0.033,-0.313 -0.098,-0.432 a 0.83,0.83 0 0 0 -0.264,-0.288 1.178,1.178 0 0 0 -0.376,-0.161 1.86,1.86 0 0 0 -0.857,0 z m 2.148,3.829 -2.299,1.43 v 0.01 h 2.299 v 0.706 h -3.427 v -0.753 l 2.294,-1.426 v -0.01 h -2.294 v -0.706 h 3.427 z m -0.634,2.538 h 0.634 v 2.808 h -0.634 v -1.027 h -2.793 v -0.752 h 2.793 z m 0.634,5.051 c 0,0.153 -0.025,0.291 -0.074,0.415 a 0.913,0.913 0 0 1 -0.871,0.587 c -0.202,0 -0.376,-0.043 -0.523,-0.127 a 0.804,0.804 0 0 1 -0.336,-0.416 h -0.01 c -0.026,0.093 -0.065,0.17 -0.118,0.23 -0.053,0.06 -0.115,0.11 -0.187,0.149 -0.072,0.038 -0.151,0.066 -0.238,0.084 -0.087,0.018 -0.173,0.029 -0.259,0.036 a 13.07,13.07 0 0 1 -0.192,0.009 3.61,3.61 0 0 0 -0.226,0.018 c -0.077,0.008 -0.149,0.021 -0.218,0.038 -0.069,0.017 -0.127,0.044 -0.175,0.079 v -0.754 c 0.109,-0.041 0.238,-0.067 0.389,-0.076 0.15,-0.01 0.294,-0.024 0.432,-0.044 0.179,-0.025 0.311,-0.08 0.394,-0.163 0.083,-0.083 0.125,-0.219 0.125,-0.407 v -0.754 H 88.48 v -0.754 h 3.427 v 1.85 z m -1.55,-0.27 c 0,0.173 0.038,0.303 0.115,0.389 0.077,0.087 0.201,0.13 0.374,0.13 0.167,0 0.288,-0.043 0.363,-0.13 0.075,-0.086 0.113,-0.216 0.113,-0.389 v -0.825 h -0.965 z m 0.535,1.853 c 0.219,0.076 0.41,0.187 0.574,0.331 0.163,0.144 0.291,0.32 0.384,0.53 0.093,0.21 0.139,0.445 0.139,0.708 0,0.266 -0.046,0.502 -0.139,0.71 -0.093,0.208 -0.221,0.385 -0.384,0.528 a 1.684,1.684 0 0 1 -0.574,0.331 2.137,2.137 0 0 1 -0.713,0.115 2.06,2.06 0 0 1 -0.698,-0.115 1.655,1.655 0 0 1 -0.564,-0.331 c -0.16,-0.144 -0.286,-0.32 -0.377,-0.528 -0.091,-0.208 -0.137,-0.444 -0.137,-0.71 0,-0.263 0.045,-0.498 0.137,-0.708 0.092,-0.21 0.217,-0.387 0.377,-0.53 0.16,-0.145 0.348,-0.255 0.564,-0.331 0.216,-0.077 0.449,-0.115 0.698,-0.115 0.256,0 0.494,0.038 0.713,0.115 z m -1.133,0.688 a 1.106,1.106 0 0 0 -0.367,0.161 0.817,0.817 0 0 0 -0.361,0.72 c 0,0.17 0.033,0.313 0.099,0.432 a 0.808,0.808 0 0 0 0.262,0.288 c 0.108,0.074 0.231,0.128 0.367,0.161 0.136,0.033 0.276,0.051 0.42,0.051 0.15,0 0.296,-0.018 0.437,-0.051 0.141,-0.033 0.266,-0.087 0.376,-0.161 a 0.813,0.813 0 0 0 0.264,-0.288 c 0.065,-0.118 0.098,-0.262 0.098,-0.432 0,-0.17 -0.033,-0.313 -0.098,-0.432 a 0.813,0.813 0 0 0 -0.264,-0.288 1.135,1.135 0 0 0 -0.376,-0.161 1.829,1.829 0 0 0 -0.857,0 z m 2.148,3.833 h -2.793 v 1.67 h -0.634 v -2.424 h 3.427 z m 0,2.847 h -2.793 v 1.67 h -0.634 v -2.424 h 3.427 z m 0,4.656 h -0.634 v -1.81 h -0.734 v 1.66 h -0.585 v -1.66 h -0.84 v 1.848 h -0.634 v -2.602 h 3.427 z m 0,2.396 c 0,0.153 -0.025,0.291 -0.074,0.415 a 0.913,0.913 0 0 1 -0.871,0.587 c -0.202,0 -0.376,-0.043 -0.523,-0.127 a 0.804,0.804 0 0 1 -0.336,-0.416 h -0.01 c -0.026,0.093 -0.065,0.17 -0.118,0.23 -0.053,0.06 -0.115,0.11 -0.187,0.149 -0.072,0.038 -0.151,0.066 -0.238,0.084 -0.087,0.018 -0.173,0.029 -0.259,0.036 a 13.07,13.07 0 0 1 -0.192,0.009 3.61,3.61 0 0 0 -0.226,0.018 c -0.077,0.008 -0.149,0.021 -0.218,0.038 -0.069,0.017 -0.127,0.044 -0.175,0.079 v -0.754 c 0.109,-0.041 0.238,-0.067 0.389,-0.076 0.15,-0.01 0.294,-0.024 0.432,-0.044 0.179,-0.025 0.311,-0.08 0.394,-0.163 0.083,-0.083 0.125,-0.219 0.125,-0.407 v -0.754 H 88.48 v -0.754 h 3.427 v 1.85 z m -1.55,-0.27 c 0,0.173 0.038,0.303 0.115,0.389 0.077,0.087 0.201,0.13 0.374,0.13 0.167,0 0.288,-0.043 0.363,-0.13 0.075,-0.086 0.113,-0.216 0.113,-0.389 v -0.825 h -0.965 z"
       id="path58"
       style="fill:none;stroke:#ffffff;stroke-width:3;stroke-miterlimit:10;stroke-dasharray:none;stroke-opacity:1" />
  </g>
  <g
     fill="#f4f1f0"
     id="g64"
     transform="rotate(-90,61.341498,59.841498)"
     style="fill:none;stroke:#ffffff;stroke-width:3;stroke-miterlimit:10;stroke-dasharray:none;stroke-opacity:1">
    <path
       d="m 77.562,156.034 h -0.541 v -1.545 h -0.627 v 1.418 h -0.5 v -1.418 h -0.718 v 1.578 h -0.541 v -2.222 h 2.927 z m -2.206,0.959 a 0.469,0.469 0 0 0 -0.166,0.142 0.605,0.605 0 0 0 -0.094,0.207 0.953,0.953 0 0 0 -0.031,0.246 c 0,0.057 0.004,0.119 0.014,0.184 0.01,0.066 0.028,0.127 0.055,0.185 0.027,0.058 0.065,0.105 0.113,0.144 0.048,0.039 0.109,0.058 0.183,0.058 a 0.256,0.256 0 0 0 0.193,-0.076 0.603,0.603 0 0 0 0.123,-0.199 2.01,2.01 0 0 0 0.086,-0.279 6.66,6.66 0 0 1 0.082,-0.315 c 0.027,-0.109 0.061,-0.216 0.101,-0.32 0.04,-0.104 0.091,-0.197 0.153,-0.279 a 0.735,0.735 0 0 1 0.236,-0.199 0.72,0.72 0 0 1 0.342,-0.076 c 0.15,0 0.281,0.032 0.392,0.096 a 0.868,0.868 0 0 1 0.277,0.252 c 0.074,0.104 0.128,0.221 0.164,0.353 0.036,0.132 0.053,0.262 0.053,0.394 0,0.153 -0.017,0.3 -0.051,0.441 -0.034,0.141 -0.089,0.266 -0.166,0.375 -0.077,0.109 -0.174,0.196 -0.293,0.26 a 0.902,0.902 0 0 1 -0.433,0.096 v -0.623 a 0.516,0.516 0 0 0 0.217,-0.055 0.362,0.362 0 0 0 0.135,-0.125 0.527,0.527 0 0 0 0.07,-0.179 c 0.014,-0.067 0.021,-0.14 0.021,-0.219 0,-0.052 -0.006,-0.104 -0.017,-0.156 -0.011,-0.052 -0.03,-0.099 -0.057,-0.142 -0.028,-0.042 -0.062,-0.077 -0.103,-0.104 -0.041,-0.027 -0.093,-0.041 -0.156,-0.041 a 0.264,0.264 0 0 0 -0.14,0.033 c -0.036,0.021 -0.068,0.064 -0.099,0.129 -0.03,0.064 -0.06,0.153 -0.09,0.267 l -0.115,0.445 c -0.011,0.055 -0.031,0.13 -0.06,0.228 -0.029,0.098 -0.075,0.193 -0.137,0.289 a 0.877,0.877 0 0 1 -0.252,0.248 0.715,0.715 0 0 1 -0.404,0.104 0.894,0.894 0 0 1 -0.373,-0.078 c -0.115,-0.052 -0.214,-0.129 -0.297,-0.231 -0.083,-0.102 -0.148,-0.229 -0.195,-0.381 a 1.82,1.82 0 0 1 -0.069,-0.527 c 0,-0.161 0.02,-0.318 0.059,-0.469 a 1.18,1.18 0 0 1 0.187,-0.402 c 0.085,-0.116 0.193,-0.208 0.324,-0.277 0.131,-0.069 0.287,-0.101 0.467,-0.098 v 0.623 a 0.509,0.509 0 0 0 -0.249,0.051 z m 1.425,4.046 a 0.641,0.641 0 0 0 0.271,-0.339 0.666,0.666 0 0 0 0.039,-0.228 0.685,0.685 0 0 0 -0.31,-0.615 0.98,0.98 0 0 0 -0.322,-0.137 1.595,1.595 0 0 0 -0.732,0 0.955,0.955 0 0 0 -0.314,0.137 0.704,0.704 0 0 0 -0.223,0.246 0.751,0.751 0 0 0 -0.084,0.369 c 0,0.197 0.06,0.351 0.18,0.461 0.12,0.11 0.279,0.178 0.476,0.203 v 0.623 c -0.183,-0.017 -0.349,-0.059 -0.496,-0.127 -0.147,-0.068 -0.273,-0.159 -0.377,-0.271 -0.104,-0.112 -0.183,-0.243 -0.238,-0.394 -0.055,-0.151 -0.082,-0.315 -0.082,-0.496 0,-0.224 0.039,-0.426 0.117,-0.604 0.078,-0.179 0.185,-0.33 0.322,-0.453 0.137,-0.123 0.297,-0.217 0.482,-0.283 0.185,-0.066 0.383,-0.099 0.596,-0.099 0.219,0 0.422,0.033 0.609,0.099 0.188,0.065 0.351,0.16 0.49,0.283 0.139,0.123 0.249,0.274 0.328,0.453 0.079,0.179 0.119,0.38 0.119,0.604 0,0.162 -0.023,0.314 -0.07,0.458 -0.046,0.143 -0.114,0.272 -0.203,0.385 -0.089,0.113 -0.199,0.207 -0.33,0.281 -0.131,0.074 -0.282,0.12 -0.451,0.14 v -0.624 a 0.48,0.48 0 0 0 0.203,-0.072 z m 0.781,2.621 -2.927,1.095 v -0.668 l 0.652,-0.222 v -1.094 l -0.652,-0.23 v -0.647 l 2.927,1.107 z m -1.795,0.036 1.074,-0.369 v -0.008 l -1.074,-0.381 z m 1.795,2.633 c 0,0.183 -0.026,0.339 -0.08,0.467 -0.054,0.128 -0.124,0.233 -0.211,0.314 -0.087,0.081 -0.187,0.139 -0.299,0.176 a 1.103,1.103 0 0 1 -0.695,0 0.816,0.816 0 0 1 -0.512,-0.49 1.222,1.222 0 0 1 -0.08,-0.467 v -0.676 h -1.05 v -0.644 h 2.927 z m -1.377,-0.177 c 0,0.074 0.005,0.145 0.017,0.213 a 0.506,0.506 0 0 0 0.063,0.18 0.341,0.341 0 0 0 0.133,0.125 0.459,0.459 0 0 0 0.225,0.047 0.477,0.477 0 0 0 0.226,-0.047 c 0.058,-0.031 0.102,-0.073 0.133,-0.125 0.031,-0.052 0.053,-0.112 0.063,-0.18 0.011,-0.068 0.017,-0.14 0.017,-0.213 v -0.5 h -0.877 z m 1.377,3.781 h -0.541 v -1.545 h -0.627 v 1.418 h -0.5 v -1.418 h -0.718 v 1.578 h -0.541 v -2.222 h 2.927 z"
       id="path62"
       style="fill:none;stroke:#ffffff;stroke-width:3;stroke-miterlimit:10;stroke-dasharray:none;stroke-opacity:1" />
  </g>
  <g
     fill="#f4f1f0"
     id="g68"
     transform="rotate(-90,61.341498,59.841498)"
     style="fill:none;stroke:#ffffff;stroke-width:3;stroke-miterlimit:10;stroke-dasharray:none;stroke-opacity:1">
    <path
       d="m 74.657,177.577 a 1.072,1.072 0 0 1 -0.088,-0.422 c 0,-0.224 0.039,-0.426 0.117,-0.604 0.078,-0.179 0.185,-0.33 0.322,-0.453 0.137,-0.123 0.297,-0.217 0.482,-0.283 0.185,-0.066 0.383,-0.099 0.596,-0.099 0.219,0 0.422,0.033 0.609,0.099 0.188,0.065 0.351,0.16 0.49,0.283 0.139,0.123 0.249,0.274 0.328,0.453 0.079,0.179 0.119,0.38 0.119,0.604 0,0.15 -0.022,0.296 -0.067,0.437 a 1.236,1.236 0 0 1 -0.199,0.381 1.087,1.087 0 0 1 -0.767,0.416 v -0.615 c 0.164,-0.038 0.287,-0.112 0.369,-0.221 0.082,-0.109 0.123,-0.242 0.123,-0.398 a 0.685,0.685 0 0 0 -0.31,-0.615 0.98,0.98 0 0 0 -0.322,-0.137 1.595,1.595 0 0 0 -0.732,0 0.955,0.955 0 0 0 -0.314,0.137 0.704,0.704 0 0 0 -0.223,0.246 0.751,0.751 0 0 0 -0.084,0.369 c 0,0.213 0.054,0.378 0.162,0.494 0.108,0.116 0.265,0.184 0.47,0.203 v -0.648 h 0.479 v 1.23 h -1.583 v -0.41 l 0.332,-0.065 a 0.97,0.97 0 0 1 -0.309,-0.382 z m 2.905,3.567 h -0.541 v -1.545 h -0.627 v 1.418 h -0.5 v -1.418 h -0.718 v 1.578 h -0.541 v -2.222 h 2.927 z m 0,1.107 -1.964,1.222 v 0.008 h 1.964 v 0.603 h -2.927 v -0.644 l 1.96,-1.217 v -0.008 h -1.96 v -0.603 h 2.927 z m 0,3.043 h -2.386 v 1.427 h -0.541 v -2.071 h 2.927 z m -0.867,1.758 c 0.188,0.065 0.351,0.16 0.49,0.283 0.139,0.123 0.249,0.274 0.328,0.453 0.079,0.179 0.119,0.38 0.119,0.604 0,0.227 -0.04,0.429 -0.119,0.607 a 1.31,1.31 0 0 1 -0.328,0.451 c -0.14,0.123 -0.303,0.217 -0.49,0.283 -0.187,0.065 -0.39,0.099 -0.609,0.099 -0.213,0 -0.412,-0.033 -0.596,-0.099 -0.184,-0.066 -0.345,-0.16 -0.482,-0.283 -0.137,-0.123 -0.244,-0.273 -0.322,-0.451 a 1.497,1.497 0 0 1 -0.117,-0.607 c 0,-0.224 0.039,-0.426 0.117,-0.604 0.078,-0.179 0.185,-0.33 0.322,-0.453 0.137,-0.123 0.297,-0.217 0.482,-0.283 0.185,-0.066 0.383,-0.099 0.596,-0.099 0.219,0.001 0.422,0.033 0.609,0.099 z m -0.967,0.589 a 0.955,0.955 0 0 0 -0.314,0.137 0.704,0.704 0 0 0 -0.223,0.246 0.751,0.751 0 0 0 -0.084,0.369 c 0,0.145 0.028,0.268 0.084,0.369 0.056,0.101 0.13,0.183 0.223,0.246 0.093,0.063 0.198,0.108 0.314,0.137 0.116,0.029 0.236,0.043 0.358,0.043 0.129,0 0.253,-0.014 0.374,-0.043 0.12,-0.029 0.228,-0.074 0.322,-0.137 0.094,-0.063 0.169,-0.145 0.226,-0.246 a 0.751,0.751 0 0 0 0.084,-0.369 0.685,0.685 0 0 0 -0.31,-0.615 0.98,0.98 0 0 0 -0.322,-0.137 1.595,1.595 0 0 0 -0.732,0 z m 1.053,4.507 a 0.641,0.641 0 0 0 0.271,-0.339 0.666,0.666 0 0 0 0.039,-0.228 0.685,0.685 0 0 0 -0.31,-0.615 0.98,0.98 0 0 0 -0.322,-0.137 1.595,1.595 0 0 0 -0.732,0 0.955,0.955 0 0 0 -0.314,0.137 0.704,0.704 0 0 0 -0.223,0.246 0.751,0.751 0 0 0 -0.084,0.369 c 0,0.197 0.06,0.351 0.18,0.461 0.12,0.11 0.279,0.178 0.476,0.203 v 0.623 c -0.183,-0.017 -0.349,-0.059 -0.496,-0.127 -0.147,-0.068 -0.273,-0.159 -0.377,-0.271 -0.104,-0.112 -0.183,-0.243 -0.238,-0.394 -0.055,-0.151 -0.082,-0.315 -0.082,-0.496 0,-0.224 0.039,-0.426 0.117,-0.604 0.078,-0.179 0.185,-0.33 0.322,-0.453 0.137,-0.123 0.297,-0.217 0.482,-0.283 0.185,-0.066 0.383,-0.099 0.596,-0.099 0.219,0 0.422,0.033 0.609,0.099 0.188,0.065 0.351,0.16 0.49,0.283 0.139,0.123 0.249,0.274 0.328,0.453 0.079,0.179 0.119,0.38 0.119,0.604 0,0.162 -0.023,0.314 -0.07,0.458 -0.046,0.143 -0.114,0.272 -0.203,0.385 -0.089,0.113 -0.199,0.207 -0.33,0.281 -0.131,0.074 -0.282,0.12 -0.451,0.14 v -0.624 a 0.48,0.48 0 0 0 0.203,-0.072 z m 0.781,1.805 h -1.213 l 1.213,1.144 v 0.804 l -1.156,-1.144 -1.771,1.255 v -0.808 l 1.316,-0.882 -0.373,-0.369 h -0.943 v -0.644 h 2.927 z"
       id="path66"
       style="fill:none;stroke:#ffffff;stroke-width:3;stroke-miterlimit:10;stroke-dasharray:none;stroke-opacity:1" />
  </g>
  <g
     fill="#f4f1f0"
     id="g72"
     transform="rotate(-90,61.341498,59.841498)"
     style="fill:none;stroke:#ffffff;stroke-width:3;stroke-miterlimit:10;stroke-dasharray:none;stroke-opacity:1">
    <path
       d="m 76.442,205.333 a 0.653,0.653 0 0 0 0.31,-0.567 0.744,0.744 0 0 0 -0.084,-0.368 0.677,0.677 0 0 0 -0.226,-0.246 0.993,0.993 0 0 0 -0.322,-0.138 1.65,1.65 0 0 0 -0.374,-0.043 c -0.123,0 -0.242,0.015 -0.358,0.043 -0.116,0.028 -0.221,0.074 -0.314,0.138 a 0.704,0.704 0 0 0 -0.223,0.246 0.75,0.75 0 0 0 -0.084,0.368 c 0,0.197 0.06,0.351 0.18,0.462 0.12,0.11 0.279,0.178 0.476,0.203 v 0.623 c -0.183,-0.017 -0.349,-0.059 -0.496,-0.127 -0.147,-0.068 -0.273,-0.159 -0.377,-0.271 -0.104,-0.111 -0.183,-0.243 -0.238,-0.394 -0.055,-0.151 -0.082,-0.315 -0.082,-0.496 0,-0.224 0.039,-0.426 0.117,-0.604 0.078,-0.179 0.185,-0.33 0.322,-0.453 0.137,-0.123 0.297,-0.217 0.482,-0.282 0.185,-0.066 0.383,-0.099 0.596,-0.099 0.219,0 0.422,0.033 0.609,0.099 0.188,0.065 0.351,0.159 0.49,0.282 0.139,0.123 0.249,0.274 0.328,0.453 0.079,0.179 0.119,0.381 0.119,0.604 0,0.162 -0.023,0.314 -0.07,0.458 -0.046,0.143 -0.114,0.271 -0.203,0.385 -0.089,0.114 -0.199,0.207 -0.33,0.281 -0.131,0.073 -0.282,0.12 -0.451,0.14 v -0.624 a 0.522,0.522 0 0 0 0.203,-0.073 z m 0.78,2.423 c 0,0.188 -0.03,0.364 -0.09,0.527 a 1.151,1.151 0 0 1 -0.722,0.7 1.83,1.83 0 0 1 -0.636,0.101 c -0.213,0 -0.41,-0.027 -0.59,-0.082 a 1.3,1.3 0 0 1 -0.467,-0.248 1.163,1.163 0 0 1 -0.31,-0.414 1.399,1.399 0 0 1 -0.113,-0.584 v -1.263 h 2.927 v 1.263 z m -2.386,-0.045 c 0,0.093 0.015,0.183 0.045,0.271 0.03,0.088 0.08,0.165 0.149,0.233 0.069,0.068 0.161,0.123 0.273,0.164 a 1.2,1.2 0 0 0 0.41,0.062 c 0.148,0 0.281,-0.015 0.4,-0.043 a 0.786,0.786 0 0 0 0.306,-0.142 0.626,0.626 0 0 0 0.194,-0.26 1.04,1.04 0 0 0 0.068,-0.4 v -0.459 h -1.845 z m 2.456,3.104 -3.063,-1.144 v -0.464 l 3.063,1.14 z m -0.611,0.007 h 0.541 v 2.398 h -0.541 v -0.877 H 74.295 V 211.7 h 2.386 z m -2.386,3.371 2.927,-0.947 v 0.66 l -2.058,0.652 v 0.008 l 2.058,0.66 v 0.664 l -2.927,-0.972 z"
       id="path70"
       style="fill:none;stroke:#ffffff;stroke-width:3;stroke-miterlimit:10;stroke-dasharray:none;stroke-opacity:1" />
  </g>
  <g
     fill="#f4f1f0"
     id="g76"
     transform="rotate(-90,61.341498,59.841498)"
     style="fill:none;stroke:#ffffff;stroke-width:3;stroke-miterlimit:10;stroke-dasharray:none;stroke-opacity:1">
    <path
       d="m 75.27,223.097 a 0.776,0.776 0 0 1 -0.572,-0.427 c -0.067,-0.128 -0.1,-0.302 -0.1,-0.521 0,-0.123 0.017,-0.242 0.051,-0.356 0.034,-0.115 0.087,-0.218 0.16,-0.308 0.073,-0.09 0.166,-0.163 0.279,-0.218 0.113,-0.055 0.251,-0.081 0.412,-0.081 h 0.254 v 0.582 h -0.131 a 1.1,1.1 0 0 0 -0.197,0.016 c -0.06,0.012 -0.111,0.03 -0.154,0.058 -0.043,0.028 -0.076,0.065 -0.101,0.113 a 0.414,0.414 0 0 0 -0.037,0.187 c 0,0.084 0.015,0.15 0.045,0.196 0.03,0.047 0.069,0.08 0.117,0.101 0.048,0.021 0.1,0.033 0.156,0.037 0.056,0.004 0.11,0.006 0.162,0.006 h 1.976 v 0.644 h -2.005 a 1.95,1.95 0 0 1 -0.315,-0.029 z m 1.453,0.566 c 0.188,0.065 0.351,0.159 0.49,0.282 0.139,0.123 0.249,0.274 0.328,0.453 0.079,0.179 0.119,0.381 0.119,0.604 0,0.228 -0.04,0.43 -0.119,0.607 a 1.31,1.31 0 0 1 -0.328,0.451 c -0.14,0.123 -0.303,0.217 -0.49,0.282 -0.187,0.065 -0.39,0.099 -0.609,0.099 -0.213,0 -0.412,-0.033 -0.596,-0.099 -0.184,-0.066 -0.345,-0.159 -0.482,-0.282 -0.137,-0.123 -0.244,-0.273 -0.322,-0.451 a 1.497,1.497 0 0 1 -0.117,-0.607 c 0,-0.224 0.039,-0.426 0.117,-0.604 0.078,-0.179 0.185,-0.33 0.322,-0.453 0.137,-0.123 0.297,-0.217 0.482,-0.282 0.185,-0.066 0.383,-0.099 0.596,-0.099 0.219,0.001 0.422,0.033 0.609,0.099 z m -0.967,0.588 a 0.937,0.937 0 0 0 -0.314,0.138 0.704,0.704 0 0 0 -0.223,0.246 0.75,0.75 0 0 0 -0.084,0.368 c 0,0.146 0.028,0.269 0.084,0.369 0.056,0.102 0.13,0.184 0.223,0.246 a 1,1 0 0 0 0.314,0.138 c 0.116,0.028 0.236,0.043 0.358,0.043 0.129,0 0.253,-0.015 0.374,-0.043 a 0.972,0.972 0 0 0 0.322,-0.138 0.712,0.712 0 0 0 0.226,-0.246 0.751,0.751 0 0 0 0.084,-0.369 0.744,0.744 0 0 0 -0.084,-0.368 0.677,0.677 0 0 0 -0.226,-0.246 0.993,0.993 0 0 0 -0.322,-0.138 1.65,1.65 0 0 0 -0.374,-0.043 c -0.122,0 -0.242,0.015 -0.358,0.043 z m 1.834,2.315 v 0.722 l -1.156,0.685 1.156,0.681 v 0.717 l -1.804,-1.086 h -1.124 v -0.644 h 1.14 z m 0.07,4.334 -3.063,-1.145 v -0.463 l 3.063,1.14 z m -0.07,1.143 -2.013,0.685 v 0.008 l 2.013,0.648 v 0.906 h -2.927 v -0.604 h 2.075 v -0.008 l -2.075,-0.718 v -0.496 l 2.054,-0.717 v -0.009 h -2.054 v -0.603 h 2.927 z m -0.867,2.785 c 0.188,0.065 0.351,0.159 0.49,0.282 0.139,0.123 0.249,0.274 0.328,0.453 0.079,0.179 0.119,0.381 0.119,0.604 0,0.228 -0.04,0.43 -0.119,0.607 a 1.31,1.31 0 0 1 -0.328,0.451 c -0.14,0.123 -0.303,0.217 -0.49,0.282 -0.187,0.065 -0.39,0.099 -0.609,0.099 -0.213,0 -0.412,-0.033 -0.596,-0.099 -0.184,-0.066 -0.345,-0.159 -0.482,-0.282 -0.137,-0.123 -0.244,-0.273 -0.322,-0.451 a 1.497,1.497 0 0 1 -0.117,-0.607 c 0,-0.224 0.039,-0.426 0.117,-0.604 0.078,-0.179 0.185,-0.33 0.322,-0.453 0.137,-0.123 0.297,-0.217 0.482,-0.282 0.185,-0.066 0.383,-0.099 0.596,-0.099 0.219,0 0.422,0.032 0.609,0.099 z m -0.967,0.587 a 0.937,0.937 0 0 0 -0.314,0.138 0.704,0.704 0 0 0 -0.223,0.246 0.75,0.75 0 0 0 -0.084,0.368 c 0,0.146 0.028,0.269 0.084,0.369 0.056,0.102 0.13,0.184 0.223,0.246 a 1,1 0 0 0 0.314,0.138 c 0.116,0.028 0.236,0.043 0.358,0.043 0.129,0 0.253,-0.015 0.374,-0.043 a 0.972,0.972 0 0 0 0.322,-0.138 0.712,0.712 0 0 0 0.226,-0.246 0.751,0.751 0 0 0 0.084,-0.369 0.744,0.744 0 0 0 -0.084,-0.368 0.677,0.677 0 0 0 -0.226,-0.246 0.993,0.993 0 0 0 -0.322,-0.138 1.65,1.65 0 0 0 -0.374,-0.043 c -0.122,0 -0.242,0.015 -0.358,0.043 z m -0.869,4.784 c -0.193,-0.222 -0.289,-0.528 -0.289,-0.919 0,-0.396 0.096,-0.703 0.287,-0.92 0.191,-0.218 0.487,-0.326 0.886,-0.326 h 1.82 v 0.644 h -1.82 c -0.079,0 -0.157,0.007 -0.233,0.021 a 0.469,0.469 0 0 0 -0.203,0.086 c -0.059,0.044 -0.106,0.104 -0.144,0.183 -0.038,0.079 -0.055,0.183 -0.055,0.313 0,0.229 0.051,0.389 0.154,0.476 0.102,0.088 0.263,0.132 0.481,0.132 h 1.82 v 0.644 h -1.82 c -0.397,-0.002 -0.692,-0.114 -0.884,-0.334 z m 0.498,1.377 a 0.469,0.469 0 0 0 -0.166,0.142 c -0.042,0.059 -0.074,0.128 -0.094,0.207 -0.02,0.079 -0.031,0.161 -0.031,0.246 0,0.058 0.004,0.119 0.014,0.185 0.01,0.066 0.028,0.127 0.055,0.185 0.027,0.058 0.065,0.105 0.113,0.144 0.048,0.039 0.109,0.058 0.183,0.058 a 0.256,0.256 0 0 0 0.193,-0.076 0.614,0.614 0 0 0 0.123,-0.199 c 0.033,-0.082 0.061,-0.175 0.086,-0.278 a 6.66,6.66 0 0 1 0.082,-0.315 c 0.027,-0.109 0.061,-0.217 0.101,-0.32 0.04,-0.104 0.091,-0.196 0.153,-0.278 0.063,-0.082 0.142,-0.148 0.236,-0.199 0.094,-0.051 0.208,-0.076 0.342,-0.076 0.15,0 0.281,0.032 0.392,0.097 0.111,0.064 0.203,0.148 0.277,0.252 0.074,0.104 0.128,0.222 0.164,0.353 0.036,0.132 0.053,0.263 0.053,0.394 0,0.153 -0.017,0.3 -0.051,0.441 -0.034,0.141 -0.089,0.266 -0.166,0.375 -0.077,0.109 -0.174,0.196 -0.293,0.26 a 0.902,0.902 0 0 1 -0.433,0.097 v -0.623 a 0.516,0.516 0 0 0 0.217,-0.056 c 0.057,-0.031 0.103,-0.073 0.135,-0.125 0.032,-0.052 0.056,-0.111 0.07,-0.179 0.014,-0.066 0.021,-0.14 0.021,-0.219 0,-0.052 -0.006,-0.104 -0.017,-0.156 -0.011,-0.052 -0.03,-0.099 -0.057,-0.142 -0.028,-0.042 -0.062,-0.077 -0.103,-0.104 -0.041,-0.027 -0.093,-0.041 -0.156,-0.041 -0.058,0 -0.104,0.012 -0.14,0.033 -0.036,0.021 -0.068,0.064 -0.099,0.129 -0.03,0.064 -0.06,0.153 -0.09,0.267 l -0.115,0.445 c -0.011,0.055 -0.031,0.13 -0.06,0.228 a 1.132,1.132 0 0 1 -0.137,0.289 0.877,0.877 0 0 1 -0.252,0.248 0.723,0.723 0 0 1 -0.404,0.104 c -0.134,0 -0.258,-0.026 -0.373,-0.078 -0.115,-0.052 -0.214,-0.129 -0.297,-0.231 -0.083,-0.102 -0.148,-0.229 -0.195,-0.382 a 1.813,1.813 0 0 1 -0.069,-0.526 c 0,-0.161 0.02,-0.318 0.059,-0.47 0.039,-0.152 0.102,-0.285 0.187,-0.401 0.085,-0.116 0.193,-0.209 0.324,-0.277 0.131,-0.068 0.287,-0.101 0.467,-0.098 v 0.623 a 0.466,0.466 0 0 0 -0.249,0.047 z m 2.205,4.358 h -0.541 v -1.546 h -0.627 v 1.419 h -0.5 v -1.419 h -0.718 v 1.578 h -0.541 v -2.222 h 2.927 z"
       id="path74"
       style="fill:none;stroke:#ffffff;stroke-width:3;stroke-miterlimit:10;stroke-dasharray:none;stroke-opacity:1" />
  </g>
  <g
     fill="#f4f1f0"
     id="g80"
     transform="rotate(-90,61.341498,59.841498)"
     style="fill:none;stroke:#ffffff;stroke-width:3;stroke-miterlimit:10;stroke-dasharray:none;stroke-opacity:1">
    <path
       d="m 80.307,258.231 c 0,0.184 -0.026,0.339 -0.08,0.468 a 0.885,0.885 0 0 1 -0.211,0.313 0.805,0.805 0 0 1 -0.299,0.177 1.133,1.133 0 0 1 -0.695,0 0.805,0.805 0 0 1 -0.301,-0.177 0.88,0.88 0 0 1 -0.211,-0.313 1.227,1.227 0 0 1 -0.08,-0.468 v -0.676 h -1.05 v -0.645 h 2.927 z m -1.378,-0.175 c 0,0.073 0.005,0.145 0.017,0.213 a 0.511,0.511 0 0 0 0.063,0.181 0.341,0.341 0 0 0 0.133,0.125 0.47,0.47 0 0 0 0.225,0.047 0.477,0.477 0 0 0 0.226,-0.047 c 0.058,-0.031 0.102,-0.073 0.133,-0.125 0.031,-0.052 0.053,-0.112 0.063,-0.181 0.011,-0.068 0.017,-0.14 0.017,-0.213 v -0.5 h -0.877 z m 0.51,1.562 c 0.188,0.065 0.351,0.159 0.49,0.282 0.139,0.123 0.249,0.274 0.328,0.453 0.079,0.179 0.119,0.381 0.119,0.604 0,0.228 -0.04,0.43 -0.119,0.607 a 1.31,1.31 0 0 1 -0.328,0.451 c -0.14,0.123 -0.303,0.217 -0.49,0.282 -0.187,0.065 -0.39,0.099 -0.609,0.099 -0.213,0 -0.412,-0.033 -0.596,-0.099 -0.184,-0.066 -0.345,-0.159 -0.482,-0.282 -0.137,-0.123 -0.244,-0.273 -0.322,-0.451 a 1.497,1.497 0 0 1 -0.117,-0.607 c 0,-0.224 0.039,-0.426 0.117,-0.604 0.078,-0.179 0.185,-0.33 0.322,-0.453 0.137,-0.123 0.297,-0.217 0.482,-0.282 0.185,-0.066 0.383,-0.099 0.596,-0.099 0.219,0 0.422,0.033 0.609,0.099 z m -0.967,0.588 a 0.937,0.937 0 0 0 -0.314,0.138 0.704,0.704 0 0 0 -0.223,0.246 0.75,0.75 0 0 0 -0.084,0.368 c 0,0.146 0.028,0.269 0.084,0.369 0.056,0.102 0.13,0.184 0.223,0.246 a 1,1 0 0 0 0.314,0.138 c 0.116,0.028 0.236,0.043 0.358,0.043 0.129,0 0.253,-0.015 0.374,-0.043 a 0.972,0.972 0 0 0 0.322,-0.138 0.712,0.712 0 0 0 0.226,-0.246 0.751,0.751 0 0 0 0.084,-0.369 0.744,0.744 0 0 0 -0.084,-0.368 0.677,0.677 0 0 0 -0.226,-0.246 0.993,0.993 0 0 0 -0.322,-0.138 1.65,1.65 0 0 0 -0.374,-0.043 c -0.122,0 -0.242,0.015 -0.358,0.043 z m -1.093,4.778 1.993,-0.496 v -0.009 l -1.993,-0.487 v -0.652 l 2.927,-0.774 v 0.644 l -1.993,0.463 v 0.009 l 1.993,0.508 v 0.604 l -2.017,0.5 v 0.008 l 2.017,0.479 v 0.632 l -2.927,-0.787 z m 2.928,3.911 h -0.541 v -1.545 h -0.627 v 1.418 h -0.5 V 267.35 H 77.92 v 1.578 h -0.541 v -2.223 h 2.927 v 2.19 z m 0,2.046 c 0,0.132 -0.021,0.25 -0.063,0.354 -0.042,0.105 -0.101,0.196 -0.174,0.271 -0.073,0.075 -0.159,0.132 -0.256,0.172 a 0.836,0.836 0 0 1 -0.314,0.06 0.886,0.886 0 0 1 -0.447,-0.108 0.682,0.682 0 0 1 -0.287,-0.355 h -0.008 a 0.489,0.489 0 0 1 -0.26,0.324 0.73,0.73 0 0 1 -0.203,0.072 1.86,1.86 0 0 1 -0.221,0.03 4.89,4.89 0 0 1 -0.164,0.008 3.227,3.227 0 0 0 -0.192,0.015 1.323,1.323 0 0 0 -0.187,0.033 0.425,0.425 0 0 0 -0.149,0.067 v -0.644 c 0.093,-0.036 0.204,-0.058 0.332,-0.065 0.128,-0.009 0.251,-0.021 0.369,-0.037 0.153,-0.022 0.265,-0.068 0.336,-0.14 0.071,-0.071 0.107,-0.188 0.107,-0.349 v -0.644 h -1.144 v -0.644 h 2.927 v 1.58 z m -1.325,-0.229 c 0,0.147 0.033,0.259 0.099,0.332 0.065,0.074 0.172,0.111 0.32,0.111 0.142,0 0.245,-0.037 0.31,-0.111 0.064,-0.073 0.096,-0.185 0.096,-0.332 v -0.705 h -0.824 v 0.705 z"
       id="path78"
       style="fill:none;stroke:#ffffff;stroke-width:3;stroke-miterlimit:10;stroke-dasharray:none;stroke-opacity:1" />
  </g>
  <g
     fill="#f4f1f0"
     id="g84"
     transform="rotate(-90,61.341498,59.841498)"
     style="fill:none;stroke:#ffffff;stroke-width:3;stroke-miterlimit:10;stroke-dasharray:none;stroke-opacity:1">
    <path
       d="m 56.974,182.668 c 0,0.131 -0.021,0.25 -0.063,0.354 -0.042,0.105 -0.101,0.196 -0.174,0.271 -0.073,0.075 -0.159,0.132 -0.256,0.172 a 0.817,0.817 0 0 1 -0.314,0.06 0.886,0.886 0 0 1 -0.447,-0.108 0.682,0.682 0 0 1 -0.287,-0.355 h -0.008 a 0.495,0.495 0 0 1 -0.26,0.324 0.74,0.74 0 0 1 -0.203,0.072 1.864,1.864 0 0 1 -0.221,0.031 l -0.164,0.008 a 3.227,3.227 0 0 0 -0.192,0.015 1.323,1.323 0 0 0 -0.187,0.033 0.444,0.444 0 0 0 -0.149,0.067 v -0.644 c 0.093,-0.036 0.204,-0.057 0.332,-0.065 0.128,-0.008 0.251,-0.021 0.369,-0.037 0.153,-0.022 0.265,-0.068 0.336,-0.139 0.071,-0.071 0.107,-0.188 0.107,-0.349 v -0.644 h -1.144 v -0.644 h 2.927 v 1.578 z m -1.324,-0.23 c 0,0.147 0.033,0.258 0.099,0.332 0.065,0.074 0.172,0.111 0.32,0.111 0.142,0 0.245,-0.037 0.31,-0.111 0.064,-0.074 0.096,-0.185 0.096,-0.332 v -0.705 H 55.65 Z m 1.324,3.8 h -0.541 v -1.545 h -0.627 v 1.418 h -0.5 v -1.418 h -0.718 v 1.578 h -0.541 v -2.222 h 2.927 z m -2.927,2.616 1.993,-0.496 v -0.008 l -1.993,-0.488 v -0.652 l 2.927,-0.775 v 0.644 l -1.993,0.463 v 0.008 l 1.993,0.508 v 0.603 l -2.017,0.5 v 0.008 l 2.017,0.479 v 0.631 l -2.927,-0.787 z"
       id="path82"
       style="fill:none;stroke:#ffffff;stroke-width:3;stroke-miterlimit:10;stroke-dasharray:none;stroke-opacity:1" />
  </g>
  <g
     fill="#f4f1f0"
     id="g88"
     transform="rotate(-90,61.341498,59.841498)"
     style="fill:none;stroke:#ffffff;stroke-width:3;stroke-miterlimit:10;stroke-dasharray:none;stroke-opacity:1">
    <path
       d="m 56.972,201.672 c 0,0.183 -0.026,0.339 -0.08,0.467 -0.054,0.128 -0.124,0.233 -0.211,0.314 -0.087,0.081 -0.187,0.139 -0.299,0.176 a 1.103,1.103 0 0 1 -0.695,0 0.816,0.816 0 0 1 -0.512,-0.49 1.222,1.222 0 0 1 -0.08,-0.467 v -0.676 h -1.05 v -0.644 h 2.927 z m -1.378,-0.176 c 0,0.074 0.005,0.145 0.017,0.213 a 0.506,0.506 0 0 0 0.063,0.18 0.341,0.341 0 0 0 0.133,0.125 0.459,0.459 0 0 0 0.225,0.047 0.477,0.477 0 0 0 0.226,-0.047 c 0.058,-0.031 0.102,-0.073 0.133,-0.125 0.031,-0.052 0.053,-0.112 0.063,-0.18 0.011,-0.068 0.017,-0.14 0.017,-0.213 v -0.5 h -0.877 z m 1.378,2.235 h -2.386 v 1.427 h -0.541 v -2.071 h 2.927 z m 0,3.247 -2.927,1.095 v -0.668 l 0.652,-0.222 v -1.095 l -0.652,-0.229 v -0.647 l 2.927,1.106 z m -1.795,0.037 1.074,-0.369 v -0.008 l -1.074,-0.382 z m 1.795,0.692 v 0.722 l -1.156,0.685 1.156,0.681 v 0.718 l -1.804,-1.087 h -1.124 v -0.644 h 1.14 z m 0.07,4.334 -3.063,-1.144 v -0.464 l 3.063,1.14 z m -0.07,1.558 c 0,0.184 -0.026,0.339 -0.08,0.468 a 0.885,0.885 0 0 1 -0.211,0.313 0.805,0.805 0 0 1 -0.299,0.177 1.133,1.133 0 0 1 -0.695,0 0.805,0.805 0 0 1 -0.301,-0.177 0.88,0.88 0 0 1 -0.211,-0.313 1.227,1.227 0 0 1 -0.08,-0.468 v -0.676 h -1.05 v -0.645 h 2.927 z m -1.378,-0.176 c 0,0.073 0.005,0.145 0.017,0.213 a 0.511,0.511 0 0 0 0.063,0.181 0.341,0.341 0 0 0 0.133,0.125 0.47,0.47 0 0 0 0.225,0.047 0.477,0.477 0 0 0 0.226,-0.047 c 0.058,-0.031 0.102,-0.073 0.133,-0.125 0.031,-0.052 0.053,-0.112 0.063,-0.181 0.011,-0.068 0.017,-0.14 0.017,-0.213 v -0.5 h -0.877 z m 1.378,2.747 -2.927,1.095 v -0.669 l 0.652,-0.222 v -1.094 l -0.652,-0.23 v -0.647 l 2.927,1.107 z m -1.795,0.036 1.074,-0.369 v -0.008 l -1.074,-0.381 z m -0.909,3.465 c -0.193,-0.222 -0.289,-0.527 -0.289,-0.918 0,-0.396 0.096,-0.703 0.287,-0.921 0.191,-0.217 0.487,-0.326 0.886,-0.326 h 1.82 v 0.644 h -1.82 c -0.079,0 -0.157,0.007 -0.233,0.021 a 0.47,0.47 0 0 0 -0.203,0.087 0.476,0.476 0 0 0 -0.144,0.182 0.743,0.743 0 0 0 -0.055,0.314 c 0,0.229 0.051,0.388 0.154,0.476 0.102,0.087 0.263,0.131 0.481,0.131 h 1.82 v 0.644 h -1.82 c -0.397,-0.002 -0.691,-0.112 -0.884,-0.334 z m 0.498,1.378 a 0.45,0.45 0 0 0 -0.166,0.142 0.605,0.605 0 0 0 -0.094,0.207 0.953,0.953 0 0 0 -0.031,0.246 c 0,0.057 0.004,0.118 0.014,0.184 0.01,0.066 0.028,0.128 0.055,0.185 0.027,0.058 0.065,0.105 0.113,0.144 0.048,0.039 0.109,0.058 0.183,0.058 a 0.256,0.256 0 0 0 0.193,-0.076 0.598,0.598 0 0 0 0.123,-0.198 2.01,2.01 0 0 0 0.086,-0.279 6.66,6.66 0 0 1 0.082,-0.315 2.63,2.63 0 0 1 0.101,-0.319 c 0.04,-0.104 0.091,-0.197 0.153,-0.279 a 0.735,0.735 0 0 1 0.236,-0.199 0.72,0.72 0 0 1 0.342,-0.075 c 0.15,0 0.281,0.032 0.392,0.096 a 0.86,0.86 0 0 1 0.277,0.253 1.1,1.1 0 0 1 0.164,0.353 c 0.036,0.131 0.053,0.262 0.053,0.394 0,0.152 -0.017,0.3 -0.051,0.44 -0.034,0.14 -0.089,0.266 -0.166,0.375 -0.077,0.109 -0.174,0.196 -0.293,0.261 a 0.902,0.902 0 0 1 -0.433,0.096 v -0.623 a 0.502,0.502 0 0 0 0.217,-0.055 0.362,0.362 0 0 0 0.135,-0.125 c 0.033,-0.053 0.056,-0.111 0.07,-0.179 0.014,-0.068 0.021,-0.14 0.021,-0.22 0,-0.052 -0.006,-0.104 -0.017,-0.155 -0.011,-0.051 -0.03,-0.1 -0.057,-0.142 -0.028,-0.042 -0.062,-0.077 -0.103,-0.104 -0.041,-0.027 -0.093,-0.041 -0.156,-0.041 a 0.264,0.264 0 0 0 -0.14,0.033 c -0.036,0.021 -0.068,0.064 -0.099,0.129 -0.03,0.063 -0.06,0.152 -0.09,0.267 l -0.115,0.444 a 2.702,2.702 0 0 1 -0.06,0.228 1.116,1.116 0 0 1 -0.137,0.289 0.864,0.864 0 0 1 -0.252,0.248 0.715,0.715 0 0 1 -0.404,0.104 0.878,0.878 0 0 1 -0.373,-0.078 c -0.115,-0.052 -0.214,-0.129 -0.297,-0.231 -0.083,-0.102 -0.148,-0.229 -0.195,-0.381 a 1.82,1.82 0 0 1 -0.069,-0.527 c 0,-0.161 0.02,-0.317 0.059,-0.469 a 1.18,1.18 0 0 1 0.187,-0.402 c 0.085,-0.116 0.193,-0.208 0.324,-0.276 0.131,-0.068 0.287,-0.102 0.467,-0.099 v 0.623 a 0.468,0.468 0 0 0 -0.249,0.048 z m 2.206,4.358 h -0.541 v -1.546 h -0.627 v 1.419 h -0.5 v -1.419 h -0.718 v 1.578 h -0.541 v -2.222 h 2.927 z"
       id="path86"
       style="fill:none;stroke:#ffffff;stroke-width:3;stroke-miterlimit:10;stroke-dasharray:none;stroke-opacity:1" />
  </g>
  <g
     fill="#f4f1f0"
     id="g92"
     transform="rotate(-90,61.341498,59.841498)"
     style="fill:none;stroke:#ffffff;stroke-width:3;stroke-miterlimit:10;stroke-dasharray:none;stroke-opacity:1">
    <path
       d="m 56.939,240.055 h -0.541 v -1.414 h -0.677 v 1.226 h -0.5 v -1.226 h -1.209 v -0.645 h 2.927 z m 0,2.432 h -0.541 v -1.415 h -0.677 v 1.226 h -0.5 v -1.226 h -1.209 v -0.644 h 2.927 z"
       id="path90"
       style="fill:none;stroke:#ffffff;stroke-width:3;stroke-miterlimit:10;stroke-dasharray:none;stroke-opacity:1" />
  </g>
  <g
     fill="#f4f1f0"
     id="g96"
     transform="rotate(-90,61.341498,59.841498)"
     style="fill:none;stroke:#ffffff;stroke-width:3;stroke-miterlimit:10;stroke-dasharray:none;stroke-opacity:1">
    <path
       d="m 53.974,263.703 2.927,-0.947 v 0.66 l -2.058,0.651 v 0.009 l 2.058,0.66 v 0.664 l -2.927,-0.972 z m 2.06,1.919 c 0.188,0.065 0.351,0.159 0.49,0.282 0.139,0.123 0.249,0.274 0.328,0.453 0.079,0.179 0.119,0.381 0.119,0.604 0,0.228 -0.04,0.43 -0.119,0.607 a 1.31,1.31 0 0 1 -0.328,0.451 c -0.14,0.123 -0.303,0.217 -0.49,0.282 -0.187,0.065 -0.39,0.099 -0.609,0.099 -0.213,0 -0.412,-0.033 -0.596,-0.099 -0.184,-0.066 -0.345,-0.159 -0.482,-0.282 -0.137,-0.123 -0.244,-0.273 -0.322,-0.451 a 1.497,1.497 0 0 1 -0.117,-0.607 c 0,-0.224 0.039,-0.426 0.117,-0.604 0.078,-0.179 0.185,-0.33 0.322,-0.453 0.137,-0.123 0.297,-0.217 0.482,-0.282 0.185,-0.066 0.383,-0.099 0.596,-0.099 0.219,10e-4 0.422,0.033 0.609,0.099 z m -0.967,0.588 a 0.937,0.937 0 0 0 -0.314,0.138 0.704,0.704 0 0 0 -0.223,0.246 0.75,0.75 0 0 0 -0.084,0.368 c 0,0.146 0.028,0.269 0.084,0.369 0.056,0.102 0.13,0.184 0.223,0.246 a 1,1 0 0 0 0.314,0.138 c 0.116,0.028 0.236,0.043 0.358,0.043 0.129,0 0.253,-0.015 0.374,-0.043 a 0.972,0.972 0 0 0 0.322,-0.138 0.712,0.712 0 0 0 0.226,-0.246 0.751,0.751 0 0 0 0.084,-0.369 0.744,0.744 0 0 0 -0.084,-0.368 0.677,0.677 0 0 0 -0.226,-0.246 0.993,0.993 0 0 0 -0.322,-0.138 1.65,1.65 0 0 0 -0.374,-0.043 c -0.123,0 -0.242,0.015 -0.358,0.043 z m 1.834,3.275 h -2.386 v 1.427 h -0.541 v -2.071 h 2.927 z"
       id="path94"
       style="fill:none;stroke:#ffffff;stroke-width:3;stroke-miterlimit:10;stroke-dasharray:none;stroke-opacity:1" />
  </g>
  <g
     fill="#f4f1f0"
     id="g100"
     transform="rotate(-90,61.341498,59.841498)"
     style="fill:none;stroke:#ffffff;stroke-width:3;stroke-miterlimit:10;stroke-dasharray:none;stroke-opacity:1">
    <path
       d="m 34.738,208.335 a 0.469,0.469 0 0 0 -0.166,0.142 0.605,0.605 0 0 0 -0.094,0.207 0.953,0.953 0 0 0 -0.031,0.246 c 0,0.057 0.004,0.119 0.014,0.184 0.01,0.066 0.028,0.127 0.055,0.185 0.027,0.058 0.065,0.105 0.113,0.144 0.048,0.039 0.109,0.058 0.183,0.058 a 0.256,0.256 0 0 0 0.193,-0.076 0.603,0.603 0 0 0 0.123,-0.199 2.01,2.01 0 0 0 0.086,-0.279 6.66,6.66 0 0 1 0.082,-0.315 c 0.027,-0.109 0.061,-0.216 0.101,-0.32 0.04,-0.104 0.091,-0.197 0.153,-0.279 a 0.735,0.735 0 0 1 0.236,-0.199 0.72,0.72 0 0 1 0.342,-0.076 c 0.15,0 0.281,0.032 0.392,0.096 a 0.868,0.868 0 0 1 0.277,0.252 c 0.074,0.104 0.128,0.221 0.164,0.353 0.036,0.132 0.053,0.262 0.053,0.394 0,0.153 -0.017,0.3 -0.051,0.441 -0.034,0.141 -0.089,0.266 -0.166,0.375 -0.077,0.109 -0.174,0.196 -0.293,0.26 a 0.902,0.902 0 0 1 -0.433,0.096 v -0.623 a 0.516,0.516 0 0 0 0.217,-0.055 0.362,0.362 0 0 0 0.135,-0.125 0.527,0.527 0 0 0 0.07,-0.179 c 0.014,-0.067 0.021,-0.14 0.021,-0.219 0,-0.052 -0.006,-0.104 -0.017,-0.156 -0.011,-0.052 -0.03,-0.099 -0.057,-0.142 -0.028,-0.042 -0.062,-0.077 -0.103,-0.104 -0.041,-0.027 -0.093,-0.041 -0.156,-0.041 a 0.264,0.264 0 0 0 -0.14,0.033 c -0.036,0.021 -0.068,0.064 -0.099,0.129 -0.03,0.064 -0.06,0.153 -0.09,0.267 l -0.115,0.445 c -0.011,0.055 -0.031,0.13 -0.06,0.228 -0.029,0.098 -0.075,0.193 -0.137,0.289 a 0.877,0.877 0 0 1 -0.252,0.248 0.715,0.715 0 0 1 -0.404,0.104 0.894,0.894 0 0 1 -0.373,-0.078 c -0.115,-0.052 -0.214,-0.129 -0.297,-0.231 -0.083,-0.102 -0.148,-0.229 -0.195,-0.381 a 1.82,1.82 0 0 1 -0.069,-0.527 c 0,-0.161 0.02,-0.318 0.059,-0.469 a 1.18,1.18 0 0 1 0.187,-0.402 c 0.085,-0.116 0.193,-0.208 0.324,-0.277 0.131,-0.069 0.287,-0.101 0.467,-0.098 v 0.623 a 0.498,0.498 0 0 0 -0.249,0.051 z m 1.665,1.939 h 0.541 v 2.398 h -0.541 v -0.877 h -2.386 v -0.644 h 2.386 z m -0.326,2.706 c 0.188,0.065 0.351,0.16 0.49,0.283 0.139,0.123 0.249,0.274 0.328,0.453 0.079,0.179 0.119,0.38 0.119,0.604 0,0.227 -0.04,0.429 -0.119,0.607 a 1.31,1.31 0 0 1 -0.328,0.451 c -0.14,0.123 -0.303,0.217 -0.49,0.283 -0.187,0.065 -0.39,0.099 -0.609,0.099 -0.213,0 -0.412,-0.033 -0.596,-0.099 -0.184,-0.066 -0.345,-0.16 -0.482,-0.283 -0.137,-0.123 -0.244,-0.273 -0.322,-0.451 a 1.497,1.497 0 0 1 -0.117,-0.607 c 0,-0.224 0.039,-0.426 0.117,-0.604 0.078,-0.179 0.185,-0.33 0.322,-0.453 0.137,-0.123 0.297,-0.217 0.482,-0.283 0.185,-0.066 0.383,-0.099 0.596,-0.099 0.219,0.001 0.422,0.033 0.609,0.099 z m -0.968,0.589 a 0.955,0.955 0 0 0 -0.314,0.137 0.704,0.704 0 0 0 -0.223,0.246 0.751,0.751 0 0 0 -0.084,0.369 c 0,0.145 0.028,0.268 0.084,0.369 0.056,0.101 0.13,0.183 0.223,0.246 0.093,0.063 0.198,0.108 0.314,0.137 0.116,0.029 0.236,0.043 0.358,0.043 0.129,0 0.253,-0.014 0.374,-0.043 0.12,-0.029 0.228,-0.074 0.322,-0.137 0.094,-0.063 0.169,-0.145 0.226,-0.246 a 0.751,0.751 0 0 0 0.084,-0.369 0.685,0.685 0 0 0 -0.31,-0.615 0.98,0.98 0 0 0 -0.322,-0.137 1.595,1.595 0 0 0 -0.732,0 z m 1.835,3.95 c 0,0.183 -0.026,0.339 -0.08,0.467 -0.054,0.128 -0.124,0.233 -0.211,0.314 -0.087,0.081 -0.187,0.139 -0.299,0.176 a 1.103,1.103 0 0 1 -0.695,0 0.816,0.816 0 0 1 -0.512,-0.49 1.222,1.222 0 0 1 -0.08,-0.467 v -0.676 h -1.05 v -0.644 h 2.927 z m -1.378,-0.177 c 0,0.074 0.005,0.145 0.017,0.213 a 0.506,0.506 0 0 0 0.063,0.18 0.341,0.341 0 0 0 0.133,0.125 0.459,0.459 0 0 0 0.225,0.047 0.477,0.477 0 0 0 0.226,-0.047 c 0.058,-0.031 0.102,-0.073 0.133,-0.125 0.031,-0.052 0.053,-0.112 0.063,-0.18 0.011,-0.068 0.017,-0.14 0.017,-0.213 v -0.5 h -0.877 z"
       id="path98"
       style="fill:none;stroke:#ffffff;stroke-width:3;stroke-miterlimit:10;stroke-dasharray:none;stroke-opacity:1" />
  </g>
  <g
     fill="#f4f1f0"
     id="g104"
     transform="rotate(-90,61.341498,59.841498)"
     style="fill:none;stroke:#ffffff;stroke-width:3;stroke-miterlimit:10;stroke-dasharray:none;stroke-opacity:1">
    <path
       d="m 36.878,157.222 h -0.541 v -1.545 H 35.71 v 1.418 h -0.5 v -1.418 h -0.718 v 1.578 h -0.541 v -2.222 h 2.927 z m 0,1.107 -1.964,1.222 v 0.008 h 1.964 v 0.603 h -2.927 v -0.644 l 1.96,-1.217 v -0.008 h -1.96 v -0.603 h 2.927 z m -0.541,2.168 h 0.541 v 2.398 h -0.541 v -0.877 h -2.386 v -0.644 h 2.386 z m 0.541,4.924 h -0.541 v -1.545 H 35.71 v 1.418 h -0.5 v -1.418 h -0.718 v 1.578 h -0.541 v -2.222 h 2.927 z m 0,2.047 c 0,0.131 -0.021,0.25 -0.063,0.354 -0.042,0.105 -0.101,0.196 -0.174,0.271 -0.073,0.075 -0.159,0.132 -0.256,0.172 a 0.817,0.817 0 0 1 -0.314,0.06 0.886,0.886 0 0 1 -0.447,-0.108 0.682,0.682 0 0 1 -0.287,-0.355 h -0.008 a 0.495,0.495 0 0 1 -0.26,0.324 0.74,0.74 0 0 1 -0.203,0.072 1.864,1.864 0 0 1 -0.221,0.031 l -0.164,0.008 a 3.227,3.227 0 0 0 -0.192,0.015 1.323,1.323 0 0 0 -0.187,0.033 0.444,0.444 0 0 0 -0.149,0.067 v -0.644 c 0.093,-0.036 0.204,-0.057 0.332,-0.065 0.128,-0.008 0.251,-0.021 0.369,-0.037 0.153,-0.022 0.265,-0.068 0.336,-0.139 0.071,-0.071 0.107,-0.188 0.107,-0.349 v -0.644 h -1.144 v -0.644 h 2.927 v 1.578 z m -1.324,-0.23 c 0,0.147 0.033,0.258 0.099,0.332 0.065,0.074 0.172,0.111 0.32,0.111 0.142,0 0.245,-0.037 0.31,-0.111 0.064,-0.074 0.096,-0.185 0.096,-0.332 v -0.705 h -0.824 v 0.705 z"
       id="path102"
       style="fill:none;stroke:#ffffff;stroke-width:3;stroke-miterlimit:10;stroke-dasharray:none;stroke-opacity:1" />
  </g>
  <path
     d="M 91.882,46.614 V 44.753 H 91.16 v -0.439 c 0.101,0.003 0.199,-0.004 0.293,-0.022 0.094,-0.018 0.179,-0.049 0.254,-0.094 0.075,-0.045 0.139,-0.104 0.191,-0.178 a 0.645,0.645 0 0 0 0.103,-0.275 h 0.463 v 2.87 h -0.582 z m 22.755,-2.196 c 0.044,-0.141 0.109,-0.264 0.197,-0.369 a 0.897,0.897 0 0 1 0.33,-0.246 c 0.133,-0.059 0.285,-0.088 0.457,-0.088 0.131,0 0.256,0.021 0.375,0.062 a 0.97,0.97 0 0 1 0.313,0.176 0.831,0.831 0 0 1 0.215,0.283 0.872,0.872 0 0 1 0.08,0.377 0.9,0.9 0 0 1 -0.255,0.649 1.591,1.591 0 0 1 -0.26,0.22 l -0.293,0.195 a 3.594,3.594 0 0 0 -0.287,0.207 1.31,1.31 0 0 0 -0.246,0.258 h 1.357 v 0.5 h -2.107 c 0,-0.167 0.024,-0.312 0.072,-0.435 0.048,-0.123 0.113,-0.233 0.195,-0.33 0.082,-0.097 0.178,-0.187 0.289,-0.269 a 11.605,11.605 0 0 1 0.552,-0.383 c 0.071,-0.045 0.136,-0.095 0.195,-0.15 a 0.793,0.793 0 0 0 0.148,-0.184 c 0.04,-0.068 0.059,-0.146 0.059,-0.234 a 0.43,0.43 0 0 0 -0.121,-0.326 0.428,0.428 0 0 0 -0.31,-0.117 0.37,0.37 0 0 0 -0.215,0.06 c -0.059,0.04 -0.106,0.091 -0.142,0.156 -0.036,0.065 -0.061,0.135 -0.076,0.213 a 1.22,1.22 0 0 0 -0.022,0.231 h -0.558 a 1.38,1.38 0 0 1 0.058,-0.456 z m 24.991,0.433 c 0.071,-0.006 0.137,-0.021 0.199,-0.047 0.062,-0.026 0.112,-0.063 0.152,-0.113 0.04,-0.05 0.06,-0.115 0.06,-0.197 a 0.342,0.342 0 0 0 -0.123,-0.283 0.438,0.438 0 0 0 -0.283,-0.099 c -0.147,0 -0.259,0.049 -0.334,0.146 a 0.568,0.568 0 0 0 -0.109,0.367 h -0.553 c 0.005,-0.148 0.032,-0.282 0.08,-0.404 0.048,-0.122 0.115,-0.227 0.201,-0.314 0.086,-0.087 0.189,-0.155 0.31,-0.203 0.121,-0.048 0.254,-0.072 0.402,-0.072 0.115,0 0.229,0.017 0.344,0.051 0.115,0.034 0.218,0.085 0.31,0.154 a 0.825,0.825 0 0 1 0.224,0.25 0.666,0.666 0 0 1 0.086,0.34 0.672,0.672 0 0 1 -0.101,0.369 0.5,0.5 0 0 1 -0.301,0.217 v 0.01 a 0.627,0.627 0 0 1 0.373,0.229 0.674,0.674 0 0 1 0.135,0.422 0.866,0.866 0 0 1 -0.324,0.697 c -0.098,0.079 -0.212,0.139 -0.34,0.18 -0.128,0.041 -0.262,0.062 -0.402,0.062 -0.161,0 -0.308,-0.023 -0.44,-0.07 -0.133,-0.046 -0.246,-0.114 -0.338,-0.203 -0.092,-0.089 -0.165,-0.198 -0.215,-0.326 -0.05,-0.128 -0.074,-0.276 -0.072,-0.443 h 0.554 a 0.798,0.798 0 0 0 0.037,0.22 0.54,0.54 0 0 0 0.094,0.18 0.44,0.44 0 0 0 0.154,0.121 0.5,0.5 0 0 0 0.22,0.045 c 0.131,0 0.242,-0.04 0.332,-0.121 a 0.42,0.42 0 0 0 0.135,-0.33 0.421,0.421 0 0 0 -0.063,-0.25 c -0.042,-0.057 -0.097,-0.099 -0.162,-0.125 -0.065,-0.026 -0.137,-0.041 -0.215,-0.045 a 4.36,4.36 0 0 0 -0.224,-0.006 v -0.41 a 1.17,1.17 0 0 0 0.197,10e-4 z M 90.494,66.472 v -0.533 l 1.247,-1.673 h 0.521 v 1.726 h 0.381 v 0.48 h -0.381 v 0.664 h -0.553 v -0.664 z m 1.202,-1.476 -0.742,0.996 h 0.754 v -0.996 z m 23.597,-0.303 -0.115,0.652 0.008,0.008 a 0.718,0.718 0 0 1 0.562,-0.221 0.838,0.838 0 0 1 0.826,0.597 1.18,1.18 0 0 1 0.059,0.379 0.981,0.981 0 0 1 -0.086,0.412 1.02,1.02 0 0 1 -0.569,0.545 1.04,1.04 0 0 1 -0.41,0.072 c -0.139,0 -0.272,-0.019 -0.399,-0.055 -0.127,-0.037 -0.24,-0.094 -0.338,-0.17 a 0.84,0.84 0 0 1 -0.328,-0.681 h 0.582 a 0.478,0.478 0 0 0 0.148,0.314 0.457,0.457 0 0 0 0.324,0.117 0.45,0.45 0 0 0 0.207,-0.047 0.513,0.513 0 0 0 0.255,-0.299 0.634,0.634 0 0 0 0.002,-0.416 0.49,0.49 0 0 0 -0.255,-0.287 0.49,0.49 0 0 0 -0.209,-0.041 0.514,0.514 0 0 0 -0.254,0.055 0.6,0.6 0 0 0 -0.185,0.174 h -0.525 l 0.283,-1.587 h 1.603 v 0.48 h -1.186 z m 24.659,0.014 a 0.337,0.337 0 0 0 -0.254,-0.106 0.383,0.383 0 0 0 -0.261,0.092 c -0.069,0.062 -0.125,0.137 -0.166,0.226 -0.041,0.089 -0.071,0.184 -0.09,0.285 a 1.743,1.743 0 0 0 -0.033,0.271 l 0.008,0.008 c 0.08,-0.115 0.172,-0.197 0.279,-0.246 a 0.874,0.874 0 0 1 0.369,-0.074 0.909,0.909 0 0 1 0.66,0.295 0.834,0.834 0 0 1 0.168,0.299 1.159,1.159 0 0 1 -0.019,0.752 0.952,0.952 0 0 1 -0.523,0.553 1.01,1.01 0 0 1 -0.41,0.08 c -0.216,0 -0.395,-0.043 -0.537,-0.129 a 1,1 0 0 1 -0.34,-0.338 c -0.084,-0.14 -0.144,-0.297 -0.176,-0.474 -0.032,-0.177 -0.049,-0.356 -0.049,-0.539 0,-0.178 0.021,-0.355 0.062,-0.533 0.041,-0.177 0.107,-0.338 0.197,-0.481 0.09,-0.144 0.207,-0.26 0.349,-0.351 0.142,-0.091 0.316,-0.135 0.521,-0.135 0.123,0 0.238,0.018 0.345,0.053 0.106,0.036 0.201,0.087 0.283,0.154 0.082,0.067 0.149,0.149 0.201,0.248 a 1.003,1.003 0 0 1 0.103,0.34 h -0.554 a 0.516,0.516 0 0 0 -0.133,-0.25 z m -0.49,0.937 a 0.42,0.42 0 0 0 -0.146,0.117 0.496,0.496 0 0 0 -0.086,0.17 0.711,0.711 0 0 0 0.003,0.397 0.543,0.543 0 0 0 0.09,0.172 0.42,0.42 0 0 0 0.343,0.166 c 0.071,0 0.133,-0.015 0.187,-0.045 0.053,-0.03 0.099,-0.07 0.137,-0.119 0.038,-0.049 0.067,-0.105 0.086,-0.168 0.019,-0.063 0.029,-0.127 0.029,-0.193 a 0.74,0.74 0 0 0 -0.027,-0.199 0.544,0.544 0 0 0 -0.08,-0.172 0.43,0.43 0 0 0 -0.138,-0.123 0.466,0.466 0 0 0 -0.398,-0.003 z m 22.94,-0.705 c 0.056,-0.19 0.132,-0.342 0.228,-0.457 0.096,-0.115 0.208,-0.197 0.334,-0.246 0.126,-0.049 0.262,-0.074 0.404,-0.074 0.145,0 0.281,0.024 0.408,0.074 0.127,0.049 0.239,0.131 0.336,0.246 0.097,0.115 0.173,0.267 0.229,0.457 0.056,0.19 0.084,0.424 0.084,0.703 0,0.287 -0.028,0.527 -0.084,0.72 -0.056,0.192 -0.132,0.346 -0.229,0.461 -0.097,0.115 -0.209,0.197 -0.336,0.246 a 1.124,1.124 0 0 1 -0.408,0.074 c -0.142,0 -0.277,-0.024 -0.404,-0.074 -0.127,-0.05 -0.239,-0.131 -0.334,-0.246 -0.095,-0.115 -0.171,-0.269 -0.228,-0.461 -0.056,-0.193 -0.084,-0.433 -0.084,-0.72 0,-0.279 0.028,-0.513 0.084,-0.703 z m 0.506,1 a 1.682,1.682 0 0 0 0.051,0.336 0.729,0.729 0 0 0 0.138,0.277 c 0.063,0.077 0.153,0.115 0.271,0.115 0.12,0 0.212,-0.038 0.277,-0.115 0.064,-0.077 0.11,-0.169 0.139,-0.277 0.029,-0.108 0.046,-0.22 0.051,-0.336 0.005,-0.116 0.008,-0.215 0.008,-0.297 l -0.002,-0.178 a 2.058,2.058 0 0 0 -0.058,-0.434 0.655,0.655 0 0 0 -0.08,-0.195 0.367,0.367 0 0 0 -0.336,-0.193 0.353,0.353 0 0 0 -0.199,0.053 0.43,0.43 0 0 0 -0.131,0.14 0.745,0.745 0 0 0 -0.08,0.195 c -0.019,0.072 -0.033,0.146 -0.041,0.219 -0.008,0.073 -0.013,0.146 -0.014,0.215 l -0.002,0.178 a 9.474,9.474 0 0 0 0.008,0.297 z M 92.149,85.403 a 3.397,3.397 0 0 0 -0.291,0.611 4.286,4.286 0 0 0 -0.18,0.656 3.653,3.653 0 0 0 -0.068,0.619 h -0.623 a 3.92,3.92 0 0 1 0.301,-1.238 c 0.168,-0.396 0.389,-0.76 0.662,-1.09 h -1.361 v -0.542 h 1.96 v 0.5 a 2.046,2.046 0 0 0 -0.4,0.484 z m 22.541,-0.709 a 0.777,0.777 0 0 1 0.224,-0.246 0.998,0.998 0 0 1 0.31,-0.148 c 0.115,-0.033 0.231,-0.049 0.349,-0.049 0.178,0 0.328,0.027 0.451,0.082 0.123,0.055 0.222,0.121 0.297,0.199 a 0.724,0.724 0 0 1 0.211,0.49 0.663,0.663 0 0 1 -0.105,0.373 0.576,0.576 0 0 1 -0.313,0.23 v 0.008 a 0.66,0.66 0 0 1 0.398,0.244 0.743,0.743 0 0 1 0.139,0.457 0.821,0.821 0 0 1 -0.092,0.398 0.852,0.852 0 0 1 -0.244,0.279 1.093,1.093 0 0 1 -0.345,0.166 1.415,1.415 0 0 1 -0.394,0.055 c -0.139,0 -0.274,-0.017 -0.404,-0.051 -0.13,-0.034 -0.246,-0.088 -0.349,-0.162 a 0.825,0.825 0 0 1 -0.246,-0.279 0.829,0.829 0 0 1 -0.092,-0.402 c 0,-0.183 0.047,-0.336 0.141,-0.459 0.094,-0.123 0.228,-0.205 0.4,-0.246 v -0.008 a 0.536,0.536 0 0 1 -0.316,-0.217 0.659,0.659 0 0 1 -0.106,-0.374 c 0,-0.128 0.029,-0.242 0.086,-0.34 z m 0.418,1.816 a 0.475,0.475 0 0 0 0.27,0.253 0.568,0.568 0 0 0 0.392,0 c 0.059,-0.023 0.111,-0.056 0.156,-0.099 0.045,-0.043 0.08,-0.093 0.104,-0.154 a 0.505,0.505 0 0 0 -0.002,-0.384 0.48,0.48 0 0 0 -0.106,-0.146 0.475,0.475 0 0 0 -0.156,-0.094 0.544,0.544 0 0 0 -0.191,-0.033 0.565,0.565 0 0 0 -0.361,0.117 0.407,0.407 0 0 0 -0.147,0.338 0.486,0.486 0 0 0 0.041,0.202 z m 0.156,-1.141 a 0.506,0.506 0 0 0 0.308,0.096 c 0.123,0 0.226,-0.032 0.307,-0.096 0.082,-0.064 0.123,-0.158 0.123,-0.281 0,-0.039 -0.005,-0.08 -0.016,-0.125 a 0.352,0.352 0 0 0 -0.194,-0.232 0.492,0.492 0 0 0 -0.219,-0.041 0.511,0.511 0 0 0 -0.308,0.103 0.342,0.342 0 0 0 -0.096,0.123 0.4,0.4 0 0 0 -0.035,0.172 0.326,0.326 0 0 0 0.13,0.281 z m 23.871,1.377 a 0.337,0.337 0 0 0 0.254,0.106 c 0.106,0 0.194,-0.031 0.262,-0.092 0.068,-0.061 0.123,-0.137 0.164,-0.226 0.041,-0.088 0.07,-0.184 0.088,-0.285 0.018,-0.101 0.029,-0.191 0.035,-0.271 L 139.93,85.97 a 0.69,0.69 0 0 1 -0.279,0.246 0.871,0.871 0 0 1 -0.369,0.074 c -0.123,0 -0.244,-0.027 -0.361,-0.08 a 0.812,0.812 0 0 1 -0.467,-0.514 1.159,1.159 0 0 1 0.019,-0.752 c 0.048,-0.127 0.116,-0.238 0.205,-0.332 0.089,-0.094 0.195,-0.168 0.318,-0.223 0.123,-0.055 0.26,-0.082 0.41,-0.082 0.218,0 0.398,0.043 0.539,0.129 a 1,1 0 0 1 0.338,0.34 c 0.085,0.141 0.144,0.3 0.177,0.478 a 2.94,2.94 0 0 1 0.049,0.537 c 0,0.178 -0.021,0.355 -0.062,0.533 -0.041,0.178 -0.106,0.338 -0.197,0.482 a 1.091,1.091 0 0 1 -0.348,0.348 0.965,0.965 0 0 1 -0.521,0.133 c -0.123,0 -0.238,-0.017 -0.344,-0.051 a 0.827,0.827 0 0 1 -0.484,-0.404 0.995,0.995 0 0 1 -0.103,-0.336 h 0.554 a 0.493,0.493 0 0 0 0.131,0.25 z m 0.492,-0.937 a 0.411,0.411 0 0 0 0.144,-0.117 0.514,0.514 0 0 0 0.086,-0.17 0.711,0.711 0 0 0 0.029,-0.203 0.621,0.621 0 0 0 -0.121,-0.367 0.418,0.418 0 0 0 -0.343,-0.166 0.38,0.38 0 0 0 -0.185,0.045 0.495,0.495 0 0 0 -0.225,0.287 0.663,0.663 0 0 0 -0.028,0.193 0.776,0.776 0 0 0 0.026,0.199 0.544,0.544 0 0 0 0.08,0.172 0.396,0.396 0 0 0 0.332,0.17 0.45,0.45 0 0 0 0.205,-0.043 z"
     fill="#f4f1f0"
     id="path106"
     style="fill:none;stroke:#ffffff;stroke-width:3;stroke-miterlimit:10;stroke-dasharray:none;stroke-opacity:1" />
  <path
     d="m 84.707,57.234 c -0.163,0 -0.295,-0.132 -0.295,-0.295 v -7.378 c 0,-0.163 0.132,-0.294 0.294,-0.294 h 14.212 a 0.294,0.294 0 0 1 0.294,0.294 v 7.378 a 0.294,0.294 0 0 1 -0.294,0.294 H 84.707 Z"
     fill="#151106"
     id="path108"
     style="fill:none;stroke:#ffffff;stroke-width:3;stroke-miterlimit:10;stroke-dasharray:none;stroke-opacity:1" />
  <path
     d="M 97.625,56.667 H 86 c -0.561,0 -1.021,-0.459 -1.021,-1.021 v -4.792 c 0,-0.561 0.459,-1.021 1.021,-1.021 h 11.625 c 0.561,0 1.021,0.459 1.021,1.021 v 4.792 c 0,0.562 -0.46,1.021 -1.021,1.021 z"
     fill="#c7bcae"
     id="path110"
     style="fill:none;stroke:#ffffff;stroke-width:3;stroke-miterlimit:10;stroke-dasharray:none;stroke-opacity:1" />
  <path
     d="m 108.462,57.234 c -0.163,0 -0.295,-0.132 -0.295,-0.295 v -7.378 c 0,-0.163 0.132,-0.294 0.294,-0.294 h 14.212 a 0.294,0.294 0 0 1 0.294,0.294 v 7.378 a 0.294,0.294 0 0 1 -0.294,0.294 h -14.211 z"
     fill="#151106"
     id="path112"
     style="fill:none;stroke:#ffffff;stroke-width:3;stroke-miterlimit:10;stroke-dasharray:none;stroke-opacity:1" />
  <path
     d="m 121.38,56.667 h -11.625 c -0.561,0 -1.021,-0.459 -1.021,-1.021 v -4.792 c 0,-0.561 0.459,-1.021 1.021,-1.021 h 11.625 c 0.561,0 1.021,0.459 1.021,1.021 v 4.792 c 0,0.562 -0.46,1.021 -1.021,1.021 z"
     fill="#c7bcae"
     id="path114"
     style="fill:none;stroke:#ffffff;stroke-width:3;stroke-miterlimit:10;stroke-dasharray:none;stroke-opacity:1" />
  <path
     d="m 132.217,57.234 c -0.163,0 -0.295,-0.132 -0.295,-0.295 v -7.378 c 0,-0.163 0.132,-0.294 0.294,-0.294 h 14.212 a 0.294,0.294 0 0 1 0.294,0.294 v 7.378 a 0.294,0.294 0 0 1 -0.294,0.294 h -14.211 z"
     fill="#151106"
     id="path116"
     style="fill:none;stroke:#ffffff;stroke-width:3;stroke-miterlimit:10;stroke-dasharray:none;stroke-opacity:1" />
  <path
     d="M 145.135,56.667 H 133.51 c -0.561,0 -1.021,-0.459 -1.021,-1.021 v -4.792 c 0,-0.561 0.459,-1.021 1.021,-1.021 h 11.625 c 0.561,0 1.021,0.459 1.021,1.021 v 4.792 c 0,0.562 -0.46,1.021 -1.021,1.021 z"
     fill="#c7bcae"
     id="path118"
     style="fill:none;stroke:#ffffff;stroke-width:3;stroke-miterlimit:10;stroke-dasharray:none;stroke-opacity:1" />
  <path
     d="m 155.972,57.234 c -0.163,0 -0.295,-0.132 -0.295,-0.295 v -7.378 c 0,-0.163 0.132,-0.294 0.294,-0.294 h 14.212 a 0.294,0.294 0 0 1 0.294,0.294 v 7.378 a 0.294,0.294 0 0 1 -0.294,0.294 h -14.211 z"
     fill="#151106"
     id="path120"
     style="fill:none;stroke:#ffffff;stroke-width:3;stroke-miterlimit:10;stroke-dasharray:none;stroke-opacity:1" />
  <path
     d="m 168.89,56.667 h -11.625 c -0.561,0 -1.021,-0.459 -1.021,-1.021 v -4.792 c 0,-0.561 0.459,-1.021 1.021,-1.021 h 11.625 c 0.561,0 1.021,0.459 1.021,1.021 v 4.792 c 0,0.562 -0.46,1.021 -1.021,1.021 z"
     fill="#c7bcae"
     id="path122"
     style="fill:none;stroke:#ffffff;stroke-width:3;stroke-miterlimit:10;stroke-dasharray:none;stroke-opacity:1" />
  <path
     d="m 179.727,57.234 c -0.163,0 -0.295,-0.132 -0.295,-0.295 v -7.378 c 0,-0.163 0.132,-0.294 0.294,-0.294 h 14.212 a 0.294,0.294 0 0 1 0.294,0.294 v 7.378 a 0.294,0.294 0 0 1 -0.294,0.294 h -14.211 z"
     fill="#151106"
     id="path124"
     style="fill:none;stroke:#ffffff;stroke-width:3;stroke-miterlimit:10;stroke-dasharray:none;stroke-opacity:1" />
  <path
     d="M 192.645,56.667 H 181.02 c -0.561,0 -1.021,-0.459 -1.021,-1.021 v -4.792 c 0,-0.561 0.459,-1.021 1.021,-1.021 h 11.625 c 0.561,0 1.021,0.459 1.021,1.021 v 4.792 a 1.025,1.025 0 0 1 -1.021,1.021 z"
     fill="#c7bcae"
     id="path126"
     style="fill:none;stroke:#ffffff;stroke-width:3;stroke-miterlimit:10;stroke-dasharray:none;stroke-opacity:1" />
  <path
     d="m 203.482,57.234 c -0.163,0 -0.295,-0.132 -0.295,-0.295 v -7.378 c 0,-0.163 0.132,-0.294 0.294,-0.294 h 14.212 a 0.294,0.294 0 0 1 0.294,0.294 v 7.378 a 0.294,0.294 0 0 1 -0.294,0.294 h -14.211 z"
     fill="#151106"
     id="path128"
     style="fill:none;stroke:#ffffff;stroke-width:3;stroke-miterlimit:10;stroke-dasharray:none;stroke-opacity:1" />
  <path
     d="m 216.399,56.667 h -11.625 c -0.561,0 -1.021,-0.459 -1.021,-1.021 v -4.792 c 0,-0.561 0.459,-1.021 1.021,-1.021 h 11.625 c 0.561,0 1.021,0.459 1.021,1.021 v 4.792 a 1.023,1.023 0 0 1 -1.021,1.021 z"
     fill="#c7bcae"
     id="path130"
     style="fill:none;stroke:#ffffff;stroke-width:3;stroke-miterlimit:10;stroke-dasharray:none;stroke-opacity:1" />
  <path
     d="m 227.236,57.234 c -0.163,0 -0.295,-0.132 -0.295,-0.295 v -7.378 c 0,-0.163 0.132,-0.294 0.294,-0.294 h 14.212 a 0.294,0.294 0 0 1 0.294,0.294 v 7.378 a 0.294,0.294 0 0 1 -0.294,0.294 h -14.211 z"
     fill="#151106"
     id="path132"
     style="fill:none;stroke:#ffffff;stroke-width:3;stroke-miterlimit:10;stroke-dasharray:none;stroke-opacity:1" />
  <path
     d="m 240.154,56.667 h -11.625 c -0.561,0 -1.021,-0.459 -1.021,-1.021 v -4.792 c 0,-0.561 0.459,-1.021 1.021,-1.021 h 11.625 c 0.561,0 1.021,0.459 1.021,1.021 v 4.792 a 1.023,1.023 0 0 1 -1.021,1.021 z"
     fill="#c7bcae"
     id="path134"
     style="fill:none;stroke:#ffffff;stroke-width:3;stroke-miterlimit:10;stroke-dasharray:none;stroke-opacity:1" />
  <path
     d="M 258.697,60.165 V 46.57 c 0,-0.218 0.177,-0.395 0.395,-0.395 h 14.009 a 0.395,0.395 0 0 1 0.395,0.395 v 13.595 a 0.395,0.395 0 0 1 -0.395,0.395 h -14.009 a 0.395,0.395 0 0 1 -0.395,-0.395 z"
     fill="#151106"
     id="path136"
     style="fill:none;stroke:#ffffff;stroke-width:3;stroke-miterlimit:10;stroke-dasharray:none;stroke-opacity:1" />
  <path
     d="m 271.924,56.684 h -11.655 a 1.01,1.01 0 0 1 -1.006,-1.006 v -4.622 a 1.01,1.01 0 0 1 1.006,-1.006 h 11.655 a 1.01,1.01 0 0 1 1.006,1.006 v 4.622 a 1.009,1.009 0 0 1 -1.006,1.006 z"
     fill="#f62717"
     id="path138"
     style="fill:none;stroke:#ffffff;stroke-width:3;stroke-miterlimit:10;stroke-dasharray:none;stroke-opacity:1" />
  <path
     d="m 84.707,77.734 c -0.163,0 -0.295,-0.132 -0.295,-0.295 v -7.378 c 0,-0.163 0.132,-0.294 0.294,-0.294 h 14.212 a 0.294,0.294 0 0 1 0.294,0.294 v 7.378 a 0.294,0.294 0 0 1 -0.294,0.294 H 84.707 Z"
     fill="#151106"
     id="path140"
     style="fill:none;stroke:#ffffff;stroke-width:3;stroke-miterlimit:10;stroke-dasharray:none;stroke-opacity:1" />
  <path
     d="M 97.625,77.167 H 86 c -0.561,0 -1.021,-0.459 -1.021,-1.021 v -4.792 c 0,-0.561 0.459,-1.021 1.021,-1.021 h 11.625 c 0.561,0 1.021,0.459 1.021,1.021 v 4.792 c 0,0.562 -0.46,1.021 -1.021,1.021 z"
     fill="#c7bcae"
     id="path142"
     style="fill:none;stroke:#ffffff;stroke-width:3;stroke-miterlimit:10;stroke-dasharray:none;stroke-opacity:1" />
  <path
     d="m 108.462,77.734 c -0.163,0 -0.295,-0.132 -0.295,-0.295 v -7.378 c 0,-0.163 0.132,-0.294 0.294,-0.294 h 14.212 a 0.294,0.294 0 0 1 0.294,0.294 v 7.378 a 0.294,0.294 0 0 1 -0.294,0.294 h -14.211 z"
     fill="#151106"
     id="path144"
     style="fill:none;stroke:#ffffff;stroke-width:3;stroke-miterlimit:10;stroke-dasharray:none;stroke-opacity:1" />
  <path
     d="m 121.38,77.167 h -11.625 c -0.561,0 -1.021,-0.459 -1.021,-1.021 v -4.792 c 0,-0.561 0.459,-1.021 1.021,-1.021 h 11.625 c 0.561,0 1.021,0.459 1.021,1.021 v 4.792 c 0,0.562 -0.46,1.021 -1.021,1.021 z"
     fill="#c7bcae"
     id="path146"
     style="fill:none;stroke:#ffffff;stroke-width:3;stroke-miterlimit:10;stroke-dasharray:none;stroke-opacity:1" />
  <path
     d="m 132.217,77.734 c -0.163,0 -0.295,-0.132 -0.295,-0.295 v -7.378 c 0,-0.163 0.132,-0.294 0.294,-0.294 h 14.212 a 0.294,0.294 0 0 1 0.294,0.294 v 7.378 a 0.294,0.294 0 0 1 -0.294,0.294 h -14.211 z"
     fill="#151106"
     id="path148"
     style="fill:none;stroke:#ffffff;stroke-width:3;stroke-miterlimit:10;stroke-dasharray:none;stroke-opacity:1" />
  <path
     d="M 145.135,77.167 H 133.51 c -0.561,0 -1.021,-0.459 -1.021,-1.021 v -4.792 c 0,-0.561 0.459,-1.021 1.021,-1.021 h 11.625 c 0.561,0 1.021,0.459 1.021,1.021 v 4.792 c 0,0.562 -0.46,1.021 -1.021,1.021 z"
     fill="#c7bcae"
     id="path150"
     style="fill:none;stroke:#ffffff;stroke-width:3;stroke-miterlimit:10;stroke-dasharray:none;stroke-opacity:1" />
  <path
     d="m 155.972,77.734 c -0.163,0 -0.295,-0.132 -0.295,-0.295 v -7.378 c 0,-0.163 0.132,-0.294 0.294,-0.294 h 14.212 a 0.294,0.294 0 0 1 0.294,0.294 v 7.378 a 0.294,0.294 0 0 1 -0.294,0.294 h -14.211 z"
     fill="#151106"
     id="path152"
     style="fill:none;stroke:#ffffff;stroke-width:3;stroke-miterlimit:10;stroke-dasharray:none;stroke-opacity:1" />
  <path
     d="m 168.89,77.167 h -11.625 c -0.561,0 -1.021,-0.459 -1.021,-1.021 v -4.792 c 0,-0.561 0.459,-1.021 1.021,-1.021 h 11.625 c 0.561,0 1.021,0.459 1.021,1.021 v 4.792 c 0,0.562 -0.46,1.021 -1.021,1.021 z"
     fill="#c7bcae"
     id="path154"
     style="fill:none;stroke:#ffffff;stroke-width:3;stroke-miterlimit:10;stroke-dasharray:none;stroke-opacity:1" />
  <path
     d="m 179.727,77.734 c -0.163,0 -0.295,-0.132 -0.295,-0.295 v -7.378 c 0,-0.163 0.132,-0.294 0.294,-0.294 h 14.212 a 0.294,0.294 0 0 1 0.294,0.294 v 7.378 a 0.294,0.294 0 0 1 -0.294,0.294 h -14.211 z"
     fill="#151106"
     id="path156"
     style="fill:none;stroke:#ffffff;stroke-width:3;stroke-miterlimit:10;stroke-dasharray:none;stroke-opacity:1" />
  <path
     d="M 192.645,77.167 H 181.02 c -0.561,0 -1.021,-0.459 -1.021,-1.021 v -4.792 c 0,-0.561 0.459,-1.021 1.021,-1.021 h 11.625 c 0.561,0 1.021,0.459 1.021,1.021 v 4.792 a 1.025,1.025 0 0 1 -1.021,1.021 z"
     fill="#c7bcae"
     id="path158"
     style="fill:none;stroke:#ffffff;stroke-width:3;stroke-miterlimit:10;stroke-dasharray:none;stroke-opacity:1" />
  <path
     d="m 203.187,77.371 v -7.242 c 0,-0.2 0.162,-0.362 0.362,-0.362 h 21.693 c 0.2,0 0.362,0.162 0.362,0.362 v 7.242 a 0.362,0.362 0 0 1 -0.362,0.362 H 203.55 a 0.361,0.361 0 0 1 -0.363,-0.362 z"
     fill="#151106"
     id="path160"
     style="fill:none;stroke:#ffffff;stroke-width:3;stroke-miterlimit:10;stroke-dasharray:none;stroke-opacity:1" />
  <path
     d="m 223.489,77.167 h -18.188 a 1.26,1.26 0 0 1 -1.256,-1.256 V 71.59 a 1.26,1.26 0 0 1 1.256,-1.256 h 18.188 a 1.26,1.26 0 0 1 1.256,1.256 v 4.321 a 1.259,1.259 0 0 1 -1.256,1.256 z"
     fill="#c7bcae"
     id="path162"
     style="fill:none;stroke:#ffffff;stroke-width:3;stroke-miterlimit:10;stroke-dasharray:none;stroke-opacity:1" />
  <path
     d="m 234.804,77.734 c -0.163,0 -0.295,-0.132 -0.295,-0.295 v -7.378 c 0,-0.163 0.132,-0.294 0.294,-0.294 h 14.212 a 0.294,0.294 0 0 1 0.294,0.294 v 7.378 a 0.294,0.294 0 0 1 -0.294,0.294 h -14.211 z"
     fill="#151106"
     id="path164"
     style="fill:none;stroke:#ffffff;stroke-width:3;stroke-miterlimit:10;stroke-dasharray:none;stroke-opacity:1" />
  <path
     d="m 247.722,77.167 h -11.625 c -0.561,0 -1.021,-0.459 -1.021,-1.021 v -4.792 c 0,-0.561 0.459,-1.021 1.021,-1.021 h 11.625 c 0.561,0 1.021,0.459 1.021,1.021 v 4.792 a 1.023,1.023 0 0 1 -1.021,1.021 z"
     fill="#c7bcae"
     id="path166"
     style="fill:none;stroke:#ffffff;stroke-width:3;stroke-miterlimit:10;stroke-dasharray:none;stroke-opacity:1" />
  <path
     d="m 258.991,77.734 c -0.163,0 -0.295,-0.132 -0.295,-0.295 v -7.378 c 0,-0.163 0.132,-0.294 0.294,-0.294 h 14.212 a 0.294,0.294 0 0 1 0.294,0.294 v 7.378 a 0.294,0.294 0 0 1 -0.294,0.294 h -14.211 z"
     fill="#151106"
     id="path168"
     style="fill:none;stroke:#ffffff;stroke-width:3;stroke-miterlimit:10;stroke-dasharray:none;stroke-opacity:1" />
  <path
     d="m 271.909,77.167 h -11.625 c -0.561,0 -1.021,-0.459 -1.021,-1.021 v -4.792 c 0,-0.561 0.459,-1.021 1.021,-1.021 h 11.625 c 0.561,0 1.021,0.459 1.021,1.021 v 4.792 a 1.023,1.023 0 0 1 -1.021,1.021 z"
     fill="#c7bcae"
     id="path170"
     style="fill:none;stroke:#ffffff;stroke-width:3;stroke-miterlimit:10;stroke-dasharray:none;stroke-opacity:1" />
  <path
     d="m 84.707,98.234 c -0.163,0 -0.295,-0.132 -0.295,-0.295 v -7.378 c 0,-0.163 0.132,-0.294 0.294,-0.294 h 14.212 a 0.294,0.294 0 0 1 0.294,0.294 v 7.378 a 0.294,0.294 0 0 1 -0.294,0.294 H 84.707 Z"
     fill="#151106"
     id="path172"
     style="fill:none;stroke:#ffffff;stroke-width:3;stroke-miterlimit:10;stroke-dasharray:none;stroke-opacity:1" />
  <path
     d="M 97.625,97.667 H 86 c -0.561,0 -1.021,-0.459 -1.021,-1.021 v -4.792 c 0,-0.561 0.459,-1.021 1.021,-1.021 h 11.625 c 0.561,0 1.021,0.459 1.021,1.021 v 4.792 c 0,0.562 -0.46,1.021 -1.021,1.021 z"
     fill="#c7bcae"
     id="path174"
     style="fill:none;stroke:#ffffff;stroke-width:3;stroke-miterlimit:10;stroke-dasharray:none;stroke-opacity:1" />
  <path
     d="m 108.462,98.234 c -0.163,0 -0.295,-0.132 -0.295,-0.295 v -7.378 c 0,-0.163 0.132,-0.294 0.294,-0.294 h 14.212 a 0.294,0.294 0 0 1 0.294,0.294 v 7.378 a 0.294,0.294 0 0 1 -0.294,0.294 h -14.211 z"
     fill="#151106"
     id="path176"
     style="fill:none;stroke:#ffffff;stroke-width:3;stroke-miterlimit:10;stroke-dasharray:none;stroke-opacity:1" />
  <path
     d="m 121.38,97.667 h -11.625 c -0.561,0 -1.021,-0.459 -1.021,-1.021 v -4.792 c 0,-0.561 0.459,-1.021 1.021,-1.021 h 11.625 c 0.561,0 1.021,0.459 1.021,1.021 v 4.792 c 0,0.562 -0.46,1.021 -1.021,1.021 z"
     fill="#c7bcae"
     id="path178"
     style="fill:none;stroke:#ffffff;stroke-width:3;stroke-miterlimit:10;stroke-dasharray:none;stroke-opacity:1" />
  <path
     d="m 132.217,98.234 c -0.163,0 -0.295,-0.132 -0.295,-0.295 v -7.378 c 0,-0.163 0.132,-0.294 0.294,-0.294 h 14.212 a 0.294,0.294 0 0 1 0.294,0.294 v 7.378 a 0.294,0.294 0 0 1 -0.294,0.294 h -14.211 z"
     fill="#151106"
     id="path180"
     style="fill:none;stroke:#ffffff;stroke-width:3;stroke-miterlimit:10;stroke-dasharray:none;stroke-opacity:1" />
  <path
     d="M 145.135,97.667 H 133.51 c -0.561,0 -1.021,-0.459 -1.021,-1.021 v -4.792 c 0,-0.561 0.459,-1.021 1.021,-1.021 h 11.625 c 0.561,0 1.021,0.459 1.021,1.021 v 4.792 c 0,0.562 -0.46,1.021 -1.021,1.021 z"
     fill="#c7bcae"
     id="path182"
     style="fill:none;stroke:#ffffff;stroke-width:3;stroke-miterlimit:10;stroke-dasharray:none;stroke-opacity:1" />
  <path
     d="m 155.972,98.234 c -0.163,0 -0.295,-0.132 -0.295,-0.295 v -7.378 c 0,-0.163 0.132,-0.294 0.294,-0.294 h 14.212 a 0.294,0.294 0 0 1 0.294,0.294 v 7.378 a 0.294,0.294 0 0 1 -0.294,0.294 h -14.211 z"
     fill="#151106"
     id="path184"
     style="fill:none;stroke:#ffffff;stroke-width:3;stroke-miterlimit:10;stroke-dasharray:none;stroke-opacity:1" />
  <path
     d="m 168.89,97.667 h -11.625 c -0.561,0 -1.021,-0.459 -1.021,-1.021 v -4.792 c 0,-0.561 0.459,-1.021 1.021,-1.021 h 11.625 c 0.561,0 1.021,0.459 1.021,1.021 v 4.792 c 0,0.562 -0.46,1.021 -1.021,1.021 z"
     fill="#c7bcae"
     id="path186"
     style="fill:none;stroke:#ffffff;stroke-width:3;stroke-miterlimit:10;stroke-dasharray:none;stroke-opacity:1" />
  <path
     d="m 203.187,97.871 v -7.242 c 0,-0.2 0.162,-0.362 0.362,-0.362 h 21.693 c 0.2,0 0.362,0.162 0.362,0.362 v 7.242 a 0.362,0.362 0 0 1 -0.362,0.362 H 203.55 a 0.361,0.361 0 0 1 -0.363,-0.362 z"
     fill="#151106"
     id="path188"
     style="fill:none;stroke:#ffffff;stroke-width:3;stroke-miterlimit:10;stroke-dasharray:none;stroke-opacity:1" />
  <path
     d="m 223.489,97.667 h -18.188 a 1.26,1.26 0 0 1 -1.256,-1.256 V 92.09 a 1.26,1.26 0 0 1 1.256,-1.256 h 18.188 a 1.26,1.26 0 0 1 1.256,1.256 v 4.321 a 1.259,1.259 0 0 1 -1.256,1.256 z"
     fill="#c7bcae"
     id="path190"
     style="fill:none;stroke:#ffffff;stroke-width:3;stroke-miterlimit:10;stroke-dasharray:none;stroke-opacity:1" />
  <g
     id="g196"
     transform="rotate(-90,61.341498,59.841498)"
     style="fill:none;stroke:#ffffff;stroke-width:3;stroke-miterlimit:10;stroke-dasharray:none;stroke-opacity:1">
    <path
       d="m 22.949,257.491 c 0,-0.163 0.132,-0.295 0.295,-0.295 h 7.378 c 0.163,0 0.294,0.132 0.294,0.294 v 14.212 a 0.294,0.294 0 0 1 -0.294,0.294 h -7.378 a 0.294,0.294 0 0 1 -0.294,-0.294 v -14.211 z"
       fill="#151106"
       id="path192"
       style="fill:none;stroke:#ffffff;stroke-width:3;stroke-miterlimit:10;stroke-dasharray:none;stroke-opacity:1" />
    <path
       d="m 23.516,270.409 v -11.625 c 0,-0.561 0.459,-1.021 1.021,-1.021 h 4.792 c 0.561,0 1.021,0.459 1.021,1.021 v 11.625 c 0,0.561 -0.459,1.021 -1.021,1.021 h -4.792 a 1.023,1.023 0 0 1 -1.021,-1.021 z"
       fill="#c7bcae"
       id="path194"
       style="fill:none;stroke:#ffffff;stroke-width:3;stroke-miterlimit:10;stroke-dasharray:none;stroke-opacity:1" />
  </g>
  <path
     d="m 272.647,57.234 h -13.101 a 0.283,0.283 0 0 0 -0.283,0.283 v 2.107 a 0.283,0.283 0 0 0 0.283,0.283 h 13.101 c 0.156,0 0.283,-0.127 0.283,-0.283 v -2.107 a 0.283,0.283 0 0 0 -0.283,-0.283 z m 0,-7.734 h -13.101 c -0.156,0 -0.283,-0.127 -0.283,-0.283 V 47.11 c 0,-0.156 0.127,-0.283 0.283,-0.283 h 13.101 a 0.283,0.283 0 0 1 0.283,0.283 v 2.107 a 0.283,0.283 0 0 1 -0.283,0.283 z"
     fill="#26272b"
     id="path198"
     style="fill:none;stroke:#ffffff;stroke-width:3;stroke-miterlimit:10;stroke-dasharray:none;stroke-opacity:1" />
  <path
     fill="none"
     stroke="#f4f1f0"
     stroke-width="0.75"
     stroke-miterlimit="10"
     d="M 179.679,60.834 H 249.31 M 194.232,73.75 h 8.797 m 22.575,0 h 8.738 m -31.155,20.5 h -15.166 c -0.472,0 -0.854,-0.382 -0.854,-0.854 V 77.734 m 54.575,0 V 93.4 a 0.85,0.85 0 0 1 -0.85,0.85 h -15.288 m 28.146,-51.5 v 55.938 m 4.229,-36.656 h 15.518 M 174.834,42.75 v 55.938"
     id="path200"
     style="fill:none;stroke:#ffffff;stroke-width:3;stroke-miterlimit:10;stroke-dasharray:none;stroke-opacity:1" />
  <g
     id="g208"
     transform="rotate(-90,61.341498,59.841498)"
     style="fill:none;stroke:#ffffff;stroke-width:3;stroke-miterlimit:10;stroke-dasharray:none;stroke-opacity:1">
    <path
       d="m 54.78,260.936 0.133,-0.22 c 0.239,0.121 0.511,0.185 0.785,0.185 0.904,0 1.64,-0.683 1.642,-1.524 -0.002,-0.84 -0.737,-1.524 -1.642,-1.524 -0.274,0 -0.546,0.064 -0.785,0.185 l -0.133,-0.22 c 0.28,-0.142 0.597,-0.217 0.918,-0.217 1.055,0 1.914,0.795 1.917,1.773 v 0.005 c -0.003,0.978 -0.862,1.773 -1.917,1.773 -0.32,0 -0.638,-0.074 -0.918,-0.216 z"
       fill="#f4f1f0"
       id="path202"
       style="fill:none;stroke:#ffffff;stroke-width:3;stroke-miterlimit:10;stroke-dasharray:none;stroke-opacity:1" />
    <g
       fill="#f4f1f0"
       id="g206"
       style="fill:none;stroke:#ffffff;stroke-width:3;stroke-miterlimit:10;stroke-dasharray:none;stroke-opacity:1">
      <path
         d="m 53.842,258.695 c 0.321,0 0.698,-0.208 0.698,-0.388 0,-0.181 -0.305,-0.376 -0.626,-0.376 -0.321,0 -0.651,0.302 -0.651,0.482 0.001,0.18 0.258,0.282 0.579,0.282 z m 0,1.364 c 0.321,0 0.698,0.207 0.698,0.388 0,0.181 -0.305,0.376 -0.626,0.376 -0.321,0 -0.651,-0.302 -0.651,-0.482 0.001,-0.18 0.258,-0.282 0.579,-0.282 z"
         id="path204"
         style="fill:none;stroke:#ffffff;stroke-width:3;stroke-miterlimit:10;stroke-dasharray:none;stroke-opacity:1" />
    </g>
  </g>
  <g
     id="g212"
     transform="rotate(-90,61.341498,59.841498)"
     style="fill:none;stroke:#ffffff;stroke-width:3;stroke-miterlimit:10;stroke-dasharray:none;stroke-opacity:1">
    <path
       d="m 99.016,282.93 v 69.671 c 0,0.403 0.33,0.732 0.732,0.732 h 0.702 a 0.734,0.734 0 0 0 0.732,-0.732 V 282.93 a 0.734,0.734 0 0 0 -0.732,-0.732 h -0.702 a 0.734,0.734 0 0 0 -0.732,0.732 z m -5.167,0 v 69.671 c 0,0.403 0.33,0.732 0.732,0.732 h 0.702 a 0.734,0.734 0 0 0 0.732,-0.732 V 282.93 a 0.734,0.734 0 0 0 -0.732,-0.732 h -0.702 a 0.734,0.734 0 0 0 -0.732,0.732 z m -5.166,0 v 69.671 c 0,0.403 0.329,0.732 0.732,0.732 h 0.702 a 0.734,0.734 0 0 0 0.732,-0.732 V 282.93 a 0.734,0.734 0 0 0 -0.732,-0.732 h -0.702 a 0.734,0.734 0 0 0 -0.732,0.732 z m -5.167,0 v 69.671 c 0,0.403 0.33,0.732 0.732,0.732 h 0.702 a 0.734,0.734 0 0 0 0.732,-0.732 V 282.93 a 0.734,0.734 0 0 0 -0.732,-0.732 h -0.702 a 0.734,0.734 0 0 0 -0.732,0.732 z"
       fill="#1c1c1e"
       id="path210"
       style="fill:none;stroke:#ffffff;stroke-width:3;stroke-miterlimit:10;stroke-dasharray:none;stroke-opacity:1" />
  </g>
  <g
     id="g216"
     transform="rotate(-90,61.341498,59.841498)"
     style="fill:none;stroke:#ffffff;stroke-width:3;stroke-miterlimit:10;stroke-dasharray:none;stroke-opacity:1">
    <path
       d="m 57.222,301.453 -3.57,1.335 v -0.814 l 0.795,-0.271 v -1.335 l -0.795,-0.28 v -0.789 l 3.57,1.35 z m -2.19,0.045 1.31,-0.449 v -0.011 l -1.31,-0.465 z"
       fill="#f4f1f0"
       id="path214"
       style="fill:none;stroke:#ffffff;stroke-width:3;stroke-miterlimit:10;stroke-dasharray:none;stroke-opacity:1" />
  </g>
  <g
     id="g220"
     transform="rotate(-90,61.341498,59.841498)"
     style="fill:none;stroke:#ffffff;stroke-width:3;stroke-miterlimit:10;stroke-dasharray:none;stroke-opacity:1">
    <path
       d="m 57.222,333.807 c 0,0.17 -0.015,0.325 -0.045,0.465 -0.03,0.14 -0.079,0.26 -0.147,0.36 a 0.683,0.683 0 0 1 -0.272,0.232 0.956,0.956 0 0 1 -0.42,0.082 0.787,0.787 0 0 1 -0.45,-0.122 0.9,0.9 0 0 1 -0.295,-0.362 c -0.063,0.22 -0.174,0.384 -0.333,0.492 -0.159,0.108 -0.349,0.162 -0.572,0.162 a 0.997,0.997 0 0 1 -0.468,-0.104 0.899,0.899 0 0 1 -0.322,-0.283 1.255,1.255 0 0 1 -0.185,-0.404 1.831,1.831 0 0 1 -0.06,-0.468 v -1.729 h 3.57 v 1.679 z m -1.444,-0.101 c 0,0.141 0.033,0.256 0.1,0.346 0.066,0.09 0.175,0.135 0.325,0.135 0.083,0 0.152,-0.015 0.205,-0.045 0.053,-0.03 0.095,-0.07 0.125,-0.12 a 0.508,0.508 0 0 0 0.063,-0.173 1.1,1.1 0 0 0 0.018,-0.202 v -0.735 h -0.835 v 0.794 z m -1.516,0.046 c 0,0.076 0.008,0.149 0.022,0.22 0.015,0.069 0.04,0.132 0.075,0.185 a 0.377,0.377 0 0 0 0.143,0.128 0.5,0.5 0 0 0 0.23,0.047 c 0.183,0 0.314,-0.052 0.393,-0.154 a 0.665,0.665 0 0 0 0.117,-0.41 v -0.855 h -0.98 z"
       fill="#f4f1f0"
       id="path218"
       style="fill:none;stroke:#ffffff;stroke-width:3;stroke-miterlimit:10;stroke-dasharray:none;stroke-opacity:1" />
  </g>
  <path
     d="m 302.542,96.985 c -6.723,0 -12.192,-5.47 -12.192,-12.193 0,-6.723 5.47,-12.192 12.192,-12.192 6.724,0 12.193,5.47 12.193,12.192 10e-4,6.723 -5.469,12.193 -12.193,12.193 z"
     fill="#1b1c1e"
     id="path222"
     style="fill:none;stroke:#ffffff;stroke-width:3;stroke-miterlimit:10;stroke-dasharray:none;stroke-opacity:1" />
  <circle
     cx="-84.792"
     cy="302.543"
     r="10.208"
     fill="#232227"
     id="circle224"
     transform="rotate(-90)"
     style="fill:none;stroke:#ffffff;stroke-width:3;stroke-miterlimit:10;stroke-dasharray:none;stroke-opacity:1" />
  <path
     d="m 335.121,96.985 c -6.723,0 -12.192,-5.47 -12.192,-12.193 0,-6.723 5.47,-12.192 12.192,-12.192 6.724,0 12.193,5.47 12.193,12.192 10e-4,6.723 -5.469,12.193 -12.193,12.193 z"
     fill="#1b1c1e"
     id="path226"
     style="fill:none;stroke:#ffffff;stroke-width:3;stroke-miterlimit:10;stroke-dasharray:none;stroke-opacity:1" />
  <circle
     cx="-84.792"
     cy="335.12201"
     r="10.208"
     fill="#232227"
     id="circle228"
     transform="rotate(-90)"
     style="fill:none;stroke:#ffffff;stroke-width:3;stroke-miterlimit:10;stroke-dasharray:none;stroke-opacity:1" />
  <g
     id="g240"
     transform="rotate(-90,61.341498,59.841498)"
     style="fill:none;stroke:#ffffff;stroke-width:3;stroke-miterlimit:10;stroke-dasharray:none;stroke-opacity:1">
    <g
       fill="#f0f2f1"
       id="g238"
       style="fill:none;stroke:#ffffff;stroke-width:3;stroke-miterlimit:10;stroke-dasharray:none;stroke-opacity:1">
      <path
         d="m 47.654,185.713 0.67,3.35 a 0.226,0.226 0 0 1 -0.222,0.27 h -1.339 a 0.226,0.226 0 0 1 -0.222,-0.27 l 0.67,-3.35 c 0.048,-0.243 0.395,-0.243 0.443,0 z m 0,-4.2 0.67,3.35 a 0.226,0.226 0 0 1 -0.222,0.27 h -1.339 a 0.226,0.226 0 0 1 -0.222,-0.27 l 0.67,-3.35 c 0.048,-0.243 0.395,-0.243 0.443,0 z m -1.862,36.021 v -1.106 c 0,-0.152 0.123,-0.275 0.275,-0.275 h 2.731 c 0.152,0 0.275,0.123 0.275,0.275 v 1.106 a 0.275,0.275 0 0 1 -0.275,0.275 h -2.731 a 0.275,0.275 0 0 1 -0.275,-0.275 z m 0,2.612 v -1.106 c 0,-0.152 0.123,-0.275 0.275,-0.275 h 2.731 c 0.152,0 0.275,0.123 0.275,0.275 v 1.106 a 0.275,0.275 0 0 1 -0.275,0.275 h -2.731 a 0.275,0.275 0 0 1 -0.275,-0.275 z m 1.973,-9.223 0.98,-5.096 a 0.34,0.34 0 0 0 -0.333,-0.403 h -1.961 a 0.34,0.34 0 0 0 -0.333,0.403 l 0.98,5.096 c 0.072,0.367 0.597,0.367 0.667,0 z m -22.598,3.628 v -3.311 c 0,-0.233 0.189,-0.422 0.422,-0.422 h 2.686 c 0.233,0 0.422,0.189 0.422,0.422 v 3.311 a 0.422,0.422 0 0 1 -0.422,0.422 h -2.686 a 0.42,0.42 0 0 1 -0.422,-0.422 z"
         id="path230"
         style="fill:none;stroke:#ffffff;stroke-width:3;stroke-miterlimit:10;stroke-dasharray:none;stroke-opacity:1" />
      <g
         id="g234"
         style="fill:none;stroke:#ffffff;stroke-width:3;stroke-miterlimit:10;stroke-dasharray:none;stroke-opacity:1">
        <path
           d="m 47.654,240.048 0.67,-3.35 a 0.226,0.226 0 0 0 -0.222,-0.27 h -1.339 c -0.143,0 -0.25,0.13 -0.222,0.27 l 0.67,3.35 c 0.048,0.242 0.395,0.242 0.443,0 z m 0,4.2 0.67,-3.35 a 0.226,0.226 0 0 0 -0.222,-0.27 h -1.339 c -0.143,0 -0.25,0.13 -0.222,0.27 l 0.67,3.35 c 0.048,0.242 0.395,0.242 0.443,0 z"
           id="path232"
           style="fill:none;stroke:#ffffff;stroke-width:3;stroke-miterlimit:10;stroke-dasharray:none;stroke-opacity:1" />
      </g>
      <path
         d="m 48.724,264.38 -2.332,-1.347 a 0.25,0.25 0 0 0 -0.376,0.217 v 2.693 a 0.25,0.25 0 0 0 0.376,0.217 l 2.332,-1.347 a 0.25,0.25 0 0 0 0,-0.433 z m -23.083,0 2.332,-1.347 a 0.25,0.25 0 0 1 0.376,0.217 v 2.693 a 0.25,0.25 0 0 1 -0.376,0.217 l -2.332,-1.347 a 0.25,0.25 0 0 1 0,-0.433 z"
         id="path236"
         style="fill:none;stroke:#ffffff;stroke-width:3;stroke-miterlimit:10;stroke-dasharray:none;stroke-opacity:1" />
    </g>
  </g>
</svg>
