<?xml version="1.0" encoding="UTF-8" standalone="no"?>
<svg
   version="1.1"
   id="action"
   x="0px"
   y="0px"
   viewBox="0 0 97.049004 19.65"
   sodipodi:docname="auto-action.svg"
   width="97.049004"
   height="19.65"
   inkscape:version="1.1.2 (0a00cf5339, 2022-02-04)"
   xmlns:inkscape="http://www.inkscape.org/namespaces/inkscape"
   xmlns:sodipodi="http://sodipodi.sourceforge.net/DTD/sodipodi-0.dtd"
   xmlns="http://www.w3.org/2000/svg"
   xmlns:svg="http://www.w3.org/2000/svg">
  <defs
     id="defs17" />
  <sodipodi:namedview
     id="namedview15"
     pagecolor="#ffffff"
     bordercolor="#666666"
     borderopacity="1.0"
     inkscape:pageshadow="2"
     inkscape:pageopacity="0.0"
     inkscape:pagecheckerboard="true"
     showgrid="false"
     fit-margin-top="0"
     fit-margin-left="0"
     fit-margin-right="0"
     fit-margin-bottom="0"
     inkscape:zoom="9.105"
     inkscape:cx="36.847886"
     inkscape:cy="9.774849"
     inkscape:window-width="2560"
     inkscape:window-height="1440"
     inkscape:window-x="1920"
     inkscape:window-y="0"
     inkscape:window-maximized="1"
     inkscape:current-layer="action" />
  <path
     d="M 6,19.2 H 0 L 7.89,0.45 h 8.82 L 18.03,19.2 H 12 L 11.88,16.23 H 7.17 Z m 5.13,-12.99 -2.1,5.25 h 2.4 V 6.21 Z m 21.779,7.62 -0.48,5.04 c -1.28,0.52 -2.9,0.78 -4.86,0.78 -2.52,0 -4.325,-0.49 -5.415,-1.47 -1.09,-0.98 -1.635,-2.49 -1.635,-4.53 0,-0.86 0.14,-2.13 0.42,-3.81 0.6,-3.44 1.635,-5.94 3.105,-7.5 C 25.514,0.78 27.839,0 31.019,0 c 0.74,0 1.585,0.075 2.535,0.225 0.95,0.15 1.645,0.335 2.085,0.555 l -1.68,4.59 c -1.18,-0.28 -2.285,-0.42 -3.315,-0.42 -1.03,0 -1.765,0.1 -2.205,0.3 -0.44,0.2 -0.71,0.6 -0.81,1.2 l -1.38,7.86 c 0.72,0.16 1.46,0.24 2.22,0.24 1.62,0 3.1,-0.24 4.44,-0.72 z m 17.13,-8.58 h -4.14 l -2.43,13.95 h -5.7 l 2.43,-13.95 h -4.11 l 0.87,-4.8 h 13.95 z m -0.27,13.95 3.3,-18.75 h 5.7 l -3.3,18.75 z m 16.71,-12.48 -1.38,7.8 h 2.37 c 0.78,0 1.36,-0.095 1.74,-0.285 0.38,-0.19 0.63,-0.625 0.75,-1.305 l 1.38,-7.8 h -2.4 c -0.76,0 -1.33,0.095 -1.71,0.285 -0.38,0.19 -0.63,0.625 -0.75,1.305 z M 69.929,0 c 2.54,0 4.35,0.495 5.43,1.485 1.08,0.99 1.62,2.515 1.62,4.575 0,2.06 -0.325,4.215 -0.975,6.465 -0.65,2.25 -1.68,4 -3.09,5.25 -1.41,1.25 -3.47,1.875 -6.18,1.875 -2.71,0 -4.605,-0.495 -5.685,-1.485 -1.08,-0.99 -1.62,-2.515 -1.62,-4.575 0,-0.98 0.14,-2.275 0.42,-3.885 0.28,-1.61 0.65,-3 1.11,-4.17 0.46,-1.17 1.08,-2.185 1.86,-3.045 1.5,-1.66 3.87,-2.49 7.11,-2.49 z m 18.45,19.2 -3.06,-6.66 c -0.08,-0.14 -0.12,-0.335 -0.12,-0.585 0,-0.25 0.02,-0.535 0.06,-0.855 h -0.24 l -1.41,8.1 h -5.7 l 3.3,-18.75 h 5.37 l 3.06,6.66 c 0.06,0.14 0.09,0.335 0.09,0.585 0,0.25 -0.02,0.535 -0.06,0.855 h 0.24 l 1.44,-8.1 h 5.7 l -3.3,18.75 z"
     style="white-space:pre;fill:#ffffff"
     id="path12" />
</svg>
