<?xml version="1.0" encoding="UTF-8" standalone="no"?>
<svg
   version="1.1"
   id="action"
   x="0px"
   y="0px"
   viewBox="0 0 20.096689 19.600164"
   sodipodi:docname="auto-action_controller.svg"
   width="20.096689"
   height="19.600164"
   inkscape:version="1.1.2 (0a00cf5339, 2022-02-04)"
   xmlns:inkscape="http://www.inkscape.org/namespaces/inkscape"
   xmlns:sodipodi="http://sodipodi.sourceforge.net/DTD/sodipodi-0.dtd"
   xmlns="http://www.w3.org/2000/svg"
   xmlns:svg="http://www.w3.org/2000/svg">
  <defs
     id="defs17" />
  <sodipodi:namedview
     id="namedview15"
     pagecolor="#ffffff"
     bordercolor="#666666"
     borderopacity="1.0"
     inkscape:pageshadow="2"
     inkscape:pageopacity="0.0"
     inkscape:pagecheckerboard="true"
     showgrid="false"
     fit-margin-top="0"
     fit-margin-left="0"
     fit-margin-right="0"
     fit-margin-bottom="0"
     inkscape:zoom="9.105"
     inkscape:cx="60.241625"
     inkscape:cy="9.774849"
     inkscape:window-width="2560"
     inkscape:window-height="1440"
     inkscape:window-x="1920"
     inkscape:window-y="0"
     inkscape:window-maximized="1"
     inkscape:current-layer="action" />
  <path
     style="color:#000000;fill:#ffffff;-inkscape-stroke:none;fill-opacity:1"
     d="M 10.042969,4.4726562 C 9.8729726,4.4673172 9.7101442,4.5379689 9.5722656,4.6464844 v 0.00195 C 8.1586689,5.7626501 6.4995637,6.276039 4.7226562,6.5644531 4.5340453,6.5941375 4.3562321,6.659618 4.234375,6.8027344 4.112544,6.9458201 4.0769534,7.1355045 4.0839844,7.3261719 c 0.012727,0.4278244 0.00195,0.8664142 0.00195,1.4296875 v 0.00977 0.00977 c 0.049778,0.6162559 0.099374,1.3516784 0.171875,2.0917974 v 0.002 c 0.2276139,2.158759 1.0200674,4.095225 2.8359375,5.451171 0.7977877,0.596423 1.6454397,1.105035 2.4824219,1.607422 0.1396466,0.0845 0.2903133,0.106777 0.4394531,0.107422 0.14914,6.45e-4 0.296402,-0.02047 0.435547,-0.09961 l 0.002,-0.002 c 0.763496,-0.443029 1.520194,-0.906657 2.248047,-1.41211 1.351992,-0.937188 2.260408,-2.230538 2.71875,-3.802734 C 15.943403,10.91269 15.953617,9.0663509 15.974609,7.25 15.977294,7.0426243 15.89507,6.84475 15.753906,6.7324219 15.61328,6.6205208 15.455979,6.5875008 15.304688,6.5644531 h -0.002 C 13.544981,6.2731321 11.894653,5.7617585 10.494141,4.6601562 l -0.002,-0.00195 C 10.362329,4.5553803 10.212077,4.4779674 10.042969,4.4726562 Z m -0.01563,0.5 c 0.029,9.11e-4 0.07658,0.014767 0.15625,0.078125 1.492518,1.1748295 3.236431,1.7072765 5.039062,2.0058594 l 0.002,0.00195 h 0.002 c 0.11818,0.017946 0.192007,0.046282 0.214843,0.064453 0.02284,0.018172 0.03452,0.01947 0.0332,0.1210937 -0.02101,1.8176455 -0.03664,3.6160014 -0.535156,5.3359374 -0.429806,1.472979 -1.261937,2.65679 -2.523437,3.53125 -0.711413,0.494037 -1.457189,0.950115 -2.212891,1.388672 -0.02085,0.01186 -0.103437,0.03551 -0.185547,0.03516 C 9.9354681,17.534801 9.8532907,17.5105 9.8359375,17.5 8.997838,16.99694 8.1639592,16.496738 7.3925781,15.919922 5.702991,14.658273 4.9745008,12.888742 4.7558594,10.818359 v -0.002 C 4.6852067,10.094731 4.6355698,9.3728495 4.5859375,8.7558594 c 0,-0.5567257 0.01132,-0.9991378 -0.00195,-1.4453125 v -0.00195 c -0.00464,-0.1206575 0.014501,-0.1619698 0.03125,-0.1816406 0.016749,-0.019671 0.060848,-0.0489 0.1855468,-0.068359 h 0.00195 C 6.6238233,6.7630084 8.3784121,6.2268007 9.8828125,5.0410156 9.9609338,4.9795313 9.99834,4.9717453 10.027344,4.9726562 Z"
     id="path2" />
  <path
     style="color:#000000;fill:#ffffff;-inkscape-stroke:none;fill-opacity:1"
     d="m 1.8066406,-0.23828125 c -0.2040334,0 -0.3759445,0.11405206 -0.5195312,0.26367188 C 0.92915394,0.40015613 0.55527852,0.76613629 0.18164062,1.1347656 H 0.1796875 C 0.06075239,1.2539511 -0.03235243,1.3461948 -0.10742187,1.4414062 -0.18249132,1.5366177 -0.25101996,1.6536431 -0.25,1.796875 c 0.00102,0.1432319 0.070056,0.257389 0.14648438,0.3535156 0.07642842,0.096127 0.17199796,0.1903287 0.29492187,0.3125 C 0.84285586,3.1106701 1.4985744,3.7624179 2.1738281,4.4355469 1.9561695,4.651712 1.7434277,4.8616314 1.5410156,5.0664062 1.2888134,5.3230374 1.0988639,5.497633 0.95898438,5.6464844 c -0.13987954,0.1488514 -0.25976563,0.2919536 -0.25976563,0.5 0,0.2080463 0.120828,0.3510084 0.26171875,0.5019531 0.1408907,0.1509447 0.3314033,0.3289215 0.5878906,0.5898437 0.090667,0.091973 0.1681502,0.165871 0.2558594,0.2265625 0.087709,0.060692 0.1997306,0.1119998 0.3222656,0.109375 0.2444628,-0.00524 0.3869947,-0.1618121 0.5742188,-0.3496093 0.3813007,-0.380414 0.7461262,-0.759523 1.0996094,-1.1210938 0.060327,0.044251 0.1169549,0.085084 0.1816406,0.1308594 0.1201206,0.085004 0.261372,0.1830407 0.4648437,0.1679687 1.030831,-0.080324 2.0235278,-0.3442103 3.0742188,-0.7734375 L 7.8828125,5.4824219 7.5976562,5.2148437 C 7.074828,4.7265754 6.5921257,4.2806449 6.0878906,3.8125 6.3252758,3.5899615 6.5546867,3.378907 6.7558594,3.1777344 7.0103728,2.923221 7.2013063,2.7508785 7.3417969,2.6015625 7.4822874,2.4522465 7.6039883,2.306142 7.6015625,2.0976563 7.5991367,1.8891705 7.4762098,1.7459582 7.3339844,1.5957031 7.191759,1.445448 6.99914,1.2694103 6.7421875,1.0117187 6.6507588,0.92029003 6.572916,0.84712386 6.484375,0.78710937 6.395834,0.72709489 6.284104,0.67891144 6.1621094,0.68164062 5.91812,0.687099 5.7728837,0.84117712 5.5878906,1.0292969 V 1.03125 C 5.2225783,1.407816 4.8543676,1.7992107 4.46875,2.2070313 3.7240675,1.4501595 3.0178867,0.73622196 2.328125,0.0234375 2.1831757,-0.12572191 2.0106741,-0.23828125 1.8066406,-0.23828125 Z m 0,0.5 c 0.017216,0 0.068012,0.0124878 0.1640625,0.11132813 C 2.7203779,1.1477154 3.4779982,1.9112815 4.2929687,2.7402344 l 0.1816407,0.1855469 0.1777343,-0.1875 C 5.1102793,2.2543493 5.5253952,1.8137323 5.9453125,1.3808594 6.115319,1.2079795 6.1943177,1.1792291 6.1738281,1.1796875 c -0.010245,2.292e-4 -0.00922,-0.00463 0.029297,0.021484 0.038521,0.02611 0.1024758,0.080991 0.1855469,0.1640625 C 6.6532188,1.6305423 6.8511163,1.8131147 6.9707031,1.9394531 7.09029,2.0657915 7.1017383,2.1186266 7.1015625,2.1035156 7.1013867,2.0884046 7.0952123,2.1337851 6.9785156,2.2578125 6.8618189,2.3818399 6.6643298,2.5622327 6.4023437,2.8242188 6.1571251,3.0694374 5.8839437,3.3147938 5.5507812,3.6328125 L 5.359375,3.8164063 5.5527344,3.9960938 C 6.0175805,4.4279664 6.4619233,4.8412271 6.921875,5.2695312 6.0665187,5.5855168 5.2444452,5.8390989 4.4101562,5.9042969 4.4246281,5.9032249 4.3668635,5.8936675 4.2714844,5.8261719 4.1761053,5.7586762 4.0525971,5.6539407 3.8984375,5.5625 L 3.7304688,5.4628906 3.59375,5.6035156 C 3.1952164,6.0090763 2.7769997,6.4446974 2.3496094,6.8710937 h -0.00195 C 2.1735658,7.0456651 2.0919142,7.0747183 2.1152344,7.0742187 2.1268945,7.073969 2.1277282,7.0809021 2.0898438,7.0546875 2.0519593,7.0284729 1.9890829,6.9707452 1.90625,6.8867187 1.6422378,6.6181415 1.4445309,6.4353988 1.3261719,6.3085937 1.2078129,6.1817887 1.1992188,6.1309378 1.1992187,6.1464844 c 0,0.015547 0.00763,-0.033305 0.125,-0.1582032 C 1.441388,5.8635968 1.6368526,5.6820997 1.8964844,5.4179687 2.1514459,5.160031 2.4128635,4.9054959 2.7050781,4.6132812 L 2.8828125,4.4355469 2.7050781,4.2597656 C 1.9639125,3.5206004 1.2529681,2.8134212 0.54296875,2.1074219 0.42089291,1.9860934 0.33289958,1.8954825 0.28710938,1.8378906 0.24131917,1.7802987 0.24985504,1.7726117 0.25,1.7929687 c 1.4496e-4,0.020357 -0.008805,0.014742 0.0351563,-0.041016 C 0.32878266,1.6966212 0.41408762,1.6076758 0.53125,1.4902344 l 0.001953,-0.00195 C 0.90493298,1.1215484 1.283033,0.75365809 1.6484375,0.37109375 c 0.094413,-0.0983799 0.1409868,-0.109375 0.1582031,-0.109375 z"
     id="path4" />
  <path
     style="color:#000000;fill:#ffffff;-inkscape-stroke:none;fill-opacity:1"
     d="m 18.320312,-0.25 c -0.203431,-0.002531 -0.377789,0.10793394 -0.523437,0.2578125 V 0.00976563 C 17.379476,0.44492657 16.935363,0.86413665 16.503906,1.3046875 16.225503,1.5897788 15.958755,1.8931502 15.677734,2.203125 15.419375,1.924781 15.183736,1.6634578 14.949219,1.4355469 14.72087,1.2116173 14.564429,1.0415488 14.427734,0.9140625 14.29104,0.78657621 14.155072,0.67366163 13.957031,0.671875 13.758991,0.67008837 13.617516,0.78078139 13.474609,0.91015625 13.331703,1.0395311 13.167891,1.2154583 12.927734,1.4511719 c -0.113635,0.1121202 -0.204887,0.2005592 -0.277343,0.2949218 -0.07246,0.094363 -0.135379,0.2122721 -0.132813,0.3515626 0.0026,0.1392904 0.06841,0.2523709 0.142578,0.3476562 0.07417,0.095285 0.165123,0.187364 0.283203,0.3046875 h 0.002 c 0.35069,0.3472612 0.713814,0.7013419 1.099609,1.0761719 -0.513168,0.4914889 -0.994219,0.953686 -1.552734,1.4863281 l -0.326172,0.3125 0.4375,0.1113281 c 0.825525,0.2083753 1.558759,0.4076936 2.302734,0.5800781 0.232473,0.053275 0.501579,0.13506 0.798828,0.1015625 0.199404,-0.022471 0.3656,-0.2301043 0.537109,-0.4023437 0.446102,0.4543397 0.869481,0.8812182 1.275391,1.2988281 0.1313,0.1343962 0.292412,0.2386414 0.484375,0.2421875 0.191052,0.00353 0.359664,-0.099606 0.492188,-0.2402344 l 0.002,-0.00195 c 0.204938,-0.2148898 0.406091,-0.425869 0.615234,-0.6152344 l 0.002,-0.00195 C 19.2822,6.5460351 19.410294,6.3652967 19.412109,6.1464844 19.413933,5.926747 19.287198,5.7411387 19.117187,5.5859375 c -0.395167,-0.3572867 -0.78384,-0.739812 -1.18164,-1.125 0.0398,-0.04484 0.0959,-0.1066035 0.128906,-0.1425781 0.664065,-0.6650663 1.317726,-1.3308791 1.988281,-1.9765625 v -0.00195 C 20.207467,2.1891231 20.334075,2.0234759 20.345703,1.8066406 20.357332,1.5898054 20.235345,1.3967 20.0625,1.2363281 19.641476,0.84482677 19.23898,0.43171964 18.839844,0.01367188 h -0.002 V 0.01171875 C 18.694638,-0.13512981 18.523744,-0.24746861 18.320312,-0.25 Z m -0.0059,0.5 c 0.01757,2.1861e-4 0.06831,0.0131769 0.164063,0.11132813 0.40224,0.42128157 0.811869,0.83833387 1.24414,1.24023437 0.118155,0.1096278 0.124169,0.1568198 0.123047,0.1777344 -0.0011,0.020914 -0.02731,0.090846 -0.142578,0.203125 -0.676734,0.6517059 -1.330903,1.3201403 -1.992188,1.9824219 l -0.0039,0.00391 -0.0039,0.00195 c -0.08711,0.094549 -0.166019,0.1884799 -0.300781,0.3339844 l -0.166016,0.1796875 0.175781,0.1699219 c 0.45886,0.4428996 0.904871,0.8829698 1.369141,1.3027343 0.114747,0.1053669 0.131035,0.1624809 0.130859,0.1835938 -1.76e-4,0.021262 -0.01579,0.081166 -0.132812,0.1855469 h -0.002 c -0.229475,0.2075705 -0.438798,0.4288103 -0.644532,0.6445312 l -0.002,0.00195 c -0.0772,0.082343 -0.110057,0.084188 -0.121093,0.083984 C 17.998729,7.0564367 17.9557,7.0474473 17.875,6.9648437 17.422334,6.4991299 16.961731,6.0371588 16.462891,5.5273437 L 16.220703,5.28125 16.0625,5.5878906 c -0.139098,0.2673688 -0.252359,0.3159819 -0.412109,0.3339844 -0.159268,0.017948 -0.384222,-0.037213 -0.63086,-0.09375 h -0.002 C 14.426359,5.6910984 13.808639,5.5264412 13.166016,5.3613281 13.648871,4.8999094 14.103623,4.4639901 14.578125,4.0097656 l 0.1875,-0.1796875 -0.185547,-0.1796875 C 14.115393,3.1996964 13.705,2.798665 13.296875,2.3945313 13.180956,2.279355 13.09808,2.1924645 13.054688,2.1367188 c -0.04339,-0.055746 -0.03743,-0.065994 -0.03711,-0.048828 3.16e-4,0.017166 -0.01018,0.014309 0.0293,-0.037109 0.03948,-0.051419 0.119104,-0.1342612 0.230469,-0.2441407 0.246343,-0.2417859 0.416703,-0.4199219 0.533203,-0.5253906 0.1165,-0.1054687 0.160494,-0.1092134 0.142578,-0.109375 -0.01792,-1.616e-4 0.0228,0.003 0.134766,0.1074219 0.111961,0.1044197 0.275068,0.2816019 0.511718,0.5136718 0.274395,0.2666648 0.536179,0.5638166 0.898438,0.9472657 l 0.183594,0.1953125 0.18164,-0.1972656 C 16.223876,2.3454551 16.534897,1.9885705 16.861328,1.6542969 17.283552,1.223174 17.727951,0.80388201 18.15625,0.35742188 18.251602,0.25930068 18.296885,0.24978139 18.314453,0.25 Z"
     id="path6" />
  <path
     style="color:#000000;fill:#ffffff;-inkscape-stroke:none;fill-opacity:1"
     d="M 4.5175781,13.363281 4.3027344,13.574219 C 3.3904447,14.475517 2.45931,15.384539 1.5351562,16.304687 v 0.002 h -0.00195 C 1.399984,16.443032 1.3441059,16.599357 1.2949219,16.716797 0.98220784,17.444129 0.66574415,18.175664 0.37304688,18.917969 H 0.375 c -0.0445298,0.111324 -0.0670123,0.230525 -0.0683594,0.355468 -0.001347,0.124944 -0.003683,0.263553 0.13476562,0.400391 l 0.001953,0.002 c 0.12798356,0.12381 0.26000713,0.134094 0.38476562,0.140625 0.12475849,0.0065 0.2465284,-0.0064 0.3613281,-0.04492 0.811107,-0.274729 1.6093103,-0.577824 2.4042969,-0.871093 0.1140386,-0.04157 0.2631317,-0.09229 0.390625,-0.228516 0.7778754,-0.804902 1.5492992,-1.612958 2.2792969,-2.378906 L 6.4023437,16.146484 6.2890625,15.980469 C 5.7458992,15.179228 5.2241786,14.411735 4.6855469,13.613281 Z m -0.076172,0.779297 c 0.4417734,0.653778 0.8752709,1.294984 1.3203125,1.951172 -0.6904884,0.724564 -1.4094292,1.479825 -2.1386718,2.234375 l -0.00195,0.002 -0.00195,0.002 c -0.018506,0.01977 -0.097304,0.06318 -0.1972656,0.09961 -0.7984445,0.294532 -1.5922692,0.596115 -2.3925781,0.867187 -0.0342002,0.01148 -0.11233682,0.02275 -0.17382815,0.01953 -0.0596297,-0.0031 -0.0930458,-0.0318 -0.0625,-0.002 0.0430184,0.04289 0.013047,0.0189 0.0136719,-0.03906 6.5289e-4,-0.06056 0.0177798,-0.140153 0.03125,-0.173828 v -0.002 h 0.001953 C 1.1289249,18.368429 1.4428055,17.640235 1.7558594,16.912109 v -0.002 c 0.048367,-0.115489 0.098046,-0.21549 0.1328125,-0.251953 l 0.00195,-0.002 c 0.8500623,-0.846355 1.7060795,-1.680525 2.5507812,-2.513672 z"
     id="path8" />
  <path
     style="color:#000000;fill:#ffffff;-inkscape-stroke:none;fill-opacity:1"
     d="m 15.533203,13.371094 -0.167969,0.25 c -0.536065,0.795097 -1.053867,1.56543 -1.595703,2.367187 l -0.113281,0.166016 0.138672,0.146484 c 0.723229,0.759241 1.488343,1.557981 2.255859,2.353516 0.08132,0.08631 0.179349,0.158126 0.298828,0.203125 0.877623,0.330234 1.756548,0.656736 2.642578,0.966797 h 0.002 0.002 c 0.1275,0.0429 0.233466,0.02955 0.33789,0.0039 0.104425,-0.02565 0.20545,-0.06126 0.298828,-0.162109 l 0.002,-0.002 v -0.002 c 0.09611,-0.107095 0.116424,-0.213995 0.126953,-0.318359 0.0104,-0.103093 0.0047,-0.204389 -0.03711,-0.3125 -0.190461,-0.507207 -0.430405,-0.976845 -0.59375,-1.447266 v -0.002 c -0.289836,-0.838172 -0.769985,-1.533379 -1.4375,-2.115234 -0.675157,-0.5888 -1.304852,-1.258426 -1.945312,-1.884766 z m 0.08008,0.777344 c 0.562308,0.559145 1.125927,1.151062 1.75,1.695312 0.610063,0.531776 1.0327,1.143229 1.294922,1.902344 h 0.002 c 0.178643,0.515033 0.420338,0.988731 0.597656,1.460937 v 0.002 l 0.002,0.002 c -2.43e-4,-6.16e-4 0.0076,0.0471 0.0039,0.08398 -0.0035,0.03472 -0.01935,0.0526 0,0.03125 0.0012,-0.0013 -0.0015,0.0037 0,0.002 0.01314,-0.01487 -0.01347,0.0069 -0.04883,0.01563 -0.03472,0.0085 -0.06855,0.003 -0.05664,0.0078 -5.76e-4,-2.01e-4 -0.0014,2.02e-4 -0.002,0 -0.879385,-0.307759 -1.753104,-0.633341 -2.628906,-0.96289 -0.03309,-0.01246 -0.08314,-0.04584 -0.113282,-0.07813 l -0.002,-0.002 -0.002,-0.002 c -0.71933,-0.74559 -1.43039,-1.490504 -2.113281,-2.207032 0.444295,-0.657763 0.877265,-1.299662 1.316406,-1.951171 z"
     id="path10" />
</svg>
