<?xml version="1.0" encoding="UTF-8" standalone="no"?>
<svg
   viewBox="0 0 155.15401 19.950001"
   version="1.1"
   id="svg9"
   sodipodi:docname="auto-actionbeatemup.svg"
   width="155.15401"
   height="19.950001"
   inkscape:version="1.1.2 (0a00cf5339, 2022-02-04)"
   xmlns:inkscape="http://www.inkscape.org/namespaces/inkscape"
   xmlns:sodipodi="http://sodipodi.sourceforge.net/DTD/sodipodi-0.dtd"
   xmlns="http://www.w3.org/2000/svg"
   xmlns:svg="http://www.w3.org/2000/svg">
  <defs
     id="defs13" />
  <sodipodi:namedview
     id="namedview11"
     pagecolor="#ffffff"
     bordercolor="#666666"
     borderopacity="1.0"
     inkscape:pageshadow="2"
     inkscape:pageopacity="0.0"
     inkscape:pagecheckerboard="true"
     showgrid="false"
     fit-margin-top="0"
     fit-margin-left="0"
     fit-margin-right="0"
     fit-margin-bottom="0"
     inkscape:zoom="2.27625"
     inkscape:cx="-37.12246"
     inkscape:cy="-58.868753"
     inkscape:window-width="2560"
     inkscape:window-height="1440"
     inkscape:window-x="1920"
     inkscape:window-y="0"
     inkscape:window-maximized="1"
     inkscape:current-layer="svg9" />
  <path
     d="M 0,19.5 3.3,0.75 h 9.24 c 1.44,0 2.485,0.25 3.135,0.75 0.65,0.5 0.975,1.27 0.975,2.31 0,1.52 -0.335,2.77 -1.005,3.75 -0.67,0.98 -1.485,1.59 -2.445,1.83 l -0.03,0.18 c 1.8,0.34 2.7,1.53 2.7,3.57 0,1.8 -0.49,3.31 -1.47,4.53 -0.98,1.22 -2.36,1.83 -4.14,1.83 z M 9.24,12.03 H 6.99 l -0.54,3.06 h 2.22 c 0.5,0 0.88,-0.2 1.14,-0.6 0.26,-0.4 0.39,-0.91 0.39,-1.53 0,-0.62 -0.32,-0.93 -0.96,-0.93 z M 10.08,4.86 H 8.28 L 7.77,7.65 h 1.77 c 0.92,0 1.38,-0.65 1.38,-1.95 0,-0.56 -0.28,-0.84 -0.84,-0.84 z m 19.889,7.56 h -5.7 l -0.39,2.28 h 6.99 l -0.84,4.8 h -12.69 l 3.3,-18.75 h 12.54 l -1.56,4.8 h -6.15 l -0.42,2.52 h 5.7 z m 7.53,7.08 h -6 l 7.89,-18.75 h 8.82 l 1.32,18.75 h -6.03 l -0.12,-2.97 h -4.71 z m 5.13,-12.99 -2.1,5.25 h 2.4 V 6.51 Z M 65.488,5.55 h -4.14 l -2.43,13.95 h -5.7 l 2.43,-13.95 h -4.11 l 0.87,-4.8 h 13.95 z m 8.039,-4.92 -0.33,1.92 c -0.02,0.08 -0.97,2.73 -2.85,7.95 h -2.85 V 3.57 c 0,-0.72 0.1,-1.64 0.3,-2.76 0.08,-0.54 0.48,-0.81 1.2,-0.81 h 3.6 c 0.62,0 0.93,0.21 0.93,0.63 z m 12.42,11.79 h -5.7 l -0.39,2.28 h 6.99 l -0.84,4.8 h -12.69 l 3.3,-18.75 h 12.54 l -1.56,4.8 h -6.15 l -0.42,2.52 h 5.7 z m 8.669,7.08 h -5.94 l 4.38,-18.75 h 7.44 l 0.54,9.54 h 0.21 l 3.9,-9.54 h 7.44 l -2.22,18.75 h -5.97 l 1.26,-9.09 h -0.21 l -3.75,9.09 h -4.35 l -0.63,-9.09 h -0.15 z m 33.509,-18.75 -2.49,14.07 h 2.04 c 0.7,0 1.2,-0.095 1.5,-0.285 0.3,-0.19 0.51,-0.625 0.63,-1.305 l 2.22,-12.48 h 5.7 l -1.86,10.53 c -0.3,1.7 -0.645,3.07 -1.035,4.11 -0.39,1.04 -0.935,1.92 -1.635,2.64 -0.7,0.72 -1.565,1.22 -2.595,1.5 -1.03,0.28 -2.335,0.42 -3.915,0.42 -2.42,0 -4.115,-0.365 -5.085,-1.095 -0.97,-0.73 -1.455,-1.985 -1.455,-3.765 0,-0.98 0.14,-2.25 0.42,-3.81 l 1.86,-10.53 z m 19.829,14.22 h -3.72 l -0.78,4.53 h -5.7 l 3.3,-18.75 h 9 c 3.4,0 5.1,1.58 5.1,4.74 0,1.5 -0.21,2.855 -0.63,4.065 -0.42,1.21 -0.885,2.17 -1.395,2.88 -0.51,0.71 -1.21,1.31 -2.1,1.8 -0.89,0.49 -1.915,0.735 -3.075,0.735 z m -2.07,-9.42 -0.81,4.62 h 1.32 c 0.68,0 1.195,-0.075 1.545,-0.225 0.35,-0.15 0.575,-0.495 0.675,-1.035 0.26,-1.48 0.39,-2.29 0.39,-2.43 0,-0.38 -0.15,-0.63 -0.45,-0.75 -0.3,-0.12 -0.75,-0.18 -1.35,-0.18 z"
     style="white-space:pre;fill:#ffffff"
     id="path7" />
</svg>
