<?xml version="1.0" encoding="UTF-8" standalone="no"?>
<svg
   viewBox="0 0 25.627699 20.499823"
   version="1.1"
   id="svg9"
   sodipodi:docname="auto-actionbeatemup_controller.svg"
   inkscape:version="1.1.2 (0a00cf5339, 2022-02-04)"
   width="25.627699"
   height="20.499823"
   xmlns:inkscape="http://www.inkscape.org/namespaces/inkscape"
   xmlns:sodipodi="http://sodipodi.sourceforge.net/DTD/sodipodi-0.dtd"
   xmlns="http://www.w3.org/2000/svg"
   xmlns:svg="http://www.w3.org/2000/svg">
  <defs
     id="defs13" />
  <sodipodi:namedview
     id="namedview11"
     pagecolor="#ffffff"
     bordercolor="#666666"
     borderopacity="1.0"
     inkscape:pageshadow="2"
     inkscape:pageopacity="0.0"
     inkscape:pagecheckerboard="true"
     showgrid="false"
     inkscape:zoom="4.5525"
     inkscape:cx="39.209226"
     inkscape:cy="48.764415"
     inkscape:window-width="2560"
     inkscape:window-height="1440"
     inkscape:window-x="1920"
     inkscape:window-y="0"
     inkscape:window-maximized="1"
     inkscape:current-layer="svg9"
     fit-margin-top="0"
     fit-margin-left="0"
     fit-margin-right="0"
     fit-margin-bottom="0" />
  <g
     id="layer1"
     fill="#000000"
     stroke="none"
     transform="matrix(0.008665,0,0,0.008616,-0.27136852,-2.7177142)"
     style="fill:#ffffff;stroke:#000000;stroke-width:57.8673">
    <path
       style="color:#000000;fill:#ffffff;stroke:none;-inkscape-stroke:none"
       d="m 2664.8477,1142.7012 c -4.5782,-0.3914 -11.7085,0.2417 -20.3067,8.8398 l -3.3203,3.3203 -2.0996,4.1992 c -3.5797,7.1594 -2.812,8.8353 -2.9551,10.42 -0.143,1.5847 -0.1264,2.3995 -0.1191,3.0703 0.015,1.3416 0.076,1.9786 0.1269,2.5898 0.1012,1.2225 0.2091,2.0971 0.3399,3.127 0.2615,2.0597 0.6182,4.524 1.0957,7.6679 0.9548,6.2879 2.3816,15.1486 4.2519,26.4571 3.7407,22.6169 9.2465,54.9416 16.1289,94.6719 13.7648,79.4604 33.0233,188.5031 54.5332,308.0585 v 0.01 0 c 41.9997,232.9982 63.1299,351.6803 67.4883,413.4043 2.1792,30.862 -0.074,46.2133 -3.1719,54.2969 -3.0975,8.0836 -7.6592,12.8187 -19.6445,24.0703 l -0.1,0.094 -0.098,0.094 c -35.4734,33.9311 -136.2703,68.9012 -529.9844,166.8301 l -419.541,104.3691 -26.8457,58.8028 -0.049,0.1113 c -15.2012,34.0507 -23.715,81.0253 -27.4121,125.1269 -1.8486,22.0508 -2.3191,43.0582 -0.8887,61.3321 1.4179,18.1134 1.1482,32.9418 15.4824,49.8047 9.0045,10.9937 22.727,17.495 35.9063,19.7871 13.344,2.3207 27.1017,1.6384 43.2851,-0.5938 l -0.2109,0.029 c 8.1581,-1.0641 70.2146,-7.1339 157.0351,-15.1289 86.8206,-7.995 200.788,-18.2421 320.7442,-28.7383 120.194,-10.517 232.1016,-21.5325 315.6738,-30.8183 41.7861,-4.6429 76.4569,-8.8459 101.7754,-12.3809 12.6593,-1.7675 22.9402,-3.3566 30.9434,-4.8301 4.0015,-0.7367 7.4051,-1.4294 10.6035,-2.2285 3.1002,-0.7745 4.9648,-0.5461 11.5176,-4.2871 23.8646,-12.4763 50.0183,-35.1941 75.7343,-60.1348 26.0018,-25.2178 48.7906,-49.3328 60.9414,-72.875 l 0.086,-0.164 0.082,-0.166 c 6.7495,-13.499 8.0092,-25.2817 10.6719,-46.4356 2.6627,-21.1539 5.176,-50.2491 7.8203,-90.4805 5.2882,-80.456 11.0366,-205.2874 18.5391,-395.8457 v -0.039 c 5.5004,-135.0113 10.5007,-262.5222 14.127,-359.1797 3.6266,-96.6681 5.8945,-159.6851 5.8945,-174.959 v -56.9668 l -159.6211,-100.584 -0.1152,-0.07 c -40.481,-24.9882 -77.2387,-47.7448 -104.3516,-64.1387 -13.5565,-8.1969 -24.6473,-14.7763 -32.9434,-19.4355 -4.148,-2.3296 -7.4914,-4.1463 -10.7929,-5.7207 -1.6508,-0.7872 -3.1219,-1.512 -5.916,-2.4356 -1.3971,-0.4618 -2.984,-1.0668 -6.6582,-1.4707 -0.9186,-0.1009 -2.1615,-0.3461 -3.6875,-0.4765 z m 38.1562,84.0371 c 25.9528,15.7651 58.3888,35.7901 95.707,58.8262 0.036,0.022 0.056,0.034 0.092,0.057 l 132.2637,83.3457 V 1394 c 0,7.726 -2.2321,76.2093 -5.8555,172.791 -3.6233,96.5818 -8.6222,224.0591 -14.1211,359.0313 v 0.019 0.02 c -7.4967,190.4151 -13.2476,315.0781 -18.459,394.3653 -2.6057,39.6436 -5.0924,67.9859 -7.4922,87.0507 -2.0862,16.5741 -5.272,27.1908 -5.25,28.0469 -4.3797,7.9776 -26.0519,34.6311 -49.4062,57.2813 -23.1382,22.4405 -50.0914,43.6557 -61.5762,49.9394 -1.35,0.3237 -3.464,0.787 -6.4668,1.3399 -6.5515,1.2062 -16.2862,2.7265 -28.4707,4.4277 -24.3689,3.4025 -58.6983,7.5745 -100.1621,12.1816 -82.9277,9.2142 -194.5205,20.1987 -314.3262,30.6817 -120.0436,10.5038 -234.0766,20.7567 -321.0058,28.7617 -86.9293,8.005 -144.373,13.4352 -159.2149,15.3711 l -0.1055,0.014 -0.1054,0.016 c -12.8166,1.7678 -21.5589,1.5855 -25.4649,0.9062 -0.01,0 0,-8e-4 -0.01,0 -0.6975,-2.6369 -2.9552,-8.8122 -3.6035,-17.0938 -1.0696,-13.6636 -0.7901,-32.2813 0.8613,-51.9804 3.3021,-39.3888 12.7839,-84.4004 22.5801,-106.3555 0,-0.01 0.01,-0.012 0.01,-0.018 l 15.1055,-33.0859 392.459,-97.6309 c 394.203,-98.0505 499.4435,-127.0895 555.9785,-181.1367 12.4717,-11.7118 26.076,-24.9454 33.9141,-45.4004 7.8712,-20.5414 9.3051,-44.4402 6.8593,-79.0781 -4.8915,-69.2748 -26.2608,-186.592 -68.2597,-419.5859 v -0.01 c -21.4892,-119.4403 -40.7301,-228.3946 -54.4648,-307.6817 -5.1341,-29.6374 -8.5846,-50.1241 -12.0059,-70.4472 z m 67.5195,1315.1387 c 0.2289,-0.029 -0.3965,0.3883 -1.0312,0.5468 -0.01,0 -0.029,0.01 -0.035,0.01 0.1903,-0.08 1.0069,-0.5472 1.0664,-0.5546 z"
       id="path2" />
    <path
       style="color:#000000;fill:#ffffff;stroke:none;-inkscape-stroke:none"
       d="m 1545.4434,315.47266 c -2.4893,-0.12712 -4.5832,0.0415 -6.9786,0.10546 -4.7906,0.12789 -9.8938,0.54347 -15.6796,1.16407 -11.5717,1.24119 -25.7542,3.33873 -41.9883,6.06836 -32.4683,5.45926 -72.9481,13.46139 -113.1641,22.16015 -40.216,8.69877 -80.0637,18.07222 -111.2656,26.34375 -15.601,4.13577 -28.9888,7.96905 -39.6152,11.48828 -5.3133,1.75962 -9.9036,3.41139 -14.1758,5.24805 -4.2722,1.83666 -7.4485,1.90351 -15.0352,9.49024 -7.7287,7.72873 -7.6501,9.84117 -11.1894,15.73437 -3.5394,5.8932 -7.7296,13.28839 -12.4727,21.94141 -9.4863,17.30603 -21.1078,39.54372 -32.7578,62.84375 -17.2782,34.55632 -28.8741,55.00803 -38.1484,66.84765 -9.2744,11.83962 -15.3734,16.16097 -29.5957,23.05664 l -0.1582,0.0781 -0.1583,0.0781 c -18.9091,9.45459 -21.4112,10.98999 -29.7128,10.71094 -8.3017,-0.27904 -27.7913,-5.1205 -67.25981,-16.61133 l -86.96094,-25.31836 -124.98047,35.25 c -32.39659,9.11186 -64.71021,18.95289 -90.79687,27.64844 -13.046,4.34867 -24.50986,8.39745 -33.88867,12.04102 -9.12416,3.54463 -15.18558,5.67661 -22.88672,10.70703 -13.51931,8.39777 -21.69249,18.99836 -30.81445,31.68359 -9.1864,12.77483 -17.74446,27.34322 -24.24415,42.11524 l -0.0684,0.1582 -0.0684,0.16016 c -42.97268,100.93583 -66.70971,150.27623 -85.82813,168.25976 -9.55921,8.99177 -17.33964,12.5173 -32.94336,15.04492 -15.60371,2.52763 -38.51804,2.59779 -70.15234,2.09961 l -0.0645,-0.002 -97.81835,-1.09766 -107.34766,69.77539 -0.006,0.004 c -32.12805,20.90873 -58.555095,39.83821 -78.232422,56.03521 -9.838663,8.0984 -17.98001,15.4633 -24.640625,22.6347 -6.660615,7.1715 -12.491462,12.7699 -16.166016,25.6309 l -0.04883,0.168 -0.04492,0.1679 c -3.990562,14.6321 -4.774853,30.7623 -5.728515,53.2461 -0.953663,22.4838 -1.231133,49.4759 -0.914063,77.5684 0.634141,56.1849 3.464103,115.8285 8.931641,153.0078 l 0.01953,0.1387 0.02148,0.1367 c 2.241801,14.2915 7.729256,30.0668 17.25,59.957 9.520743,29.8903 22.631183,69.5877 38.222656,115.9395 31.182944,92.7035 72.271254,211.9624 114.050774,331.4218 41.77952,119.4594 84.24156,239.0933 118.17774,332.543 16.96808,46.7249 31.79808,86.8899 43.39062,117.3242 11.59255,30.4344 18.68242,49.0148 24.88867,60.8067 l 0.0156,0.029 0.0176,0.031 c 3.12812,5.9087 7.86551,13.4514 15.82617,19.4609 7.96066,6.0096 17.57509,9.0713 26.56836,10.3829 17.98653,2.623 37.53848,0.9931 72.26758,-1.5235 l 0.15429,-0.01 0.15625,-0.014 c 68.71759,-5.7265 140.51711,-21.2991 196.84375,-40.293 28.16333,-9.4969 52.33588,-19.6889 71.32032,-31.1055 9.49221,-5.7082 17.7609,-11.6221 24.92773,-19.3027 7.16684,-7.6806 14.43945,-18.3164 14.43945,-33.1328 0,-7.528 -0.64995,-6.9629 -1.14257,-9.4687 -0.49263,-2.5059 -1.12898,-5.4243 -1.93946,-8.9825 -1.62096,-7.1163 -3.9305,-16.6997 -6.89258,-28.6504 -5.92385,-23.9003 -14.4415,-57.1868 -24.95869,-97.5653 -21.02754,-80.7307 -50.03504,-189.7571 -82.04492,-307.7949 l -0.01,-0.035 c -0.007,-0.026 -0.0125,-0.048 -0.0195,-0.074 -31.47729,-117.9156 -59.95744,-225.5918 -80.29492,-303.9472 -10.17208,-39.1906 -18.31142,-71.0672 -23.74024,-93.0918 -0.72583,-2.9447 -0.97443,-4.1384 -1.60156,-6.7246 5.16504,-1.064 9.61536,-2.0964 15.44531,-3.1133 l 15.66602,-2.2383 4.60938,18.0215 0.0449,0.1601 c 35.04827,130.68 103.04087,379.1563 162.80273,595.8243 29.88093,108.334 57.69859,208.6977 78.3086,282.3964 10.305,36.8494 18.80575,67.0234 24.8789,88.2559 3.03658,10.6162 5.46223,18.9815 7.23633,24.9375 0.88705,2.978 1.60165,5.3304 2.21094,7.2383 0.30464,0.9539 0.57015,1.771 0.91406,2.7383 0.33326,0.9373 -1.65937,-0.7371 3.28906,6.7695 10.50875,16.5504 22.55332,17.3517 32.92969,19.4062 10.45097,2.0694 21.74574,2.7637 34.80859,2.8575 26.12573,0.1874 58.94183,-2.4219 95.59773,-7.0918 73.3116,-9.3399 161.2386,-26.9748 232.5761,-49.2032 l 0.1094,-0.033 0.1094,-0.035 c 29.8094,-9.5483 53.3623,-11.5933 77.3281,-24.957 11.9829,-6.6819 23.6888,-17.981 30.1836,-32.2637 6.4948,-14.2827 8.4897,-30.0362 8.3457,-48.4356 -0.5761,-73.5975 -34.4833,-204.3723 -101.4375,-506.166 v -0.01 -0.01 c -36.4745,-163.8855 -64.947,-296.5237 -83.502,-388.6757 -9.2774,-46.0761 -16.0809,-82.085 -20.1172,-106.4551 -1.2238,-7.3891 -1.6726,-11.3689 -2.373,-16.4785 4.9174,-1.0506 10.2468,-1.9465 15.2715,-2.211 l 0.5117,-0.027 9.5586,-0.8438 120.248,509.6211 c 58.9959,251.4822 90.4223,384.783 110.377,457.7383 9.978,36.4799 16.7951,57.7211 24.3535,73.3242 7.5584,15.6032 21.4178,28.1398 31.8867,32.2364 l 0.4317,0.1699 0.4355,0.1543 c 19.8761,7.0528 35.6354,4.9358 61.1367,3.5781 25.5014,-1.3577 56.9536,-4.5251 91.4161,-9.0312 68.9084,-9.0102 149.5179,-23.3418 215.0918,-39.7325 h 0.016 c 69.3861,-17.2204 123.8781,-34.1671 163.1015,-50.6543 19.6133,-8.2442 35.3895,-16.2447 48.1094,-25.2187 12.7199,-8.974 25.0458,-18.6614 28.3438,-38.4492 l 0.1777,-1.0625 0.098,-1.0743 c 0.7343,-8.0781 -0.08,-7.8102 -0.4415,-10.8222 -0.3612,-3.012 -0.8676,-6.5664 -1.5332,-10.9063 -1.3311,-8.6797 -3.2968,-20.4059 -5.8554,-35.0332 -5.1172,-29.2546 -12.6009,-70.0197 -21.9278,-119.4707 -18.6536,-98.902 -44.6694,-232.4805 -73.6894,-377.0801 v -0.01 -0.01 c -28.9915,-143.9578 -55.2343,-275.9262 -74.2246,-372.3769 -9.4952,-48.2254 -17.1786,-87.5769 -22.4785,-115.0743 -1.9315,-10.0209 -3.166,-16.5691 -4.4336,-23.2793 5.1793,-1.9207 10.8774,-3.9141 16.9433,-5.789 4.7332,-1.463 9.5269,-2.8266 13.9688,-3.9942 1.3255,5.606 2.3577,9.864 4.1113,17.4395 6.2237,26.8864 15.0297,65.6706 25.7734,113.3926 21.4874,95.4439 50.7348,226.6824 82.7325,370.6718 32.5288,149.1288 62.8022,281.2366 85.8671,376.8809 11.5355,47.8344 21.2573,86.5146 28.627,113.8809 3.6848,13.6831 6.7591,24.4862 9.3242,32.5839 1.2826,4.0489 2.397,7.3598 3.6738,10.5606 0.6384,1.6004 1.2722,3.1379 2.3887,5.2441 1.1165,2.1063 0.5123,4.6639 9.5469,11.1172 l 0.834,0.5957 0.875,0.5352 c 14.891,9.117 28.3668,10.0441 44.9785,11.0801 16.6117,1.036 35.8573,0.5545 57.3867,-0.9903 43.0588,-3.0895 95.0536,-10.5543 147.4414,-20.5996 52.3879,-10.0452 105.0022,-22.6498 149.0586,-36.3125 43.9226,-13.6211 77.8621,-25.5543 101.1485,-45.9687 2.9126,-2.4804 8.8483,-7.7039 13.0097,-15.5977 4.2197,-8.0045 5.915,-16.755 6.4668,-26.0195 1.1037,-18.529 -1.4165,-42.67 -8.0019,-87.8184 -13.171,-90.2968 -43.8964,-262.5287 -104.8965,-604.5293 v -0.018 -0.017 c -59.0008,-328.5047 -90.219,-501.90269 -111.2773,-603.03324 -21.0584,-101.13054 -33.207,-133.04288 -51.25,-169.64453 l -0.01,-0.0195 -0.01,-0.0195 c -24.6576,-49.82907 -55.3439,-102.31719 -83.5859,-144.8086 -14.121,-21.2457 -27.5869,-39.95015 -39.7344,-54.84765 -12.1236,-14.8683 -20.4174,-25.62333 -35.8086,-33.93555 -13.8905,-7.56119 -23.1449,-6.92781 -35.6797,-7.39648 -12.5518,-0.46932 -27.1078,0.0381 -43.4863,1.21093 -32.757,2.34561 -72.5915,7.4472 -112.7168,14.06055 -40.1252,6.61336 -80.3918,14.72009 -113.8457,23.26563 -33.4538,8.54553 -57.357,14.07926 -77.4336,29.13672 l 0.1856,-0.13868 c -39.5617,29.1767 -69.475,49.44017 -91.0703,61.79688 -21.5954,12.35671 -35.3198,15.55469 -36.7559,15.55469 -10.1921,0 -22.0842,-3.14924 -43.3008,-16.70118 -21.2165,-13.55193 -50.1971,-37.19568 -90.1836,-73.72656 l -0.1113,-0.10156 -0.1113,-0.0996 c -19.6082,-17.54414 -39.6198,-33.98465 -56.9492,-46.81641 -8.6648,-6.41588 -16.6243,-11.91949 -23.9141,-16.36718 -7.1415,-4.35721 -12.3944,-7.8891 -22.3594,-10.28321 -3.5663,-0.94939 -6.3112,-1.3798 -8.6269,-1.49804 z m -5.4336,57.95312 c 0.013,-3.5e-4 0.012,0.002 0.025,0.002 1.2981,0.58976 3.717,1.67679 6.2539,3.22461 5.0539,3.08355 11.9069,7.76746 19.6172,13.47657 15.4204,11.41821 34.4089,26.97776 52.8007,43.43359 40.8937,37.34986 71.3617,62.65701 97.8438,79.57227 26.5334,16.94803 50.6413,25.79882 74.4492,25.79882 21.5639,0 40.3396,-8.80205 65.4941,-23.19531 25.1546,-14.39326 56.2414,-35.62988 96.6797,-65.45312 l 0.094,-0.0684 0.092,-0.0703 c -0.077,0.0575 25.8953,-11.40883 57.0351,-19.36328 31.1399,-7.95444 70.1859,-15.84774 108.9356,-22.23437 38.7496,-6.38663 77.3527,-11.28506 107.4394,-13.43946 15.0434,-1.07719 28.0109,-1.44474 37.1895,-1.10156 5.1961,0.19429 9.2833,1.18743 11.0898,1.53711 2.6695,2.55341 10.1856,9.30335 17.7149,18.53711 10.3525,12.69622 23.0116,30.17934 36.3906,50.30859 26.7579,40.25852 56.5718,91.27058 79.9141,138.44141 16.9438,34.37507 25.797,56.48626 46.4804,155.81641 20.6916,99.36925 51.9736,272.97203 110.9727,601.46673 60.9944,341.9686 91.7692,514.7365 104.5976,602.6856 6.4146,43.9765 8.0194,67.2731 7.4981,76.0254 -0.066,1.105 -0.1225,1.2102 -0.1973,1.7851 -6.9353,5.7108 -39.2614,21.4001 -79.8027,33.9727 -41.1935,12.7748 -92.2044,25.0452 -142.8164,34.75 -50.6121,9.7047 -100.9925,16.8649 -140.6836,19.7129 -19.8456,1.4239 -37.0687,1.7394 -49.6445,0.9551 -4.6128,-0.2877 -8.3543,-0.9328 -11.5098,-1.5665 -2.0429,-6.6099 -4.5933,-15.3949 -7.8379,-27.4433 -7.1303,-26.4775 -16.7835,-64.8599 -28.248,-112.4004 -22.9291,-95.0809 -53.1459,-226.934 -85.6075,-375.7578 l -0.012,-0.055 -0.014,-0.057 c -32.0022,-144.0103 -61.255,-275.2723 -82.7675,-370.8282 -10.7563,-47.7779 -19.5753,-86.6189 -25.8516,-113.7324 -3.1381,-13.5567 -5.634,-24.1616 -7.4531,-31.6152 -0.9096,-3.7269 -1.6396,-6.6344 -2.2617,-8.9551 -0.3111,-1.1603 -0.5768,-2.1292 -0.9532,-3.3359 -0.1882,-0.6034 -0.3754,-1.2219 -0.8281,-2.3965 -0.2264,-0.5873 -0.4948,-1.2938 -1.1289,-2.5781 -0.5636,-1.1416 -1.1104,-2.8389 -4.5684,-6.5762 -7.6341,-8.6434 -14.4231,-9.341 -18.4101,-10.0117 -4.1289,-0.6946 -6.8534,-0.6079 -9.4434,-0.4883 -5.1798,0.239 -9.6294,0.986 -14.539,1.9492 -9.8193,1.9264 -20.9051,4.9114 -31.959,8.3281 -11.054,3.4167 -21.8139,7.1862 -30.8594,11.0469 -4.5227,1.9303 -8.5121,3.7531 -12.8535,6.4043 -2.1707,1.3256 -4.4332,2.7205 -7.5508,5.7266 -3.1176,3.0061 -9.75,8.1244 -9.75,22.3398 0,7.2077 0.3452,4.6391 0.4844,5.5293 0.1391,0.8902 0.2941,1.807 0.4902,2.9277 0.3923,2.2414 0.9369,5.2276 1.6465,9.0371 1.4192,7.6192 3.4898,18.4812 6.1523,32.295 5.3251,27.6275 13.0167,67.0262 22.5215,115.3007 19.0097,96.5491 45.267,228.5812 74.2754,372.6231 28.9783,144.3922 54.9613,277.8073 73.5567,376.4004 9.2981,49.2989 16.7519,89.9089 21.791,118.7168 2.5195,14.4039 4.4366,25.8809 5.6562,33.834 0.2338,1.5243 0.3094,2.2051 0.4903,3.4589 -0.8387,0.8278 -1.7944,1.7383 -3.295,2.7969 -7.1238,5.026 -19.9101,11.9005 -37.1718,19.1563 -34.5234,14.5115 -87.0269,31.0637 -154.6328,47.8418 l -0.025,0.01 -0.024,0.01 c -62.4176,15.6044 -141.7843,29.7681 -208.6094,38.5058 -33.4125,4.3689 -63.7728,7.389 -86.9902,8.625 -17.243,0.9181 -32.5447,-0.5561 -37.5332,-0.7441 -0.28,-0.7421 -0.4874,-1.3625 -1.2012,-2.8359 -4.0978,-8.4593 -10.9682,-28.0933 -20.6152,-63.3633 -19.2941,-70.5401 -50.8683,-204.2377 -109.8652,-455.7246 v -0.02 l -131.7559,-558.3964 -58.9512,5.2011 1.0215,-0.072 c -12.0009,0.6316 -23.4284,2.6908 -33.5625,5.541 -10.1341,2.8502 -17.3274,2.8469 -29.375,14.8945 -8.8542,8.8542 -7.9757,13.6982 -8.4961,16.7832 -0.5204,3.085 -0.5452,5.0297 -0.5566,6.916 -0.023,3.7728 0.2476,7.0849 0.6504,11.0371 0.8055,7.9046 2.272,17.9488 4.3945,30.7637 4.2449,25.6299 11.1291,61.9961 20.4766,108.4199 18.6942,92.8441 47.2208,225.7015 83.7441,389.8067 0,0.01 0,0.01 0,0.016 2e-4,7e-4 -10e-5,0 0,0 67.0426,302.1916 99.6347,439.9153 100.0586,494.0664 0.106,13.538 -1.7428,20.9253 -3.1543,24.0293 -1.4115,3.104 -1.6743,3.4377 -5.6914,5.6777 -8.0342,4.48 -32.6063,9.4351 -66.7969,20.3867 l 0.2188,-0.068 c -66.6624,20.7716 -152.7356,38.1367 -222.6738,47.0468 -34.9692,4.4551 -66.0906,6.7833 -87.87114,6.627 -8.71469,-0.063 -15.32015,-0.6275 -20.15821,-1.2852 -1.59557,-5.4113 -3.44907,-11.7633 -6.00781,-20.709 -6.01277,-21.0213 -14.49643,-51.1365 -24.78516,-87.9277 -20.57744,-73.5823 -48.38489,-173.9065 -78.2539,-282.1973 -59.71645,-216.5033 -127.68164,-464.8763 -162.64453,-595.2343 l -17.39844,-68.0098 -68.125,9.7324 -0.43164,0.074 c -12.1102,2.1062 -23.292,4.4456 -31.92383,6.4375 -4.31591,0.996 -7.97336,1.8996 -10.94531,2.6934 -1.48598,0.3969 -2.78225,0.7579 -4.09375,1.1602 -1.3115,0.4022 -1.45636,0.054 -6.01953,2.3359 l -4.19922,2.0996 -3.32031,3.3203 c -13.1379,13.1379 -8.3953,17.0038 -8.50196,19.4141 -0.10666,2.4102 0.0259,3.4722 0.11328,4.4277 0.17477,1.911 0.3701,2.9893 0.58203,4.2012 0.42387,2.4238 0.96042,4.9653 1.67188,8.1758 1.42293,6.4209 3.52691,15.2389 6.29687,26.4765 5.53993,22.4754 13.71312,54.4739 23.91602,93.7832 20.40581,78.6187 48.91543,186.4046 80.42578,304.4434 l 0.0156,0.055 0.0137,0.055 c 31.97768,117.9176 60.96021,226.8529 81.92578,307.3457 10.48279,40.2464 18.96517,73.3975 24.79102,96.9023 2.91292,11.7524 5.16589,21.1144 6.63867,27.5801 0.13806,0.6061 0.17268,0.8123 0.29687,1.3672 -2.20955,1.8804 -5.29818,4.2623 -9.98047,7.0781 -13.07803,7.8647 -34.40556,17.2352 -59.99218,25.8633 -51.13672,17.2438 -119.77471,32.1598 -183.01954,37.4433 -33.81622,2.4461 -53.1055,2.8264 -59.29687,1.9825 -1.46037,-2.8733 -10.5752,-24.4583 -21.85156,-54.0625 -11.40744,-29.9484 -26.17125,-69.9242 -43.07813,-116.4805 -33.81376,-93.1126 -76.22686,-212.6042 -117.94726,-331.8945 -41.7204,-119.2904 -82.75723,-238.4069 -113.82422,-330.7657 -15.5335,-46.1794 -28.57936,-85.6852 -37.9336,-115.0527 -9.33471,-29.3062 -15.416031,-52.7386 -15.201168,-51.3047 -4.518429,-30.873 -7.680254,-90.5659 -8.294921,-145.0254 -0.307929,-27.2825 -0.0229,-53.478 0.867187,-74.4629 0.804939,-18.9774 2.659669,-33.6605 3.410156,-37.9726 0.540161,-0.8965 1.418949,-2.4355 3.164063,-4.3145 3.933123,-4.2348 10.479303,-10.3075 19.015623,-17.334 17.06993,-14.0507 42.13875,-32.1176 73.00391,-52.205 l 0.0137,-0.01 92.64648,-60.22067 80.24805,0.90234 c 31.80022,0.50093 56.85421,0.93957 80.18555,-2.83984 23.365,-3.78487 45.52212,-13.25937 63.33789,-30.01758 35.58932,-33.47671 56.36153,-86.59096 99.28515,-187.42188 l 0.006,-0.0117 c 4.50044,-10.22548 11.43888,-22.15132 18.25,-31.62304 6.8136,-9.47515 15.11537,-16.80251 14.42383,-16.37696 l 0.44727,-0.27539 0.4375,-0.29101 c -2.01547,1.34364 4.36906,-2.18459 12.36523,-5.29102 7.99618,-3.10642 18.78236,-6.93266 31.23633,-11.08398 24.90794,-8.30265 56.58693,-17.95914 88.18359,-26.8457 l 0.01,-0.004 109.0293,-30.75195 71.03906,20.68164 c 39.53142,11.50914 60.04189,18.16772 81.49019,18.88867 21.3521,0.71772 38.2987,-7.17971 57.2852,-16.66797 18.7511,-9.10083 35.631,-21.26921 49.8398,-39.4082 14.2256,-18.16035 26.6298,-41.20874 44.3516,-76.65235 11.35,-22.69993 22.7285,-44.46232 31.7422,-60.90625 4.5068,-8.22196 8.4417,-15.1393 11.3398,-19.96484 0.6593,-1.09779 1.2371,-1.76929 1.9551,-2.76367 1.9007,-0.74315 3.8158,-1.50478 7.0274,-2.56836 8.6938,-2.8792 21.3216,-6.53031 36.2519,-10.48828 29.8606,-7.91595 69.138,-17.16753 108.6719,-25.71875 39.5339,-8.55122 79.4292,-16.42412 110.5234,-21.65235 15.5471,-2.61411 28.9428,-4.56346 38.5664,-5.5957 4.8118,-0.51612 8.7096,-0.79292 11.0528,-0.85547 z m 734.1347,20.97461 0.068,0.0371 0.07,0.0371 c -0.023,-0.0125 0,0.007 -0.025,-0.004 -0.072,-0.0396 -0.036,-0.0284 -0.1133,-0.0703 z m -345.332,719.18551 c 0.024,0.01 0.03,1.3957 0.051,1.8321 -0.044,-0.2638 -0.1222,-0.7081 -0.1406,-0.8262 -0.021,-0.1351 0.032,-1.0219 0.09,-1.0059 z M 953.59375,2408.0508 c 0.0736,-0.1272 0.74812,0.3409 1.49219,0.9082 -0.9083,-0.3515 -1.57746,-0.7609 -1.49219,-0.9082 z m 8.82031,10.8242 c 0.81204,1.5841 0.49702,1.5707 0.51563,1.623 0.0281,0.079 -0.1155,-0.3381 -0.3125,-0.955 -0.0428,-0.1339 -0.15436,-0.5132 -0.20313,-0.668 z"
       id="path4" />
  </g>
</svg>
