<?xml version="1.0" encoding="UTF-8" standalone="no"?>
<svg
   version="1.1"
   id="svg42"
   x="0"
   y="0"
   viewBox="0 0 524.50005 267.10156"
   xml:space="preserve"
   sodipodi:docname="creativision_controller.svg"
   width="524.50006"
   height="267.10156"
   inkscape:version="1.1.2 (0a00cf5339, 2022-02-04)"
   xmlns:inkscape="http://www.inkscape.org/namespaces/inkscape"
   xmlns:sodipodi="http://sodipodi.sourceforge.net/DTD/sodipodi-0.dtd"
   xmlns:xlink="http://www.w3.org/1999/xlink"
   xmlns="http://www.w3.org/2000/svg"
   xmlns:svg="http://www.w3.org/2000/svg"><defs
   id="defs135" /><sodipodi:namedview
   id="namedview133"
   pagecolor="#ffffff"
   bordercolor="#666666"
   borderopacity="1.0"
   inkscape:pageshadow="2"
   inkscape:pageopacity="0.0"
   inkscape:pagecheckerboard="true"
   showgrid="false"
   fit-margin-top="0"
   fit-margin-left="0"
   fit-margin-right="0"
   fit-margin-bottom="0"
   inkscape:zoom="1.5732057"
   inkscape:cx="262.20347"
   inkscape:cy="133.4854"
   inkscape:window-width="2560"
   inkscape:window-height="1440"
   inkscape:window-x="1920"
   inkscape:window-y="0"
   inkscape:window-maximized="1"
   inkscape:current-layer="svg42" />
    <style
   id="style2">
        .st0{fill:#19191c}.st1{fill:#0f0f11}.st3{fill:#ffd0b0}.st4{fill:#eed47b}.st5{fill:#975734}.st6{fill:#4c342f}
    </style>
    <path
   style="color:#000000;fill:#ffffff;-inkscape-stroke:none"
   d="M 4.39844,0 C 1.97213,0 0,1.97408 0,4.40039 v 258.30078 c 0,2.42631 1.97213,4.40039 4.39844,4.40039 h 515.70117 c 2.35555,0 4.2723,-1.95111 4.39844,-4.34766 l 0.002,-0.0273 V 4.40039 C 524.50005,1.97408 522.52597,0 520.09966,0 Z m 0,2 H 520.09961 C 521.47329,2 522.5,3.02671 522.5,4.40039 v 258.24805 c -0.0739,1.40344 -1.15595,2.45312 -2.40039,2.45312 H 4.39844 C 3.02476,265.10156 2,264.07485 2,262.70117 V 4.40039 C 2,3.02671 3.02476,2 4.39844,2 Z"
   id="path4" />
    <path
   style="color:#000000;fill:#ffffff;-inkscape-stroke:none"
   d="m 104.59961,56 c -39.242596,0 -71.201171,31.95857 -71.201171,71.20117 0,39.2426 31.958575,71.19922 71.201171,71.19922 39.2426,0 71.19922,-31.95662 71.19922,-71.19922 v -0.002 -0.002 C 175.69743,87.9578 143.84221,56 104.59961,56 Z m 0,2 c 38.15733,0 69.10061,31.04267 69.19922,69.20312 -0.001,38.15643 -31.04255,69.19727 -69.19922,69.19727 -38.157326,0 -69.201171,-31.04189 -69.201171,-69.19922 C 35.398439,89.04384 66.442284,58 104.59961,58 Z m 0,15.30078 c -29.741066,0 -53.800781,24.16015 -53.800781,53.80078 0,29.73878 24.061999,53.79883 53.800781,53.79883 29.73878,0 53.79883,-24.06005 53.79883,-53.79883 0,-29.73878 -24.06005,-53.80078 -53.79883,-53.80078 z m 0,2 c 28.66116,0 51.79883,23.13962 51.79883,51.80078 0,28.66116 -23.13767,51.79883 -51.79883,51.79883 -28.661158,0 -51.800781,-23.13767 -51.800781,-51.79883 0,-28.55931 23.141906,-51.80078 51.800781,-51.80078 z"
   id="path6" />
    <g
   style="opacity:0.75;fill:none;stroke:#ffffff;stroke-width:2;stroke-miterlimit:4;stroke-dasharray:none;stroke-opacity:1"
   id="g14"
   transform="translate(129.69922,-127.69922)">
        <defs
   id="defs9">
            <circle
   id="SVGID_1_"
   transform="rotate(-84.806,138.903,103.614)"
   cx="138.89999"
   cy="103.6"
   r="47.900002" />
        </defs>
        <clipPath
   id="SVGID_00000032607098242576542050000010096291797811438256_">
            <use
   xlink:href="#SVGID_1_"
   style="overflow:visible"
   id="use11"
   x="0"
   y="0"
   width="100%"
   height="100%" />
        </clipPath>
    </g>
    <path
   style="color:#000000;fill:#ffffff;-inkscape-stroke:none"
   d="M 210.79883,28.60156 C 198.22662,28.60156 188,39.39077 188,52.70117 V 214.5 c 0,13.21442 10.22106,24.10156 22.79883,24.10156 H 524.5 v -210 H 518 Z m 0,2 H 518 h 4.5 v 206 H 210.79883 C 199.37662,236.60156 190,226.68555 190,214.5 V 52.70117 c 0,-12.28957 9.37106,-22.09961 20.79883,-22.09961 z"
   id="path16" />
    <path
   style="color:#000000;fill:#ffffff;-inkscape-stroke:none"
   d="M 210.69922,34.40039 C 200.95575,34.40039 193,42.35809 193,52.10156 v 163 c 0,9.74347 7.95575,17.69922 17.69922,17.69922 h 299.09961 0.40039 0.59961 H 522.5 v -66.09961 -0.0996 -66 -0.10156 -66.09961 h -12.30078 -0.40039 z m 0,2 h 297.5 v 194.40039 h -297.5 C 202.04271,230.80078 195,223.75807 195,215.10156 v -163 c 0,-8.65651 7.04271,-15.70117 15.69922,-15.70117 z m 301.09961,0 H 520.5 v 62.20117 h -8.70117 z m 0,66.09961 H 520.5 v 62.20117 h -8.70117 z m 0,66.10156 H 520.5 v 62.19922 h -8.70117 z"
   id="path18" />
    <path
   style="color:#000000;fill:#ffffff;-inkscape-stroke:none"
   d="m 212.59961,50.40039 c -2.95555,0 -5.40039,2.44484 -5.40039,5.40039 v 26.5 c 0,2.95555 2.44484,5.40039 5.40039,5.40039 h 37 c 2.95555,0 5.15907,-2.46739 5.39649,-5.31641 l 0.004,-0.043 V 55.80078 c 0,-2.95555 -2.44484,-5.40039 -5.40039,-5.40039 z m 0,2 h 37 c 1.84444,0 3.40039,1.55595 3.40039,3.40039 V 82.2207 c -0.16444,1.94873 -1.55744,3.48047 -3.40039,3.48047 h -37 c -1.84444,0 -3.40039,-1.55595 -3.40039,-3.40039 v -26.5 c 0,-1.84444 1.55595,-3.40039 3.40039,-3.40039 z"
   id="path20" />
    <path
   style="color:#000000;fill:#ffffff;-inkscape-stroke:none"
   d="m 218.39844,55.40039 c -2.03333,0 -3.69922,1.66784 -3.69922,3.70117 v 19.69922 c 0,2.03333 1.66589,3.69922 3.69922,3.69922 h 25.30078 c 1.98889,0 3.69922,-1.59922 3.69922,-3.69922 V 59.10156 c 0,-2.03333 -1.66589,-3.70117 -3.69922,-3.70117 z m 0,2 h 25.30078 c 0.96667,0 1.69922,0.73451 1.69922,1.70117 v 19.69922 c 0,1.1 -0.68811,1.69922 -1.69922,1.69922 h -25.30078 c -0.96667,0 -1.69922,-0.73255 -1.69922,-1.69922 V 59.10156 c 0,-0.96666 0.73255,-1.70117 1.69922,-1.70117 z"
   id="path22" />
    <path
   style="color:#000000;fill:#ffffff;-inkscape-stroke:none"
   d="m 260.69922,50.40039 c -2.95555,0 -5.40039,2.44484 -5.40039,5.40039 v 26.5 c 0,2.95555 2.44484,5.40039 5.40039,5.40039 h 37 c 2.95555,0 5.40039,-2.44484 5.40039,-5.40039 v -26.5 c 0,-2.95555 -2.44484,-5.40039 -5.40039,-5.40039 z m 0,2 h 37 c 1.84444,0 3.40039,1.55595 3.40039,3.40039 v 26.5 c 0,1.84444 -1.55595,3.40039 -3.40039,3.40039 h -37 c -1.84444,0 -3.40039,-1.55595 -3.40039,-3.40039 v -26.5 c 0,-1.84444 1.55595,-3.40039 3.40039,-3.40039 z"
   id="path24" />
    <path
   style="color:#000000;fill:#ffffff;-inkscape-stroke:none"
   d="m 266.59961,55.40039 c -2.03333,0 -3.70117,1.66784 -3.70117,3.70117 v 19.69922 c 0,2.03333 1.66784,3.69922 3.70117,3.69922 H 292 c 1.8641,0 3.59961,-1.55756 3.59961,-3.69922 V 59.10156 c 0,-2.03333 -1.66784,-3.70117 -3.70117,-3.70117 z m 0,2 h 25.29883 c 0.96666,0 1.70117,0.73451 1.70117,1.70117 V 78.80078 C 293.59961,79.85911 292.7359,80.5 292,80.5 h -25.40039 c -0.96667,0 -1.70117,-0.73255 -1.70117,-1.69922 V 59.10156 c 0,-0.96666 0.7345,-1.70117 1.70117,-1.70117 z"
   id="path26" />
    <path
   style="color:#000000;fill:#ffffff;-inkscape-stroke:none"
   d="m 308.89844,50.40039 c -2.95555,0 -5.39844,2.44484 -5.39844,5.40039 v 26.5 c 0,2.95555 2.44289,5.40039 5.39844,5.40039 h 37 c 3.03333,0 5.52444,-2.46421 5.40039,-5.44141 V 55.80078 c 0,-2.95555 -2.44484,-5.40039 -5.40039,-5.40039 z m 0,2 h 37 c 1.84444,0 3.40039,1.55595 3.40039,3.40039 v 26.52148 l 0.002,0.0195 c 0.076,1.82279 -1.43568,3.35937 -3.40234,3.35937 h -37 c -1.84444,0 -3.39844,-1.55595 -3.39844,-3.40039 v -26.5 c 0,-1.84444 1.554,-3.40039 3.39844,-3.40039 z"
   id="path28" />
    <path
   style="color:#000000;fill:#ffffff;-inkscape-stroke:none"
   d="m 314.79883,55.40039 c -2.03333,0 -3.69922,1.66784 -3.69922,3.70117 v 19.69922 c 0,2.03333 1.66589,3.69922 3.69922,3.69922 h 25.30078 c 1.98889,0 3.69922,-1.59922 3.69922,-3.69922 V 59.10156 c 0,-2.03333 -1.66589,-3.70117 -3.69922,-3.70117 z m 0,2 h 25.30078 c 0.96667,0 1.69922,0.73451 1.69922,1.70117 v 19.69922 c 0,1.1 -0.68811,1.69922 -1.69922,1.69922 h -25.30078 c -0.96667,0 -1.69922,-0.73255 -1.69922,-1.69922 V 59.10156 c 0,-0.96666 0.73255,-1.70117 1.69922,-1.70117 z"
   id="path30" />
    <path
   style="color:#000000;fill:#ffffff;-inkscape-stroke:none"
   d="m 357.09961,50.40039 c -2.95555,0 -5.40039,2.44484 -5.40039,5.40039 v 26.5 c 0,2.95555 2.44484,5.40039 5.40039,5.40039 h 37 c 3.03333,0 5.52249,-2.46421 5.39844,-5.44141 l 0.002,0.041 v -26.5 c 0,-2.95555 -2.44484,-5.40039 -5.40039,-5.40039 z m 0,2 h 37 c 1.84444,0 3.40039,1.55595 3.40039,3.40039 v 26.52148 0.0195 c 0.076,1.82279 -1.43372,3.35937 -3.40039,3.35937 h -37 c -1.84444,4e-5 -3.40039,-1.55591 -3.40039,-3.40035 v -26.5 c 0,-1.84444 1.55595,-3.40039 3.40039,-3.40039 z"
   id="path32" />
    <path
   style="color:#000000;fill:#ffffff;-inkscape-stroke:none"
   d="m 363.09961,55.40039 c -2.03333,0 -3.70117,1.66784 -3.70117,3.70117 v 19.69922 c 0,2.03333 1.66784,3.69922 3.70117,3.69922 h 25.29883 c 1.92381,0 3.70117,-1.55756 3.70117,-3.69922 V 59.10156 c 0,-2.03333 -1.66784,-3.70117 -3.70117,-3.70117 z m 0,2 h 25.29883 c 0.96666,0 1.70117,0.73451 1.70117,1.70117 v 19.69922 c 0,1.05833 -0.82498,1.69922 -1.70117,1.69922 h -25.29883 c -0.96667,0 -1.70117,-0.73255 -1.70117,-1.69922 V 59.10156 c 0,-0.96666 0.7345,-1.70117 1.70117,-1.70117 z"
   id="path34" />
    <path
   style="color:#000000;fill:#ffffff;-inkscape-stroke:none"
   d="m 405.39844,50.40039 c -2.95555,0 -5.39844,2.44484 -5.39844,5.40039 v 26.5 c 0,2.95555 2.44289,5.40039 5.39844,5.40039 h 37 c 2.95555,0 5.27942,-2.45606 5.40039,-5.35937 V 82.32226 55.80078 c 0,-2.95555 -2.44484,-5.40039 -5.40039,-5.40039 z m 0,2 h 37 c 1.84444,0 3.40039,1.55595 3.40039,3.40039 v 26.4668 c -0.083,1.89286 -1.55865,3.43359 -3.40039,3.43359 h -37 C 403.554,85.70117 402,84.14522 402,82.30078 v -26.5 c 0,-1.84444 1.554,-3.40039 3.39844,-3.40039 z"
   id="path36" />
    <path
   style="color:#000000;fill:#ffffff;-inkscape-stroke:none"
   d="m 411.29883,55.40039 c -2.03333,0 -3.69922,1.66784 -3.69922,3.70117 v 19.69922 c 0,2.03333 1.66589,3.69922 3.69922,3.69922 h 25.30078 c 1.98889,0 3.57057,-1.60954 3.69727,-3.63672 l 0.002,-0.0312 V 59.10161 c 0,-2.03333 -1.66589,-3.70117 -3.69922,-3.70117 z m 0,2 h 25.30078 c 0.96667,0 1.69922,0.73451 1.69922,1.70117 V 78.74414 C 438.22333,79.91185 437.60851,80.5 436.59961,80.5 h -25.30078 c -0.96667,0 -1.69922,-0.73255 -1.69922,-1.69922 V 59.10156 c 0,-0.96666 0.73255,-1.70117 1.69922,-1.70117 z"
   id="path38" />
    <path
   style="color:#000000;fill:#ffffff;-inkscape-stroke:none"
   d="m 453.59961,50.40039 c -2.95555,0 -5.40039,2.44484 -5.40039,5.40039 v 26.5 c 0,2.95555 2.44484,5.40039 5.40039,5.40039 h 37 c 3.03333,0 5.52249,-2.46421 5.39844,-5.44141 l 0.002,0.041 v -26.5 c 0,-2.95555 -2.44484,-5.40039 -5.40039,-5.40039 z m 0,2 h 37 c 1.84444,0 3.40039,1.55595 3.40039,3.40039 v 26.52148 0.0195 c 0.076,1.82279 -1.43372,3.35937 -3.40039,3.35937 h -37 c -1.84444,4e-5 -3.40039,-1.55591 -3.40039,-3.40035 v -26.5 c 0,-1.84444 1.55595,-3.40039 3.40039,-3.40039 z"
   id="path40" />
    <path
   style="color:#000000;fill:#ffffff;-inkscape-stroke:none"
   d="m 459.59961,55.40039 c -2.03333,0 -3.70117,1.66784 -3.70117,3.70117 v 19.69922 c 0,2.03333 1.66784,3.69922 3.70117,3.69922 h 25.19922 c 1.92381,0 3.5389,-1.54169 3.79297,-3.57422 l 0.008,-0.0625 V 59.10156 c 0,-2.03333 -1.66784,-3.70117 -3.70117,-3.70117 z m 0,2 h 25.29883 c 0.96666,0 1.70117,0.73451 1.70117,1.70117 v 19.5918 C 486.44645,79.84675 485.66937,80.5 484.79883,80.5 h -25.19922 c -0.96667,0 -1.70117,-0.73255 -1.70117,-1.69922 V 59.10156 c 0,-0.96666 0.7345,-1.70117 1.70117,-1.70117 z"
   id="path42" />
    <path
   style="color:#000000;fill:#ffffff;-inkscape-stroke:none"
   d="m 212.59961,93.40039 c -2.95555,0 -5.40039,2.44484 -5.40039,5.40039 v 26.5 c 0,2.95555 2.44484,5.40039 5.40039,5.40039 h 37 c 2.95555,0 5.15907,-2.46739 5.39649,-5.31641 l 0.004,-0.043 V 98.80078 c 0,-2.95555 -2.44484,-5.40039 -5.40039,-5.40039 z m 0,2 h 37 c 1.84444,0 3.40039,1.55595 3.40039,3.40039 v 26.41992 c -0.16444,1.94873 -1.55744,3.48047 -3.40039,3.48047 h -37 c -1.84444,0 -3.40039,-1.55595 -3.40039,-3.40039 v -26.5 c 0,-1.84444 1.55595,-3.40039 3.40039,-3.40039 z"
   id="path44" />
    <path
   style="color:#000000;fill:#ffffff;-inkscape-stroke:none"
   d="m 218.39844,98.5 c -2.03333,0 -3.69922,1.66784 -3.69922,3.70117 v 19.69922 c 0,2.03333 1.66589,3.70117 3.69922,3.70117 h 25.30078 c 1.98889,0 3.69922,-1.60117 3.69922,-3.70117 v -19.69922 c 0,-2.03333 -1.66589,-3.70117 -3.69922,-3.70117 z m 0,2 h 25.30078 c 0.96667,0 1.69922,0.7345 1.69922,1.70117 v 19.69922 c 0,1.1 -0.68811,1.70117 -1.69922,1.70117 h -25.30078 c -0.96667,0 -1.69922,-0.7345 -1.69922,-1.70117 v -19.69922 c 0,-0.96667 0.73255,-1.70117 1.69922,-1.70117 z"
   id="path46" />
    <path
   style="color:#000000;fill:#ffffff;-inkscape-stroke:none"
   d="m 260.69922,93.40039 c -2.95555,0 -5.40039,2.44484 -5.40039,5.40039 v 26.5 c 0,2.95555 2.44484,5.40039 5.40039,5.40039 h 37 c 2.95555,0 5.40039,-2.44484 5.40039,-5.40039 v -26.5 c 0,-2.95555 -2.44484,-5.40039 -5.40039,-5.40039 z m 0,2 h 37 c 1.84444,0 3.40039,1.55595 3.40039,3.40039 v 26.5 c 0,1.84444 -1.55595,3.40039 -3.40039,3.40039 h -37 c -1.84444,0 -3.40039,-1.55595 -3.40039,-3.40039 v -26.5 c 0,-1.84444 1.55595,-3.40039 3.40039,-3.40039 z"
   id="path48" />
    <path
   style="color:#000000;fill:#ffffff;-inkscape-stroke:none"
   d="m 266.59961,98.5 c -2.03333,0 -3.70117,1.66784 -3.70117,3.70117 v 19.69922 c 0,2.03333 1.66784,3.70117 3.70117,3.70117 H 292 c 1.8641,0 3.59961,-1.55951 3.59961,-3.70117 v -19.69922 c 0,-2.03333 -1.66784,-3.70117 -3.70117,-3.70117 z m 0,2 h 25.29883 c 0.96666,0 1.70117,0.7345 1.70117,1.70117 v 19.69922 c 0,1.05833 -0.86371,1.70117 -1.59961,1.70117 h -25.40039 c -0.96667,0 -1.70117,-0.7345 -1.70117,-1.70117 v -19.69922 c 0,-0.96667 0.7345,-1.70117 1.70117,-1.70117 z"
   id="path50" />
    <path
   style="color:#000000;fill:#ffffff;-inkscape-stroke:none"
   d="m 308.89844,93.40039 c -2.95555,0 -5.39844,2.44484 -5.39844,5.40039 v 26.5 c 0,2.95555 2.44289,5.40039 5.39844,5.40039 h 37 c 3.03333,0 5.52444,-2.46421 5.40039,-5.44141 V 98.80078 c 0,-2.95555 -2.44484,-5.40039 -5.40039,-5.40039 z m 0,2 h 37 c 1.84444,0 3.40039,1.55595 3.40039,3.40039 v 26.52148 l 0.002,0.0195 c 0.076,1.82279 -1.43568,3.35937 -3.40234,3.35937 h -37 c -1.84444,0 -3.39844,-1.55595 -3.39844,-3.40039 v -26.5 c 0,-1.84444 1.554,-3.40039 3.39844,-3.40039 z"
   id="path52" />
    <path
   style="color:#000000;fill:#ffffff;-inkscape-stroke:none"
   d="m 314.79883,98.5 c -2.03333,0 -3.69922,1.66784 -3.69922,3.70117 v 19.69922 c 0,2.03333 1.66589,3.70117 3.69922,3.70117 h 25.30078 c 1.98889,0 3.69922,-1.60117 3.69922,-3.70117 v -19.69922 c 0,-2.03333 -1.66589,-3.70117 -3.69922,-3.70117 z m 0,2 h 25.30078 c 0.96667,0 1.69922,0.7345 1.69922,1.70117 v 19.69922 c 0,1.1 -0.68811,1.70117 -1.69922,1.70117 h -25.30078 c -0.96667,0 -1.69922,-0.7345 -1.69922,-1.70117 v -19.69922 c 0,-0.96667 0.73255,-1.70117 1.69922,-1.70117 z"
   id="path54" />
    <path
   style="color:#000000;fill:#ffffff;-inkscape-stroke:none"
   d="m 357.09961,93.40039 c -2.95555,0 -5.40039,2.44484 -5.40039,5.40039 v 26.5 c 0,2.95555 2.44484,5.40039 5.40039,5.40039 h 37 c 3.03333,0 5.52249,-2.46421 5.39844,-5.44141 l 0.002,0.041 v -26.5 c 0,-2.95555 -2.44484,-5.40039 -5.40039,-5.40039 z m 0,2 h 37 c 1.84444,0 3.40039,1.55595 3.40039,3.40039 v 26.52148 0.0195 c 0.076,1.82279 -1.43372,3.35937 -3.40039,3.35937 h -37 c -1.84444,4e-5 -3.40039,-1.55591 -3.40039,-3.40035 v -26.5 c 0,-1.84444 1.55595,-3.40039 3.40039,-3.40039 z"
   id="path56" />
    <path
   style="color:#000000;fill:#ffffff;-inkscape-stroke:none"
   d="m 363.09961,98.5 c -2.03333,0 -3.70117,1.66784 -3.70117,3.70117 v 19.69922 c 0,2.03333 1.66784,3.70117 3.70117,3.70117 h 25.29883 c 1.92381,0 3.70117,-1.55951 3.70117,-3.70117 v -19.69922 c 0,-2.03333 -1.66784,-3.70117 -3.70117,-3.70117 z m 0,2 h 25.29883 c 0.96666,0 1.70117,0.7345 1.70117,1.70117 v 19.69922 c 0,1.05833 -0.82498,1.70117 -1.70117,1.70117 h -25.29883 c -0.96667,0 -1.70117,-0.7345 -1.70117,-1.70117 v -19.69922 c 0,-0.96667 0.7345,-1.70117 1.70117,-1.70117 z"
   id="path58" />
    <path
   style="color:#000000;fill:#ffffff;-inkscape-stroke:none"
   d="m 405.39844,93.40039 c -2.95555,0 -5.39844,2.44484 -5.39844,5.40039 v 26.5 c 0,2.95555 2.44289,5.40039 5.39844,5.40039 h 37 c 2.95555,0 5.27942,-2.45606 5.40039,-5.35937 v -0.0195 -26.52148 c 0,-2.95555 -2.44484,-5.40039 -5.40039,-5.40039 z m 0,2 h 37 c 1.84444,0 3.40039,1.55595 3.40039,3.40039 v 26.4668 c -0.083,1.89286 -1.55865,3.43359 -3.40039,3.43359 h -37 C 403.554,128.70117 402,127.14522 402,125.30078 v -26.5 c 0,-1.84444 1.554,-3.40039 3.39844,-3.40039 z"
   id="path60" />
    <path
   style="color:#000000;fill:#ffffff;-inkscape-stroke:none"
   d="m 411.29883,98.5 c -2.03333,0 -3.69922,1.66784 -3.69922,3.70117 v 19.69922 c 0,2.03333 1.66589,3.70117 3.69922,3.70117 h 25.30078 c 1.98889,0 3.57057,-1.61149 3.69727,-3.63867 l 0.002,-0.0312 v -19.73047 c 0,-2.03333 -1.66589,-3.70117 -3.69922,-3.70117 z m 0,2 h 25.30078 c 0.96667,0 1.69922,0.7345 1.69922,1.70117 v 19.64258 c -0.0755,1.16771 -0.69032,1.75781 -1.69922,1.75781 h -25.30078 c -0.96667,0 -1.69922,-0.7345 -1.69922,-1.70117 v -19.69922 c 0,-0.96667 0.73255,-1.70117 1.69922,-1.70117 z"
   id="path62" />
    <path
   style="color:#000000;fill:#ffffff;-inkscape-stroke:none"
   d="m 453.59961,93.40039 c -2.95555,0 -5.40039,2.44484 -5.40039,5.40039 v 26.5 c 0,2.95555 2.44484,5.40039 5.40039,5.40039 h 37 c 3.03333,0 5.52249,-2.46421 5.39844,-5.44141 l 0.002,0.041 v -26.5 c 0,-2.95555 -2.44484,-5.40039 -5.40039,-5.40039 z m 0,2 h 37 c 1.84444,0 3.40039,1.55595 3.40039,3.40039 v 26.52148 0.0195 c 0.076,1.82279 -1.43372,3.35937 -3.40039,3.35937 h -37 c -1.84444,4e-5 -3.40039,-1.55591 -3.40039,-3.40035 v -26.5 c 0,-1.84444 1.55595,-3.40039 3.40039,-3.40039 z"
   id="path64" />
    <path
   style="color:#000000;fill:#ffffff;-inkscape-stroke:none"
   d="m 459.59961,98.5 c -2.03333,0 -3.70117,1.66784 -3.70117,3.70117 v 19.69922 c 0,2.03333 1.66784,3.70117 3.70117,3.70117 h 25.19922 c 1.92381,0 3.5389,-1.54364 3.79297,-3.57617 l 0.008,-0.0625 v -19.76172 c 0,-2.03333 -1.66784,-3.70117 -3.70117,-3.70117 z m 0,2 h 25.29883 c 0.96666,0 1.70117,0.7345 1.70117,1.70117 v 19.59375 c -0.15317,1.15337 -0.93025,1.80664 -1.80078,1.80664 h -25.19922 c -0.96667,0 -1.70117,-0.7345 -1.70117,-1.70117 v -19.69922 c 0,-0.96667 0.7345,-1.70117 1.70117,-1.70117 z"
   id="path66" />
    <path
   style="color:#000000;fill:#ffffff;-inkscape-stroke:none"
   d="m 212.59961,136.5 c -2.95555,0 -5.40039,2.44484 -5.40039,5.40039 v 26.40039 c 0,2.95555 2.44484,5.40039 5.40039,5.40039 h 37 c 2.9,0 5.16149,-2.28331 5.39649,-5.2207 l 0.004,-0.0391 v -26.54101 c 0,-2.95555 -2.44484,-5.40039 -5.40039,-5.40039 z m 0,2 h 37 c 1.84444,0 3.40039,1.55595 3.40039,3.40039 v 26.42383 c -0.16678,2.05971 -1.50194,3.37695 -3.40039,3.37695 h -37 c -1.84444,0 -3.40039,-1.55595 -3.40039,-3.40039 v -26.40039 c 0,-1.84444 1.55595,-3.40039 3.40039,-3.40039 z"
   id="path68" />
    <path
   style="color:#000000;fill:#ffffff;-inkscape-stroke:none"
   d="m 218.39844,141.60156 c -2.03333,0 -3.69922,1.66589 -3.69922,3.69922 V 165 c 0,2.03333 1.66589,3.70117 3.69922,3.70117 h 25.30078 c 1.98889,0 3.69922,-1.60117 3.69922,-3.70117 v -19.69922 c 0,-2.03333 -1.66589,-3.69922 -3.69922,-3.69922 z m 0,2 h 25.30078 c 0.96667,0 1.69922,0.73255 1.69922,1.69922 V 165 c 0,1.1 -0.68811,1.70117 -1.69922,1.70117 h -25.30078 c -0.96667,0 -1.69922,-0.73451 -1.69922,-1.70117 v -19.69922 c 0,-0.96667 0.73255,-1.69922 1.69922,-1.69922 z"
   id="path70" />
    <path
   style="color:#000000;fill:#ffffff;-inkscape-stroke:none"
   d="m 260.69922,136.5 c -2.95555,0 -5.40039,2.44484 -5.40039,5.40039 v 26.40039 c 0,2.95555 2.44484,5.40039 5.40039,5.40039 h 37 c 2.9,0 5.40039,-2.26745 5.40039,-5.30078 v -26.5 c 0,-2.95555 -2.44484,-5.40039 -5.40039,-5.40039 z m 0,2 h 37 c 1.84444,0 3.40039,1.55595 3.40039,3.40039 v 26.5 c 0,1.96666 -1.50039,3.30078 -3.40039,3.30078 h -37 c -1.84444,0 -3.40039,-1.55595 -3.40039,-3.40039 v -26.40039 c 0,-1.84444 1.55595,-3.40039 3.40039,-3.40039 z"
   id="path72" />
    <path
   style="color:#000000;fill:#ffffff;-inkscape-stroke:none"
   d="m 266.59961,141.60156 c -2.03333,0 -3.70117,1.66589 -3.70117,3.69922 V 165 c 0,2.03333 1.66784,3.70117 3.70117,3.70117 H 292 c 1.8641,0 3.59961,-1.55951 3.59961,-3.70117 v -19.69922 c 0,-2.03333 -1.66784,-3.69922 -3.70117,-3.69922 z m 0,2 h 25.29883 c 0.96666,0 1.70117,0.73255 1.70117,1.69922 V 165 c 0,1.05833 -0.86371,1.70117 -1.59961,1.70117 h -25.40039 c -0.96667,0 -1.70117,-0.73451 -1.70117,-1.70117 v -19.69922 c 0,-0.96667 0.7345,-1.69922 1.70117,-1.69922 z"
   id="path74" />
    <path
   style="color:#000000;fill:#ffffff;-inkscape-stroke:none"
   d="m 308.89844,136.5 c -2.95555,0 -5.39844,2.44484 -5.39844,5.40039 v 26.40039 c 0,2.95555 2.44289,5.40039 5.39844,5.40039 h 37 c 2.98,0 5.52244,-2.28864 5.40039,-5.33984 v -26.46094 c 0,-2.95555 -2.44484,-5.40039 -5.40039,-5.40039 z m 0,2 h 37 c 1.84444,0 3.40039,1.55595 3.40039,3.40039 v 26.51953 l 0.002,0.0215 c 0.0779,1.94879 -1.38234,3.25977 -3.40234,3.25977 h -37 c -1.84444,0 -3.39844,-1.55595 -3.39844,-3.40039 v -26.40039 c 0,-1.84444 1.554,-3.40039 3.39844,-3.40039 z"
   id="path76" />
    <path
   style="color:#000000;fill:#ffffff;-inkscape-stroke:none"
   d="m 314.79883,141.60156 c -2.03333,0 -3.69922,1.66589 -3.69922,3.69922 V 165 c 0,2.03333 1.66589,3.70117 3.69922,3.70117 h 25.30078 c 1.98889,0 3.69922,-1.60117 3.69922,-3.70117 v -19.69922 c 0,-2.03333 -1.66589,-3.69922 -3.69922,-3.69922 z m 0,2 h 25.30078 c 0.96667,0 1.69922,0.73255 1.69922,1.69922 V 165 c 0,1.1 -0.68811,1.70117 -1.69922,1.70117 h -25.30078 c -0.96667,0 -1.69922,-0.73451 -1.69922,-1.70117 v -19.69922 c 0,-0.96667 0.73255,-1.69922 1.69922,-1.69922 z"
   id="path78" />
    <path
   style="color:#000000;fill:#ffffff;-inkscape-stroke:none"
   d="m 357.09961,136.5 c -2.95555,0 -5.40039,2.44484 -5.40039,5.40039 v 26.40039 c 0,2.95555 2.44484,5.40039 5.40039,5.40039 h 37 c 2.98,0 5.52049,-2.28864 5.39844,-5.33984 l 0.002,0.0391 v -26.5 c 0,-2.95555 -2.44484,-5.40039 -5.40039,-5.40039 z m 0,2 h 37 c 1.84444,0 3.40039,1.55595 3.40039,3.40039 v 26.51953 0.0215 c 0.078,1.94879 -1.38039,3.25977 -3.40039,3.25977 h -37 c -1.84444,-2e-5 -3.40039,-1.55597 -3.40039,-3.40041 v -26.40039 c 0,-1.84444 1.55595,-3.40039 3.40039,-3.40039 z"
   id="path80" />
    <path
   style="color:#000000;fill:#ffffff;-inkscape-stroke:none"
   d="m 363.09961,141.60156 c -2.03333,0 -3.70117,1.66589 -3.70117,3.69922 V 165 c 0,2.03333 1.66784,3.70117 3.70117,3.70117 h 25.29883 c 1.92381,0 3.70117,-1.55951 3.70117,-3.70117 v -19.69922 c 0,-2.03333 -1.66784,-3.69922 -3.70117,-3.69922 z m 0,2 h 25.29883 c 0.96666,0 1.70117,0.73255 1.70117,1.69922 V 165 c 0,1.05833 -0.82498,1.70117 -1.70117,1.70117 h -25.29883 c -0.96667,0 -1.70117,-0.73451 -1.70117,-1.70117 v -19.69922 c 0,-0.96667 0.7345,-1.69922 1.70117,-1.69922 z"
   id="path82" />
    <path
   style="color:#000000;fill:#ffffff;-inkscape-stroke:none"
   d="M 405.39844,136.5 C 402.44289,136.5 400,138.94484 400,141.90039 v 26.40039 c 0,2.95555 2.44289,5.40039 5.39844,5.40039 h 37 c 2.9,0 5.28094,-2.27347 5.40039,-5.25977 v -0.0215 -26.51953 c 0,-2.95555 -2.44484,-5.40039 -5.40039,-5.40039 z m 0,2 h 37 c 1.84444,0 3.40039,1.55595 3.40039,3.40039 v 26.4707 c -0.0851,2.00769 -1.50376,3.33008 -3.40039,3.33008 h -37 C 403.554,171.70117 402,170.14522 402,168.30078 v -26.40039 c 0,-1.84444 1.554,-3.40039 3.39844,-3.40039 z"
   id="path84" />
    <path
   style="color:#000000;fill:#ffffff;-inkscape-stroke:none"
   d="m 411.29883,141.60156 c -2.03333,0 -3.69922,1.66589 -3.69922,3.69922 V 165 c 0,2.03333 1.66589,3.70117 3.69922,3.70117 h 25.30078 c 1.98889,0 3.57057,-1.61149 3.69727,-3.63867 l 0.002,-0.0312 v -19.73052 c 0,-2.03333 -1.66589,-3.69922 -3.69922,-3.69922 z m 0,2 h 25.30078 c 0.96667,0 1.69922,0.73255 1.69922,1.69922 v 19.64258 c -0.0755,1.16771 -0.69032,1.75781 -1.69922,1.75781 h -25.30078 c -0.96667,0 -1.69922,-0.73451 -1.69922,-1.70117 v -19.69922 c 0,-0.96667 0.73255,-1.69922 1.69922,-1.69922 z"
   id="path86" />
    <path
   style="color:#000000;fill:#ffffff;-inkscape-stroke:none"
   d="m 453.59961,136.5 c -2.95555,0 -5.40039,2.44484 -5.40039,5.40039 v 26.40039 c 0,2.95555 2.44484,5.40039 5.40039,5.40039 h 37 c 2.98,0 5.52049,-2.28864 5.39844,-5.33984 l 0.002,0.0391 v -26.5 c 0,-2.95555 -2.44484,-5.40039 -5.40039,-5.40039 z m 0,2 h 37 c 1.84444,0 3.40039,1.55595 3.40039,3.40039 v 26.51953 0.0215 c 0.078,1.94879 -1.38039,3.25977 -3.40039,3.25977 h -37 c -1.84444,-2e-5 -3.40039,-1.55597 -3.40039,-3.40041 v -26.40039 c 0,-1.84444 1.55595,-3.40039 3.40039,-3.40039 z"
   id="path88" />
    <path
   style="color:#000000;fill:#ffffff;-inkscape-stroke:none"
   d="m 459.59961,141.60156 c -2.03333,0 -3.70117,1.66589 -3.70117,3.69922 V 165 c 0,2.03333 1.66784,3.70117 3.70117,3.70117 h 25.19922 c 1.92381,0 3.5389,-1.54364 3.79297,-3.57617 l 0.008,-0.0625 v -19.76172 c 0,-2.03333 -1.66784,-3.69922 -3.70117,-3.69922 z m 0,2 h 25.29883 c 0.96666,0 1.70117,0.73255 1.70117,1.69922 v 19.59375 c -0.15317,1.15337 -0.93025,1.80664 -1.80078,1.80664 h -25.19922 c -0.96667,0 -1.70117,-0.73451 -1.70117,-1.70117 v -19.69922 c 0,-0.96667 0.7345,-1.69922 1.70117,-1.69922 z"
   id="path90" />
    <path
   style="color:#000000;fill:#ffffff;-inkscape-stroke:none"
   d="m 212.59961,179.60156 c -2.95555,0 -5.40039,2.44289 -5.40039,5.39844 v 26.5 c 0,2.95555 2.44484,5.40039 5.40039,5.40039 h 37 c 2.92778,0 5.16166,-2.38503 5.39649,-5.32031 l 0.004,-0.0391 v -26.54101 c 0,-2.95555 -2.44484,-5.39844 -5.40039,-5.39844 z m 0,2 h 37 c 1.84444,0 3.40039,1.554 3.40039,3.39844 v 26.42578 c -0.16696,2.06203 -1.52966,3.47461 -3.40039,3.47461 h -37 c -1.84444,0 -3.40039,-1.55595 -3.40039,-3.40039 V 185 c 0,-1.84444 1.55595,-3.39844 3.40039,-3.39844 z"
   id="path92" />
    <path
   style="color:#000000;fill:#ffffff;-inkscape-stroke:none"
   d="m 218.39844,184.80078 c -2.03333,0 -3.69922,1.66589 -3.69922,3.69922 v 19.70117 c 0,2.03333 1.66589,3.69922 3.69922,3.69922 h 25.30078 c 2.07778,0 3.69922,-1.72779 3.69922,-3.69922 V 188.5 c 0,-2.03333 -1.66589,-3.69922 -3.69922,-3.69922 z m 0,2 h 25.30078 c 0.96667,0 1.69922,0.73255 1.69922,1.69922 v 19.70117 c 0,0.82857 -0.777,1.69922 -1.69922,1.69922 h -25.30078 c -0.96667,0 -1.69922,-0.73255 -1.69922,-1.69922 V 188.5 c 0,-0.96667 0.73255,-1.69922 1.69922,-1.69922 z"
   id="path94" />
    <path
   style="color:#000000;fill:#ffffff;-inkscape-stroke:none"
   d="m 260.69922,179.60156 c -2.95555,0 -5.40039,2.44289 -5.40039,5.39844 v 26.5 c 0,2.95555 2.44484,5.40039 5.40039,5.40039 h 37 c 2.92777,0 5.40039,-2.36706 5.40039,-5.40039 V 185 c 0,-2.95555 -2.44484,-5.39844 -5.40039,-5.39844 z m 0,2 h 37 c 1.84444,0 3.40039,1.554 3.40039,3.39844 v 26.5 c 0,1.96666 -1.52817,3.40039 -3.40039,3.40039 h -37 c -1.84444,0 -3.40039,-1.55595 -3.40039,-3.40039 V 185 c 0,-1.84444 1.55595,-3.39844 3.40039,-3.39844 z"
   id="path96" />
    <path
   style="color:#000000;fill:#ffffff;-inkscape-stroke:none"
   d="m 266.59961,184.80078 c -2.03333,0 -3.70117,1.66589 -3.70117,3.69922 v 19.70117 c 0,2.03333 1.66784,3.69922 3.70117,3.69922 H 292 c 1.96667,0 3.59961,-1.68017 3.59961,-3.69922 V 188.5 c 0,-2.03333 -1.66784,-3.69922 -3.70117,-3.69922 z m 0,2 h 25.29883 c 0.96666,0 1.70117,0.73255 1.70117,1.69922 v 19.70117 c 0,0.78095 -0.96628,1.69922 -1.59961,1.69922 h -25.40039 c -0.96667,0 -1.70117,-0.73255 -1.70117,-1.69922 V 188.5 c 0,-0.96667 0.7345,-1.69922 1.70117,-1.69922 z"
   id="path98" />
    <path
   style="color:#000000;fill:#ffffff;-inkscape-stroke:none"
   d="m 308.89844,179.60156 c -2.95555,0 -5.39844,2.44289 -5.39844,5.39844 v 26.5 c 0,2.95555 2.44289,5.40039 5.39844,5.40039 h 37 c 3.00666,0 5.52248,-2.38718 5.40039,-5.43945 V 185 c 0,-2.95555 -2.44484,-5.39844 -5.40039,-5.39844 z m 0,2 h 37 c 1.84444,0 3.40039,1.554 3.40039,3.39844 v 26.52148 l 0.002,0.0195 c 0.0779,1.94773 -1.40901,3.35938 -3.40234,3.35938 h -37 c -1.84444,0 -3.39844,-1.55595 -3.39844,-3.40039 v -26.5 c 0,-1.84444 1.554,-3.39844 3.39844,-3.39844 z"
   id="path100" />
    <path
   style="color:#000000;fill:#ffffff;-inkscape-stroke:none"
   d="m 314.79883,184.80078 c -2.03333,0 -3.69922,1.66589 -3.69922,3.69922 v 19.70117 c 0,2.03333 1.66589,3.69922 3.69922,3.69922 h 25.30078 c 2.07778,0 3.69922,-1.72779 3.69922,-3.69922 V 188.5 c 0,-2.03333 -1.66589,-3.69922 -3.69922,-3.69922 z m 0,2 h 25.30078 c 0.96667,0 1.69922,0.73255 1.69922,1.69922 v 19.70117 c 0,0.82857 -0.777,1.69922 -1.69922,1.69922 h -25.30078 c -0.96667,0 -1.69922,-0.73255 -1.69922,-1.69922 V 188.5 c 0,-0.96667 0.73255,-1.69922 1.69922,-1.69922 z"
   id="path102" />
    <path
   style="color:#000000;fill:#ffffff;-inkscape-stroke:none"
   d="m 357.09961,179.60156 c -2.95555,0 -5.40039,2.44289 -5.40039,5.39844 v 26.5 c 0,2.95555 2.44484,5.40039 5.40039,5.40039 h 37 c 3.00666,0 5.52053,-2.38718 5.39844,-5.43945 l 0.002,0.0391 v -26.5 c 0,-2.95555 -2.44484,-5.39844 -5.40039,-5.39844 z m 0,2 h 37 c 1.84444,0 3.40039,1.554 3.40039,3.39844 v 26.52148 0.0195 c 0.0779,1.94773 -1.40706,3.35938 -3.40039,3.35938 h -37 c -1.84444,0 -3.40039,-1.55595 -3.40039,-3.40039 v -26.5 c 0,-1.84444 1.55595,-3.39844 3.40039,-3.39844 z"
   id="path104" />
    <path
   style="color:#000000;fill:#ffffff;-inkscape-stroke:none"
   d="m 363.09961,184.80078 c -2.03333,0 -3.70117,1.66589 -3.70117,3.69922 v 19.70117 c 0,2.03333 1.66784,3.69922 3.70117,3.69922 h 25.29883 c 2.01904,0 3.70117,-1.68017 3.70117,-3.69922 V 188.5 c 0,-2.03333 -1.66784,-3.69922 -3.70117,-3.69922 z m 0,2 h 25.29883 c 0.96666,0 1.70117,0.73255 1.70117,1.69922 v 19.70117 c 0,0.78095 -0.92022,1.69922 -1.70117,1.69922 h -25.29883 c -0.96667,0 -1.70117,-0.73255 -1.70117,-1.69922 V 188.5 c 0,-0.96667 0.7345,-1.69922 1.70117,-1.69922 z"
   id="path106" />
    <path
   style="color:#000000;fill:#ffffff;-inkscape-stroke:none"
   d="M 405.39844,179.60156 C 402.44289,179.60156 400,182.04445 400,185 v 26.5 c 0,2.95555 2.44289,5.40039 5.39844,5.40039 h 37 c 2.92777,0 5.28098,-2.37414 5.40039,-5.35938 v -0.0195 -26.52148 c 0,-2.95555 -2.44484,-5.39844 -5.40039,-5.39844 z m 0,2 h 37 c 1.84444,0 3.40039,1.554 3.40039,3.39844 v 26.4707 c -0.0852,2.00916 -1.53145,3.42969 -3.40039,3.42969 h -37 C 403.554,214.90039 402,213.34444 402,211.5 V 185 c 0,-1.84444 1.554,-3.39844 3.39844,-3.39844 z"
   id="path108" />
    <path
   style="color:#000000;fill:#ffffff;-inkscape-stroke:none"
   d="m 411.29883,184.80078 c -2.03333,0 -3.69922,1.66589 -3.69922,3.69922 v 19.70117 c 0,2.03333 1.66589,3.69922 3.69922,3.69922 h 25.30078 c 2.07778,0 3.56327,-1.75296 3.69727,-3.62891 l 0.002,-0.0352 v -19.73633 c 0,-2.03333 -1.66589,-3.69922 -3.69922,-3.69922 z m 0,2 h 25.30078 c 0.96667,0 1.69922,0.73255 1.69922,1.69922 v 19.63867 c -0.0708,0.91982 -0.78061,1.76172 -1.69922,1.76172 h -25.30078 c -0.96667,0 -1.69922,-0.73255 -1.69922,-1.69922 V 188.5 c 0,-0.96667 0.73255,-1.69922 1.69922,-1.69922 z"
   id="path110" />
    <path
   style="color:#000000;fill:#ffffff;-inkscape-stroke:none"
   d="m 453.59961,179.60156 c -2.95555,0 -5.40039,2.44289 -5.40039,5.39844 v 26.5 c 0,2.95555 2.44484,5.40039 5.40039,5.40039 h 37 c 3.00666,0 5.52053,-2.38718 5.39844,-5.43945 l 0.002,0.0391 v -26.5 c 0,-2.95555 -2.44484,-5.39844 -5.40039,-5.39844 z m 0,2 h 37 c 1.84444,0 3.40039,1.554 3.40039,3.39844 v 26.52148 0.0195 c 0.0779,1.94773 -1.40706,3.35938 -3.40039,3.35938 h -37 c -1.84444,0 -3.40039,-1.55595 -3.40039,-3.40039 v -26.5 c 0,-1.84444 1.55595,-3.39844 3.40039,-3.39844 z"
   id="path112" />
    <path
   style="color:#000000;fill:#ffffff;-inkscape-stroke:none"
   d="m 323.79883,63.30078 c -3.57347,0 -5.66908,0.0522 -7.18945,0.77148 -0.76019,0.35966 -1.35641,0.97643 -1.6543,1.70704 -0.24865,0.60982 -0.27651,1.29792 -0.29688,2.02148 h -0.0586 V 68.20117 69 h 1.80078 l -0.80077,0.80078 h 4.79883 V 68.5 c 0,-0.19867 0.004,-0.20174 0.01,-0.28711 0.20259,-0.0398 1.10243,-0.11133 2.99024,-0.11133 1.36678,0 1.92897,0.0591 2.28711,0.10938 -0.2265,0.0384 -0.42532,0.0898 -1.08594,0.0898 h -4 v 4.80078 h 3.19922 c 1.2,0 1.83136,5.8e-4 2.1543,0.0117 0.24073,0.008 0.21274,0.0144 0.24609,0.0273 0.005,0.0309 0,-0.009 0,0.0605 0,0.275 -0.025,0.16863 0.0703,0.0801 0.077,-0.0715 -0.0514,-0.0166 -0.23828,0.0215 -0.26898,0.002 -0.70619,0.0252 -1.27344,0.0488 -0.59769,0.0249 -1.25621,0.0488 -1.55859,0.0488 -0.62436,0 -1.36625,-0.0241 -1.97266,-0.0488 -0.449,-0.0183 -0.6686,-0.0284 -0.9082,-0.0371 -0.008,-0.0746 -0.0195,-0.098 -0.0195,-0.41406 v -1.19922 h -5.69922 v 1 c 0,1.21389 0.0156,2.04845 0.15625,2.76758 0.13794,0.70501 0.48921,1.32831 0.97266,1.75586 0.55973,0.546 1.31738,0.89211 2.25781,1.06054 0.95591,0.17121 2.1423,0.21485 3.8125,0.21485 4.23174,0 6.25395,-0.17072 7.48828,-0.54102 l 0.0234,-0.008 0.0254,-0.008 c 0.82357,-0.29414 1.55486,-0.76852 1.99609,-1.50391 0.44124,-0.73539 0.56641,-1.60095 0.56641,-2.63867 0,-1.14545 -0.0277,-2.03496 -0.58789,-2.81055 -0.12617,-0.17469 -0.32293,-0.25149 -0.48047,-0.38086 0.0643,-0.0676 0.15471,-0.0997 0.21289,-0.17578 0.52571,-0.68747 0.65625,-1.54061 0.65625,-2.5332 0,-0.81667 -0.0758,-1.50999 -0.31445,-2.14063 -0.23862,-0.63063 -0.66288,-1.16659 -1.18555,-1.55859 l -0.0332,-0.0254 -0.0371,-0.0234 c -1.11149,-0.69405 -2.59429,-0.85108 -6.33032,-0.85108 z m 145.09961,0.0996 c -2.92873,0 -4.77773,0.0982 -6.15039,0.55078 -1.37266,0.45253 -2.22103,1.513 -2.51953,2.70703 -0.23329,0.93316 -0.22852,1.7418 -0.22852,3.8418 0,2.15775 0.0147,3.47254 0.17383,4.4707 0.15913,0.99816 0.58473,1.76586 1.16016,2.27735 0.59776,0.53134 1.38783,0.8703 2.40039,1.03906 1.01256,0.16876 2.29604,0.21289 4.16406,0.21289 3.91709,0 5.51031,-0.0346 6.65234,-0.46289 l 0.004,-0.002 0.004,-0.002 c 0.81839,-0.31476 1.53664,-0.90433 1.92969,-1.72461 0.39305,-0.82028 0.51172,-1.78535 0.51172,-3.00781 0,-0.92738 -0.0646,-1.72043 -0.29883,-2.44141 -0.22912,-0.70516 -0.67624,-1.3288 -1.28515,-1.75781 h 1.68359 v -1 c 0,-0.82083 -0.0179,-1.41952 -0.13477,-1.9707 -0.11691,-0.55118 -0.38996,-1.06965 -0.75781,-1.4375 -0.57677,-0.57678 -1.40176,-0.91583 -2.50976,-1.08203 -1.108,-0.1662 -2.58368,-0.21094 -4.79883,-0.21094 z m -194.5,0.0996 c -3.27564,0 -5.18723,0.026 -6.60352,0.88281 -0.70814,0.42838 -1.19961,1.13125 -1.42773,1.90039 -0.17586,0.59295 -0.18699,1.29567 -0.20703,2.01758 h -0.0606 v 0.59961 0.59961 h 2 v 0.48633 c -0.0316,0.0177 -0.0841,0.0126 -0.11523,0.0312 -0.70597,0.42358 -1.18353,1.11698 -1.4336,1.86718 -0.27378,0.82136 -0.35156,1.88389 -0.35156,4.01563 0,0.7 0.007,1.02852 0.11328,1.66406 l 0.13867,0.83594 h 17.14844 v -4.90039 h -4.07227 c 1.29051,-0.26663 2.364,-0.68845 2.97266,-1.5 l 0.0156,-0.0215 0.0156,-0.0234 c 0.54223,-0.81335 0.76758,-1.86619 0.76758,-3.45508 0,-1.03333 -0.0363,-1.81003 -0.25586,-2.51953 -0.21961,-0.7095 -0.69683,-1.31612 -1.28906,-1.71094 l -0.0117,-0.01 -0.0137,-0.008 c -0.48576,-0.30359 -1.13022,-0.53973 -2.14844,-0.63476 -1.01822,-0.095 -2.52535,-0.11719 -5.18164,-0.11719 z m 137.40039,0 v 8.90039 h -0.5 v 1.5 c 0,1.14524 0.1476,2.0892 0.64648,2.86523 0.49631,0.77204 1.33613,1.22756 2.24414,1.41211 1.39173,0.32013 2.80104,0.42383 6.70899,0.42383 3.0117,0 4.20311,-0.10841 5.35937,-0.56836 8.5e-4,-3.2e-4 10e-4,-0.002 0.002,-0.002 0.85894,-0.33116 1.57202,-1.00766 1.94726,-1.88867 0.37562,-0.88189 0.49219,-1.92553 0.49219,-3.24219 0,-0.92738 -0.0641,-1.72384 -0.30859,-2.45117 -0.24448,-0.72733 -0.71821,-1.37733 -1.375,-1.80078 -0.20611,-0.13289 -0.51398,-0.14944 -0.74414,-0.24805 h 1.72851 v -3.79883 -1.10156 z m -188.06836,0.20117 -5.75391,4.89648 3.51758,3.99805 3.9043,-3.28906 v 9.19336 h 5.90039 V 63.70115 h -1 z m 147.94531,0.0996 -8.27734,5.99023 v 6.41016 h 10.20117 v 2.40039 h 5.69922 v -2.40039 h 2.5 v -1 -3.80078 h -2.5 v -7.59958 z m -47.87695,1.5 c 3.61462,0 4.73126,0.23941 5.23047,0.53906 0.24512,0.19167 0.37946,0.34968 0.48437,0.62696 0.11139,0.29436 0.18555,0.75026 0.18555,1.43359 0,0.80741 -0.11986,1.15583 -0.24414,1.31836 -0.12429,0.16253 -0.38801,0.33431 -1.09766,0.51172 l 0.0449,1.95117 c 0.93086,0.18617 1.19726,0.35606 1.28711,0.48047 0.0899,0.12441 0.20899,0.58413 0.20899,1.63867 0,0.86228 -0.12249,1.34672 -0.28125,1.61133 -0.15549,0.25914 -0.3854,0.43231 -0.93555,0.63281 -0.77268,0.22871 -2.73223,0.45508 -6.88281,0.45508 -1.6298,0 -2.74185,-0.0548 -3.46094,-0.1836 -0.71909,-0.12879 -0.99447,-0.28548 -1.23242,-0.52343 l -0.0254,-0.0273 -0.0293,-0.0234 c -0.20112,-0.1724 -0.24773,-0.22734 -0.33203,-0.65821 -0.0489,-0.25003 -0.05,-0.89044 -0.0684,-1.38281 h 1.76953 c 0.0281,0.2128 -0.009,0.43137 0.0996,0.66211 0.23992,0.50983 0.86339,0.84865 1.31446,0.92383 l 0.082,0.0137 h 0.084 c -0.0667,0 0.52789,0.0236 1.14649,0.0488 0.61859,0.0252 1.37709,0.0508 2.05273,0.0508 0.39762,0 1.04027,-0.0257 1.64258,-0.0508 0.60231,-0.0251 1.21892,-0.0488 1.25781,-0.0488 h 0.0625 l 0.0606,-0.008 c 0.46615,-0.0583 0.96088,-0.13333 1.40625,-0.54688 0.44536,-0.41355 0.57031,-1.01992 0.57031,-1.54492 0,-0.41111 -0.0609,-0.82621 -0.29883,-1.21289 -0.23389,-0.38008 -0.65616,-0.64233 -1.04101,-0.74414 -0.18528,-0.0569 -0.46122,-0.11787 -0.83789,-0.13086 -0.40207,-0.0139 -1.02266,-0.0117 -2.22266,-0.0117 h -1.19922 v -0.80069 h 2 c 0.98509,0 1.65184,-0.001 2.32031,-0.30078 0.33424,-0.14983 0.67137,-0.43183 0.85547,-0.78125 0.18411,-0.34942 0.22461,-0.69999 0.22461,-1.01758 0,-0.3 -2.2e-4,-0.65482 -0.2168,-1.0625 -0.21657,-0.40768 -0.65858,-0.69708 -1.05273,-0.81836 -0.7883,-0.24255 -1.67193,-0.21875 -3.33203,-0.21875 -2,0 -2.93768,-0.0819 -3.83008,0.23047 -0.4462,0.15617 -0.92048,0.61543 -1.06055,1.05664 -0.0519,0.16363 -0.0258,0.27398 -0.041,0.41211 h -1.81641 c 0.0275,-0.51574 0.0593,-1.023 0.1582,-1.26563 0.13023,-0.31939 0.25394,-0.4659 0.65625,-0.65625 0.80466,-0.38068 2.8075,-0.57812 6.33402,-0.57812 z m 145.09961,0.0996 c 2.18485,0 3.60995,0.0556 4.50195,0.18945 0.892,0.1338 1.16936,0.29436 1.39258,0.51758 0.13215,0.13215 0.15676,0.16368 0.21484,0.4375 0.0208,0.0979 0.0193,0.39812 0.0332,0.55664 h -2.05664 c -0.0443,-0.0587 -0.0249,-0.15383 -0.0781,-0.20703 -0.15892,-0.15893 -0.62473,-0.4194 -0.95703,-0.46094 -0.3323,-0.0415 -0.65,-0.0332 -1.25,-0.0332 -0.71667,0 -1.48811,-0.0996 -2.19922,-0.0996 -0.96754,0 -1.71717,0.0252 -2.30664,0.0801 -0.58946,0.0548 -1.00289,0.10691 -1.44141,0.32617 -0.46832,0.23416 -0.80761,0.7617 -0.92382,1.22656 -0.11624,0.46487 -0.12893,0.93864 -0.12893,1.56642 v 2.94531 l 0.33789,-0.30469 c -0.21419,0.3868 -0.33789,0.82697 -0.33789,1.25977 0,0.48333 0.0367,0.95739 0.34375,1.41797 0.29686,0.44529 0.81441,0.66247 1.24805,0.74414 0.34467,0.0976 0.61603,0.11294 1.00195,0.125 0.4273,0.0134 0.95547,0.0137 1.60547,0.0137 1.25555,0 3.06745,-0.0996 3.30078,-0.0996 h 0.0703 l 0.0703,-0.0117 c 0.4754,-0.0679 1.03404,-0.26409 1.37891,-0.73437 0.34488,-0.47029 0.38086,-0.97175 0.38086,-1.45508 0,-0.35064 0.0142,-0.71146 -0.17383,-1.15625 -0.18804,-0.44479 -0.6574,-0.82448 -1.10351,-0.97656 -0.89222,-0.30417 -1.9155,-0.26758 -3.92383,-0.26758 -0.9,0 -1.47486,-0.002 -1.92578,0.0273 -0.37067,0.0239 -0.69674,0.12922 -1.00977,0.28125 l 0.40625,-0.36523 c 0.42882,-0.38594 0.63948,-0.52176 1.24219,-0.65235 0.60271,-0.13058 1.60672,-0.18945 3.28711,-0.18945 2.45333,0 3.82441,0.24655 4.36328,0.61328 0.26943,0.18337 0.40888,0.36707 0.53711,0.76172 0.12823,0.39465 0.20117,1.0016 0.20117,1.82422 0,1.07754 -0.1325,1.76286 -0.31445,2.14258 -0.18105,0.37784 -0.36552,0.53664 -0.8418,0.7207 -0.45917,0.17161 -2.06495,0.33594 -5.94531,0.33594 -1.83198,0 -3.04655,-0.0543 -3.83399,-0.18555 -0.78743,-0.13124 -1.09815,-0.29189 -1.40039,-0.56055 -0.32457,-0.2885 -0.39975,-0.37081 -0.51562,-1.09765 -0.11587,-0.72684 -0.14844,-2.01401 -0.14844,-4.15625 0,-2.1 0.003,-2.69058 0.16992,-3.35742 0.2015,-0.80597 0.30275,-0.9955 1.20508,-1.29297 0.90234,-0.29748 2.65218,-0.44922 5.52344,-0.44922 z m -194.5,0.0996 c 2.64371,0 4.13931,0.0294 4.99609,0.10937 0.8451,0.0789 0.95332,0.14576 1.25781,0.33594 0.29441,0.19783 0.37497,0.29242 0.47852,0.62695 0.10539,0.3405 0.16797,0.96107 0.16797,1.92774 0,1.39457 -0.17298,1.93241 -0.42578,2.31836 -0.34522,0.44225 -1.18743,0.89229 -3.1211,0.98437 h -0.004 -0.004 c -5.4075,0.30042 -6.10913,0.3645 -6.66211,0.54883 l -0.0273,0.01 -0.0273,0.0117 c -0.33537,0.13415 -0.7636,0.38465 -0.99609,0.8164 -0.23248,0.43176 -0.23242,0.81332 -0.23242,1.21094 v 1.09961 h 11.80078 v 0.90039 h -13.36914 c -0.004,-0.14463 -0.0312,-0.23804 -0.0312,-0.5 0,-2.06825 0.12183,-3.00417 0.24805,-3.38281 0.14993,-0.44979 0.27237,-0.60874 0.5664,-0.78516 0.29404,-0.17642 0.85412,-0.3444 1.78516,-0.4375 l -0.0996,0.0057 c 0.21667,0 0.28608,-0.0171 0.53906,-0.0391 0.25299,-0.022 0.60166,-0.0526 1.05469,-0.0898 0.90606,-0.0745 2.2221,-0.17396 3.96289,-0.27343 h 0.0156 l 0.0137,-0.002 c 1.16308,-0.10113 1.78251,-0.0906 2.46484,-0.47265 0.34117,-0.19106 0.65252,-0.59414 0.75586,-0.94336 0.10334,-0.34922 0.0937,-0.61224 0.0937,-0.87891 0,-0.44166 0.005,-0.82585 -0.21875,-1.27344 -0.22379,-0.44758 -0.67439,-0.72131 -1.00977,-0.85547 l -0.0273,-0.0117 -0.0273,-0.01 c -0.67951,-0.22624 -1.21683,-0.15014 -3.21683,-0.15014 -2.52666,0 -3.51431,0.0734 -4.14258,0.23047 l -0.0371,0.008 -0.0371,0.0137 c -0.49785,0.16595 -0.84842,0.68207 -0.95898,1.08008 -0.0583,0.20975 -0.0498,0.44924 -0.0664,0.66797 h -1.70312 c 0.0252,-0.55942 0.0424,-1.15109 0.13086,-1.44922 0.125,-0.42148 0.24056,-0.57369 0.54492,-0.75781 0.60871,-0.36824 2.344,-0.59375 5.56836,-0.59375 z m 139.40039,0 H 426 v 0.90039 h -8.30078 c -0.8,0 -1.29943,-0.0542 -1.2832,-0.0488 l -1.31641,-0.4375 v 5.38674 h -1.30078 z M 224.4668,65.70112 h 4.83203 v 10.79883 h -1.90039 v -9.5 h -2.36328 l -3.33203,2.80469 -0.88086,-1.00196 z m 147.85547,0.09966 h 4.97656 v 7.59961 h 2.5 v 0.80078 h -2.5 v 2.40039 h -1.69922 v -2.40039 h -10.20117 v -3.39062 z m 1.06445,0.90039 -6.58789,4.57617 v 2.02344 H 375.5 v -6.59961 h -1 z m 43.81641,1.31836 c -0.0112,0.002 -0.0258,0.0171 -0.0371,0.0195 -0.019,0.006 -0.0476,0.004 -0.0664,0.01 z m 54.72656,0.18164 h 1.46875 v 0.15625 c -0.42159,-0.0787 -0.96616,-0.12449 -1.46875,-0.15625 z m -196.83008,0.09961 c 1.93046,0 2.5203,0.0658 2.49414,0.0469 0.002,0.0314 0.006,0.0138 0.006,0.25391 0,0.0744 -10e-4,0.0495 -0.004,0.0996 -0.0699,0.005 -0.46714,0.11484 -1.48242,0.20313 -1.74021,0.0998 -3.07214,0.20041 -3.98437,0.27539 -0.14246,0.0117 -0.20758,0.0169 -0.33008,0.0273 v -0.30664 c 0,-0.25219 0.0173,-0.31955 0.0312,-0.44727 0.31939,-0.05222 1.05897,-0.15232 3.26953,-0.15232 z m 190.89258,0.13672 c -0.0927,0.0251 -0.14426,0.0913 -0.23242,0.12109 0.003,-0.0149 0.003,-0.0698 0.006,-0.082 0.0197,-0.004 0.15233,-0.0225 0.22656,-0.0391 z M 373.5,69.05664 v 2.24414 h -3.22851 z m 47.69922,0.64453 c 2.65679,0 4.146,0.24887 4.73242,0.62695 0.29321,0.18905 0.43198,0.36952 0.5625,0.75782 0.13052,0.38829 0.20508,0.99183 0.20508,1.81445 0,1.18333 -0.13265,1.99087 -0.33203,2.45898 -0.19938,0.46812 -0.38626,0.6394 -0.82617,0.8086 l -0.008,0.002 -0.006,0.002 c -0.83991,0.33597 -1.65113,0.42969 -4.6289,0.42969 -3.8829,0 -5.06832,-0.0969 -6.27344,-0.375 l -0.0156,-0.004 -0.0137,-0.002 c -0.58656,-0.11731 -0.79263,-0.26119 -0.96875,-0.53515 -0.12679,-0.19724 -0.18209,-0.75216 -0.23632,-1.28516 h 1.7832 c 0.0546,0.19491 0.0911,0.38019 0.31836,0.60742 0.46427,0.46427 0.9693,0.52849 1.60937,0.59961 0.64007,0.0711 1.48338,0.0937 2.69727,0.0937 1.4,0 2.19687,3.1e-4 2.75,-0.0273 0.55313,-0.0277 0.97762,-0.11967 1.29687,-0.2793 0.4087,-0.20435 0.78087,-0.668 0.91211,-1.10547 0.13124,-0.43746 0.14063,-0.85534 0.14063,-1.38867 0,-0.56667 -0.0207,-1.0488 -0.3125,-1.54492 -0.29184,-0.49612 -0.88008,-0.7681 -1.32227,-0.8418 -0.81295,-0.13549 -2.52413,-0.21284 -4.26335,-0.21284 -1.05359,0 -1.68681,0.0525 -2.28125,0.19531 l 0.0879,-0.0879 c 0.40572,-0.40572 0.33935,-0.33779 0.78906,-0.42773 l 0.0605,-0.0117 0.0586,-0.0195 c 0.11027,-0.0368 0.62085,-0.12845 1.24805,-0.17578 0.6272,-0.0473 1.40594,-0.0723 2.23633,-0.0723 z m 43.65234,1.60547 c -0.0191,0.01 -0.0243,0.0347 -0.043,0.0449 -0.0193,0.0118 -0.0454,0.005 -0.0645,0.0176 z M 419,72.30078 c 1.63275,0 3.43959,0.11642 3.86914,0.18164 6e-5,0.0243 0.0293,0.0758 0.0293,0.41797 0,0.41396 -0.0307,0.62139 -0.0508,0.7207 -0.049,0.023 -0.0438,0.0389 -0.39844,0.0566 -0.44687,0.0224 -1.25039,0.0234 -2.65039,0.0234 -1.18611,0 -1.99164,-0.0281 -2.47656,-0.082 -0.35523,-0.0395 -0.31653,-0.0422 -0.30469,-0.0195 -0.008,-0.063 -0.0176,-0.097 -0.0176,-0.19922 v -0.09959 h 0.19926 V 72.42187 C 417.44318,72.3686 417.97667,72.30078 419,72.30078 Z M 467.89844,73 c 1.93945,0 2.94462,0.0865 3.1914,0.15625 0.005,0.0487 0.01,0.0503 0.01,0.24414 0,0.23692 -0.007,0.21398 0.004,0.20312 -0.60659,0.005 -2.09381,0.0977 -3.20508,0.0977 -0.65,0 -1.17027,-7e-5 -1.54297,-0.0117 -0.3727,-0.0116 -0.64204,-0.0714 -0.53906,-0.0371 l -0.0762,-0.0254 -0.0352,-0.006 c 0.002,-0.009 -0.006,0.006 -0.006,-0.2207 0,-0.37778 0.005,-0.28357 0.0469,-0.30469 l 0.0566,-0.0293 0.0508,-0.0332 c -0.0633,0.0422 -0.076,0.0111 0.24804,-0.01 0.32408,-0.0209 0.89688,-0.0234 1.79688,-0.0234 z m 3.20508,0.60742 c 0.004,-0.005 -0.0146,0.0871 0.002,0.0645 0.0699,-0.0953 0.17773,-0.0926 -0.0469,-0.0605 z m -11.50391,111.19336 c -2.03333,0 -3.70117,1.66589 -3.70117,3.69922 v 19.70117 c 0,2.03333 1.66784,3.69922 3.70117,3.69922 h 25.19922 c 2.01904,0 3.52408,-1.69002 3.79101,-3.55859 l 0.01,-0.0703 v -19.77148 c 0,-2.03333 -1.66784,-3.69922 -3.70117,-3.69922 z m 0,2 h 25.29883 c 0.96666,0 1.70117,0.73255 1.70117,1.69922 v 19.57812 c -0.14353,0.92396 -1.02578,1.82227 -1.80078,1.82227 h -25.19922 c -0.96667,0 -1.70117,-0.73255 -1.70117,-1.69922 V 188.5 c 0,-0.96667 0.7345,-1.69922 1.70117,-1.69922 z"
   id="path114" />
    <path
   style="color:#000000;fill:#ffffff;-inkscape-stroke:none"
   d="m 278.39844,104.60156 c -2.65629,0 -4.29182,0.0201 -5.47656,0.15625 -1.17513,0.13507 -1.9906,0.45311 -2.625,0.95508 -0.68164,0.49203 -1.16827,1.28403 -1.39844,2.29101 -0.234,1.02374 -0.29883,2.32025 -0.29883,4.19727 0,1.87703 0.0661,3.15023 0.30078,4.16211 0.23464,1.01188 0.72264,1.79647 1.375,2.31836 l 0.0234,0.0195 0.0273,0.0195 c 0.6173,0.43211 1.40172,0.7353 2.57032,0.88477 1.1686,0.14947 2.78952,0.19531 5.40234,0.19531 2.8119,0 4.50564,-0.0452 5.7207,-0.20898 0.86462,-0.11658 1.35833,-0.4184 1.89844,-0.69922 l 1.8457,1.27734 0.52344,-1.00977 1.87891,-3.62109 -2.05078,-0.96484 c 0.0487,-0.68784 0.084,-1.38319 0.084,-2.27344 0,-1.92631 -0.0668,-3.22431 -0.30078,-4.24805 -0.23165,-1.01347 -0.71876,-1.78666 -1.36133,-2.30859 -0.61159,-0.53485 -1.44065,-0.85174 -2.625,-0.98633 -1.19661,-0.13598 -2.85738,-0.15625 -5.51367,-0.15625 z m 34.05859,0.0996 5.54883,14.79883 h 7.5625 l 1.75,-6.58008 1.82031,6.58008 h 7.44336 l 5.78125,-14.79883 h -6.26367 l -3.09375,8.48633 -2.56445,-8.48633 h -6.18555 l -2.55469,8.45898 -2.99609,-8.45898 H 318 Z m 55.14258,0 v 14.79883 h 16.19922 v -5.09961 h -0.59961 v -4.69922 h 0.59961 v -5 h -1 z m 47.29102,0 0.008,1.00781 0.10937,13.99219 h 5.89063 v -3.30078 h 4.5 c 0.8,0 1.27527,0.008 1.46875,0.0312 0.19348,0.0232 -0.007,-0.0556 0.0254,-0.0234 -0.007,-0.007 -0.005,-0.0571 0.0352,0.16211 0.0406,0.21926 0.0723,0.65389 0.0723,1.33008 v 1.70117 h 5.79883 v -2.20117 c 0,-1.53333 -0.005,-2.55565 -0.53906,-3.45899 -0.0974,-0.1649 -0.29007,-0.23069 -0.42578,-0.36718 0.35156,-0.36958 0.68923,-0.78049 0.83984,-1.31446 0.18335,-0.65005 0.22461,-1.37428 0.22461,-2.35937 0,-1.19348 -0.0613,-2.06094 -0.33203,-2.82227 -0.2707,-0.76132 -0.82282,-1.35619 -1.45313,-1.73437 l -0.0137,-0.01 -0.0156,-0.008 c -0.45,-0.25 -0.96297,-0.48637 -1.72852,-0.55859 -0.76555,-0.0722 -1.85664,-0.0664 -4.05664,-0.0664 z m 48.60937,0 v 5.29883 h 5.69922 v 9.60156 h 6.09961 v -9.60156 H 481 v -5.29883 h -1 z m -185.10156,1.90039 c 2.64371,0 4.28372,0.0286 5.28711,0.14258 1.00339,0.11402 1.26205,0.249 1.54883,0.50391 l 0.0195,0.0176 0.0215,0.0156 c 0.34764,0.27811 0.50783,0.49053 0.67383,1.2168 0.166,0.72626 0.25,1.92905 0.25,3.80273 0,1.2 -0.0185,2.33183 -0.0859,2.73633 l -0.125,0.74609 1.44531,0.67969 -0.39843,0.76953 -0.94922,-0.6582 -0.57422,0.41797 c -0.45383,0.33005 -0.74788,0.48101 -1.75781,0.61718 -1.00994,0.13617 -2.66699,0.19141 -5.45508,0.19141 -2.58718,0 -4.16704,-0.0542 -5.14844,-0.17969 -0.95972,-0.12275 -1.26897,-0.27056 -1.64062,-0.52734 -0.33292,-0.27003 -0.5002,-0.48339 -0.66211,-1.18164 -0.16536,-0.71312 -0.24805,-1.88797 -0.24805,-3.71094 0,-1.82297 0.084,-3.02569 0.25,-3.75195 0.166,-0.72626 0.32282,-0.91875 0.62305,-1.12891 l 0.0254,-0.0195 0.0254,-0.0195 c 0.36351,-0.29081 0.6367,-0.42329 1.62695,-0.53711 0.99026,-0.11382 2.60434,-0.14258 5.24805,-0.14258 z m 36.94531,0.0996 h 1.94922 l 3.40039,9.59963 h 2.14844 l 2.90039,-9.59961 h 1.16211 L 324.03125,117.5 h -4.63867 z m 12.33008,0 h 1.2832 l 2.90039,9.59963 h 2.14063 l 3.5,-9.59961 h 1.93554 L 335.2168,117.5 h -4.55664 z m 41.92578,0 h 12.19922 v 1 h -10.40039 v 3.90039 h 9.80078 v 0.79883 h -9.80078 v 4 h 10.40039 v 1.09961 h -12.19922 z m 47.30664,0 h 8.39258 c 2.2,0 3.30969,0.006 3.86914,0.0586 0.54662,0.0516 0.50659,0.0729 0.92383,0.30664 0.35879,0.2164 0.4621,0.32236 0.58984,0.68165 0.12931,0.36367 0.2168,1.04582 0.2168,2.15234 0,0.91491 -0.0568,1.49146 -0.14844,1.81641 -0.087,0.30837 -0.16928,0.40859 -0.38086,0.59375 -0.26825,0.20123 -0.26666,0.20789 -0.99414,0.29882 l 0.0254,1.98633 c 0.45321,0.0453 0.75748,0.11604 0.91211,0.18164 0.15463,0.0656 0.16846,0.0833 0.22656,0.18164 0.11621,0.19667 0.25977,0.97474 0.25977,2.44141 v 0.20117 h -1.81836 c -0.007,-0.5392 -0.0164,-1.01923 -0.0859,-1.39453 -0.0844,-0.45574 -0.28075,-0.90576 -0.58789,-1.21289 -0.26785,-0.26785 -0.76965,-0.49705 -1.20117,-0.54883 -0.43152,-0.0518 -0.90703,-0.0449 -1.70703,-0.0449 h -6.5 v 3.30078 h -1.90625 z m 48.59375,0 H 479 v 1.29883 h -5.70117 v 9.60156 h -2.09961 v -9.60156 H 465.5 Z m -187,1.09961 c -1.90877,0 -2.96214,0.01 -3.75391,0.15234 -0.39588,0.0713 -0.7575,0.18992 -1.07031,0.41016 -0.3128,0.22024 -0.514,0.51376 -0.64453,0.74219 l -0.0137,0.0234 -0.0137,0.0254 c -0.37889,0.75777 -0.4043,1.60442 -0.4043,3.24609 0,0.82083 0.0138,1.39265 0.13867,1.92773 0.12486,0.53509 0.45262,1.04686 0.83594,1.35352 0.37062,0.2965 0.93751,0.52516 1.66992,0.61133 0.73241,0.0862 1.74528,0.10742 3.45508,0.10742 1.9,0 2.64901,0.004 3.44141,-0.10938 l 3.01562,-0.43164 -5.86523,-3.14648 0.54101,-0.91211 4.56641,2.92969 v -1.83008 -0.40039 c 0,-0.96754 -0.0197,-1.65047 -0.11133,-2.23047 -0.0916,-0.58 -0.29061,-1.09812 -0.60742,-1.49414 -0.30666,-0.38332 -0.93883,-0.74628 -1.67578,-0.85156 -0.73689,-0.10523 -1.74433,-0.123 -3.50385,-0.123 z M 418.69922,108 v 5.21875 l 6.59961,-0.11719 c 1,0 1.48139,0.006 1.86523,-0.0293 0.19192,-0.0174 0.39424,-0.0467 0.61719,-0.15234 0.15336,-0.0726 0.21658,-0.14522 0.29297,-0.21484 0.34793,-0.24472 0.59853,-0.6422 0.70117,-1.01172 0.10545,-0.37961 0.12305,-0.7517 0.12305,-1.19336 0,-0.52407 -0.0444,-0.96233 -0.24414,-1.38672 -0.19972,-0.42439 -0.58895,-0.74662 -0.90821,-0.90625 l -0.0625,-0.0332 -0.0684,-0.0215 c -0.15,-0.05 -0.43913,-0.12359 -0.75586,-0.13867 -0.31674,-0.0151 -0.76016,-0.0137 -1.66016,-0.0137 z M 278.5,109.80078 c 0.10133,0 0.0912,0.006 0.1875,0.006 l -2.17969,3.68164 1.67188,0.89648 c -1.23311,-0.008 -2.24611,-0.0226 -2.70117,-0.0762 -0.54259,-0.0638 -0.52492,-0.0859 -0.6543,-0.18945 -0.11668,-0.0934 -0.0885,-0.0312 -0.13867,-0.24609 -0.0502,-0.21492 -0.0859,-0.69349 -0.0859,-1.47266 0,-1.55319 0.17132,-2.29699 0.19336,-2.34375 0.0127,-0.0189 0.039,-0.0613 0.0352,-0.0586 -0.007,0.005 0.0443,-0.0349 0.27343,-0.0762 0.45824,-0.0825 1.50722,-0.12109 3.39844,-0.12109 z m 2.01563,0.0644 c 0.33661,0.016 1.02247,0.011 1.20507,0.0371 0.48805,0.0697 0.3051,0.006 0.39844,0.12305 0.0832,0.10398 0.13299,0.18665 0.19141,0.55664 0.0136,0.0859 0.009,0.33197 0.0195,0.44531 z M 420.69922,110 h 4.5 c 0.9,0 1.35619,0.002 1.56445,0.0117 0.082,0.004 0.0728,0.0154 0.0859,0.0156 0.0101,0.0341 0.0488,0.1406 0.0488,0.47266 0,0.31686 -0.0257,0.48773 -0.0449,0.58203 -0.20442,0.0126 -0.63233,0.0195 -1.55469,0.0195 h -0.008 -0.01 l -4.58156,0.0821 z m 52.09961,37.5 c -4.16606,0 -6.50648,-0.0358 -8.14453,1.13672 -0.81903,0.58625 -1.29316,1.49876 -1.50977,2.52539 -0.21661,1.02662 -0.24609,2.22161 -0.24609,3.73828 0,2.11587 0.037,3.42251 0.26172,4.44141 0.22475,1.01889 0.78022,1.77961 1.45117,2.26757 l 0.008,0.006 0.006,0.004 c 0.64295,0.45007 1.4499,0.73499 2.56641,0.88476 1.11651,0.14978 2.59344,0.19727 4.80859,0.19727 3.38947,0 4.85578,0.008 6.30469,-0.32422 0.90051,-0.18201 1.69617,-0.57569 2.26953,-1.20117 0.57569,-0.62803 0.896,-1.44658 1.01562,-2.34375 l 0.01,-0.0645 v -0.0664 c 0,-0.48889 0.0996,-2.74833 0.0996,-4.09961 v -0.30097 -0.19922 h 0.19922 v -1 c 0,-1.97017 -0.23574,-3.10632 -0.93164,-3.94141 l -0.0117,-0.0137 -0.0117,-0.0156 c -0.62617,-0.69575 -1.55311,-1.1191 -2.80859,-1.33985 -1.25548,-0.22074 -2.91511,-0.29101 -5.33594,-0.29101 z m -56.69922,0.19336 V 162.5 H 422 v -4.39844 h 9.19922 v -4.90039 H 422 v -0.40039 h 9.69922 v -4.99219 l -0.99219,-0.008 z m -140.40234,0.10742 -7.86133,14.80078 h 6.78125 l 1.09961,-2.20117 h 7.23828 l 1,2.20117 h 6.79687 l -7.74804,-14.80078 z m 52.10156,0 c -3.09379,0 -4.70696,-0.0485 -5.83008,0.23047 -1.05643,0.23781 -1.98269,0.76458 -2.53711,1.63086 -0.55704,0.87038 -0.73242,1.94106 -0.73242,3.23828 0,1.45577 0.26267,2.66337 1.11719,3.5 h -1.2168 V 158 c 0,0.95555 0.068,1.69824 0.33203,2.36719 0.26406,0.66894 0.75583,1.19529 1.3125,1.5664 1.24135,0.82757 2.92175,0.9668 6.95508,0.9668 3.81276,0 5.40319,-0.0361 6.54492,-0.46289 0.87917,-0.31644 1.62102,-0.93018 2.02735,-1.75977 0.40776,-0.83251 0.52734,-1.8008 0.52734,-2.97656 0,-0.95555 -0.0694,-1.71764 -0.32617,-2.40234 -0.20455,-0.54547 -0.62506,-0.93668 -1.05078,-1.29883 h 0.97656 v -1.59961 c 0,-0.81667 -0.0721,-1.50848 -0.31641,-2.13672 -0.24207,-0.62247 -0.69159,-1.15056 -1.24023,-1.49805 -1.21184,-0.80332 -2.81632,-0.96484 -6.54297,-0.96484 z m 38.39258,0 0.008,1.00781 0.10742,13.89258 h 10.29297 c 2.1655,0 3.54476,-0.0443 4.60742,-0.22852 1.06165,-0.18401 1.85108,-0.58043 2.45899,-1.12695 0.6242,-0.55571 1.03247,-1.35405 1.24804,-2.3457 0.21579,-0.99263 0.28516,-2.21814 0.28516,-3.89844 0,-2.13174 -0.11604,-3.11178 -0.45117,-4.11719 -0.48846,-1.46537 -1.67559,-2.49477 -3.21485,-2.85351 -0.56746,-0.15351 -1.05914,-0.25105 -1.75195,-0.29102 -0.70446,-0.0406 -1.63125,-0.0391 -3.28125,-0.0391 z M 472.79883,149.5 c 2.37916,0 3.97072,0.0805 4.99023,0.25976 1.00768,0.17718 1.37347,0.40421 1.64649,0.70313 0.18592,0.22583 0.2132,1.03352 0.28711,1.63867 h -1.83985 c -0.008,-0.0282 -2.5e-4,-0.0633 -0.01,-0.0918 -0.11325,-0.33973 -0.3668,-0.61679 -0.4668,-0.71679 l -0.0508,-0.0488 -0.0566,-0.043 c -0.488,-0.366 -1.00749,-0.42002 -1.70313,-0.46094 -0.69563,-0.0409 -1.6457,-0.0391 -3.0957,-0.0391 -1.15,0 -2.02318,-0.002 -2.74023,0.0547 -0.71706,0.0571 -1.32508,0.15461 -1.86914,0.54492 -0.54407,0.39031 -0.81575,1.04175 -0.90821,1.63867 -0.0925,0.59693 -0.084,1.23555 -0.084,2.06055 0,1.11515 0.02,1.84096 0.11328,2.43164 0.0933,0.59068 0.33237,1.12925 0.67969,1.47656 0.30713,0.30714 0.75421,0.48266 1.1289,0.55078 0.3747,0.0681 0.74995,0.0877 1.28907,0.13672 l 0.0449,0.006 h 2.3457 c 2.3,0 3.41828,0.064 4.37305,-0.23437 0.47738,-0.14919 0.98964,-0.56596 1.17187,-1.03907 0.18224,-0.47311 0.1543,-0.84045 0.1543,-1.22656 v -1.40039 h -5.09961 v -0.59961 h 6.58789 c -0.0182,1.21475 -0.0791,2.80521 -0.084,3.47852 -0.0814,0.59336 -0.25687,0.97464 -0.50391,1.24414 -0.24931,0.27197 -0.60231,0.47671 -1.19727,0.5957 l -0.0137,0.004 -0.0137,0.002 c -1.14672,0.26463 -2.475,0.27539 -5.875,0.27539 -2.18485,0 -3.60948,-0.0545 -4.54297,-0.17969 -0.92795,-0.12448 -1.31845,-0.2877 -1.67383,-0.53515 -0.42302,-0.30789 -0.5205,-0.39883 -0.66992,-1.07618 -0.15024,-0.6811 -0.21484,-1.92564 -0.21484,-4.00976 0,-1.48333 0.0479,-2.58835 0.20312,-3.32422 0.15527,-0.73587 0.34833,-1.04875 0.7168,-1.3125 0.73695,-0.5275 2.84654,-0.76367 6.98047,-0.76367 z m -54.69922,0.20898 11.59961,0.084 v 1.00781 H 420 v 4.40039 h 9.19922 v 0.90039 H 420 V 160.5 h -1.90039 z m -141.19922,0.0918 h 4.89453 l 5.65235,10.80078 h -2.20508 l -1,-2.20117 h -0.64258 -9.11914 l -1.09961,2.20117 h -2.21875 z m 50.89844,0 c 3.66396,0 4.85822,0.24142 5.44531,0.63281 l 0.0117,0.008 0.0137,0.008 c 0.24438,0.15273 0.34158,0.2673 0.44727,0.53906 0.0757,0.19472 0.10256,0.61154 0.13086,1.01172 H 331.959 c -0.0105,-0.0316 -10e-4,-0.0636 -0.0137,-0.0957 -0.14145,-0.36778 -0.45606,-0.67905 -0.6914,-0.83594 -0.36335,-0.24223 -0.80448,-0.31425 -1.36914,-0.3418 -0.56467,-0.0275 -1.38516,-0.0254 -2.78516,-0.0254 -1.6601,0 -2.54209,-0.017 -3.30859,0.19922 -0.38326,0.1081 -0.82221,0.35789 -1.05664,0.75781 -0.23444,0.39992 -0.23438,0.76242 -0.23438,1.04297 0,0.38333 0.0863,0.82028 0.36914,1.17383 0.27553,0.34441 0.65311,0.49923 0.96289,0.58008 0.38434,0.12177 0.70251,0.14374 1.35938,0.18164 0.67512,0.0389 1.63878,0.0641 2.98437,0.0645 2.09377,0.0498 3.35793,0.10264 4.11719,0.20313 0.75926,0.10049 0.9297,0.18848 1.20703,0.39648 l 0.0215,0.0176 0.0234,0.0137 c 0.322,0.21466 0.43645,0.35462 0.55469,0.66992 0.11824,0.3153 0.19922,0.85478 0.19922,1.69922 0,1.02424 -0.13003,1.70517 -0.32227,2.09766 -0.19223,0.39248 -0.39729,0.5752 -0.91406,0.75976 l -0.008,0.004 -0.006,0.002 c -0.45796,0.17174 -2.06716,0.33594 -5.84961,0.33594 -3.96666,0 -5.28706,-0.25843 -5.8457,-0.63086 -0.34333,-0.22888 -0.45156,-0.35566 -0.5625,-0.63672 -0.0837,-0.21214 -0.11667,-0.7148 -0.14453,-1.23242 h 1.8789 c 0.0143,0.0518 6.4e-4,0.1092 0.0195,0.16211 0.13555,0.37954 0.46388,0.7142 0.69922,0.87109 l 0.0527,0.0332 0.0547,0.0293 c 0.25963,0.12982 0.67157,0.2667 1.23243,0.32422 0.56085,0.0575 1.3525,0.0801 2.71484,0.0801 2.1,0 3.08856,0.0504 3.92969,-0.16992 0.42056,-0.11015 0.93456,-0.45346 1.125,-0.90235 0.19044,-0.44889 0.14648,-0.75234 0.14648,-1.02734 0,-0.2625 -0.0186,-0.53217 -0.125,-0.83008 -0.1064,-0.29791 -0.33792,-0.61395 -0.62109,-0.80273 -0.56636,-0.37757 -1.09835,-0.36719 -1.75391,-0.36719 l -3.06055,-0.0996 -2.11718,-0.0996 h -0.99219 c -1.51971,-0.0475 -2.29186,-0.29451 -2.61133,-0.58203 -0.31906,-0.28816 -0.51912,-0.82692 -0.51912,-2.11978 0,-1.10278 0.17501,-1.78054 0.41797,-2.16016 0.24295,-0.37961 0.56153,-0.59982 1.29883,-0.76367 l 0.0137,-0.002 0.0117,-0.004 c 0.47662,-0.11915 2.25742,-0.16992 5.35742,-0.16992 z m 40.4082,0 H 376.5 c 1.65,0 2.57048,8e-4 3.16602,0.0352 0.59553,0.0343 0.84882,0.0886 1.36914,0.23046 l 0.0195,0.004 0.0195,0.004 c 1.05549,0.24357 1.46499,0.61176 1.77539,1.54297 0.26486,0.79459 0.34961,1.41612 0.34961,3.48437 0,1.6197 -0.081,2.74224 -0.24023,3.47461 -0.15921,0.73237 -0.35026,1.03313 -0.625,1.27734 l -0.002,0.002 -0.002,0.002 c -0.39186,0.35267 -0.65251,0.50568 -1.46484,0.64648 -0.81234,0.14081 -2.13114,0.19727 -4.26563,0.19727 h -8.30859 z m -89.91992,1 -3.52148,6.90039 h 8.9375 l -3.38086,-6.90039 h -0.62305 z M 370.09961,151 v 8.30078 H 376.5 c 1.76905,0 2.88592,0.0826 3.83789,-0.68359 0.47599,-0.38311 0.73337,-0.95908 0.8418,-1.51758 0.10843,-0.55851 0.11914,-1.1562 0.11914,-1.89844 0,-0.82083 -0.02,-1.43505 -0.11524,-1.97461 -0.0912,-0.51667 -0.30143,-1.00106 -0.64843,-1.37305 -0.33363,-0.39151 -0.91794,-0.70389 -1.50586,-0.78125 -0.60549,-0.0797 -1.3293,-0.0723 -2.5293,-0.0723 z M 472.5,152.70117 c 1.45,0 2.39915,0.001 2.97852,0.0352 0.47009,0.0276 0.50194,0.0631 0.5039,0.0527 0.007,0.0538 0.0176,0.0685 0.0176,0.3125 h -4.90039 v 4.5 h -0.84961 c -0.52858,-0.0478 -0.90312,-0.0786 -1.07226,-0.10937 -0.17531,-0.0319 -0.0794,-0.005 -0.0723,0.002 -0.0527,-0.0527 -0.0624,-0.0157 -0.11914,-0.375 -0.0567,-0.35932 -0.0879,-1.03429 -0.0879,-2.11914 0,-0.825 0.009,-1.42271 0.0605,-1.75391 0.0513,-0.3312 0.0667,-0.29812 0.0976,-0.32031 0.0309,-0.0222 0.28659,-0.12981 0.86328,-0.17578 0.57669,-0.046 1.43008,-0.0488 2.58008,-0.0488 z m -144.04492,0.0117 c 0.43379,0.003 1.10387,5.9e-4 1.33203,0.0117 0.38234,0.0186 0.33165,0.023 0.29688,0.006 0.001,0.009 0.001,0.0469 0.004,0.0664 -0.56074,-0.0234 -0.8716,-0.0651 -1.63281,-0.084 z m 43.64453,0.28711 H 376.5 c 1.2,0 1.92502,0.009 2.26953,0.0547 0.34452,0.0453 0.17502,-0.021 0.24805,0.0703 l 0.0352,0.043 0.0391,0.0391 c 0.0232,0.0232 0.0683,0.0568 0.12304,0.36719 0.0548,0.31044 0.084,0.84778 0.084,1.62695 0,0.70776 -0.0248,1.22296 -0.082,1.51758 -0.0572,0.29462 -0.0963,0.31045 -0.13281,0.33984 -0.073,0.0588 -0.85304,0.24219 -2.58399,0.24219 h -4.40039 z m -92.81055,0.23633 1.20703,2.46484 h -2.46484 z m 55.36524,0.43164 0.0449,0.0332 c -0.006,-0.005 -0.0191,-0.005 -0.0254,-0.01 -0.008,-0.006 -0.0111,-0.0178 -0.0195,-0.0234 z m -10.24414,3.93359 h 0.36523 l 2.08399,0.0977 3.12304,0.10156 h 0.0176 c 0.19141,0 0.11632,-0.002 0.22656,0.0117 -0.40356,0.0449 -1.131,0.0879 -2.92773,0.0879 -1.33765,0 -2.09562,-0.0278 -2.50977,-0.0703 -0.28161,-0.0289 -0.29977,-0.0554 -0.36914,-0.084 -0.003,-0.0242 -0.005,-0.0864 -0.01,-0.14453 z m 52.18945,33 c -3.3699,0 -5.42381,0.0824 -6.88867,0.44141 -1.46074,0.35802 -2.39955,1.23189 -2.83008,2.26953 -0.40291,0.94233 -0.48242,2.06869 -0.48242,4.98828 0,1.69617 -0.0134,2.68011 0.11523,3.45703 0.22311,1.44146 0.82839,2.54948 1.85547,3.19141 l 0.0254,0.0156 0.0254,0.0137 c 1.37586,0.75047 3.15303,0.92188 8.17969,0.92188 2.92299,0 4.40043,-0.0852 5.58789,-0.44141 l 0.0137,-0.004 0.0137,-0.006 c 0.88914,-0.29638 1.66838,-0.81361 2.11719,-1.60352 0.44882,-0.78991 0.56641,-1.71634 0.56641,-2.8457 v -1.19897 -1.09961 h -5.84766 l -0.0508,0.94727 c -0.0232,0.44153 -0.0542,0.70107 -0.0762,0.79882 -0.14458,0.0505 -1.209,0.1543 -3.32422,0.1543 -1.025,0 -1.78959,-0.004 -2.29883,-0.0488 -0.50923,-0.0448 -0.71121,-0.14342 -0.73047,-0.1582 -0.0192,-0.0148 -0.0502,-0.005 -0.10351,-0.3418 -0.0534,-0.33717 -0.0684,-0.932 -0.0684,-1.75195 0,-0.98333 0.0346,-1.62637 0.0977,-1.96875 0.0631,-0.34238 0.0738,-0.30705 0.12696,-0.34961 l 0.0449,-0.0352 0.0391,-0.0391 c -0.12498,0.12499 -0.0837,0.0255 0.3711,-0.0273 0.45481,-0.0529 1.23576,-0.0801 2.42187,-0.0801 1.23667,0 2.11714,0.0264 2.67383,0.082 0.52935,0.0529 0.68161,0.21328 0.49219,0.0234 0.009,0.0451 0.0332,0.17266 0.0332,0.49414 v 1 h 5.90039 v -1.59951 c 0,-1.11349 -0.0937,-1.98868 -0.41602,-2.75195 -0.32169,-0.76192 -0.91529,-1.34633 -1.60351,-1.72266 -1.17974,-0.65424 -2.56374,-0.72461 -5.98047,-0.72461 z M 270.5,190.7949 v 5.2168 l 6.99219,-0.0762 -7.19336,5.25781 v 4.50781 h 17.90039 v -5.21094 l -7.56836,0.0781 7.26758,-5.25586 v -4.4043 l -0.99219,-0.008 z m 45.33984,0.10547 7.05079,7.2832 -7.63282,7.51758 h 8.48243 l 3.75976,-4.11719 3.75781,4.11719 h 8.35547 l -7.50586,-7.50586 7.17969,-7.29492 h -8.23633 l -3.54101,3.98437 -3.45313,-3.98437 h -0.45703 z m 97.25196,0 7.28515,14.80078 h 7.24414 l 7.28516,-14.80078 h -6.53711 l -4.375,9.13086 -4.4707,-9.13086 h -0.625 z m 50.00781,0 v 1 13.90041 h 10.19922 c 2.20757,0 3.36742,-0.024 4.11133,-0.0781 0.74391,-0.0541 1.13103,-0.16494 1.46289,-0.25976 l 0.0351,-0.01 0.0332,-0.0117 c 0.75579,-0.27483 1.4009,-0.83891 1.76562,-1.56835 0.36478,-0.72926 0.49225,-1.5795 0.49225,-2.57209 0,-1.12936 -0.10783,-2.04658 -0.64648,-2.80469 -0.14581,-0.2052 -0.36833,-0.31467 -0.5586,-0.46484 0.0625,-0.0829 0.16112,-0.1334 0.21289,-0.22461 0.40722,-0.71748 0.49219,-1.53179 0.49219,-2.50586 0,-1.25145 -0.17634,-2.29497 -0.85156,-3.08594 -0.67357,-0.78904 -1.68446,-1.09541 -2.84571,-1.20703 -0.27783,-0.0455 -0.52275,-0.0812 -0.97461,-0.0937 -0.48082,-0.0134 -1.22851,-0.0137 -2.72851,-0.0137 z m -86.5,1.70117 c 3.38039,0 4.39406,0.12843 5.01367,0.47266 l 0.004,0.002 0.004,0.002 c 0.41021,0.22375 0.56603,0.38828 0.71875,0.75 0.12173,0.28831 0.17468,0.89966 0.20704,1.57227 h -1.95118 c -0.007,-0.0301 -10e-4,-0.0695 -0.01,-0.0996 -0.0949,-0.33223 -0.32154,-0.64772 -0.48047,-0.80664 -0.54284,-0.54284 -1.03912,-0.53223 -1.73242,-0.60156 -0.69331,-0.0693 -1.60972,-0.0918 -2.87305,-0.0918 -1.21389,0 -2.03411,0.0216 -2.6543,0.0937 -0.59923,0.0697 -1.08386,0.19024 -1.5,0.58008 -0.42028,0.36004 -0.71036,0.90787 -0.81836,1.49414 -0.11192,0.60762 -0.1289,1.31536 -0.1289,2.33203 0,0.83005 -0.002,1.4735 0.0918,2.06445 0.0935,0.59096 0.34503,1.21947 0.86328,1.61719 0.51824,0.39772 1.10884,0.50419 1.77148,0.5625 0.66264,0.0583 1.44961,0.0566 2.47461,0.0566 2.15,0 3.18649,0.10519 4.17188,-0.32031 0.49269,-0.21275 0.91781,-0.72847 1.05859,-1.19141 0.041,-0.13468 0.0275,-0.26138 0.0488,-0.38867 h 2.01953 V 201 c 0,0.97063 -0.13046,1.54733 -0.30664,1.85742 -0.17416,0.30653 -0.40299,0.4867 -0.99805,0.6875 -0.81327,0.24199 -2.12725,0.35547 -4.99414,0.35547 -4.93994,0 -6.36662,-0.22636 -7.19336,-0.66992 -0.54724,-0.34845 -0.74351,-0.64725 -0.91797,-1.78125 l -0.002,-0.006 v -0.008 c -0.0704,-0.42228 -0.0879,-1.43477 -0.0879,-3.13477 0,-2.87701 0.12445,-3.75002 0.32031,-4.20703 l 0.002,-0.006 0.004,-0.006 c 0.27115,-0.6585 0.37776,-0.83169 1.46289,-1.09766 1.08514,-0.26596 3.08201,-0.38281 6.41211,-0.38281 z M 272.5,192.80662 l 13.39844,0.0879 v 1.39453 l -11.5332,8.34375 11.83398,-0.12305 v 1.19141 h -13.90039 v -1.49219 l 11.4082,-8.34179 -11.20703,0.12109 z m 48.05859,0.0937 h 2.58399 l 4.34766,5.01562 4.45898,-5.01562 h 2.5625 l -5.2207,5.30664 5.49414,5.49414 h -2.64453 l -4.64063,-5.08398 -4.64258,5.08398 h -2.71875 l 5.56836,-5.48437 z m 95.7461,0 h 1.9707 l 4.69922,9.59961 h 2.05469 l 4.59961,-9.59961 h 2.06445 l -5.31641,10.80078 h -4.75586 z m 48.79492,0 h 8.19922 c 1.5,0 2.2527,7e-5 2.67187,0.0117 0.41918,0.0116 0.46368,0.0242 0.76368,0.0742 l 0.0351,0.006 0.0352,0.004 c 0.93516,0.0891 1.3217,0.2816 1.52148,0.51563 0.19979,0.23389 0.37306,0.74038 0.37306,1.78893 0,0.82593 -0.11464,1.31201 -0.23242,1.51953 -0.11778,0.20752 -0.21123,0.29499 -0.69336,0.40625 l 0.0527,1.95899 c 0.73544,0.12978 0.95936,0.27685 1.09571,0.46875 0.13634,0.19189 0.27734,0.67585 0.27734,1.64648 0,0.80741 -0.12097,1.35718 -0.28125,1.67773 -0.157,0.31401 -0.31681,0.44718 -0.64648,0.57032 -0.32284,0.0938 -0.40814,0.13607 -1.00782,0.17968 -0.63108,0.0459 -1.77242,0.0723 -3.96484,0.0723 h -8.19922 z m 1.79883,0.90039 v 4 h 5.5 v 0.0996 h 1 c 0.7,0 1.18146,0.003 1.58789,-0.0273 0.34924,-0.0259 0.68364,-0.12272 1.00391,-0.29102 0.36463,-0.15757 0.70808,-0.47127 0.84375,-0.79688 0.14746,-0.35391 0.16601,-0.6677 0.16601,-0.98437 0,-0.38333 -0.0761,-0.79095 -0.31836,-1.1543 -0.24223,-0.36334 -0.64884,-0.61924 -1.03906,-0.71679 l -0.12109,-0.0293 h -0.12305 c -0.2,0 -0.2437,0.002 -1.94141,-0.0977 l -0.0293,-0.002 z m 7.5,2.05078 c 0.13038,0.006 0.4375,0.0219 0.5039,0.0234 -0.0379,0.006 0.0192,-0.002 -0.0645,0.004 -0.082,0.006 -0.31909,0.003 -0.43945,0.006 z m -7.5,2.44922 v 4.09961 h 5.5 v 0.20117 h 1 c 1.15,0 1.71202,0.003 2.12695,-0.0293 0.34873,-0.0268 0.66294,-0.1782 0.86524,-0.28515 0.33921,-0.13934 0.67232,-0.39175 0.85156,-0.72461 0.19479,-0.36175 0.25781,-0.751 0.25781,-1.16211 0,-0.41111 -0.0609,-0.82425 -0.29883,-1.21094 -0.23796,-0.38668 -0.66837,-0.66221 -1.05859,-0.75976 l -0.12109,-0.0293 h -0.12305 c -0.2,0 -0.15508,3.9e-4 -2.45508,-0.0996 h -0.0215 z m 2,2 h 4.45703 c 1.93963,0.0843 1.96728,0.0817 2.14453,0.084 6.3e-4,0.0154 0,-0.003 0,0.0156 0,0.12483 -0.008,0.11873 -0.0137,0.14062 l -0.041,0.0274 c -0.15,0.1 0.16281,-0.008 -0.0723,0.01 -0.11603,0.009 -0.66143,0.008 -0.97461,0.0117 v -0.18945 h -5.5 z"
   id="path116" />
    <path
   style="color:#000000;fill:#ffffff;-inkscape-stroke:none"
   d="m 434.98633,56.64062 -2.25781,2.88086 c -0.0132,-0.10665 -0.005,-0.26432 -0.0254,-0.36328 -0.077,-0.36555 -0.27825,-0.74699 -0.4961,-0.96484 -0.39462,-0.39463 -0.71254,-0.42421 -1.03906,-0.50196 -0.32652,-0.0777 -0.67074,-0.12874 -1.02734,-0.17968 l -0.0703,-0.0117 h -0.0703 c -0.31667,0 -0.63259,0.0308 -0.91992,0.0762 -0.28733,0.0454 -0.48961,0.0612 -0.82813,0.23047 -0.28944,0.14472 -0.75944,0.56636 -0.90625,1.03125 -0.1468,0.46489 -0.14648,0.88686 -0.14648,1.5625 0,0.65 -0.0107,1.05179 0.0469,1.45508 0.0576,0.40329 0.35721,0.94972 0.69922,1.17773 l 0.11133,0.0742 0.12695,0.043 c 0.3609,0.1203 0.91579,0.18405 1.53711,0.21094 l -0.84179,1.07422 1.63672,2.61718 2.02148,-2.63867 c 0.007,0.0784 -0.002,0.20811 0.01,0.28516 0.0607,0.40475 0.41925,0.94747 0.69726,1.13281 l 0.0527,0.0352 0.0547,0.0273 c 0.33852,0.16926 0.54803,0.18718 0.84961,0.23242 0.30159,0.0452 0.64249,0.0742 0.99805,0.0742 0.69176,0 1.247,-0.1096 1.66992,-0.24609 0.17617,-0.0459 0.4296,-0.1254 0.6582,-0.34766 0.23828,-0.23165 0.35208,-0.53417 0.4004,-0.76367 0.0966,-0.45899 0.0723,-0.84297 0.0723,-1.54297 0,-0.65 0.012,-1.02029 -0.0508,-1.41797 -0.0628,-0.39768 -0.41731,-0.92794 -0.69531,-1.11328 l -0.0527,-0.0352 -0.0547,-0.0273 c -0.33852,-0.16926 -0.52564,-0.1813 -0.80079,-0.23633 -0.21552,-0.0431 -0.45557,-0.0835 -0.6914,-0.12305 l 0.71875,-0.93554 -0.2793,-0.5586 z M 287.69922,57.5 c -0.48704,0 -0.85647,0.0149 -1.24414,0.1289 -0.38767,0.11403 -0.78872,0.41746 -0.98828,0.7168 l -0.0742,0.11133 -0.043,0.12695 c -0.1,0.3 -0.25,0.83347 -0.25,1.7168 V 61 62.20117 h 1.79883 L 286.0996,63 h 2.79883 0.20117 2.79883 v -2.59961 h 0.10156 V 57.5 h -1.5 c -0.48704,0 -0.85842,0.0149 -1.24609,0.1289 -0.0214,0.006 -0.0333,0.0317 -0.0547,0.0391 v -0.16797 z m -48.30078,0.10156 V 62 h -0.19922 v 4 h 4.19922 v -4 h -0.0996 v -4.39844 h -1 z m 94.21875,0 -0.20117,1.59961 h -1.32227 l -0.21875,2.19922 h -0.0801 l -0.30078,3 H 332.666 L 332.46678,66 h 3.19922 0.11523 3.10156 l 0.19922,-1.59961 h 1.32227 l 0.2207,-2.19922 h 0.0801 l 0.29883,-3 h -1.27149 l 0.19922,-1.59961 h -3.09961 -0.11523 -1.01758 z m 49.98242,0 v 0.57031 c -0.555,0.0301 -1.12119,0.0476 -1.51758,0.17969 l -0.0664,0.0234 -0.0645,0.0312 c -0.43913,0.21957 -0.87171,0.59889 -1.12109,1.09765 -0.24938,0.49877 -0.33008,1.05636 -0.33008,1.69727 0,0.432 0.14216,0.81077 0.25977,1.19922 h -0.25977 v 1.40048 c 0,0.44167 0.0179,0.84152 0.14063,1.25586 0.12276,0.41433 0.40353,0.8514 0.79296,1.11914 0.60927,0.41887 1.31736,0.48072 2.16602,0.49805 v 0.72656 h 3 v -0.69922 c 0.88333,0 1.70579,-0.0799 2.3418,-0.69141 0.63601,-0.61155 0.75781,-1.46016 0.75781,-2.4082 0,-0.51713 -0.0881,-0.98008 -0.24023,-1.40039 h 0.041 v -1.30078 l -0.004,0.0664 c 0.0296,-0.44344 0.0232,-0.86672 -0.125,-1.30274 -0.14818,-0.43602 -0.48756,-0.85358 -0.89257,-1.08984 -0.56721,-0.33088 -1.22629,-0.40742 -1.97852,-0.4375 v -0.53516 h -1 z m 97.5,0 c -1,0 -1.36985,-0.13343 -2.04687,0.20508 -0.37889,0.18944 -0.73423,0.54948 -0.91797,0.96289 -0.18374,0.41341 -0.23633,0.8487 -0.23633,1.33203 0,0.35991 0.0467,0.67068 0.13281,0.99805 -0.0816,0.0803 -0.21349,0.0532 -0.27734,0.15429 -0.35021,0.55449 -0.35547,1.09054 -0.35547,1.7461 0,0.53333 0.0203,0.94681 0.11523,1.3457 0.095,0.39889 0.31028,0.79465 0.57813,1.0625 0.30713,0.30714 0.7656,0.50649 1.23242,0.58985 0.46682,0.0834 1.00317,0.10351 1.77539,0.10351 0.91852,0 1.53112,-0.008 2.11133,-0.1582 0.18608,-0.048 0.27101,-0.24829 0.44336,-0.35156 l 1.51953,1.0625 1.25195,-3.25782 -1.22656,-0.78125 V 61.90039 61.5 h -0.5 v -1.09961 c 0,-0.48704 -0.0182,-0.87642 -0.12109,-1.26758 -0.0952,-0.3617 -0.3488,-0.73521 -0.66993,-0.98437 -0.27909,-0.23931 -0.70521,-0.45635 -1.10156,-0.50391 -0.43152,-0.0518 -0.90703,-0.043 -1.70703,-0.043 z m -49.30664,1.85156 0.10547,0.44727 c 0,-0.0312 -0.0363,-0.0454 -0.0391,-0.0762 -0.0305,-0.13278 0.004,-0.22943 -0.0664,-0.3711 z m -142.69336,2.74805 h 0.59766 l -0.59766,0.59766 z m -67.59961,45 c -0.79524,0 -1.67289,0.15727 -2.30859,0.79297 -0.51785,0.51785 -0.92198,1.15873 -1.07227,1.91016 -0.11006,0.55028 -0.2207,1.31393 -0.2207,2.19726 0,1.31111 0.17041,2.45483 0.76953,3.35352 0.61335,0.92002 1.68047,1.3457 2.73047,1.3457 0.86666,0 1.71355,-0.23866 2.33398,-0.82031 0.56645,-0.53105 0.82623,-1.30696 0.9668,-2.15039 v 2.9707 h 3.40039 v -6.19922 h 0.69922 v 6.19922 h 3.32031 l -0.0254,-1.21094 0.54688,1.16406 0.58203,0.043 2.37695,0.1836 v -4.64258 l 0.19336,0.38672 0.82227,-0.27539 c 0.35128,-0.1171 0.85304,-0.3528 1.13867,-0.8711 0.075,-0.0799 0.14911,-0.23229 0.24609,-0.3789 v 5.60153 h 6.29883 v -3.23438 l -1.0332,0.0352 -1.86719,0.0644 v -6.26562 h -2.89844 -0.5 -2.40039 -0.5 -2.80078 v 1.00976 l -0.45117,-1.00976 h -2.04883 -1 -5.79883 v 0.33984 c -0.46142,-0.24431 -0.89477,-0.53906 -1.5,-0.53906 z m 5.19922,2.19922 h 1.09961 v 0.0996 h -1.09961 z m 1.25,0.0508 0.0488,0.0488 h -0.0977 z m 2.84961,0.50391 0.31641,0.70703 -0.31641,0.0723 z m 7.44922,0.86132 -0.0547,0.13086 c 0.0103,-0.0207 0.004,-0.0477 0.0137,-0.0684 0.0129,-0.0332 0.0294,-0.0275 0.041,-0.0625 z m -13.54883,0.39256 v 1.50977 l -3.01758,-0.86328 z m -3.34375,0.004 0.0859,0.69336 0.0625,-0.0137 -0.0996,1.11718 c -0.008,0.094 -0.021,0.0765 -0.0332,0.1543 l -0.002,-0.006 c -0.0619,-0.24782 -0.0703,-0.5582 -0.0703,-1.1582 0,-0.27519 0.0289,-0.53368 0.0566,-0.78711 z m 12.24414,2.03711 v 0.83594 l -0.35742,-0.75977 z m -14.20117,0.15039 c 0,0.0145 0.0154,0.0264 0.0156,0.041 0.0128,0.0661 -0.001,0.13356 0.0156,0.20118 z m 8.13867,34.875 -6.94531,6.69336 6.76367,7.14062 0.72656,-0.67773 2.23242,-2.08399 -2.20507,-2.34765 h 12.99023 v -4 H 228.4375 l 1.875,-1.75 z m -0.0762,2.84961 0.0234,0.0273 -1.61133,1.50391 z m -4.01953,3.875 h 0.0469 l 3.99414,4.2539 -0.041,0.0391 -4.03516,-4.25977 z m -2.24219,38.5 c -0.63333,0 -1.18685,0.17643 -1.64648,0.40625 -0.4,0.2 -0.95861,0.5676 -1.24805,1.14648 -0.22981,0.45963 -0.40625,0.98217 -0.40625,1.54883 0,0.53522 0.10354,1.20771 0.62891,1.79883 0.0696,0.0976 0.17681,0.1054 0.25195,0.18555 l -1.30273,0.0918 0.13085,1.04688 c 0.11145,0.89159 0.28975,1.78779 0.98438,2.48242 0.6357,0.6357 1.54115,0.89453 2.50781,0.89453 0.63333,0 1.22684,-0.14662 1.7461,-0.40625 l 0.0566,-0.0273 0.0508,-0.0352 c 0.17002,-0.11335 0.41159,-0.43797 0.64648,-0.67187 v 1.03906 H 227 v -3.29883 h 0.0996 v 3.29883 h 1 2 0.40039 0.59961 1.90039 0.5 2.89844 v -3.19932 H 238.5 v -3.09961 h 0.89844 V 203 h 3.40039 v -6.29883 H 244.5 V 193.5 H 239 237.69922 233.5 233 h -2.5 -0.40039 -3 v 3 H 227 v -3 h -3.40039 v 1 0.043 c -0.0205,-0.0234 -0.0295,-0.0575 -0.0508,-0.0801 -0.58929,-0.73996 -1.47993,-0.96289 -2.34961,-0.96289 z m 2.05469,3.86914 0.15234,0.125 c -0.0404,-0.0404 -0.0673,-0.0391 -0.10547,-0.0723 -0.0241,-0.0172 -0.0216,-0.0359 -0.0469,-0.0527 z m -2.07617,2.7793 0.006,0.002 c -0.0162,-0.005 -0.22633,-0.1775 0.10937,0.1582 z"
   id="path118" />
    <path
   style="color:#000000;fill:#ffffff;-inkscape-stroke:none"
   d="m 50.798829,127.20117 c 0,29.70105 24.099737,53.79883 53.800781,53.79883 29.70105,0 53.79883,-24.09778 53.79883,-53.79883 0,-29.70104 -24.09778,-53.80078 -53.79883,-53.80078 -29.701044,0 -53.800781,24.09974 -53.800781,53.80078 z m 2,0 c 0,-28.62016 23.180616,-51.80078 51.800781,-51.80078 28.62017,0 51.79883,23.18062 51.79883,51.80078 0,28.62017 -23.17866,51.79883 -51.79883,51.79883 -28.620165,0 -51.800781,-23.17866 -51.800781,-51.79883 z"
   id="circle120" />
    <path
   style="color:#000000;fill:#ffffff;-inkscape-stroke:none"
   d="m 54.298829,127.20117 c 0,27.76805 22.532732,50.29883 50.300781,50.29883 27.76805,0 50.29883,-22.53078 50.29883,-50.29883 0,-27.76805 -22.53078,-50.30078 -50.29883,-50.30078 -27.768049,0 -50.300781,22.53273 -50.300781,50.30078 z m 2,0 c 0,-26.68717 21.613611,-48.30078 48.300781,-48.30078 26.68717,0 48.29883,21.61361 48.29883,48.30078 0,26.68717 -21.61166,48.29883 -48.29883,48.29883 -26.68717,0 -48.300781,-21.61166 -48.300781,-48.29883 z"
   id="circle122" />
    <g
   style="opacity:0.1;fill:none;stroke:#ffffff;stroke-width:2"
   id="g126"
   transform="rotate(-90,133.55,132.55078)">
        <path
   style="color:#000000;fill:#ffffff;stroke:none;-inkscape-stroke:none"
   d="m 123.19922,60.900391 v 1 1.798828 h -2.89844 v 0.101562 h -2.90039 v 1 1.898438 h -0.0996 -2.90039 v 1 V 69.5 H 111.5 v 1 1.900391 h -2.80078 v 1 1.798828 h -0.0996 -2.90039 v 1 1.90039 h -2.89844 v 1 1.800782 h -2.900389 v 1 1.90039 h -0.09961 v 0.09961 h -2.90039 v 1 V 87.5 H 97 v 0.300781 1.798828 0.800782 0.199218 V 92.5 h -0.09961 v 1 2.599609 H 97 v 0.201172 1.898438 0.701172 0.298828 1.900391 h -0.09961 v 1 2.59961 H 97 v 0.20117 1.90039 0.69922 0.30078 1.89844 0.70117 0.29883 1.80078 0.80078 0.19922 1.90039 h -0.09961 v 1 V 119 h 3 v 0.19922 1.90039 0.70117 0.29883 2.59961 h 2.90039 v 0.20117 1.90039 0.69922 0.30078 2.59961 h 2.89844 v 0.29883 2.60156 h 2.90039 V 133.5 136.09961 H 111.5 v 0.0996 0.20117 V 139 h 2.90039 0.0996 v 0.30078 2.59961 h 2.90039 0.69922 2.09961 v 0.19922 2.59961 h 3 0.60156 2.29883 0.70117 2.19922 0.69922 2.20117 v 0.10156 0.19922 2.59961 h 3 0.59961 2.40039 0.59961 2.30078 0.69922 2.90039 v -2.90039 h 2.19922 0.59961 2.30078 0.69922 2.20117 0.69922 2.20117 0.69922 2.90039 v -2.79883 H 159 h 2.19922 0.70117 2.90039 V 139.09961 139 h 2.89844 v -2.90039 H 170.5 v -2.79883 h 0.0996 v -2.90039 H 173.5 v -2.80078 h 3 V 124 h -0.0996 v -2.19922 h 2.90039 V 119 v -0.80078 -2.09961 h 0.0996 2.90039 V 112.5 h -0.10156 v -2.09961 h 0.10156 V 107.5 v -0.69922 -2.90039 h -0.10156 v -2.09961 h 0.10156 v -2.900389 -0.701172 -2.898438 h -0.10156 V 92.5 h -2.79883 v -2.900391 h -0.0996 V 87.5 86.699219 83.900391 H 176.5 V 81 h -0.0996 V 78.099609 H 173.5 v -2.90039 h -2.90039 v -2.898438 h -2.90039 V 69.5 h -2.89844 -0.10156 V 66.699219 H 161.80078 161.09961 159 v -2.898438 h -3 v -2.90039 h -2.90039 -0.69922 -2.20117 -0.69922 -2.19922 -0.70117 -2.90039 V 61 h -2.29883 V 60.90039 H 138.5 137.80078 135.5 134.90039 132.59961 131.90039 129.69922 129 h -2.19922 -0.70117 z"
   id="path124" />
    </g>
    <path
   style="color:#000000;fill:#ffffff;-inkscape-stroke:none"
   d="m 104.59961,76.90039 c -27.741638,0 -50.300781,22.55914 -50.300781,50.30078 0,27.74164 22.559143,50.29883 50.300781,50.29883 27.74164,0 50.29883,-22.55719 50.29883,-50.29883 v -0.002 -0.002 C 154.79646,99.46008 132.34125,76.90039 104.59961,76.90039 Z m 0,2 c 26.65831,0 48.2008,21.64193 48.29883,48.30469 -0.002,26.65649 -21.64184,48.29492 -48.29883,48.29492 -26.658306,0 -48.300781,-21.64052 -48.300781,-48.29883 0,-26.65831 21.642475,-48.30078 48.300781,-48.30078 z m 0,5.70117 c -23.440136,0 -42.600204,19.0551 -42.499999,42.5 0,6.6e-4 0,10e-4 0,0.002 2e-6,6.7e-4 -3e-6,0.001 0,0.002 0.0022,23.43964 19.059863,42.49609 42.499999,42.49609 23.44146,0 42.5,-19.05854 42.5,-42.5 0,-23.44146 -19.05854,-42.5 -42.5,-42.5 z m 0,2 c 22.35849,0 40.5,18.14151 40.5,40.5 0,22.35849 -18.14151,40.5 -40.5,40.5 -22.358492,0 -40.499999,-18.14151 -40.499999,-40.5 v -0.004 -0.002 C 64.002001,104.74233 82.241118,86.60142 104.59961,86.60142 Z"
   id="path128" />
    <path
   style="color:#000000;fill:#ffffff;-inkscape-stroke:none"
   d="m 84.599611,127.20117 c 0,11.03384 8.96616,20 19.999999,20 11.03384,0 20,-8.96616 20,-20 0,-11.03384 -8.96616,-20 -20,-20 -11.033839,0 -19.999999,8.96616 -19.999999,20 z m 2,0 c 0,-9.95296 8.047039,-18 17.999999,-18 9.95296,0 18,8.04704 18,18 0,9.95296 -8.04704,18 -18,18 -9.95296,0 -17.999999,-8.04704 -17.999999,-18 z"
   id="circle130" />
</svg>
