<?xml version="1.0" encoding="UTF-8" standalone="no"?>
<!-- Svg Vector Icons : http://www.onlinewebfonts.com/icon -->

<svg
   version="1.1"
   x="0px"
   y="0px"
   viewBox="0 0 235.93585 219.00642"
   enable-background="new 0 0 256 256"
   xml:space="preserve"
   id="svg18"
   sodipodi:docname="engine_controller.svg"
   width="235.93585"
   height="219.00642"
   inkscape:version="1.1.2 (0a00cf5339, 2022-02-04)"
   xmlns:inkscape="http://www.inkscape.org/namespaces/inkscape"
   xmlns:sodipodi="http://sodipodi.sourceforge.net/DTD/sodipodi-0.dtd"
   xmlns="http://www.w3.org/2000/svg"
   xmlns:svg="http://www.w3.org/2000/svg"><defs
   id="defs22" /><sodipodi:namedview
   id="namedview20"
   pagecolor="#ffffff"
   bordercolor="#666666"
   borderopacity="1.0"
   inkscape:pageshadow="2"
   inkscape:pageopacity="0.0"
   inkscape:pagecheckerboard="true"
   showgrid="false"
   fit-margin-top="0"
   fit-margin-left="0"
   fit-margin-right="0"
   fit-margin-bottom="0"
   inkscape:zoom="3.2109375"
   inkscape:cx="117.87835"
   inkscape:cy="109.6253"
   inkscape:window-width="2560"
   inkscape:window-height="1440"
   inkscape:window-x="1920"
   inkscape:window-y="0"
   inkscape:window-maximized="1"
   inkscape:current-layer="g16" />
<metadata
   id="metadata2"> Svg Vector Icons : http://www.onlinewebfonts.com/icon </metadata>
<g
   id="g16"
   style="fill:#ffffff"
   transform="translate(-9.973987,-18.503425)"><g
     id="g14"
     style="fill:#ffffff;stroke:#000000"><g
       id="g12"
       style="fill:#ffffff"><path
         style="color:#000000;fill:#ffffff;stroke:none;-inkscape-stroke:none"
         d="m 42.685547,18.037109 c -8.257524,0.03125 -13.906355,0.08543 -17.607422,0.16211 -1.850533,0.03834 -3.214102,0.08212 -4.177734,0.132812 -0.961601,0.05059 -1.477777,0.08813 -1.830079,0.185547 -4.415975,1.158532 -8.215256,5.268202 -9.1601557,9.677734 v 0.0098 l -0.00195,0.0078 c -0.05898,0.33422 -0.081109,0.943731 -0.1152343,2.082031 C 9.758846,31.433243 9.726977,33.03878 9.697269,35.13088 9.6378487,39.315059 9.5882853,45.44599 9.5507813,53.671875 9.4757732,70.123645 9.4499992,94.950222 9.5,129.30078 l 0.099609,98.71289 1.039063,2.17774 c 0.559171,1.34201 1.965169,3.12464 3.222656,4.27734 0.463522,0.42899 0.734063,0.80982 1.125,1.19531 0.391276,0.38583 0.903914,0.73858 1.722656,1.00391 1.637484,0.53066 4.539361,0.82544 11.050782,1.01953 13.02284,0.38818 40.441103,0.3125 100.140624,0.3125 60.39939,0 87.83978,0.10051 100.75391,-0.33789 6.45706,-0.2192 9.27427,-0.55193 10.87109,-1.17188 0.79841,-0.30997 1.29112,-0.72245 1.66992,-1.16015 0.37881,-0.43771 0.65702,-0.87577 1.15821,-1.37696 0.50461,-0.50461 0.94624,-0.79987 1.38085,-1.18554 0.43462,-0.38567 0.84175,-0.87251 1.15235,-1.64258 0.62119,-1.54014 0.95651,-4.19235 1.17578,-10.18164 0.43855,-11.97858 0.33789,-37.29401 0.33789,-92.94336 0,-54.99949 0.0758,-80.290704 -0.3125,-92.365234 -0.19414,-6.037266 -0.48934,-8.763432 -1.02148,-10.337891 -0.26607,-0.78723 -0.61551,-1.292645 -0.99805,-1.6875 -0.38191,-0.394199 -0.76748,-0.680172 -1.19922,-1.146484 l -0.002,-0.002 c -1.15275,-1.257013 -2.93405,-2.663761 -4.27539,-3.222656 l -2.17774,-1.039062 -107.61328,-0.09961 c -42.650255,-0.1 -69.600186,-0.125009 -86.115233,-0.0625 z m 0.0039,1 c 16.50992,-0.06249 43.459716,-0.0375 86.109373,0.0625 l 107.38867,0.09961 2.00781,0.957031 0.0117,0.0059 c 1.05799,0.440828 2.87653,1.834053 3.92383,2.976563 h 0.002 c 0.49239,0.532307 0.90755,0.846809 1.2168,1.166015 0.30925,0.319207 0.54341,0.643481 0.76953,1.3125 0.45223,1.338039 0.7754,4.036106 0.96875,10.048829 0.38671,12.025445 0.3125,37.333584 0.3125,92.333983 0,55.65054 0.0986,80.98486 -0.33789,92.90625 -0.21823,5.9607 -0.59033,8.57139 -1.10352,9.84375 -0.25659,0.63618 -0.52211,0.94426 -0.88867,1.26953 -0.36655,0.32527 -0.85344,0.65618 -1.42383,1.22656 -0.57381,0.57382 -0.89247,1.06622 -1.20703,1.42969 -0.31455,0.36347 -0.61286,0.62364 -1.27539,0.88086 -1.32505,0.51443 -4.11254,0.88717 -10.54297,1.10547 C 215.76025,237.0987 188.30088,237 127.90039,237 c -59.700358,0 -87.134194,0.0743 -100.111328,-0.3125 -6.488566,-0.19341 -9.371471,-0.517 -10.771484,-0.9707 -0.700006,-0.22686 -1.019792,-0.45771 -1.330078,-0.76368 -0.310286,-0.30596 -0.612699,-0.72514 -1.148437,-1.2207 l -0.002,-0.002 c -1.14251,-1.0473 -2.533781,-2.86389 -2.974609,-3.92188 l -0.0059,-0.0117 -0.957032,-2.00976 L 10.5,129.29883 c -0.05,-34.349374 -0.02421,-59.172899 0.05078,-75.621096 0.0375,-8.224098 0.08715,-14.354911 0.146485,-18.533203 0.02967,-2.089146 0.06186,-3.691427 0.0957,-4.820312 0.03371,-1.124346 0.08338,-1.834248 0.09961,-1.929688 0.858682,-3.985552 4.454702,-7.868065 8.433594,-8.910156 l 0.0039,-0.002 h 0.0039 c 0.09766,-0.02713 0.674572,-0.10265 1.619141,-0.152344 0.944569,-0.04969 2.301709,-0.09264 4.146484,-0.130859 3.689551,-0.07644 9.334884,-0.130865 17.589844,-0.16211 z m -21.984375,7.263672 -1.458984,1.345703 -1.345703,1.458985 v 98.794921 98.79492 l 1.345703,1.45899 1.458984,1.3457 H 128.09961 235.41992 L 236.6543,228.1543 238,226.91992 V 127.90039 28.880859 l -1.3457,-1.234375 -1.34766,-1.345703 H 128 Z m 0.390625,1 H 128 234.89258 l 1.0625,1.060547 0.008,0.0078 L 237,29.320312 v 98.580078 98.58008 l -1.05469,0.96484 -0.96484,1.05469 H 128.09961 21.095703 l -1.142578,-1.05469 -1.052734,-1.14062 v -98.4043 -98.404296 l 1.052734,-1.142578 z"
         id="path4" /><path
         style="color:#000000;fill:#ffffff;stroke:none;-inkscape-stroke:none"
         d="m 128.59961,34.800781 c -39.100175,0 -63.724318,0.02381 -78.689454,0.111328 -7.482568,0.04376 -12.5504,0.103744 -15.808594,0.183594 -1.629096,0.03992 -2.804961,0.08534 -3.611328,0.136719 -0.403183,0.02569 -0.713228,0.05139 -0.949218,0.08203 -0.230424,0.02991 -0.351582,0.02649 -0.570313,0.144531 -0.754539,0.379644 -1.532465,1.157571 -1.912109,1.91211 -0.110462,0.204862 -0.112445,0.327696 -0.142578,0.544922 -0.03089,0.222708 -0.05833,0.511016 -0.08398,0.884765 -0.0513,0.7475 -0.09561,1.831524 -0.134765,3.328125 -0.07831,2.993202 -0.134367,7.635225 -0.171875,14.480469 C 26.450374,70.299864 26.45,92.799741 26.5,128.5 l 0.09961,89.9082 1.246094,1.2461 1.246094,1.24609 98.808592,0.0996 98.70703,0.0996 1.54688,-1.54688 1.54687,-1.54492 -0.10156,-90.30859 -0.0996,-90.306642 -1.24609,-1.246094 -1.2461,-1.246093 z m 0,1 97.99219,0.09961 0.95507,0.953125 0.95313,0.953125 0.0996,89.894529 0.0996,89.89258 -1.25195,1.25195 -1.25391,1.25391 L 127.90039,220 29.507812,219.90039 28.552734,218.94727 27.599609,217.99219 27.5,128.5 c -0.05,-35.69967 -0.04959,-58.200282 0.02539,-71.884766 0.03749,-6.842242 0.09394,-11.48227 0.171875,-14.460937 0.03897,-1.489334 0.08334,-2.564298 0.132812,-3.285156 0.02474,-0.36043 0.05072,-0.632914 0.07617,-0.816407 0.02545,-0.183492 0.08791,-0.310969 0.03125,-0.208984 l 0.0039,-0.0098 0.0059,-0.0098 c 0.220495,-0.440991 1.035572,-1.256068 1.476562,-1.476563 l 0.0098,-0.0059 0.0098,-0.0039 c -0.116588,0.06477 0.02813,-0.0055 0.226563,-0.03125 0.198433,-0.02576 0.494004,-0.05127 0.884765,-0.07617 0.781523,-0.04979 1.949803,-0.095 3.572266,-0.134766 3.244925,-0.07953 8.309146,-0.139851 15.789063,-0.183594 14.959834,-0.08748 39.583846,-0.111328 78.683594,-0.111328 z m -93.798829,7.398438 v 84.701171 84.69922 H 128 221.09961 v -84.69922 l 0.10156,-84.701171 H 128 Z m 1,1 H 128 220.19922 l -0.0996,83.701171 v 83.69922 H 128 35.800781 v -83.69922 z"
         id="path6" /><path
         style="color:#000000;fill:#ffffff;stroke:none;-inkscape-stroke:none"
         d="m 64.900391,68.5 c -1.251514,0 -2.194696,0.595909 -3.316407,1.513672 l -0.02734,0.02148 -0.02344,0.02539 c -0.607945,0.658607 -1.006531,1.12282 -1.224609,1.683594 -0.218079,0.560774 -0.207171,1.144462 -0.103516,1.921875 l 0.002,0.01563 0.002,0.01563 c 0.175981,0.879905 0.725713,1.79123 2.417969,3.685546 1.692256,1.894317 4.568346,4.820299 9.519531,9.771485 l 11.14639,11.146479 -10.947266,10.945309 c -3.052895,3.0529 -5.929357,6.00526 -8.083984,8.28516 -1.077314,1.13995 -1.972957,2.11236 -2.623047,2.84766 -0.325045,0.36764 -0.588418,0.67461 -0.785156,0.91992 -0.196738,0.24531 -0.317984,0.37933 -0.414063,0.60351 v 0.004 l -0.002,0.006 c -1.221474,2.99816 0.940274,6.1875 4.162109,6.1875 0.436458,0 0.920769,-0.0679 1.490235,-0.37109 0.569466,-0.30325 1.248322,-0.81772 2.279297,-1.72852 2.061948,-1.8216 5.533563,-5.24372 12.083984,-11.74414 v -0.002 c 6.750444,-6.70044 10.196466,-10.145 11.984375,-12.17383 0.893954,-1.01442 1.381009,-1.67629 1.65625,-2.251955 0.275241,-0.575668 0.306641,-1.063455 0.306641,-1.527344 0,-0.463888 -0.0314,-0.953628 -0.306641,-1.529297 C 93.818509,96.195816 93.331454,95.533948 92.4375,94.519531 90.64988,92.491027 87.203363,89.045962 80.455078,82.347656 74.30408,76.14665 70.855039,72.722387 68.746094,70.828125 67.691621,69.880994 66.974539,69.31357 66.392578,68.966797 65.810617,68.620024 65.327771,68.5 64.900391,68.5 Z m 0,1 c 0.272618,0 0.503056,0.0417 0.980468,0.326172 0.477413,0.284476 1.164241,0.818227 2.197266,1.746094 2.06605,1.855733 5.517026,5.281487 11.666016,11.480468 h 0.002 l 0.002,0.002 c 6.749542,6.699546 10.202365,10.153837 11.939453,12.125 0.868544,0.985582 1.301023,1.599107 1.503906,2.023438 0.202883,0.424331 0.208985,0.661546 0.208985,1.097656 0,0.436111 -0.0061,0.671373 -0.208985,1.095703 -0.202883,0.424331 -0.635362,1.037859 -1.503906,2.023439 -1.737088,1.97117 -5.189911,5.42546 -11.939453,12.125 -6.549566,6.49957 -10.027968,9.92668 -12.041016,11.70508 -1.006524,0.8892 -1.647982,1.36145 -2.08789,1.5957 -0.439909,0.23426 -0.65599,0.25391 -1.019532,0.25391 -2.576763,0 -4.211494,-2.4061 -3.236328,-4.80664 -0.01766,0.0429 0.09184,-0.14562 0.269531,-0.36719 0.179825,-0.22422 0.435203,-0.52429 0.753907,-0.88476 0.637408,-0.72096 1.528878,-1.68722 2.601562,-2.82227 2.145369,-2.2701 5.017354,-5.21853 8.064453,-8.26562 L 84.707031,98.300781 72.853516,86.447266 c -4.948805,-4.948805 -7.822729,-7.87479 -9.480469,-9.730469 -1.65289,-1.85025 -2.052455,-2.586096 -2.177735,-3.205078 -0.09175,-0.701233 -0.08501,-1.072125 0.04492,-1.40625 0.129239,-0.332329 0.43733,-0.721562 1.00586,-1.339844 C 63.304007,69.902921 63.96205,69.5 64.900391,69.5 Z"
         id="path8" /><path
         style="color:#000000;fill:#ffffff;stroke:none;-inkscape-stroke:none"
         d="m 104.88086,119.19922 -1.23438,1.34766 c -0.85892,0.85892 -1.3457,1.84123 -1.3457,3.15234 0,1.31111 0.47146,2.39226 1.36914,3.17773 l -0.0391,-0.0391 1.25,1.36133 h 18.81836 18.82031 l 1.23438,-1.3457 c 0.85892,-0.85893 1.3457,-1.84319 1.3457,-3.1543 0,-1.31111 -0.47342,-2.39031 -1.37109,-3.17578 l 0.041,0.0391 -1.25,-1.36328 h -18.82031 z m 0.43945,1 h 18.37891 18.38086 l 0.9707,1.05859 0.0195,0.0176 c 0.70232,0.61453 1.0293,1.33494 1.0293,2.42383 0,1.08889 -0.31166,1.70619 -1.05274,2.44726 l -0.008,0.008 -0.95898,1.04492 H 123.699 105.32009 l -0.9707,-1.05664 -0.0195,-0.0195 c -0.70232,-0.61453 -1.0293,-1.33494 -1.0293,-2.42383 0,-1.08889 0.31166,-1.70424 1.05274,-2.44531 l 0.008,-0.008 0.008,-0.008 z"
         id="path10" /></g></g></g>
</svg>
