<?xml version="1.0" encoding="UTF-8" standalone="no"?>
<svg
   viewBox="0 0 119.46094 54.5"
   version="1.1"
   id="svg54"
   sodipodi:docname="gx4000_controller.svg"
   inkscape:version="1.1.2 (0a00cf5339, 2022-02-04)"
   width="119.46094"
   height="54.5"
   xmlns:inkscape="http://www.inkscape.org/namespaces/inkscape"
   xmlns:sodipodi="http://sodipodi.sourceforge.net/DTD/sodipodi-0.dtd"
   xmlns="http://www.w3.org/2000/svg"
   xmlns:svg="http://www.w3.org/2000/svg">
  <defs
     id="defs58" />
  <sodipodi:namedview
     id="namedview56"
     pagecolor="#ffffff"
     bordercolor="#666666"
     borderopacity="1.0"
     inkscape:pageshadow="2"
     inkscape:pageopacity="0.0"
     inkscape:pagecheckerboard="true"
     showgrid="false"
     inkscape:zoom="13.878337"
     inkscape:cx="76.91844"
     inkscape:cy="19.310672"
     inkscape:window-width="2560"
     inkscape:window-height="1440"
     inkscape:window-x="1920"
     inkscape:window-y="0"
     inkscape:window-maximized="1"
     inkscape:current-layer="svg54"
     fit-margin-top="0"
     fit-margin-left="0"
     fit-margin-right="0"
     fit-margin-bottom="0" />
  <path
     style="color:#000000;fill:#ffffff;-inkscape-stroke:none"
     d="M 5.103516,0 C 2.29058,0 0,2.290579 0,5.103515 V 41.582031 C 0,48.710219 5.789781,54.5 12.917969,54.5 h 93.625001 c 7.12723,0 12.91589,-5.78986 12.91797,-12.917969 V 5.103515 C 119.46094,2.290579 117.17036,0 114.35742,0 H 67.892578 c -0.691485,0 -1.32979,0.137333 -1.851562,0.388672 -0.361956,0.174354 -0.557734,0.495626 -0.773438,0.796875 l -5.537109,0.002 -5.537109,-0.002 C 53.977449,0.884332 53.780014,0.563069 53.417969,0.388672 52.896263,0.137365 52.2594,0 51.56836,0 Z m 0,1 H 51.56836 c 0.553958,0 1.056472,0.117822 1.416015,0.291015 0.359544,0.173193 0.551356,0.394367 0.597656,0.542969 l 0.109375,0.351563 6.039063,0.002 6.041016,-0.002 0.109375,-0.351563 C 65.92681,1.685784 66.115133,1.464176 66.47461,1.291015 66.834087,1.117855 67.338065,1 67.892578,1 h 46.464842 c 2.2725,0 4.10352,1.831019 4.10352,4.103515 V 41.582031 C 118.45904,48.169908 113.12973,53.5 106.54297,53.5 H 12.917969 C 6.330171,53.5 1,48.169829 1,41.582031 V 5.103515 C 1,2.831019 2.831019,1 5.103516,1 Z"
     id="path2" />
  <path
     style="color:#000000;fill:#ffffff;-inkscape-stroke:none"
     d="m 36.654297,1.498047 c -0.704353,0 -1.285156,0.581949 -1.285156,1.285156 v 16.636719 c 0,0.96964 0.636786,1.831386 1.564453,2.115234 l 20.765625,6.365234 c 1.322275,0.405274 2.736318,0.405274 4.058594,0 l 20.767578,-6.365234 c 0.927705,-0.283913 1.564423,-1.145058 1.564453,-2.115234 V 2.783203 c 0,-0.703763 -0.581393,-1.285156 -1.285156,-1.285156 z m 0,1 h 46.150391 c 0.163323,0 0.285156,0.121833 0.285156,0.285156 v 16.636719 c -1.7e-5,0.534848 -0.345988,1.003638 -0.857422,1.160156 l -20.767578,6.365234 c -1.131391,0.346768 -2.341265,0.346768 -3.472656,0 L 37.226563,20.580078 C 36.716231,20.423926 36.369141,19.954279 36.369141,19.419922 V 2.783203 c 0,-0.162792 0.12151,-0.285156 0.285156,-0.285156 z"
     id="path4" />
  <path
     style="color:#000000;fill:#ffffff;-inkscape-stroke:none"
     d="m 5.710938,4.125 c -1.053982,0 -1.917969,0.863987 -1.917969,1.917968 V 40.375 c 0,5.447884 4.427116,9.875 9.875,9.875 h 92.125001 c 5.44788,0 9.875,-4.427116 9.875,-9.875 V 6.048828 c 0,-1.057224 -0.86856,-1.923828 -1.92578,-1.923828 H 87.142578 c -1.046188,0 -1.90625,0.858981 -1.90625,1.90625 v 13.800781 c 0,0.60252 -0.389087,1.130389 -0.964843,1.306641 l -22.636719,6.9375 c -1.241801,0.380752 -2.568746,0.380752 -3.810547,0 L 35.1875,21.138672 C 34.61164,20.962357 34.222426,20.434278 34.222656,19.832031 V 6.03125 c 0,-1.04684 -0.858108,-1.90625 -1.904296,-1.90625 z m 0,1 H 32.31836 c 0.50581,0 0.904296,0.399092 0.904296,0.90625 v 13.800781 c -3.97e-4,1.037677 0.679664,1.957927 1.671875,2.261719 l 22.636719,6.9375 c 1.432749,0.439299 2.963736,0.439299 4.396485,0 l 22.636718,-6.9375 c 0.992243,-0.303748 1.671875,-1.22424 1.671875,-2.261719 V 6.03125 c 0,-0.506729 0.40044,-0.90625 0.90625,-0.90625 h 26.599612 c 0.51677,0 0.92578,0.407053 0.92578,0.923828 V 40.375 c 0,4.907444 -3.96756,8.875 -8.875,8.875 H 13.667969 c -4.907445,0 -8.875,-3.967556 -8.875,-8.875 V 6.042968 C 4.792969,5.528952 5.196921,5.125 5.710938,5.125 Z"
     id="path6" />
  <path
     style="color:#000000;fill:#ffffff;-inkscape-stroke:none"
     d="m 49.199219,34.433593 v 10.703125 h 0.201172 20.857422 V 34.433593 Z m 0.400391,0.400391 h 20.259765 v 9.904297 H 49.59961 Z"
     id="path8" />
  <path
     style="color:#000000;fill:#ffffff;-inkscape-stroke:none"
     d="m 49.136719,34.371093 v 10.828125 h 21.185547 v -0.0625 -0.398437 -10.367188 z m 0.525391,0.525391 h 20.134765 v 9.779297 H 49.66211 Z"
     id="path10" />
  <path
     style="color:#000000;fill:#ffffff;-inkscape-stroke:none"
     d="m 63.449219,34.433593 -0.05469,0.111329 -5.296875,10.591796 h 4.552735 l 5.353515,-10.703125 z m 0.246094,0.400391 h 3.660156 l -4.951172,9.904297 h -3.660156 z"
     id="path12" />
  <path
     style="color:#000000;fill:#ffffff;-inkscape-stroke:none"
     d="m 50.822266,38.46289 -0.02148,0.175782 -0.607421,5.15039 h 1.310546 l 0.0918,-1.015625 0.05859,0.002 0.07227,1.013672 h 1.164062 v 0.0039 h 1.34375 v -0.07227 l 0.0098,0.07227 h 0.951172 l 0.0039,-0.0293 v 0.0293 h 1.355469 v -0.248046 c 0.115507,0.117378 0.269476,0.18603 0.457031,0.21875 0.196289,0.03424 0.436593,0.04203 0.748047,0.04102 0.293358,-10e-4 0.474255,-0.0021 0.609375,-0.01367 0.13512,-0.01158 0.239117,-0.0392 0.322265,-0.08789 l 0.0098,-0.0059 0.0078,-0.0059 c 0.122169,-0.08951 0.2205,-0.207732 0.287109,-0.34375 0.04711,-0.09811 0.08402,-0.209436 0.0957,-0.371094 0.01163,-0.160865 0.0084,-0.388646 0.002,-0.792969 v -0.0039 l 0.0039,-0.810547 c 6.2e-4,-0.129393 -0.05701,-0.218583 -0.11914,-0.300781 -0.06213,-0.0822 -0.139203,-0.156331 -0.222656,-0.228516 -0.136027,-0.117659 -0.279997,-0.208252 -0.41211,-0.285156 h 0.775391 v -0.199219 c 0,-0.29136 -0.01021,-0.476896 -0.01953,-0.679687 h 0.248046 v 4.101562 h 1.441407 v -4.101535 h 0.357422 l 0.02734,4.109375 h 1.306548 v 0.01953 l 1.261719,0.0059 -0.0059,0.04883 h 1.308594 l 0.0918,-1.015625 h 0.05859 l 0.07422,1.013672 h 1.396485 l -0.0059,-0.04687 1.767579,0.01367 c 0.188714,0.0014 0.36461,-0.02962 0.5,-0.144531 0.13539,-0.114906 0.197575,-0.285271 0.230468,-0.482422 0.06579,-0.394301 0.03699,-0.972647 0.04297,-1.921875 0.0075,-1.094762 0.0102,-1.713157 -0.0625,-2.103515 -0.03635,-0.19518 -0.09382,-0.350029 -0.214844,-0.457032 -0.121019,-0.107002 -0.277085,-0.130859 -0.419922,-0.130859 H 66.46086 l -0.0039,0.197266 c 0,0 -0.01629,1.185856 -0.0293,2.382812 -0.0035,0.32253 -0.0053,0.591555 -0.0078,0.892578 l -0.480469,-3.523437 -1.576172,-0.002 -0.01953,0.177734 -0.441406,3.740234 c -0.006,-0.183315 -0.0015,-0.533933 -0.01953,-0.662109 -0.03836,-0.272356 -0.191724,-0.429244 -0.351563,-0.595703 0.13389,-0.115674 0.277151,-0.226347 0.31836,-0.386719 0.0573,-0.222981 0.04387,-0.467059 0.04883,-0.865234 0.0045,-0.387359 0.0045,-0.612724 -0.03711,-0.798828 -0.04156,-0.186104 -0.146325,-0.322994 -0.267578,-0.435547 -0.06394,-0.05921 -0.147215,-0.114682 -0.248047,-0.146485 -0.100832,-0.0318 -0.213222,-0.04444 -0.365234,-0.05078 -0.304023,-0.01267 -0.778696,0.0036 -1.642578,0.01758 h -0.01172 v -0.01367 h -2.482422 v 0.199219 0.03516 c -0.121756,-0.118967 -0.278546,-0.189733 -0.455078,-0.210937 -0.195593,-0.02349 -0.422997,-0.01854 -0.716797,-0.01953 -0.289134,-9.71e-4 -0.486858,-0.0227 -0.667969,-0.01172 -0.165825,0.01006 -0.328802,0.09244 -0.449218,0.224609 v -0.255859 h -1.707032 l -0.111328,0.800781 -0.0918,-0.800781 h -1.763671 v 0.201172 l 0.0059,3.388672 -0.490234,-3.595703 z m 0.353515,0.400391 0.873047,0.002 0.617188,4.523438 H 52.09961 l -0.07227,-1.009766 -0.796875,-0.0078 -0.0918,1.017579 h -0.496094 z m 2.105469,0.0098 h 1.00586 l 0.230468,2.013671 0.396485,0.0059 0.28125,-2.019531 h 0.958984 v 4.519531 h -0.556641 l 0.002,-2.675781 -0.398438,-0.02539 -0.355469,2.701172 h -0.251953 l -0.365234,-2.701172 -0.398438,0.02539 0.0039,2.675781 h -0.542969 z m 3.748047,0.03125 c 0.123889,-0.0075 0.33376,0.01069 0.640625,0.01172 0.2977,10e-4 0.522749,-3.34e-4 0.671875,0.01758 0.149126,0.01791 0.203958,0.04566 0.244141,0.09375 0.04018,0.04809 0.0827,0.158292 0.105468,0.375 0.01796,0.170969 0.01947,0.453987 0.02148,0.751954 h -0.648438 c 7.6e-4,-0.22569 0.0043,-0.443791 -0.0078,-0.560547 -0.0082,-0.07892 -0.02347,-0.172578 -0.107422,-0.246094 -0.08395,-0.07352 -0.177543,-0.07454 -0.242188,-0.07422 -0.06013,6.5e-4 -0.127046,0.0037 -0.201171,0.04492 -0.07413,0.04118 -0.128596,0.125146 -0.148438,0.193359 -0.03968,0.136428 -0.02643,0.256864 -0.02344,0.46875 0.0035,0.302517 0.124392,0.520817 0.285156,0.640625 0.160764,0.119809 0.323406,0.16017 0.447265,0.22461 0.110091,0.05696 0.291095,0.176995 0.429688,0.296875 0.0693,0.05994 0.128003,0.12026 0.164062,0.167969 0.03606,0.04771 0.03894,0.08153 0.03906,0.05664 l -0.0039,0.81836 v 0.002 c 0.0065,0.406898 0.0074,0.630924 -0.002,0.759765 -0.0093,0.128842 -0.01875,0.14767 -0.05664,0.226563 -0.03627,0.07353 -0.09136,0.1356 -0.15625,0.185547 -0.02547,0.01445 -0.04437,0.02461 -0.144531,0.0332 -0.10688,0.0092 -0.286484,0.01268 -0.578125,0.01367 -0.303045,9.86e-4 -0.525633,-0.009 -0.675782,-0.03516 -0.150148,-0.02619 -0.215725,-0.06361 -0.251953,-0.103515 -0.03623,-0.0399 -0.06549,-0.107822 -0.08008,-0.248047 -0.01459,-0.140225 -0.0116,-0.339976 -0.0059,-0.599609 v -0.0039 l -0.0098,-0.626953 h 0.59961 v 0.857422 c 4.2e-5,0.113548 0.07153,0.202565 0.136718,0.248047 0.06559,0.04576 0.133409,0.06733 0.203125,0.07617 0.06972,0.0088 0.142109,0.0061 0.222657,-0.03125 0.08055,-0.03732 0.169181,-0.144738 0.169921,-0.25586 v -0.002 -0.96289 l -0.002,-0.002 c -0.0024,-0.106292 -0.05248,-0.192309 -0.107422,-0.25586 -0.05494,-0.06355 -0.119273,-0.113758 -0.189453,-0.162109 -0.140359,-0.0967 -0.307192,-0.184415 -0.46875,-0.277344 -0.161557,-0.09293 -0.315694,-0.190576 -0.417968,-0.285156 -0.102275,-0.09458 -0.142579,-0.170612 -0.142579,-0.238281 -5.12e-4,-0.365603 -0.02452,-0.700812 -0.01953,-0.966797 0.005,-0.265985 0.04691,-0.452405 0.113281,-0.539063 0.05935,-0.07781 0.07338,-0.08038 0.197266,-0.08789 z m 5.933594,0.0039 c 0.135863,0.0057 0.216707,0.01705 0.261719,0.03125 0.04501,0.0142 0.06009,0.02576 0.09766,0.06055 0.101747,0.09445 0.123502,0.114917 0.148437,0.226562 0.02493,0.111646 0.03182,0.324391 0.02734,0.707031 -0.005,0.404825 -0.0044,0.644217 -0.03711,0.771485 -0.0327,0.127268 -0.07251,0.176106 -0.267578,0.298828 l -0.234375,0.146484 0.214843,0.175782 c 0.227703,0.187687 0.272328,0.230392 0.3125,0.515625 0.03557,0.252526 0.03293,0.80013 0.04492,1.568359 l -0.65039,-0.0039 c 0.01065,-0.824136 0.02613,-1.357906 -0.01172,-1.607422 -0.01065,-0.07019 -0.02335,-0.130856 -0.05469,-0.191406 -0.03134,-0.06055 -0.08985,-0.119375 -0.152343,-0.148438 -0.124986,-0.05813 -0.205486,-0.0358 -0.283204,-0.03711 l -0.203125,-0.002 -0.0059,1.964843 h -0.599609 l -0.02734,-4.46289 c 0.679005,-0.01204 1.181629,-0.02361 1.419922,-0.01367 z m -3.71875,0.0039 h 1.68164 v 0.365234 h -0.537109 v 4.09961 h -0.640625 v -4.09961 h -0.501953 z m 5.474609,0.01953 0.871094,0.002 0.617187,4.523438 h -0.566406 l -0.07227,-1.009766 -0.796875,-0.0078 -0.0918,1.019531 h -0.496094 z m 2.136719,0.05273 h 1.648437 c 0.101664,0 0.133942,0.01325 0.154297,0.03125 0.02036,0.018 0.05924,0.0747 0.08789,0.228515 0.0573,0.307641 0.06218,0.934109 0.05469,2.027344 -0.006,0.95677 0.01385,1.55588 -0.03711,1.861328 -0.02548,0.152724 -0.06337,0.212797 -0.0957,0.240235 -0.03233,0.02744 -0.09254,0.05186 -0.236328,0.05078 l -1.609375,-0.01367 v 0.158203 l -0.0039,-0.0098 c -3.58e-4,-0.0071 -0.0016,-0.01259 -0.002,-0.02344 -0.0012,-0.03611 -0.0014,-0.0904 -0.002,-0.158203 -0.0012,-0.135602 -9.35e-4,-0.327131 0,-0.554688 0.0019,-0.455113 0.0072,-1.054323 0.01367,-1.652343 0.01192,-1.097028 0.0249,-2.012759 0.02734,-2.185547 z m -4.6875,0.291015 v 0.205078 l -0.0039,1.449219 0.201172,-0.002 c 0.105817,-8.24e-4 0.193743,-0.0049 0.285156,-0.04102 0.09141,-0.03607 0.176799,-0.127533 0.207031,-0.216796 0.06047,-0.178527 0.02539,-0.324523 0.02539,-0.578125 0,-0.24052 0.03898,-0.375118 -0.02148,-0.552735 -0.03023,-0.08881 -0.117636,-0.180239 -0.207031,-0.214844 -0.08939,-0.0346 -0.174976,-0.03998 -0.28125,-0.04297 z m 5.310547,0.03906 0.02344,3.708984 0.207032,-0.0078 c 0.07939,-0.0029 0.180472,5.68e-4 0.283203,-0.07617 0.10273,-0.07674 0.141185,-0.195768 0.160156,-0.322266 0.03789,-0.252654 0.02603,-0.653062 0.01953,-1.449219 -0.005,-0.696454 0.0045,-1.104111 -0.03125,-1.376953 -0.0179,-0.13642 -0.04475,-0.252514 -0.132812,-0.349609 -0.08806,-0.09709 -0.22075,-0.126953 -0.328125,-0.126953 z m -16.056641,0.185547 -0.158203,2.458984 h 0.708984 l -0.152343,-2.458984 z m 13.542969,0.06836 -0.002,0.02539 v 0.002 l -0.158203,2.433594 h 0.710937 l -0.152344,-2.460938 z m -8.410156,1.353516 c 0.02684,0.03065 0.02533,0.08028 0.05469,0.107422 0.145288,0.134357 0.321043,0.24057 0.490235,0.33789 0.01414,0.0081 0.02308,0.01349 0.03711,0.02148 h -0.582031 z"
     id="path14" />
  <g
     id="g24"
     transform="rotate(-90,27.25,26.749531)"
     style="fill:#ffffff;stroke:#000000;stroke-width:0.4">
    <path
       style="color:#000000;fill:#ffffff;stroke:none;-inkscape-stroke:none"
       d="m 15.136719,75.236328 c -3.569443,0 -6.4765628,2.907081 -6.4765627,6.476563 0,3.569481 2.9070807,6.476562 6.4765627,6.476562 3.569481,0 6.476562,-2.907119 6.476562,-6.476562 0,-3.569443 -2.907119,-6.476563 -6.476562,-6.476563 z m 0,0.400391 c 3.35255,0 6.076172,2.723621 6.076172,6.076172 0,3.35255 -2.723661,6.076172 -6.076172,6.076171 -3.352512,0 -6.0761721,-2.72366 -6.0761721,-6.076171 0,-3.352512 2.7236221,-6.076172 6.0761721,-6.076172 z"
       id="path16" />
    <path
       style="color:#000000;fill:#ffffff;stroke:none;-inkscape-stroke:none"
       d="m 15.136719,75.943359 c -3.178488,0 -5.7695315,2.591044 -5.7695315,5.769532 0,3.178487 2.5910435,5.767578 5.7695315,5.767578 3.178487,0 5.767578,-2.589091 5.767578,-5.767578 0,-3.178488 -2.589091,-5.769532 -5.767578,-5.769532 z m 0,0.400391 c 2.961506,0 5.367187,2.407634 5.367187,5.369141 0,2.961506 -2.405681,5.367187 -5.367187,5.367187 -2.961507,0 -5.3691409,-2.405681 -5.3691409,-5.367187 0,-2.961507 2.4076339,-5.369141 5.3691409,-5.369141 z"
       id="path18" />
    <path
       style="color:#000000;fill:#ffffff;stroke:none;-inkscape-stroke:none"
       d="m 15.136719,76.369141 c -2.94695,0.0034 -5.3403182,2.394846 -5.3437502,5.341796 v 0.002 c 0.00343,2.947099 2.3946982,5.339746 5.3417972,5.34375 h 0.002 c 2.944506,0 5.341797,-2.399291 5.341797,-5.34375 0,-2.944507 -2.398299,-5.34375 -5.341797,-5.34375 z m 0,0.40039 c 2.726496,0 4.941406,2.215872 4.941406,4.94336 0,2.727534 -2.213919,4.943359 -4.941406,4.943359 -2.73128,-0.0037 -4.94018,-2.214033 -4.94336,-4.945313 0.0043,-2.730183 2.212922,-4.938226 4.94336,-4.941406 z"
       id="path20" />
    <path
       style="color:#000000;fill:#ffffff;stroke:none;-inkscape-stroke:none"
       d="m 15.136719,77.220703 c -2.478492,0 -4.492188,2.013696 -4.492188,4.492188 0,2.478491 2.013696,4.490234 4.492188,4.490234 2.478491,0 4.492187,-2.011743 4.492187,-4.490234 0,-2.478492 -2.013696,-4.492188 -4.492187,-4.492188 z m 0,0.398438 c 2.262316,0 4.091797,1.831434 4.091797,4.09375 0,2.262315 -1.829481,4.091796 -4.091797,4.091796 -2.262316,0 -4.091797,-1.829481 -4.091797,-4.091796 0,-2.262316 1.829481,-4.09375 4.091797,-4.09375 z"
       id="circle22" />
  </g>
  <g
     id="g34"
     transform="rotate(-90,27.25,26.749531)"
     style="fill:#ffffff;stroke:#000000;stroke-width:0.4">
    <path
       style="color:#000000;fill:#ffffff;stroke:none;-inkscape-stroke:none"
       d="m 15.136719,91.548828 c -3.569443,0 -6.4785159,2.907081 -6.4785159,6.476563 0,3.569479 2.9090339,6.476559 6.4785159,6.476559 3.569481,0 6.474609,-2.90712 6.474609,-6.476559 0,-3.569443 -2.905166,-6.476563 -6.474609,-6.476563 z m 0,0.400391 c 3.35255,0 6.076172,2.723621 6.076172,6.076172 0,3.352549 -2.723661,6.076169 -6.076172,6.076169 -3.352512,0 -6.0781253,-2.72366 -6.0781252,-6.076169 0,-3.352512 2.7255752,-6.076172 6.0781252,-6.076172 z"
       id="path26" />
    <path
       style="color:#000000;fill:#ffffff;stroke:none;-inkscape-stroke:none"
       d="m 15.136719,92.257812 c -3.178488,0 -5.7695315,2.589091 -5.7695315,5.767579 0,3.178489 2.5910435,5.767579 5.7695315,5.767579 3.178487,0 5.767578,-2.58909 5.767578,-5.767579 0,-3.178488 -2.589091,-5.767579 -5.767578,-5.767579 z m 0,0.398438 c 2.961506,0 5.367187,2.407634 5.367187,5.369141 0,2.961509 -2.405681,5.367189 -5.367187,5.367189 -2.961507,0 -5.3691409,-2.40568 -5.3691409,-5.367189 0,-2.961507 2.4076339,-5.369141 5.3691409,-5.369141 z"
       id="path28" />
    <path
       style="color:#000000;fill:#ffffff;stroke:none;-inkscape-stroke:none"
       d="m 15.136719,92.681641 c -2.94695,0.0034 -5.3403182,2.3968 -5.3437502,5.34375 0.00343,2.947099 2.3946982,5.339749 5.3417972,5.343749 h 0.002 c 2.944506,0 5.341797,-2.39929 5.341797,-5.343749 0,-2.944507 -2.398299,-5.34375 -5.341797,-5.34375 z m 0,0.40039 c 2.726496,0 4.941406,2.215872 4.941406,4.94336 0,2.727539 -2.213919,4.943359 -4.941406,4.943359 -2.73128,-0.004 -4.94018,-2.21208 -4.94336,-4.943359 0.0032,-2.731104 2.212256,-4.940179 4.94336,-4.94336 z"
       id="path30" />
    <path
       style="color:#000000;fill:#ffffff;stroke:none;-inkscape-stroke:none"
       d="m 15.136719,93.533203 c -2.478492,0 -4.492188,2.013696 -4.492188,4.492188 0,2.478489 2.013696,4.492189 4.492188,4.492189 2.478491,0 4.492187,-2.0137 4.492187,-4.492189 0,-2.478492 -2.013696,-4.492188 -4.492187,-4.492188 z m 0,0.400391 c 2.262316,0 4.091797,1.829481 4.091797,4.091797 0,2.262319 -1.829481,4.091799 -4.091797,4.091799 -2.262316,0 -4.091797,-1.82948 -4.091797,-4.091799 0,-2.262316 1.829481,-4.091797 4.091797,-4.091797 z"
       id="circle32" />
  </g>
  <path
     style="color:#000000;fill:#ffffff;-inkscape-stroke:none"
     d="m 98.574219,45.861328 c -0.32405,0 -0.616393,0.0751 -0.830078,0.269531 -0.213685,0.194436 -0.322584,0.493402 -0.328125,0.861328 l -0.0039,0.203125 h 0.789062 c -0.162036,0.105142 -0.336837,0.207183 -0.501953,0.378906 -0.200103,0.207929 -0.341981,0.469242 -0.326172,0.789063 l 0.0098,0.189453 h 0.191406 2.099609 v -0.945312 h -0.550781 c 0.105419,-0.06587 0.213611,-0.1254 0.310547,-0.222657 0.139557,-0.14002 0.246094,-0.344032 0.246094,-0.59375 0,-0.318118 -0.148604,-0.575261 -0.363282,-0.724609 -0.214677,-0.149348 -0.478985,-0.205078 -0.742187,-0.205078 z m -16.439453,0.002 -0.03125,0.162109 c -0.02987,0.15783 -0.08109,0.2267 -0.152344,0.275391 -0.07125,0.04869 -0.182207,0.07746 -0.335937,0.08008 l -0.197266,0.0039 v 0.851563 h 0.521484 v 1.316406 h 0.867188 0.201172 v -2.689496 z m 0.263672,0.398437 h 0.208984 v 1.892579 h -0.267578 v -1.31836 H 81.81836 v -0.107422 c 0.123468,-0.02033 0.252174,-0.02573 0.357421,-0.09766 0.113446,-0.07752 0.163981,-0.228551 0.222657,-0.369141 z m 16.175781,0 c 0.204798,0 0.39235,0.04841 0.513672,0.132813 0.121322,0.0844 0.193359,0.189604 0.193359,0.396484 0,0.147283 -0.04417,0.225521 -0.130859,0.3125 -0.08669,0.08698 -0.224005,0.168051 -0.375,0.261719 h -0.002 v 0.002 c -0.151476,0.09572 -0.322826,0.178824 -0.462891,0.277344 l -0.337891,0.238281 c 0.0093,-0.01013 0.0036,-0.02081 0.01367,-0.03125 0.162354,-0.169207 0.390563,-0.300974 0.597657,-0.443359 0.103546,-0.07119 0.203035,-0.146355 0.285156,-0.244141 0.08212,-0.09779 0.144531,-0.228539 0.144531,-0.375 0,-0.136408 -0.07228,-0.258673 -0.164062,-0.328125 -0.09178,-0.06945 -0.198537,-0.09961 -0.306641,-0.09961 -0.184012,0 -0.350641,0.0975 -0.431641,0.228515 -0.04073,0.06588 -0.0348,0.136011 -0.04883,0.205079 h -0.17573 c 0.03337,-0.137409 0.05191,-0.298903 0.126953,-0.367188 0.116565,-0.106064 0.297598,-0.166016 0.560547,-0.166016 z m -0.03125,0.5 c 0.0249,0 0.05349,0.01123 0.06445,0.01953 0.01097,0.0083 0.0078,-7.8e-4 0.0078,0.0078 0,0.04104 -0.01183,0.07043 -0.05273,0.119141 -0.02919,0.03476 -0.08949,0.07805 -0.146484,0.121094 v -0.03711 c -0.0012,-0.08639 0.01616,-0.160673 0.03516,-0.191406 0.019,-0.03073 0.01881,-0.03906 0.0918,-0.03906 z m -0.625,1.246094 h 1.357422 v 0.146485 h -1.419922 c 0.01504,-0.04757 0.03254,-0.101889 0.0625,-0.146485 z"
     id="path36" />
  <g
     id="g52"
     transform="rotate(-90,27.25,26.749531)"
     style="fill:#ffffff;stroke:#000000;stroke-width:0.4">
    <path
       style="color:#000000;fill:#ffffff;stroke:none;-inkscape-stroke:none"
       d="m 21.876953,7.0703125 c -7.822946,0 -14.1699218,6.3469765 -14.1699218,14.1699215 10e-8,7.822946 6.3469758,14.167969 14.1699218,14.167969 7.822946,0 14.169922,-6.345023 14.169922,-14.167969 0,-7.822945 -6.346976,-14.1699215 -14.169922,-14.1699215 z m 0,0.4003906 c 7.60677,0 13.769531,6.1627609 13.769531,13.7695309 0,7.60677 -6.162761,13.769532 -13.769531,13.769532 -7.60677,0 -13.7695311,-6.162762 -13.7695311,-13.769532 0,-7.60677 6.1627611,-13.7695309 13.7695311,-13.7695309 z"
       id="circle38" />
    <path
       style="color:#000000;fill:#ffffff;stroke:none;-inkscape-stroke:none"
       d="m 21.876953,8.46875 c -7.051404,0 -12.7714842,5.72008 -12.7714842,12.771484 0,7.051405 5.7200802,12.771485 12.7714842,12.771485 7.051405,0 12.771484,-5.72008 12.771484,-12.771485 0,-7.051404 -5.720079,-12.771484 -12.771484,-12.771484 z m 0,0.3984375 c 6.835229,0 12.371094,5.5378185 12.371094,12.3730465 0,6.835229 -5.535865,12.371094 -12.371094,12.371094 -6.835229,0 -12.3710936,-5.535865 -12.3710936,-12.371094 0,-6.835228 5.5358646,-12.3730465 12.3710936,-12.3730465 z"
       id="circle40" />
    <path
       style="color:#000000;fill:#ffffff;stroke:none;-inkscape-stroke:none"
       d="m 21.876953,8.71875 c -6.912781,0 -12.5214842,5.608703 -12.5214842,12.521484 0,6.912782 5.6087032,12.521485 12.5214842,12.521485 6.912782,0 12.521484,-5.608703 12.521484,-12.521485 0,-6.912781 -5.608702,-12.521484 -12.521484,-12.521484 z m 0,0.4003906 c 6.696606,0 12.121094,5.4244884 12.121094,12.1210934 0,6.696606 -5.424488,12.121094 -12.121094,12.121094 -6.696606,0 -12.1210936,-5.424488 -12.1210936,-12.121094 0,-6.696605 5.4244876,-12.1210934 12.1210936,-12.1210934 z"
       id="circle42" />
    <path
       style="color:#000000;fill:#ffffff;stroke:none;-inkscape-stroke:none"
       d="m 19.289062,9.6992188 c -0.57703,0 -1.048828,0.4707432 -1.048828,1.0488282 v 6.205078 c 0,0.361354 -0.289037,0.650391 -0.65039,0.650391 h -6.203125 c -0.577031,0 -1.050781,0.470743 -1.050781,1.048828 v 5.173828 c -1e-6,0.577529 0.473251,1.050781 1.050781,1.050781 h 6.203125 c 0.361353,0 0.65039,0.289037 0.65039,0.650391 v 6.203125 c 0,0.577529 0.471299,1.050781 1.048828,1.050781 h 5.175782 c 0.577529,0 1.050781,-0.473252 1.050781,-1.050781 v -6.203125 c 0,-0.361354 0.287084,-0.650391 0.648437,-0.650391 h 6.205079 c 0.577529,0 1.050781,-0.473252 1.050781,-1.050781 v -5.173828 c 0,-0.577031 -0.472697,-1.048828 -1.050781,-1.048828 h -6.205079 c -0.361914,0 -0.65039,-0.289707 -0.65039,-0.650391 v -6.205078 c 0,-0.577031 -0.470744,-1.0488282 -1.048828,-1.0488282 z m 0,0.4003902 h 5.175782 c 0.361914,0 0.648437,0.28747 0.648437,0.648438 v 6.205078 c 0,0.577315 0.472697,1.050781 1.050781,1.050781 h 6.205079 c 0.361914,0 0.65039,0.287469 0.65039,0.648438 v 5.173828 c 0,0.361354 -0.289037,0.65039 -0.65039,0.65039 h -6.205079 c -0.577529,0 -1.048828,0.473252 -1.048828,1.050782 v 6.203125 c 0,0.361353 -0.289037,0.65039 -0.65039,0.65039 h -5.175782 c -0.361353,0 -0.648437,-0.289037 -0.648437,-0.65039 v -6.203125 c 0,-0.57753 -0.473252,-1.050782 -1.050781,-1.050782 h -6.203125 c -0.361354,0 -0.650391,-0.289036 -0.650391,-0.65039 v -5.173828 c 0,-0.361915 0.289422,-0.648438 0.650391,-0.648438 h 6.203125 c 0.577529,0 1.050781,-0.473252 1.050781,-1.050781 v -6.205078 c 0,-0.361915 0.287469,-0.648438 0.648437,-0.648438 z"
       id="path44" />
    <path
       style="color:#000000;fill:#ffffff;stroke:none;-inkscape-stroke:none"
       d="m 21.876953,18.337891 c -1.600912,0 -2.902344,1.301431 -2.902344,2.902343 0,1.600913 1.301432,2.902344 2.902344,2.902344 1.600912,0 2.902344,-1.301431 2.902344,-2.902344 0,-1.600912 -1.301432,-2.902343 -2.902344,-2.902343 z m 0,0.398437 c 1.384736,0 2.503906,1.11917 2.503906,2.503906 0,1.384737 -1.11917,2.501954 -2.503906,2.501953 -1.384736,0 -2.503906,-1.117216 -2.503906,-2.501953 0,-1.384736 1.11917,-2.503906 2.503906,-2.503906 z"
       id="circle46" />
    <g
       fill="#9a9c9f"
       id="g50"
       style="fill:#ffffff">
      <path
         style="color:#000000;fill:#ffffff;stroke:none;-inkscape-stroke:none"
         d="m 21.865234,11.117188 -0.15625,0.207031 -2.55664,3.386719 h 1.027343 v 1.261718 c 0,0.189642 0.158015,0.345703 0.347657,0.345703 h 2.68164 c 0.189274,0 0.347657,-0.156429 0.347657,-0.345703 v -1.261718 h 1.128906 z m 0.0059,0.65625 1.992187,2.537109 H 23.15625 v 1.609375 h -2.576172 v -1.609375 h -0.625 z m -6.523438,6.697265 -3.59375,2.820313 0.207032,0.15625 3.386718,2.554687 v -1.027344 h 1.261719 c 0.189274,0 0.345703,-0.156429 0.345703,-0.345703 v -2.683594 c 0,-0.189273 -0.156429,-0.345703 -0.345703,-0.345703 h -1.261719 z m 13.058594,0.0078 v 1.029296 h -1.261719 c -0.189273,0 -0.345703,0.15643 -0.345703,0.345704 v 2.68164 c 0,0.189642 0.156061,0.347656 0.345703,0.347656 h 1.261719 v 1.128907 L 32,21.191406 31.792969,21.035156 Z m 0.400391,0.804687 2.537109,1.916016 -2.537109,1.990234 V 22.482422 H 27.197266 V 19.90625 h 1.609375 z m -13.859375,0.0098 v 0.705078 h 1.609375 v 2.576172 h -1.609375 v 0.625 l -2.53711,-1.916016 z m 5.634765,6.86914 c -0.189273,0 -0.347656,0.158383 -0.347656,0.347657 v 1.259765 h -1.128906 l 2.820312,3.59375 0.15625,-0.207031 2.556641,-3.386719 h -1.027344 v -1.259765 c 0,-0.189274 -0.158382,-0.347657 -0.347656,-0.347657 z m 0.05273,0.400391 h 2.576171 v 1.607422 h 0.625 l -1.916015,2.539062 -1.992188,-2.539062 h 0.707032 z"
         id="path48" />
    </g>
  </g>
</svg>
