<?xml version="1.0" encoding="UTF-8" standalone="no"?>
<svg
   enable-background="new 0 0 685.366 504.878"
   height="174.05481"
   viewBox="0 0 235.5624 174.05481"
   width="235.56241"
   version="1.1"
   id="svg24215"
   sodipodi:docname="lowresnx_controller.svg"
   inkscape:version="1.1.2 (0a00cf5339, 2022-02-04)"
   xmlns:inkscape="http://www.inkscape.org/namespaces/inkscape"
   xmlns:sodipodi="http://sodipodi.sourceforge.net/DTD/sodipodi-0.dtd"
   xmlns:xlink="http://www.w3.org/1999/xlink"
   xmlns="http://www.w3.org/2000/svg"
   xmlns:svg="http://www.w3.org/2000/svg">
  <sodipodi:namedview
     id="namedview24217"
     pagecolor="#ffffff"
     bordercolor="#666666"
     borderopacity="1.0"
     inkscape:pageshadow="2"
     inkscape:pageopacity="0.0"
     inkscape:pagecheckerboard="true"
     showgrid="false"
     inkscape:zoom="4.7775474"
     inkscape:cx="126.11073"
     inkscape:cy="86.446029"
     inkscape:window-width="2560"
     inkscape:window-height="1440"
     inkscape:window-x="1920"
     inkscape:window-y="0"
     inkscape:window-maximized="1"
     inkscape:current-layer="g24213"
     fit-margin-top="0"
     fit-margin-left="0"
     fit-margin-right="0"
     fit-margin-bottom="0"
     lock-margins="true" />
  <defs
     id="defs24035">
    <clipPath
       id="a">
      <circle
         cx="80.448997"
         cy="288.46701"
         r="58.417"
         id="circle24028" />
    </clipPath>
    <clipPath
       id="b">
      <use
         height="100%"
         width="100%"
         xlink:href="#c"
         id="use24031"
         x="0"
         y="0" />
    </clipPath>
    <path
       id="c"
       d="m 62.033,224.716 v 45.25 h -45.25 v 34.333 h 45.25 v 45.25 h 34.333 v -45.25 h 45.25 v -34.333 h -45.25 v -45.25 z" />
  </defs>
  <g
     transform="matrix(0.34078493,0,0,0.34078493,0.99999933,0.99999933)"
     id="g24213">
    <path
       d="m 685.366,454.878 c 0,27.614 -22.386,50 -50,50 H 50 c -27.614,0 -50,-22.386 -50,-50 V 200 c 0,-27.614 22.386,-50 50,-50 h 585.366 c 27.614,0 50,22.386 50,50 z"
       fill="#8d8d8d"
       id="path24037"
       style="fill:none;stroke:#ffffff;stroke-width:5.8688;stroke-miterlimit:4;stroke-dasharray:none;stroke-opacity:1" />
    <path
       d="m 569.366,248.717 c -10.292,0 -18.666,-8.374 -18.666,-18.667 0,-10.293 8.374,-18.667 18.666,-18.667 10.293,0 18.667,8.374 18.667,18.667 0,10.293 -8.374,18.667 -18.667,18.667 z"
       fill="#015c5d"
       id="path24041"
       style="fill:none;stroke:#ffffff;stroke-width:5.8688;stroke-miterlimit:4;stroke-dasharray:none;stroke-opacity:1" />
    <path
       d="m 569.366,213.384 c 9.19,0 16.667,7.477 16.667,16.667 0,9.19 -7.477,16.667 -16.667,16.667 -9.189,0 -16.666,-7.477 -16.666,-16.667 0,-9.19 7.476,-16.667 16.666,-16.667 m 0,-4 c -11.413,0 -20.666,9.253 -20.666,20.667 0,11.414 9.253,20.667 20.666,20.667 11.414,0 20.667,-9.253 20.667,-20.667 0,-11.414 -9.253,-20.667 -20.667,-20.667 z"
       fill="#023a38"
       id="path24043"
       style="fill:none;stroke:#ffffff;stroke-width:5.8688;stroke-miterlimit:4;stroke-dasharray:none;stroke-opacity:1" />
    <path
       d="m 635.2,289.717 c -13.143,0 -23.834,-10.691 -23.834,-23.833 0,-13.142 10.691,-23.833 23.834,-23.833 13.142,0 23.833,10.692 23.833,23.833 0,13.141 -10.692,23.833 -23.833,23.833 z"
       fill="#333333"
       id="path24045"
       style="fill:none;stroke:#ffffff;stroke-width:5.8688;stroke-miterlimit:4;stroke-dasharray:none;stroke-opacity:1" />
    <path
       d="m 635.2,244.05 c 12.039,0 21.833,9.794 21.833,21.833 0,12.039 -9.794,21.833 -21.833,21.833 -12.039,0 -21.834,-9.794 -21.834,-21.833 0,-12.039 9.795,-21.833 21.834,-21.833 m 0,-4 c -14.268,0 -25.834,11.566 -25.834,25.833 0,14.267 11.566,25.833 25.834,25.833 14.267,0 25.833,-11.565 25.833,-25.833 0,-14.268 -11.567,-25.833 -25.833,-25.833 z"
       fill="#525150"
       id="path24047"
       style="fill:none;stroke:#ffffff;stroke-width:5.8688;stroke-miterlimit:4;stroke-dasharray:none;stroke-opacity:1" />
    <path
       d="m 575.2,333.717 c -13.143,0 -23.834,-10.691 -23.834,-23.833 0,-13.142 10.691,-23.833 23.834,-23.833 13.142,0 23.833,10.691 23.833,23.833 0,13.142 -10.692,23.833 -23.833,23.833 z"
       fill="#333333"
       id="path24049"
       style="fill:none;stroke:#ffffff;stroke-width:5.8688;stroke-miterlimit:4;stroke-dasharray:none;stroke-opacity:1" />
    <path
       d="m 575.2,288.051 c 12.039,0 21.833,9.794 21.833,21.833 0,12.039 -9.794,21.833 -21.833,21.833 -12.039,0 -21.834,-9.794 -21.834,-21.833 0,-12.039 9.795,-21.833 21.834,-21.833 m 0,-4 c -14.268,0 -25.834,11.565 -25.834,25.833 0,14.268 11.566,25.833 25.834,25.833 14.267,0 25.833,-11.565 25.833,-25.833 0,-14.268 -11.567,-25.833 -25.833,-25.833 z"
       fill="#525150"
       id="path24051"
       style="fill:none;stroke:#ffffff;stroke-width:5.8688;stroke-miterlimit:4;stroke-dasharray:none;stroke-opacity:1" />
    <path
       d="m 183.866,381.54901 h 37 v 23 h -37 z"
       fill="#aaaaab"
       id="path24053"
       style="fill:none;stroke:#ffffff;stroke-width:5.8688;stroke-miterlimit:4;stroke-dasharray:none;stroke-opacity:1" />
    <path
       d="m 218.866,383.549 v 19 h -33 v -19 z m 4,-4 h -41 v 27 h 41 z"
       fill="#e2e2dc"
       id="path24055"
       style="fill:none;stroke:#ffffff;stroke-width:5.8688;stroke-miterlimit:4;stroke-dasharray:none;stroke-opacity:1" />
    <path
       d="m 239.866,381.54901 h 37 v 23 h -37 z"
       fill="#aaaaab"
       id="path24057"
       style="fill:none;stroke:#ffffff;stroke-width:5.8688;stroke-miterlimit:4;stroke-dasharray:none;stroke-opacity:1" />
    <path
       d="m 274.866,383.549 v 19 h -33 v -19 z m 4,-4 h -41 v 27 h 41 z"
       fill="#e2e2dc"
       id="path24059"
       style="fill:none;stroke:#ffffff;stroke-width:5.8688;stroke-miterlimit:4;stroke-dasharray:none;stroke-opacity:1" />
    <path
       d="m 295.866,381.54901 h 37 v 23 h -37 z"
       fill="#aaaaab"
       id="path24061"
       style="fill:none;stroke:#ffffff;stroke-width:5.8688;stroke-miterlimit:4;stroke-dasharray:none;stroke-opacity:1" />
    <path
       d="m 330.866,383.549 v 19 h -33 v -19 z m 4,-4 h -41 v 27 h 41 z"
       fill="#e2e2dc"
       id="path24063"
       style="fill:none;stroke:#ffffff;stroke-width:5.8688;stroke-miterlimit:4;stroke-dasharray:none;stroke-opacity:1" />
    <path
       d="m 351.866,381.54901 h 37 v 23 h -37 z"
       fill="#aaaaab"
       id="path24065"
       style="fill:none;stroke:#ffffff;stroke-width:5.8688;stroke-miterlimit:4;stroke-dasharray:none;stroke-opacity:1" />
    <path
       d="m 386.866,383.549 v 19 h -33 v -19 z m 4,-4 h -41 v 27 h 41 z"
       fill="#e2e2dc"
       id="path24067"
       style="fill:none;stroke:#ffffff;stroke-width:5.8688;stroke-miterlimit:4;stroke-dasharray:none;stroke-opacity:1" />
    <path
       d="m 407.866,381.54901 h 37 v 23 h -37 z"
       fill="#aaaaab"
       id="path24069"
       style="fill:none;stroke:#ffffff;stroke-width:5.8688;stroke-miterlimit:4;stroke-dasharray:none;stroke-opacity:1" />
    <path
       d="m 442.866,383.549 v 19 h -33 v -19 z m 4,-4 h -41 v 27 h 41 z"
       fill="#e2e2dc"
       id="path24071"
       style="fill:none;stroke:#ffffff;stroke-width:5.8688;stroke-miterlimit:4;stroke-dasharray:none;stroke-opacity:1" />
    <path
       d="m 463.866,381.54901 h 37 v 23 h -37 z"
       fill="#aaaaab"
       id="path24073"
       style="fill:none;stroke:#ffffff;stroke-width:5.8688;stroke-miterlimit:4;stroke-dasharray:none;stroke-opacity:1" />
    <path
       d="m 498.866,383.549 v 19 h -33 v -19 z m 4,-4 h -41 v 27 h 41 z"
       fill="#e2e2dc"
       id="path24075"
       style="fill:none;stroke:#ffffff;stroke-width:5.8688;stroke-miterlimit:4;stroke-dasharray:none;stroke-opacity:1" />
    <path
       d="m 183.866,422.04901 h 37 v 23 h -37 z"
       fill="#aaaaab"
       id="path24077"
       style="fill:none;stroke:#ffffff;stroke-width:5.8688;stroke-miterlimit:4;stroke-dasharray:none;stroke-opacity:1" />
    <path
       d="m 218.866,424.049 v 19 h -33 v -19 z m 4,-4 h -41 v 27 h 41 z"
       fill="#e2e2dc"
       id="path24079"
       style="fill:none;stroke:#ffffff;stroke-width:5.8688;stroke-miterlimit:4;stroke-dasharray:none;stroke-opacity:1" />
    <path
       d="m 239.866,422.04901 h 37 v 23 h -37 z"
       fill="#aaaaab"
       id="path24081"
       style="fill:none;stroke:#ffffff;stroke-width:5.8688;stroke-miterlimit:4;stroke-dasharray:none;stroke-opacity:1" />
    <path
       d="m 274.866,424.049 v 19 h -33 v -19 z m 4,-4 h -41 v 27 h 41 z"
       fill="#e2e2dc"
       id="path24083"
       style="fill:none;stroke:#ffffff;stroke-width:5.8688;stroke-miterlimit:4;stroke-dasharray:none;stroke-opacity:1" />
    <path
       d="m 295.866,422.04901 h 37 v 23 h -37 z"
       fill="#aaaaab"
       id="path24085"
       style="fill:none;stroke:#ffffff;stroke-width:5.8688;stroke-miterlimit:4;stroke-dasharray:none;stroke-opacity:1" />
    <path
       d="m 330.866,424.049 v 19 h -33 v -19 z m 4,-4 h -41 v 27 h 41 z"
       fill="#e2e2dc"
       id="path24087"
       style="fill:none;stroke:#ffffff;stroke-width:5.8688;stroke-miterlimit:4;stroke-dasharray:none;stroke-opacity:1" />
    <path
       d="m 351.866,422.04901 h 37 v 23 h -37 z"
       fill="#aaaaab"
       id="path24089"
       style="fill:none;stroke:#ffffff;stroke-width:5.8688;stroke-miterlimit:4;stroke-dasharray:none;stroke-opacity:1" />
    <path
       d="m 386.866,424.049 v 19 h -33 v -19 z m 4,-4 h -41 v 27 h 41 z"
       fill="#e2e2dc"
       id="path24091"
       style="fill:none;stroke:#ffffff;stroke-width:5.8688;stroke-miterlimit:4;stroke-dasharray:none;stroke-opacity:1" />
    <path
       d="m 407.866,422.04901 h 37 v 23 h -37 z"
       fill="#aaaaab"
       id="path24093"
       style="fill:none;stroke:#ffffff;stroke-width:5.8688;stroke-miterlimit:4;stroke-dasharray:none;stroke-opacity:1" />
    <path
       d="m 442.866,424.049 v 19 h -33 v -19 z m 4,-4 h -41 v 27 h 41 z"
       fill="#e2e2dc"
       id="path24095"
       style="fill:none;stroke:#ffffff;stroke-width:5.8688;stroke-miterlimit:4;stroke-dasharray:none;stroke-opacity:1" />
    <path
       d="m 463.866,422.04901 h 37 v 23 h -37 z"
       fill="#aaaaab"
       id="path24097"
       style="fill:none;stroke:#ffffff;stroke-width:5.8688;stroke-miterlimit:4;stroke-dasharray:none;stroke-opacity:1" />
    <path
       d="m 498.866,424.049 v 19 h -33 v -19 z m 4,-4 h -41 v 27 h 41 z"
       fill="#e2e2dc"
       id="path24099"
       style="fill:none;stroke:#ffffff;stroke-width:5.8688;stroke-miterlimit:4;stroke-dasharray:none;stroke-opacity:1" />
    <path
       d="m 183.866,462.54901 h 37 v 23 h -37 z"
       fill="#aaaaab"
       id="path24101"
       style="fill:none;stroke:#ffffff;stroke-width:5.8688;stroke-miterlimit:4;stroke-dasharray:none;stroke-opacity:1" />
    <path
       d="m 218.866,464.549 v 19 h -33 v -19 z m 4,-4 h -41 v 27 h 41 z"
       fill="#e2e2dc"
       id="path24103"
       style="fill:none;stroke:#ffffff;stroke-width:5.8688;stroke-miterlimit:4;stroke-dasharray:none;stroke-opacity:1" />
    <path
       d="m 239.866,462.54901 h 37 v 23 h -37 z"
       fill="#aaaaab"
       id="path24105"
       style="fill:none;stroke:#ffffff;stroke-width:5.8688;stroke-miterlimit:4;stroke-dasharray:none;stroke-opacity:1" />
    <path
       d="m 274.866,464.549 v 19 h -33 v -19 z m 4,-4 h -41 v 27 h 41 z"
       fill="#e2e2dc"
       id="path24107"
       style="fill:none;stroke:#ffffff;stroke-width:5.8688;stroke-miterlimit:4;stroke-dasharray:none;stroke-opacity:1" />
    <path
       d="m 295.866,462.54901 h 37 v 23 h -37 z"
       fill="#aaaaab"
       id="path24109"
       style="fill:none;stroke:#ffffff;stroke-width:5.8688;stroke-miterlimit:4;stroke-dasharray:none;stroke-opacity:1" />
    <path
       d="m 330.866,464.549 v 19 h -33 v -19 z m 4,-4 h -41 v 27 h 41 z"
       fill="#e2e2dc"
       id="path24111"
       style="fill:none;stroke:#ffffff;stroke-width:5.8688;stroke-miterlimit:4;stroke-dasharray:none;stroke-opacity:1" />
    <path
       d="m 351.866,462.54901 h 37 v 23 h -37 z"
       fill="#aaaaab"
       id="path24113"
       style="fill:none;stroke:#ffffff;stroke-width:5.8688;stroke-miterlimit:4;stroke-dasharray:none;stroke-opacity:1" />
    <path
       d="m 386.866,464.549 v 19 h -33 v -19 z m 4,-4 h -41 v 27 h 41 z"
       fill="#e2e2dc"
       id="path24115"
       style="fill:none;stroke:#ffffff;stroke-width:5.8688;stroke-miterlimit:4;stroke-dasharray:none;stroke-opacity:1" />
    <path
       d="m 407.866,462.54901 h 37 v 23 h -37 z"
       fill="#aaaaab"
       id="path24117"
       style="fill:none;stroke:#ffffff;stroke-width:5.8688;stroke-miterlimit:4;stroke-dasharray:none;stroke-opacity:1" />
    <path
       d="m 442.866,464.549 v 19 h -33 v -19 z m 4,-4 h -41 v 27 h 41 z"
       fill="#e2e2dc"
       id="path24119"
       style="fill:none;stroke:#ffffff;stroke-width:5.8688;stroke-miterlimit:4;stroke-dasharray:none;stroke-opacity:1" />
    <path
       d="m 463.866,462.54901 h 37 v 23 h -37 z"
       fill="#aaaaab"
       id="path24121"
       style="fill:none;stroke:#ffffff;stroke-width:5.8688;stroke-miterlimit:4;stroke-dasharray:none;stroke-opacity:1" />
    <path
       d="m 498.866,464.549 v 19 h -33 v -19 z m 4,-4 h -41 v 27 h 41 z"
       fill="#e2e2dc"
       id="path24123"
       style="fill:none;stroke:#ffffff;stroke-width:5.8688;stroke-miterlimit:4;stroke-dasharray:none;stroke-opacity:1" />
    <path
       d="m 80.449,345.883 c -31.66,0 -57.417,-25.757 -57.417,-57.416 0,-31.659 25.758,-57.417 57.417,-57.417 31.659,0 57.417,25.757 57.417,57.417 0,31.66 -25.757,57.416 -57.417,57.416 z"
       fill="#333333"
       id="path24125"
       style="fill:none;stroke:#ffffff;stroke-width:5.8688;stroke-miterlimit:4;stroke-dasharray:none;stroke-opacity:1" />
    <path
       d="m 80.449,232.05 c 31.108,0 56.417,25.308 56.417,56.417 0,31.107 -25.309,56.416 -56.417,56.416 -31.108,0 -56.417,-25.309 -56.417,-56.416 0.001,-31.109 25.309,-56.417 56.417,-56.417 m 0,-2 c -32.263,0 -58.417,26.154 -58.417,58.417 0,32.263 26.154,58.416 58.417,58.416 32.263,0 58.417,-26.153 58.417,-58.416 0,-32.263 -26.154,-58.417 -58.417,-58.417 z"
       fill="#828181"
       id="path24127"
       style="fill:none;stroke:#ffffff;stroke-width:5.8688;stroke-miterlimit:4;stroke-dasharray:none;stroke-opacity:1" />
    <g
       clip-path="url(#a)"
       id="g24139"
       style="fill:none;stroke:#ffffff;stroke-width:5.8688;stroke-miterlimit:4;stroke-dasharray:none;stroke-opacity:1">
      <use
         fill="#333333"
         height="100%"
         width="100%"
         xlink:href="#c"
         id="use24129"
         x="0"
         y="0"
         style="fill:none;stroke:#ffffff;stroke-width:5.8688;stroke-miterlimit:4;stroke-dasharray:none;stroke-opacity:1" />
      <g
         clip-path="url(#b)"
         id="g24135"
         style="fill:none;stroke:#ffffff;stroke-width:5.8688;stroke-miterlimit:4;stroke-dasharray:none;stroke-opacity:1">
        <path
           d="m 80.449,344.883 c -31.108,0 -56.417,-25.309 -56.417,-56.416 0,-31.108 25.308,-56.417 56.417,-56.417 31.109,0 56.417,25.308 56.417,56.417 0,31.107 -25.308,56.416 -56.417,56.416 z"
           fill="#333333"
           id="path24131"
           style="fill:none;stroke:#ffffff;stroke-width:5.8688;stroke-miterlimit:4;stroke-dasharray:none;stroke-opacity:1" />
        <path
           d="m 80.449,234.05 c 30.005,0 54.417,24.411 54.417,54.417 0,30.005 -24.411,54.416 -54.417,54.416 -30.006,0 -54.417,-24.411 -54.417,-54.416 0.001,-30.006 24.412,-54.417 54.417,-54.417 m 0,-4 c -32.263,0 -58.417,26.154 -58.417,58.417 0,32.263 26.154,58.416 58.417,58.416 32.263,0 58.417,-26.153 58.417,-58.416 0,-32.263 -26.154,-58.417 -58.417,-58.417 z"
           fill="#525150"
           id="path24133"
           style="fill:none;stroke:#ffffff;stroke-width:5.8688;stroke-miterlimit:4;stroke-dasharray:none;stroke-opacity:1" />
      </g>
      <use
         fill="none"
         height="100%"
         stroke="#525150"
         stroke-miterlimit="10"
         stroke-width="4"
         width="100%"
         xlink:href="#c"
         id="use24137"
         x="0"
         y="0"
         style="fill:none;stroke:#ffffff;stroke-width:5.8688;stroke-miterlimit:4;stroke-dasharray:none;stroke-opacity:1" />
    </g>
    <path
       d="m 177.439,353.049 c -12.682,0 -23,-10.317 -23,-23 V 25 c 0,-12.682 10.318,-23 23,-23 h 328.049 c 12.683,0 23,10.318 23,23 v 305.049 c 0,12.683 -10.317,23 -23,23 z"
       fill="#3b3b3b"
       id="path24141"
       style="fill:none;stroke:#ffffff;stroke-width:5.8688;stroke-miterlimit:4;stroke-dasharray:none;stroke-opacity:1" />
    <path
       d="m 505.488,4 c 11.579,0 21,9.42 21,21 v 305.049 c 0,11.579 -9.421,21 -21,21 H 177.439 c -11.58,0 -21,-9.421 -21,-21 V 25 c 0,-11.58 9.42,-21 21,-21 z m 0,-4 H 177.439 c -13.807,0 -25,11.193 -25,25 v 305.049 c 0,13.807 11.193,25 25,25 h 328.049 c 13.808,0 25,-11.193 25,-25 V 25 c 0,-13.807 -11.193,-25 -25,-25 z"
       fill="#5f5f5e"
       id="path24143"
       style="fill:none;stroke:#ffffff;stroke-width:5.8688;stroke-miterlimit:4;stroke-dasharray:none;stroke-opacity:1" />
    <path
       d="m 493.033,278.467 c 0,5.522 -4.478,10 -10,10 H 203.366 c -5.523,0 -10,-4.478 -10,-10 V 47.382 c 0,-5.523 4.477,-10 10,-10 h 279.667 c 5.522,0 10,4.477 10,10 z"
       fill="#272727"
       id="path24145"
       style="fill:none;stroke:#ffffff;stroke-width:5.8688;stroke-miterlimit:4;stroke-dasharray:none;stroke-opacity:1" />
    <path
       d="m 220.69901,63.382 h 245.66701 v 197 H 220.69901 Z"
       fill="#57bfcb"
       id="path24147"
       style="fill:none;stroke:#ffffff;stroke-width:5.8688;stroke-miterlimit:4;stroke-dasharray:none;stroke-opacity:1" />
    <circle
       cx="53.991001"
       cy="405.75699"
       id="circle24149"
       style="fill:none;stroke:#ffffff;stroke-width:5.8688;stroke-miterlimit:4;stroke-dasharray:none;stroke-opacity:1"
       r="4.625" />
    <circle
       cx="69.490997"
       cy="405.75699"
       id="circle24151"
       style="fill:none;stroke:#ffffff;stroke-width:5.8688;stroke-miterlimit:4;stroke-dasharray:none;stroke-opacity:1"
       r="4.625" />
    <circle
       cx="84.990997"
       cy="405.75699"
       id="circle24153"
       style="fill:none;stroke:#ffffff;stroke-width:5.8688;stroke-miterlimit:4;stroke-dasharray:none;stroke-opacity:1"
       r="4.625" />
    <circle
       cx="100.491"
       cy="405.75699"
       id="circle24155"
       style="fill:none;stroke:#ffffff;stroke-width:5.8688;stroke-miterlimit:4;stroke-dasharray:none;stroke-opacity:1"
       r="4.625" />
    <circle
       cx="115.991"
       cy="405.75699"
       id="circle24157"
       style="fill:none;stroke:#ffffff;stroke-width:5.8688;stroke-miterlimit:4;stroke-dasharray:none;stroke-opacity:1"
       r="4.625" />
    <circle
       cx="69.490997"
       cy="390.42401"
       id="circle24159"
       style="fill:none;stroke:#ffffff;stroke-width:5.8688;stroke-miterlimit:4;stroke-dasharray:none;stroke-opacity:1"
       r="4.625" />
    <circle
       cx="84.990997"
       cy="390.42401"
       id="circle24161"
       style="fill:none;stroke:#ffffff;stroke-width:5.8688;stroke-miterlimit:4;stroke-dasharray:none;stroke-opacity:1"
       r="4.625" />
    <circle
       cx="100.491"
       cy="390.42401"
       id="circle24163"
       style="fill:none;stroke:#ffffff;stroke-width:5.8688;stroke-miterlimit:4;stroke-dasharray:none;stroke-opacity:1"
       r="4.625" />
    <circle
       cx="53.991001"
       cy="421.091"
       id="circle24165"
       style="fill:none;stroke:#ffffff;stroke-width:5.8688;stroke-miterlimit:4;stroke-dasharray:none;stroke-opacity:1"
       r="4.625" />
    <circle
       cx="69.490997"
       cy="421.091"
       id="circle24167"
       style="fill:none;stroke:#ffffff;stroke-width:5.8688;stroke-miterlimit:4;stroke-dasharray:none;stroke-opacity:1"
       r="4.625" />
    <circle
       cx="84.990997"
       cy="421.091"
       id="circle24169"
       style="fill:none;stroke:#ffffff;stroke-width:5.8688;stroke-miterlimit:4;stroke-dasharray:none;stroke-opacity:1"
       r="4.625" />
    <circle
       cx="100.491"
       cy="421.091"
       id="circle24171"
       style="fill:none;stroke:#ffffff;stroke-width:5.8688;stroke-miterlimit:4;stroke-dasharray:none;stroke-opacity:1"
       r="4.625" />
    <circle
       cx="115.991"
       cy="421.091"
       id="circle24173"
       style="fill:none;stroke:#ffffff;stroke-width:5.8688;stroke-miterlimit:4;stroke-dasharray:none;stroke-opacity:1"
       r="4.625" />
    <circle
       cx="69.490997"
       cy="436.42401"
       id="circle24175"
       style="fill:none;stroke:#ffffff;stroke-width:5.8688;stroke-miterlimit:4;stroke-dasharray:none;stroke-opacity:1"
       r="4.625" />
    <circle
       cx="84.990997"
       cy="436.42401"
       id="circle24177"
       style="fill:none;stroke:#ffffff;stroke-width:5.8688;stroke-miterlimit:4;stroke-dasharray:none;stroke-opacity:1"
       r="4.625" />
    <circle
       cx="100.491"
       cy="436.42401"
       id="circle24179"
       style="fill:none;stroke:#ffffff;stroke-width:5.8688;stroke-miterlimit:4;stroke-dasharray:none;stroke-opacity:1"
       r="4.625" />
    <circle
       cx="569.99103"
       cy="405.75699"
       id="circle24181"
       style="fill:none;stroke:#ffffff;stroke-width:5.8688;stroke-miterlimit:4;stroke-dasharray:none;stroke-opacity:1"
       r="4.625" />
    <circle
       cx="585.49103"
       cy="405.75699"
       id="circle24183"
       style="fill:none;stroke:#ffffff;stroke-width:5.8688;stroke-miterlimit:4;stroke-dasharray:none;stroke-opacity:1"
       r="4.625" />
    <circle
       cx="600.99103"
       cy="405.75699"
       id="circle24185"
       style="fill:none;stroke:#ffffff;stroke-width:5.8688;stroke-miterlimit:4;stroke-dasharray:none;stroke-opacity:1"
       r="4.625" />
    <circle
       cx="616.49103"
       cy="405.75699"
       id="circle24187"
       style="fill:none;stroke:#ffffff;stroke-width:5.8688;stroke-miterlimit:4;stroke-dasharray:none;stroke-opacity:1"
       r="4.625" />
    <circle
       cx="631.99103"
       cy="405.75699"
       id="circle24189"
       style="fill:none;stroke:#ffffff;stroke-width:5.8688;stroke-miterlimit:4;stroke-dasharray:none;stroke-opacity:1"
       r="4.625" />
    <circle
       cx="585.49103"
       cy="390.42401"
       id="circle24191"
       style="fill:none;stroke:#ffffff;stroke-width:5.8688;stroke-miterlimit:4;stroke-dasharray:none;stroke-opacity:1"
       r="4.625" />
    <circle
       cx="600.99103"
       cy="390.42401"
       id="circle24193"
       style="fill:none;stroke:#ffffff;stroke-width:5.8688;stroke-miterlimit:4;stroke-dasharray:none;stroke-opacity:1"
       r="4.625" />
    <circle
       cx="616.49103"
       cy="390.42401"
       id="circle24195"
       style="fill:none;stroke:#ffffff;stroke-width:5.8688;stroke-miterlimit:4;stroke-dasharray:none;stroke-opacity:1"
       r="4.625" />
    <circle
       cx="569.99103"
       cy="421.091"
       id="circle24197"
       style="fill:none;stroke:#ffffff;stroke-width:5.8688;stroke-miterlimit:4;stroke-dasharray:none;stroke-opacity:1"
       r="4.625" />
    <circle
       cx="585.49103"
       cy="421.091"
       id="circle24199"
       style="fill:none;stroke:#ffffff;stroke-width:5.8688;stroke-miterlimit:4;stroke-dasharray:none;stroke-opacity:1"
       r="4.625" />
    <circle
       cx="600.99103"
       cy="421.091"
       id="circle24201"
       style="fill:none;stroke:#ffffff;stroke-width:5.8688;stroke-miterlimit:4;stroke-dasharray:none;stroke-opacity:1"
       r="4.625" />
    <circle
       cx="616.49103"
       cy="421.091"
       id="circle24203"
       style="fill:none;stroke:#ffffff;stroke-width:5.8688;stroke-miterlimit:4;stroke-dasharray:none;stroke-opacity:1"
       r="4.625" />
    <circle
       cx="631.99103"
       cy="421.091"
       id="circle24205"
       style="fill:none;stroke:#ffffff;stroke-width:5.8688;stroke-miterlimit:4;stroke-dasharray:none;stroke-opacity:1"
       r="4.625" />
    <circle
       cx="585.49103"
       cy="436.42401"
       id="circle24207"
       style="fill:none;stroke:#ffffff;stroke-width:5.8688;stroke-miterlimit:4;stroke-dasharray:none;stroke-opacity:1"
       r="4.625" />
    <circle
       cx="600.99103"
       cy="436.42401"
       id="circle24209"
       style="fill:none;stroke:#ffffff;stroke-width:5.8688;stroke-miterlimit:4;stroke-dasharray:none;stroke-opacity:1"
       r="4.625" />
    <circle
       cx="616.49103"
       cy="436.42401"
       id="circle24211"
       style="fill:none;stroke:#ffffff;stroke-width:5.8688;stroke-miterlimit:4;stroke-dasharray:none;stroke-opacity:1"
       r="4.625" />
  </g>
</svg>
