<?xml version="1.0" encoding="UTF-8" standalone="no"?>
<svg
   viewBox="0 0 369.65724 239.422"
   version="1.1"
   id="svg170"
   sodipodi:docname="msx2_controller.svg"
   width="369.65723"
   height="239.422"
   inkscape:version="1.1.2 (0a00cf5339, 2022-02-04)"
   xmlns:inkscape="http://www.inkscape.org/namespaces/inkscape"
   xmlns:sodipodi="http://sodipodi.sourceforge.net/DTD/sodipodi-0.dtd"
   xmlns="http://www.w3.org/2000/svg"
   xmlns:svg="http://www.w3.org/2000/svg">
  <defs
     id="defs174" />
  <sodipodi:namedview
     id="namedview172"
     pagecolor="#ffffff"
     bordercolor="#666666"
     borderopacity="1.0"
     inkscape:pageshadow="2"
     inkscape:pageopacity="0.0"
     inkscape:pagecheckerboard="true"
     showgrid="false"
     fit-margin-top="0"
     fit-margin-left="0"
     fit-margin-right="0"
     fit-margin-bottom="0"
     inkscape:zoom="3.4621897"
     inkscape:cx="184.99853"
     inkscape:cy="119.5775"
     inkscape:window-width="2560"
     inkscape:window-height="1440"
     inkscape:window-x="1920"
     inkscape:window-y="0"
     inkscape:window-maximized="1"
     inkscape:current-layer="svg170" />
  <path
     d="M 347.92162,238.422 H 21.790622 c -5.008,0 -9.105,-4.097 -9.105,-9.105 V 105.39 c 0,-5.008 4.097,-9.105 9.105,-9.105 H 347.92162 c 5.008,0 9.105,4.097 9.105,9.105 v 123.927 c 0,5.008 -4.097,9.105 -9.105,9.105 z"
     fill="#202223"
     id="path2"
     style="fill:none;stroke:#ffffff;stroke-width:2;stroke-miterlimit:10;stroke-dasharray:none;stroke-opacity:1" />
  <path
     d="m 198.35562,119.426 h -44.067 a 1.333,1.333 0 0 1 -1.329,-1.329 v -7.205 c 0,-0.731 0.598,-1.329 1.329,-1.329 h 44.067 c 0.731,0 1.329,0.598 1.329,1.329 v 7.205 c 0,0.731 -0.598,1.329 -1.329,1.329 z m 72.616,0 h -67.443 a 1.333,1.333 0 0 1 -1.329,-1.329 v -7.205 c 0,-0.731 0.598,-1.329 1.329,-1.329 h 67.443 c 0.731,0 1.329,0.598 1.329,1.329 v 7.205 c 0,0.731 -0.598,1.329 -1.329,1.329 z m -121.487,0 H 36.463622 a 1.333,1.333 0 0 1 -1.329,-1.329 v -7.205 c 0,-0.731 0.598,-1.329 1.329,-1.329 H 149.48362 c 0.731,0 1.329,0.598 1.329,1.329 v 7.205 a 1.331,1.331 0 0 1 -1.328,1.329 z m 129.159,8.746 c 0,-0.676 -0.527,-1.221 -1.183,-1.221 H 32.497622 c -0.657,0 -1.184,0.544 -1.183,1.221 v 16.275 h -2.826 c -0.657,0 -1.184,0.544 -1.183,1.221 v 16.275 h -0.461 c -0.657,0 -1.184,0.544 -1.183,1.221 v 29.89 c 0,0.675 0.527,1.221 1.183,1.221 h 35.847 v 16.941 c 0,0.677 0.527,1.221 1.183,1.221 H 277.46062 c 0.656,0 1.183,-0.545 1.183,-1.221 v 0.011 z m 65.366,42.458 h -62.165 a 1.79,1.79 0 0 1 -1.785,-1.785 V 106.68 a 1.79,1.79 0 0 1 1.785,-1.785 h 62.165 a 1.79,1.79 0 0 1 1.785,1.785 v 62.165 a 1.79,1.79 0 0 1 -1.785,1.785 z"
     fill="#221d1f"
     id="path4"
     style="fill:none;stroke:#ffffff;stroke-width:2;stroke-miterlimit:10;stroke-dasharray:none;stroke-opacity:1" />
  <path
     d="M 274.42062,125.876 H 29.883622 a 2.536,2.536 0 0 1 -2.529,-2.529 v -17.704 a 2.536,2.536 0 0 1 2.529,-2.529 H 274.42062 a 2.536,2.536 0 0 1 2.529,2.529 v 17.704 a 2.536,2.536 0 0 1 -2.529,2.529 z"
     fill="none"
     stroke="#5d5d5d"
     stroke-width=".759"
     stroke-miterlimit="10"
     id="path6"
     style="fill:none;stroke:#ffffff;stroke-width:2;stroke-miterlimit:10;stroke-dasharray:none;stroke-opacity:1" />
  <path
     d="m 56.242622,145.476 h 11.78 c 0.644,0 1.16,0.519 1.16,1.161 v 11.78 c 0,0.642 -0.517,1.16 -1.16,1.16 h -11.78 c -0.643,0 -1.16,-0.519 -1.16,-1.16 v -11.78 a 1.156,1.156 0 0 1 1.16,-1.161 z m 16.313,0 h 11.78 c 0.644,0 1.16,0.519 1.16,1.161 v 11.78 c 0,0.642 -0.517,1.16 -1.16,1.16 h -11.78 c -0.643,0 -1.16,-0.519 -1.16,-1.16 v -11.78 a 1.156,1.156 0 0 1 1.16,-1.161 z m 16.312,0 h 11.779998 c 0.644,0 1.16,0.519 1.16,1.161 v 11.78 c 0,0.642 -0.517,1.16 -1.16,1.16 H 88.867622 c -0.643,0 -1.16,-0.519 -1.16,-1.16 v -11.78 c 0,-0.644 0.517,-1.161 1.16,-1.161 z m 16.312998,0 h 11.78 c 0.644,0 1.16,0.519 1.16,1.161 v 11.78 c 0,0.642 -0.517,1.16 -1.16,1.16 h -11.78 c -0.643,0 -1.16,-0.519 -1.16,-1.16 v -11.78 c 0,-0.644 0.517,-1.161 1.16,-1.161 z m 16.313,0 h 11.78 c 0.644,0 1.16,0.519 1.16,1.161 v 11.78 c 0,0.642 -0.517,1.16 -1.16,1.16 h -11.78 c -0.643,0 -1.16,-0.519 -1.16,-1.16 v -11.78 a 1.156,1.156 0 0 1 1.16,-1.161 z m 16.313,0 h 11.78 c 0.644,0 1.16,0.519 1.16,1.161 v 11.78 c 0,0.642 -0.517,1.16 -1.16,1.16 h -11.78 c -0.643,0 -1.16,-0.519 -1.16,-1.16 v -11.78 a 1.156,1.156 0 0 1 1.16,-1.161 z m 16.313,0 h 11.78 c 0.644,0 1.16,0.519 1.16,1.161 v 11.78 c 0,0.642 -0.517,1.16 -1.16,1.16 h -11.78 c -0.643,0 -1.16,-0.519 -1.16,-1.16 v -11.78 a 1.156,1.156 0 0 1 1.16,-1.161 z m 16.313,0 h 11.78 c 0.644,0 1.16,0.519 1.16,1.161 v 11.78 c 0,0.642 -0.517,1.16 -1.16,1.16 h -11.78 c -0.643,0 -1.16,-0.519 -1.16,-1.16 v -11.78 a 1.156,1.156 0 0 1 1.16,-1.161 z m 16.313,0 h 11.78 c 0.644,0 1.16,0.519 1.16,1.161 v 11.78 c 0,0.642 -0.517,1.16 -1.16,1.16 h -11.78 c -0.643,0 -1.16,-0.519 -1.16,-1.16 v -11.78 a 1.156,1.156 0 0 1 1.16,-1.161 z m 16.313,0 h 11.78 c 0.644,0 1.16,0.519 1.16,1.161 v 11.78 c 0,0.642 -0.517,1.16 -1.16,1.16 h -11.78 c -0.643,0 -1.16,-0.519 -1.16,-1.16 v -11.78 a 1.156,1.156 0 0 1 1.16,-1.161 z m 16.312,0 h 11.78 c 0.644,0 1.16,0.519 1.16,1.161 v 11.78 c 0,0.642 -0.517,1.16 -1.16,1.16 h -11.78 c -0.643,0 -1.16,-0.519 -1.16,-1.16 v -11.78 c 0,-0.644 0.517,-1.161 1.16,-1.161 z m 16.313,0 h 11.78 c 0.644,0 1.16,0.519 1.16,1.161 v 11.78 c 0,0.642 -0.517,1.16 -1.16,1.16 h -11.78 c -0.643,0 -1.16,-0.519 -1.16,-1.16 v -11.78 c 0,-0.644 0.517,-1.161 1.16,-1.161 z M 61.806622,162.105 h 11.78 c 0.644,0 1.16,0.519 1.16,1.161 v 11.78 c 0,0.642 -0.517,1.16 -1.16,1.16 h -11.78 c -0.643,0 -1.16,-0.519 -1.16,-1.16 v -11.78 a 1.156,1.156 0 0 1 1.16,-1.161 z m 16.313,0 h 11.78 c 0.644,0 1.16,0.519 1.16,1.161 v 11.78 c 0,0.642 -0.517,1.16 -1.16,1.16 h -11.78 c -0.643,0 -1.16,-0.519 -1.16,-1.16 v -11.78 a 1.156,1.156 0 0 1 1.16,-1.161 z m 16.313,0 h 11.779998 c 0.644,0 1.16,0.519 1.16,1.161 v 11.78 c 0,0.642 -0.517,1.16 -1.16,1.16 H 94.432622 c -0.643,0 -1.16,-0.519 -1.16,-1.16 v -11.78 a 1.156,1.156 0 0 1 1.16,-1.161 z m 16.311998,0 h 11.78 c 0.644,0 1.16,0.519 1.16,1.161 v 11.78 c 0,0.642 -0.517,1.16 -1.16,1.16 h -11.78 c -0.643,0 -1.16,-0.519 -1.16,-1.16 v -11.78 c 0,-0.644 0.517,-1.161 1.16,-1.161 z m 16.313,0 h 11.78 c 0.644,0 1.16,0.519 1.16,1.161 v 11.78 c 0,0.642 -0.517,1.16 -1.16,1.16 h -11.78 c -0.643,0 -1.16,-0.519 -1.16,-1.16 v -11.78 c 0,-0.644 0.517,-1.161 1.16,-1.161 z m 16.313,0 h 11.78 c 0.644,0 1.16,0.519 1.16,1.161 v 11.78 c 0,0.642 -0.517,1.16 -1.16,1.16 h -11.78 c -0.643,0 -1.16,-0.519 -1.16,-1.16 v -11.78 a 1.156,1.156 0 0 1 1.16,-1.161 z m 16.313,0 h 11.78 c 0.644,0 1.16,0.519 1.16,1.161 v 11.78 c 0,0.642 -0.517,1.16 -1.16,1.16 h -11.78 c -0.643,0 -1.16,-0.519 -1.16,-1.16 v -11.78 a 1.156,1.156 0 0 1 1.16,-1.161 z m 16.313,0 h 11.78 c 0.644,0 1.16,0.519 1.16,1.161 v 11.78 c 0,0.642 -0.517,1.16 -1.16,1.16 h -11.78 c -0.643,0 -1.16,-0.519 -1.16,-1.16 v -11.78 a 1.156,1.156 0 0 1 1.16,-1.161 z m 16.313,0 h 11.78 c 0.644,0 1.16,0.519 1.16,1.161 v 11.78 c 0,0.642 -0.517,1.16 -1.16,1.16 h -11.78 c -0.643,0 -1.16,-0.519 -1.16,-1.16 v -11.78 a 1.156,1.156 0 0 1 1.16,-1.161 z m 16.313,0 h 11.78 c 0.644,0 1.16,0.519 1.16,1.161 v 11.78 c 0,0.642 -0.517,1.16 -1.16,1.16 h -11.78 c -0.643,0 -1.16,-0.519 -1.16,-1.16 v -11.78 a 1.156,1.156 0 0 1 1.16,-1.161 z m 16.313,0 h 11.78 c 0.644,0 1.16,0.519 1.16,1.161 v 11.78 c 0,0.642 -0.517,1.16 -1.16,1.16 h -11.78 c -0.643,0 -1.16,-0.519 -1.16,-1.16 v -11.78 a 1.156,1.156 0 0 1 1.16,-1.161 z m 16.312,0 h 11.78 c 0.644,0 1.16,0.519 1.16,1.161 v 11.78 c 0,0.642 -0.517,1.16 -1.16,1.16 h -11.78 c -0.643,0 -1.16,-0.519 -1.16,-1.16 v -11.78 c 0,-0.644 0.517,-1.161 1.16,-1.161 z"
     fill="#5d5d5d"
     id="path8"
     style="fill:none;stroke:#ffffff;stroke-width:2;stroke-miterlimit:10;stroke-dasharray:none;stroke-opacity:1" />
  <g
     fill="#5d5d5d"
     id="g12"
     style="fill:none;stroke:#ffffff;stroke-width:2;stroke-miterlimit:10;stroke-dasharray:none;stroke-opacity:1"
     transform="translate(1.0516218,1)">
    <path
       d="m 66.161,177.734 h 11.78 c 0.644,0 1.16,0.519 1.16,1.161 v 11.78 c 0,0.642 -0.517,1.16 -1.16,1.16 h -11.78 c -0.643,0 -1.16,-0.519 -1.16,-1.16 v -11.78 a 1.156,1.156 0 0 1 1.16,-1.161 z m 16.313,0 h 11.78 c 0.644,0 1.16,0.519 1.16,1.161 v 11.78 c 0,0.642 -0.517,1.16 -1.16,1.16 h -11.78 c -0.643,0 -1.16,-0.519 -1.16,-1.16 v -11.78 a 1.156,1.156 0 0 1 1.16,-1.161 z m 16.312,0 h 11.78 c 0.644,0 1.16,0.519 1.16,1.161 v 11.78 c 0,0.642 -0.517,1.16 -1.16,1.16 h -11.78 c -0.643,0 -1.16,-0.519 -1.16,-1.16 v -11.78 c 0,-0.644 0.517,-1.161 1.16,-1.161 z m 16.313,0 h 11.78 c 0.644,0 1.16,0.519 1.16,1.161 v 11.78 c 0,0.642 -0.517,1.16 -1.16,1.16 h -11.78 c -0.643,0 -1.16,-0.519 -1.16,-1.16 v -11.78 c 0,-0.644 0.517,-1.161 1.16,-1.161 z m 16.313,0 h 11.78 c 0.644,0 1.16,0.519 1.16,1.161 v 11.78 c 0,0.642 -0.517,1.16 -1.16,1.16 h -11.78 c -0.643,0 -1.16,-0.519 -1.16,-1.16 v -11.78 a 1.156,1.156 0 0 1 1.16,-1.161 z m 16.313,0 h 11.78 c 0.644,0 1.16,0.519 1.16,1.161 v 11.78 c 0,0.642 -0.517,1.16 -1.16,1.16 h -11.78 c -0.643,0 -1.16,-0.519 -1.16,-1.16 v -11.78 a 1.156,1.156 0 0 1 1.16,-1.161 z m 16.313,0 h 11.78 c 0.644,0 1.16,0.519 1.16,1.161 v 11.78 c 0,0.642 -0.517,1.16 -1.16,1.16 h -11.78 c -0.643,0 -1.16,-0.519 -1.16,-1.16 v -11.78 a 1.156,1.156 0 0 1 1.16,-1.161 z m 16.313,0 h 11.78 c 0.644,0 1.16,0.519 1.16,1.161 v 11.78 c 0,0.642 -0.517,1.16 -1.16,1.16 h -11.78 c -0.643,0 -1.16,-0.519 -1.16,-1.16 v -11.78 a 1.156,1.156 0 0 1 1.16,-1.161 z m 16.313,0 h 11.78 c 0.644,0 1.16,0.519 1.16,1.161 v 11.78 c 0,0.642 -0.517,1.16 -1.16,1.16 h -11.78 c -0.643,0 -1.16,-0.519 -1.16,-1.16 v -11.78 a 1.156,1.156 0 0 1 1.16,-1.161 z m 16.313,0 h 11.78 c 0.644,0 1.16,0.519 1.16,1.161 v 11.78 c 0,0.642 -0.517,1.16 -1.16,1.16 h -11.78 c -0.643,0 -1.16,-0.519 -1.16,-1.16 v -11.78 a 1.156,1.156 0 0 1 1.16,-1.161 z m 16.312,0 h 11.78 c 0.644,0 1.16,0.519 1.16,1.161 v 11.78 c 0,0.642 -0.517,1.16 -1.16,1.16 h -11.78 c -0.643,0 -1.16,-0.519 -1.16,-1.16 v -11.78 c 0,-0.644 0.517,-1.161 1.16,-1.161 z"
       id="path10"
       style="fill:none;stroke:#ffffff;stroke-width:2;stroke-miterlimit:10;stroke-dasharray:none;stroke-opacity:1" />
  </g>
  <path
     d="m 274.93962,178.734 c 0.624,0 1.125,0.519 1.125,1.161 v 11.78 c 0,0.642 -0.501,1.16 -1.125,1.16 h -25.772 c -0.623,0 -1.125,-0.519 -1.125,-1.16 v -11.78 c -0.001,-0.644 0.501,-1.161 1.125,-1.161 z M 51.057622,128.847 h 11.78 c 0.644,0 1.16,0.519 1.16,1.161 v 11.78 c 0,0.642 -0.517,1.16 -1.16,1.16 h -11.78 c -0.643,0 -1.16,-0.519 -1.16,-1.16 v -11.78 a 1.156,1.156 0 0 1 1.16,-1.161 z m 16.313,0 h 11.78 c 0.644,0 1.16,0.519 1.16,1.161 v 11.78 c 0,0.642 -0.517,1.16 -1.16,1.16 h -11.78 c -0.643,0 -1.16,-0.519 -1.16,-1.16 v -11.78 a 1.156,1.156 0 0 1 1.16,-1.161 z m 16.313,0 h 11.78 c 0.644,0 1.16,0.519 1.16,1.161 v 11.78 c 0,0.642 -0.517,1.16 -1.16,1.16 h -11.78 c -0.643,0 -1.16,-0.519 -1.16,-1.16 v -11.78 a 1.156,1.156 0 0 1 1.16,-1.161 z m 16.313,0 h 11.779998 c 0.644,0 1.16,0.519 1.16,1.161 v 11.78 c 0,0.642 -0.517,1.16 -1.16,1.16 H 99.996622 c -0.643,0 -1.16,-0.519 -1.16,-1.16 v -11.78 a 1.156,1.156 0 0 1 1.16,-1.161 z m 16.312998,0 h 11.78 c 0.644,0 1.16,0.519 1.16,1.161 v 11.78 c 0,0.642 -0.517,1.16 -1.16,1.16 h -11.78 c -0.643,0 -1.16,-0.519 -1.16,-1.16 v -11.78 a 1.156,1.156 0 0 1 1.16,-1.161 z m 16.312,0 h 11.78 c 0.644,0 1.16,0.519 1.16,1.161 v 11.78 c 0,0.642 -0.517,1.16 -1.16,1.16 h -11.78 c -0.643,0 -1.16,-0.519 -1.16,-1.16 v -11.78 c 0,-0.644 0.517,-1.161 1.16,-1.161 z m 16.313,0 h 11.78 c 0.644,0 1.16,0.519 1.16,1.161 v 11.78 c 0,0.642 -0.517,1.16 -1.16,1.16 h -11.78 c -0.643,0 -1.16,-0.519 -1.16,-1.16 v -11.78 a 1.157,1.157 0 0 1 1.16,-1.161 z m 16.313,0 h 11.78 c 0.644,0 1.16,0.519 1.16,1.161 v 11.78 c 0,0.642 -0.517,1.16 -1.16,1.16 h -11.78 c -0.643,0 -1.16,-0.519 -1.16,-1.16 v -11.78 a 1.156,1.156 0 0 1 1.16,-1.161 z m 16.313,0 h 11.78 c 0.644,0 1.16,0.519 1.16,1.161 v 11.78 c 0,0.642 -0.517,1.16 -1.16,1.16 h -11.78 c -0.643,0 -1.16,-0.519 -1.16,-1.16 v -11.78 a 1.156,1.156 0 0 1 1.16,-1.161 z m 16.313,0 h 11.78 c 0.644,0 1.16,0.519 1.16,1.161 v 11.78 c 0,0.642 -0.517,1.16 -1.16,1.16 h -11.78 c -0.643,0 -1.16,-0.519 -1.16,-1.16 v -11.78 a 1.156,1.156 0 0 1 1.16,-1.161 z m 16.313,0 h 11.78 c 0.644,0 1.16,0.519 1.16,1.161 v 11.78 c 0,0.642 -0.517,1.16 -1.16,1.16 h -11.78 c -0.643,0 -1.16,-0.519 -1.16,-1.16 v -11.78 a 1.156,1.156 0 0 1 1.16,-1.161 z m 16.313,0 h 11.78 c 0.644,0 1.16,0.519 1.16,1.161 v 11.78 c 0,0.642 -0.517,1.16 -1.16,1.16 h -11.78 c -0.643,0 -1.16,-0.519 -1.16,-1.16 v -11.78 a 1.156,1.156 0 0 1 1.16,-1.161 z m -195.754998,0 h 11.78 c 0.644,0 1.16,0.519 1.16,1.161 v 11.78 c 0,0.642 -0.517,1.16 -1.16,1.16 h -11.78 c -0.643,0 -1.16,-0.519 -1.16,-1.16 v -11.78 a 1.156,1.156 0 0 1 1.16,-1.161 z m 212.067998,0 h 11.78 c 0.644,0 1.16,0.519 1.16,1.161 v 11.78 c 0,0.642 -0.517,1.16 -1.16,1.16 h -11.78 c -0.643,0 -1.16,-0.519 -1.16,-1.16 v -11.78 a 1.156,1.156 0 0 1 1.16,-1.161 z m 16.312,0 h 11.78 c 0.644,0 1.16,0.519 1.16,1.161 v 11.78 c 0,0.642 -0.517,1.16 -1.16,1.16 h -11.78 c -0.643,0 -1.16,-0.519 -1.16,-1.16 v -11.78 c 0,-0.644 0.517,-1.161 1.16,-1.161 z M 57.213622,162.105 c 0.677,0 1.22,0.519 1.22,1.161 v 11.78 c 0,0.642 -0.544,1.16 -1.22,1.16 h -27.953 c -0.676,0 -1.22,-0.519 -1.22,-1.16 v -11.78 c -10e-4,-0.644 0.543,-1.161 1.22,-1.161 z m 8.292,33.89 h 11.78 c 0.644,0 1.16,0.519 1.16,1.161 v 11.78 c 0,0.642 -0.517,1.16 -1.16,1.16 h -11.78 c -0.643,0 -1.16,-0.519 -1.16,-1.16 v -11.78 a 1.156,1.156 0 0 1 1.16,-1.161 z m 16.313,0 h 11.78 c 0.644,0 1.16,0.519 1.16,1.161 v 11.78 c 0,0.642 -0.517,1.16 -1.16,1.16 h -11.78 c -0.643,0 -1.16,-0.519 -1.16,-1.16 v -11.78 a 1.156,1.156 0 0 1 1.16,-1.161 z m 16.313,0 h 11.779998 c 0.644,0 1.16,0.519 1.16,1.161 v 11.78 c 0,0.642 -0.517,1.16 -1.16,1.16 H 98.131622 c -0.643,0 -1.16,-0.519 -1.16,-1.16 v -11.78 a 1.156,1.156 0 0 1 1.16,-1.161 z m 132.982998,0 c 0.664,0 1.196,0.519 1.196,1.161 v 11.78 c 0,0.642 -0.533,1.16 -1.196,1.16 h -27.421 c -0.663,0 -1.196,-0.519 -1.196,-1.16 v -11.78 c -0.001,-0.644 0.533,-1.161 1.196,-1.161 z m 4.569,0 h 11.78 c 0.644,0 1.16,0.519 1.16,1.161 v 11.78 c 0,0.642 -0.517,1.16 -1.16,1.16 h -11.78 c -0.643,0 -1.16,-0.519 -1.16,-1.16 v -11.78 c 0,-0.644 0.517,-1.161 1.16,-1.161 z M 62.131622,178.734 c 0.644,0 1.16,0.519 1.16,1.161 v 11.78 c 0,0.642 -0.517,1.16 -1.16,1.16 h -32.93 c -0.643,0 -1.16,-0.519 -1.16,-1.16 v -11.78 a 1.156,1.156 0 0 1 1.16,-1.161 z m -10.466,-19.158 c 0.643,0 1.16,-0.518 1.16,-1.16 v -11.78 c 0,-0.642 -0.516,-1.161 -1.16,-1.161 h -20.852 c -0.644,0 -1.161,0.517 -1.16,1.161 v 11.78 c 0,0.642 0.517,1.16 1.16,1.16 z m 223.386998,36.419 c 0.562,0 1.012,0.519 1.012,1.161 v 11.78 c 0,0.642 -0.451,1.16 -1.012,1.16 h -23.203 c -0.561,0 -1.012,-0.519 -1.012,-1.16 v -11.78 c -10e-4,-0.644 0.451,-1.161 1.012,-1.161 z m -161.115,-0.126 h 85.167 c 0.644,0 1.16,0.519 1.16,1.161 v 11.78 c 0,0.642 -0.517,1.16 -1.16,1.16 v 0.126 h -85.167 c -0.643,0 -1.16,-0.519 -1.16,-1.16 v -11.78 a 1.156,1.156 0 0 1 1.16,-1.161 m 141.883,-36.419 h -3.824 c -0.643,0 -1.16,-0.519 -1.16,-1.16 v -11.78 a 1.156,1.156 0 0 1 1.16,-1.161 h 22.908 c 0.644,0 1.16,0.519 1.16,1.161 v 28.409 c 0,0.642 -0.517,1.16 -1.16,1.16 h -16.764 c -0.642,0 -1.16,-0.517 -1.16,-1.16 v -14.239 c 0,-0.642 -0.517,-1.23 -1.16,-1.23 z m 26.652,-37.241 h 11.78 c 0.644,0 1.16,0.519 1.16,1.161 v 11.78 c 0,0.642 -0.517,1.16 -1.16,1.16 h -11.78 c -0.643,0 -1.16,-0.519 -1.16,-1.16 v -11.78 a 1.157,1.157 0 0 1 1.16,-1.161 z m 16.313,0 h 11.78 c 0.644,0 1.16,0.519 1.16,1.161 v 11.78 c 0,0.642 -0.517,1.16 -1.16,1.16 h -11.78 c -0.643,0 -1.16,-0.519 -1.16,-1.16 v -11.78 a 1.156,1.156 0 0 1 1.16,-1.161 z m 16.313,0 h 11.78 c 0.644,0 1.16,0.519 1.16,1.161 v 11.78 c 0,0.642 -0.517,1.16 -1.16,1.16 h -11.78 c -0.643,0 -1.16,-0.519 -1.16,-1.16 v -11.78 a 1.156,1.156 0 0 1 1.16,-1.161 z m 16.313,0 h 11.78 c 0.644,0 1.16,0.519 1.16,1.161 v 11.78 c 0,0.642 -0.517,1.16 -1.16,1.16 h -11.78 c -0.643,0 -1.16,-0.519 -1.16,-1.16 v -11.78 a 1.156,1.156 0 0 1 1.16,-1.161 z m -48.939,-16.629 h 11.78 c 0.644,0 1.16,0.519 1.16,1.161 v 11.78 c 0,0.642 -0.517,1.16 -1.16,1.16 h -11.78 c -0.643,0 -1.16,-0.519 -1.16,-1.16 v -11.78 a 1.157,1.157 0 0 1 1.16,-1.161 z m 16.313,0 h 11.78 c 0.644,0 1.16,0.519 1.16,1.161 v 11.78 c 0,0.642 -0.517,1.16 -1.16,1.16 h -11.78 c -0.643,0 -1.16,-0.519 -1.16,-1.16 v -11.78 a 1.156,1.156 0 0 1 1.16,-1.161 z m 16.313,0 h 11.78 c 0.644,0 1.16,0.519 1.16,1.161 v 11.78 c 0,0.642 -0.517,1.16 -1.16,1.16 h -11.78 c -0.643,0 -1.16,-0.519 -1.16,-1.16 v -11.78 a 1.156,1.156 0 0 1 1.16,-1.161 z m 16.313,0 h 11.78 c 0.644,0 1.16,0.519 1.16,1.161 v 11.78 c 0,0.642 -0.517,1.16 -1.16,1.16 h -11.78 c -0.643,0 -1.16,-0.519 -1.16,-1.16 v -11.78 a 1.156,1.156 0 0 1 1.16,-1.161 z m -48.939,49.887 h 11.78 c 0.644,0 1.16,0.519 1.16,1.161 v 11.78 c 0,0.642 -0.517,1.16 -1.16,1.16 h -11.78 c -0.643,0 -1.16,-0.519 -1.16,-1.16 v -11.78 a 1.157,1.157 0 0 1 1.16,-1.161 z m 16.313,0 h 11.78 c 0.644,0 1.16,0.519 1.16,1.161 v 11.78 c 0,0.642 -0.517,1.16 -1.16,1.16 h -11.78 c -0.643,0 -1.16,-0.519 -1.16,-1.16 v -11.78 a 1.156,1.156 0 0 1 1.16,-1.161 z m 16.313,0 h 11.78 c 0.644,0 1.16,0.519 1.16,1.161 v 11.78 c 0,0.642 -0.517,1.16 -1.16,1.16 h -11.78 c -0.643,0 -1.16,-0.519 -1.16,-1.16 v -11.78 a 1.156,1.156 0 0 1 1.16,-1.161 z m 16.313,0 h 11.78 c 0.644,0 1.16,0.519 1.16,1.161 v 11.78 c 0,0.642 -0.517,1.16 -1.16,1.16 h -11.78 c -0.643,0 -1.16,-0.519 -1.16,-1.16 v -11.78 a 1.156,1.156 0 0 1 1.16,-1.161 z m -48.939,-16.629 h 11.78 c 0.644,0 1.16,0.519 1.16,1.161 v 11.78 c 0,0.642 -0.517,1.16 -1.16,1.16 h -11.78 c -0.643,0 -1.16,-0.519 -1.16,-1.16 v -11.78 a 1.157,1.157 0 0 1 1.16,-1.161 z m 16.313,0 h 11.78 c 0.644,0 1.16,0.519 1.16,1.161 v 11.78 c 0,0.642 -0.517,1.16 -1.16,1.16 h -11.78 c -0.643,0 -1.16,-0.519 -1.16,-1.16 v -11.78 a 1.156,1.156 0 0 1 1.16,-1.161 z m 16.313,0 h 11.78 c 0.644,0 1.16,0.519 1.16,1.161 v 11.78 c 0,0.642 -0.517,1.16 -1.16,1.16 h -11.78 c -0.643,0 -1.16,-0.519 -1.16,-1.16 v -11.78 a 1.156,1.156 0 0 1 1.16,-1.161 z m 16.313,0 h 11.78 c 0.644,0 1.16,0.519 1.16,1.161 v 11.78 c 0,0.642 -0.517,1.16 -1.16,1.16 h -11.78 c -0.643,0 -1.16,-0.519 -1.16,-1.16 v -11.78 a 1.156,1.156 0 0 1 1.16,-1.161 z M 37.979622,118.31 c -0.643,0 -1.16,-0.519 -1.16,-1.16 v -5.31 a 1.156,1.156 0 0 1 1.16,-1.161 h 18.44 c 0.644,0 1.16,0.519 1.16,1.161 v 5.31 c 0,0.642 -0.517,1.16 -1.16,1.16 z m 22.73,0 c -0.643,0 -1.16,-0.519 -1.16,-1.16 v -5.31 a 1.156,1.156 0 0 1 1.16,-1.161 h 18.44 c 0.644,0 1.16,0.519 1.16,1.161 v 5.31 c 0,0.642 -0.517,1.16 -1.16,1.16 z m 22.726,0 c -0.643,0 -1.16,-0.519 -1.16,-1.16 v -5.31 a 1.156,1.156 0 0 1 1.16,-1.161 h 18.439998 c 0.644,0 1.16,0.519 1.16,1.161 v 5.31 c 0,0.642 -0.517,1.16 -1.16,1.16 z m 22.730998,0 c -0.643,0 -1.16,-0.519 -1.16,-1.16 v -5.31 a 1.156,1.156 0 0 1 1.16,-1.161 h 18.44 c 0.644,0 1.16,0.519 1.16,1.161 v 5.31 c 0,0.642 -0.517,1.16 -1.16,1.16 z m 23.362,0 c -0.643,0 -1.16,-0.519 -1.16,-1.16 v -5.31 a 1.156,1.156 0 0 1 1.16,-1.161 h 18.44 c 0.644,0 1.16,0.519 1.16,1.161 v 5.31 c 0,0.642 -0.517,1.16 -1.16,1.16 z m 25.892,0 c -0.643,0 -1.16,-0.519 -1.16,-1.16 v -5.31 a 1.156,1.156 0 0 1 1.16,-1.161 h 18.44 c 0.644,0 1.16,0.519 1.16,1.161 v 5.31 c 0,0.642 -0.517,1.16 -1.16,1.16 z m 23.363,0 c -0.643,0 -1.16,-0.519 -1.16,-1.16 v -5.31 a 1.156,1.156 0 0 1 1.16,-1.161 h 18.44 c 0.644,0 1.16,0.519 1.16,1.161 v 5.31 c 0,0.642 -0.517,1.16 -1.16,1.16 z m 25.892,0 c -0.643,0 -1.16,-0.519 -1.16,-1.16 v -5.31 a 1.156,1.156 0 0 1 1.16,-1.161 h 18.44 c 0.644,0 1.16,0.519 1.16,1.161 v 5.31 c 0,0.642 -0.517,1.16 -1.16,1.16 z m 22.731,0 c -0.643,0 -1.16,-0.519 -1.16,-1.16 v -5.31 a 1.156,1.156 0 0 1 1.16,-1.161 h 18.44 c 0.644,0 1.16,0.519 1.16,1.161 v 5.31 c 0,0.642 -0.517,1.16 -1.16,1.16 z m 23.362,0 c -0.643,0 -1.16,-0.519 -1.16,-1.16 v -5.31 a 1.156,1.156 0 0 1 1.16,-1.161 h 18.44 c 0.644,0 1.16,0.519 1.16,1.161 v 5.31 c 0,0.642 -0.517,1.16 -1.16,1.16 z"
     fill="#5d5d5d"
     id="path14"
     style="fill:none;stroke:#ffffff;stroke-width:2;stroke-miterlimit:10;stroke-dasharray:none;stroke-opacity:1" />
  <path
     d="m 178.78362,118.31 c -0.643,0 -1.16,-0.519 -1.16,-1.16 v -5.31 a 1.156,1.156 0 0 1 1.16,-1.161 h 18.44 c 0.644,0 1.16,0.519 1.16,1.161 v 5.31 c 0,0.642 -0.517,1.16 -1.16,1.16 z"
     fill="#5d5d5d"
     id="path16"
     style="fill:none;stroke:#ffffff;stroke-width:2;stroke-miterlimit:10;stroke-dasharray:none;stroke-opacity:1" />
  <path
     fill="none"
     stroke="#fff"
     stroke-width=".759"
     stroke-miterlimit="10"
     d="m 312.45562,203.852 h 7.459"
     id="path18"
     style="fill:none;stroke:#ffffff;stroke-width:2;stroke-miterlimit:10;stroke-dasharray:none;stroke-opacity:1" />
  <path
     d="m 344.00962,211.107 h -60.912 a 1.79,1.79 0 0 1 -1.785,-1.785 v -19.413 a 1.79,1.79 0 0 1 1.785,-1.785 h 60.912 a 1.79,1.79 0 0 1 1.785,1.785 v 19.413 a 1.79,1.79 0 0 1 -1.785,1.785 z"
     fill="#221d1f"
     id="path20"
     style="fill:none;stroke:#ffffff;stroke-width:2;stroke-miterlimit:10;stroke-dasharray:none;stroke-opacity:1" />
  <path
     d="m 323.31062,218.505 h -19.798 a 1.79,1.79 0 0 1 -1.785,-1.785 v -34.556 a 1.79,1.79 0 0 1 1.785,-1.785 h 19.798 a 1.79,1.79 0 0 1 1.785,1.785 v 34.556 a 1.79,1.79 0 0 1 -1.785,1.785 z"
     fill="#221d1f"
     id="path22"
     style="fill:none;stroke:#ffffff;stroke-width:2;stroke-miterlimit:10;stroke-dasharray:none;stroke-opacity:1" />
  <path
     d="m 299.43262,210.24 h -16.193 a 1.04,1.04 0 0 1 -1.037,-1.037 v -19.158 a 1.04,1.04 0 0 1 1.037,-1.037 h 16.193 a 1.04,1.04 0 0 1 1.037,1.037 v 19.158 a 1.04,1.04 0 0 1 -1.037,1.037 z"
     fill="#5d5d5d"
     id="path24"
     style="fill:none;stroke:#ffffff;stroke-width:2;stroke-miterlimit:10;stroke-dasharray:none;stroke-opacity:1" />
  <path
     fill="none"
     stroke="#fff"
     stroke-width=".759"
     stroke-miterlimit="10"
     d="m 291.14062,194.572 -5.051,5.051 5.051,5.051"
     id="path26"
     style="fill:none;stroke:#ffffff;stroke-width:2;stroke-miterlimit:10;stroke-dasharray:none;stroke-opacity:1" />
  <path
     d="m 309.78262,199.623 h -18.624 c 0,-4.945 4.169,-8.953 9.312,-8.953 z"
     fill="#181718"
     id="path28"
     style="fill:none;stroke:#ffffff;stroke-width:2;stroke-miterlimit:10;stroke-dasharray:none;stroke-opacity:1" />
  <path
     d="m 309.78262,199.623 h -18.624 c 0,4.945 4.169,8.953 9.312,8.953 z"
     fill="#272727"
     id="path30"
     style="fill:none;stroke:#ffffff;stroke-width:2;stroke-miterlimit:10;stroke-dasharray:none;stroke-opacity:1" />
  <path
     fill="none"
     stroke="#fff"
     stroke-width=".759"
     stroke-miterlimit="10"
     d="m 295.19862,199.623 h 7.335"
     id="path32"
     style="fill:none;stroke:#ffffff;stroke-width:2;stroke-miterlimit:10;stroke-dasharray:none;stroke-opacity:1" />
  <path
     d="m 327.47962,210.24 h 16.193 a 1.04,1.04 0 0 0 1.037,-1.037 v -19.158 a 1.04,1.04 0 0 0 -1.037,-1.037 h -16.193 a 1.04,1.04 0 0 0 -1.037,1.037 v 19.158 a 1.04,1.04 0 0 0 1.037,1.037 z"
     fill="#5d5d5d"
     id="path34"
     style="fill:none;stroke:#ffffff;stroke-width:2;stroke-miterlimit:10;stroke-dasharray:none;stroke-opacity:1" />
  <path
     fill="none"
     stroke="#fff"
     stroke-width=".759"
     stroke-miterlimit="10"
     d="m 335.77162,194.572 5.05,5.051 -5.05,5.051"
     id="path36"
     style="fill:none;stroke:#ffffff;stroke-width:2;stroke-miterlimit:10;stroke-dasharray:none;stroke-opacity:1" />
  <path
     d="m 317.12962,199.623 h 18.624 c 0,-4.945 -4.169,-8.953 -9.312,-8.953 z"
     fill="#181718"
     id="path38"
     style="fill:none;stroke:#ffffff;stroke-width:2;stroke-miterlimit:10;stroke-dasharray:none;stroke-opacity:1" />
  <path
     d="m 317.12962,199.623 h 18.624 c 0,4.945 -4.169,8.953 -9.312,8.953 z"
     fill="#272727"
     id="path40"
     style="fill:none;stroke:#ffffff;stroke-width:2;stroke-miterlimit:10;stroke-dasharray:none;stroke-opacity:1" />
  <path
     fill="none"
     stroke="#fff"
     stroke-width=".759"
     stroke-miterlimit="10"
     d="m 331.71362,199.623 h -7.335"
     id="path42"
     style="fill:none;stroke:#ffffff;stroke-width:2;stroke-miterlimit:10;stroke-dasharray:none;stroke-opacity:1" />
  <path
     d="m 324.32062,191.432 h -21.787 v -8.75 c 0,-0.71 0.581,-1.291 1.291,-1.291 h 19.263 c 0.71,0 1.291,0.581 1.291,1.291 v 8.692 a 0.059,0.059 0 0 1 -0.058,0.058 z"
     fill="#5d5d5d"
     id="path44"
     style="fill:none;stroke:#ffffff;stroke-width:2;stroke-miterlimit:10;stroke-dasharray:none;stroke-opacity:1" />
  <path
     fill="none"
     stroke="#fff"
     stroke-width=".759"
     stroke-miterlimit="10"
     d="m 318.50662,188.936 -5.051,-5.051 -5.05,5.051"
     id="path46"
     style="fill:none;stroke:#ffffff;stroke-width:2;stroke-miterlimit:10;stroke-dasharray:none;stroke-opacity:1" />
  <path
     fill="#181718"
     d="m 324.32162,191.432 -8.275,7.445 h -5.36 l -8.153,-7.445 z"
     id="path48"
     style="fill:none;stroke:#ffffff;stroke-width:2;stroke-miterlimit:10;stroke-dasharray:none;stroke-opacity:1" />
  <path
     fill="none"
     stroke="#fff"
     stroke-width=".759"
     stroke-miterlimit="10"
     d="m 309.78262,195.147 h 7.334"
     id="path50"
     style="fill:none;stroke:#ffffff;stroke-width:2;stroke-miterlimit:10;stroke-dasharray:none;stroke-opacity:1" />
  <path
     d="m 302.59162,207.784 h 21.787 v 8.75 c 0,0.71 -0.581,1.291 -1.291,1.291 h -19.263 c -0.71,0 -1.291,-0.581 -1.291,-1.291 v -8.692 c 0,-0.032 0.026,-0.058 0.058,-0.058 z"
     fill="#5d5d5d"
     id="path52"
     style="fill:none;stroke:#ffffff;stroke-width:2;stroke-miterlimit:10;stroke-dasharray:none;stroke-opacity:1" />
  <path
     fill="none"
     stroke="#fff"
     stroke-width=".759"
     stroke-miterlimit="10"
     d="m 308.40562,210.279 5.05,5.051 5.051,-5.051"
     id="path54"
     style="fill:none;stroke:#ffffff;stroke-width:2;stroke-miterlimit:10;stroke-dasharray:none;stroke-opacity:1" />
  <path
     fill="#272727"
     d="m 302.59062,207.784 8.275,-7.446 h 5.36 l 8.153,7.446 z"
     id="path56"
     style="fill:none;stroke:#ffffff;stroke-width:2;stroke-miterlimit:10;stroke-dasharray:none;stroke-opacity:1" />
  <path
     fill="none"
     stroke="#fff"
     stroke-width=".759"
     stroke-miterlimit="10"
     d="m 317.12962,204.069 h -7.334"
     id="path58"
     style="fill:none;stroke:#ffffff;stroke-width:2;stroke-miterlimit:10;stroke-dasharray:none;stroke-opacity:1" />
  <path
     fill="#202223"
     d="m 184.84162,3.213 h 159.823 l 5.23,43.754 H 19.763622 l 5.229,-43.754 H 184.81562"
     id="path60"
     style="fill:none;stroke:#ffffff;stroke-width:2;stroke-miterlimit:10;stroke-dasharray:none;stroke-opacity:1" />
  <path
     fill="#eddeae"
     d="m 295.26762,31.843 h 1.675 v -0.852 h -1.675 v -1.883 h -0.794 v 1.883 h -1.675 v 0.852 h 1.675 v 1.884 h 0.794 z"
     id="path62"
     style="fill:none;stroke:#ffffff;stroke-width:2;stroke-miterlimit:10;stroke-dasharray:none;stroke-opacity:1" />
  <path
     fill="#e3cf94"
     d="m 272.81062,27.018 h 16.119 v 6.708 h -16.119 z"
     id="path64"
     style="fill:none;stroke:#ffffff;stroke-width:2;stroke-miterlimit:10;stroke-dasharray:none;stroke-opacity:1" />
  <path
     d="m 287.65462,27.962 -1.532,2.3 1.667,2.513 h -1.539 l -0.916,-1.345 -0.923,1.348 h -1.529 c 0.042,-0.089 1.674,-2.516 1.674,-2.516 l -0.696,-0.995 -2.951,0.003 c -0.138,0.011 -0.306,-0.032 -0.375,0.128 -0.024,0.053 -0.035,0.131 -0.007,0.184 a 0.23,0.23 0 0 0 0.141,0.134 l 0.093,0.007 h 1.181 c 0.547,0.014 1.054,0.364 1.291,0.87 0.21,0.425 0.179,1.005 -0.055,1.409 -0.296,0.513 -0.823,0.8 -1.395,0.779 h -3.285 c 0,0 -0.503,-1.865 -0.506,-1.869 l -0.506,1.869 h -1.198 l -0.482,-1.876 -0.527,1.872 h -1.328 c 0,0 1.219,-4.508 1.298,-4.806 h 1.12 l 0.527,2.01 0.537,-2.01 h 1.099 l 0.94,3.501 h 2.19 c 0.151,-0.007 0.361,0.035 0.423,-0.156 a 0.239,0.239 0 0 0 -0.055,-0.234 0.278,0.278 0 0 0 -0.196,-0.064 h -1.178 a 1.494,1.494 0 0 1 -1.319,-0.945 1.564,1.564 0 0 1 0.317,-1.642 1.476,1.476 0 0 1 1.037,-0.464 l 3.864,-0.003 0.779,1.153 0.805,-1.157 z"
     fill="#202223"
     id="path66"
     style="fill:none;stroke:#ffffff;stroke-width:2;stroke-miterlimit:10;stroke-dasharray:none;stroke-opacity:1" />
  <path
     d="m 290.83762,32.784 c 0.079,-0.57 1.505,-0.919 1.505,-2.164 0,-1.186 -0.803,-1.488 -1.505,-1.488 -0.702,0 -1.45,0.546 -1.45,1.442 v 0.337 h 1.053 v -0.244 c 0,-0.308 0.147,-0.501 0.408,-0.501 0.261,0 0.384,0.157 0.384,0.477 0,0.721 -1.189,1.012 -1.686,1.92 -0.213,0.387 -0.227,1.163 -0.227,1.163 h 2.955 v -0.943 h -1.437 z"
     fill="#eddeae"
     id="path68"
     style="fill:none;stroke:#ffffff;stroke-width:2;stroke-miterlimit:10;stroke-dasharray:none;stroke-opacity:1" />
  <path
     d="m 153.52662,41.106 h -9.247 a 2.768,2.768 0 0 1 -2.76,-2.76 2.768,2.768 0 0 1 2.76,-2.76 h 9.247 a 2.768,2.768 0 0 1 2.76,2.76 2.768,2.768 0 0 1 -2.76,2.76 z"
     fill="none"
     stroke="#131314"
     stroke-width=".759"
     stroke-miterlimit="10"
     id="path70"
     style="fill:none;stroke:#ffffff;stroke-width:2;stroke-miterlimit:10;stroke-dasharray:none;stroke-opacity:1" />
  <path
     fill="#131314"
     d="m 101.04062,15.226 h 95.726 v 3.794 h -95.726 z"
     id="path72"
     style="fill:none;stroke:#ffffff;stroke-width:2;stroke-miterlimit:10;stroke-dasharray:none;stroke-opacity:1" />
  <path
     d="m 196.43462,35.586 h -95.063 a 2.768,2.768 0 0 1 -2.759998,-2.76 V 16.564 a 2.768,2.768 0 0 1 2.759998,-2.76 h 95.062 a 2.768,2.768 0 0 1 2.76,2.76 v 16.262 a 2.767,2.767 0 0 1 -2.759,2.76 z"
     fill="none"
     stroke="#131314"
     stroke-width=".759"
     stroke-miterlimit="10"
     id="path74"
     style="fill:none;stroke:#ffffff;stroke-width:2;stroke-miterlimit:10;stroke-dasharray:none;stroke-opacity:1" />
  <path
     fill="#131314"
     d="M 30.899622,3.213 H 184.84162 V 13.804 H 30.899622 Z"
     id="path76"
     style="fill:none;stroke:#ffffff;stroke-width:2;stroke-miterlimit:10;stroke-dasharray:none;stroke-opacity:1" />
  <path
     d="m 43.601622,13.804 h -9.283 a 0.713,0.713 0 0 1 -0.711,-0.711 V 1.711 a 0.712,0.712 0 0 1 0.71,-0.711 h 9.283 c 0.391,0 0.711,0.32 0.711,0.711 v 11.381 a 0.712,0.712 0 0 1 -0.71,0.712 z m 13.312,0 h -6.722 a 0.713,0.713 0 0 1 -0.711,-0.711 V 1.711 c 0,-0.391 0.32,-0.711 0.711,-0.711 h 6.721 c 0.391,0 0.711,0.32 0.711,0.711 v 11.381 a 0.712,0.712 0 0 1 -0.71,0.712 z m 13.127,0 h -6.721 a 0.713,0.713 0 0 1 -0.711,-0.711 V 1.711 c 0,-0.391 0.32,-0.711 0.711,-0.711 h 6.721 c 0.391,0 0.711,0.32 0.711,0.711 v 11.381 a 0.712,0.712 0 0 1 -0.711,0.712 z m 13.128,0 h -6.721 a 0.713,0.713 0 0 1 -0.711,-0.711 V 1.711 A 0.712,0.712 0 0 1 76.447622,1 h 6.721 c 0.391,0 0.711,0.32 0.711,0.711 v 11.381 c 0,0.392 -0.32,0.712 -0.711,0.712 z m 13.128,0 h -6.721 a 0.713,0.713 0 0 1 -0.711,-0.711 V 1.711 a 0.712,0.712 0 0 1 0.71,-0.711 h 6.721 c 0.391,0 0.711,0.32 0.711,0.711 v 11.381 a 0.712,0.712 0 0 1 -0.71,0.712 z m 13.126998,0 h -6.721 a 0.713,0.713 0 0 1 -0.711,-0.711 V 1.711 c 0,-0.391 0.32,-0.711 0.711,-0.711 h 6.721 c 0.391,0 0.711,0.32 0.711,0.711 v 11.381 a 0.713,0.713 0 0 1 -0.711,0.712 z m 13.128,0 h -6.721 a 0.713,0.713 0 0 1 -0.711,-0.711 V 1.711 c 0,-0.391 0.32,-0.711 0.711,-0.711 h 6.721 c 0.391,0 0.711,0.32 0.711,0.711 v 11.381 c 0,0.392 -0.32,0.712 -0.711,0.712 z m 13.127,0 h -6.721 a 0.713,0.713 0 0 1 -0.711,-0.711 V 1.711 c 0,-0.391 0.32,-0.711 0.711,-0.711 h 6.721 c 0.391,0 0.711,0.32 0.711,0.711 v 11.381 a 0.712,0.712 0 0 1 -0.711,0.712 z m 13.128,0 h -6.721 a 0.713,0.713 0 0 1 -0.711,-0.711 V 1.711 c 0,-0.391 0.32,-0.711 0.711,-0.711 h 6.721 c 0.391,0 0.711,0.32 0.711,0.711 v 11.381 c 0,0.392 -0.32,0.712 -0.711,0.712 z m 13.128,0 h -6.721 a 0.713,0.713 0 0 1 -0.711,-0.711 V 1.711 c 0,-0.391 0.32,-0.711 0.711,-0.711 h 6.721 c 0.391,0 0.711,0.32 0.711,0.711 v 11.381 c 0,0.392 -0.32,0.712 -0.711,0.712 z m 13.127,0 h -6.721 a 0.713,0.713 0 0 1 -0.711,-0.711 V 1.711 c 0,-0.391 0.32,-0.711 0.711,-0.711 h 6.721 c 0.391,0 0.711,0.32 0.711,0.711 v 11.381 a 0.712,0.712 0 0 1 -0.711,0.712 z"
     fill="#202223"
     id="path78"
     style="fill:none;stroke:#ffffff;stroke-width:2;stroke-miterlimit:10;stroke-dasharray:none;stroke-opacity:1" />
  <path
     fill="#131314"
     d="m 338.75862,13.804 h -153.942 V 3.213 h 153.942 z"
     id="path80"
     style="fill:none;stroke:#ffffff;stroke-width:2;stroke-miterlimit:10;stroke-dasharray:none;stroke-opacity:1" />
  <path
     d="m 326.05662,13.804 h 9.283 c 0.391,0 0.711,-0.32 0.711,-0.711 V 1.711 A 0.713,0.713 0 0 0 335.33962,1 h -9.283 a 0.713,0.713 0 0 0 -0.711,0.711 v 11.381 c 0,0.392 0.32,0.712 0.711,0.712 z m -13.312,0 h 6.721 c 0.391,0 0.711,-0.32 0.711,-0.711 V 1.711 A 0.713,0.713 0 0 0 319.46562,1 h -6.721 a 0.713,0.713 0 0 0 -0.711,0.711 v 11.381 a 0.712,0.712 0 0 0 0.711,0.712 z m -13.128,0 h 6.721 c 0.391,0 0.711,-0.32 0.711,-0.711 V 1.711 A 0.713,0.713 0 0 0 306.33762,1 h -6.721 a 0.713,0.713 0 0 0 -0.711,0.711 v 11.381 c 0,0.392 0.32,0.712 0.711,0.712 z m -13.128,0 h 6.721 c 0.391,0 0.711,-0.32 0.711,-0.711 V 1.711 A 0.713,0.713 0 0 0 293.20962,1 h -6.721 a 0.713,0.713 0 0 0 -0.711,0.711 v 11.381 c 0,0.392 0.32,0.712 0.711,0.712 z m -13.127,0 h 6.721 c 0.391,0 0.711,-0.32 0.711,-0.711 V 1.711 A 0.713,0.713 0 0 0 280.08262,1 h -6.721 a 0.713,0.713 0 0 0 -0.711,0.711 v 11.381 c 0,0.392 0.32,0.712 0.711,0.712 z m -13.128,0 h 6.721 c 0.391,0 0.711,-0.32 0.711,-0.711 V 1.711 A 0.713,0.713 0 0 0 266.95462,1 h -6.721 a 0.713,0.713 0 0 0 -0.711,0.711 v 11.381 c 0,0.392 0.32,0.712 0.711,0.712 z m -13.127,0 h 6.721 c 0.391,0 0.711,-0.32 0.711,-0.711 V 1.711 A 0.713,0.713 0 0 0 253.82762,1 h -6.721 a 0.713,0.713 0 0 0 -0.711,0.711 v 11.381 a 0.712,0.712 0 0 0 0.711,0.712 z m -13.128,0 h 6.721 c 0.391,0 0.711,-0.32 0.711,-0.711 V 1.711 A 0.713,0.713 0 0 0 240.69962,1 h -6.721 a 0.713,0.713 0 0 0 -0.711,0.711 v 11.381 c 0,0.392 0.32,0.712 0.711,0.712 z m -13.128,0 h 6.721 c 0.391,0 0.711,-0.32 0.711,-0.711 V 1.711 A 0.713,0.713 0 0 0 227.57162,1 h -6.721 a 0.713,0.713 0 0 0 -0.711,0.711 v 11.381 c 0,0.392 0.32,0.712 0.711,0.712 z m -13.127,0 h 6.721 c 0.391,0 0.711,-0.32 0.711,-0.711 V 1.711 A 0.713,0.713 0 0 0 214.44462,1 h -6.721 a 0.713,0.713 0 0 0 -0.711,0.711 v 11.381 a 0.713,0.713 0 0 0 0.711,0.712 z m -13.128,0 h 6.721 c 0.391,0 0.711,-0.32 0.711,-0.711 V 1.711 A 0.713,0.713 0 0 0 201.31662,1 h -6.721 a 0.713,0.713 0 0 0 -0.711,0.711 v 11.381 c 0,0.392 0.32,0.712 0.711,0.712 z m -6.406,0 h -6.721 a 0.713,0.713 0 0 1 -0.711,-0.711 V 1.711 c 0,-0.391 0.32,-0.711 0.711,-0.711 h 6.721 c 0.391,0 0.711,0.32 0.711,0.711 v 11.381 c 0,0.392 -0.32,0.712 -0.711,0.712 z"
     fill="#202223"
     id="path82"
     style="fill:none;stroke:#ffffff;stroke-width:2;stroke-miterlimit:10;stroke-dasharray:none;stroke-opacity:1" />
  <path
     fill="none"
     stroke="#e3cf94"
     stroke-width=".759"
     stroke-miterlimit="10"
     d="m 29.053622,17.123 h 67.954 m 239.042998,0 h -134.022"
     id="path84"
     style="fill:none;stroke:#ffffff;stroke-width:2;stroke-miterlimit:10;stroke-dasharray:none;stroke-opacity:1" />
  <path
     fill="#202223"
     d="m 30.899622,1 h -5.646 l -0.132,1.106 -0.133,1.107 h 5.911 z M 338.75762,1 h 5.646 l 0.133,1.106 0.132,1.107 h -5.911 z"
     id="path86"
     style="fill:none;stroke:#ffffff;stroke-width:2;stroke-miterlimit:10;stroke-dasharray:none;stroke-opacity:1" />
  <path
     fill="#272727"
     d="M 17.806622,71.247 H 351.85062 V 90.152 H 17.806622 Z"
     id="path88"
     style="fill:none;stroke:#ffffff;stroke-width:2;stroke-miterlimit:10;stroke-dasharray:none;stroke-opacity:1" />
  <path
     fill="#656265"
     d="M 17.806622,46.967 H 351.85062 v 24.28 H 17.806622 Z"
     id="path90"
     style="fill:none;stroke:#ffffff;stroke-width:2;stroke-miterlimit:10;stroke-dasharray:none;stroke-opacity:1" />
  <path
     fill="#202223"
     d="M 17.806622,52.784 H 351.85062 V 65.43 H 17.806622 Z"
     id="path92"
     style="fill:none;stroke:#ffffff;stroke-width:2;stroke-miterlimit:10;stroke-dasharray:none;stroke-opacity:1" />
  <path
     d="m 8.0066218,90.152 -6.955,-12.396 c 0.448,-2.306 3.618,-4.291 7.201,-5.031 L 17.806622,71.246 V 90.151 H 8.0066218 Z"
     fill="#272727"
     id="path94"
     style="fill:none;stroke:#ffffff;stroke-width:2;stroke-miterlimit:10;stroke-dasharray:none;stroke-opacity:1" />
  <path
     d="M 17.806622,65.43 V 52.785 l -8.6050002,1.578 c -3.227,0.79 -6.082,2.909 -6.486,5.372 v 0.044 l -0.616,5.761 -0.763,6.84 c 0.463,-2.462 2.896,-4.582 6.598,-5.372 z"
     fill="#202223"
     id="path96"
     style="fill:none;stroke:#ffffff;stroke-width:2;stroke-miterlimit:10;stroke-dasharray:none;stroke-opacity:1" />
  <path
     d="m 2.7166218,59.735 1.005,-6.258 c 0.377,-2.306 3.042,-4.291 6.054,-5.031 l 8.0320002,-1.479 v 5.817 l -8.6060002,1.579 c -3.227,0.79 -6.082,2.909 -6.485,5.372 z m -1.665,18.021 0.285,-5.376 c 0.463,-2.462 2.896,-4.582 6.598,-5.372 l 9.8730002,-1.579 v 5.817 l -9.5540002,1.479 c -3.584,0.74 -6.754,2.725 -7.202,5.031 l 0.142,0.253"
     fill="#656265"
     id="path98"
     style="fill:none;stroke:#ffffff;stroke-width:2;stroke-miterlimit:10;stroke-dasharray:none;stroke-opacity:1" />
  <ellipse
     cx="323.12964"
     cy="58.727001"
     rx="4.9089999"
     ry="4.6789999"
     fill="#5e5e5e"
     id="ellipse100"
     style="fill:none;stroke:#ffffff;stroke-width:2;stroke-miterlimit:10;stroke-dasharray:none;stroke-opacity:1" />
  <path
     fill="none"
     stroke="#131314"
     stroke-width=".759"
     stroke-miterlimit="10"
     d="m 208.31362,66.568 v 4.678 l -0.847,2.403"
     id="path102"
     style="fill:none;stroke:#ffffff;stroke-width:2;stroke-miterlimit:10;stroke-dasharray:none;stroke-opacity:1" />
  <g
     id="g110"
     style="fill:none;stroke:#ffffff;stroke-width:2;stroke-miterlimit:10;stroke-dasharray:none;stroke-opacity:1"
     transform="translate(1.0516218,1)">
    <path
       fill="#dddfde"
       stroke="#221d1f"
       stroke-width="0.759"
       stroke-miterlimit="10"
       d="m 233.603,84.22 h -27.864 l 3.172,-8.156 h 27.865 z"
       id="path104"
       style="fill:none;stroke:#ffffff;stroke-width:2;stroke-miterlimit:10;stroke-dasharray:none;stroke-opacity:1" />
    <g
       fill="#040006"
       id="g108"
       style="fill:none;stroke:#ffffff;stroke-width:2;stroke-miterlimit:10;stroke-dasharray:none;stroke-opacity:1">
      <path
         d="m 219.058,81.375 h -5.185 l 0.558,-3.162 h 5.184 z m 5.872,0 h -3.706 l 0.557,-3.162 h 3.707 z m 6.853,0 h -4.489 l 0.557,-3.162 h 4.489 z m -20.072,-2.348 h -2.229 l 0.255,-1.446 h 2.229 z"
         id="path106"
         style="fill:none;stroke:#ffffff;stroke-width:2;stroke-miterlimit:10;stroke-dasharray:none;stroke-opacity:1" />
    </g>
  </g>
  <g
     id="g118"
     style="fill:none;stroke:#ffffff;stroke-width:2;stroke-miterlimit:10;stroke-dasharray:none;stroke-opacity:1"
     transform="translate(1.0516218,1)">
    <path
       fill="#dddfde"
       stroke="#221d1f"
       stroke-width="0.759"
       stroke-miterlimit="10"
       d="m 261.339,84.22 h -27.865 l 3.173,-8.156 h 27.864 z"
       id="path112"
       style="fill:none;stroke:#ffffff;stroke-width:2;stroke-miterlimit:10;stroke-dasharray:none;stroke-opacity:1" />
    <g
       fill="#040006"
       id="g116"
       style="fill:none;stroke:#ffffff;stroke-width:2;stroke-miterlimit:10;stroke-dasharray:none;stroke-opacity:1">
      <path
         d="m 246.793,81.375 h -5.184 l 0.557,-3.162 h 5.185 z m 5.873,0 h -3.707 l 0.557,-3.162 h 3.707 z m 6.852,0 h -4.489 l 0.557,-3.162 h 4.49 z m -20.072,-2.348 h -2.229 l 0.255,-1.446 h 2.229 z"
         id="path114"
         style="fill:none;stroke:#ffffff;stroke-width:2;stroke-miterlimit:10;stroke-dasharray:none;stroke-opacity:1" />
    </g>
  </g>
  <g
     id="g126"
     style="fill:none;stroke:#ffffff;stroke-width:2;stroke-miterlimit:10;stroke-dasharray:none;stroke-opacity:1"
     transform="translate(1.0516218,1)">
    <path
       fill="#dddfde"
       stroke="#221d1f"
       stroke-width="0.759"
       stroke-miterlimit="10"
       d="m 289.181,84.22 h -27.864 l 3.172,-8.156 h 27.864 z"
       id="path120"
       style="fill:none;stroke:#ffffff;stroke-width:2;stroke-miterlimit:10;stroke-dasharray:none;stroke-opacity:1" />
    <g
       fill="#040006"
       id="g124"
       style="fill:none;stroke:#ffffff;stroke-width:2;stroke-miterlimit:10;stroke-dasharray:none;stroke-opacity:1">
      <path
         d="m 274.636,81.375 h -5.185 l 0.557,-3.162 h 5.185 z m 5.872,0 h -3.707 l 0.558,-3.162 h 3.706 z m 6.852,0 h -4.489 l 0.558,-3.162 h 4.489 z m -20.072,-2.348 h -2.229 l 0.256,-1.446 h 2.228 z"
         id="path122"
         style="fill:none;stroke:#ffffff;stroke-width:2;stroke-miterlimit:10;stroke-dasharray:none;stroke-opacity:1" />
    </g>
  </g>
  <g
     id="g134"
     style="fill:none;stroke:#ffffff;stroke-width:2;stroke-miterlimit:10;stroke-dasharray:none;stroke-opacity:1"
     transform="translate(1.0516218,1)">
    <path
       fill="#dddfde"
       stroke="#221d1f"
       stroke-width="0.759"
       stroke-miterlimit="10"
       d="m 317.088,84.22 h -27.864 l 3.173,-8.156 h 27.864 z"
       id="path128"
       style="fill:none;stroke:#ffffff;stroke-width:2;stroke-miterlimit:10;stroke-dasharray:none;stroke-opacity:1" />
    <g
       fill="#040006"
       id="g132"
       style="fill:none;stroke:#ffffff;stroke-width:2;stroke-miterlimit:10;stroke-dasharray:none;stroke-opacity:1">
      <path
         d="m 302.543,81.375 h -5.185 l 0.558,-3.162 h 5.185 z m 5.872,0 h -3.706 l 0.557,-3.162 h 3.707 z m 6.853,0 h -4.489 l 0.557,-3.162 h 4.489 z m -20.072,-2.348 h -2.229 l 0.255,-1.446 h 2.229 z"
         id="path130"
         style="fill:none;stroke:#ffffff;stroke-width:2;stroke-miterlimit:10;stroke-dasharray:none;stroke-opacity:1" />
    </g>
  </g>
  <g
     id="g142"
     style="fill:none;stroke:#ffffff;stroke-width:2;stroke-miterlimit:10;stroke-dasharray:none;stroke-opacity:1"
     transform="translate(1.0516218,1)">
    <path
       fill="#7c3036"
       stroke="#221d1f"
       stroke-width="0.759"
       stroke-miterlimit="10"
       d="m 345.037,84.22 h -27.864 l 3.172,-8.156 h 27.864 z"
       id="path136"
       style="fill:none;stroke:#ffffff;stroke-width:2;stroke-miterlimit:10;stroke-dasharray:none;stroke-opacity:1" />
    <g
       fill="#8e9092"
       id="g140"
       style="fill:none;stroke:#ffffff;stroke-width:2;stroke-miterlimit:10;stroke-dasharray:none;stroke-opacity:1">
      <path
         d="m 330.492,81.375 h -5.185 l 0.557,-3.162 h 5.185 z m 5.872,0 h -3.707 l 0.558,-3.162 h 3.706 z m 6.852,0 h -4.489 l 0.557,-3.162 h 4.49 z m -20.072,-2.348 h -2.229 l 0.255,-1.446 h 2.229 z"
         id="path138"
         style="fill:none;stroke:#ffffff;stroke-width:2;stroke-miterlimit:10;stroke-dasharray:none;stroke-opacity:1" />
    </g>
  </g>
  <path
     fill="#dddfde"
     stroke="#221d1f"
     stroke-width=".759"
     stroke-miterlimit="10"
     d="m 184.85562,77.064 h 4.805 v 8.156 h -4.805 z"
     id="path144"
     style="fill:none;stroke:#ffffff;stroke-width:2;stroke-miterlimit:10;stroke-dasharray:none;stroke-opacity:1" />
  <path
     fill="none"
     stroke="#131314"
     stroke-width=".759"
     stroke-miterlimit="10"
     d="M 182.74362,90.152 H 79.201622 l -3.73,-16.503 H 182.74362 Z"
     id="path146"
     style="fill:none;stroke:#ffffff;stroke-width:2;stroke-miterlimit:10;stroke-dasharray:none;stroke-opacity:1" />
  <path
     fill="#5e5e5e"
     d="m 121.94362,81.142 h 2.023 v 5.532 h -2.023 z m 2.703,0 h 2.023 v 5.532 h -2.023 z m 2.703,0 h 2.023 v 5.532 h -2.023 z m 2.703,0 h 2.023 v 5.532 h -2.023 z m 2.703,0 h 2.023 v 5.532 h -2.023 z"
     id="path148"
     style="fill:none;stroke:#ffffff;stroke-width:2;stroke-miterlimit:10;stroke-dasharray:none;stroke-opacity:1" />
  <path
     fill="none"
     stroke="#131314"
     stroke-width=".759"
     stroke-miterlimit="10"
     d="m 121.94362,83.908 h 12.836"
     id="path150"
     style="fill:none;stroke:#ffffff;stroke-width:2;stroke-miterlimit:10;stroke-dasharray:none;stroke-opacity:1" />
  <path
     fill="#5e5e5e"
     d="m 165.98262,81.142 h 2.023 v 5.532 h -2.023 z m 2.703,0 h 2.023 v 5.532 h -2.023 z m 2.703,0 h 2.023 v 5.532 h -2.023 z"
     id="path152"
     style="fill:none;stroke:#ffffff;stroke-width:2;stroke-miterlimit:10;stroke-dasharray:none;stroke-opacity:1" />
  <path
     fill="none"
     stroke="#131314"
     stroke-width=".759"
     stroke-miterlimit="10"
     d="m 165.98262,83.908 h 7.429 M 90.456622,81.142 h 65.377998 v 5.532 H 90.456622 Z"
     id="path154"
     style="fill:none;stroke:#ffffff;stroke-width:2;stroke-miterlimit:10;stroke-dasharray:none;stroke-opacity:1" />
  <path
     d="m 118.29362,78.436 h -0.192 a 1.045,1.045 0 0 1 -1.042,-1.042 c 0,-0.573 0.469,-1.042 1.042,-1.042 h 0.192 c 0.573,0 1.042,0.469 1.042,1.042 0,0.573 -0.469,1.042 -1.042,1.042 z m 2.94,0 h -0.192 a 1.045,1.045 0 0 1 -1.042,-1.042 c 0,-0.573 0.469,-1.042 1.042,-1.042 h 0.192 c 0.573,0 1.042,0.469 1.042,1.042 0,0.573 -0.469,1.042 -1.042,1.042 z m 2.94,0 h -0.192 a 1.045,1.045 0 0 1 -1.042,-1.042 c 0,-0.573 0.469,-1.042 1.042,-1.042 h 0.192 c 0.573,0 1.042,0.469 1.042,1.042 0,0.573 -0.468,1.042 -1.042,1.042 z m 2.941,0 h -0.192 a 1.045,1.045 0 0 1 -1.042,-1.042 c 0,-0.573 0.469,-1.042 1.042,-1.042 h 0.192 c 0.573,0 1.042,0.469 1.042,1.042 0,0.573 -0.469,1.042 -1.042,1.042 z"
     fill="#eddeae"
     id="path156"
     style="fill:none;stroke:#ffffff;stroke-width:2;stroke-miterlimit:10;stroke-dasharray:none;stroke-opacity:1" />
  <path
     d="m 361.65062,90.144 6.955,-12.396 c -0.448,-2.306 -3.618,-4.291 -7.201,-5.031 l -9.555,-1.479 v 18.905 h 9.801 z"
     fill="#272727"
     id="path158"
     style="fill:none;stroke:#ffffff;stroke-width:2;stroke-miterlimit:10;stroke-dasharray:none;stroke-opacity:1" />
  <path
     d="M 351.85062,65.422 V 52.776 l 8.605,1.579 c 3.227,0.79 6.082,2.909 6.486,5.372 v 0.044 l 0.617,5.761 0.763,6.84 c -0.463,-2.462 -2.896,-4.582 -6.598,-5.372 z"
     fill="#202223"
     id="path160"
     style="fill:none;stroke:#ffffff;stroke-width:2;stroke-miterlimit:10;stroke-dasharray:none;stroke-opacity:1" />
  <path
     d="m 366.94162,59.727 -1.005,-6.258 c -0.377,-2.306 -3.042,-4.291 -6.054,-5.031 l -8.032,-1.479 v 5.817 l 8.605,1.579 c 3.227,0.79 6.082,2.91 6.486,5.372 z m 1.664,18.021 -0.285,-5.376 c -0.463,-2.462 -2.896,-4.582 -6.598,-5.372 l -9.873,-1.579 v 5.817 l 9.555,1.479 c 3.583,0.74 6.754,2.725 7.201,5.031 l -0.142,0.253"
     fill="#656265"
     id="path162"
     style="fill:none;stroke:#ffffff;stroke-width:2;stroke-miterlimit:10;stroke-dasharray:none;stroke-opacity:1" />
  <path
     fill="#181718"
     d="m 134.77962,81.142 h 21.055 v 5.532 h -21.055 z"
     id="path164"
     style="fill:none;stroke:#ffffff;stroke-width:2;stroke-miterlimit:10;stroke-dasharray:none;stroke-opacity:1" />
  <path
     fill="none"
     stroke="#131314"
     stroke-width=".759"
     stroke-miterlimit="10"
     d="m 222.69862,66.568 v 4.678 l -0.847,2.403 m 15.398,-7.081 v 4.678 l -0.847,2.403 m 15.552,-7.081 v 4.678 l -0.847,2.403 m 15.232,-7.081 v 4.678 l -0.847,2.403 m 15.398,-7.081 v 4.678 l -0.847,2.403 m 13.251,-6.892 v 4.679 l -0.847,2.403 m 15.118,-7.082 v 4.679 l -0.848,2.403 m 14.631,-7.082 v 4.679 l -0.847,2.403 m 14.207,-7.082 v 4.679 l -0.847,2.403 m 14.077,-7.082 v 4.679 l -0.848,2.403"
     id="path166"
     style="fill:none;stroke:#ffffff;stroke-width:2;stroke-miterlimit:10;stroke-dasharray:none;stroke-opacity:1" />
  <path
     d="M 347.93862,96.285 H 21.713622 c -3.282,0.028 -6.164,1.815 -7.745,4.459 l -0.004,-0.002 -5.9420002,-10.59 h -0.016 353.6449982 v -0.008 l -5.94,10.559 0.006,-0.004 c -1.599,-2.64 -4.5,-4.414 -7.795,-4.414"
     fill="#656265"
     id="path168"
     style="fill:none;stroke:#ffffff;stroke-width:2;stroke-miterlimit:10;stroke-dasharray:none;stroke-opacity:1" />
</svg>
