<?xml version="1.0" encoding="UTF-8" standalone="no"?>
<svg
   viewBox="0 0 369.65724 239.422"
   version="1.1"
   id="svg176"
   sodipodi:docname="msxturbor_controller.svg"
   width="369.65723"
   height="239.422"
   inkscape:version="1.1.2 (0a00cf5339, 2022-02-04)"
   xmlns:inkscape="http://www.inkscape.org/namespaces/inkscape"
   xmlns:sodipodi="http://sodipodi.sourceforge.net/DTD/sodipodi-0.dtd"
   xmlns="http://www.w3.org/2000/svg"
   xmlns:svg="http://www.w3.org/2000/svg">
  <defs
     id="defs180" />
  <sodipodi:namedview
     id="namedview178"
     pagecolor="#ffffff"
     bordercolor="#666666"
     borderopacity="1.0"
     inkscape:pageshadow="2"
     inkscape:pageopacity="0.0"
     inkscape:pagecheckerboard="true"
     showgrid="false"
     fit-margin-top="0"
     fit-margin-left="0"
     fit-margin-right="0"
     fit-margin-bottom="0"
     inkscape:zoom="3.4621897"
     inkscape:cx="184.99853"
     inkscape:cy="119.5775"
     inkscape:window-width="2560"
     inkscape:window-height="1440"
     inkscape:window-x="1920"
     inkscape:window-y="0"
     inkscape:window-maximized="1"
     inkscape:current-layer="svg176" />
  <path
     d="M 347.92162,238.422 H 21.790622 c -5.008,0 -9.105,-4.097 -9.105,-9.105 V 105.39 c 0,-5.008 4.097,-9.105 9.105,-9.105 H 347.92162 c 5.008,0 9.105,4.097 9.105,9.105 v 123.927 c 0,5.008 -4.097,9.105 -9.105,9.105 z"
     fill="#637080"
     id="path2"
     style="fill:none;stroke:#ffffff;stroke-width:2;stroke-miterlimit:10;stroke-dasharray:none;stroke-opacity:1" />
  <path
     d="m 198.35562,119.426 h -44.067 a 1.333,1.333 0 0 1 -1.329,-1.329 v -7.205 c 0,-0.731 0.598,-1.329 1.329,-1.329 h 44.067 c 0.731,0 1.329,0.598 1.329,1.329 v 7.205 c 0,0.731 -0.598,1.329 -1.329,1.329 z m 72.616,0 h -67.443 a 1.333,1.333 0 0 1 -1.329,-1.329 v -7.205 c 0,-0.731 0.598,-1.329 1.329,-1.329 h 67.443 c 0.731,0 1.329,0.598 1.329,1.329 v 7.205 c 0,0.731 -0.598,1.329 -1.329,1.329 z m -121.487,0 H 36.463622 a 1.333,1.333 0 0 1 -1.329,-1.329 v -7.205 c 0,-0.731 0.598,-1.329 1.329,-1.329 H 149.48362 c 0.731,0 1.329,0.598 1.329,1.329 v 7.205 a 1.331,1.331 0 0 1 -1.328,1.329 z m 128.067,8.746 c 0,-0.676 -0.523,-1.221 -1.175,-1.221 H 33.060622 c -0.652,0 -1.176,0.544 -1.175,1.221 v 64.882 c 0,0.675 0.524,1.221 1.175,1.221 h 29.99 v 16.941 c 0,0.677 0.524,1.221 1.175,1.221 H 276.37662 c 0.651,0 1.175,-0.545 1.175,-1.221 v 0.011 z m 66.458,42.458 h -62.165 a 1.79,1.79 0 0 1 -1.785,-1.785 V 106.68 a 1.79,1.79 0 0 1 1.785,-1.785 h 62.165 a 1.79,1.79 0 0 1 1.785,1.785 v 62.165 a 1.79,1.79 0 0 1 -1.785,1.785 z"
     fill="#221d1f"
     id="path4"
     style="fill:none;stroke:#ffffff;stroke-width:2;stroke-miterlimit:10;stroke-dasharray:none;stroke-opacity:1" />
  <path
     d="M 274.44362,125.876 H 34.390622 a 2.514,2.514 0 0 1 -2.506,-2.506 v -17.75 a 2.514,2.514 0 0 1 2.506,-2.506 H 274.44362 a 2.514,2.514 0 0 1 2.506,2.506 v 17.75 a 2.514,2.514 0 0 1 -2.506,2.506 z"
     fill="none"
     stroke="#4f5962"
     stroke-width=".75"
     stroke-miterlimit="10"
     id="path6"
     style="fill:none;stroke:#ffffff;stroke-width:2;stroke-miterlimit:10;stroke-dasharray:none;stroke-opacity:1" />
  <path
     d="m 56.242622,145.476 h 11.78 c 0.644,0 1.16,0.519 1.16,1.161 v 11.78 c 0,0.642 -0.517,1.16 -1.16,1.16 h -11.78 c -0.643,0 -1.16,-0.519 -1.16,-1.16 v -11.78 a 1.156,1.156 0 0 1 1.16,-1.161 z m 16.313,0 h 11.78 c 0.644,0 1.16,0.519 1.16,1.161 v 11.78 c 0,0.642 -0.517,1.16 -1.16,1.16 h -11.78 c -0.643,0 -1.16,-0.519 -1.16,-1.16 v -11.78 a 1.156,1.156 0 0 1 1.16,-1.161 z m 16.312,0 h 11.779998 c 0.644,0 1.16,0.519 1.16,1.161 v 11.78 c 0,0.642 -0.517,1.16 -1.16,1.16 H 88.867622 c -0.643,0 -1.16,-0.519 -1.16,-1.16 v -11.78 c 0,-0.644 0.517,-1.161 1.16,-1.161 z m 16.312998,0 h 11.78 c 0.644,0 1.16,0.519 1.16,1.161 v 11.78 c 0,0.642 -0.517,1.16 -1.16,1.16 h -11.78 c -0.643,0 -1.16,-0.519 -1.16,-1.16 v -11.78 c 0,-0.644 0.517,-1.161 1.16,-1.161 z m 16.313,0 h 11.78 c 0.644,0 1.16,0.519 1.16,1.161 v 11.78 c 0,0.642 -0.517,1.16 -1.16,1.16 h -11.78 c -0.643,0 -1.16,-0.519 -1.16,-1.16 v -11.78 a 1.156,1.156 0 0 1 1.16,-1.161 z m 16.313,0 h 11.78 c 0.644,0 1.16,0.519 1.16,1.161 v 11.78 c 0,0.642 -0.517,1.16 -1.16,1.16 h -11.78 c -0.643,0 -1.16,-0.519 -1.16,-1.16 v -11.78 a 1.156,1.156 0 0 1 1.16,-1.161 z m 16.313,0 h 11.78 c 0.644,0 1.16,0.519 1.16,1.161 v 11.78 c 0,0.642 -0.517,1.16 -1.16,1.16 h -11.78 c -0.643,0 -1.16,-0.519 -1.16,-1.16 v -11.78 a 1.156,1.156 0 0 1 1.16,-1.161 z m 16.313,0 h 11.78 c 0.644,0 1.16,0.519 1.16,1.161 v 11.78 c 0,0.642 -0.517,1.16 -1.16,1.16 h -11.78 c -0.643,0 -1.16,-0.519 -1.16,-1.16 v -11.78 a 1.156,1.156 0 0 1 1.16,-1.161 z m 16.313,0 h 11.78 c 0.644,0 1.16,0.519 1.16,1.161 v 11.78 c 0,0.642 -0.517,1.16 -1.16,1.16 h -11.78 c -0.643,0 -1.16,-0.519 -1.16,-1.16 v -11.78 a 1.156,1.156 0 0 1 1.16,-1.161 z m 16.313,0 h 11.78 c 0.644,0 1.16,0.519 1.16,1.161 v 11.78 c 0,0.642 -0.517,1.16 -1.16,1.16 h -11.78 c -0.643,0 -1.16,-0.519 -1.16,-1.16 v -11.78 a 1.156,1.156 0 0 1 1.16,-1.161 z m 16.312,0 h 11.78 c 0.644,0 1.16,0.519 1.16,1.161 v 11.78 c 0,0.642 -0.517,1.16 -1.16,1.16 h -11.78 c -0.643,0 -1.16,-0.519 -1.16,-1.16 v -11.78 c 0,-0.644 0.517,-1.161 1.16,-1.161 z m 16.313,0 h 11.78 c 0.644,0 1.16,0.519 1.16,1.161 v 11.78 c 0,0.642 -0.517,1.16 -1.16,1.16 h -11.78 c -0.643,0 -1.16,-0.519 -1.16,-1.16 v -11.78 c 0,-0.644 0.517,-1.161 1.16,-1.161 z M 61.806622,162.105 h 11.78 c 0.644,0 1.16,0.519 1.16,1.161 v 11.78 c 0,0.642 -0.517,1.16 -1.16,1.16 h -11.78 c -0.643,0 -1.16,-0.519 -1.16,-1.16 v -11.78 a 1.156,1.156 0 0 1 1.16,-1.161 z m 16.313,0 h 11.78 c 0.644,0 1.16,0.519 1.16,1.161 v 11.78 c 0,0.642 -0.517,1.16 -1.16,1.16 h -11.78 c -0.643,0 -1.16,-0.519 -1.16,-1.16 v -11.78 a 1.156,1.156 0 0 1 1.16,-1.161 z m 16.313,0 h 11.779998 c 0.644,0 1.16,0.519 1.16,1.161 v 11.78 c 0,0.642 -0.517,1.16 -1.16,1.16 H 94.432622 c -0.643,0 -1.16,-0.519 -1.16,-1.16 v -11.78 a 1.156,1.156 0 0 1 1.16,-1.161 z m 16.311998,0 h 11.78 c 0.644,0 1.16,0.519 1.16,1.161 v 11.78 c 0,0.642 -0.517,1.16 -1.16,1.16 h -11.78 c -0.643,0 -1.16,-0.519 -1.16,-1.16 v -11.78 c 0,-0.644 0.517,-1.161 1.16,-1.161 z m 16.313,0 h 11.78 c 0.644,0 1.16,0.519 1.16,1.161 v 11.78 c 0,0.642 -0.517,1.16 -1.16,1.16 h -11.78 c -0.643,0 -1.16,-0.519 -1.16,-1.16 v -11.78 c 0,-0.644 0.517,-1.161 1.16,-1.161 z m 16.313,0 h 11.78 c 0.644,0 1.16,0.519 1.16,1.161 v 11.78 c 0,0.642 -0.517,1.16 -1.16,1.16 h -11.78 c -0.643,0 -1.16,-0.519 -1.16,-1.16 v -11.78 a 1.156,1.156 0 0 1 1.16,-1.161 z m 16.313,0 h 11.78 c 0.644,0 1.16,0.519 1.16,1.161 v 11.78 c 0,0.642 -0.517,1.16 -1.16,1.16 h -11.78 c -0.643,0 -1.16,-0.519 -1.16,-1.16 v -11.78 a 1.156,1.156 0 0 1 1.16,-1.161 z m 16.313,0 h 11.78 c 0.644,0 1.16,0.519 1.16,1.161 v 11.78 c 0,0.642 -0.517,1.16 -1.16,1.16 h -11.78 c -0.643,0 -1.16,-0.519 -1.16,-1.16 v -11.78 a 1.156,1.156 0 0 1 1.16,-1.161 z m 16.313,0 h 11.78 c 0.644,0 1.16,0.519 1.16,1.161 v 11.78 c 0,0.642 -0.517,1.16 -1.16,1.16 h -11.78 c -0.643,0 -1.16,-0.519 -1.16,-1.16 v -11.78 a 1.156,1.156 0 0 1 1.16,-1.161 z m 16.313,0 h 11.78 c 0.644,0 1.16,0.519 1.16,1.161 v 11.78 c 0,0.642 -0.517,1.16 -1.16,1.16 h -11.78 c -0.643,0 -1.16,-0.519 -1.16,-1.16 v -11.78 a 1.156,1.156 0 0 1 1.16,-1.161 z m 16.313,0 h 11.78 c 0.644,0 1.16,0.519 1.16,1.161 v 11.78 c 0,0.642 -0.517,1.16 -1.16,1.16 h -11.78 c -0.643,0 -1.16,-0.519 -1.16,-1.16 v -11.78 a 1.156,1.156 0 0 1 1.16,-1.161 z m 16.312,0 h 11.78 c 0.644,0 1.16,0.519 1.16,1.161 v 11.78 c 0,0.642 -0.517,1.16 -1.16,1.16 h -11.78 c -0.643,0 -1.16,-0.519 -1.16,-1.16 v -11.78 c 0,-0.644 0.517,-1.161 1.16,-1.161 z M 67.212622,178.734 h 11.78 c 0.644,0 1.16,0.519 1.16,1.161 v 11.78 c 0,0.642 -0.517,1.16 -1.16,1.16 h -11.78 c -0.643,0 -1.16,-0.519 -1.16,-1.16 v -11.78 a 1.156,1.156 0 0 1 1.16,-1.161 z m 16.313,0 h 11.78 c 0.644,0 1.16,0.519 1.16,1.161 v 11.78 c 0,0.642 -0.517,1.16 -1.16,1.16 h -11.78 c -0.643,0 -1.16,-0.519 -1.16,-1.16 v -11.78 a 1.156,1.156 0 0 1 1.16,-1.161 z m 16.312,0 h 11.779998 c 0.644,0 1.16,0.519 1.16,1.161 v 11.78 c 0,0.642 -0.517,1.16 -1.16,1.16 H 99.837622 c -0.643,0 -1.16,-0.519 -1.16,-1.16 v -11.78 c 0,-0.644 0.517,-1.161 1.16,-1.161 z m 16.312998,0 h 11.78 c 0.644,0 1.16,0.519 1.16,1.161 v 11.78 c 0,0.642 -0.517,1.16 -1.16,1.16 h -11.78 c -0.643,0 -1.16,-0.519 -1.16,-1.16 v -11.78 c 0,-0.644 0.517,-1.161 1.16,-1.161 z m 16.313,0 h 11.78 c 0.644,0 1.16,0.519 1.16,1.161 v 11.78 c 0,0.642 -0.517,1.16 -1.16,1.16 h -11.78 c -0.643,0 -1.16,-0.519 -1.16,-1.16 v -11.78 a 1.156,1.156 0 0 1 1.16,-1.161 z m 16.313,0 h 11.78 c 0.644,0 1.16,0.519 1.16,1.161 v 11.78 c 0,0.642 -0.517,1.16 -1.16,1.16 h -11.78 c -0.643,0 -1.16,-0.519 -1.16,-1.16 v -11.78 a 1.156,1.156 0 0 1 1.16,-1.161 z m 16.313,0 h 11.78 c 0.644,0 1.16,0.519 1.16,1.161 v 11.78 c 0,0.642 -0.517,1.16 -1.16,1.16 h -11.78 c -0.643,0 -1.16,-0.519 -1.16,-1.16 v -11.78 a 1.156,1.156 0 0 1 1.16,-1.161 z m 16.313,0 h 11.78 c 0.644,0 1.16,0.519 1.16,1.161 v 11.78 c 0,0.642 -0.517,1.16 -1.16,1.16 h -11.78 c -0.643,0 -1.16,-0.519 -1.16,-1.16 v -11.78 a 1.156,1.156 0 0 1 1.16,-1.161 z m 16.313,0 h 11.78 c 0.644,0 1.16,0.519 1.16,1.161 v 11.78 c 0,0.642 -0.517,1.16 -1.16,1.16 h -11.78 c -0.643,0 -1.16,-0.519 -1.16,-1.16 v -11.78 a 1.156,1.156 0 0 1 1.16,-1.161 z m 16.313,0 h 11.78 c 0.644,0 1.16,0.519 1.16,1.161 v 11.78 c 0,0.642 -0.517,1.16 -1.16,1.16 h -11.78 c -0.643,0 -1.16,-0.519 -1.16,-1.16 v -11.78 a 1.156,1.156 0 0 1 1.16,-1.161 z m 16.312,0 h 11.78 c 0.644,0 1.16,0.519 1.16,1.161 v 11.78 c 0,0.642 -0.517,1.16 -1.16,1.16 h -11.78 c -0.643,0 -1.16,-0.519 -1.16,-1.16 v -11.78 c 0,-0.644 0.517,-1.161 1.16,-1.161 z M 51.057622,128.847 h 11.78 c 0.644,0 1.16,0.519 1.16,1.161 v 11.78 c 0,0.642 -0.517,1.16 -1.16,1.16 h -11.78 c -0.643,0 -1.16,-0.519 -1.16,-1.16 v -11.78 a 1.156,1.156 0 0 1 1.16,-1.161 z m 16.313,0 h 11.78 c 0.644,0 1.16,0.519 1.16,1.161 v 11.78 c 0,0.642 -0.517,1.16 -1.16,1.16 h -11.78 c -0.643,0 -1.16,-0.519 -1.16,-1.16 v -11.78 a 1.156,1.156 0 0 1 1.16,-1.161 z m 16.313,0 h 11.78 c 0.644,0 1.16,0.519 1.16,1.161 v 11.78 c 0,0.642 -0.517,1.16 -1.16,1.16 h -11.78 c -0.643,0 -1.16,-0.519 -1.16,-1.16 v -11.78 a 1.156,1.156 0 0 1 1.16,-1.161 z m 16.313,0 h 11.779998 c 0.644,0 1.16,0.519 1.16,1.161 v 11.78 c 0,0.642 -0.517,1.16 -1.16,1.16 H 99.996622 c -0.643,0 -1.16,-0.519 -1.16,-1.16 v -11.78 a 1.156,1.156 0 0 1 1.16,-1.161 z m 16.312998,0 h 11.78 c 0.644,0 1.16,0.519 1.16,1.161 v 11.78 c 0,0.642 -0.517,1.16 -1.16,1.16 h -11.78 c -0.643,0 -1.16,-0.519 -1.16,-1.16 v -11.78 a 1.156,1.156 0 0 1 1.16,-1.161 z m 16.312,0 h 11.78 c 0.644,0 1.16,0.519 1.16,1.161 v 11.78 c 0,0.642 -0.517,1.16 -1.16,1.16 h -11.78 c -0.643,0 -1.16,-0.519 -1.16,-1.16 v -11.78 c 0,-0.644 0.517,-1.161 1.16,-1.161 z m 16.313,0 h 11.78 c 0.644,0 1.16,0.519 1.16,1.161 v 11.78 c 0,0.642 -0.517,1.16 -1.16,1.16 h -11.78 c -0.643,0 -1.16,-0.519 -1.16,-1.16 v -11.78 a 1.157,1.157 0 0 1 1.16,-1.161 z m 16.313,0 h 11.78 c 0.644,0 1.16,0.519 1.16,1.161 v 11.78 c 0,0.642 -0.517,1.16 -1.16,1.16 h -11.78 c -0.643,0 -1.16,-0.519 -1.16,-1.16 v -11.78 a 1.156,1.156 0 0 1 1.16,-1.161 z m 16.313,0 h 11.78 c 0.644,0 1.16,0.519 1.16,1.161 v 11.78 c 0,0.642 -0.517,1.16 -1.16,1.16 h -11.78 c -0.643,0 -1.16,-0.519 -1.16,-1.16 v -11.78 a 1.156,1.156 0 0 1 1.16,-1.161 z m 16.313,0 h 11.78 c 0.644,0 1.16,0.519 1.16,1.161 v 11.78 c 0,0.642 -0.517,1.16 -1.16,1.16 h -11.78 c -0.643,0 -1.16,-0.519 -1.16,-1.16 v -11.78 a 1.156,1.156 0 0 1 1.16,-1.161 z m 16.313,0 h 11.78 c 0.644,0 1.16,0.519 1.16,1.161 v 11.78 c 0,0.642 -0.517,1.16 -1.16,1.16 h -11.78 c -0.643,0 -1.16,-0.519 -1.16,-1.16 v -11.78 a 1.156,1.156 0 0 1 1.16,-1.161 z m 16.313,0 h 11.78 c 0.644,0 1.16,0.519 1.16,1.161 v 11.78 c 0,0.642 -0.517,1.16 -1.16,1.16 h -11.78 c -0.643,0 -1.16,-0.519 -1.16,-1.16 v -11.78 a 1.156,1.156 0 0 1 1.16,-1.161 z m 16.313,0 h 11.78 c 0.644,0 1.16,0.519 1.16,1.161 v 11.78 c 0,0.642 -0.517,1.16 -1.16,1.16 h -11.78 c -0.643,0 -1.16,-0.519 -1.16,-1.16 v -11.78 a 1.156,1.156 0 0 1 1.16,-1.161 z"
     fill="#c6d1d5"
     id="path8"
     style="fill:none;stroke:#ffffff;stroke-width:2;stroke-miterlimit:10;stroke-dasharray:none;stroke-opacity:1" />
  <path
     d="m 275.05262,195.995 c 0.562,0 1.012,0.519 1.012,1.161 v 11.78 c 0,0.642 -0.451,1.16 -1.012,1.16 h -23.203 c -0.561,0 -1.012,-0.519 -1.012,-1.16 v -11.78 c -10e-4,-0.644 0.451,-1.161 1.012,-1.161 z"
     fill="#6d7a8a"
     id="path10"
     style="fill:none;stroke:#ffffff;stroke-width:2;stroke-miterlimit:10;stroke-dasharray:none;stroke-opacity:1" />
  <path
     d="m 178.78362,118.31 c -0.643,0 -1.16,-0.519 -1.16,-1.16 v -5.31 a 1.156,1.156 0 0 1 1.16,-1.161 h 18.44 c 0.644,0 1.16,0.519 1.16,1.161 v 5.31 c 0,0.642 -0.517,1.16 -1.16,1.16 z"
     fill="#5d5d5d"
     id="path12"
     style="fill:none;stroke:#ffffff;stroke-width:2;stroke-miterlimit:10;stroke-dasharray:none;stroke-opacity:1" />
  <path
     d="m 274.93962,178.734 c 0.624,0 1.125,0.519 1.125,1.161 v 11.78 c 0,0.642 -0.501,1.16 -1.125,1.16 h -25.772 c -0.623,0 -1.125,-0.519 -1.125,-1.16 v -11.78 c -0.001,-0.644 0.501,-1.161 1.125,-1.161 z M 34.744622,128.847 h 11.78 c 0.644,0 1.16,0.519 1.16,1.161 v 11.78 c 0,0.642 -0.517,1.16 -1.16,1.16 h -11.78 c -0.643,0 -1.16,-0.519 -1.16,-1.16 v -11.78 a 1.156,1.156 0 0 1 1.16,-1.161 z m 228.379998,0 h 11.78 c 0.644,0 1.16,0.519 1.16,1.161 v 11.78 c 0,0.642 -0.517,1.16 -1.16,1.16 h -11.78 c -0.643,0 -1.16,-0.519 -1.16,-1.16 v -11.78 c 0,-0.644 0.517,-1.161 1.16,-1.161 z M 57.435622,162.105 c 0.553,0 0.997,0.519 0.997,1.161 v 11.78 c 0,0.642 -0.444,1.16 -0.997,1.16 h -22.854 c -0.553,0 -0.997,-0.519 -0.997,-1.16 v -11.78 c -0.001,-0.644 0.444,-1.161 0.997,-1.161 z m 8.07,33.89 h 11.78 c 0.644,0 1.16,0.519 1.16,1.161 v 11.78 c 0,0.642 -0.517,1.16 -1.16,1.16 h -11.78 c -0.643,0 -1.16,-0.519 -1.16,-1.16 v -11.78 a 1.156,1.156 0 0 1 1.16,-1.161 z m 16.313,0 h 11.78 c 0.644,0 1.16,0.519 1.16,1.161 v 11.78 c 0,0.642 -0.517,1.16 -1.16,1.16 h -11.78 c -0.643,0 -1.16,-0.519 -1.16,-1.16 v -11.78 a 1.156,1.156 0 0 1 1.16,-1.161 z m 16.313,0 h 11.779998 c 0.644,0 1.16,0.519 1.16,1.161 v 11.78 c 0,0.642 -0.517,1.16 -1.16,1.16 H 98.131622 c -0.643,0 -1.16,-0.519 -1.16,-1.16 v -11.78 a 1.156,1.156 0 0 1 1.16,-1.161 z m 132.982998,0 c 0.664,0 1.196,0.519 1.196,1.161 v 11.78 c 0,0.642 -0.533,1.16 -1.196,1.16 h -27.421 c -0.663,0 -1.196,-0.519 -1.196,-1.16 v -11.78 c -0.001,-0.644 0.533,-1.161 1.196,-1.161 z m 4.569,0 h 11.78 c 0.644,0 1.16,0.519 1.16,1.161 v 11.78 c 0,0.642 -0.517,1.16 -1.16,1.16 h -11.78 c -0.643,0 -1.16,-0.519 -1.16,-1.16 v -11.78 c 0,-0.644 0.517,-1.161 1.16,-1.161 z M 62.314622,178.734 c 0.543,0 0.978,0.519 0.978,1.161 v 11.78 c 0,0.642 -0.436,1.16 -0.978,1.16 h -27.752 c -0.542,0 -0.978,-0.519 -0.978,-1.16 v -11.78 c -0.001,-0.644 0.435,-1.161 0.978,-1.161 z m -10.452,-19.158 c 0.534,0 0.963,-0.518 0.963,-1.16 v -11.78 c 0,-0.642 -0.429,-1.161 -0.963,-1.161 h -17.315 c -0.535,0 -0.964,0.517 -0.963,1.161 v 11.78 c 0,0.642 0.429,1.16 0.963,1.16 z m 62.074998,36.293 h 85.167 c 0.644,0 1.16,0.519 1.16,1.161 v 11.78 c 0,0.642 -0.517,1.16 -1.16,1.16 v 0.126 h -85.167 c -0.643,0 -1.16,-0.519 -1.16,-1.16 v -11.78 a 1.156,1.156 0 0 1 1.16,-1.161 m 141.883,-36.419 h -3.824 c -0.643,0 -1.16,-0.519 -1.16,-1.16 v -11.78 a 1.156,1.156 0 0 1 1.16,-1.161 h 22.908 c 0.644,0 1.16,0.519 1.16,1.161 v 28.409 c 0,0.642 -0.517,1.16 -1.16,1.16 h -16.764 c -0.642,0 -1.16,-0.517 -1.16,-1.16 v -14.239 c 0,-0.642 -0.517,-1.23 -1.16,-1.23 z m 26.652,-37.241 h 11.78 c 0.644,0 1.16,0.519 1.16,1.161 v 11.78 c 0,0.642 -0.517,1.16 -1.16,1.16 h -11.78 c -0.643,0 -1.16,-0.519 -1.16,-1.16 v -11.78 a 1.157,1.157 0 0 1 1.16,-1.161 z m 16.313,0 h 11.78 c 0.644,0 1.16,0.519 1.16,1.161 v 11.78 c 0,0.642 -0.517,1.16 -1.16,1.16 h -11.78 c -0.643,0 -1.16,-0.519 -1.16,-1.16 v -11.78 a 1.156,1.156 0 0 1 1.16,-1.161 z m 16.313,0 h 11.78 c 0.644,0 1.16,0.519 1.16,1.161 v 11.78 c 0,0.642 -0.517,1.16 -1.16,1.16 h -11.78 c -0.643,0 -1.16,-0.519 -1.16,-1.16 v -11.78 a 1.156,1.156 0 0 1 1.16,-1.161 z m 16.313,0 h 11.78 c 0.644,0 1.16,0.519 1.16,1.161 v 11.78 c 0,0.642 -0.517,1.16 -1.16,1.16 h -11.78 c -0.643,0 -1.16,-0.519 -1.16,-1.16 v -11.78 a 1.156,1.156 0 0 1 1.16,-1.161 z m -48.939,-16.629 h 11.78 c 0.644,0 1.16,0.519 1.16,1.161 v 11.78 c 0,0.642 -0.517,1.16 -1.16,1.16 h -11.78 c -0.643,0 -1.16,-0.519 -1.16,-1.16 v -11.78 a 1.157,1.157 0 0 1 1.16,-1.161 z m 16.313,0 h 11.78 c 0.644,0 1.16,0.519 1.16,1.161 v 11.78 c 0,0.642 -0.517,1.16 -1.16,1.16 h -11.78 c -0.643,0 -1.16,-0.519 -1.16,-1.16 v -11.78 a 1.156,1.156 0 0 1 1.16,-1.161 z m 16.313,0 h 11.78 c 0.644,0 1.16,0.519 1.16,1.161 v 11.78 c 0,0.642 -0.517,1.16 -1.16,1.16 h -11.78 c -0.643,0 -1.16,-0.519 -1.16,-1.16 v -11.78 a 1.156,1.156 0 0 1 1.16,-1.161 z m 16.313,0 h 11.78 c 0.644,0 1.16,0.519 1.16,1.161 v 11.78 c 0,0.642 -0.517,1.16 -1.16,1.16 h -11.78 c -0.643,0 -1.16,-0.519 -1.16,-1.16 v -11.78 a 1.156,1.156 0 0 1 1.16,-1.161 z m -48.939,49.887 h 11.78 c 0.644,0 1.16,0.519 1.16,1.161 v 11.78 c 0,0.642 -0.517,1.16 -1.16,1.16 h -11.78 c -0.643,0 -1.16,-0.519 -1.16,-1.16 v -11.78 a 1.157,1.157 0 0 1 1.16,-1.161 z m 16.313,0 h 11.78 c 0.644,0 1.16,0.519 1.16,1.161 v 11.78 c 0,0.642 -0.517,1.16 -1.16,1.16 h -11.78 c -0.643,0 -1.16,-0.519 -1.16,-1.16 v -11.78 a 1.156,1.156 0 0 1 1.16,-1.161 z m 16.313,0 h 11.78 c 0.644,0 1.16,0.519 1.16,1.161 v 11.78 c 0,0.642 -0.517,1.16 -1.16,1.16 h -11.78 c -0.643,0 -1.16,-0.519 -1.16,-1.16 v -11.78 a 1.156,1.156 0 0 1 1.16,-1.161 z m 16.313,0 h 11.78 c 0.644,0 1.16,0.519 1.16,1.161 v 11.78 c 0,0.642 -0.517,1.16 -1.16,1.16 h -11.78 c -0.643,0 -1.16,-0.519 -1.16,-1.16 v -11.78 a 1.156,1.156 0 0 1 1.16,-1.161 z m -48.939,-16.629 h 11.78 c 0.644,0 1.16,0.519 1.16,1.161 v 11.78 c 0,0.642 -0.517,1.16 -1.16,1.16 h -11.78 c -0.643,0 -1.16,-0.519 -1.16,-1.16 v -11.78 a 1.157,1.157 0 0 1 1.16,-1.161 z m 16.313,0 h 11.78 c 0.644,0 1.16,0.519 1.16,1.161 v 11.78 c 0,0.642 -0.517,1.16 -1.16,1.16 h -11.78 c -0.643,0 -1.16,-0.519 -1.16,-1.16 v -11.78 a 1.156,1.156 0 0 1 1.16,-1.161 z m 16.313,0 h 11.78 c 0.644,0 1.16,0.519 1.16,1.161 v 11.78 c 0,0.642 -0.517,1.16 -1.16,1.16 h -11.78 c -0.643,0 -1.16,-0.519 -1.16,-1.16 v -11.78 a 1.156,1.156 0 0 1 1.16,-1.161 z m 16.313,0 h 11.78 c 0.644,0 1.16,0.519 1.16,1.161 v 11.78 c 0,0.642 -0.517,1.16 -1.16,1.16 h -11.78 c -0.643,0 -1.16,-0.519 -1.16,-1.16 v -11.78 a 1.156,1.156 0 0 1 1.16,-1.161 z M 37.979622,118.31 c -0.643,0 -1.16,-0.519 -1.16,-1.16 v -5.31 a 1.156,1.156 0 0 1 1.16,-1.161 h 18.44 c 0.644,0 1.16,0.519 1.16,1.161 v 5.31 c 0,0.642 -0.517,1.16 -1.16,1.16 z m 22.73,0 c -0.643,0 -1.16,-0.519 -1.16,-1.16 v -5.31 a 1.156,1.156 0 0 1 1.16,-1.161 h 18.44 c 0.644,0 1.16,0.519 1.16,1.161 v 5.31 c 0,0.642 -0.517,1.16 -1.16,1.16 z m 22.726,0 c -0.643,0 -1.16,-0.519 -1.16,-1.16 v -5.31 a 1.156,1.156 0 0 1 1.16,-1.161 h 18.439998 c 0.644,0 1.16,0.519 1.16,1.161 v 5.31 c 0,0.642 -0.517,1.16 -1.16,1.16 z m 22.730998,0 c -0.643,0 -1.16,-0.519 -1.16,-1.16 v -5.31 a 1.156,1.156 0 0 1 1.16,-1.161 h 18.44 c 0.644,0 1.16,0.519 1.16,1.161 v 5.31 c 0,0.642 -0.517,1.16 -1.16,1.16 z m 23.362,0 c -0.643,0 -1.16,-0.519 -1.16,-1.16 v -5.31 a 1.156,1.156 0 0 1 1.16,-1.161 h 18.44 c 0.644,0 1.16,0.519 1.16,1.161 v 5.31 c 0,0.642 -0.517,1.16 -1.16,1.16 z m 25.892,0 c -0.643,0 -1.16,-0.519 -1.16,-1.16 v -5.31 a 1.156,1.156 0 0 1 1.16,-1.161 h 18.44 c 0.644,0 1.16,0.519 1.16,1.161 v 5.31 c 0,0.642 -0.517,1.16 -1.16,1.16 z m 49.255,0 c -0.643,0 -1.16,-0.519 -1.16,-1.16 v -5.31 a 1.156,1.156 0 0 1 1.16,-1.161 h 18.44 c 0.644,0 1.16,0.519 1.16,1.161 v 5.31 c 0,0.642 -0.517,1.16 -1.16,1.16 z m 22.731,0 c -0.643,0 -1.16,-0.519 -1.16,-1.16 v -5.31 a 1.156,1.156 0 0 1 1.16,-1.161 h 18.44 c 0.644,0 1.16,0.519 1.16,1.161 v 5.31 c 0,0.642 -0.517,1.16 -1.16,1.16 z m 23.362,0 c -0.643,0 -1.16,-0.519 -1.16,-1.16 v -5.31 a 1.156,1.156 0 0 1 1.16,-1.161 h 18.44 c 0.644,0 1.16,0.519 1.16,1.161 v 5.31 c 0,0.642 -0.517,1.16 -1.16,1.16 z m -71.985,0 c -0.643,0 -1.16,-0.519 -1.16,-1.16 v -5.31 a 1.156,1.156 0 0 1 1.16,-1.161 h 18.44 c 0.644,0 1.16,0.519 1.16,1.161 v 5.31 c 0,0.642 -0.517,1.16 -1.16,1.16 z"
     fill="#8c979d"
     id="path14"
     style="fill:none;stroke:#ffffff;stroke-width:2;stroke-miterlimit:10;stroke-dasharray:none;stroke-opacity:1" />
  <path
     fill="none"
     stroke="#fff"
     stroke-width=".759"
     stroke-miterlimit="10"
     d="m 312.45562,203.852 h 7.459"
     id="path16"
     style="fill:none;stroke:#ffffff;stroke-width:2;stroke-miterlimit:10;stroke-dasharray:none;stroke-opacity:1" />
  <path
     d="m 344.00962,211.107 h -60.912 a 1.79,1.79 0 0 1 -1.785,-1.785 v -19.413 a 1.79,1.79 0 0 1 1.785,-1.785 h 60.912 a 1.79,1.79 0 0 1 1.785,1.785 v 19.413 a 1.79,1.79 0 0 1 -1.785,1.785 z"
     fill="#221d1f"
     id="path18"
     style="fill:none;stroke:#ffffff;stroke-width:2;stroke-miterlimit:10;stroke-dasharray:none;stroke-opacity:1" />
  <path
     d="m 323.31062,218.505 h -19.798 a 1.79,1.79 0 0 1 -1.785,-1.785 v -34.556 a 1.79,1.79 0 0 1 1.785,-1.785 h 19.798 a 1.79,1.79 0 0 1 1.785,1.785 v 34.556 a 1.79,1.79 0 0 1 -1.785,1.785 z"
     fill="#221d1f"
     id="path20"
     style="fill:none;stroke:#ffffff;stroke-width:2;stroke-miterlimit:10;stroke-dasharray:none;stroke-opacity:1" />
  <g
     id="g56"
     style="fill:none;stroke:#ffffff;stroke-width:2;stroke-miterlimit:10;stroke-dasharray:none;stroke-opacity:1"
     transform="translate(1.0516218,1)">
    <path
       d="m 298.381,209.24 h -16.193 a 1.04,1.04 0 0 1 -1.037,-1.037 v -19.158 a 1.04,1.04 0 0 1 1.037,-1.037 h 16.193 a 1.04,1.04 0 0 1 1.037,1.037 v 19.158 a 1.04,1.04 0 0 1 -1.037,1.037 z"
       fill="#878c91"
       id="path22"
       style="fill:none;stroke:#ffffff;stroke-width:2;stroke-miterlimit:10;stroke-dasharray:none;stroke-opacity:1" />
    <path
       fill="none"
       stroke="#ffffff"
       stroke-width="0.759"
       stroke-miterlimit="10"
       d="m 290.089,193.572 -5.051,5.051 5.051,5.051"
       id="path24"
       style="fill:none;stroke:#ffffff;stroke-width:2;stroke-miterlimit:10;stroke-dasharray:none;stroke-opacity:1" />
    <path
       d="m 308.731,198.623 h -18.624 c 0,-4.945 4.169,-8.953 9.312,-8.953 z"
       fill="#989da3"
       id="path26"
       style="fill:none;stroke:#ffffff;stroke-width:2;stroke-miterlimit:10;stroke-dasharray:none;stroke-opacity:1" />
    <path
       d="m 308.731,198.623 h -18.624 c 0,4.945 4.169,8.953 9.312,8.953 z"
       fill="#a2a6aa"
       id="path28"
       style="fill:none;stroke:#ffffff;stroke-width:2;stroke-miterlimit:10;stroke-dasharray:none;stroke-opacity:1" />
    <g
       id="g38"
       style="fill:none;stroke:#ffffff;stroke-width:2;stroke-miterlimit:10;stroke-dasharray:none;stroke-opacity:1">
      <path
         d="m 326.428,209.24 h 16.193 a 1.04,1.04 0 0 0 1.037,-1.037 v -19.158 a 1.04,1.04 0 0 0 -1.037,-1.037 h -16.193 a 1.04,1.04 0 0 0 -1.037,1.037 v 19.158 a 1.04,1.04 0 0 0 1.037,1.037 z"
         fill="#878c91"
         id="path30"
         style="fill:none;stroke:#ffffff;stroke-width:2;stroke-miterlimit:10;stroke-dasharray:none;stroke-opacity:1" />
      <path
         fill="none"
         stroke="#ffffff"
         stroke-width="0.759"
         stroke-miterlimit="10"
         d="m 334.72,193.572 5.05,5.051 -5.05,5.051"
         id="path32"
         style="fill:none;stroke:#ffffff;stroke-width:2;stroke-miterlimit:10;stroke-dasharray:none;stroke-opacity:1" />
      <path
         d="m 316.078,198.623 h 18.624 c 0,-4.945 -4.169,-8.953 -9.312,-8.953 z"
         fill="#989da3"
         id="path34"
         style="fill:none;stroke:#ffffff;stroke-width:2;stroke-miterlimit:10;stroke-dasharray:none;stroke-opacity:1" />
      <path
         d="m 316.078,198.623 h 18.624 c 0,4.945 -4.169,8.953 -9.312,8.953 z"
         fill="#a2a6aa"
         id="path36"
         style="fill:none;stroke:#ffffff;stroke-width:2;stroke-miterlimit:10;stroke-dasharray:none;stroke-opacity:1" />
    </g>
    <g
       id="g46"
       style="fill:none;stroke:#ffffff;stroke-width:2;stroke-miterlimit:10;stroke-dasharray:none;stroke-opacity:1">
      <path
         d="m 323.269,190.432 h -21.787 v -8.75 c 0,-0.71 0.581,-1.291 1.291,-1.291 h 19.263 c 0.71,0 1.291,0.581 1.291,1.291 v 8.692 a 0.059,0.059 0 0 1 -0.058,0.058 z"
         fill="#878c91"
         id="path40"
         style="fill:none;stroke:#ffffff;stroke-width:2;stroke-miterlimit:10;stroke-dasharray:none;stroke-opacity:1" />
      <path
         fill="none"
         stroke="#ffffff"
         stroke-width="0.759"
         stroke-miterlimit="10"
         d="m 317.455,187.936 -5.051,-5.051 -5.05,5.051"
         id="path42"
         style="fill:none;stroke:#ffffff;stroke-width:2;stroke-miterlimit:10;stroke-dasharray:none;stroke-opacity:1" />
      <path
         fill="#989da3"
         d="m 323.27,190.432 -8.275,7.445 h -5.36 l -8.153,-7.445 z"
         id="path44"
         style="fill:none;stroke:#ffffff;stroke-width:2;stroke-miterlimit:10;stroke-dasharray:none;stroke-opacity:1" />
    </g>
    <g
       id="g54"
       style="fill:none;stroke:#ffffff;stroke-width:2;stroke-miterlimit:10;stroke-dasharray:none;stroke-opacity:1">
      <path
         d="m 301.54,206.784 h 21.787 v 8.75 c 0,0.71 -0.581,1.291 -1.291,1.291 h -19.263 c -0.71,0 -1.291,-0.581 -1.291,-1.291 v -8.692 c 0,-0.032 0.026,-0.058 0.058,-0.058 z"
         fill="#878c91"
         id="path48"
         style="fill:none;stroke:#ffffff;stroke-width:2;stroke-miterlimit:10;stroke-dasharray:none;stroke-opacity:1" />
      <path
         fill="none"
         stroke="#ffffff"
         stroke-width="0.759"
         stroke-miterlimit="10"
         d="m 307.354,209.279 5.05,5.051 5.051,-5.051"
         id="path50"
         style="fill:none;stroke:#ffffff;stroke-width:2;stroke-miterlimit:10;stroke-dasharray:none;stroke-opacity:1" />
      <path
         fill="#94979b"
         d="m 301.539,206.784 8.275,-7.446 h 5.36 l 8.153,7.446 z"
         id="path52"
         style="fill:none;stroke:#ffffff;stroke-width:2;stroke-miterlimit:10;stroke-dasharray:none;stroke-opacity:1" />
    </g>
  </g>
  <path
     fill="#637080"
     d="m 184.84162,3.213 h 159.823 l 5.23,43.754 H 19.763622 l 5.229,-43.754 H 184.81562"
     id="path58"
     style="fill:none;stroke:#ffffff;stroke-width:2;stroke-miterlimit:10;stroke-dasharray:none;stroke-opacity:1" />
  <path
     d="m 154.74062,41.106 h -11.675 a 1.55,1.55 0 0 1 -1.546,-1.546 v -2.428 c 0,-0.85 0.696,-1.546 1.546,-1.546 h 11.675 c 0.85,0 1.546,0.696 1.546,1.546 v 2.428 a 1.55,1.55 0 0 1 -1.546,1.546 z"
     fill="#4f5966"
     stroke="#131314"
     stroke-width=".759"
     stroke-miterlimit="10"
     id="path60"
     style="fill:none;stroke:#ffffff;stroke-width:2;stroke-miterlimit:10;stroke-dasharray:none;stroke-opacity:1" />
  <path
     fill="#131314"
     d="m 101.04062,15.226 h 95.726 v 3.794 h -95.726 z"
     id="path62"
     style="fill:none;stroke:#ffffff;stroke-width:2;stroke-miterlimit:10;stroke-dasharray:none;stroke-opacity:1" />
  <path
     d="m 196.43462,35.586 h -95.063 a 2.768,2.768 0 0 1 -2.759998,-2.76 V 16.564 a 2.768,2.768 0 0 1 2.759998,-2.76 h 95.062 a 2.768,2.768 0 0 1 2.76,2.76 v 16.262 a 2.767,2.767 0 0 1 -2.759,2.76 z"
     fill="none"
     stroke="#1d1d1e"
     stroke-width=".759"
     stroke-miterlimit="10"
     id="path64"
     style="fill:none;stroke:#ffffff;stroke-width:2;stroke-miterlimit:10;stroke-dasharray:none;stroke-opacity:1" />
  <g
     id="g74"
     style="fill:none;stroke:#ffffff;stroke-width:2;stroke-miterlimit:10;stroke-dasharray:none;stroke-opacity:1"
     transform="translate(1.0516218,1)">
    <path
       fill="#131314"
       d="M 29.848,2.213 H 183.79 V 12.804 H 29.848 Z"
       id="path66"
       style="fill:none;stroke:#ffffff;stroke-width:2;stroke-miterlimit:10;stroke-dasharray:none;stroke-opacity:1" />
    <path
       d="M 42.55,12.804 H 33.267 A 0.713,0.713 0 0 1 32.556,12.093 V 0.711 A 0.712,0.712 0 0 1 33.266,0 h 9.283 c 0.391,0 0.711,0.32 0.711,0.711 v 11.381 a 0.712,0.712 0 0 1 -0.71,0.712 z m 13.312,0 H 49.14 A 0.713,0.713 0 0 1 48.429,12.093 V 0.711 C 48.429,0.32 48.749,0 49.14,0 h 6.721 c 0.391,0 0.711,0.32 0.711,0.711 v 11.381 a 0.712,0.712 0 0 1 -0.71,0.712 z m 13.127,0 H 62.268 A 0.713,0.713 0 0 1 61.557,12.093 V 0.711 C 61.557,0.32 61.877,0 62.268,0 h 6.721 C 69.38,0 69.7,0.32 69.7,0.711 v 11.381 a 0.712,0.712 0 0 1 -0.711,0.712 z m 13.128,0 H 75.396 A 0.713,0.713 0 0 1 74.685,12.093 V 0.711 A 0.712,0.712 0 0 1 75.396,0 h 6.721 c 0.391,0 0.711,0.32 0.711,0.711 v 11.381 c 0,0.392 -0.32,0.712 -0.711,0.712 z m 13.128,0 H 88.524 A 0.713,0.713 0 0 1 87.813,12.093 V 0.711 A 0.712,0.712 0 0 1 88.523,0 h 6.721 c 0.391,0 0.711,0.32 0.711,0.711 v 11.381 a 0.712,0.712 0 0 1 -0.71,0.712 z m 13.127,0 h -6.721 A 0.713,0.713 0 0 1 100.94,12.093 V 0.711 C 100.94,0.32 101.26,0 101.651,0 h 6.721 c 0.391,0 0.711,0.32 0.711,0.711 v 11.381 a 0.713,0.713 0 0 1 -0.711,0.712 z m 13.128,0 h -6.721 a 0.713,0.713 0 0 1 -0.711,-0.711 V 0.711 C 114.068,0.32 114.388,0 114.779,0 h 6.721 c 0.391,0 0.711,0.32 0.711,0.711 v 11.381 c 0,0.392 -0.32,0.712 -0.711,0.712 z m 13.127,0 h -6.721 a 0.713,0.713 0 0 1 -0.711,-0.711 V 0.711 C 127.195,0.32 127.515,0 127.906,0 h 6.721 c 0.391,0 0.711,0.32 0.711,0.711 v 11.381 a 0.712,0.712 0 0 1 -0.711,0.712 z m 13.128,0 h -6.721 a 0.713,0.713 0 0 1 -0.711,-0.711 V 0.711 C 140.323,0.32 140.643,0 141.034,0 h 6.721 c 0.391,0 0.711,0.32 0.711,0.711 v 11.381 c 0,0.392 -0.32,0.712 -0.711,0.712 z m 13.128,0 h -6.721 a 0.713,0.713 0 0 1 -0.711,-0.711 V 0.711 C 153.451,0.32 153.771,0 154.162,0 h 6.721 c 0.391,0 0.711,0.32 0.711,0.711 v 11.381 c 0,0.392 -0.32,0.712 -0.711,0.712 z m 13.127,0 h -6.721 a 0.713,0.713 0 0 1 -0.711,-0.711 V 0.711 C 166.578,0.32 166.898,0 167.289,0 h 6.721 c 0.391,0 0.711,0.32 0.711,0.711 v 11.381 a 0.712,0.712 0 0 1 -0.711,0.712 z"
       fill="#637080"
       id="path68"
       style="fill:none;stroke:#ffffff;stroke-width:2;stroke-miterlimit:10;stroke-dasharray:none;stroke-opacity:1" />
    <path
       fill="#131314"
       d="M 337.707,12.804 H 183.765 V 2.213 h 153.942 z"
       id="path70"
       style="fill:none;stroke:#ffffff;stroke-width:2;stroke-miterlimit:10;stroke-dasharray:none;stroke-opacity:1" />
    <path
       d="m 325.005,12.804 h 9.283 c 0.391,0 0.711,-0.32 0.711,-0.711 V 0.711 A 0.713,0.713 0 0 0 334.288,0 h -9.283 a 0.713,0.713 0 0 0 -0.711,0.711 v 11.381 c 0,0.392 0.32,0.712 0.711,0.712 z m -13.312,0 h 6.721 c 0.391,0 0.711,-0.32 0.711,-0.711 V 0.711 A 0.713,0.713 0 0 0 318.414,0 h -6.721 a 0.713,0.713 0 0 0 -0.711,0.711 v 11.381 a 0.712,0.712 0 0 0 0.711,0.712 z m -13.128,0 h 6.721 c 0.391,0 0.711,-0.32 0.711,-0.711 V 0.711 A 0.713,0.713 0 0 0 305.286,0 h -6.721 a 0.713,0.713 0 0 0 -0.711,0.711 v 11.381 c 0,0.392 0.32,0.712 0.711,0.712 z m -13.128,0 h 6.721 c 0.391,0 0.711,-0.32 0.711,-0.711 V 0.711 A 0.713,0.713 0 0 0 292.158,0 h -6.721 a 0.713,0.713 0 0 0 -0.711,0.711 v 11.381 c 0,0.392 0.32,0.712 0.711,0.712 z m -13.127,0 h 6.721 c 0.391,0 0.711,-0.32 0.711,-0.711 V 0.711 A 0.713,0.713 0 0 0 279.031,0 h -6.721 a 0.713,0.713 0 0 0 -0.711,0.711 v 11.381 c 0,0.392 0.32,0.712 0.711,0.712 z m -13.128,0 h 6.721 c 0.391,0 0.711,-0.32 0.711,-0.711 V 0.711 A 0.713,0.713 0 0 0 265.903,0 h -6.721 a 0.713,0.713 0 0 0 -0.711,0.711 v 11.381 c 0,0.392 0.32,0.712 0.711,0.712 z m -13.127,0 h 6.721 c 0.391,0 0.711,-0.32 0.711,-0.711 V 0.711 A 0.713,0.713 0 0 0 252.776,0 h -6.721 a 0.713,0.713 0 0 0 -0.711,0.711 v 11.381 a 0.712,0.712 0 0 0 0.711,0.712 z m -13.128,0 h 6.721 c 0.391,0 0.711,-0.32 0.711,-0.711 V 0.711 A 0.713,0.713 0 0 0 239.648,0 h -6.721 a 0.713,0.713 0 0 0 -0.711,0.711 v 11.381 c 0,0.392 0.32,0.712 0.711,0.712 z m -13.128,0 h 6.721 c 0.391,0 0.711,-0.32 0.711,-0.711 V 0.711 A 0.713,0.713 0 0 0 226.52,0 h -6.721 a 0.713,0.713 0 0 0 -0.711,0.711 v 11.381 c 0,0.392 0.32,0.712 0.711,0.712 z m -13.127,0 h 6.721 c 0.391,0 0.711,-0.32 0.711,-0.711 V 0.711 A 0.713,0.713 0 0 0 213.393,0 h -6.721 a 0.713,0.713 0 0 0 -0.711,0.711 v 11.381 a 0.713,0.713 0 0 0 0.711,0.712 z m -13.128,0 h 6.721 c 0.391,0 0.711,-0.32 0.711,-0.711 V 0.711 A 0.713,0.713 0 0 0 200.265,0 h -6.721 a 0.713,0.713 0 0 0 -0.711,0.711 v 11.381 c 0,0.392 0.32,0.712 0.711,0.712 z m -6.406,0 h -6.721 a 0.713,0.713 0 0 1 -0.711,-0.711 V 0.711 C 179.706,0.32 180.026,0 180.417,0 h 6.721 c 0.391,0 0.711,0.32 0.711,0.711 v 11.381 c 0,0.392 -0.32,0.712 -0.711,0.712 z"
       fill="#637080"
       id="path72"
       style="fill:none;stroke:#ffffff;stroke-width:2;stroke-miterlimit:10;stroke-dasharray:none;stroke-opacity:1" />
  </g>
  <path
     fill="none"
     stroke="#4f5962"
     stroke-width=".75"
     stroke-miterlimit="10"
     d="m 29.053622,17.123 h 67.954 m 239.042998,0 h -134.022"
     id="path76"
     style="fill:none;stroke:#ffffff;stroke-width:2;stroke-miterlimit:10;stroke-dasharray:none;stroke-opacity:1" />
  <path
     fill="#637080"
     d="m 30.899622,1 h -5.646 l -0.132,1.106 -0.133,1.107 h 5.911 z M 338.75762,1 h 5.646 l 0.133,1.106 0.132,1.107 h -5.911 z"
     id="path78"
     style="fill:none;stroke:#ffffff;stroke-width:2;stroke-miterlimit:10;stroke-dasharray:none;stroke-opacity:1" />
  <path
     fill="#28292b"
     d="M 17.806622,71.247 H 351.85062 V 90.152 H 17.806622 Z"
     id="path80"
     style="fill:none;stroke:#ffffff;stroke-width:2;stroke-miterlimit:10;stroke-dasharray:none;stroke-opacity:1" />
  <path
     fill="#697986"
     d="M 17.806622,46.967 H 351.85062 v 24.28 H 17.806622 Z"
     id="path82"
     style="fill:none;stroke:#ffffff;stroke-width:2;stroke-miterlimit:10;stroke-dasharray:none;stroke-opacity:1" />
  <path
     fill="#30343d"
     d="M 17.806622,52.784 H 351.85062 V 65.43 H 17.806622 Z"
     id="path84"
     style="fill:none;stroke:#ffffff;stroke-width:2;stroke-miterlimit:10;stroke-dasharray:none;stroke-opacity:1" />
  <path
     d="m 8.0066218,90.152 -6.955,-12.396 c 0.448,-2.306 3.618,-4.291 7.201,-5.031 L 17.806622,71.246 V 90.151 H 8.0066218 Z"
     fill="#28292b"
     id="path86"
     style="fill:none;stroke:#ffffff;stroke-width:2;stroke-miterlimit:10;stroke-dasharray:none;stroke-opacity:1" />
  <path
     d="M 17.806622,65.43 V 52.785 l -8.6050002,1.578 c -3.227,0.79 -6.082,2.909 -6.486,5.372 v 0.044 l -0.616,5.761 -0.763,6.84 c 0.463,-2.462 2.896,-4.582 6.598,-5.372 z"
     fill="#30343d"
     id="path88"
     style="fill:none;stroke:#ffffff;stroke-width:2;stroke-miterlimit:10;stroke-dasharray:none;stroke-opacity:1" />
  <path
     d="m 2.7166218,59.735 1.005,-6.258 c 0.377,-2.306 3.042,-4.291 6.054,-5.031 l 8.0320002,-1.479 v 5.817 l -8.6060002,1.579 c -3.227,0.79 -6.082,2.909 -6.485,5.372 z m -1.665,18.021 0.285,-5.376 c 0.463,-2.462 2.896,-4.582 6.598,-5.372 l 9.8730002,-1.579 v 5.817 l -9.5540002,1.479 c -3.584,0.74 -6.754,2.725 -7.202,5.031 l 0.142,0.253"
     fill="#697986"
     id="path90"
     style="fill:none;stroke:#ffffff;stroke-width:2;stroke-miterlimit:10;stroke-dasharray:none;stroke-opacity:1" />
  <path
     fill="#9a9b9a"
     stroke="#221d1f"
     stroke-width=".824"
     stroke-miterlimit="10"
     d="m 184.85562,77.064 h 4.805 v 9.611 h -4.805 z"
     id="path92"
     style="fill:none;stroke:#ffffff;stroke-width:2;stroke-miterlimit:10;stroke-dasharray:none;stroke-opacity:1" />
  <path
     fill="none"
     stroke="#131314"
     stroke-width=".793"
     stroke-miterlimit="10"
     d="M 192.63562,90.152 H 79.545622 l -4.074,-16.503 H 192.63562 Z"
     id="path94"
     style="fill:none;stroke:#ffffff;stroke-width:2;stroke-miterlimit:10;stroke-dasharray:none;stroke-opacity:1" />
  <path
     fill="#494949"
     d="m 128.94362,81.142 h 2.023 v 5.532 h -2.023 z m 2.703,0 h 2.023 v 5.532 h -2.023 z m 2.703,0 h 2.023 v 5.532 h -2.023 z m 2.703,0 h 2.023 v 5.532 h -2.023 z m 2.703,0 h 2.023 v 5.532 h -2.023 z"
     id="path96"
     style="fill:none;stroke:#ffffff;stroke-width:2;stroke-miterlimit:10;stroke-dasharray:none;stroke-opacity:1" />
  <path
     fill="none"
     stroke="#131314"
     stroke-width=".759"
     stroke-miterlimit="10"
     d="m 128.94362,83.908 h 12.836"
     id="path98"
     style="fill:none;stroke:#ffffff;stroke-width:2;stroke-miterlimit:10;stroke-dasharray:none;stroke-opacity:1" />
  <path
     fill="#494949"
     d="m 165.98262,81.142 h 2.023 v 5.532 h -2.023 z m 2.703,0 h 2.023 v 5.532 h -2.023 z m 2.703,0 h 2.023 v 5.532 h -2.023 z"
     id="path100"
     style="fill:none;stroke:#ffffff;stroke-width:2;stroke-miterlimit:10;stroke-dasharray:none;stroke-opacity:1" />
  <path
     fill="none"
     stroke="#131314"
     stroke-width=".759"
     stroke-miterlimit="10"
     d="m 165.98262,83.908 h 7.429 M 90.456622,81.142 h 65.377998 v 5.532 H 90.456622 Z"
     id="path102"
     style="fill:none;stroke:#ffffff;stroke-width:2;stroke-miterlimit:10;stroke-dasharray:none;stroke-opacity:1" />
  <path
     d="m 118.29362,78.436 h -0.192 a 1.045,1.045 0 0 1 -1.042,-1.042 c 0,-0.573 0.469,-1.042 1.042,-1.042 h 0.192 c 0.573,0 1.042,0.469 1.042,1.042 0,0.573 -0.469,1.042 -1.042,1.042 z m 2.94,0 h -0.192 a 1.045,1.045 0 0 1 -1.042,-1.042 c 0,-0.573 0.469,-1.042 1.042,-1.042 h 0.192 c 0.573,0 1.042,0.469 1.042,1.042 0,0.573 -0.469,1.042 -1.042,1.042 z m 2.94,0 h -0.192 a 1.045,1.045 0 0 1 -1.042,-1.042 c 0,-0.573 0.469,-1.042 1.042,-1.042 h 0.192 c 0.573,0 1.042,0.469 1.042,1.042 0,0.573 -0.468,1.042 -1.042,1.042 z m 2.941,0 h -0.192 a 1.045,1.045 0 0 1 -1.042,-1.042 c 0,-0.573 0.469,-1.042 1.042,-1.042 h 0.192 c 0.573,0 1.042,0.469 1.042,1.042 0,0.573 -0.469,1.042 -1.042,1.042 z"
     fill="#937048"
     id="path104"
     style="fill:none;stroke:#ffffff;stroke-width:2;stroke-miterlimit:10;stroke-dasharray:none;stroke-opacity:1" />
  <path
     d="m 361.65062,90.144 6.955,-12.396 c -0.448,-2.306 -3.618,-4.291 -7.201,-5.031 l -9.555,-1.479 v 18.905 h 9.801 z"
     fill="#28292b"
     id="path106"
     style="fill:none;stroke:#ffffff;stroke-width:2;stroke-miterlimit:10;stroke-dasharray:none;stroke-opacity:1" />
  <path
     d="M 351.85062,65.422 V 52.776 l 8.605,1.579 c 3.227,0.79 6.082,2.909 6.486,5.372 v 0.044 l 0.617,5.761 0.763,6.84 c -0.463,-2.462 -2.896,-4.582 -6.598,-5.372 z"
     fill="#30343d"
     id="path108"
     style="fill:none;stroke:#ffffff;stroke-width:2;stroke-miterlimit:10;stroke-dasharray:none;stroke-opacity:1" />
  <path
     d="m 366.94162,59.727 -1.005,-6.258 c -0.377,-2.306 -3.042,-4.291 -6.054,-5.031 l -8.032,-1.479 v 5.817 l 8.605,1.579 c 3.227,0.79 6.082,2.91 6.486,5.372 z m 1.664,18.021 -0.285,-5.376 c -0.463,-2.462 -2.896,-4.582 -6.598,-5.372 l -9.873,-1.579 v 5.817 l 9.555,1.479 c 3.583,0.74 6.754,2.725 7.201,5.031 l -0.142,0.253"
     fill="#697986"
     id="path110"
     style="fill:none;stroke:#ffffff;stroke-width:2;stroke-miterlimit:10;stroke-dasharray:none;stroke-opacity:1" />
  <path
     fill="#181718"
     d="m 141.63462,81.142 h 14.199 v 5.532 h -14.199 z"
     id="path112"
     style="fill:none;stroke:#ffffff;stroke-width:2;stroke-miterlimit:10;stroke-dasharray:none;stroke-opacity:1" />
  <path
     d="M 347.93862,96.285 H 21.713622 c -3.282,0.028 -6.164,1.815 -7.745,4.459 l -0.004,-0.002 -5.9420002,-10.59 h -0.016 353.6449982 v -0.008 l -5.94,10.559 0.006,-0.004 c -1.599,-2.64 -4.5,-4.414 -7.795,-4.414"
     fill="#6f7e8c"
     id="path114"
     style="fill:none;stroke:#ffffff;stroke-width:2;stroke-miterlimit:10;stroke-dasharray:none;stroke-opacity:1" />
  <g
     id="g130"
     style="fill:none;stroke:#ffffff;stroke-width:2;stroke-miterlimit:10;stroke-dasharray:none;stroke-opacity:1"
     transform="translate(1.0516218,1)">
    <text
       transform="translate(239.494,26.705)"
       fill="#c13234"
       font-family="ArialMT"
       font-size="0.135px"
       id="text116"
       style="fill:none;stroke:#ffffff;stroke-width:2;stroke-miterlimit:10;stroke-dasharray:none;stroke-opacity:1">I don’t like bugs!</text>
    <path
       fill="#25231d"
       d="m 226.156,25.589 h 17.59 v 6.708 h -17.59 z"
       id="path118"
       style="fill:none;stroke:#ffffff;stroke-width:2;stroke-miterlimit:10;stroke-dasharray:none;stroke-opacity:1" />
    <path
       fill="#637080"
       d="m 243.202,28.951 v -2.79 h -6.246 v 5.58 h 6.246 z"
       id="path120"
       style="fill:none;stroke:#ffffff;stroke-width:2;stroke-miterlimit:10;stroke-dasharray:none;stroke-opacity:1" />
    <path
       d="m 238.314,28.996 v -2.292 h 2.324 l 1.055,0.792 v 1.109 h -0.887 l 1.127,0.829 0.001,0.927 0.001,0.927 h -1.055 l -0.008,-0.897 -0.008,-0.897 -1.524,-0.016 v 1.811 h -1.026 z m 2.293,-0.904 V 27.67 h -1.267 v 0.844 h 1.267 z"
       fill="#25231d"
       id="path122"
       style="fill:none;stroke:#ffffff;stroke-width:2;stroke-miterlimit:10;stroke-dasharray:none;stroke-opacity:1" />
    <g
       fill="#637080"
       id="g126"
       style="fill:none;stroke:#ffffff;stroke-width:2;stroke-miterlimit:10;stroke-dasharray:none;stroke-opacity:1">
      <path
         d="M 228.84,31.199 V 31.08 l -0.498,-0.018 -0.009,-0.309 -0.009,-0.309 h 0.515 v -0.241 h -0.513 v -0.394 l -0.528,0.017 -0.009,0.189 -0.009,0.189 h -0.359 v 0.241 h 0.362 v 0.324 c 0,0.178 0.009,0.356 0.019,0.395 0.032,0.12 0.165,0.153 0.621,0.154 l 0.415,10e-4 z m 1.72,-0.438 v -0.558 h -0.543 v 0.844 h -0.332 v -0.844 h -0.513 v 0.493 c 0,0.432 0.007,0.499 0.053,0.539 0.087,0.076 0.119,0.079 0.739,0.082 l 0.596,0.002 z m 0.929,0.113 0.008,-0.43 h 0.511 v -0.241 l -0.339,0.001 c -0.412,10e-4 -0.559,0.032 -0.649,0.135 -0.064,0.074 -0.068,0.106 -0.068,0.509 0,0.237 0.01,0.44 0.021,0.452 0.012,0.012 0.13,0.017 0.264,0.013 l 0.243,-0.009 z m 2.047,0.361 c 0.109,-0.088 0.136,-0.181 0.136,-0.462 0,-0.509 -0.064,-0.578 -0.555,-0.595 l -0.324,-0.012 v -0.358 l -0.528,0.017 -0.016,1.463 0.612,-0.001 c 0.533,0 0.619,-0.007 0.675,-0.052 z m -0.743,-0.489 v -0.302 h 0.332 v 0.603 h -0.332 z m 2.454,0.481 c 0.095,-0.075 0.141,-0.225 0.141,-0.466 0,-0.248 -0.045,-0.389 -0.154,-0.481 -0.09,-0.075 -0.103,-0.077 -0.535,-0.077 -0.495,0 -0.55,0.018 -0.626,0.199 -0.051,0.122 -0.057,0.621 -0.008,0.715 0.08,0.157 0.129,0.17 0.634,0.171 0.428,0 0.476,-0.005 0.548,-0.061 z m -0.704,-0.481 v -0.302 h 0.332 v 0.603 h -0.332 z"
         id="path124"
         style="fill:none;stroke:#ffffff;stroke-width:2;stroke-miterlimit:10;stroke-dasharray:none;stroke-opacity:1" />
    </g>
    <path
       d="m 228.366,28.906 c 0.081,-0.274 0.158,-0.508 0.17,-0.521 0.012,-0.013 0.059,0.103 0.105,0.256 l 0.159,0.529 0.076,0.25 0.579,-0.017 0.084,-0.256 c 0.046,-0.141 0.123,-0.385 0.171,-0.542 l 0.087,-0.286 0.181,0.542 0.181,0.542 0.976,0.008 c 1.136,0.009 1.197,0 1.442,-0.22 0.195,-0.176 0.263,-0.343 0.26,-0.648 -0.003,-0.348 -0.154,-0.625 -0.417,-0.761 -0.104,-0.054 -0.201,-0.068 -0.592,-0.086 a 4.319,4.319 0 0 1 -0.52,-0.043 c -0.074,-0.03 -0.07,-0.185 0.006,-0.225 0.036,-0.019 0.381,-0.031 0.913,-0.031 h 0.854 l 0.241,0.306 c 0.133,0.168 0.238,0.317 0.234,0.331 -0.004,0.014 -0.205,0.312 -0.447,0.663 -0.242,0.351 -0.447,0.656 -0.456,0.679 -0.013,0.034 0.055,0.041 0.372,0.041 h 0.388 l 0.286,-0.377 c 0.157,-0.207 0.294,-0.377 0.303,-0.377 0.009,0 0.138,0.17 0.286,0.377 l 0.269,0.377 h 0.4 c 0.22,0 0.4,-0.006 0.4,-0.013 0,-0.007 -0.21,-0.314 -0.468,-0.682 -0.257,-0.368 -0.468,-0.689 -0.468,-0.712 0,-0.024 0.19,-0.313 0.422,-0.644 0.232,-0.331 0.422,-0.615 0.422,-0.632 0,-0.02 -0.142,-0.031 -0.39,-0.031 h -0.39 l -0.16,0.225 c -0.088,0.124 -0.198,0.28 -0.243,0.347 -0.045,0.067 -0.093,0.121 -0.106,0.121 -0.013,0 -0.109,-0.122 -0.215,-0.269 -0.317,-0.443 -0.141,-0.398 -1.501,-0.387 -1.148,0.009 -1.176,0.011 -1.299,0.077 -0.248,0.132 -0.381,0.389 -0.38,0.732 0.001,0.281 0.043,0.438 0.158,0.597 0.147,0.203 0.219,0.226 0.785,0.246 0.519,0.018 0.634,0.046 0.634,0.151 0,0.134 -0.09,0.151 -0.801,0.151 h -0.667 l -0.571,-1.945 -0.634,-0.017 -0.148,0.484 c -0.081,0.266 -0.156,0.484 -0.167,0.484 -0.011,0 -0.056,-0.126 -0.102,-0.279 a 80.364,80.364 0 0 1 -0.144,-0.484 l -0.062,-0.205 -0.641,0.017 -0.1,0.362 c -0.147,0.536 -0.58,2.231 -0.58,2.273 0,0.027 0.089,0.034 0.338,0.028 l 0.338,-0.009 z"
       fill="#637080"
       id="path128"
       style="fill:none;stroke:#ffffff;stroke-width:2;stroke-miterlimit:10;stroke-dasharray:none;stroke-opacity:1" />
  </g>
  <path
     d="m 268.30162,207.077 h -9.702 a 3.827,3.827 0 0 1 -3.816,-3.816 v -0.431 a 3.827,3.827 0 0 1 3.816,-3.816 h 9.702 a 3.827,3.827 0 0 1 3.816,3.816 v 0.431 a 3.827,3.827 0 0 1 -3.816,3.816 z"
     fill="#93a1aa"
     stroke="#303030"
     stroke-width=".239"
     stroke-miterlimit="10"
     id="path132"
     style="fill:none;stroke:#ffffff;stroke-width:2;stroke-miterlimit:10;stroke-dasharray:none;stroke-opacity:1" />
  <ellipse
     cx="81.780617"
     cy="77.968002"
     rx="1.771"
     ry="1.6160001"
     fill="#202021"
     id="ellipse134"
     style="fill:none;stroke:#ffffff;stroke-width:2;stroke-miterlimit:10;stroke-dasharray:none;stroke-opacity:1" />
  <path
     fill="none"
     stroke="#000"
     stroke-width=".255"
     stroke-miterlimit="10"
     d="m 347.79562,69.297 0.237,1.95 -1.08,18.897 m -13.013,-20.847 0.236,1.95 -1.08,18.897 m -13.013,-20.847 0.236,1.95 -1.08,18.897 m -13.013,-20.847 0.236,1.95 -1.08,18.897 m -13.013,-20.847 0.237,1.95 -1.08,18.897 m -13.013,-20.847 0.236,1.95 -1.08,18.897 m -13.013,-20.847 0.236,1.95 -1.08,18.897 m -13.013,-20.847 0.237,1.95 -1.08,18.897 m -13.014,-20.847 0.237,1.95 -1.08,18.897 m -13.013,-20.847 0.236,1.95 -1.08,18.897 m -13.013,-20.847 0.236,1.95 -1.08,18.897"
     id="path136"
     style="fill:none;stroke:#ffffff;stroke-width:2;stroke-miterlimit:10;stroke-dasharray:none;stroke-opacity:1" />
  <path
     fill="#28292b"
     d="m 204.47562,75.151 h 147.75 v 11 h -147.75 z"
     id="path138"
     style="fill:none;stroke:#ffffff;stroke-width:2;stroke-miterlimit:10;stroke-dasharray:none;stroke-opacity:1" />
  <g
     id="g174"
     style="fill:none;stroke:#ffffff;stroke-width:2;stroke-miterlimit:10;stroke-dasharray:none;stroke-opacity:1"
     transform="translate(1.0516218,1)">
    <path
       d="M 343.206,82.908 H 211.391 a 3.267,3.267 0 0 1 -3.257,-3.257 3.267,3.267 0 0 1 3.257,-3.257 h 131.815 a 3.267,3.267 0 0 1 3.257,3.257 3.267,3.267 0 0 1 -3.257,3.257 z"
       fill="#99784b"
       id="path140"
       style="fill:none;stroke:#ffffff;stroke-width:2;stroke-miterlimit:10;stroke-dasharray:none;stroke-opacity:1" />
    <path
       d="m 267.657,79.233 -0.132,-0.774 a 0.94,0.94 0 0 0 -1.082,-0.766 0.94,0.94 0 0 0 -0.766,1.082 l 0.343,2.013 c 0.078,0.455 0.477,0.78 0.924,0.78 h 6.682 a 1.17,1.17 0 0 0 1.167,-1.167 1.17,1.17 0 0 0 -1.167,-1.167 z m 13.857,0 -0.132,-0.774 a 0.94,0.94 0 0 0 -1.082,-0.766 0.94,0.94 0 0 0 -0.766,1.082 l 0.343,2.013 c 0.078,0.455 0.477,0.78 0.924,0.78 h 6.682 a 1.17,1.17 0 0 0 1.167,-1.167 1.17,1.17 0 0 0 -1.167,-1.167 c 10e-4,-10e-4 -5.969,-10e-4 -5.969,-10e-4 z m 13.857,0 -0.132,-0.774 a 0.94,0.94 0 0 0 -1.082,-0.766 0.94,0.94 0 0 0 -0.766,1.082 l 0.343,2.013 c 0.078,0.455 0.477,0.78 0.924,0.78 h 6.682 a 1.17,1.17 0 0 0 1.167,-1.167 1.17,1.17 0 0 0 -1.167,-1.167 z m 13.857,0 -0.132,-0.774 a 0.94,0.94 0 0 0 -1.082,-0.766 0.942,0.942 0 0 0 -0.767,1.082 l 0.343,2.013 c 0.078,0.455 0.477,0.78 0.924,0.78 h 6.682 a 1.17,1.17 0 0 0 1.167,-1.167 1.17,1.17 0 0 0 -1.167,-1.167 z m 13.856,0 -0.132,-0.774 a 0.94,0.94 0 0 0 -1.082,-0.766 0.94,0.94 0 0 0 -0.766,1.082 l 0.343,2.013 c 0.078,0.455 0.477,0.78 0.924,0.78 h 6.682 a 1.17,1.17 0 0 0 1.167,-1.167 1.17,1.17 0 0 0 -1.167,-1.167 z"
       fill="#11110f"
       id="path142"
       style="fill:none;stroke:#ffffff;stroke-width:2;stroke-miterlimit:10;stroke-dasharray:none;stroke-opacity:1" />
    <path
       d="m 336.163,79.233 -0.132,-0.774 a 0.94,0.94 0 0 0 -1.082,-0.766 0.94,0.94 0 0 0 -0.766,1.082 l 0.343,2.013 c 0.078,0.455 0.477,0.78 0.924,0.78 h 6.682 a 1.17,1.17 0 0 0 1.167,-1.167 1.17,1.17 0 0 0 -1.167,-1.167 z"
       fill="#32100f"
       id="path144"
       style="fill:none;stroke:#ffffff;stroke-width:2;stroke-miterlimit:10;stroke-dasharray:none;stroke-opacity:1" />
    <ellipse
       cx="246.812"
       cy="78.287003"
       rx="0.92199999"
       ry="0.82800001"
       fill="#11110f"
       id="ellipse146"
       style="fill:none;stroke:#ffffff;stroke-width:2;stroke-miterlimit:10;stroke-dasharray:none;stroke-opacity:1" />
    <ellipse
       cx="249.83299"
       cy="78.287003"
       rx="0.92199999"
       ry="0.82800001"
       fill="#11110f"
       id="ellipse148"
       style="fill:none;stroke:#ffffff;stroke-width:2;stroke-miterlimit:10;stroke-dasharray:none;stroke-opacity:1" />
    <ellipse
       cx="252.854"
       cy="78.287003"
       rx="0.92199999"
       ry="0.82800001"
       fill="#11110f"
       id="ellipse150"
       style="fill:none;stroke:#ffffff;stroke-width:2;stroke-miterlimit:10;stroke-dasharray:none;stroke-opacity:1" />
    <ellipse
       cx="255.87399"
       cy="78.287003"
       rx="0.92199999"
       ry="0.82800001"
       fill="#11110f"
       id="ellipse152"
       style="fill:none;stroke:#ffffff;stroke-width:2;stroke-miterlimit:10;stroke-dasharray:none;stroke-opacity:1" />
    <ellipse
       cx="246.45799"
       cy="81.015999"
       rx="0.92199999"
       ry="0.82800001"
       fill="#11110f"
       id="ellipse154"
       style="fill:none;stroke:#ffffff;stroke-width:2;stroke-miterlimit:10;stroke-dasharray:none;stroke-opacity:1" />
    <ellipse
       cx="249.479"
       cy="81.015999"
       rx="0.92199999"
       ry="0.82800001"
       fill="#11110f"
       id="ellipse156"
       style="fill:none;stroke:#ffffff;stroke-width:2;stroke-miterlimit:10;stroke-dasharray:none;stroke-opacity:1" />
    <ellipse
       cx="252.49899"
       cy="81.015999"
       rx="0.92199999"
       ry="0.82800001"
       fill="#11110f"
       id="ellipse158"
       style="fill:none;stroke:#ffffff;stroke-width:2;stroke-miterlimit:10;stroke-dasharray:none;stroke-opacity:1" />
    <ellipse
       cx="255.52"
       cy="81.015999"
       rx="0.92199999"
       ry="0.82800001"
       fill="#11110f"
       id="ellipse160"
       style="fill:none;stroke:#ffffff;stroke-width:2;stroke-miterlimit:10;stroke-dasharray:none;stroke-opacity:1" />
    <path
       fill="none"
       stroke="#11110f"
       stroke-width="0.5"
       stroke-miterlimit="10"
       d="m 246.812,78.287 -0.354,2.729 m 3.021,0 h -3.021 m 3.375,-2.729 -0.354,2.729 m 3.375,-2.729 h -3.021 m 6.041,0 h -3.02 m 2.666,2.729 h -3.021"
       id="path162"
       style="fill:none;stroke:#ffffff;stroke-width:2;stroke-miterlimit:10;stroke-dasharray:none;stroke-opacity:1" />
    <g
       id="g170"
       style="fill:none;stroke:#ffffff;stroke-width:2;stroke-miterlimit:10;stroke-dasharray:none;stroke-opacity:1">
      <ellipse
         transform="rotate(-21.925,219.053,80.376)"
         cx="219.05499"
         cy="80.376999"
         rx="0.954"
         ry="0.48199999"
         fill="#131314"
         id="ellipse164"
         style="fill:none;stroke:#ffffff;stroke-width:2;stroke-miterlimit:10;stroke-dasharray:none;stroke-opacity:1" />
      <path
         fill="none"
         stroke="#131314"
         stroke-width="0.5"
         stroke-miterlimit="10"
         d="m 219.705,80.15 0.296,-1.797"
         id="path166"
         style="fill:none;stroke:#ffffff;stroke-width:2;stroke-miterlimit:10;stroke-dasharray:none;stroke-opacity:1" />
      <path
         d="m 219.901,78.96 0.1,-0.607 c 0.063,0.007 0.799,0.106 1.073,0.674 0.093,0.193 0.107,0.38 0.102,0.51 -0.039,-0.098 -0.22,-0.235 -0.353,-0.309 -0.443,-0.246 -0.83,-0.276 -0.922,-0.268 z"
         fill="#131314"
         id="path168"
         style="fill:none;stroke:#ffffff;stroke-width:2;stroke-miterlimit:10;stroke-dasharray:none;stroke-opacity:1" />
    </g>
    <path
       d="m 221.067,81.608 h -3.078 A 0.386,0.386 0 0 1 217.6,81.19 l 0.215,-3.078 a 0.456,0.456 0 0 1 0.447,-0.418 h 3.078 c 0.23,0 0.405,0.188 0.389,0.418 l -0.215,3.078 a 0.457,0.457 0 0 1 -0.447,0.418 z"
       fill="none"
       stroke="#131314"
       stroke-width="0.15"
       stroke-miterlimit="10"
       id="path172"
       style="fill:none;stroke:#ffffff;stroke-width:2;stroke-miterlimit:10;stroke-dasharray:none;stroke-opacity:1" />
  </g>
</svg>
