<?xml version="1.0" encoding="UTF-8" standalone="no"?>
<svg
   viewBox="0 0 172.98438 68.500003"
   version="1.1"
   id="svg59"
   sodipodi:docname="multivision_controller.svg"
   width="172.98438"
   height="68.5"
   inkscape:version="1.1.2 (0a00cf5339, 2022-02-04)"
   xmlns:inkscape="http://www.inkscape.org/namespaces/inkscape"
   xmlns:sodipodi="http://sodipodi.sourceforge.net/DTD/sodipodi-0.dtd"
   xmlns="http://www.w3.org/2000/svg"
   xmlns:svg="http://www.w3.org/2000/svg">
  <defs
     id="defs63" />
  <sodipodi:namedview
     id="namedview61"
     pagecolor="#ffffff"
     bordercolor="#666666"
     borderopacity="1.0"
     inkscape:pageshadow="2"
     inkscape:pageopacity="0.0"
     inkscape:pagecheckerboard="true"
     showgrid="false"
     fit-margin-top="0"
     fit-margin-left="0"
     fit-margin-right="0"
     fit-margin-bottom="0"
     inkscape:zoom="4.8074113"
     inkscape:cx="86.429051"
     inkscape:cy="34.322006"
     inkscape:window-width="2560"
     inkscape:window-height="1440"
     inkscape:window-x="1920"
     inkscape:window-y="0"
     inkscape:window-maximized="1"
     inkscape:current-layer="svg59" />
  <path
     style="color:#000000;fill:#ffffff;stroke-miterlimit:10;-inkscape-stroke:none"
     d="M 10.771484,0 C 4.852024,0 0,4.851126 0,10.771485 v 46.957028 c 0,5.91946 4.852024,10.77149 10.771484,10.77149 H 162.21289 c 5.91946,0 10.77259,-4.8518 10.77149,-10.77149 V 10.771485 C 172.98438,4.852025 168.13235,0 162.21289,0 Z m 0,2 H 162.21289 c 4.82853,0 8.77149,3.942956 8.77149,8.771485 v 46.957028 0.002 c 9e-4,4.8283 -3.94296,8.76953 -8.77149,8.76953 H 10.771484 C 5.942955,66.500043 1.999999,62.557083 2,57.728553 V 10.771485 C 2,5.941854 5.942955,2.000001 10.771484,2 Z"
     id="path2" />
  <path
     style="color:#000000;fill:#ffffff;stroke-miterlimit:10;-inkscape-stroke:none"
     d="m 110.81055,33.5625 c -4.23437,0 -7.69922,3.465864 -7.69922,7.699219 v 7.664064 c 0,4.23436 3.46586,7.69922 7.69922,7.69922 h 0.22461 c 4.23335,0 7.70117,-3.46486 7.70117,-7.69922 v -7.664064 c 0,-4.234363 -3.46782,-7.699218 -7.70117,-7.699219 z m 0,0.5 h 0.22461 c 3.96063,0 7.20117,3.237591 7.20117,7.199219 v 7.664064 c 0,3.96163 -3.24054,7.19922 -7.20117,7.19922 h -0.22461 c -3.96064,0 -7.19922,-3.23759 -7.19922,-7.19922 v -7.664064 c 0,-3.960636 3.23759,-7.199219 7.19922,-7.199219 z"
     id="path4" />
  <path
     style="color:#000000;fill:#ffffff;stroke-miterlimit:10;-inkscape-stroke:none"
     d="m 110.81836,34.353516 c -3.94635,0 -7.17774,3.230379 -7.17774,7.177734 v 7.126954 c 0,3.946349 3.23038,7.177739 7.17774,7.177739 h 0.20898 c 3.94635,0 7.17774,-3.23038 7.17774,-7.177739 V 41.53125 c 0,-3.946347 -3.23038,-7.177734 -7.17774,-7.177734 z m 0,0.5 h 0.20898 c 3.67464,0 6.67774,3.00409 6.67774,6.677734 v 7.126954 c 0,3.674639 -3.00409,6.677739 -6.67774,6.677739 h -0.20898 c -3.67464,0 -6.67773,-3.00409 -6.67774,-6.677739 V 41.53125 c 0,-3.674636 3.00409,-6.677734 6.67774,-6.677734 z"
     id="path6" />
  <path
     style="color:#000000;fill:#ffffff;stroke-miterlimit:10;-inkscape-stroke:none"
     d="m 141.66406,33.5625 c -4.23436,0 -7.70117,3.465864 -7.70117,7.699219 v 7.664064 c 0,4.23436 3.46782,7.69922 7.70117,7.69922 h 0.22461 c 4.23432,0 7.69922,-3.4649 7.69922,-7.69922 v -7.664064 c 0,-4.234363 -3.46586,-7.699218 -7.69922,-7.699219 z m 0,0.5 h 0.22461 c 3.96064,0 7.19922,3.237591 7.19922,7.199219 v 7.664064 c 0,3.96167 -3.23755,7.19922 -7.19922,7.19922 h -0.22461 c -3.96063,0 -7.20117,-3.23759 -7.20117,-7.19922 v -7.664064 c 0,-3.960636 3.23954,-7.199219 7.20117,-7.199219 z"
     id="path8" />
  <path
     style="color:#000000;fill:#ffffff;stroke-miterlimit:10;-inkscape-stroke:none"
     d="m 141.66992,34.353516 c -3.94635,0 -7.17773,3.230379 -7.17773,7.177734 v 7.126954 c 0,3.946349 3.23038,7.177739 7.17773,7.177739 h 0.21094 c 3.94731,0 7.17877,-3.23035 7.17773,-7.177739 V 41.53125 c 0,-3.946347 -3.23038,-7.177734 -7.17773,-7.177734 z m 0,0.5 h 0.21094 c 3.67464,0 6.67773,3.00409 6.67773,6.677734 v 7.126954 c 9.7e-4,3.674599 -3.00305,6.677739 -6.67773,6.677739 h -0.21094 c -3.67464,0 -6.67773,-3.00409 -6.67773,-6.677739 V 41.53125 c 0,-3.674636 3.00409,-6.677734 6.67773,-6.677734 z"
     id="path10" />
  <path
     style="color:#000000;fill:#ffffff;stroke-miterlimit:10;-inkscape-stroke:none"
     d="M 97.669921,8.183594 V 8.583985 24.566407 H 154.38477 V 8.183594 Z m 0.798828,0.800781 H 153.58594 V 23.767579 H 98.468749 Z"
     id="path12" />
  <path
     style="color:#000000;fill:#ffffff;stroke-miterlimit:10;-inkscape-stroke:none"
     d="m 18.333984,33.75 c 0,12.182518 9.885842,22.066403 22.068359,22.066403 12.182518,0 22.066407,-9.883885 22.066407,-22.066403 0,-12.182517 -9.883889,-22.066406 -22.066407,-22.066406 -12.182517,0 -22.068359,9.883889 -22.068359,22.066406 z m 0.800781,0 c 0,-11.750165 9.517412,-21.267578 21.267578,-21.267578 11.750166,0 21.265625,9.517413 21.265625,21.267578 0,11.750166 -9.515459,21.267583 -21.265625,21.267583 -11.750166,0 -21.267578,-9.517417 -21.267578,-21.267583 z"
     id="circle14" />
  <linearGradient
     id="a"
     gradientUnits="userSpaceOnUse"
     x1="-27.395"
     y1="99.546997"
     x2="1.714"
     y2="70.438004"
     gradientTransform="rotate(90,0,4.9991475e-4)">
    <stop
       offset="0"
       stop-color="#373738"
       id="stop16" />
    <stop
       offset=".044"
       stop-color="#333334"
       id="stop18" />
    <stop
       offset=".173"
       stop-color="#2a292b"
       id="stop20" />
    <stop
       offset=".316"
       stop-color="#212122"
       id="stop22" />
    <stop
       offset=".478"
       stop-color="#1b1a1c"
       id="stop24" />
    <stop
       offset=".674"
       stop-color="#161618"
       id="stop26" />
    <stop
       offset="1"
       stop-color="#151517"
       id="stop28" />
  </linearGradient>
  <path
     style="color:#000000;fill:#ffffff;stroke-miterlimit:10;-inkscape-stroke:none"
     d="m 19.417968,33.75 c 0,11.583842 9.400534,20.982423 20.984375,20.982423 11.583842,0 20.982422,-9.398581 20.982422,-20.982423 0,-11.583841 -9.39858,-20.982421 -20.982422,-20.982421 -11.583841,0 -20.984375,9.39858 -20.984375,20.982421 z m 0.800782,0 c 0,-11.151489 9.032103,-20.183593 20.183593,-20.183593 11.15149,0 20.181641,9.032104 20.181641,20.183593 0,11.15149 -9.030151,20.183593 -20.181641,20.183593 -11.15149,0 -20.183593,-9.032103 -20.183593,-20.183593 z"
     id="circle31" />
  <path
     style="color:#000000;fill:#ffffff;stroke-miterlimit:10;-inkscape-stroke:none"
     d="m 39.361328,14.681641 c -0.528494,0 -0.962891,0.435553 -0.962891,0.962891 V 23.1875 c 0,0.527634 0.435257,0.962891 0.962891,0.962891 h 2.083984 c 0.525655,-0.0019 0.95908,-0.435282 0.960937,-0.960937 v -0.002 -7.542968 c -0.0019,-0.525656 -0.435282,-0.961033 -0.960937,-0.962891 z m 0,0.800781 h 2.082031 c 0.09442,0.0011 0.163728,0.06932 0.164062,0.164063 v 7.539062 c -3.36e-4,0.09531 -0.07071,0.163726 -0.166015,0.164063 h -2.080078 c -0.09237,0 -0.164063,-0.06974 -0.164063,-0.16211 v -7.542968 c 0,-0.09066 0.07256,-0.16211 0.164063,-0.16211 z M 22.296875,31.746094 c -0.528495,0 -0.962891,0.435553 -0.962891,0.962891 v 2.082031 c 0,0.528494 0.435552,0.962891 0.962891,0.962891 h 7.542968 0.002 c 0.525656,-0.0019 0.95908,-0.435282 0.960938,-0.960938 v -2.085937 c -0.0019,-0.525656 -0.435282,-0.95908 -0.960938,-0.960938 h -0.002 z m 28.667968,0 c -0.527634,0 -0.96289,0.435257 -0.96289,0.962891 v 2.083984 c 0,0.528494 0.435552,0.962891 0.96289,0.962891 h 7.542969 c 0.525655,-0.0019 0.95908,-0.437235 0.960938,-0.962891 v -2.083984 -0.002 c -0.0019,-0.525609 -0.435283,-0.959033 -0.960938,-0.960891 z m -28.667968,0.798828 h 7.542968 c 0.09442,0.0011 0.161775,0.06932 0.16211,0.164063 v 2.080078 c -3.37e-4,0.0953 -0.06876,0.165679 -0.164063,0.166016 h -7.541015 c -0.09066,0 -0.16211,-0.07256 -0.16211,-0.164063 v -2.082031 c 0,-0.09066 0.0706,-0.164063 0.16211,-0.164063 z m 28.667968,0.002 h 7.541016 c 0.0953,3.37e-4 0.163726,0.06876 0.164062,0.164063 v 2.080078 c -3.36e-4,0.09531 -0.06876,0.163726 -0.164062,0.164063 h -7.541016 c -0.09066,0 -0.164062,-0.0706 -0.164062,-0.16211 v -2.083984 c 0,-0.09237 0.0717,-0.16211 0.164062,-0.16211 z M 39.359374,43.34961 c -0.528494,0 -0.96289,0.435552 -0.96289,0.96289 v 7.541013 c 0,0.5285 0.435552,0.96289 0.96289,0.96289 h 2.083985 c 0.525655,-0.002 0.961033,-0.43528 0.96289,-0.96093 V 44.3125 44.3105 c -0.0019,-0.525655 -0.437235,-0.95908 -0.96289,-0.960937 z m 0,0.798828 h 2.082032 c 0.0953,3.37e-4 0.163725,0.07071 0.164062,0.166016 v 7.539059 c -3.37e-4,0.0953 -0.06876,0.16373 -0.164062,0.16407 h -2.082032 c -0.09066,0 -0.162109,-0.0726 -0.162109,-0.16407 V 44.3125 c 0,-0.09066 0.0706,-0.164062 0.162109,-0.164062 z"
     id="path33" />
  <path
     style="color:#000000;fill:#ffffff;stroke-miterlimit:10;-inkscape-stroke:none"
     d="m 32.439453,33.75 c 0,4.393102 3.569789,7.962891 7.96289,7.962891 4.393102,0 7.962891,-3.569789 7.962891,-7.962891 0,-4.393101 -3.569789,-7.96289 -7.962891,-7.96289 -4.393101,0 -7.96289,3.569789 -7.96289,7.96289 z m 0.798828,0 c 0,-3.960749 3.203313,-7.162109 7.164062,-7.162109 3.96075,0 7.16211,3.20136 7.16211,7.162109 0,3.96075 -3.20136,7.164063 -7.16211,7.164063 -3.960749,0 -7.164062,-3.203313 -7.164062,-7.164063 z"
     id="circle35" />
  <g
     fill="#5f82ac"
     id="g43"
     transform="rotate(-90,34.25,33.250313)"
     style="fill:#ffffff;stroke:#000000;stroke-width:0.8;stroke-miterlimit:10">
    <path
       style="color:#000000;fill:#ffffff;stroke:none;-inkscape-stroke:none"
       d="m 45.308594,117.71484 c -0.304542,0 -0.560547,0.25406 -0.560547,0.5586 v 0.88867 c 0,0.30454 0.256005,0.56055 0.560547,0.56055 h 5.011718 c 0.304542,0 0.560547,-0.25601 0.560547,-0.56055 v -0.88867 c 0,-0.30454 -0.256005,-0.5586 -0.560547,-0.5586 z m 0.240234,0.79883 h 4.53125 v 0.41016 h -4.53125 z m -0.240234,2.9043 c -0.304542,0 -0.560547,0.256 -0.560547,0.56055 v 0.89062 0.002 c 0.0037,0.30061 0.254085,0.55296 0.554687,0.55664 h 0.002 3.712891 c 0.157319,0 0.186388,-0.18117 0.289063,-0.28906 0.09244,0.11557 0.131264,0.28711 0.287109,0.28711 h 0.548828 c 0.271404,0 0.5,-0.22859 0.5,-0.5 v -1.00586 c 0,-0.2714 -0.228596,-0.5 -0.5,-0.5 H 49.59375 c -0.155845,0 -0.19467,0.17154 -0.287109,0.28711 -0.102675,-0.10789 -0.131744,-0.28906 -0.289063,-0.28906 z m 0.240234,0.80078 h 3.228516 v 0.4082 h -3.228516 z m -0.240234,4.24609 c -0.304542,0 -0.560547,0.25601 -0.560547,0.56055 v 0.88867 c -6e-6,0.30474 0.255981,0.55961 0.560547,0.5586 h 3.708984 c 0.157744,0 0.188259,-0.18064 0.291016,-0.28907 0.09335,0.11681 0.131562,0.29102 0.289062,0.29102 h 0.541016 c 0.274166,0 0.503906,-0.23169 0.503906,-0.50586 v -0.99609 c 0,-0.2741 -0.229814,-0.50586 -0.503906,-0.50586 h -0.541016 c -0.157457,0 -0.195697,0.1742 -0.289062,0.29101 -0.102862,-0.10979 -0.132101,-0.29297 -0.291016,-0.29297 z m 0.240234,0.80079 h 3.228516 v 0.4082 h -3.228516 z m -0.240234,4.5039 c -0.304542,0 -0.560547,0.25405 -0.560547,0.55859 v 0.89258 0.002 c 0.0037,0.3006 0.254085,0.55099 0.554687,0.55468 h 0.002 3.712891 c 0.15866,0 0.188183,-0.18152 0.291016,-0.29101 0.09372,0.11717 0.132961,0.29101 0.291015,0.29101 h 0.53711 c 0.27527,0 0.507812,-0.23254 0.507812,-0.50781 v -0.99414 c 0,-0.27595 -0.231863,-0.50586 -0.507812,-0.50586 h -0.53711 c -0.15875,0 -0.197426,0.17352 -0.291015,0.29102 -0.102833,-0.10949 -0.132356,-0.29102 -0.291016,-0.29102 z m 0.240234,0.79883 h 3.228516 v 0.41016 h -3.228516 z"
       id="path37" />
    <path
       style="color:#000000;fill:#ffffff;stroke:none;-inkscape-stroke:none"
       d="m 46.589844,113.48242 c -0.395313,0 -0.806736,0.16439 -1.146485,0.47852 -0.339748,0.31413 -0.59375,0.80025 -0.59375,1.39453 0,0.34257 0.243682,0.59303 0.398438,0.88476 -0.275139,0.0448 -0.5,0.25109 -0.5,0.51563 v 0.87305 c 0,0.292 0.230639,0.5664 0.552734,0.5664 h 3.802735 c 0.322095,0 0.552734,-0.2744 0.552734,-0.5664 v -0.87305 c 0,-0.292 -0.230639,-0.56836 -0.552734,-0.56836 h -2.199219 c -0.160667,0 -0.308594,-0.14609 -0.308594,-0.39453 0,-0.24295 0.156393,-0.30274 0.210938,-0.30274 h 2.296875 c 0.322095,0 0.552734,-0.2744 0.552734,-0.5664 v -0.87305 c 0,-0.292 -0.230639,-0.56836 -0.552734,-0.56836 z m 0,0.80078 h 2.267578 v 0.40821 h -2.050781 c -0.512999,0 -0.953587,0.44648 -0.988282,1.04101 -0.0458,-0.13125 -0.167968,-0.22316 -0.167968,-0.37695 0,-0.37572 0.141936,-0.62727 0.335937,-0.80664 0.194001,-0.17937 0.453829,-0.26563 0.603516,-0.26563 z m 0.24414,2.67383 c 0.02746,0.002 0.04217,0.0312 0.07031,0.0312 h 1.951172 v 0.4082 h -3.306641 v -0.4082 h 1.322266 z m 1.476563,1.36133 c -0.294095,0 -0.501953,0.24963 -0.501953,0.51172 v 0.57422 h -1.751953 c -0.393216,0 -0.7468,0.16199 -0.97461,0.42187 -0.227809,0.25988 -0.333984,0.59773 -0.333984,0.94141 v 1.73633 h 1.210937 l -0.115234,-0.2793 0.484375,-0.23438 c 0.01461,0.0424 0.0293,0.086 0.0293,0.0859 -1.5e-5,-2.1e-4 0.0019,0.0117 0.002,0.0137 -2.4e-5,-0.002 3.7e-5,-0.005 0,-0.01 -8.8e-5,-0.0123 7e-5,-0.0304 0,-0.0547 -3.6e-5,-0.0126 3e-5,-0.0356 0,-0.0508 l 0.564453,-0.27148 h -0.566406 c -4.1e-5,-0.0987 2e-6,-0.19641 0,-0.29102 0.01853,-0.002 0.0039,0 0.0293,0 h 1.421875 v 0.12891 c 0,0.26209 0.207858,0.51171 0.501953,0.51171 h 0.585937 c 0.294095,0 0.501953,-0.24962 0.501953,-0.51171 v -0.12891 h 0.744141 c 0.292576,0 0.5,-0.24767 0.5,-0.50977 v -0.98828 c 0,-0.26 -0.205905,-0.50976 -0.5,-0.50976 H 49.39849 v -0.57422 c 10e-7,-0.26209 -0.207858,-0.51172 -0.501953,-0.51172 z m -2.253906,1.88477 h 2.542968 0.0098 1.234375 v 0.4082 h -1.234375 -0.0098 -2.21289 c -0.114347,0 -0.276353,-0.0126 -0.476563,0.0898 -0.20021,0.10243 -0.351562,0.38015 -0.351562,0.62696 0,0.1128 -5.2e-5,0.24761 0,0.375 h -0.0098 v -0.93555 c 0,-0.18032 0.05532,-0.32344 0.134766,-0.41406 0.07944,-0.0906 0.179263,-0.1504 0.373047,-0.15039 z m -0.75586,17.2207 c -0.322095,0 -0.552734,0.2744 -0.552734,0.5664 v 0.875 c 0,0.292 0.230639,0.56641 0.552734,0.56641 H 47.5 c 0.160667,0 0.308594,0.14804 0.308594,0.39648 0,0.24295 -0.156394,0.30079 -0.210938,0.30079 h -2.296875 c -0.322095,0 -0.554687,0.2744 -0.554687,0.5664 v 0.875 c 0,0.292 0.232592,0.56641 0.554687,0.56641 h 2.513672 c 0.395313,0 0.804783,-0.16439 1.144531,-0.47852 0.339749,-0.31412 0.595703,-0.7983 0.595703,-1.39258 0,-0.34311 -0.245155,-0.59463 -0.40039,-0.88671 0.275905,-0.0442 0.501953,-0.24869 0.501953,-0.51368 v -0.875 c 0,-0.292 -0.230639,-0.5664 -0.552734,-0.5664 z m 0.248047,0.80078 h 3.306641 v 0.4082 h -1.322266 l 0.03711,0.0312 c -0.02746,-0.002 -0.04217,-0.0312 -0.07031,-0.0312 h -1.951172 z m 3.037109,1.66406 c 0.0458,0.13125 0.167969,0.22317 0.167969,0.37695 0,0.37573 -0.143889,0.62532 -0.33789,0.80469 -0.194002,0.17937 -0.451876,0.26758 -0.601563,0.26758 h -2.267578 v -0.4082 h 2.050781 c 0.512955,0 0.953516,-0.44656 0.988281,-1.04102 z"
       id="path39" />
    <path
       style="color:#000000;fill:#ffffff;stroke:none;-inkscape-stroke:none"
       d="m 45.300781,108.01953 c -0.262571,0 -0.453125,0.2248 -0.453125,0.4668 v 0.875 c 0,0.242 0.190554,0.46679 0.453125,0.4668 h 2.605469 l -0.636719,0.69531 v 0.002 c -0.192767,0.21623 -0.192767,0.5494 0,0.76563 v 0.002 l 0.636719,0.69531 h -2.605469 c -0.262571,0 -0.453125,0.2248 -0.453125,0.4668 v 0.87305 c 0,0.24199 0.190554,0.46874 0.453125,0.46875 h 4.638672 l 0.04297,-0.006 h 0.0098 l 0.01758,-0.002 h 0.0098 c 0.200977,-0.0237 0.386563,-0.12066 0.521485,-0.27148 0.134206,-0.14936 0.216924,-0.33708 0.234375,-0.53711 v -0.0137 c 0.0021,-0.0255 0.0039,-0.0506 0.0039,-0.0762 v -0.0117 -0.002 c -2.3e-4,-0.0225 -0.0023,-0.044 -0.0039,-0.0664 v -0.008 l -0.0039,-0.0273 v -0.004 c -0.002,-0.0187 -0.0043,-0.0362 -0.0078,-0.0547 v -0.002 l -0.0059,-0.0254 -0.0098,-0.0488 -0.002,-0.004 c -0.03753,-0.13935 -0.109411,-0.26871 -0.207032,-0.375 h 0.002 l -0.388672,-0.42188 -0.486328,-0.5332 -0.367188,-0.40039 0.367188,-0.39844 0.486328,-0.5332 0.388672,-0.42383 c 0.09574,-0.10582 0.164978,-0.23358 0.203125,-0.37109 l 0.002,-0.006 0.01172,-0.0488 0.0078,-0.0332 0.0059,-0.0449 0.0039,-0.0371 v -0.006 c 0.0016,-0.0224 0.0037,-0.0459 0.0039,-0.0684 v -0.002 -0.01 c -3e-6,-0.025 -0.0019,-0.0512 -0.0039,-0.0762 v -0.0137 c -0.01745,-0.20003 -0.100169,-0.3897 -0.234375,-0.53906 -0.134912,-0.14975 -0.319443,-0.24524 -0.519532,-0.26953 h -0.0059 l -0.01172,-0.002 h -0.01758 -0.0039 c -0.01825,-0.001 -0.03639,-0.004 -0.05469,-0.004 z m 0.146485,0.59961 h 4.480468 c 0.0074,0 0.01417,0.001 0.02148,0.002 5.92e-4,8e-5 0.0014,-7e-5 0.002,0 0.05572,0.007 0.106898,0.0344 0.144531,0.0762 0.04688,0.0522 0.07555,0.1177 0.08203,0.1875 5.7e-5,6.1e-4 -5.3e-5,0.001 0,0.002 v 0.004 c 0.001,0.0105 0.002,0.0226 0.002,0.0332 v 0.01 c -1.6e-4,0.009 -0.0013,0.0184 -0.002,0.0273 l -0.002,0.006 -0.002,0.0234 -0.002,0.008 -0.0059,0.0215 c -0.01319,0.0476 -0.03721,0.0923 -0.07031,0.12891 l -0.384766,0.42187 -0.488281,0.53125 -0.736328,0.80469 0.736328,0.80469 0.488281,0.5332 0.386719,0.42383 c 0.0324,0.0353 0.0559,0.0787 0.06836,0.125 l 0.0059,0.0234 0.0039,0.0156 -0.002,-0.002 c 5.31e-4,0.003 0.0017,0.005 0.002,0.008 v 0.002 l 0.002,0.0137 c 7.3e-4,0.0102 0.0018,0.021 0.002,0.0312 v 0.006 c -1e-6,0.0106 -9.17e-4,0.0207 -0.002,0.0312 v 0.006 l -0.002,0.002 c -0.0066,0.0695 -0.03338,0.13553 -0.08008,0.1875 h -0.002 c -0.03685,0.0412 -0.08783,0.0671 -0.142578,0.0742 l -0.03711,0.004 h -4.466796 v -0.60742 h 3.822265 l -1.537109,-1.67969 1.537109,-1.67968 h -3.822265 z m 3.476562,13.94336 -2.681641,0.93945 c -0.03296,0.009 -0.06504,0.0175 -0.09766,0.0274 -0.637383,0.18641 -0.990592,0.54296 -1.152344,0.86328 -0.155601,0.30814 -0.13784,0.57424 -0.136718,0.5957 -0.0011,0.0199 -0.01937,0.28856 0.136718,0.59766 0.161752,0.32032 0.514961,0.67882 1.152344,0.86523 l 2.796875,0.81836 c 0.121069,0.0346 0.272714,0.0129 0.378906,-0.0723 0.106193,-0.0851 0.15625,-0.21885 0.15625,-0.33985 v -0.87695 -0.004 c -0.0055,-0.21848 -0.145597,-0.41323 -0.351562,-0.48633 l -0.0078,-0.002 -1.791015,-0.52539 1.804687,-0.63086 0.0078,-0.002 c 0.197394,-0.0817 0.330006,-0.27285 0.33789,-0.48633 v -0.006 -0.88086 c 0,-0.121 -0.05198,-0.25756 -0.166015,-0.3418 -0.113467,-0.0838 -0.267756,-0.0939 -0.384766,-0.0527 z m -0.04687,0.65039 v 0.57422 l -3.427734,1.19727 -0.002,-0.0176 c 0,0 -0.01217,-0.12006 0.08008,-0.30274 0.09225,-0.18268 0.28054,-0.41101 0.785156,-0.55859 h 0.002 v -0.002 c 0.02782,-0.008 0.05583,-0.0161 0.08398,-0.0234 l 0.01367,-0.002 z m -3.421875,1.82617 3.421875,1.00391 v 0.58203 l -2.564453,-0.75 c -0.504616,-0.14758 -0.692908,-0.37591 -0.785156,-0.55859 -0.08392,-0.1662 -0.07343,-0.25794 -0.07227,-0.27735 z m -0.607422,2.4961 v 2.89453 c 0,0.90493 0.686771,1.67383 1.556641,1.67383 0.86987,0 1.55664,-0.7689 1.55664,-1.67383 v -0.38086 c 0,-0.0483 0.04283,-0.0742 0.04297,-0.0742 0.0061,0 0.04297,0.0249 0.04297,0.0742 v 2.92383 h 1.429687 v -3.1836 c 0,-0.85371 -0.649052,-1.57812 -1.472656,-1.57812 -0.822881,0 -1.472656,0.72412 -1.472656,1.57812 v 0.29688 c 0,0.0981 -0.07944,0.16601 -0.126953,0.16601 -0.04752,0 -0.128906,-0.0679 -0.128906,-0.16601 v -2.55078 z m 0.59961,0.59961 h 0.228515 v 1.95117 c 0,0.40794 0.312034,0.76562 0.728516,0.76562 0.416482,0 0.728516,-0.35768 0.728515,-0.76562 v -0.29688 c 0,-0.554 0.405977,-0.97851 0.871094,-0.97851 0.466395,0 0.873047,0.42423 0.873047,0.97851 v 2.58399 h -0.230469 v -2.32422 c 0,-0.3567 -0.272663,-0.67383 -0.642578,-0.67383 -0.369864,0 -0.642578,0.31615 -0.642578,0.67383 v 0.38086 c 0,0.60506 -0.444903,1.07422 -0.957031,1.07422 -0.512128,0 -0.957031,-0.46916 -0.957031,-1.07422 z m 1.65625,4.8789 c -1.351363,0 -2.398438,1.16405 -2.398438,2.60156 0,1.43856 1.0481,2.60157 2.398438,2.60157 1.351362,0 2.439453,-1.15788 2.439453,-2.60157 0,-1.44368 -1.088091,-2.60156 -2.439453,-2.60156 z m 0,0.59961 c 1.010635,0 1.83789,0.85364 1.83789,2.00195 0,1.14832 -0.827255,2.00196 -1.83789,2.00196 -1.00966,0 -1.796875,-0.84651 -1.796875,-2.00196 0,-1.15448 0.78624,-2.00195 1.796875,-2.00195 z m 0.0098,0.66602 c -0.38035,0 -0.752342,0.0538 -1.054687,0.26757 -0.302346,0.21381 -0.484375,0.5949 -0.484375,1.06836 0,0.47359 0.183918,0.85464 0.486328,1.06836 0.30241,0.21373 0.672838,0.26758 1.052734,0.26758 0.389235,0 0.765263,-0.0767 1.066406,-0.29492 0.301144,-0.21819 0.494141,-0.59108 0.494141,-1.04102 0,-0.4498 -0.191112,-0.82471 -0.492187,-1.04296 -0.301076,-0.21826 -0.678684,-0.29297 -1.06836,-0.29297 z m 0,0.59961 c 0.307323,0 0.55967,0.0672 0.714844,0.17968 0.155174,0.11249 0.246094,0.25745 0.246094,0.55664 0,0.29907 -0.09074,0.44408 -0.246094,0.55664 -0.155356,0.11257 -0.40808,0.17969 -0.714844,0.17969 -0.316103,0 -0.564442,-0.0574 -0.707031,-0.1582 -0.142589,-0.10077 -0.230469,-0.23771 -0.230469,-0.57813 0,-0.34053 0.08807,-0.47742 0.230469,-0.57812 0.142404,-0.1007 0.390382,-0.1582 0.707031,-0.1582 z"
       id="path41" />
  </g>
  <g
     fill="#5f82ac"
     id="g51"
     transform="rotate(-90,34.25,33.250313)"
     style="fill:#ffffff;stroke:#000000;stroke-width:0.6;stroke-miterlimit:10">
    <path
       style="color:#000000;fill:#ffffff;stroke:none;-inkscape-stroke:none"
       d="m 54.931641,118.08594 c -0.262572,0 -0.453125,0.22479 -0.453125,0.46679 v 0.61915 h -1.851563 c -0.368287,0 -0.691127,0.14799 -0.900391,0.38671 -0.209263,0.23872 -0.308593,0.5537 -0.308593,0.87696 v 1.63672 h 1.410156 l -0.002,-1.07618 c 0,-0.0791 -0.01828,-0.009 -0.02734,-0.004 -0.0091,0.005 0.05738,-0.0117 0.15625,-0.0117 h 1.523438 v 0.17187 c 0,0.242 0.190553,0.4668 0.453125,0.4668 h 0.484375 c 0.262571,0 0.453125,-0.2248 0.453125,-0.4668 v -0.17187 h 0.791015 c 0.262571,0 0.453125,-0.2248 0.453125,-0.4668 v -0.875 c 0,-0.242 -0.190554,-0.46679 -0.453125,-0.46679 h -0.791015 v -0.61915 c 0,-0.242 -0.190554,-0.46679 -0.453125,-0.46679 z m 0.146484,0.59961 h 0.191406 v 1.08593 h 1.244141 v 0.60938 h -1.244141 v 0.63867 h -0.191406 v -0.63867 h -2.123047 c -0.112135,0 -0.259374,-0.011 -0.429687,0.0762 -0.170314,0.0871 -0.298829,0.31621 -0.298829,0.53906 l 0.002,0.47657 h -0.210938 v -1.03711 c 0,-0.20074 0.06217,-0.36869 0.160156,-0.48047 0.09799,-0.11178 0.230506,-0.1836 0.449219,-0.1836 h 2.451172 z m -3.201172,10.68164 c -0.250497,0 -0.458984,0.21044 -0.458984,0.46093 v 0.88868 c 0,0.12604 0.145847,0.1486 0.230468,0.23242 -0.08431,0.0838 -0.230468,0.10469 -0.230468,0.23047 v 0.89062 c 0.0015,0.24896 0.208078,0.45745 0.457031,0.45899 h 0.002 5.013672 c 0.250497,0 0.458984,-0.21044 0.458984,-0.46094 v -0.88867 c 0,-0.12578 -0.146157,-0.1467 -0.230468,-0.23047 0.08462,-0.0838 0.230468,-0.10638 0.230468,-0.23242 v -0.88868 c 0,-0.25049 -0.208487,-0.46093 -0.458984,-0.46093 z m 0.140625,0.60156 H 56.75 v 0.60742 h -4.732422 z m 0,1.35156 H 56.75 v 0.60938 h -4.732422 z"
       id="path45" />
    <path
       style="color:#000000;fill:#ffffff;stroke:none;-inkscape-stroke:none"
       d="m 51.869141,121.16992 c -0.262572,0 -0.451172,0.2248 -0.451172,0.4668 v 0.875 c 0,0.242 0.1886,0.4668 0.451172,0.4668 h 2.199218 c 0.2205,0 0.410157,0.20051 0.410157,0.49609 0,0.29146 -0.198092,0.40039 -0.3125,0.40039 h -2.296875 c -0.262572,0 -0.451172,0.2248 -0.451172,0.4668 v 0.875 c 0,0.242 0.1886,0.46679 0.451172,0.46679 h 2.513671 c 0.364548,6.7e-4 0.756682,-0.15383 1.078125,-0.45117 0.321444,-0.29734 0.562501,-0.75489 0.5625,-1.32226 0,-0.36224 -0.240953,-0.63394 -0.419921,-0.93164 h 1.292968 c 0.262572,0 0.453125,-0.2248 0.453125,-0.4668 v -0.875 c 0,-0.242 -0.190553,-0.4668 -0.453125,-0.4668 z m 0.148437,0.59961 H 56.75 v 0.60938 h -2.380859 l 0.332031,0.28906 c -0.172758,-0.16011 -0.379083,-0.28906 -0.632813,-0.28906 h -2.050781 z m 2.794922,0.99414 0.160156,0.14063 c 0.294795,0.25691 0.451172,0.59894 0.451172,1.00586 0,0.40362 -0.157085,0.6847 -0.369141,0.88086 -0.212055,0.19615 -0.490469,0.29134 -0.669921,0.29101 h -2.367188 v -0.60742 h 2.148438 c 0.473591,0 0.912109,-0.41746 0.912109,-1 0,-0.26843 -0.10856,-0.51436 -0.265625,-0.71094 z"
       id="path47" />
    <path
       style="color:#000000;fill:#ffffff;stroke:none;-inkscape-stroke:none"
       d="m 54.375,112.98828 c -1.752559,0 -3.167969,1.48029 -3.167969,3.2832 0,1.80292 1.41541,3.28125 3.167969,3.28125 1.752559,0 3.167969,-1.47833 3.167969,-3.28125 0,-1.80291 -1.41541,-3.2832 -3.167969,-3.2832 z m 0,0.60156 c 1.415438,0 2.568359,1.19057 2.568359,2.68164 0,1.49108 -1.152921,2.68165 -2.568359,2.68165 -1.415438,0 -2.568359,-1.19057 -2.568359,-2.68165 0,-1.49107 1.152921,-2.68164 2.568359,-2.68164 z m 0,0.85743 c -0.569772,0 -1.107465,0.13156 -1.519531,0.44336 -0.412066,0.31179 -0.673828,0.81446 -0.673828,1.43554 0,0.62109 0.261762,1.12571 0.673828,1.4375 0.412066,0.31179 0.949759,0.44336 1.519531,0.44336 0.57494,0 1.112573,-0.14933 1.521484,-0.4668 0.408911,-0.31746 0.671875,-0.81589 0.671875,-1.41406 0,-0.59817 -0.262964,-1.0966 -0.671875,-1.41406 -0.408911,-0.31746 -0.946544,-0.46484 -1.521484,-0.46484 z m 0,0.59961 c 0.470059,-1e-5 0.877958,0.1253 1.154297,0.33984 0.276338,0.21454 0.439453,0.50562 0.439453,0.93945 0,0.43383 -0.163115,0.72687 -0.439453,0.94141 -0.276339,0.21454 -0.684238,0.33984 -1.154297,0.33984 -0.475227,0 -0.88502,-0.11556 -1.158203,-0.32226 -0.273183,-0.20671 -0.435547,-0.49407 -0.435547,-0.95899 0,-0.46491 0.162364,-0.75032 0.435547,-0.95703 0.273183,-0.20671 0.682976,-0.32227 1.158203,-0.32226 z m -0.701172,10.01953 c -1.343742,0 -2.398437,1.11298 -2.398437,2.5 0,1.0591 0.606938,1.96114 1.5,2.32617 l 0.414062,0.16797 v -0.041 l 0.0957,0.0156 c 0.125426,0.0203 0.254578,0.0312 0.388672,0.0312 1.343742,0 2.4375,-1.10653 2.4375,-2.5 0,-1.39348 -1.093758,-2.5 -2.4375,-2.5 z m 0,0.60156 c 1.018256,0 1.837891,0.81392 1.837891,1.89844 0,1.08452 -0.819635,1.90039 -1.837891,1.90039 -0.014,0 -0.02714,-0.004 -0.04102,-0.004 v -0.26758 -3.01758 l -0.375,0.0977 c -0.5989,0.15581 -1.074218,0.64394 -1.074218,1.25391 0,0.49971 0.195624,0.92002 0.52539,1.16601 l -0.11914,-0.24219 v 0.54102 c -0.406305,-0.34071 -0.712891,-0.80638 -0.712891,-1.42773 0,-1.09098 0.77862,-1.89844 1.796875,-1.89844 z m 0.208984,0.50781 v 2.70508 l 0.402344,-0.14844 c 0.520518,-0.19106 0.917969,-0.64743 0.917969,-1.20312 0,-0.55569 -0.39794,-1.01298 -0.917969,-1.20508 z m -0.849609,1.08399 v 0.86914 c -0.134502,-0.12772 -0.25,-0.29063 -0.25,-0.59961 0,-0.11762 0.179382,-0.16732 0.25,-0.26953 z m 1.449219,0.12109 c 0.02004,0.0587 0.121094,0.0865 0.121094,0.14844 0,0.062 -0.101001,0.0896 -0.121094,0.14843 z m -0.808594,4.48047 c -1.351363,0 -2.398437,1.16405 -2.398437,2.60156 0,1.43767 1.04793,2.60156 2.398437,2.60156 1.3515,0.001 2.4375,-1.15699 2.4375,-2.60156 0,-1.44457 -1.086306,-2.60156 -2.4375,-2.60156 z m 0,0.59961 c 1.010804,0 1.837891,0.85252 1.837891,2.00195 0,1.14943 -0.827393,2.00281 -1.837891,2.00195 -1.00949,0 -1.796875,-0.84762 -1.796875,-2.00195 0,-1.15449 0.78624,-2.00195 1.796875,-2.00195 z m 0.0078,0.66601 c -0.380351,0 -0.750389,0.0538 -1.052735,0.26758 -0.302345,0.2138 -0.484375,0.5949 -0.484375,1.06836 0,0.47358 0.181965,0.85463 0.484375,1.06836 0.302411,0.21373 0.672838,0.26758 1.052735,0.26758 0.389235,0 0.767215,-0.0767 1.068359,-0.29492 0.301144,-0.21819 0.492187,-0.59109 0.492187,-1.04102 0,-0.4498 -0.191111,-0.82276 -0.492187,-1.04102 -0.301076,-0.21825 -0.678683,-0.29492 -1.068359,-0.29492 z m 0,0.59961 c 0.307323,0 0.561623,0.0672 0.716796,0.17969 0.155174,0.11249 0.244141,0.25744 0.244141,0.55664 0,0.29907 -0.08879,0.44408 -0.244141,0.55664 -0.155355,0.11256 -0.410032,0.17969 -0.716796,0.17969 -0.316104,0 -0.564442,-0.0574 -0.707032,-0.1582 -0.142589,-0.10078 -0.230468,-0.23771 -0.230468,-0.57813 0,-0.34054 0.08806,-0.47742 0.230468,-0.57812 0.142404,-0.1007 0.390383,-0.15821 0.707032,-0.15821 z"
       id="path49" />
  </g>
  <path
     style="color:#000000;fill:#ffffff;stroke-miterlimit:10;-inkscape-stroke:none"
     d="m 138.04687,10.441407 c -0.29577,-0.01251 -0.57551,0.10491 -0.75,0.294922 -0.17448,0.190011 -0.25,0.429996 -0.25,0.664062 0,0.234066 0.0755,0.474051 0.25,0.664063 0.17449,0.190011 0.45423,0.307429 0.75,0.294921 0.2772,-0.01172 0.52857,-0.137429 0.6875,-0.322265 0.15893,-0.184836 0.23243,-0.413048 0.23243,-0.636719 0,-0.223671 -0.0735,-0.451883 -0.23243,-0.636719 -0.15893,-0.184836 -0.4103,-0.310544 -0.6875,-0.322265 z m -0.0176,0.880859 c 0.0593,0 0.0542,0.0065 0.0606,0.01367 0.006,0.0072 0.0176,0.03189 0.0176,0.0625 0,0.03061 -0.0112,0.0573 -0.0176,0.06445 -0.006,0.0072 -0.001,0.01367 -0.0606,0.01367 -0.0593,0 -0.0522,-0.0065 -0.0586,-0.01367 -0.006,-0.0072 -0.0195,-0.03384 -0.0195,-0.06445 0,-0.03061 0.0132,-0.05535 0.0195,-0.0625 0.006,-0.0072 -7.4e-4,-0.01367 0.0586,-0.01367 z"
     id="path53" />
  <path
     style="color:#000000;fill:#ffffff;stroke-miterlimit:10;-inkscape-stroke:none"
     d="m 137.31055,10.648438 v 0.445312 h -0.0254 l 0.0254,0.03125 v 1.025391 h 0.71484 0.19336 0.97656 l -0.54101,-0.654297 -0.0195,-0.02539 c 0.0323,-0.07434 0.099,-0.132003 0.0977,-0.214844 -6.5e-4,-0.186974 -0.086,-0.365199 -0.23829,-0.47461 h -0.002 l -0.002,-0.002 c -0.13059,-0.09193 -0.28774,-0.138238 -0.44727,-0.130859 z m 1.3164,0.605469 v 0.0059 c 0,-0.0014 -0.002,-0.0025 -0.002,-0.0039 -1e-5,-9.27e-4 0.002,-0.001 0.002,-0.002 z"
     id="path55" />
  <path
     style="color:#000000;fill:#ffffff;stroke-miterlimit:10;-inkscape-stroke:none"
     d="m 36.720703,33.75 c 0,2.028221 1.65342,3.681641 3.68164,3.681641 2.02822,0 3.679688,-1.65342 3.679688,-3.681641 0,-2.02822 -1.651468,-3.68164 -3.679688,-3.68164 -2.02822,0 -3.68164,1.65342 -3.68164,3.68164 z m 0.800781,0 c 0,-1.595868 1.284991,-2.880859 2.880859,-2.880859 1.595869,0 2.88086,1.284991 2.88086,2.880859 0,1.595869 -1.284991,2.88086 -2.88086,2.88086 -1.595868,0 -2.880859,-1.284991 -2.880859,-2.88086 z"
     id="circle57" />
</svg>
