<?xml version="1.0" encoding="UTF-8" standalone="no"?>
<svg
   viewBox="0 0 281.14453 127.881"
   version="1.1"
   id="svg168"
   sodipodi:docname="pcfx_controller.svg"
   width="281.14453"
   height="127.881"
   inkscape:version="1.1.2 (0a00cf5339, 2022-02-04)"
   xmlns:inkscape="http://www.inkscape.org/namespaces/inkscape"
   xmlns:sodipodi="http://sodipodi.sourceforge.net/DTD/sodipodi-0.dtd"
   xmlns="http://www.w3.org/2000/svg"
   xmlns:svg="http://www.w3.org/2000/svg">
  <defs
     id="defs172" />
  <sodipodi:namedview
     id="namedview170"
     pagecolor="#ffffff"
     bordercolor="#666666"
     borderopacity="1.0"
     inkscape:pageshadow="2"
     inkscape:pageopacity="0.0"
     inkscape:pagecheckerboard="true"
     showgrid="false"
     fit-margin-top="0"
     fit-margin-left="0"
     fit-margin-right="0"
     fit-margin-bottom="0"
     inkscape:zoom="2.9340795"
     inkscape:cx="140.58924"
     inkscape:cy="43.625266"
     inkscape:window-width="2560"
     inkscape:window-height="1440"
     inkscape:window-x="1920"
     inkscape:window-y="0"
     inkscape:window-maximized="1"
     inkscape:current-layer="svg168" />
  <path
     style="color:#000000;fill:#ffffff;stroke-miterlimit:10;-inkscape-stroke:none"
     d="m 140.5703,1.0868142e-8 c 0,0 -33.07591,-0.0027000008681 -65.355465,4.322265989131858 -32.242494,4.320004 -45.680386,8.651438 -45.695313,8.65625 0,0 -0.0078,0.0019 -0.0078,0.002 -10e-7,0 -0.0039,0.002 -0.0039,0.002 -0.03494,0.01049 -9.221771,2.776628 -13.953124,12.402344 C 10.892087,34.870722 2.4049527,55.143645 0.48243234,74.959071 -1.4370251,94.742941 2.4705011,103.09057 10.435557,112.31845 c 8.058445,9.33608 19.443966,10.69965 25.167969,11.50781 2.96098,0.41806 15.874859,1.42094 28.134765,2.33203 12.259906,0.9111 23.802735,1.72071 23.802735,1.72071 l 0.0332,0.002 0.0332,-0.002 c 0,0 4.534191,-0.2135 6.914062,-3.1543 2.095185,-2.58902 8.393072,-7.9967 14.257812,-10.10352 1.40412,-0.50441 4.15358,-0.9696 7.41797,-1.34765 3.26438,-0.37806 7.06524,-0.68199 10.67968,-0.91797 7.22067,-0.47143 13.67865,-0.67337 13.69336,-0.67383 0.0147,4.6e-4 6.47453,0.20252 13.69531,0.67383 3.61451,0.23592 7.41536,0.53986 10.67969,0.91797 3.26433,0.3781 6.01418,0.84304 7.41797,1.34765 5.86481,2.10782 12.16258,7.5154 14.25781,10.10352 2.37999,2.93985 6.91602,3.1543 6.91602,3.1543 l 0.0332,0.002 0.0332,-0.002 c 0,0 11.54087,-0.80961 23.80078,-1.72071 12.2599,-0.91109 25.17574,-1.91397 28.13672,-2.33203 5.72394,-0.80816 17.10951,-2.17172 25.16796,-11.50781 7.96507,-9.2279 11.87259,-17.575509 9.95313,-37.359379 -1.92252,-19.815459 -10.41163,-40.0884 -15.07422,-49.574211 -4.73268,-9.62943 -13.92529,-12.393404 -13.95508,-12.402344 0,0 -13.44764,-4.336753 -45.70703,-8.660156 C 173.64719,-0.00370899 140.5703,1.0868156e-8 140.5703,1.0868142e-8 Z M 140.5703,1 c 0,0 33.03331,4.37e-4 65.22266,4.314453 32.20854,4.316589 45.5332,8.619141 45.5332,8.619141 l 0.006,0.002 h 0.004 c 0,0 8.80588,2.637693 13.35351,11.890625 4.62541,9.410171 13.07509,29.631975 14.97657,49.230472 1.90453,19.63009 -1.83593,27.481289 -9.71485,36.609369 -7.78553,9.0199 -18.80074,10.35809 -24.55078,11.16993 -2.77601,0.39194 -15.81104,1.41331 -28.06836,2.32422 -12.23216,0.90903 -23.70276,1.71348 -23.75,1.71679 -0.0314,-0.002 -4.20104,-0.33231 -6.18359,-2.78125 -2.27477,-2.80988 -8.54209,-8.20188 -14.69727,-10.41406 -1.6007,-0.57539 -4.34893,-1.02107 -7.64062,-1.40234 -3.2917,-0.38128 -7.10586,-0.6853 -10.73047,-0.92188 -7.24923,-0.47316 -13.74414,-0.67578 -13.74414,-0.67578 h -0.0156 -0.0156 c 0,0 -6.49309,0.2025 -13.74219,0.67578 -3.62455,0.23664 -7.43874,0.54065 -10.73047,0.92188 -3.29173,0.38122 -6.03975,0.82725 -7.64062,1.40234 -6.15525,2.21118 -12.422457,7.60308 -14.697268,10.41406 -1.98266,2.44997 -6.150286,2.77879 -6.181641,2.78125 -0.04724,-0.003 -11.517843,-0.80776 -23.75,-1.71679 C 51.555172,124.24925 38.518192,123.22788 35.742178,122.83594 29.992193,122.0241 18.97889,120.68397 11.19335,111.66406 3.3144226,102.53596 -0.42603164,94.686741 1.4785071,75.056641 3.379983,55.458114 11.825782,35.236292 16.451163,25.826172 20.998793,16.574233 29.804678,13.935547 29.804678,13.935547 h 0.0059 l 0.0059,-0.002 c 0,0 13.321721,-4.303553 45.53125,-8.619141 C 107.5381,1.001385 140.57038,0.99995301 140.57038,0.99995301 Z"
     id="path4" />
  <path
     style="color:#000000;fill:#ffffff;stroke-miterlimit:10;-inkscape-stroke:none"
     d="m 140.5703,1.0868142e-8 c 0,0 -33.07504,-0.0018000008681 -65.353512,4.212890989131858 -32.259782,4.212236 -45.705078,8.4375 -45.705078,8.4375 -0.02991,0.0087 -9.218873,2.698088 -13.955078,12.087891 C 10.893337,33.983534 2.405484,53.741449 0.48241334,73.056641 -1.4374341,92.339461 2.4736088,100.48307 10.439444,109.47656 c 8.060954,9.10088 19.441859,10.42466 25.166016,11.21289 2.958911,0.40745 15.87489,1.3856 28.134765,2.27344 12.259876,0.88784 23.800782,1.67578 23.800782,1.67578 l 0.0332,0.002 0.03125,-0.002 c 0,0 4.528185,-0.20174 6.912109,-3.07226 2.093318,-2.52061 8.390584,-7.78974 14.257814,-9.84375 1.40579,-0.49215 4.1552,-0.94603 7.41992,-1.31446 3.26473,-0.36843 7.06707,-0.66459 10.68164,-0.89453 7.22093,-0.45935 13.67865,-0.65775 13.69336,-0.6582 0.0129,3.9e-4 6.47325,0.19891 13.69531,0.6582 3.61464,0.22988 7.41698,0.5241 10.68165,0.89258 3.26466,0.36848 6.01445,0.82406 7.41992,1.31641 5.8673,2.05502 12.16444,7.32404 14.25781,9.84375 2.38394,2.86945 6.91016,3.07226 6.91016,3.07226 l 0.0332,0.002 0.0312,-0.002 c 0,0 11.54286,-0.78781 23.80273,-1.67578 12.25988,-0.88797 25.17611,-1.86654 28.13477,-2.27344 5.72432,-0.78725 17.10507,-2.11202 25.16601,-11.21289 7.96581,-8.99346 11.87884,-17.137069 9.95899,-36.419919 -1.92307,-19.315227 -10.4129,-39.073159 -15.07617,-48.318359 -4.74392,-9.405101 -13.96485,-12.091797 -13.96485,-12.091797 -0.0121,-0.0038 -13.45102,-4.22325 -45.69531,-8.433594 C 173.64724,-0.00178599 140.57025,1.0868142e-8 140.57025,1.0868142e-8 Z M 140.5703,1 c 0,0 33.03316,0.0018 65.22461,4.205078 32.20916,4.205756 45.53516,8.398438 45.53516,8.398438 l 0.006,0.002 h 0.004 c 0,0 8.80945,2.575103 13.35352,11.583984 4.62472,9.168781 13.07173,28.872109 14.97266,47.964851 1.90414,19.1251 -1.83472,26.76563 -9.7129,35.660149 -7.78304,8.78712 -18.80306,10.09403 -24.55273,10.88477 -2.77833,0.3821 -15.81296,1.37784 -28.07031,2.26562 -12.23319,0.88604 -23.70658,1.66878 -23.75196,1.67188 -0.0314,-0.002 -4.20498,-0.32741 -6.18359,-2.70899 -2.27662,-2.74028 -8.54458,-7.99346 -14.69726,-10.14843 -1.59904,-0.56016 -4.34732,-0.99375 -7.63868,-1.36524 -3.29135,-0.37149 -7.10402,-0.66793 -10.72851,-0.89844 -7.24898,-0.461 -13.74414,-0.6582 -13.74414,-0.6582 l -0.0156,-0.002 -0.0137,0.002 c 0,0 -6.4953,0.19708 -13.74414,0.6582 -3.62442,0.23057 -7.43712,0.527 -10.72852,0.89844 -3.29139,0.37144 -6.03946,0.80538 -7.63867,1.36524 -6.15275,2.15397 -12.420584,7.40704 -14.697262,10.14843 -1.979417,2.38346 -6.157462,2.70681 -6.185547,2.70899 -0.04538,-0.003 -11.516817,-0.78597 -23.75,-1.67188 -12.25759,-0.8877 -25.29247,-1.88312 -28.070553,-2.26567 C 29.992346,118.90745 18.970522,117.60155 11.187491,108.81445 3.3093428,99.919961 -0.42564164,92.279441 1.4785071,73.154301 3.3794327,54.061528 11.824513,34.358183 16.44921,25.189453 20.993279,16.180572 29.802725,13.605469 29.802725,13.605469 h 0.0039 l 0.0059,-0.002 c 0,0 13.325003,-4.192682 45.535156,-8.398438 C 107.53913,1.001717 140.57033,0.99995301 140.57033,0.99995301 Z"
     id="path6" />
  <path
     style="color:#000000;fill:#ffffff;stroke-miterlimit:10;-inkscape-stroke:none"
     d="m 140.57226,0.83398501 c 0,0 -32.62918,-0.0014 -64.47266,4.15624999 -31.810297,4.153344 -45.068,8.316518 -45.080078,8.320312 0,0 -9.100334,2.652486 -13.78125,11.933594 -4.600252,9.121172 -12.9759716,28.610777 -14.8730461,47.66602 -1.89384676,19.02281 1.9663246,27.06204 9.8261711,35.935539 7.954932,8.98085 19.181949,10.28527 24.828125,11.0625 2.91985,0.40194 15.661235,1.36622 27.75586,2.24219 12.094624,0.87597 23.482422,1.6543 23.482421,1.6543 l 0.03125,0.002 0.03125,-0.002 c 0,0 4.469303,-0.19879 6.824219,-3.03321 2.064406,-2.48475 8.276168,-7.68391 14.062498,-9.71093 1.38553,-0.48514 4.09784,-0.93342 7.31836,-1.29688 3.22052,-0.36346 6.97135,-0.65405 10.53711,-0.88086 7.1233,-0.4531 13.49505,-0.64799 13.50977,-0.64844 0.0147,4.5e-4 6.38647,0.19534 13.50976,0.64844 3.56576,0.22681 7.31464,0.5174 10.53516,0.88086 3.22051,0.36346 5.93478,0.81174 7.32031,1.29688 5.78626,2.02602 11.99815,7.22528 14.0625,9.71093 2.35492,2.83442 6.82227,3.03321 6.82227,3.03321 l 0.0332,0.002 0.0312,-0.002 c 0,0 11.3878,-0.77833 23.48242,-1.6543 12.09463,-0.87597 24.83601,-1.84025 27.75586,-2.24219 5.64617,-0.77723 16.87513,-2.08163 24.83008,-11.0625 7.85985,-8.873499 11.71806,-16.911749 9.82422,-35.935539 C 276.88221,53.85392 268.50649,34.3653 263.90624,25.244141 259.22532,15.963033 250.12499,13.310547 250.12499,13.310547 250.11289,13.306747 236.8552,9.144578 205.04491,4.990235 173.20141,0.83155401 140.57226,0.83398501 140.57226,0.83398501 Z m 0,0.99999999 c 0,0 32.58731,-8.27e-4 64.34375,4.146484 31.77516,4.149756 44.91992,8.287109 44.91992,8.287109 l 0.004,0.002 h 0.006 c 0,0 8.68494,2.538954 13.16602,11.423828 4.56174,9.044822 12.89656,28.48268 14.77148,47.316415 1.87816,18.86616 -1.80599,26.39739 -9.57812,35.171869 -7.67704,8.66712 -18.54498,9.95556 -24.2168,10.73633 -2.73914,0.37706 -15.5993,1.36054 -27.69141,2.23633 -12.06793,0.87403 -23.38627,1.64533 -23.43164,1.64843 -0.0314,-0.002 -4.14606,-0.3233 -6.0957,-2.66992 -2.24764,-2.70634 -8.43022,-7.88965 -14.50195,-10.01562 -1.57897,-0.55287 -4.28992,-0.97923 -7.53711,-1.34571 -3.2472,-0.36647 -7.01033,-0.65928 -10.58594,-0.88672 -7.15122,-0.45487 -13.55664,-0.65039 -13.55664,-0.65039 h -0.0156 -0.0156 c 0,0 -6.40737,0.19552 -13.55859,0.65039 -3.57561,0.22744 -7.33679,0.52025 -10.58399,0.88672 -3.24719,0.36648 -5.95814,0.79284 -7.53711,1.34571 -6.07166,2.12697 -12.254359,7.31038 -14.501949,10.01562 -1.949635,2.34662 -6.064293,2.66747 -6.095703,2.66992 -0.04537,-0.003 -11.363704,-0.7744 -23.431641,-1.64843 C 52.755546,120.27851 39.895386,119.29503 37.156241,118.91797 31.484428,118.1372 20.616497,116.84877 12.939444,108.18164 5.1673071,99.407161 1.4831701,91.874911 3.3613196,73.009771 5.2362413,54.177042 13.569112,34.738169 18.13085,25.69336 22.611926,16.808486 31.298819,14.269532 31.298819,14.269532 h 0.0059 l 0.0039,-0.002 c 0,0 13.144776,-4.138354 44.919922,-8.287109 C 107.98499,1.834108 140.57229,1.833939 140.57229,1.833939 Z"
     id="path8" />
  <path
     style="color:#000000;fill:#ffffff;stroke-miterlimit:10;-inkscape-stroke:none"
     d="m 249.84374,23.253907 c -3.54514,-0.147799 -8.36189,0.110837 -14.89844,1.167968 -20.79387,3.361669 -35.43836,7.556106 -42.33789,12.832032 -6.76963,5.17737 -10.29534,9.717818 -12.0664,19.271484 -1.79279,9.67084 0.91334,28.1514 12.43554,41.99805 6.83513,8.213959 10.49318,11.904909 13.69141,14.003899 1.918,1.25097 4.19833,1.82896 6.48047,1.64063 9.07808,-0.72973 32.45117,-2.85938 32.45117,-2.85938 h 0.006 0.006 c 0,0 8.52757,-0.93177 14.25,-5.54101 5.63311,-4.53731 11.63589,-12.181959 11.92969,-29.970709 0.22104,-13.33582 -6.70754,-34.571857 -10.26368,-44.617183 -1.7229,-4.86675 -6.38241,-7.704942 -11.68359,-7.925781 z m -0.041,1 c 4.97282,0.20716 9.20616,2.810525 10.78125,7.259765 3.54386,10.010654 10.42199,31.297469 10.20704,44.265629 -0.29021,17.57121 -6.07577,24.794299 -11.55665,29.208979 -5.38614,4.33838 -13.70981,5.32224 -13.72656,5.32422 0,0 -0.002,0 -0.002,0 -0.003,2.5e-4 -23.37815,2.13115 -32.4375,2.85937 h -0.002 c -2.06034,0.17003 -4.11783,-0.35143 -5.84961,-1.48046 h -0.002 c -3.03957,-1.99514 -6.6526,-5.61549 -13.46875,-13.806649 -11.28977,-13.56732 -13.93791,-31.91263 -12.2207,-41.175776 1.73893,-9.380315 5.0071,-13.549537 11.68945,-18.660157 6.55447,-5.012064 21.15455,-9.288299 41.89063,-12.640625 6.48544,-1.048866 11.23842,-1.298497 14.69726,-1.154296 z"
     id="path10" />
  <path
     style="color:#000000;fill:#ffffff;stroke-miterlimit:10;-inkscape-stroke:none"
     d="m 249.94335,25.875 c -3.22608,-0.142728 -6.1879,0.108741 -12.20899,1.126953 -19.21446,3.247021 -32.74964,8.354705 -39.10351,13.435547 -6.27822,5.020348 -11.49445,11.940303 -13.13867,21.212891 -1.65381,9.32666 1.37302,23.55695 11.98047,36.88477 6.32713,7.949829 11.21285,12.035849 14.13867,14.042959 0.94239,0.64652 1.98686,0.80939 3.00586,0.79297 1.019,-0.0164 2.03299,-0.19936 3.00976,-0.28125 8.38653,-0.70422 28.46289,-2.75976 28.46289,-2.75976 l 0.0293,-0.002 0.0293,-0.008 c 0,0 7.27098,-1.61301 12.45898,-6.04492 2.53423,-2.16489 5.33061,-4.654779 7.50391,-8.759769 2.1733,-4.10499 3.71768,-9.80717 3.85156,-18.39453 0.2007,-12.86633 -6.10421,-33.359969 -9.3418,-43.054684 -1.5643,-4.685625 -5.79161,-7.976104 -10.67773,-8.191407 z m -0.043,0.998047 c 4.46387,0.196697 8.33379,3.203399 9.77148,7.509766 3.22642,9.661265 9.48632,30.203008 9.29102,42.722658 -0.13212,8.47462 -1.64843,14.00335 -3.73437,17.94336 -2.08595,3.94 -4.74677,6.309739 -7.26954,8.464839 -4.91556,4.19918 -11.9837,5.81931 -12.01367,5.82617 -0.0578,0.006 -20.05498,2.05314 -28.40039,2.75391 -1.03923,0.0871 -2.03761,0.26276 -2.94336,0.27734 -0.90575,0.0146 -1.69722,-0.1187 -2.42383,-0.61718 -2.83217,-1.94288 -7.64897,-5.95765 -13.92382,-13.841799 -10.44854,-13.12816 -13.36354,-27.14257 -11.77735,-36.08789 1.59578,-8.999396 6.63953,-15.695829 12.7793,-20.605471 6.06412,-4.849148 19.52503,-9.999495 38.64453,-13.230468 5.99491,-1.013786 8.85208,-1.254506 12,-1.115235 z"
     id="path12" />
  <path
     style="color:#000000;fill:#ffffff;stroke-miterlimit:10;-inkscape-stroke:none"
     d="m 187.17577,60.375001 c 0,5.66769 4.60379,10.27344 10.27149,10.27344 5.66769,0 10.27343,-4.60575 10.27343,-10.27344 0,-5.667694 -4.60574,-10.273438 -10.27343,-10.273438 -5.6677,0 -10.27149,4.605744 -10.27149,10.273438 z m 1,0 c 0,-5.127254 4.14423,-9.273438 9.27149,-9.273438 5.12725,0 9.27343,4.146184 9.27343,9.273438 0,5.12725 -4.14618,9.27344 -9.27343,9.27344 -5.12726,0 -9.27149,-4.14619 -9.27149,-9.27344 z"
     id="circle14" />
  <path
     style="color:#000000;fill:#ffffff;stroke-miterlimit:10;-inkscape-stroke:none"
     d="m 190.17186,60.375001 c 0,5.33301 3.90426,9.7168 8.7754,9.7168 4.87113,0 8.77539,-4.38379 8.77539,-9.7168 0,-5.333007 -3.90426,-9.716798 -8.77539,-9.716798 -4.87114,0 -8.7754,4.383791 -8.7754,9.716798 z m 1,0 c 0,-4.847801 3.50622,-8.716797 7.7754,-8.716798 4.26917,0 7.77539,3.868997 7.77539,8.716798 0,4.8478 -3.50622,8.7168 -7.77539,8.7168 -4.26918,0 -7.7754,-3.869 -7.7754,-8.7168 z"
     id="ellipse16" />
  <path
     style="color:#000000;fill:#ffffff;stroke-miterlimit:10;-inkscape-stroke:none"
     d="m 210.93163,50.601563 c 0,5.667693 4.60575,10.273438 10.27344,10.273438 5.66769,0 10.27344,-4.605745 10.27344,-10.273438 0,-5.667693 -4.60575,-10.273438 -10.27344,-10.273438 -5.66769,0 -10.27344,4.605745 -10.27344,10.273438 z m 1,0 c 0,-5.127254 4.14618,-9.273438 9.27344,-9.273438 5.12725,0 9.27344,4.146184 9.27344,9.273438 0,5.127253 -4.14619,9.273437 -9.27344,9.273437 -5.12726,0 -9.27344,-4.146184 -9.27344,-9.273437 z"
     id="circle18" />
  <path
     style="color:#000000;fill:#ffffff;stroke-miterlimit:10;-inkscape-stroke:none"
     d="m 213.92772,50.601563 c 0,5.333006 3.90426,9.716798 8.77539,9.716798 4.87114,0 8.7754,-4.383792 8.7754,-9.716798 0,-5.333006 -3.90426,-9.716797 -8.7754,-9.716797 -4.87113,0 -8.77539,4.383791 -8.77539,9.716797 z m 1,0 c 0,-4.847801 3.50622,-8.716797 7.77539,-8.716797 4.26918,0 7.7754,3.868996 7.7754,8.716797 0,4.847801 -3.50622,8.716797 -7.7754,8.716797 -4.26917,0 -7.77539,-3.868996 -7.77539,-8.716797 z"
     id="ellipse20" />
  <path
     style="color:#000000;fill:#ffffff;stroke-miterlimit:10;-inkscape-stroke:none"
     d="m 235.77733,42.232422 c 0,5.667693 4.60575,10.273438 10.27344,10.273438 5.66769,0 10.27344,-4.605745 10.27344,-10.273438 0,-5.667693 -4.60575,-10.271484 -10.27344,-10.271484 -5.66769,0 -10.27344,4.603791 -10.27344,10.271484 z m 1,0 c 0,-5.127253 4.14619,-9.271484 9.27344,-9.271484 5.12725,0 9.27344,4.144231 9.27344,9.271484 0,5.127254 -4.14619,9.273438 -9.27344,9.273438 -5.12725,0 -9.27344,-4.146184 -9.27344,-9.273438 z"
     id="circle22" />
  <path
     style="color:#000000;fill:#ffffff;stroke-miterlimit:10;-inkscape-stroke:none"
     d="m 238.77538,42.232422 c 0,5.333006 3.90426,9.71875 8.77539,9.71875 4.87113,0 8.77344,-4.385744 8.77344,-9.71875 0,-5.333006 -3.90231,-9.716797 -8.77344,-9.716797 -4.87113,0 -8.77539,4.383791 -8.77539,9.716797 z m 1,0 c 0,-4.847801 3.50622,-8.716797 7.77539,-8.716797 4.26917,0 7.77344,3.868996 7.77344,8.716797 0,4.847801 -3.50427,8.71875 -7.77344,8.71875 -4.26917,0 -7.77539,-3.870949 -7.77539,-8.71875 z"
     id="ellipse24" />
  <path
     style="color:#000000;fill:#ffffff;stroke-miterlimit:10;-inkscape-stroke:none"
     d="m 245.55272,67.339841 c 0,5.6677 4.6038,10.27344 10.27149,10.27344 5.66769,0 10.27344,-4.60574 10.27344,-10.27344 0,-5.66769 -4.60575,-10.273434 -10.27344,-10.273434 -5.66769,0 -10.27149,4.605744 -10.27149,10.273434 z m 1,0 c 0,-5.12725 4.14424,-9.273434 9.27149,-9.273434 5.12725,0 9.27344,4.146184 9.27344,9.273434 0,5.12726 -4.14619,9.27344 -9.27344,9.27344 -5.12725,0 -9.27149,-4.14618 -9.27149,-9.27344 z"
     id="circle26" />
  <path
     style="color:#000000;fill:#ffffff;stroke-miterlimit:10;-inkscape-stroke:none"
     d="m 248.29882,67.339841 c 0,5.33301 3.90426,9.7168 8.77539,9.7168 4.87113,0 8.77539,-4.38379 8.77539,-9.7168 0,-5.333 -3.90426,-9.716794 -8.77539,-9.716794 -4.87113,0 -8.77539,4.383794 -8.77539,9.716794 z m 1,0 c 0,-4.8478 3.50622,-8.716794 7.77539,-8.716794 4.26917,0 7.77539,3.868994 7.77539,8.716794 0,4.8478 -3.50622,8.7168 -7.77539,8.7168 -4.26917,0 -7.77539,-3.869 -7.77539,-8.7168 z"
     id="ellipse28" />
  <path
     style="color:#000000;fill:#ffffff;stroke-miterlimit:10;-inkscape-stroke:none"
     d="m 220.70507,74.898441 c 0,5.66769 4.60574,10.27343 10.27344,10.27343 5.66769,0 10.27343,-4.60574 10.27343,-10.27343 0,-5.6677 -4.60574,-10.27344 -10.27343,-10.27344 -5.6677,0 -10.27344,4.60574 -10.27344,10.27344 z m 1,0 c 0,-5.12726 4.14618,-9.27344 9.27344,-9.27344 5.12725,0 9.27343,4.14618 9.27343,9.27344 0,5.12725 -4.14618,9.27343 -9.27343,9.27343 -5.12726,0 -9.27344,-4.14618 -9.27344,-9.27343 z"
     id="circle30" />
  <path
     style="color:#000000;fill:#ffffff;stroke-miterlimit:10;-inkscape-stroke:none"
     d="m 223.30468,74.898441 c 0,5.333 3.9023,9.71679 8.77343,9.71679 4.87114,0 8.7754,-4.38379 8.7754,-9.71679 0,-5.33301 -3.90426,-9.7168 -8.7754,-9.7168 -4.87113,0 -8.77343,4.38379 -8.77343,9.7168 z m 1,0 c 0,-4.8478 3.50426,-8.7168 7.77343,-8.7168 4.26918,0 7.7754,3.869 7.7754,8.7168 0,4.8478 -3.50622,8.71679 -7.7754,8.71679 -4.26917,0 -7.77343,-3.86899 -7.77343,-8.71679 z"
     id="ellipse32" />
  <path
     style="color:#000000;fill:#ffffff;stroke-miterlimit:10;-inkscape-stroke:none"
     d="m 196.94921,85.966801 c 0,5.66769 4.60574,10.27343 10.27344,10.27343 5.66769,0 10.27148,-4.60574 10.27148,-10.27343 0,-5.6677 -4.60379,-10.27344 -10.27148,-10.27344 -5.6677,0 -10.27344,4.60574 -10.27344,10.27344 z m 1,0 c 0,-5.12726 4.14618,-9.27344 9.27344,-9.27344 5.12725,0 9.27148,4.14618 9.27148,9.27344 0,5.12725 -4.14423,9.27343 -9.27148,9.27343 -5.12726,0 -9.27344,-4.14618 -9.27344,-9.27343 z"
     id="circle34" />
  <path
     style="color:#000000;fill:#ffffff;stroke-miterlimit:10;-inkscape-stroke:none"
     d="m 199.60741,85.966801 c 0,5.333 3.90426,9.71679 8.77539,9.71679 4.87113,0 8.77539,-4.38379 8.77539,-9.71679 0,-5.33301 -3.90426,-9.7168 -8.77539,-9.7168 -4.87113,0 -8.77539,4.38379 -8.77539,9.7168 z m 1,0 c 0,-4.8478 3.50622,-8.7168 7.77539,-8.7168 4.26917,0 7.77539,3.869 7.77539,8.7168 0,4.8478 -3.50622,8.71679 -7.77539,8.71679 -4.26917,0 -7.77539,-3.86899 -7.77539,-8.71679 z"
     id="ellipse36" />
  <path
     style="color:#000000;fill:#ffffff;stroke-miterlimit:10;-inkscape-stroke:none"
     d="m 29.98046,23.253907 c -5.301176,0.220839 -9.95874,3.059031 -11.681641,7.925781 -3.557165,10.045411 -10.4856562,31.281433 -10.2656244,44.617183 0.2937961,17.78875 6.2965744,25.433399 11.9296874,29.970709 5.722424,4.60924 14.25,5.54101 14.25,5.54101 h 0.0059 0.0059 c 0,0 23.373086,2.12965 32.451172,2.85938 2.282142,0.18833 4.560517,-0.38966 6.478516,-1.64063 h 0.002 C 76.354596,110.42835 80.012652,106.7374 86.847776,98.523441 98.369855,84.676791 101.07598,66.196231 99.283194,56.525391 97.512128,46.971725 93.986421,42.431277 87.216788,37.253907 80.318207,31.977918 65.67277,27.783543 44.878897,24.421875 38.34334,23.364741 33.525604,23.106108 29.98046,23.253907 Z m 0.04297,1 c 3.45885,-0.144201 8.210883,0.105432 14.695313,1.154296 20.736086,3.352326 35.33722,7.628625 41.890625,12.640625 6.682353,5.11062 9.950523,9.279842 11.689453,18.660157 1.717199,9.263146 -0.930933,27.608456 -12.220703,41.175776 -6.816862,8.192019 -10.430935,11.811649 -13.470703,13.806649 -1.73178,1.12903 -3.789269,1.65049 -5.84961,1.48046 h -0.002 c -9.059354,-0.72822 -32.434706,-2.85912 -32.4375,-2.85937 h -0.002 c -0.01674,-0.002 -8.340416,-0.98584 -13.726562,-5.32422 C 15.108959,100.5736 9.323398,93.350511 9.0331946,75.779301 8.8192269,62.811081 15.697351,41.524241 19.242178,31.513672 c 1.575097,-4.44924 5.808437,-7.052605 10.78125,-7.259765 z"
     id="path38" />
  <path
     style="color:#000000;fill:#ffffff;stroke-miterlimit:10;-inkscape-stroke:none"
     d="m 29.88085,25.875 c -4.886118,0.215303 -9.111474,3.505782 -10.675781,8.191407 -3.237582,9.694715 -9.5444531,30.188354 -9.3437494,43.054684 0.1338787,8.58736 1.6782644,14.28954 3.8515624,18.39453 2.173297,4.10499 4.969678,6.594879 7.503906,8.759769 5.187998,4.43191 12.460937,6.04492 12.460937,6.04492 l 0.0293,0.008 0.0293,0.002 c 0,0 20.074413,2.05554 28.460938,2.75976 0.976768,0.0819 1.990765,0.26484 3.009765,0.28125 1.019001,0.0164 2.065423,-0.14645 3.007813,-0.79297 2.925819,-2.00711 7.811538,-6.09313 14.138672,-14.042959 10.607435,-13.32805 13.632317,-27.55834 11.978509,-36.885 C 92.687802,52.377803 87.473519,45.457848 81.195303,40.4375 74.841437,35.356658 61.30625,30.248974 42.091788,27.001953 36.06972,25.983744 33.106923,25.732272 29.88085,25.875 Z m 0.04492,0.998047 c 3.147921,-0.139271 6.002127,0.101446 11.998047,1.115235 19.1195,3.230973 32.582363,8.38132 38.646484,13.230468 6.139772,4.909642 11.181567,11.606075 12.777344,20.605471 1.586189,8.94532 -1.328806,22.95973 -11.777344,36.08789 -6.274854,7.884149 -11.0897,11.898919 -13.921875,13.841799 -0.726608,0.49848 -1.520033,0.63177 -2.425781,0.61718 -0.905747,-0.0146 -1.902176,-0.19022 -2.941406,-0.27734 -8.345409,-0.70077 -28.344576,-2.748 -28.402344,-2.75391 -0.02996,-0.007 -7.096151,-1.62699 -12.011719,-5.82617 -2.522766,-2.1551 -5.183582,-4.524839 -7.269531,-8.464839 -2.085948,-3.94001 -3.604207,-9.46874 -3.736328,-17.94336 -0.195296,-12.51965 6.066557,-33.061393 9.292969,-42.722658 1.43769,-4.306367 5.307612,-7.313069 9.771484,-7.509766 z"
     id="path40" />
  <path
     style="color:#000000;fill:#ffffff;stroke-miterlimit:10;-inkscape-stroke:none"
     d="m 123.30858,89.564451 c -2.06841,0.006 -3.75345,1.69136 -3.75976,3.75977 v 0.002 0.002 c 0.006,2.06842 1.69135,3.75346 3.75976,3.75977 h 11 0.002 c 2.06841,-0.006 3.75345,-1.69135 3.75976,-3.75977 v -0.002 -0.002 c -0.006,-2.06841 -1.69135,-3.75346 -3.75976,-3.75977 h -0.002 z m 0.002,1 h 10.99804 c 1.52857,0.006 2.75601,1.23315 2.76172,2.76172 -0.006,1.52857 -1.23315,2.75601 -2.76172,2.76172 h -10.99609 -0.002 c -1.52857,-0.006 -2.75601,-1.23315 -2.76172,-2.76172 0.006,-1.52857 1.23315,-2.75601 2.76172,-2.76172 z"
     id="path42" />
  <path
     style="color:#000000;fill:#ffffff;stroke-miterlimit:10;-inkscape-stroke:none"
     d="m 123.17968,90.439451 c -1.5859,0.005 -2.88014,1.29888 -2.88477,2.88477 v 0.002 0.002 c 0.005,1.5859 1.29887,2.88014 2.88477,2.88477 h 0.002 11.25586 c 1.58552,-0.005 2.87948,-1.29925 2.88477,-2.88477 v -0.002 -0.002 c -0.005,-1.58589 -1.29888,-2.88014 -2.88477,-2.88477 h -11.25586 z m 0.002,1 h 11.25391 c 1.04686,0.003 1.88262,0.84012 1.88672,1.88672 -0.005,1.04587 -0.84085,1.88219 -1.88672,1.88672 h -11.25196 -0.002 c -1.04595,-0.004 -1.88262,-0.84077 -1.88672,-1.88672 0.004,-1.04595 0.84077,-1.88262 1.88672,-1.88672 z"
     id="path44" />
  <path
     style="color:#000000;fill:#ffffff;stroke-miterlimit:10;-inkscape-stroke:none"
     d="m 146.70311,89.564451 c -2.06841,0.006 -3.7554,1.69136 -3.76171,3.75977 v 0.002 0.002 c 0.006,2.06842 1.6933,3.75346 3.76171,3.75977 h 11 c 2.06842,-0.006 3.75541,-1.69135 3.76172,-3.75977 v -0.002 -0.002 c -0.006,-2.06841 -1.6933,-3.75346 -3.76172,-3.75977 z m 0,1 h 10.99805 c 1.52948,0.005 2.75796,1.2325 2.76367,2.76172 -0.006,1.52922 -1.23419,2.75705 -2.76367,2.76172 h -10.99609 -0.002 c -1.52856,-0.006 -2.75601,-1.23315 -2.76171,-2.76172 0.006,-1.52857 1.23315,-2.75601 2.76171,-2.76172 z"
     id="path46" />
  <path
     style="color:#000000;fill:#ffffff;stroke-miterlimit:10;-inkscape-stroke:none"
     d="m 146.57421,90.439451 c -1.58589,0.005 -2.88014,1.29888 -2.88477,2.88477 v 0.002 0.002 c 0.005,1.5859 1.29888,2.88014 2.88477,2.88477 h 0.002 11.25391 0.002 c 1.58552,-0.005 2.87948,-1.29925 2.88477,-2.88477 v -0.002 -0.002 c -0.005,-1.58589 -1.29888,-2.88014 -2.88477,-2.88477 h -0.002 -11.25391 z m 0.002,1 h 11.25391 c 1.04595,0.004 1.88262,0.84077 1.88672,1.88672 -0.005,1.04587 -0.84085,1.88219 -1.88672,1.88672 h -11.25196 -0.002 c -1.04595,-0.004 -1.88262,-0.84077 -1.88672,-1.88672 0.004,-1.04595 0.84077,-1.88262 1.88672,-1.88672 z"
     id="path48" />
  <g
     fill="#a8a8b2"
     id="g52"
     transform="rotate(-90,63.936737,63.442654)"
     style="fill:#ffffff;stroke:#ffffff;stroke-miterlimit:10">
    <path
       style="color:#000000;fill:#ffffff;stroke:none;-inkscape-stroke:none"
       d="m 82.40625,131.04492 v 1.51758 l 0.921875,0.20117 -1.697266,0.81641 1.679688,0.82422 -0.904297,0.20117 v 1.52344 l 0.443359,-0.10352 c -0.139356,0.1715 -0.27776,0.34423 -0.361328,0.54883 v 0.002 c -0.110953,0.27292 -0.165773,0.56405 -0.166015,0.85938 -0.0028,0.59163 0.228215,1.15982 0.642578,1.58203 0.110906,0.11448 0.292853,0.0913 0.423828,0.17773 h -0.480469 v 0.53321 h -0.01953 v 0.44726 l -0.480469,-0.48047 v 0.85938 c 0,0.40491 0.01682,0.71039 0.08594,0.97656 0.06247,0.24057 0.171909,0.46801 0.324218,0.66602 0.09697,0.12619 0.246679,0.18994 0.371094,0.2871 h -0.78125 v 0.5 2.32227 h 1.474609 v -1.29102 h 0.05469 v 1.29102 h 1.285156 0.181641 1.267578 v -2.82227 h -0.916016 c 0.362203,-0.25563 0.728357,-0.5364 0.832032,-0.97656 0.0692,-0.28217 0.08398,-0.6176 0.08398,-1.0957 v -1.2168 H 85.69336 c 0.356573,-0.24601 0.724636,-0.49642 0.888672,-0.90429 0.109696,-0.27102 0.164063,-0.55969 0.164063,-0.85352 0,-0.29673 -0.05521,-0.58762 -0.16211,-0.85742 l -0.002,-0.002 c -0.109005,-0.27058 -0.269172,-0.51605 -0.474609,-0.72656 -0.234772,-0.24128 -0.583515,-0.26403 -0.894531,-0.375 l 2.636718,-0.61133 -0.259765,-0.11914 0.599609,-0.0781 -1.285156,-0.23438 -1.857422,-0.84961 2.796875,-1.30664 -0.0332,-0.008 0.398437,-0.11523 -1.02539,-0.0274 z m 2.125,4.14649 h 0.0078 c -0.0015,-2e-5 -0.0024,0.002 -0.0039,0.002 -0.0015,0 -0.0024,-0.002 -0.0039,-0.002 z m -0.002,1.55078 h 0.0039 0.002 c 0.09711,-5.9e-4 0.193097,0.0185 0.283203,0.0547 h 0.002 c 0.08512,0.0337 0.163418,0.0841 0.228516,0.14844 l 0.002,0.002 0.002,0.002 c 0.131364,0.12656 0.206063,0.30197 0.205078,0.48437 v 0.002 c 0,0.0932 -0.01782,0.17373 -0.05273,0.25781 -0.118425,0.26526 -0.379225,0.43498 -0.669922,0.43359 h -0.002 c -0.10165,0 -0.190346,-0.0163 -0.279297,-0.0527 v -0.002 h -0.002 c -0.174638,-0.0703 -0.314689,-0.20582 -0.388672,-0.37891 -0.03404,-0.0798 -0.05078,-0.1631 -0.05078,-0.25781 v -0.002 c -5.3e-4,-0.0893 0.01873,-0.17721 0.05273,-0.25976 0.117589,-0.26379 0.374923,-0.43283 0.664063,-0.43164 z m -0.636719,3.98633 h 1.296875 c -0.0066,0.16081 -0.01658,0.32689 -0.02539,0.36132 l -0.002,0.004 v 0.004 c -0.01107,0.0459 -0.03326,0.0861 -0.0625,0.12304 -0.05147,0.0589 -0.116358,0.10674 -0.189453,0.13477 h -0.002 l -0.002,0.002 c -0.08718,0.0344 -0.204961,0.0566 -0.363281,0.0566 -0.156718,0 -0.2748,-0.0234 -0.365235,-0.0586 -0.08528,-0.0331 -0.143859,-0.0745 -0.195312,-0.13477 -0.02923,-0.0354 -0.04907,-0.0766 -0.06055,-0.12109 l -0.002,-0.002 v -0.004 c -0.009,-0.0334 -0.023,-0.18628 -0.02734,-0.36523 z m 1.328125,5.23632 v 0.97657 h -2.8125 v 0.5 0.98437 h 4.232422 v -1.76562 z"
       id="path50" />
  </g>
  <g
     fill="#a8a8b2"
     id="g56"
     transform="rotate(-90,63.936737,63.442654)"
     style="fill:#ffffff;stroke:#ffffff;stroke-miterlimit:10">
    <path
       style="color:#000000;fill:#ffffff;stroke:none;-inkscape-stroke:none"
       d="m 62.939453,131.04492 v 1.51758 l 0.921875,0.20117 -1.697266,0.81641 1.679688,0.82422 -0.904297,0.20117 v 1.52344 l 0.443359,-0.10352 c -0.139356,0.1715 -0.27776,0.34423 -0.361328,0.54883 v 0.002 c -0.110953,0.27292 -0.165773,0.56405 -0.166015,0.85938 -0.0028,0.59163 0.228215,1.15982 0.642578,1.58203 0.110906,0.11448 0.292853,0.0913 0.423828,0.17773 h -0.480469 v 0.53321 h -0.02148 v 0.44531 l -0.478516,-0.47852 v 0.85938 c 0,0.40491 0.01682,0.71039 0.08594,0.97656 0.06247,0.24057 0.171909,0.46801 0.324218,0.66602 0.09659,0.12548 0.245376,0.19037 0.369141,0.2871 h -0.279297 -0.501953 v 2.82227 h 0.002 v 3.71289 h 0.419922 0.501953 v -0.57812 l 0.07813,0.0781 v -0.5 h 0.01953 l 0.05664,0.0488 c 0.396615,0.34813 0.696992,0.58487 0.980469,0.73047 0.262793,0.13593 0.545929,0.21289 0.832031,0.21289 0.386527,0 0.779387,-0.14991 1.037109,-0.43945 0.255778,-0.28894 0.369141,-0.67742 0.369141,-1.07813 0,-0.41861 -0.119945,-0.82403 -0.388672,-1.125 -0.266138,-0.29807 -0.668591,-0.46094 -1.074219,-0.46094 h -0.5 v 1.29688 c -0.02155,-0.017 -0.03003,-0.0184 -0.05273,-0.0371 l -0.002,-0.002 -2.222656,-1.85938 h 1.417968 v -1.29102 h 0.05664 v 1.29102 h 1.285156 0.181641 1.267578 v -2.82227 h -0.916016 c 0.362203,-0.25563 0.728357,-0.5364 0.832032,-0.97656 0.0692,-0.28217 0.08398,-0.6176 0.08398,-1.0957 v -1.2168 H 66.22657 c 0.356573,-0.24601 0.724636,-0.49642 0.888672,-0.90429 0.109696,-0.27102 0.164063,-0.55969 0.164063,-0.85352 0,-0.29673 -0.05521,-0.58762 -0.16211,-0.85742 l -0.002,-0.002 c -0.109005,-0.27058 -0.269171,-0.51605 -0.474609,-0.72656 -0.234772,-0.24128 -0.583515,-0.26403 -0.894531,-0.375 l 2.636718,-0.61133 -0.259765,-0.11914 0.599609,-0.0781 -1.285156,-0.23438 -1.857422,-0.84961 2.794922,-1.30664 -0.0332,-0.008 0.40039,-0.11523 -1.027343,-0.0274 z m 2.125,4.14649 h 0.0078 c -0.0015,-2e-5 -0.0024,0.002 -0.0039,0.002 -0.0015,0 -0.0024,-0.002 -0.0039,-0.002 z m -0.002,1.55078 h 0.0039 0.002 c 0.09711,-5.9e-4 0.193097,0.0185 0.283203,0.0547 h 0.002 c 0.08512,0.0337 0.163417,0.0841 0.228515,0.14844 l 0.002,0.002 0.002,0.002 c 0.131364,0.12656 0.20411,0.30197 0.203125,0.48437 v 0.002 c 0,0.0932 -0.01587,0.17373 -0.05078,0.25781 -0.118424,0.26526 -0.379224,0.43498 -0.669922,0.43359 h -0.002 c -0.10165,0 -0.190346,-0.0163 -0.279297,-0.0527 l -0.002,-0.002 c -0.174638,-0.0703 -0.314689,-0.20582 -0.388672,-0.37891 -0.03404,-0.0798 -0.05078,-0.1631 -0.05078,-0.25781 v -0.002 c -5.29e-4,-0.0893 0.01873,-0.17721 0.05273,-0.25976 0.117589,-0.26379 0.374923,-0.43283 0.664063,-0.43164 z m -0.638672,3.98633 h 1.296875 c -0.0066,0.16081 -0.01658,0.32689 -0.02539,0.36132 v 0.004 l -0.002,0.004 c -0.01107,0.0459 -0.03326,0.0861 -0.0625,0.12304 -0.05147,0.0589 -0.114413,0.10675 -0.1875,0.13477 h -0.002 l -0.0039,0.002 c -0.08718,0.0344 -0.204961,0.0566 -0.363281,0.0566 -0.156718,0 -0.2748,-0.0234 -0.365235,-0.0586 -0.08372,-0.0325 -0.140647,-0.0743 -0.191406,-0.13281 -0.03012,-0.0358 -0.05275,-0.0777 -0.06445,-0.12305 v -0.002 l -0.002,-0.004 c -0.009,-0.0334 -0.023,-0.18628 -0.02734,-0.36523 z m 1.146484,6.68164 0.181641,0.008 c 0.01115,4.7e-4 0.02112,0.004 0.0293,0.0117 2.03e-4,1.8e-4 -2e-4,0.002 0,0.002 l -0.002,0.0215 0.002,0.0234 c 3.8e-4,0.007 -0.005,0.0115 -0.0078,0.0176 0.0093,-0.004 0.02903,-0.006 -0.01563,-0.006 -0.0078,0 -0.06193,-0.006 -0.15039,-0.0508 v -0.002 h -0.002 c -0.0076,-0.004 -0.02664,-0.0207 -0.03516,-0.0254 z m 1.208985,0.0117 v 0.0449 c 2.91e-4,-0.008 -0.0079,-0.0136 -0.0078,-0.0215 -2.55e-4,-0.009 0.0083,-0.0149 0.0078,-0.0234 z"
       id="path54" />
  </g>
  <g
     fill="#a8a8b2"
     id="g60"
     transform="rotate(-90,63.936737,63.442654)"
     style="fill:#ffffff;stroke:#ffffff;stroke-miterlimit:10">
    <path
       style="color:#000000;fill:#ffffff;stroke:none;-inkscape-stroke:none"
       d="m 41.197266,120.58398 -0.382813,0.0742 c -0.344182,0.0665 -0.650922,0.26167 -0.857422,0.54493 h -0.002 v 0.002 c -0.199514,0.27745 -0.285156,0.61987 -0.285156,0.97461 0,0.40073 0.136395,0.77707 0.384765,1.07031 h -0.298828 v 0.5 1.83789 0.48242 0.0176 1.55664 0.5 0.16016 2.16015 h 0.810547 c -0.276634,0.23025 -0.609473,0.40898 -0.740234,0.75196 -0.104278,0.27099 -0.155812,0.56329 -0.15625,0.86523 -5e-6,6.5e-4 4e-6,0.001 0,0.002 -10e-7,6.6e-4 0,0.001 0,0.002 -0.0012,0.23187 0.03086,0.46291 0.0957,0.68554 v 0.002 c 0.06552,0.22122 0.16958,0.43016 0.304687,0.61718 l 0.148438,0.20704 h 1.947266 l -0.02344,-0.0254 0.425781,0.0215 v 0.0996 h -2.8125 v 1.5293 h 2.8125 v 0.86523 h 1.451172 v -3.26172 h -0.160156 c 0.08963,-0.25027 0.240863,-0.48103 0.240234,-0.75 0,-0.30061 -0.05284,-0.59149 -0.158203,-0.86133 l -0.002,-0.002 c -0.106099,-0.26717 -0.265257,-0.51417 -0.472656,-0.72266 l -0.002,-0.002 c -0.01001,-0.0102 -0.02496,-0.0135 -0.03516,-0.0234 h 0.589844 v -2.82031 H 41.23032 v -0.52539 h 2.789062 v -1.04883 -0.48242 -2.33789 h -0.345703 c 0.0644,-0.0702 0.167784,-0.0954 0.214844,-0.17969 0.146284,-0.25478 0.205078,-0.54711 0.205078,-0.84961 0,-0.38742 -0.124371,-0.76765 -0.378906,-1.04687 -0.255089,-0.27983 -0.636844,-0.4336 -1.015625,-0.4336 -0.303087,0 -0.609982,0.10066 -0.841797,0.29493 -0.113426,0.0951 -0.180635,0.26909 -0.267578,0.39453 z m 1.507812,0.7129 h 0.02148 c -0.0038,0 -0.0059,0.004 -0.0098,0.004 -0.0043,1.2e-4 -0.0074,-0.004 -0.01172,-0.004 z m 0.931641,0.95703 -0.002,0.0352 c 2.3e-4,-0.004 -0.0041,-0.007 -0.0039,-0.0117 6e-5,-0.008 0.006,-0.0152 0.0059,-0.0234 z m -1.253907,0.69531 0.154297,0.30078 h -0.359375 c 0.07429,-0.087 0.142578,-0.19468 0.205078,-0.30078 z m -1.152343,1.83008 h 0.05469 v 0.80859 h -0.05469 z m 0,4.39648 h 0.05469 v 0.77734 c -0.01789,0.005 -0.03693,0.005 -0.05469,0.01 z m 0.646484,2.2168 c 0.262717,0 0.406424,0.0617 0.541016,0.19336 0.134085,0.13116 0.191406,0.26441 0.191406,0.51367 0,0.12603 -0.02058,0.23827 -0.0625,0.34766 -0.0424,0.11063 -0.107005,0.22167 -0.201172,0.33203 l -0.441406,0.51562 -0.451172,-0.52344 c -0.105307,-0.12209 -0.175884,-0.24075 -0.222656,-0.35937 -0.04569,-0.11588 -0.06836,-0.23486 -0.06836,-0.36914 0,-0.2162 0.05002,-0.33006 0.1875,-0.46094 0.136073,-0.12954 0.278564,-0.18945 0.527344,-0.18945 z"
       id="path58" />
  </g>
  <g
     fill="#a8a8b2"
     id="g64"
     transform="rotate(-90,63.936737,63.442654)"
     style="fill:#ffffff;stroke:#ffffff;stroke-miterlimit:10">
    <path
       style="color:#000000;fill:#ffffff;stroke:none;-inkscape-stroke:none"
       d="m 39.755859,146.86328 v 1.49609 h 0.53125 l -0.529297,0.39454 v 1.85546 l 0.134766,-0.10156 c -0.06802,0.22094 -0.224609,0.39289 -0.224609,0.64453 0,0.52985 0.135485,1.01455 0.470703,1.35743 h 0.002 c 0.08703,0.0886 0.242774,0.0624 0.347656,0.125 h -0.732422 v 0.5 0.98828 h 1.53125 l -2.332031,2.43164 h 5.064453 v -1.49219 h -1.533203 l 2.335938,-2.42773 h -0.802735 v -1.16993 h -2.482422 c -0.215768,0 -0.298597,-0.0491 -0.326172,-0.0742 -0.02493,-0.0227 -0.05859,-0.061 -0.05859,-0.23828 0,-0.17728 0.03241,-0.21406 0.06055,-0.24023 0.02564,-0.0236 0.106182,-0.0723 0.324218,-0.0723 h 2.482422 v -1.02343 -0.50196 h -0.40625 c 0.03521,-0.0352 0.0862,-0.0505 0.117188,-0.0898 l 0.0039,-0.006 0.0039,-0.006 c 0.109006,-0.14647 0.186608,-0.31408 0.226563,-0.49219 v -0.002 c 0.04275,-0.18414 0.05469,-0.37748 0.05469,-0.61523 v -1.24024 z m 2.460938,1 h 0.380859 l 0.03125,0.0312 H 42.564456 42.2168 Z m -0.63086,1.36328 c 0.02051,0.0262 0.02019,0.0635 0.04297,0.0879 h -0.140625 c -0.01362,0 -0.0216,0.0115 -0.03516,0.0117 z"
       id="path62" />
  </g>
  <path
     style="color:#000000;fill:#ffffff;stroke-miterlimit:10;-inkscape-stroke:none"
     d="m 136.06444,46.771485 c -2.06841,0.0063 -3.7554,1.693307 -3.76172,3.761718 v 0.002 c 0.006,2.068411 1.69331,3.755406 3.76172,3.761718 h 7.69532 c 2.06841,-0.0063 3.7554,-1.693307 3.76171,-3.761718 v -0.002 c -0.006,-2.068411 -1.6933,-3.755406 -3.76171,-3.761718 z m 0,1 h 7.69532 c 1.52857,0.0057 2.75601,1.233149 2.76171,2.761718 -0.005,1.52948 -1.23249,2.757961 -2.76171,2.763672 h -7.69336 -0.002 c -1.52857,-0.0057 -2.75601,-1.233148 -2.76172,-2.761718 v -0.002 c 0.006,-1.528569 1.23315,-2.75601 2.76172,-2.761718 z"
     id="path66" />
  <path
     style="color:#000000;fill:#ffffff;stroke-miterlimit:10;-inkscape-stroke:none"
     d="m 136.85546,47.445313 c -1.69773,0.0052 -3.08463,1.390166 -3.08985,3.08789 v 0.002 c 0.005,1.697724 1.39212,3.084624 3.08985,3.089843 h 3.61719 c 1.69772,-0.0052 3.08462,-1.392119 3.08984,-3.089843 v -0.002 c -0.005,-1.697724 -1.39212,-3.08267 -3.08984,-3.08789 z m 0,1 h 3.61719 c 1.15789,0.0046 2.08524,0.929997 2.08984,2.08789 -0.004,1.158808 -0.9313,2.087193 -2.08984,2.091797 h -3.61524 -0.002 c -1.1579,-0.0046 -2.08524,-0.931949 -2.08985,-2.089843 v -0.002 c 0.005,-1.157893 0.93196,-2.083287 2.08985,-2.08789 z"
     id="path68" />
  <path
     style="color:#000000;fill:#ffffff;stroke-miterlimit:10;-inkscape-stroke:none"
     d="m 134.26757,50.535157 c 0,1.60509 1.31288,2.916015 2.91797,2.916015 1.60509,0 2.91601,-1.310925 2.91601,-2.916015 0,-1.605091 -1.31092,-2.917969 -2.91601,-2.917969 -1.60509,0 -2.91797,1.312878 -2.91797,2.917969 z m 1,0 c 0,-1.064652 0.85332,-1.917969 1.91797,-1.917969 1.06465,0 1.91601,0.853317 1.91601,1.917969 0,1.064651 -0.85136,1.916015 -1.91601,1.916015 -1.06465,0 -1.91797,-0.851364 -1.91797,-1.916015 z"
     id="circle70" />
  <path
     style="color:#000000;fill:#ffffff;stroke-miterlimit:10;-inkscape-stroke:none"
     d="m 119.47069,47.654297 -2.36523,5.078125 h 1.66406 l 0.37891,-0.839844 h 0.64453 l 0.36914,0.839844 h 0.32617 1.34375 z m 40.19922,0.814453 v 2.101563 l -0.27344,0.08203 0.27344,0.04297 v 2.037109 h 0.5 0.82813 c 0.33081,0 0.5682,-0.01195 0.79492,-0.07422 0.21004,-0.05604 0.40331,-0.16621 0.55664,-0.320312 0.13667,-0.135793 0.24287,-0.300076 0.31055,-0.480469 0.0678,-0.176019 0.10156,-0.3647 0.10156,-0.552734 0,-0.302714 -0.0845,-0.604413 -0.26563,-0.84375 -0.013,-0.01718 -0.0407,-0.01489 -0.0547,-0.03125 0.10069,-0.188431 0.17525,-0.392847 0.17578,-0.603516 0.002,-0.209683 -0.0405,-0.418286 -0.12696,-0.609375 -0.16171,-0.360122 -0.48819,-0.620316 -0.875,-0.699219 -0.18101,-0.03923 -0.37363,-0.04883 -0.62304,-0.04883 z m 1.51953,2.78711 c 8.8e-4,1.41e-4 0.007,-1.24e-4 0.008,0 h 0.004 l 0.004,0.002 c 0.003,4.67e-4 0.005,0.0013 0.008,0.002 7.6e-4,0.0036 0,-0.0047 0,0.01367 h -0.004 c -0.002,3.59e-4 -0.0168,-3.78e-4 -0.0195,0 z"
     id="path72" />
  <path
     style="color:#000000;fill:#ffffff;stroke-miterlimit:10;-inkscape-stroke:none"
     d="m 127.1328,45.757813 -0.0605,0.998047 0.0195,0.002 h 0.008 l 12.8123,1.017531 13.05664,-1.017578 h 0.0117 l 0.0176,-0.002 -0.0586,-0.998047 c 0,0 -8.50807,0.335937 -13.02734,0.335937 -4.51927,0 -12.7793,-0.335937 -12.7793,-0.335937 z m 12.7793,7.537109 -12.8125,1.017578 h -0.008 l -0.0195,0.002 0.0605,0.998047 c 0,0 8.26003,-0.33789 12.7793,-0.33789 4.51927,0 13.02734,0.33789 13.02734,0.33789 l 0.0586,-0.998047 -0.0176,-0.002 c 0,0 -0.0117,10e-7 -0.0117,0 z"
     id="path74" />
  <path
     style="color:#000000;fill:#ffffff;stroke-miterlimit:10;-inkscape-stroke:none"
     d="m 136.06444,66.750001 c -2.06841,0.006 -3.7554,1.69135 -3.76172,3.75977 v 0.002 0.002 c 0.006,2.06841 1.69331,3.75345 3.76172,3.75977 h 7.69532 c 2.06841,-0.006 3.7554,-1.69136 3.76171,-3.75977 v -0.002 -0.002 c -0.006,-2.06842 -1.6933,-3.75346 -3.76171,-3.75977 z m 0,1 h 7.69532 c 1.52857,0.006 2.75601,1.23315 2.76171,2.76172 -0.006,1.52857 -1.23314,2.75601 -2.76171,2.76172 h -7.69336 -0.002 c -1.52857,-0.006 -2.75601,-1.23315 -2.76172,-2.76172 0.006,-1.52857 1.23315,-2.75601 2.76172,-2.76172 z"
     id="path76" />
  <path
     style="color:#000000;fill:#ffffff;stroke-miterlimit:10;-inkscape-stroke:none"
     d="m 136.85546,67.421871 c -1.69773,0.005 -3.08463,1.39017 -3.08985,3.0879 v 0.002 0.002 c 0.005,1.69773 1.39212,3.08267 3.08985,3.08789 h 3.61719 c 1.69772,-0.005 3.08462,-1.39016 3.08984,-3.08789 v -0.002 -0.002 c -0.005,-1.69773 -1.39212,-3.08268 -3.08984,-3.0879 z m 0,1 h 3.61719 c 1.15789,0.005 2.08524,0.93195 2.08984,2.08985 -0.005,1.15789 -0.93195,2.08524 -2.08984,2.08984 h -3.61524 -0.002 c -1.1579,-0.005 -2.08524,-0.93195 -2.08985,-2.08984 0.005,-1.1579 0.93195,-2.08524 2.08985,-2.08985 z"
     id="path78" />
  <path
     style="color:#000000;fill:#ffffff;stroke-miterlimit:10;-inkscape-stroke:none"
     d="m 134.26757,70.511721 c 0,1.60509 1.31288,2.91601 2.91797,2.91601 1.60509,0 2.91601,-1.31092 2.91601,-2.91601 0,-1.60509 -1.31092,-2.91797 -2.91601,-2.91797 -1.60509,0 -2.91797,1.31288 -2.91797,2.91797 z m 1,0 c 0,-1.06465 0.85332,-1.91797 1.91797,-1.91797 1.06465,0 1.91601,0.85332 1.91601,1.91797 0,1.06465 -0.85136,1.91601 -1.91601,1.91601 -1.06465,0 -1.91797,-0.85136 -1.91797,-1.91601 z"
     id="circle80" />
  <path
     style="color:#000000;fill:#ffffff;stroke-miterlimit:10;-inkscape-stroke:none"
     d="m 119.47069,67.630861 -2.36523,5.07812 h 1.66406 l 0.37891,-0.83984 h 0.64453 l 0.36914,0.83984 h 0.32617 1.34375 z m 40.19922,0.81445 v 2.10156 l -0.27344,0.082 0.27344,0.043 v 2.03711 h 0.5 0.82813 c 0.33081,0 0.5682,-0.0119 0.79492,-0.0742 0.21004,-0.056 0.40331,-0.16622 0.55664,-0.32032 0.13667,-0.13579 0.24287,-0.30007 0.31055,-0.48047 0.0678,-0.17602 0.10156,-0.3647 0.10156,-0.55273 0,-0.30271 -0.0845,-0.60441 -0.26563,-0.84375 -0.013,-0.0172 -0.0407,-0.0149 -0.0547,-0.0312 0.10069,-0.18843 0.17525,-0.39285 0.17578,-0.60352 0.002,-0.20968 -0.0405,-0.41828 -0.12696,-0.60937 -0.16171,-0.36012 -0.48819,-0.62032 -0.875,-0.69922 -0.18101,-0.0392 -0.37363,-0.0488 -0.62304,-0.0488 z m 1.51953,2.78711 c 8.8e-4,1.4e-4 0.007,-1.2e-4 0.008,0 h 0.004 0.004 c 0.003,4.6e-4 0.005,0.001 0.008,0.002 6.2e-4,0.003 -3.1e-4,-10e-4 0,0.0137 h -0.004 c -0.002,3.6e-4 -0.0168,-3.8e-4 -0.0195,0 z m 0.16211,1.00391 c 0.005,-8e-4 0.0124,8.4e-4 0.0176,0 l -0.0195,0.002 c 8.3e-4,-1e-4 0.001,-0.002 0.002,-0.002 z"
     id="path82" />
  <path
     style="color:#000000;fill:#ffffff;stroke-miterlimit:10;-inkscape-stroke:none"
     d="m 127.1328,65.734371 -0.0605,0.99805 0.0195,0.002 h 0.008 l 12.8125,1.01758 13.05664,-1.01758 h 0.0117 l 0.0176,-0.002 -0.0586,-0.99805 c 0,0 -8.50807,0.33789 -13.02734,0.3379 -4.51927,0 -12.7793,-0.3379 -12.7793,-0.3379 z m 12.7793,7.53711 -12.8125,1.01758 h -0.008 l -0.0195,0.002 0.0605,0.99804 c 0,0 8.26003,-0.33594 12.7793,-0.33594 4.51927,0 13.02734,0.33594 13.02734,0.33594 l 0.0586,-0.99804 -0.0176,-0.002 c 0,0 -0.0117,0 -0.0117,0 z"
     id="path84" />
  <path
     style="color:#000000;fill:#ffffff;stroke-miterlimit:10;-inkscape-stroke:none"
     d="m 257.53515,62.783201 -0.55274,0.10742 h -1.47265 l -2.06641,-0.082 -0.0312,0.48633 c -0.0145,0.22205 -0.0578,0.41492 -0.0273,0.35352 l -0.32227,0.65039 1.38867,0.13281 v 6.4707 l -0.97656,-0.0254 -0.0352,0.47657 c -0.0159,0.2247 -0.0665,0.43788 -0.0273,0.36132 l -0.375,0.73438 2.42383,-0.0195 c 0.26327,0 0.54905,0.005 0.82812,0.008 l 1.16797,0.11914 0.0352,-0.51562 c 0.0137,-0.20164 0.0156,-0.4188 0.0156,-0.59571 v -0.45703 l -1.14453,-0.10156 0.0352,-6.46875 1.04492,0.0234 0.0352,-0.47266 c 0.002,-0.0229 0.002,-0.0537 0.004,-0.0781 h 0.0527 z"
     id="path86" />
  <path
     style="color:#000000;fill:#ffffff;stroke-miterlimit:10;-inkscape-stroke:none"
     d="m 253.3789,62.822271 -0.0332,0.46484 c -0.0157,0.22478 -0.0137,0.44944 -0.0137,0.64844 v 0.48047 l 0.48047,0.0195 0.57227,0.0215 v 6.4043 l -0.98438,0.041 -0.0293,0.44922 c -0.0146,0.22444 -0.0137,0.45821 -0.0137,0.65821 v 0.5 h 0.5 c 0.48903,0 1.08888,-0.0117 1.60156,-0.0117 0.52589,0 1.13802,0.0117 1.60157,0.0117 h 0.46875 l 0.0312,-0.4668 c 0.0147,-0.22584 0.0137,-0.47316 0.0137,-0.66016 v -0.4824 l -1.14453,-0.0391 0.0351,-6.40235 1.04688,-0.0391 0.0332,-0.44531 c 0.0106,-0.13963 0.0215,-0.30829 0.0215,-0.47656 0,-0.0719 -0.002,-0.14078 -0.006,-0.20313 l -0.0254,-0.47265 h -2.0349 z"
     id="path88" />
  <path
     style="color:#000000;fill:#ffffff;stroke-miterlimit:10;-inkscape-stroke:none"
     d="m 234.49022,69.875001 -0.59179,0.11133 c -0.20297,0.0384 -0.36795,0.26175 -0.40821,0.38281 v -0.39062 h -3.34961 l -2.06054,-0.0801 -0.0352,0.48242 c -0.0157,0.2238 -0.0578,0.41687 -0.0273,0.35547 l -0.32422,0.65039 1.39258,0.13281 v 6.4707 l -0.98047,-0.0254 -0.0332,0.47657 c -0.0159,0.2247 -0.0665,0.43984 -0.0274,0.36328 l -0.375,0.73437 2.41992,-0.0195 0.72071,0.0137 0.42187,-0.004 0.89453,0.18164 v -0.18946 l 0.28711,-0.004 c 0.26389,0 0.55124,0.005 0.83008,0.008 l 1.16797,0.11914 0.0352,-0.51562 c 0.0137,-0.20164 0.0137,-0.4188 0.0137,-0.59571 v -0.45703 l -1.14453,-0.10156 0.0352,-6.46875 1.04492,0.0234 0.0371,-0.47266 c 0.002,-0.023 0.002,-0.0537 0.004,-0.0781 h 0.0527 z m -3.27929,1.60156 0.19531,0.0254 v 6.51367 l -0.18555,0.008 -0.22656,-0.008 0.0352,-6.5332 z"
     id="path90" />
  <path
     style="color:#000000;fill:#ffffff;stroke-miterlimit:10;-inkscape-stroke:none"
     d="m 228.01366,69.910161 -0.0351,0.46289 c -0.017,0.22726 -0.0156,0.45139 -0.0156,0.65039 v 0.48242 l 0.48047,0.0176 0.57422,0.0215 v 6.40625 l -0.98438,0.041 -0.0293,0.44726 c -0.0146,0.22444 -0.0137,0.46016 -0.0137,0.66016 v 0.5 h 0.5 c 0.48903,0 1.08888,-0.0137 1.60157,-0.0137 0.0701,0 0.14775,0.001 0.2207,0.002 v 0.0156 l 0.94727,-0.008 0.93359,0.008 v -0.0156 c 0.0735,-4.9e-4 0.15205,-0.002 0.22266,-0.002 0.52588,0 1.13801,0.0117 1.60156,0.0117 h 0.46875 l 0.0293,-0.4668 c 0.0147,-0.22584 0.0137,-0.47316 0.0137,-0.66016 v -0.48242 l -1.14453,-0.0391 0.0351,-6.40235 1.04883,-0.0391 0.0332,-0.44531 c 0.0106,-0.13963 0.0195,-0.30829 0.0195,-0.47656 0,-0.0719 -0.002,-0.14078 -0.006,-0.20313 l -0.0254,-0.47265 h -2.0332 -0.76172 -0.89453 -0.66797 z m 3.21875,1.63281 0.10742,0.004 v 6.40235 l -0.11523,0.006 -0.16406,-0.006 0.0351,-6.40039 z"
     id="path92" />
  <path
     style="color:#000000;fill:#ffffff;stroke-miterlimit:10;-inkscape-stroke:none"
     d="m 211.67382,81.185551 -0.59571,0.11523 c -0.20602,0.0401 -0.36451,0.26306 -0.40429,0.38281 v -0.39062 h -5.67188 l -2.06445,-0.082 -0.0332,0.48633 c -0.0145,0.22205 -0.0559,0.41491 -0.0254,0.35351 l -0.32422,0.65039 1.39062,0.13281 v 6.4668 l -0.97851,-0.0234 -0.0332,0.47657 c -0.0159,0.22531 -0.066,0.43892 -0.0273,0.36328 l -0.375,0.73437 2.41992,-0.0195 0.71875,0.0117 0.4043,-0.002 0.91211,0.17578 v -0.1836 l 0.28711,-0.002 0.7207,0.0137 0.4043,-0.002 0.91211,0.17383 v -0.18164 l 0.28711,-0.002 c 0.26451,0 0.55257,0.003 0.83203,0.006 l 1.16601,0.11914 0.0352,-0.51562 c 0.0137,-0.20163 0.0137,-0.4188 0.0137,-0.5957 v -0.45704 l -1.14453,-0.10156 0.0352,-6.46679 1.04492,0.0234 0.0371,-0.47265 c 0.002,-0.0234 0.002,-0.0552 0.004,-0.0801 h 0.0527 z m -5.60156,1.60547 0.19531,0.0254 v 6.51367 l -0.1836,0.008 -0.22851,-0.01 0.0352,-6.53125 z m 2.32226,0 0.19531,0.0254 v 6.51367 l -0.18359,0.008 -0.23047,-0.01 0.0352,-6.52929 z"
     id="path94" />
  <path
     style="color:#000000;fill:#ffffff;stroke-miterlimit:10;-inkscape-stroke:none"
     d="m 202.87499,81.224611 -0.0352,0.46289 c -0.017,0.22726 -0.0156,0.45234 -0.0156,0.65234 v 0.48047 l 0.48047,0.0195 0.57422,0.0215 v 6.40429 l -0.98633,0.041 -0.0293,0.44922 c -0.0146,0.22444 -0.0137,0.4582 -0.0137,0.6582 v 0.5 h 0.5 c 0.48903,0 1.08888,-0.0117 1.60156,-0.0117 0.0705,0 0.14925,0.001 0.22266,0.002 v 0.0137 l 0.94531,-0.006 0.93555,0.006 v -0.0156 c 0.0728,-4.8e-4 0.15072,-0.002 0.2207,-0.002 0.0701,0 0.14786,0.001 0.2207,0.002 v 0.0137 l 0.94727,-0.006 0.93359,0.006 v -0.0156 c 0.0728,-4.8e-4 0.15072,-0.002 0.22071,-0.002 0.52588,0 1.13801,0.0137 1.60156,0.0137 h 0.46875 l 0.0312,-0.4668 c 0.0147,-0.22583 0.0137,-0.47315 0.0137,-0.66015 v -0.48243 l -1.14453,-0.041 0.0352,-6.40039 1.04687,-0.041 0.0352,-0.44336 c 0.0106,-0.13962 0.0195,-0.31024 0.0195,-0.47851 0,-0.0719 -0.002,-0.13882 -0.006,-0.20117 l -0.0254,-0.47266 h -2.03516 -0.75976 -0.89454 -0.66796 -0.75977 -0.89453 -0.66797 z m 3.21875,1.63281 0.10742,0.004 v 6.40234 l -0.11523,0.006 -0.16407,-0.006 0.0352,-6.40039 z m 2.32227,0 0.10742,0.004 v 6.40234 l -0.11524,0.006 -0.16406,-0.006 0.0352,-6.40039 z"
     id="path96" />
  <g
     id="g102"
     transform="rotate(-90,63.936737,63.442654)"
     style="fill:#ffffff;stroke:#ffffff;stroke-miterlimit:10">
    <path
       style="color:#000000;fill:#ffffff;stroke:none;-inkscape-stroke:none"
       d="m 62.34375,191.375 0.01953,2.42578 c -3.5e-5,0.27008 -0.0048,0.56303 -0.0078,0.84766 -3.5e-5,0.003 3.4e-5,0.006 0,0.01 l -0.119141,1.13867 0.517578,0.0332 c 0.112124,0.007 0.216536,0.0103 0.291016,0.0176 0.07448,0.007 0.122598,0.0363 0.05664,0 l 0.669922,0.36914 0.134766,-1.51758 5.751953,0.0312 -0.203125,0.0684 c -0.771252,0.25775 -1.565024,0.52241 -2.302734,0.77734 h -0.002 l -0.002,0.002 c -1.428402,0.5065 -3.176931,1.13357 -4.585937,1.63086 l -0.333984,0.11719 v 0.35352 c 0,0.15095 -6.88e-4,0.30989 -0.0039,0.42968 -0.0014,0.0515 -0.0038,0.0902 -0.0059,0.11915 l -0.195313,0.39843 0.476563,0.20899 c 1.116533,0.4933 2.448284,1.0099 3.619141,1.46484 l 0.882812,0.3457 c 1.073294,0.42657 2.283334,0.90287 3.371094,1.3418 l -0.02734,0.81641 0.480469,0.0312 c 0.198529,0.0136 0.403223,0.0156 0.576172,0.0156 h 0.501953 v -1.65039 l 0.08789,-2.18359 -0.943359,-0.0137 c -0.02535,-0.001 -0.03374,-0.0121 0.05078,0.0137 0.04531,0.0138 0.126451,0.047 0.199219,0.1289 0.07277,0.0819 0.110618,0.20401 0.113281,0.28125 h -1 l -0.02148,0.64063 c -0.795855,-0.24614 -2.053197,-0.67528 -2.763672,-0.92578 l -0.002,-0.002 c -0.704002,-0.25269 -1.534991,-0.58426 -2.341797,-0.90234 0.686397,-0.23178 1.377743,-0.46726 2.044922,-0.68359 l 0.568359,-0.18555 c 0.532319,-0.1777 1.709589,-0.53347 2.462891,-0.75586 l -0.01953,1.11719 0.472656,0.0332 c 0.145907,0.0104 0.316967,0.0195 0.484375,0.0195 h 0.0078 c 0.01995,0 0.01517,0.0104 -0.06641,-0.0117 -0.08157,-0.0221 -0.293446,-0.18444 -0.326172,-0.35742 l 0.990235,-0.0918 v -3.47657 l 0.08203,-2.06054 -0.482422,-0.0352 c -0.223798,-0.0157 -0.416868,-0.0578 -0.355469,-0.0273 l -0.65039,-0.32422 -0.132813,1.39062 h -6.470703 l 0.02539,-0.97851 -0.478516,-0.0332 c -0.224701,-0.0159 -0.437889,-0.0665 -0.361328,-0.0273 z m 8.558594,3.99219 v 0.041 l -0.25,0.0703 c -0.179754,0.0494 -0.604834,0.18815 -0.947266,0.29101 0.02306,-0.008 0.04533,-0.0157 0.06836,-0.0234 z m -7.431641,2.58008 v 0.20312 c -0.07888,-0.0334 -0.169013,-0.0644 -0.246094,-0.0977 9.9e-5,-0.006 -9e-5,-0.0118 0,-0.0176 0.07823,-0.0277 0.166312,-0.0596 0.246094,-0.0879 z"
       id="path98" />
    <path
       style="color:#000000;fill:#ffffff;stroke:none;-inkscape-stroke:none"
       d="m 70.375,191.66992 -0.01953,0.48047 -0.02148,0.57422 h -6.404297 l -0.04102,-0.98633 -0.447266,-0.0273 c -0.224436,-0.0146 -0.460156,-0.0156 -0.660156,-0.0156 h -0.5 v 0.5 c 0,0.48903 0.01367,1.09084 0.01367,1.60352 0,0.52588 -0.01367,1.13802 -0.01367,1.60156 v 0.46875 l 0.466797,0.0293 c 0.225836,0.0147 0.473156,0.0137 0.660156,0.0137 h 0.482422 l 0.04102,-1.14453 5.324218,0.0293 c -0.719701,0.24072 -1.4395,0.47969 -2.126953,0.7168 h -0.002 -0.002 c -1.554687,0.54692 -3.102168,1.1133 -4.642578,1.69922 l -0.322266,0.12305 v 0.3457 c 0,0.307 -0.01299,0.58483 0.01563,0.82031 l 0.03516,0.28321 0.259766,0.11328 c 1.408321,0.62299 3.146458,1.27872 4.501953,1.81054 1.077623,0.4283 2.292209,0.90201 3.359375,1.30079 l 0.04687,0.86718 0.44336,0.0274 c 0.224436,0.0146 0.459484,0.0156 0.646484,0.0156 h 0.5 v -1.72851 -2.24805 h -0.5 c -0.107871,0 -0.26008,-0.006 -0.417969,-0.006 -0.07663,0 -0.157885,0.001 -0.246094,0.008 l -0.447265,0.0332 -0.03516,0.99804 c -0.780552,-0.24416 -1.925358,-0.63133 -2.677735,-0.89648 l -0.002,-0.002 c -0.737177,-0.26321 -1.468557,-0.54274 -2.201172,-0.81835 0.8341,-0.27988 1.678345,-0.56611 2.470703,-0.82422 v 0.002 c 0.799032,-0.25908 1.602952,-0.50125 2.408203,-0.74023 l 0.0332,1.10546 0.451171,0.0312 c 0.147448,0.0104 0.319148,0.0195 0.488282,0.0195 0.07275,0 0.142162,-8.6e-4 0.210937,-0.006 l 0.464844,-0.0352 v -2.41406 -0.0527 -1.36133 -0.14648 -2.125 L 71.5,191.68359 c -0.222159,-0.0145 -0.444531,-0.0137 -0.644531,-0.0137 z"
       id="path100" />
  </g>
  <g
     id="g108"
     transform="rotate(-90,63.936737,63.442654)"
     style="fill:#ffffff;stroke:#ffffff;stroke-miterlimit:10">
    <path
       style="color:#000000;fill:#ffffff;stroke:none;-inkscape-stroke:none"
       d="m 81.337891,216.08008 c -0.02021,0 -0.01239,-0.0157 0.09375,0.0215 0.05307,0.0186 0.142052,0.0634 0.210937,0.1543 0.06888,0.0909 0.09325,0.21069 0.0918,0.2832 l -0.998047,-0.0371 v 0.0176 h -0.002 c -1e-5,5.1e-4 8e-6,0.001 0,0.002 l -0.02734,0.50782 -0.912109,0.30664 c -0.78011,0.26103 -1.583313,0.53016 -2.330078,0.78711 h -0.002 l -0.0039,0.002 c -1.428092,0.50739 -3.175822,1.13351 -4.583984,1.63086 l -0.333984,0.11914 v 0.35352 c 0,0.1515 -8.08e-4,0.31 -0.0039,0.42968 -0.0013,0.0487 -0.002,0.0828 -0.0039,0.11133 l -0.208984,0.40039 0.488281,0.21485 c 1.111306,0.4912 2.433469,1.00495 3.597656,1.45703 l 0.904297,0.35351 c 1.072303,0.42653 2.282308,0.90263 3.369141,1.3418 l -0.02539,0.81641 0.480469,0.0332 c 0.02556,0.002 0.04856,6.1e-4 0.07422,0.002 v 0.0117 h 0.501953 v -0.99805 l 0.498047,0.49805 v -0.35937 l 0.002,0.01 v -0.84961 l 0.08594,-2.13476 -0.08594,-0.002 v -3.6582 l 0.08594,-1.76953 -0.488281,-0.0352 c -0.143207,-0.0102 -0.300011,-0.0215 -0.464844,-0.0215 z m -0.123047,1.83398 v 0.041 l -0.253907,0.0723 c -0.195048,0.0537 -0.638342,0.19803 -1.011718,0.31055 0.05517,-0.0185 0.109086,-0.0363 0.164062,-0.0547 z m -0.544922,1.24805 -0.01953,1.11719 0.472656,0.0351 c 0.0529,0.004 0.117623,0.005 0.175781,0.008 l 0.267578,1.23437 -0.208984,-0.004 c -0.02535,-0.001 -0.03374,-0.0121 0.05078,0.0137 0.04291,0.0131 0.117949,0.0483 0.1875,0.12109 l 0.0625,0.28906 h -0.9375 l -0.02148,0.64063 c -0.790551,-0.24463 -2.050788,-0.67448 -2.763672,-0.92578 h -0.002 c -0.703507,-0.25252 -1.533733,-0.58459 -2.339844,-0.90235 0.692646,-0.23385 1.389876,-0.47306 2.0625,-0.6914 l 0.548828,-0.17774 h 0.002 c 0.523956,-0.1757 1.704254,-0.53373 2.462891,-0.75781 z m -6.890625,1.33398 v 0.20118 c -0.07782,-0.033 -0.166109,-0.0648 -0.242188,-0.0977 9.3e-5,-0.006 -8.3e-5,-0.0118 0,-0.0176 0.07688,-0.0272 0.163787,-0.0581 0.242188,-0.0859 z"
       id="path104" />
    <path
       style="color:#000000;fill:#ffffff;stroke:none;-inkscape-stroke:none"
       d="m 81.347656,216.01367 c -0.07111,0 -0.142288,0.003 -0.21289,0.008 l -0.44336,0.0293 -0.04883,0.93164 c -1.035742,0.34824 -2.166398,0.72317 -3.201172,1.08008 h -0.002 -0.002 c -1.554687,0.54692 -3.102168,1.11329 -4.642578,1.69922 l -0.322266,0.12305 v 0.3457 c 0,0.307 -0.01103,0.58483 0.01758,0.82031 l 0.0332,0.2832 0.259766,0.11524 c 1.40832,0.62299 3.146458,1.27677 4.501953,1.80859 1.077623,0.4283 2.292209,0.90201 3.359375,1.30078 l 0.04687,0.86719 0.44336,0.0273 c 0.224436,0.0146 0.459484,0.0156 0.646484,0.0156 h 0.5 v -1.72852 -2.24804 h -0.5 c -0.107871,0 -0.26008,-0.006 -0.417969,-0.006 -0.07663,0 -0.157885,0.001 -0.246094,0.008 l -0.447265,0.0332 -0.03516,0.99805 c -0.780578,-0.24418 -1.923489,-0.63136 -2.675782,-0.89648 l -0.002,-0.002 c -0.737177,-0.26322 -1.468557,-0.54274 -2.201172,-0.81836 0.833445,-0.27963 1.677018,-0.56435 2.46875,-0.82226 0.799032,-0.25908 1.602952,-0.50125 2.408203,-0.74024 l 0.03516,1.10547 0.449218,0.0312 c 0.147612,0.0104 0.320012,0.0195 0.488282,0.0195 0.07193,0 0.140932,-0.002 0.203125,-0.006 l 0.470703,-0.0254 v -2.47461 -1.81836 l -0.453125,-0.041 c -0.158019,-0.0144 -0.317894,-0.0225 -0.476563,-0.0234 z"
       id="path106" />
  </g>
  <g
     id="g114"
     transform="rotate(-90,63.936737,63.442654)"
     style="fill:#ffffff;stroke:#ffffff;stroke-miterlimit:10">
    <path
       style="color:#000000;fill:#ffffff;stroke:none;-inkscape-stroke:none"
       d="m 89.382812,239.76562 c -0.02391,0 -0.01806,-0.0171 0.08984,0.0195 0.05395,0.0183 0.14479,0.0656 0.214844,0.1582 0.07005,0.0926 0.09321,0.21043 0.0918,0.28125 l -0.998047,-0.0371 v 0.0176 h -0.002 c -10e-6,5e-4 8e-6,0.001 0,0.002 l -0.02734,0.50977 -0.925781,0.31054 c -0.775863,0.25996 -1.57532,0.52716 -2.31836,0.78321 h -0.002 l -0.002,0.002 c -1.428402,0.5065 -3.176931,1.13356 -4.585937,1.63086 l -0.332032,0.11719 v 0.35351 c 0,0.1515 -9.13e-4,0.3117 -0.0039,0.43164 -0.0012,0.0497 -0.002,0.0843 -0.0039,0.11328 l -0.197266,0.40039 0.476563,0.21094 c 1.115912,0.49303 2.445522,1.009 3.615234,1.46289 l 0.884766,0.34571 c 0.709556,0.28225 1.471101,0.58652 2.230469,0.88867 H 82.25 l 0.02344,-0.98047 -0.476562,-0.0332 c -0.224583,-0.0159 -0.437717,-0.0641 -0.365234,-0.0273 l -0.734375,-0.37304 0.0078,0.82421 c 0,0 0.01563,1.34725 0.01563,1.59571 0,0.26389 -0.0048,0.55123 -0.0078,0.83008 l -0.119141,1.16796 0.515625,0.0352 c 0.201631,0.0137 0.418799,0.0137 0.595703,0.0137 h 0.457031 l 0.101563,-1.14453 6.46875,0.0352 -0.02344,1.04687 0.472657,0.0352 c 0.02233,0.002 0.05248,0.002 0.07617,0.004 v 0.0547 h 1.126954 l -0.126954,-0.57422 v -2.17578 l 0.002,0.01 v -0.98242 l 0.08984,-1.87696 -0.08984,-0.002 v -3.6582 l 0.08594,-1.77149 -0.488281,-0.0332 c -0.143375,-0.0102 -0.300011,-0.0215 -0.464844,-0.0215 z m -0.123046,1.83594 v 0.041 l -0.253907,0.0703 c -0.187746,0.0513 -0.623489,0.19469 -0.982422,0.30273 0.04079,-0.0137 0.08041,-0.0274 0.121094,-0.041 z m -0.544922,1.2461 -0.01953,1.11523 0.470704,0.0352 c 0.06058,0.005 0.12097,0.005 0.18164,0.008 l 0.273438,1.23633 -0.21875,-0.004 c -0.02535,-0.001 -0.03374,-0.0121 0.05078,0.0137 0.0453,0.0138 0.124497,0.047 0.197266,0.12891 0.0036,0.004 0.0025,0.009 0.0059,0.0137 l 0.05859,0.26758 h -0.949219 l -0.02148,0.64062 c -0.810997,-0.25127 -2.110588,-0.69498 -2.763672,-0.92578 l -0.002,-0.002 c -0.703557,-0.25253 -1.533725,-0.58457 -2.339844,-0.90234 0.692523,-0.23352 1.389761,-0.47108 2.0625,-0.68946 l 0.548828,-0.17773 0.002,-0.002 c 0.535271,-0.17816 1.711316,-0.53414 2.462891,-0.75586 z m -6.890625,1.33398 v 0.20117 c -0.07781,-0.033 -0.166122,-0.0649 -0.242188,-0.0977 8.9e-5,-0.006 -8e-5,-0.0118 0,-0.0176 0.07697,-0.0272 0.163711,-0.0581 0.242188,-0.0859 z"
       id="path110" />
    <path
       style="color:#000000;fill:#ffffff;stroke:none;-inkscape-stroke:none"
       d="m 89.394531,239.69922 c -0.07111,0 -0.142288,0.003 -0.21289,0.008 l -0.441407,0.0293 -0.04883,0.93164 c -1.035779,0.34825 -2.168304,0.72315 -3.203125,1.08008 h -0.002 c -1.554687,0.54691 -3.102168,1.11329 -4.642578,1.69922 l -0.322266,0.12304 v 0.34375 c 0,0.307 -0.01298,0.58679 0.01563,0.82227 l 0.03516,0.28125 0.259765,0.11523 c 1.408321,0.62299 3.146459,1.27873 4.501953,1.81055 0.628984,0.24999 1.289631,0.49768 1.960938,0.75781 h -5.00586 l -0.04102,-0.98437 -0.449219,-0.0293 c -0.224436,-0.0146 -0.458203,-0.0137 -0.658203,-0.0137 h -0.5 v 0.5 c 0,0.48903 0.01172,1.08888 0.01172,1.60156 0,0.52589 -0.01172,1.13802 -0.01172,1.60156 v 0.46875 l 0.466797,0.0293 c 0.225836,0.0147 0.473156,0.0156 0.660156,0.0156 H 82.25 l 0.03906,-1.14648 6.402344,0.0352 0.03906,1.04882 0.445312,0.0332 c 0.139625,0.0106 0.308293,0.0215 0.476563,0.0215 0.07193,0 0.140775,-0.002 0.203125,-0.006 l 0.472656,-0.0273 v -2.0332 -0.16211 -1.22657 -0.26757 -1.98047 h -0.5 c -0.107871,0 -0.26008,-0.006 -0.417969,-0.006 -0.07663,0 -0.157885,-7.3e-4 -0.246094,0.006 l -0.447265,0.0332 -0.03516,0.99805 c -0.780758,-0.24425 -1.923588,-0.6314 -2.675782,-0.89649 h -0.002 c -0.738104,-0.26354 -1.469595,-0.54433 -2.203125,-0.82031 0.834034,-0.27985 1.678408,-0.56417 2.470703,-0.82227 0.798995,-0.25906 1.60299,-0.4993 2.408203,-0.73828 l 0.03516,1.10352 0.449218,0.0332 c 0.147448,0.0104 0.319148,0.0195 0.488282,0.0195 0.07275,0 0.144116,-0.003 0.21289,-0.008 l 0.462891,-0.0332 v -2.4668 -1.81641 l -0.453125,-0.043 c -0.158011,-0.0148 -0.31787,-0.0221 -0.476563,-0.0234 h -0.002 z"
       id="path112" />
  </g>
  <g
     fill="#dcdde2"
     stroke="#b2b2b2"
     stroke-width="0.135"
     stroke-miterlimit="10"
     id="g122"
     transform="rotate(-90,63.936737,63.442654)"
     style="fill:#ffffff;stroke:#ffffff;stroke-miterlimit:10">
    <path
       style="color:#000000;fill:#ffffff;stroke:none;-inkscape-stroke:none"
       d="m 113.70117,132.46094 c -1.10325,0.0503 -1.88889,0.79395 -2.4414,1.54297 -0.82699,0.0521 -1.53266,0.46107 -2.03125,1.06054 -0.19507,0.007 -0.39282,-0.002 -0.7461,0.15039 l -0.043,0.0176 -0.041,0.0274 c -0.80185,0.54779 -1.22603,1.38046 -1.42188,2.23046 -0.14749,0.64015 -0.10951,1.27161 -0.084,1.88868 -0.0757,-0.0187 -0.12001,-0.0622 -0.23047,-0.0371 l -0.0273,0.006 -0.0273,0.01 c -0.21003,0.0729 -0.40716,0.23352 -0.5039,0.42774 -0.0968,0.19421 -0.10041,0.38165 -0.084,0.53125 0.0328,0.29919 0.14504,0.53294 0.16016,0.58398 l 0.0156,0.0566 0.0293,0.0508 c 0.37558,0.65497 0.83727,1.38966 1.67383,1.85742 l 0.043,0.0234 0.0449,0.0156 c 0.15898,0.0527 0.24964,0.0844 0.28515,0.0996 -0.005,-2.7e-4 0.10887,0.16089 0.39258,0.42382 0.32967,0.31683 0.70336,0.46036 0.99414,0.5918 0.29255,0.13224 0.49458,0.24429 0.62305,0.41016 l 0.0117,0.0156 0.0117,0.0137 c 0.61507,0.68355 1.41203,0.95199 2.07226,1.24219 1.01471,1.07505 2.37623,2.10735 4.06055,2.07422 1.35794,0.0594 2.49949,-0.75246 3.26367,-1.67187 l 0.002,-0.002 0.002,-0.002 c 1.19591,-1.46471 1.78717,-3.28636 2.07226,-5.07227 0.15424,-0.41775 -0.0175,-0.8541 -0.31445,-1.08984 -0.29699,-0.23574 -0.7989,-0.28856 -1.1582,-0.0117 l -0.10742,0.082 -0.0508,0.125 c -0.38228,0.93203 -0.3719,1.83178 -0.6621,2.50977 l -0.006,0.0137 -0.004,0.0117 c -0.45455,1.23924 -1.13141,2.43946 -2.19727,3.05273 -0.47103,0.22832 -0.99535,0.23385 -1.52734,0.0684 -0.37482,-0.1166 -0.69046,-0.38577 -1.00977,-0.63281 0.383,-0.26537 0.78562,-0.49166 1.0918,-0.9082 v -0.002 c 1.14016,-1.50518 1.52769,-3.37666 1.63281,-5.13281 v -0.0156 -0.0137 c 0.003,-1.68295 -0.2098,-3.49391 -1.13867,-5.04492 v -0.002 -0.002 c -0.25258,-0.41556 -0.5918,-0.83181 -1.03125,-1.14454 -0.43359,-0.30856 -0.98971,-0.50396 -1.59375,-0.42968 z m -0.73828,1.29883 c -0.42783,0.24431 -0.87219,0.50957 -1.02344,0.99804 l -0.0781,0.25781 0.16992,0.20704 c 0.0406,0.0496 0.046,0.12051 0.084,0.17187 -0.0573,-0.0233 -0.0752,-0.0671 -0.15234,-0.0664 -0.19197,0.002 -0.32439,0.11121 -0.39258,0.1875 0.007,-0.0278 0.009,-0.0517 0.0156,-0.0801 l 0.11719,-0.49024 0.082,0.006 0.16211,-0.23242 c 0.28452,-0.41024 0.63514,-0.72693 1.01562,-0.95898 z m 0.62891,0.64843 c 0.32253,-0.11105 0.56651,-0.0879 0.76367,0.15821 l 0.004,0.004 0.002,0.004 c 0.98276,1.18358 1.21259,2.88935 1.17578,4.51172 v 0.002 0.002 c -0.0239,1.54756 -0.39763,3.15509 -1.40234,4.25 l -0.006,0.006 -0.006,0.006 c -0.18008,0.21087 -0.49188,0.31399 -0.79102,0.42774 -0.1266,-0.18591 -0.25531,-0.36965 -0.37695,-0.56055 -0.0348,-0.0757 -0.0648,-0.15317 -0.084,-0.18359 0.86597,-1.16426 1.18008,-2.58462 1.26563,-3.92188 v -0.0156 -0.0137 c 0.008,-1.39581 -0.29932,-2.87866 -1.14649,-4.11718 0.11354,-0.21558 0.32268,-0.46258 0.60157,-0.5586 z m 1.77734,0.0332 c 0.0289,0.0431 0.075,0.0696 0.10156,0.11328 0.0801,0.1339 0.0916,0.30134 0.16016,0.4414 -0.0926,-0.18393 -0.14702,-0.37996 -0.26172,-0.55468 z m -3.98242,1.42382 c -0.002,0.005 -2.3e-4,0.0106 -0.002,0.0156 -0.001,0.004 -0.005,0.008 -0.006,0.0117 z m -1.62109,0.0762 0.0898,0.13476 -0.37891,0.63672 c 0.002,-0.009 0.002,-0.0183 0.004,-0.0273 l 0.16992,-0.66797 h 0.0605 z m 0.6875,1.32226 0.53515,1.50586 c -0.006,0.12746 -0.0764,0.52283 -0.0781,0.56445 -0.009,0.22507 0.0111,0.46566 0.0215,0.61914 l -0.17773,-0.6621 -0.0977,0.35351 c 0.10286,-0.80518 0.0256,-1.6181 -0.20312,-2.38086 z m 1.60156,1.01758 c 0.0241,0.2854 0.16293,0.52208 0.16211,0.8125 -0.0229,0.38336 -0.19781,0.68808 -0.26758,1.05078 -0.004,-0.0272 -0.01,-0.0575 -0.0137,-0.084 -0.002,-0.0319 -0.0312,-0.59213 -0.0274,-0.68555 0.002,-0.0462 0.10894,-0.68117 0.14649,-1.09375 z m -2.84766,0.74023 c 3.9e-4,0.10554 0.009,0.21063 0.0117,0.31641 -0.004,-0.10637 -0.0114,-0.20997 -0.0117,-0.31641 z m 3.75781,1.07227 c -0.0706,0.40067 -0.16806,0.77967 -0.30468,1.15039 0.13627,-0.38368 0.24684,-0.75931 0.30468,-1.15039 z m -5.06445,0.2793 c 0.12123,0.53346 0.34789,1.03807 0.69922,1.49804 0.001,0.004 8.4e-4,0.008 0.002,0.0117 l 0.004,-0.002 c 0.046,0.0598 0.0506,0.13589 0.10156,0.19336 l 0.0781,0.0879 c -0.0387,-0.0233 -0.0704,-0.0562 -0.10743,-0.0723 -0.0818,-0.0356 -0.1843,-0.0692 -0.29882,-0.10742 -0.46987,-0.26615 -0.75401,-0.7244 -1.04883,-1.19922 0.12451,0.0151 0.34218,-0.0137 0.46484,-0.14843 0.1,-0.10984 0.0968,-0.188 0.10547,-0.26172 z m 2.40039,0.5625 -0.0352,0.13086 c -0.0727,0.26369 -0.17506,0.45974 -0.35352,0.60351 l -0.25586,0.20703 0.0879,0.31641 c 0.077,0.27569 0.19109,0.58289 0.46094,0.83789 0.26985,0.255 0.79815,0.35419 1.20312,0.13477 l 0.35547,-0.19336 -0.11523,-0.38868 c -0.0167,-0.0564 -0.0304,-0.1152 -0.0469,-0.17187 0.0916,0.0552 0.2241,0.10119 0.34571,0.0859 0.0943,-0.0118 0.0806,-0.0493 0.13281,-0.0781 -0.0187,0.0255 -0.0217,0.0609 -0.041,0.0859 l 0.0684,-0.0723 c -0.13394,0.1165 -0.24096,0.30474 -0.26172,0.48243 -0.0208,0.17768 0.0222,0.31591 0.0625,0.41601 0.0806,0.20021 0.15236,0.32292 0.14258,0.28711 l 0.0195,0.0742 0.041,0.0625 c 0.20558,0.32262 0.41946,0.64517 0.64648,0.96094 l 0.0684,0.0957 c -0.70928,-0.31634 -1.36358,-0.56362 -1.77734,-1.02344 l 0.0234,0.0293 c -0.29753,-0.38413 -0.68726,-0.56673 -1.00196,-0.70899 -0.0385,-0.0174 -0.0515,-0.0322 -0.0879,-0.0488 l -0.41797,-1.44141 0.4961,-0.33398 c 0.14033,-0.0949 0.16667,-0.22587 0.24023,-0.34961 z m 0.98242,1.00586 c 0.001,0.004 0.005,0.008 0.006,0.0117 0.001,0.003 8.6e-4,0.009 0.002,0.0117 z m 3.59961,2.06054 -0.0117,0.0137 c 0.003,-0.003 0.003,-0.007 0.006,-0.01 0.002,-0.002 0.004,-0.002 0.006,-0.004 z m -0.9414,0.53711 c -0.11017,0.0722 -0.17317,0.16277 -0.28907,0.23438 l -0.48242,0.29883 c -0.0364,-0.0378 -0.0834,-0.0613 -0.11914,-0.0996 l 0.24219,-0.0645 c 0.22338,-0.0597 0.42196,-0.26543 0.64844,-0.36914 z m 0.40625,1.51367 c 0.12903,0.0901 0.25736,0.17117 0.39648,0.24805 -0.13851,-0.0749 -0.26315,-0.15865 -0.39648,-0.24805 z m 2.57422,0.61133 c -0.15385,0.0266 -0.2965,0.12706 -0.45313,0.11914 l -0.0176,-0.002 h -0.0195 c -0.0942,0.002 -0.17465,-0.0694 -0.26758,-0.0762 0.25408,0.0256 0.50088,-0.002 0.75782,-0.041 z"
       id="path116" />
    <path
       style="color:#000000;fill:#ffffff;stroke:none;-inkscape-stroke:none"
       d="m 121.03906,137.92383 c -0.64853,0 -1.18554,0.53506 -1.18554,1.18359 0,0.64854 0.53701,1.18555 1.18554,1.18555 0.64854,0 1.18555,-0.53701 1.18555,-1.18555 0,-0.64853 -0.53701,-1.18359 -1.18555,-1.18359 z m 0,1 c 0.1081,0 0.18555,0.0755 0.18555,0.18359 0,0.1081 -0.0774,0.18555 -0.18555,0.18555 -0.10809,0 -0.18554,-0.0774 -0.18554,-0.18555 0,-0.10809 0.0774,-0.18359 0.18554,-0.18359 z"
       id="circle118" />
    <path
       style="color:#000000;fill:#ffffff;stroke:none;-inkscape-stroke:none"
       d="m 105.56641,130.02734 -5.17774,9.08008 5.12305,9 h 5.51172 l -5.12305,-9 4.29297,-7.54101 h 4.98437 l 4.23829,7.86132 1.35546,-0.73046 -4.67382,-8.66993 z m 0.58007,1 h 3.20313 l -4.59961,8.08008 0.0234,0.041 h -3.21094 l -0.0234,-0.041 z m -3.39257,9.1211 h 1.96679 l 3.6543,6.41797 h -1.96875 z"
       id="path120" />
  </g>
  <g
     id="g126"
     transform="rotate(-90,63.936737,63.442654)"
     style="fill:#ffffff;stroke:#ffffff;stroke-miterlimit:10">
    <path
       style="color:#000000;fill:#ffffff;stroke:none;-inkscape-stroke:none"
       d="m 93.429687,127.5625 v 3.56641 h -4.103515 v 1.7832 h 2.103515 l -1.617187,1.45312 -0.0098,0.0117 c -0.352838,0.36182 -0.465883,0.79741 -0.474609,1.10157 l -0.002,0.008 v 1.88281 h 0.685547 c -0.05494,0.0355 -0.112018,0.0123 -0.164063,0.0586 -0.325929,0.29015 -0.510262,0.75735 -0.535156,1.36524 v 0.002 c -0.04361,1.22868 -0.03681,2.45925 0.01758,3.6875 l 0.02148,0.47852 h 0.791016 c -0.13711,0.13225 -0.321239,0.19053 -0.417969,0.37695 -0.305174,0.58096 -0.427153,1.19992 -0.480468,1.79492 v 0.002 c -0.08537,0.98637 -0.06368,1.97725 0.06445,2.95898 l 0.0039,0.0293 0.0059,0.0273 0.0957,0.38281 h 1.66211 l -0.109375,-0.58984 c -0.127642,-0.68946 -0.198229,-1.36095 -0.101563,-2.01367 v -0.002 c 0.06418,-0.44727 0.219076,-0.61439 0.404297,-0.73046 0.185222,-0.11608 0.44227,-0.16016 0.66211,-0.16016 0.266989,0 0.47276,0.018 0.732421,0.22266 h 0.002 c 0.114174,0.0896 0.276645,0.41386 0.328125,0.90429 0.05148,0.49043 0.0106,1.11257 -0.107422,1.71485 l -0.117188,0.5957 h 1.644531 l 0.04687,-0.44727 c 0.117244,-1.1133 0.168187,-2.28133 -0.04102,-3.4707 v -0.002 c -0.07477,-0.41526 -0.162765,-0.88682 -0.460938,-1.3418 -0.09897,-0.15291 -0.258832,-0.20145 -0.384765,-0.3125 h 0.859375 v -5.83984 h -0.0059 v -1.47852 h -2.203125 l 1.615235,-1.45703 0.0098,-0.0117 c 0.206362,-0.21035 0.580079,-0.55276 0.580078,-1.16601 v -0.81836 h 0.142579 z m 0,4.89648 v 0.48829 c 0,-0.009 -0.184786,0.35321 -0.289062,0.46289 l -2.814453,2.53711 v -0.43946 c 0.0052,-0.18215 -0.0021,-0.23219 0.189453,-0.42969 z m -2.517578,5.60157 h 2.521485 v 0.70898 h -1.199219 -0.429688 -0.07031 c -0.322903,0 -0.723324,0.0117 -0.71875,0.0117 h -0.01172 l -0.01172,0.002 c -0.234935,0.0112 -0.480431,0.12563 -0.677734,0.29883 0.0025,-0.084 -0.0049,-0.16799 -0.002,-0.25195 0.01893,-0.43656 0.122567,-0.58802 0.199219,-0.65625 0.07707,-0.0686 0.200394,-0.10579 0.40039,-0.11328 z m 0.06055,1.70898 c -0.01982,0.0238 -0.0501,0.0176 0.06445,0.0117 0.0034,-1.7e-4 -0.0017,1.7e-4 0.002,0 0.03736,-2.1e-4 0.137089,-0.003 0.195313,-0.004 v 2.58789 c -0.100144,0.0191 -0.196305,0.0224 -0.294922,0.0527 -0.0063,-0.61198 -1.44e-4,-2.26183 0,-2.42578 0.01085,-0.19333 0.05361,-0.24711 0.0332,-0.22266 z m 1.832031,0 h 0.04297 v 2.64844 c -0.01431,-0.005 -0.0286,-0.003 -0.04297,-0.008 z m -2.488281,0.1875 0.140625,0.008 h -0.138672 c 2.7e-5,-0.003 -0.002,-0.005 -0.002,-0.008 z m 1.580078,3.28711 h 0.002 c 0.521069,0.006 0.993039,0.15697 1.222657,0.51172 v 0.002 l 0.002,0.002 c 0.173621,0.26372 0.239494,0.56717 0.3125,0.97265 0.005,0.0283 -0.0046,0.0576 0,0.0859 -0.07575,-0.099 -0.04972,-0.26305 -0.152344,-0.34375 -0.476337,-0.37538 -0.998552,-0.4375 -1.351562,-0.4375 -0.33416,0 -0.776582,0.0513 -1.19336,0.3125 -0.230849,0.14466 -0.320467,0.51544 -0.478515,0.79492 0.05009,-0.4884 0.14323,-0.94573 0.351562,-1.3418 v -0.002 -0.002 c 0.20986,-0.40446 0.720496,-0.56479 1.285156,-0.55469 z"
       id="path124" />
  </g>
  <g
     id="g166"
     transform="rotate(-90,63.936737,63.442654)"
     style="fill:#ffffff;stroke:#ffffff;stroke-miterlimit:10">
    <path
       style="color:#000000;fill:#ffffff;stroke:none;-inkscape-stroke:none"
       d="m 59.21875,24.095703 c -15.731416,0 -28.496094,12.762724 -28.496094,28.494141 0,15.731416 12.764678,28.496093 28.496094,28.496093 15.731416,0 28.494141,-12.764677 28.494141,-28.496093 0,-15.731417 -12.762725,-28.494141 -28.494141,-28.494141 z m 0,1 c 15.190977,0 27.494141,12.303164 27.494141,27.494141 0,15.190977 -12.303164,27.496093 -27.494141,27.496093 -15.190977,0 -27.496094,-12.305116 -27.496094,-27.496093 0,-15.190977 12.305117,-27.494141 27.496094,-27.494141 z"
       id="circle128" />
    <path
       style="color:#000000;fill:#ffffff;stroke:none;-inkscape-stroke:none"
       d="m 58.138672,26.162109 c -14.589844,0 -26.427735,11.837891 -26.427735,26.427735 0,14.589844 11.837891,26.427734 26.427735,26.427734 14.589844,0 26.427734,-11.83789 26.427734,-26.427734 C 84.566406,38 72.728516,26.162109 58.138672,26.162109 Z m 0,1 c 14.049404,0 25.427734,11.37833 25.427734,25.427735 0,14.049404 -11.37833,25.427734 -25.427734,25.427734 -14.049405,0 -25.427735,-11.37833 -25.427735,-25.427734 0,-14.049405 11.37833,-25.427735 25.427735,-25.427735 z"
       id="circle130" />
    <path
       style="color:#000000;fill:#ffffff;stroke:none;-inkscape-stroke:none"
       d="m 60.298828,26.162109 c -14.589844,0 -26.429687,11.837891 -26.429687,26.427735 0,14.589844 11.839843,26.427734 26.429687,26.427734 14.589844,0 26.427734,-11.83789 26.427734,-26.427734 C 86.726562,38 74.888672,26.162109 60.298828,26.162109 Z m 0,1 c 14.049405,0 25.427734,11.37833 25.427734,25.427735 0,14.049404 -11.378329,25.427734 -25.427734,25.427734 -14.049404,0 -25.429687,-11.37833 -25.429687,-25.427734 0,-14.049405 11.380283,-25.427735 25.429687,-25.427735 z"
       id="circle132" />
    <path
       style="color:#000000;fill:#ffffff;stroke:none;-inkscape-stroke:none"
       d="m 59.21875,26.162109 c -14.589844,0 -26.429688,11.837891 -26.429688,26.427735 0,14.589844 11.839844,26.427734 26.429688,26.427734 14.589844,0 26.427734,-11.83789 26.427734,-26.427734 C 85.646484,38 73.808594,26.162109 59.21875,26.162109 Z m 0,1 c 14.049405,0 25.427734,11.37833 25.427734,25.427735 0,14.049404 -11.378329,25.427734 -25.427734,25.427734 -14.049405,0 -25.429688,-11.37833 -25.429688,-25.427734 0,-14.049405 11.380283,-25.427735 25.429688,-25.427735 z"
       id="circle134" />
    <path
       style="color:#000000;fill:#ffffff;stroke:none;-inkscape-stroke:none"
       d="m 59.974609,26.140625 c -2.732154,-0.04595 -5.485177,0.367036 -7.550781,0.984375 -1.032802,0.30867 -1.89176,0.66383 -2.513672,1.070312 -0.310956,0.203242 -0.565295,0.418725 -0.75,0.681641 -0.184704,0.262916 -0.295334,0.60906 -0.216797,0.947266 l -0.0078,-0.04297 1.527344,11.029297 0.002,0.0078 c 0.199028,1.153941 -0.540492,2.247158 -1.685547,2.492188 l -0.132813,0.0293 c -0.239778,0.05142 -0.487236,0.0603 -0.730468,0.0293 l -11.238282,-1.59961 0.04297,0.0078 c -0.320961,-0.07459 -0.649449,0.01679 -0.908203,0.179687 -0.258754,0.162895 -0.475245,0.393642 -0.681641,0.673828 -0.412792,0.560374 -0.782103,1.335644 -1.111328,2.275391 -0.658449,1.879493 -1.140128,4.409738 -1.183594,6.994141 -0.04595,2.732185 0.366912,5.485192 0.984375,7.550781 0.308732,1.032794 0.663902,1.891788 1.070313,2.513672 0.203206,0.310942 0.418811,0.565287 0.681641,0.75 0.262829,0.184713 0.609077,0.295385 0.947265,0.216797 l -0.04492,0.0078 11.029297,-1.527344 0.0078,-0.002 c 1.15394,-0.199028 2.249111,0.540492 2.49414,1.685547 l 0.02734,0.132813 c 0.05181,0.240446 0.06113,0.489796 0.0293,0.736328 l 0.002,-0.0059 -1.599609,11.238282 0.0078,-0.04297 c -0.07459,0.320961 0.01679,0.649449 0.179688,0.908203 0.162895,0.258754 0.391688,0.475245 0.671875,0.681641 0.560373,0.412792 1.337597,0.782103 2.277343,1.111328 1.879494,0.658449 4.407786,1.140128 6.992188,1.183593 2.732154,0.04595 5.485178,-0.367035 7.550781,-0.984375 1.032802,-0.308669 1.89176,-0.66383 2.513672,-1.070312 0.310956,-0.203241 0.567249,-0.416772 0.751953,-0.679688 0.184705,-0.262915 0.293381,-0.611013 0.214844,-0.949218 l 0.0078,0.04492 -1.527343,-11.029297 v -0.0078 c -0.198929,-1.153364 0.539514,-2.248386 1.683593,-2.49414 l 0.132813,-0.02734 h 0.002 c 0.240446,-0.05181 0.487844,-0.06113 0.734375,-0.0293 l -0.0059,-0.002 11.238281,1.599609 -0.04297,-0.0078 c 0.320962,0.07459 0.649449,-0.01679 0.908203,-0.179688 0.258754,-0.162895 0.475245,-0.391688 0.681641,-0.671875 0.412792,-0.560373 0.782103,-1.337597 1.111328,-2.277344 0.658449,-1.879493 1.142082,-4.407785 1.185547,-6.992187 C 85.780328,50.549096 85.367339,47.796072 84.75,45.730469 84.44133,44.697667 84.08617,43.838709 83.679687,43.216797 83.476446,42.905841 83.260963,42.649548 82.998047,42.464844 82.735131,42.280139 82.388987,42.171463 82.050781,42.25 l 0.04297,-0.0078 -11.029297,1.527344 h -0.0078 C 69.90329,43.968473 68.810221,43.230029 68.564466,42.08595 v -0.002 l -0.0293,-0.130859 c -0.05142,-0.239778 -0.0603,-0.487237 -0.0293,-0.730469 v -0.002 c 1.67e-4,-0.0013 -1.69e-4,-0.0026 0,-0.0039 l 1.59961,-11.232422 -0.0078,0.04297 c 0.07459,-0.320962 -0.01679,-0.649449 -0.179687,-0.908203 C 69.755074,28.860387 69.524327,28.643896 69.244141,28.4375 68.683767,28.024708 67.908497,27.655397 66.96875,27.326172 65.089257,26.667723 62.559012,26.18409 59.974609,26.140625 Z m -0.01563,1 c 2.469593,0.04153 4.919982,0.513107 6.677735,1.128906 0.878876,0.3079 1.58539,0.657168 2.013672,0.972656 0.214141,0.157745 0.355453,0.307751 0.419921,0.410157 0.06447,0.102406 0.05739,0.128399 0.05273,0.148437 l -0.0059,0.02148 -1.603515,11.261718 v 0.0039 c -0.04663,0.358023 -0.03078,0.721197 0.04492,1.074218 l 0.02734,0.13086 c 0.355156,1.659689 1.968057,2.75137 3.640625,2.46289 l 11.027344,-1.527343 0.02148,-0.0039 c 0.02029,-0.0047 0.04278,-0.01563 0.148437,0.05859 0.105654,0.07422 0.259054,0.237332 0.417969,0.480469 0.317829,0.486274 0.658139,1.27996 0.949219,2.253906 0.582159,1.947892 0.987406,4.627254 0.943359,7.246094 -0.04153,2.469592 -0.513107,4.921934 -1.128906,6.679687 -0.3079,0.878877 -0.657168,1.58539 -0.972657,2.013672 -0.157744,0.214141 -0.30775,0.355454 -0.410156,0.419922 -0.102406,0.06447 -0.128399,0.05739 -0.148437,0.05273 l -0.02148,-0.0059 -0.02148,-0.002 -11.240234,-1.601563 h -0.0039 c -0.357467,-0.04616 -0.720665,-0.03322 -1.074218,0.04297 l -0.13086,0.0293 c -1.65902,0.355013 -2.750142,1.966826 -2.46289,3.638672 1.15e-4,6.74e-4 -1.17e-4,0.0013 0,0.002 l 1.527343,11.027344 0.0039,0.02148 c 0.0047,0.02029 0.01563,0.04083 -0.05859,0.146485 -0.07422,0.105654 -0.237332,0.261007 -0.480469,0.419921 -0.486274,0.31783 -1.27996,0.65814 -2.253906,0.949219 -1.947892,0.58216 -4.627254,0.987407 -7.246094,0.94336 -2.469592,-0.04153 -4.921934,-0.513107 -6.679687,-1.128907 -0.878877,-0.307899 -1.58539,-0.657167 -2.013672,-0.972656 -0.214141,-0.157744 -0.355454,-0.30775 -0.419922,-0.410156 -0.06447,-0.102406 -0.05739,-0.128399 -0.05273,-0.148438 l 0.0059,-0.02148 1.603515,-11.263672 v -0.002 c 0.04616,-0.357468 0.03322,-0.720666 -0.04297,-1.074219 l -0.0293,-0.130859 v -0.002 c -0.355156,-1.65969 -1.968057,-2.749418 -3.640625,-2.460938 l 0.01758,-0.0039 -11.044922,1.529297 -0.02148,0.0059 c -0.02006,0.0047 -0.04088,0.01367 -0.146485,-0.06055 -0.105603,-0.07422 -0.261018,-0.235364 -0.419922,-0.478515 -0.317806,-0.486303 -0.656123,-1.279953 -0.947265,-2.253907 -0.582285,-1.947907 -0.989359,-4.629237 -0.945313,-7.248046 0.04153,-2.469593 0.513107,-4.919982 1.128907,-6.677735 0.307899,-0.878876 0.657167,-1.58539 0.972656,-2.013672 0.157744,-0.214141 0.30775,-0.355453 0.410156,-0.419922 0.102406,-0.06447 0.128399,-0.05739 0.148438,-0.05273 l 0.02148,0.0059 11.263672,1.603516 h 0.002 c 0.358023,0.04663 0.721197,0.03078 1.074219,-0.04492 l 0.130859,-0.02734 h 0.002 c 1.65969,-0.355155 2.749418,-1.968056 2.460938,-3.640625 l 0.0039,0.01563 -1.529297,-11.042968 -0.0059,-0.02148 c -0.0047,-0.02029 -0.01368,-0.04278 0.06055,-0.148437 0.07422,-0.105654 0.235378,-0.259054 0.478515,-0.417969 0.486275,-0.317829 1.27996,-0.658139 2.253906,-0.949219 1.947893,-0.582159 4.629207,-0.987406 7.248047,-0.943359 z"
       id="path136" />
    <path
       style="color:#000000;fill:#ffffff;stroke:none;-inkscape-stroke:none"
       d="m 56.296875,27.847656 -1.119141,0.185547 h -0.0059 c -1.367396,0.263255 -2.429748,1.326555 -3.105469,2.591797 -0.675721,1.265242 -0.990271,2.761159 -0.765625,4.074219 l 1.03125,6.037109 c 0.09206,0.533891 0.07043,1.08026 -0.0625,1.605469 h 0.002 L 51.99024,43.4375 c -0.438317,1.709297 -1.97368,2.899843 -3.738281,2.900391 -0.289209,0 -0.58073,-0.03354 -0.865234,-0.0957 h -0.0039 L 41.183594,44.8125 c -1.366744,-0.316095 -2.938994,-0.03298 -4.263672,0.650391 -1.324678,0.68337 -2.433052,1.796354 -2.685547,3.232421 l -0.002,0.0098 -0.330078,2.439453 v 0.002 c -0.130564,1.006384 -0.122411,2.026968 0.02344,3.03125 l 0.345703,2.38086 0.002,0.0039 c 0.240097,1.447587 1.347493,2.573843 2.675782,3.267578 1.328288,0.693735 2.907636,0.985976 4.283203,0.669922 l 6.15625,-1.421875 c 0.597164,-0.138961 1.220346,-0.131889 1.814453,0.01953 1.367748,0.350634 2.43582,1.416127 2.789062,2.783203 l 0.28125,1.095703 -0.002,-0.002 c 0.132932,0.525209 0.154562,1.071578 0.0625,1.605469 v 0.002 l -1.03125,6.035156 c -0.224074,1.312996 0.09015,2.809517 0.765625,4.076172 0.675478,1.266655 1.737653,2.332368 3.105469,2.595703 l 0.0078,0.002 1.193359,0.189453 c 1.453915,0.24097 2.93671,0.24097 4.390625,0 l 1.189453,-0.191407 0.0078,-0.002 c 1.370302,-0.263723 2.432506,-1.327021 3.107421,-2.59375 0.674916,-1.266729 0.988259,-2.763463 0.763672,-4.076172 l -1.03125,-6.035156 v -0.002 c -0.08952,-0.533958 -0.06578,-1.080923 0.06836,-1.605469 l 0.28125,-1.095703 c 0.348486,-1.36693 1.412366,-2.432764 2.779297,-2.78125 h 0.002 c 0.595661,-0.15319 1.219557,-0.159946 1.818359,-0.01953 l 6.152344,1.419922 c 1.377626,0.315882 2.958821,0.02381 4.287109,-0.669922 1.328289,-0.693735 2.434841,-1.818776 2.677735,-3.265625 v -0.0059 l 0.195312,-1.332032 c 0.250706,-1.699372 0.259458,-3.424948 0.02734,-5.126953 l -0.183594,-1.392578 -0.002,-0.0098 C 82.653673,47.259363 81.542633,46.146297 80.216797,45.462891 78.890961,44.779484 77.318052,44.496374 75.951172,44.8125 l -6.195313,1.429687 c -0.601431,0.135763 -1.226557,0.128065 -1.824218,-0.02344 -0.669836,-0.168917 -1.281551,-0.516942 -1.769532,-1.005859 l -0.002,-0.002 C 65.682481,44.728187 65.327849,44.121236 65.150391,43.4375 v -0.002 l -0.279297,-1.095703 c -0.135033,-0.524543 -0.159043,-1.07147 -0.06836,-1.605469 l 1.03125,-6.035156 C 66.057988,33.386634 65.7453,31.890383 65.070312,30.625 64.395325,29.359617 63.332518,28.296322 61.962891,28.033203 h -0.0059 L 60.84375,27.847656 c -1.505213,-0.246787 -3.041662,-0.246787 -4.546875,0 z m 0.162109,0.986328 c 1.39807,-0.229221 2.824587,-0.229221 4.222657,0 l 1.09375,0.181641 c 0.96237,0.184881 1.834348,0.996963 2.412109,2.080078 0.577761,1.083115 0.835152,2.410134 0.660156,3.435547 l -1.03125,6.035156 c -0.114216,0.672574 -0.08414,1.362775 0.08594,2.023438 l 0.28125,1.095703 c 0.222454,0.858672 0.666602,1.623928 1.267578,2.230469 0.615701,0.617759 1.388759,1.057917 2.234375,1.271484 0.750288,0.190191 1.535994,0.19973 2.291015,0.0293 l 6.199219,-1.429688 c 1.063118,-0.245873 2.44887,-0.01769 3.582031,0.566407 1.133162,0.584092 1.982688,1.493624 2.16211,2.513671 l 0.18164,1.363282 c 0.219649,1.609305 0.211664,3.240822 -0.02539,4.847656 v 0.002 l -0.19336,1.316406 c -0.173106,1.031149 -1.019337,1.952159 -2.154296,2.544922 -1.134336,0.592438 -2.526479,0.827486 -3.59961,0.582031 h -0.002 l -6.146484,-1.419921 h -0.002 c -0.755383,-0.176805 -1.543554,-0.167844 -2.294922,0.02539 -1.719011,0.438907 -3.063645,1.782695 -3.501953,3.501953 h 0.002 l -0.28125,1.095703 c -0.168855,0.660312 -0.198968,1.349363 -0.08594,2.021485 l 1.03125,6.037109 c 0.175413,1.025289 -0.08037,2.352982 -0.658203,3.4375 -0.577005,1.082964 -1.449097,1.895221 -2.410156,2.082031 l -1.175781,0.189454 h -0.002 c -1.345653,0.223027 -2.718799,0.223027 -4.064453,0 l -1.173828,-0.1875 c -0.959181,-0.184664 -1.833588,-0.999142 -2.412109,-2.083985 -0.578521,-1.084843 -0.837035,-2.412498 -0.66211,-3.4375 L 53.320312,64.75 c 0.11586,-0.6719 0.08917,-1.360511 -0.07813,-2.021484 l -0.28125,-1.097657 C 52.51698,59.912729 51.172094,58.56958 49.45312,58.128906 h -0.002 c -0.749363,-0.191403 -1.533762,-0.198417 -2.28711,-0.02344 h -0.002 l -6.154297,1.419922 c -1.070195,0.245281 -2.461368,0.01041 -3.595703,-0.582032 -1.134341,-0.59244 -1.980797,-1.513238 -2.152343,-2.542968 -9.4e-5,-5.62e-4 9.3e-5,-0.0014 0,-0.002 l -0.345704,-2.365234 c -0.132738,-0.914012 -0.138359,-1.841888 -0.01953,-2.757812 l -0.002,0.002 0.328125,-2.414063 c 0.181086,-1.01923 1.027934,-1.928639 2.158203,-2.511719 1.131819,-0.583878 2.516824,-0.810357 3.580078,-0.564453 l 6.207032,1.431641 h 0.002 c 0.352296,0.07731 0.716484,0.119141 1.083984,0.119141 2.216075,-6.88e-4 4.156571,-1.505723 4.707031,-3.652344 l 0.28125,-1.097656 c 0.167294,-0.660974 0.193985,-1.349584 0.07813,-2.021485 l -1.03125,-6.035156 c -0.175352,-1.024938 0.08358,-2.350338 0.66211,-3.433594 0.578528,-1.083255 1.452508,-1.897286 2.412109,-2.082031 z"
       id="path138" />
    <path
       style="color:#000000;fill:#ffffff;stroke:none;-inkscape-stroke:none"
       d="m 57.376953,27.847656 -1.119141,0.185547 h -0.0059 c -1.367396,0.263255 -2.429748,1.326555 -3.105469,2.591797 -0.67572,1.265242 -0.990271,2.761159 -0.765625,4.074219 l 1.03125,6.037109 c 0.09206,0.533891 0.07043,1.08026 -0.0625,1.605469 h 0.002 l -0.28125,1.095703 c -0.438317,1.709297 -1.97368,2.899843 -3.738281,2.900391 -0.289209,0 -0.58073,-0.03354 -0.865234,-0.0957 h -0.0039 L 42.263672,44.8125 C 40.896928,44.496405 39.324678,44.779521 38,45.462891 c -1.324678,0.68337 -2.433051,1.796354 -2.685547,3.232421 l -0.002,0.0098 -0.330078,2.439453 v 0.002 c -0.130564,1.006384 -0.122411,2.026968 0.02344,3.03125 l 0.345703,2.38086 0.002,0.0039 c 0.240096,1.447587 1.347493,2.573843 2.675781,3.267578 1.328288,0.693735 2.907637,0.985976 4.283203,0.669922 l 6.15625,-1.421875 c 0.597164,-0.138961 1.220346,-0.131889 1.814453,0.01953 1.367748,0.350634 2.43582,1.416127 2.789063,2.783203 l 0.28125,1.095703 -0.002,-0.002 c 0.132932,0.525209 0.154563,1.071578 0.0625,1.605469 v 0.002 l -1.03125,6.035156 c -0.224074,1.312996 0.09015,2.809517 0.765625,4.076172 0.675478,1.266655 1.737653,2.332368 3.105469,2.595703 l 0.0078,0.002 1.193359,0.189453 c 1.453915,0.24097 2.93671,0.24097 4.390625,0 l 1.189453,-0.191407 0.0078,-0.002 c 1.370302,-0.263723 2.432506,-1.327021 3.107422,-2.59375 0.674915,-1.266729 0.988258,-2.763463 0.763671,-4.076172 l -1.03125,-6.035156 v -0.002 c -0.08952,-0.533958 -0.06578,-1.080923 0.06836,-1.605469 l 0.279297,-1.095703 h 0.002 c 0.348486,-1.36693 1.412366,-2.432764 2.779297,-2.78125 h 0.002 c 0.595661,-0.15319 1.219558,-0.159946 1.818359,-0.01953 l 6.152344,1.419922 c 1.377626,0.315882 2.958821,0.02381 4.287109,-0.669922 1.328289,-0.693735 2.434842,-1.818776 2.677735,-3.265625 v -0.0059 l 0.195312,-1.332032 c 0.250706,-1.699372 0.259458,-3.424948 0.02734,-5.126953 l -0.185547,-1.392578 v -0.0098 C 83.733751,47.259363 82.622711,46.146297 81.296875,45.462891 79.971039,44.779484 78.39813,44.496374 77.03125,44.8125 l -6.195313,1.429687 C 70.234506,46.37795 69.60938,46.370252 69.011719,46.21875 68.341007,46.049612 67.72853,45.700866 67.240234,45.210937 66.762215,44.728076 66.408011,44.121558 66.230469,43.4375 v -0.002 l -0.279297,-1.095703 c -0.135033,-0.524543 -0.159043,-1.07147 -0.06836,-1.605469 l 1.03125,-6.035156 C 67.138066,33.386634 66.825378,31.890383 66.150391,30.625 65.475403,29.359617 64.412596,28.296322 63.042969,28.033203 h -0.0059 l -1.113281,-0.185547 c -1.505213,-0.246787 -3.041662,-0.246787 -4.546875,0 z m 0.162109,0.986328 c 1.39807,-0.229221 2.824587,-0.229221 4.222657,0 l 1.09375,0.181641 c 0.96237,0.184881 1.834348,0.996963 2.412109,2.080078 0.577761,1.083115 0.835152,2.410134 0.660156,3.435547 l -1.03125,6.035156 c -0.114216,0.672574 -0.08414,1.362775 0.08594,2.023438 l 0.28125,1.095703 c 0.222454,0.858672 0.666602,1.623928 1.267578,2.230469 0.615701,0.617759 1.388759,1.057917 2.234375,1.271484 0.750288,0.190191 1.535994,0.19973 2.291016,0.0293 l 6.199218,-1.429688 c 1.063118,-0.245873 2.44887,-0.01769 3.582032,0.566407 1.133161,0.584092 1.982687,1.493624 2.162109,2.513671 l 0.181641,1.363282 c 0.219648,1.609305 0.211663,3.240822 -0.02539,4.847656 v 0.002 l -0.193359,1.316406 c -0.173107,1.031149 -1.019338,1.952159 -2.154297,2.544922 -1.134336,0.592438 -2.526479,0.827486 -3.59961,0.582031 h -0.002 l -6.146484,-1.419921 h -0.002 c -0.755383,-0.176805 -1.543554,-0.167844 -2.294922,0.02539 -1.719011,0.438907 -3.063645,1.782695 -3.501953,3.501953 l -0.279297,1.095703 c -0.168855,0.660312 -0.198968,1.349363 -0.08594,2.021485 l 1.03125,6.037109 c 0.175413,1.025289 -0.08037,2.352982 -0.658203,3.4375 -0.577005,1.082964 -1.449097,1.895221 -2.410156,2.082031 l -1.175781,0.189454 h -0.002 c -1.345654,0.223027 -2.7188,0.223027 -4.064454,0 h -0.002 l -1.171875,-0.1875 c -0.959181,-0.184664 -1.833588,-0.999142 -2.412109,-2.083985 -0.578521,-1.084843 -0.837035,-2.412498 -0.662109,-3.4375 L 54.400391,64.75 c 0.115859,-0.6719 0.08917,-1.360511 -0.07813,-2.021484 l -0.28125,-1.097657 c -0.443953,-1.71813 -1.790792,-3.061279 -3.509766,-3.501953 -0.749363,-0.191403 -1.533762,-0.198417 -2.287109,-0.02344 h -0.002 l -6.154296,1.419922 c -1.070196,0.245281 -2.461368,0.01041 -3.595704,-0.582032 -1.134959,-0.592763 -1.98144,-1.514511 -2.152343,-2.544922 v 0.0098 l -0.345703,-2.375 c -0.132739,-0.914012 -0.13836,-1.841888 -0.01953,-2.757812 l -0.002,0.002 0.328125,-2.414063 c 0.181086,-1.01923 1.027934,-1.928639 2.158203,-2.511719 1.13182,-0.583878 2.516824,-0.810357 3.580078,-0.564453 l 6.207032,1.431641 h 0.002 c 0.352297,0.07731 0.716484,0.119141 1.083984,0.119141 2.216075,-6.88e-4 4.156571,-1.505723 4.707031,-3.652344 l 0.28125,-1.097656 c 0.167294,-0.660974 0.193985,-1.349584 0.07813,-2.021485 l -1.03125,-6.035156 c -0.175352,-1.024938 0.08358,-2.350338 0.66211,-3.433594 0.578528,-1.083255 1.452508,-1.897286 2.412109,-2.082031 z"
       id="path140" />
    <path
       style="color:#000000;fill:#ffffff;stroke:none;-inkscape-stroke:none"
       d="m 56.835937,27.847656 -1.117187,0.185547 h -0.0078 c -1.367396,0.263255 -2.429747,1.326555 -3.105468,2.591797 -0.675721,1.265242 -0.988319,2.761159 -0.763672,4.074219 l 1.03125,6.037109 c 0.09206,0.533891 0.07043,1.08026 -0.0625,1.605469 L 52.52931,43.4375 c -0.438155,1.708666 -1.972548,2.898964 -3.736328,2.900391 -0.288569,0 -0.581327,-0.03381 -0.865235,-0.0957 L 41.724609,44.8125 h -0.002 c -1.366308,-0.315406 -2.937642,-0.03267 -4.261719,0.650391 -1.324678,0.68337 -2.433051,1.796354 -2.685546,3.232421 l -0.002,0.0098 -0.332031,2.439453 v 0.002 c -0.130564,1.006384 -0.122411,2.026968 0.02344,3.03125 l 0.347656,2.38086 v 0.0039 c 0.240096,1.447587 1.347493,2.573843 2.675781,3.267578 1.328289,0.693735 2.90959,0.985976 4.285156,0.669922 l 6.15625,-1.421875 c 0.597807,-0.139111 1.219767,-0.132364 1.814454,0.01953 1.367748,0.350634 2.433866,1.416127 2.787109,2.783203 l 0.28125,1.095703 c 0.132499,0.524625 0.15445,1.070273 0.0625,1.603516 v 0.002 l -1.03125,6.035156 c -0.224074,1.312996 0.09015,2.809517 0.765625,4.076172 0.675477,1.266655 1.735699,2.332368 3.103516,2.595703 l 0.0078,0.002 1.193359,0.189453 c 1.453916,0.24097 2.938663,0.24097 4.392579,0 l 1.189453,-0.191407 0.0078,-0.002 c 1.370303,-0.263723 2.432507,-1.327021 3.107422,-2.59375 0.674916,-1.266729 0.986306,-2.763463 0.761719,-4.076172 L 65.34375,64.582031 v -0.002 c -0.08952,-0.533958 -0.06773,-1.080923 0.06641,-1.605469 l 0.28125,-1.095703 c 0.348486,-1.36693 1.41432,-2.432764 2.78125,-2.78125 0.595662,-0.15319 1.219558,-0.159946 1.81836,-0.01953 h 0.002 l 6.15039,1.419922 c 1.377627,0.315882 2.958821,0.02381 4.28711,-0.669922 1.328288,-0.693735 2.434841,-1.818776 2.677734,-3.265625 l 0.002,-0.0059 0.195313,-1.332032 c 0.250705,-1.699372 0.259457,-3.424948 0.02734,-5.126953 l -0.185546,-1.392578 -0.002,-0.0098 c -0.252626,-1.435828 -1.363665,-2.548894 -2.689502,-3.2323 -1.325836,-0.683407 -2.896791,-0.966517 -4.263672,-0.650391 l -6.195312,1.429687 c -0.601432,0.135763 -1.226558,0.128065 -1.824219,-0.02344 h -0.002 C 67.800821,46.04983 67.189105,45.701805 66.701125,45.212888 l -0.002,-0.002 c -0.477581,-0.4827 -0.83026,-1.089653 -1.007719,-1.773388 v -0.002 l -0.28125,-1.095703 c -0.135032,-0.524543 -0.15709,-1.07147 -0.06641,-1.605469 l 1.029297,-6.035156 C 66.597051,33.386634 66.284363,31.890383 65.609375,30.625 64.934387,29.359617 63.873533,28.296322 62.503906,28.033203 h -0.0059 l -1.115235,-0.185547 c -1.505212,-0.246787 -3.039709,-0.246787 -4.544921,0 z m 0.16211,0.986328 c 1.398069,-0.229221 2.824587,-0.229221 4.222656,0 l 1.09375,0.181641 c 0.962371,0.184881 1.836301,0.996963 2.414063,2.080078 0.577761,1.083115 0.835152,2.410134 0.660156,3.435547 l -1.03125,6.035156 c -0.114216,0.672574 -0.08609,1.362775 0.08398,2.023438 l 0.28125,1.095703 c 0.222454,0.858672 0.666602,1.623928 1.267578,2.230469 h 0.002 c 0.616108,0.618167 1.388104,1.058074 2.234375,1.271484 0.750288,0.190191 1.534042,0.19973 2.289063,0.0293 h 0.002 l 6.199219,-1.429688 c 1.063117,-0.245873 2.44887,-0.01769 3.582031,0.566407 1.131609,0.583291 1.979148,1.491414 2.160156,2.509765 l 0.181641,1.367188 c 0.219648,1.609305 0.211663,3.240822 -0.02539,4.847656 v 0.002 l -0.191406,1.316406 c -0.173106,1.031149 -1.021291,1.952159 -2.15625,2.544922 -1.134959,0.592764 -2.526238,0.828149 -3.599609,0.582031 l -6.148438,-1.419921 h -0.002 c -0.755382,-0.176804 -1.541601,-0.167844 -2.292969,0.02539 -1.719826,0.438454 -3.063499,1.782127 -3.501953,3.501953 l -0.28125,1.095703 c -0.168854,0.660312 -0.197015,1.349363 -0.08398,2.021485 l 1.03125,6.037109 c 0.175413,1.025289 -0.08232,2.352982 -0.660156,3.4375 -0.577006,1.082966 -1.449096,1.895223 -2.410157,2.082031 l -1.175781,0.189454 c -1.345653,0.223027 -2.7188,0.223027 -4.064453,0 h -0.002 l -1.173828,-0.1875 c -0.959182,-0.184664 -1.833588,-0.999142 -2.41211,-2.083985 -0.578521,-1.084843 -0.837034,-2.412498 -0.662109,-3.4375 L 53.859375,64.75 c 0.11586,-0.6719 0.08917,-1.360511 -0.07813,-2.021484 L 53.5,61.630859 c -0.443952,-1.71813 -1.788839,-3.061279 -3.507813,-3.501953 -0.750002,-0.191566 -1.535124,-0.19888 -2.289062,-0.02344 l -6.154297,1.419922 c -1.070431,0.245945 -2.462697,0.01073 -3.597656,-0.582032 -1.134341,-0.59244 -1.980798,-1.513238 -2.152344,-2.542968 -9.3e-5,-5.62e-4 9.3e-5,-0.0014 0,-0.002 l -0.34375,-2.365234 c -0.132739,-0.914012 -0.140312,-1.841888 -0.02148,-2.757812 l 0.326172,-2.408204 c 0.179504,-1.02093 1.028337,-1.931746 2.160156,-2.515625 1.131819,-0.583878 2.514871,-0.810357 3.578125,-0.564453 l 6.207031,1.431641 h 0.002 c 0.352297,0.07731 0.718438,0.119141 1.085938,0.119141 2.216075,-6.88e-4 4.154617,-1.505723 4.705078,-3.652344 l 0.28125,-1.097656 c 0.167294,-0.660974 0.193985,-1.349584 0.07813,-2.021485 l -1.03125,-6.035156 c -0.175353,-1.024938 0.08358,-2.350338 0.662109,-3.433594 0.578528,-1.083255 1.452508,-1.897286 2.41211,-2.082031 z"
       id="path142" />
    <path
       style="color:#000000;fill:#ffffff;stroke:none;-inkscape-stroke:none"
       d="m 78.501953,50.740234 c -0.913078,0 -1.664062,0.750984 -1.664062,1.664063 0,0.913078 0.750984,1.664062 1.664062,1.664062 0.913079,0 1.664063,-0.750984 1.664063,-1.664062 0,-0.913079 -0.750984,-1.664063 -1.664063,-1.664063 z m 0,1 c 0.372639,0 0.664063,0.291424 0.664063,0.664063 0,0.372639 -0.291424,0.664062 -0.664063,0.664062 -0.372639,0 -0.664062,-0.291423 -0.664062,-0.664062 0,-0.372639 0.291423,-0.664063 0.664062,-0.664063 z"
       id="circle144" />
    <path
       style="color:#000000;fill:#ffffff;stroke:none;-inkscape-stroke:none"
       d="m 78.501953,50.548828 c -1.01767,0 -1.853516,0.837162 -1.853516,1.855469 0,1.018306 0.836293,1.853516 1.853516,1.853515 1.017223,0 1.853516,-0.835209 1.853516,-1.853515 0,-1.018307 -0.835846,-1.855469 -1.853516,-1.855469 z m 0,1.423828 c 0.127121,0 0.248209,0.04473 0.328125,0.113281 0.07482,0.06418 0.122979,0.154755 0.136719,0.31836 -0.01407,0.162004 -0.06226,0.25449 -0.136719,0.318359 -0.07992,0.06855 -0.201004,0.111328 -0.328125,0.111328 -0.127121,0 -0.248208,-0.04278 -0.328125,-0.111328 -0.07446,-0.06387 -0.122645,-0.156355 -0.136719,-0.318359 0.01374,-0.163605 0.0619,-0.25418 0.136719,-0.31836 0.07992,-0.06855 0.201004,-0.113281 0.328125,-0.113281 z"
       id="path146" />
    <g
       id="g152"
       style="fill:#ffffff">
      <path
         style="color:#000000;fill:#ffffff;stroke:none;-inkscape-stroke:none"
         d="m 59.285156,31.572266 c -0.913078,0 -1.664062,0.750984 -1.664062,1.664062 0,0.913079 0.750984,1.664063 1.664062,1.664063 0.913079,0 1.664063,-0.750984 1.664063,-1.664063 0,-0.913078 -0.750984,-1.664062 -1.664063,-1.664062 z m 0,1 c 0.372639,0 0.664063,0.291423 0.664063,0.664062 0,0.372639 -0.291424,0.664063 -0.664063,0.664063 -0.372639,0 -0.664062,-0.291424 -0.664062,-0.664063 0,-0.372639 0.291423,-0.664062 0.664062,-0.664062 z"
         id="circle148" />
      <path
         style="color:#000000;fill:#ffffff;stroke:none;-inkscape-stroke:none"
         d="m 59.285156,31.445312 c -0.437761,0 -0.882073,0.141586 -1.234375,0.44336 -0.352301,0.301773 -0.595037,0.770705 -0.621094,1.324219 v 0.01953 0.01758 c 0.0153,0.563174 0.255093,1.045227 0.609375,1.353516 0.354283,0.308288 0.803366,0.451171 1.246094,0.451171 0.442728,0 0.891811,-0.142883 1.246094,-0.451171 0.354283,-0.308289 0.592118,-0.790342 0.607422,-1.353516 v -0.01758 -0.01953 c -0.02606,-0.553514 -0.268792,-1.022446 -0.621094,-1.324219 -0.352302,-0.301774 -0.794661,-0.44336 -1.232422,-0.44336 z m 0,1.347657 c 0.128704,0 0.250197,0.04404 0.330078,0.113281 0.0758,0.06571 0.12599,0.158772 0.136719,0.330078 -0.01035,0.173008 -0.06055,0.264054 -0.136719,0.330078 -0.07988,0.06925 -0.201374,0.115235 -0.330078,0.115235 -0.128704,0 -0.252149,-0.04599 -0.332031,-0.115235 -0.07632,-0.06616 -0.126537,-0.156352 -0.136719,-0.330078 0.01057,-0.172005 0.06077,-0.26424 0.136719,-0.330078 0.07988,-0.06925 0.203327,-0.113281 0.332031,-0.113281 z"
         id="path150" />
    </g>
    <g
       id="g158"
       style="fill:#ffffff">
      <path
         style="color:#000000;fill:#ffffff;stroke:none;-inkscape-stroke:none"
         d="m 59.285156,69.974609 c -0.913078,0 -1.664062,0.750984 -1.664062,1.664063 0,0.913078 0.750984,1.664062 1.664062,1.664062 0.913079,0 1.664063,-0.750984 1.664063,-1.664062 0,-0.913079 -0.750984,-1.664063 -1.664063,-1.664063 z m 0,1 c 0.372639,0 0.664063,0.291424 0.664063,0.664063 0,0.372639 -0.291424,0.664062 -0.664063,0.664062 -0.372639,0 -0.664062,-0.291423 -0.664062,-0.664062 0,-0.372639 0.291423,-0.664063 0.664062,-0.664063 z"
         id="circle154" />
      <path
         style="color:#000000;fill:#ffffff;stroke:none;-inkscape-stroke:none"
         d="m 59.285156,69.845703 c -0.437761,0 -0.882073,0.141586 -1.234375,0.443359 -0.352301,0.301774 -0.595037,0.772659 -0.621094,1.326172 v 0.01172 0.01172 c 0.0015,1.017067 0.83645,1.851268 1.853516,1.853515 1.018307,0 1.855469,-0.835209 1.855469,-1.853515 v -0.01172 -0.01172 c -0.02606,-0.553513 -0.268792,-1.024398 -0.621094,-1.326172 -0.352302,-0.301773 -0.794661,-0.443359 -1.232422,-0.443359 z m 0,1.347656 c 0.128704,0 0.250197,0.04599 0.330078,0.115235 0.07617,0.06602 0.126374,0.15707 0.136719,0.330078 -0.01073,0.171306 -0.06092,0.26437 -0.136719,0.330078 -0.07988,0.06924 -0.201374,0.113281 -0.330078,0.113281 -0.128704,0 -0.252149,-0.04404 -0.332031,-0.113281 -0.07595,-0.06584 -0.126148,-0.158073 -0.136719,-0.330078 0.01018,-0.173726 0.0604,-0.263922 0.136719,-0.330078 0.07988,-0.06924 0.203327,-0.115235 0.332031,-0.115235 z"
         id="path156" />
    </g>
    <g
       id="g164"
       style="fill:#ffffff">
      <path
         style="color:#000000;fill:#ffffff;stroke:none;-inkscape-stroke:none"
         d="m 40.117187,50.740234 c -0.913078,0 -1.664062,0.750984 -1.664062,1.664063 0,0.913078 0.750984,1.664062 1.664062,1.664062 0.913079,0 1.664063,-0.750984 1.664063,-1.664062 0,-0.913079 -0.750984,-1.664063 -1.664063,-1.664063 z m 0,1 c 0.37264,0 0.664063,0.291424 0.664063,0.664063 0,0.372639 -0.291423,0.664062 -0.664063,0.664062 -0.372639,0 -0.664062,-0.291423 -0.664062,-0.664062 0,-0.372639 0.291423,-0.664063 0.664062,-0.664063 z"
         id="circle160" />
      <path
         style="color:#000000;fill:#ffffff;stroke:none;-inkscape-stroke:none"
         d="m 40.117187,50.548828 c -1.01767,0 -1.853515,0.837162 -1.853515,1.855469 0,1.018012 0.835503,1.853516 1.853515,1.853515 h 0.01172 0.01172 c 0.553514,-0.02606 1.024398,-0.268792 1.326172,-0.621093 0.301773,-0.352302 0.443359,-0.794661 0.443359,-1.232422 0,-0.437761 -0.141586,-0.882073 -0.443359,-1.234375 -0.301774,-0.352302 -0.772658,-0.595037 -1.326172,-0.621094 h -0.01172 z m 0,1.423828 c 0.127122,0 0.248209,0.04473 0.328125,0.113281 0.07482,0.06418 0.122979,0.154755 0.136719,0.31836 -0.01407,0.162004 -0.06226,0.25449 -0.136719,0.318359 -0.07992,0.06855 -0.201003,0.111328 -0.328125,0.111328 -0.127121,0 -0.248208,-0.04278 -0.328125,-0.111328 -0.07446,-0.06387 -0.122645,-0.156355 -0.136718,-0.318359 0.01374,-0.163605 0.0619,-0.25418 0.136718,-0.31836 0.07992,-0.06855 0.201004,-0.113281 0.328125,-0.113281 z"
         id="path162" />
    </g>
  </g>
</svg>
