<?xml version="1.0" encoding="UTF-8" standalone="no"?>
<svg
   version="1.1"
   id="Layer_1"
   x="0"
   y="0"
   viewBox="0 0 549.99957 718.55428"
   xml:space="preserve"
   sodipodi:docname="pico_controller.svg"
   width="549.99957"
   height="718.55426"
   inkscape:version="1.1.2 (0a00cf5339, 2022-02-04)"
   xmlns:inkscape="http://www.inkscape.org/namespaces/inkscape"
   xmlns:sodipodi="http://sodipodi.sourceforge.net/DTD/sodipodi-0.dtd"
   xmlns="http://www.w3.org/2000/svg"
   xmlns:svg="http://www.w3.org/2000/svg"><defs
   id="defs243" /><sodipodi:namedview
   id="namedview241"
   pagecolor="#ffffff"
   bordercolor="#666666"
   borderopacity="1.0"
   inkscape:pageshadow="2"
   inkscape:pageopacity="0.0"
   inkscape:pagecheckerboard="true"
   showgrid="false"
   fit-margin-top="0"
   fit-margin-left="0"
   fit-margin-right="0"
   fit-margin-bottom="0"
   inkscape:zoom="1.1470835"
   inkscape:cx="275.04537"
   inkscape:cy="359.17176"
   inkscape:window-width="2560"
   inkscape:window-height="1440"
   inkscape:window-x="1920"
   inkscape:window-y="0"
   inkscape:window-maximized="1"
   inkscape:current-layer="Layer_1" />
    <style
   id="style2">
        .st4{fill:#ffe75a}.st7{fill:#db324c}.st12{fill:#1ca4a9}.st14{fill:#25b6be}.st15{fill:#fff}.st22{fill:#e8cd49}.st25{fill:#fcc927}.st26{fill:#fbc82a}.st30{fill:#2a7070}.st34{fill:#3b146c}
    </style>
    <path
   d="M 538.4,256.55424 V 59.054243 c 0,-6.7 -2.2,-12.9 -6,-17.8 -0.5,-0.6 -1,-1.3 -1.5,-1.8 l -2.5,-3 c -10.7,-12.9 -25.9,-21 -42.6,-22.6 -35.6,-3.5 -98.6,-9.3999997 -129.4,-10.5999997 -24.6,-1.4 -52.6,-2.2 -84.3,-2.2 -31.7,0 -59.7,0.8 -84.3,2.2 -30.8,1.2 -93.9,7.0999997 -129.5,10.5999997 -16.6,1.6 -31.9,9.8 -42.6,22.6 l -2.5,3 c -0.5,0.6 -1,1.2 -1.5,1.9 -3.8,4.9 -6,11.1 -6,17.8 V 256.65424 c -2.8,2.3 -4.7,5.9 -4.7,9.8 v 88.1 c 0,18.9 15.6,34.2 34.8,34.2 h 472.4 c 19.2,0 34.8,-15.3 34.8,-34.2 v -88.1 c 0.1,-4 -1.7,-7.6 -4.6,-9.9 z"
   style="fill:none;stroke:#ffffff;stroke-width:2;stroke-miterlimit:10;stroke-dasharray:none;stroke-opacity:1"
   id="path4" />
    <path
   d="M 75.2,33.654243 H 48.4 c -14.9,0 -27,11.4 -27,25.4 V 334.55424 c 0,16 13,29 29,29 h 443.4 c 16,0 29,-13 29,-29 V 62.854243 c 0,-16 -13,-29 -29,-29 H 261.9 Z"
   style="fill:none;stroke:#ffffff;stroke-width:2;stroke-miterlimit:10;stroke-dasharray:none;stroke-opacity:1"
   id="path6" />
    <path
   d="M 490.3,357.45424 H 53.9 c -14.6,0 -26.5,-11.9 -26.5,-26.5 v -23.2 c 0,-14.6 11.9,-26.5 26.5,-26.5 h 436.3 c 14.6,0 26.5,11.9 26.5,26.5 v 23.2 c 0.1,14.6 -11.8,26.5 -26.4,26.5 z"
   style="fill:none;stroke:#ffffff;stroke-width:2;stroke-miterlimit:10;stroke-dasharray:none;stroke-opacity:1"
   id="path8" />
    <linearGradient
   id="SVGID_1_"
   gradientUnits="userSpaceOnUse"
   x1="557.09998"
   y1="22.044001"
   x2="557.09998"
   y2="-87.655998"
   gradientTransform="translate(-286,304.11)">
        <stop
   offset="0"
   style="stop-color:#3b1666"
   id="stop10" />
        <stop
   offset=".33"
   style="stop-color:#53277b"
   id="stop12" />
        <stop
   offset="1"
   style="stop-color:#3b146c"
   id="stop14" />
    </linearGradient>
    <path
   d="m 516.8,298.35424 v -80.9 H 27.4 v 80.9 c 0,15.9 10.3,28.8 23,28.8 h 443.4 c 12.7,-0.1 23,-13 23,-28.8"
   style="fill:none;stroke:#ffffff;stroke-width:2;stroke-miterlimit:10;stroke-dasharray:none;stroke-opacity:1"
   id="path17" />
    <path
   class="st4"
   d="m 393.3,703.85424 c -3.1,0 -5.6,-2.5 -5.6,-5.6 v -7.9 c 0,-3.1 2.5,-5.6 5.6,-5.6 3.1,0 5.6,2.5 5.6,5.6 v 7.9 c 0,3.1 -2.5,5.6 -5.6,5.6 z"
   id="path19"
   style="fill:none;stroke:#ffffff;stroke-width:2;stroke-miterlimit:10;stroke-dasharray:none;stroke-opacity:1" />
    <linearGradient
   id="SVGID_00000162319719392299393320000014109257014912817798_"
   gradientUnits="userSpaceOnUse"
   x1="286.10001"
   y1="249.244"
   x2="828.09998"
   y2="249.244"
   gradientTransform="translate(-286,304.11)">
        <stop
   offset="0"
   style="stop-color:#25b6be"
   id="stop21" />
        <stop
   offset=".49"
   style="stop-color:#27c9c9"
   id="stop23" />
        <stop
   offset="1"
   style="stop-color:#25b6be"
   id="stop25" />
    </linearGradient>
    <path
   style="fill:none;stroke:#ffffff;stroke-width:2;stroke-miterlimit:10;stroke-dasharray:none;stroke-opacity:1"
   d="M 508.9,391.15424 H 35.3 c -18.9,0 -34.2,15.3 -34.2,34.2 v 216.4 c 0.3,41.9 33.5,75.8 74.5,75.8 21,0 40,-8.9 53.6,-23.3 H 415 c 13.6,14.4 32.5,23.3 53.6,23.3 41,0 74.2,-33.9 74.5,-75.8 v -216.4 c 0,-18.9 -15.3,-34.2 -34.2,-34.2 z"
   id="path28" />
    <linearGradient
   id="SVGID_00000014604713175948605690000006690221948909158834_"
   gradientUnits="userSpaceOnUse"
   x1="815.15002"
   y1="-148.95599"
   x2="815.15002"
   y2="-84.056"
   gradientTransform="translate(-286,304.11)">
        <stop
   offset="0"
   style="stop-color:#3b1666"
   id="stop30" />
        <stop
   offset="1"
   style="stop-color:#794b9a"
   id="stop32" />
    </linearGradient>
    <path
   style="fill:none;stroke:#ffffff;stroke-width:2;stroke-miterlimit:10;stroke-dasharray:none;stroke-opacity:1"
   d="m 538.4,156.15424 h -11.5 c -2.8,0 -5,2.1 -5,4.7 v 55.5 c 0,2.6 2.2,4.7 5,4.7 h 11.5 z"
   id="path35" />
    <path
   class="st7"
   d="m 546.4,190.75424 -3.1,-5.4 v -0.7 l 3.1,-5.4 1.9,-3.3 c 0.8,-1.5 0.8,-3.3 0,-4.8 l -1.9,-3.3 -3.2,-5.7 v 1.4 -1.9 c 0,-1 -0.7,-1.8 -1.6,-1.8 h -9 c -2.7,0 -4.9,2.5 -4.9,5.6 v 38.9 c 0,3.1 2.2,5.6 4.9,5.6 h 9.6 c 0.6,0 1.2,-0.4 1.4,-1.1 v -1.8 l 2.9,-5 1.9,-3.3 c 0.8,-1.5 0.8,-3.3 0,-4.8 z"
   id="path37"
   style="fill:none;stroke:#ffffff;stroke-width:2;stroke-miterlimit:10;stroke-dasharray:none;stroke-opacity:1" />
    <linearGradient
   id="SVGID_00000070819620534818077190000007880119208492352911_"
   gradientUnits="userSpaceOnUse"
   x1="312.39999"
   y1="-144.806"
   x2="358.89999"
   y2="-144.806"
   gradientTransform="translate(-286,304.11)">
        <stop
   offset="0"
   style="stop-color:#3b1666"
   id="stop39" />
        <stop
   offset=".33"
   style="stop-color:#53277b"
   id="stop41" />
        <stop
   offset=".74"
   style="stop-color:#3b146c"
   id="stop43" />
    </linearGradient>
    <path
   style="fill:none;stroke:#ffffff;stroke-width:2;stroke-miterlimit:10;stroke-dasharray:none;stroke-opacity:1"
   d="M 73.9,280.85424 H 38.3 c -6,0 -10.9,-4.5 -10.9,-10 V 59.054243 c 0,-10.6 9.4,-19.3 21,-19.3 h 20.9"
   id="path46" />
    <linearGradient
   id="SVGID_00000000934933317766040550000002843867830384571022_"
   gradientUnits="userSpaceOnUse"
   x1="802.04999"
   y1="83.584"
   x2="802.04999"
   y2="52.344002"
   gradientTransform="translate(-286,304.11)">
        <stop
   offset="0"
   style="stop-color:#3b1666"
   id="stop48" />
        <stop
   offset="1"
   style="stop-color:#794b9a"
   id="stop50" />
    </linearGradient>
    <path
   style="fill:none;stroke:#ffffff;stroke-width:2;stroke-miterlimit:10;stroke-dasharray:none;stroke-opacity:1"
   d="m 515.6,357.45424 h -12.7 v 31.2 h 12.7 c 8.6,0 15.6,-7 15.6,-15.6 0,-8.6 -7,-15.6 -15.6,-15.6 z"
   id="path53" />
    <radialGradient
   id="SVGID_00000038390437427018665150000009871778408086835349_"
   cx="346.23599"
   cy="439.194"
   r="37.498001"
   gradientTransform="matrix(0.9998,0.01972,-0.05916,2.9994,-254.185,-782.6)"
   gradientUnits="userSpaceOnUse">
        <stop
   offset="0"
   style="stop-color:#25b6be"
   id="stop55" />
        <stop
   offset="1"
   style="stop-color:#1ca4a9"
   id="stop57" />
    </radialGradient>
    <path
   style="opacity:0.5;fill:none;stroke:#ffffff;stroke-width:2;stroke-miterlimit:10;stroke-dasharray:none;stroke-opacity:1;enable-background:new"
   d="m 67,658.75424 c 20.8,0 37.6,-16.8 37.6,-37.6 v -157.2 c 0,-20.8 -16.8,-37.6 -37.6,-37.6 -20.8,0 -37.6,16.8 -37.6,37.6 v 157.2 c -0.1,20.8 16.8,37.6 37.6,37.6 z"
   id="path60" />
    <circle
   class="st7"
   cx="67"
   cy="535.25421"
   r="30.6"
   id="circle62"
   style="fill:none;stroke:#ffffff;stroke-width:2;stroke-miterlimit:10;stroke-dasharray:none;stroke-opacity:1" />
    <path
   d="m 76.6,507.25424 c -0.2,-0.1 -0.5,-0.1 -0.7,-0.2 13.9,5.3 21,20.8 16.1,34.8 -5.1,14.3 -20.8,21.8 -35.1,16.7 -14.1,-5 -21.6,-20.3 -17,-34.4 -0.1,0.2 -0.2,0.4 -0.3,0.7 -5.3,15.1 2.5,31.6 17.6,36.9 15.1,5.3 31.6,-2.5 36.9,-17.6 5.5,-15 -2.4,-31.6 -17.5,-36.9 z"
   style="fill:none;stroke:#ffffff;stroke-width:2;stroke-miterlimit:10;stroke-dasharray:none;stroke-opacity:1"
   id="path64" />
    <circle
   transform="rotate(-1.3559999)"
   class="st12"
   cx="50.267975"
   cy="618.90503"
   r="37.599247"
   id="circle66"
   style="fill:none;stroke:#ffffff;stroke-width:2;stroke-miterlimit:10;stroke-dasharray:none;stroke-opacity:1" />
    <circle
   cx="69.099998"
   cy="625.5542"
   r="37.599998"
   style="fill:none;stroke:#ffffff;stroke-width:2;stroke-miterlimit:10;stroke-dasharray:none;stroke-opacity:1"
   id="circle68" />
    <circle
   class="st14"
   cx="67"
   cy="621.35425"
   r="37.599998"
   id="circle70"
   style="fill:none;stroke:#ffffff;stroke-width:2;stroke-miterlimit:10;stroke-dasharray:none;stroke-opacity:1" />
    <ellipse
   class="st12"
   cx="67.800003"
   cy="605.0542"
   rx="8"
   ry="11.8"
   id="ellipse72"
   style="fill:none;stroke:#ffffff;stroke-width:2;stroke-miterlimit:10;stroke-dasharray:none;stroke-opacity:1" />
    <ellipse
   class="st12"
   cx="67.800003"
   cy="641.5542"
   rx="8"
   ry="11.8"
   id="ellipse74"
   style="fill:none;stroke:#ffffff;stroke-width:2;stroke-miterlimit:10;stroke-dasharray:none;stroke-opacity:1" />
    <ellipse
   class="st12"
   cx="86.099998"
   cy="623.25421"
   rx="11.8"
   ry="8"
   id="ellipse76"
   style="fill:none;stroke:#ffffff;stroke-width:2;stroke-miterlimit:10;stroke-dasharray:none;stroke-opacity:1" />
    <ellipse
   class="st12"
   cx="49.599998"
   cy="623.25421"
   rx="11.8"
   ry="8"
   id="ellipse78"
   style="fill:none;stroke:#ffffff;stroke-width:2;stroke-miterlimit:10;stroke-dasharray:none;stroke-opacity:1" />
    <ellipse
   class="st15"
   cx="67"
   cy="603.15424"
   rx="8"
   ry="11.8"
   id="ellipse80"
   style="fill:none;stroke:#ffffff;stroke-width:2;stroke-miterlimit:10;stroke-dasharray:none;stroke-opacity:1" />
    <ellipse
   cx="67"
   cy="639.65424"
   rx="8"
   ry="11.8"
   style="fill:none;stroke:#ffffff;stroke-width:2;stroke-miterlimit:10;stroke-dasharray:none;stroke-opacity:1"
   id="ellipse82" />
    <ellipse
   cx="85.199997"
   cy="621.35425"
   rx="11.8"
   ry="8"
   style="fill:none;stroke:#ffffff;stroke-width:2;stroke-miterlimit:10;stroke-dasharray:none;stroke-opacity:1"
   id="ellipse84" />
    <ellipse
   cx="48.700001"
   cy="621.35425"
   rx="11.8"
   ry="8"
   style="fill:none;stroke:#ffffff;stroke-width:2;stroke-miterlimit:10;stroke-dasharray:none;stroke-opacity:1"
   id="ellipse86" />
    <path
   class="st4"
   d="m 144.4,655.45424 c -1.4,0 -2.5,-1.1 -2.5,-2.5 v -220.5 c 0,-1.4 1.1,-2.5 2.5,-2.5 h 296.7 c 1.4,0 2.5,1.1 2.5,2.5 v 220.4 c 0,1.4 -1.1,2.5 -2.5,2.5 H 144.4 Z"
   id="path88"
   style="fill:none;stroke:#ffffff;stroke-width:2;stroke-miterlimit:10;stroke-dasharray:none;stroke-opacity:1" />
    <path
   d="m 441.1,430.45424 c 1.1,0 2,0.9 2,2 v 220.4 c 0,1.1 -0.9,2 -2,2 H 144.4 c -1.1,0 -2,-0.9 -2,-2 v -220.4 c 0,-1.1 0.9,-2 2,-2 h 296.7 m 0,-1 H 144.4 c -1.7,0 -3,1.4 -3,3 v 220.4 c 0,1.7 1.4,3 3,3 h 296.7 c 1.7,0 3,-1.4 3,-3 v -220.4 c 0,-1.6 -1.3,-3 -3,-3 z"
   style="fill:none;stroke:#ffffff;stroke-width:2;stroke-miterlimit:10;stroke-dasharray:none;stroke-opacity:1"
   id="path90" />
    <circle
   class="st7"
   cx="171.10001"
   cy="445.35425"
   r="1.9"
   id="circle92"
   style="fill:none;stroke:#ffffff;stroke-width:2;stroke-miterlimit:10;stroke-dasharray:none;stroke-opacity:1" />
    <circle
   class="st7"
   cx="219.7"
   cy="445.35425"
   r="1.9"
   id="circle94"
   style="fill:none;stroke:#ffffff;stroke-width:2;stroke-miterlimit:10;stroke-dasharray:none;stroke-opacity:1" />
    <circle
   class="st7"
   cx="268.39999"
   cy="445.35425"
   r="1.9"
   id="circle96"
   style="fill:none;stroke:#ffffff;stroke-width:2;stroke-miterlimit:10;stroke-dasharray:none;stroke-opacity:1" />
    <circle
   class="st7"
   cx="317.10001"
   cy="445.35425"
   r="1.9"
   id="circle98"
   style="fill:none;stroke:#ffffff;stroke-width:2;stroke-miterlimit:10;stroke-dasharray:none;stroke-opacity:1" />
    <circle
   class="st7"
   cx="365.79999"
   cy="445.35425"
   r="1.9"
   id="circle100"
   style="fill:none;stroke:#ffffff;stroke-width:2;stroke-miterlimit:10;stroke-dasharray:none;stroke-opacity:1" />
    <circle
   class="st7"
   cx="414.5"
   cy="445.35425"
   r="1.9"
   id="circle102"
   style="fill:none;stroke:#ffffff;stroke-width:2;stroke-miterlimit:10;stroke-dasharray:none;stroke-opacity:1" />
    <circle
   class="st7"
   cx="171.10001"
   cy="494.05426"
   r="1.9"
   id="circle104"
   style="fill:none;stroke:#ffffff;stroke-width:2;stroke-miterlimit:10;stroke-dasharray:none;stroke-opacity:1" />
    <circle
   class="st7"
   cx="219.7"
   cy="494.05426"
   r="1.9"
   id="circle106"
   style="fill:none;stroke:#ffffff;stroke-width:2;stroke-miterlimit:10;stroke-dasharray:none;stroke-opacity:1" />
    <circle
   class="st7"
   cx="268.39999"
   cy="494.05426"
   r="1.9"
   id="circle108"
   style="fill:none;stroke:#ffffff;stroke-width:2;stroke-miterlimit:10;stroke-dasharray:none;stroke-opacity:1" />
    <circle
   class="st7"
   cx="317.10001"
   cy="494.05426"
   r="1.9"
   id="circle110"
   style="fill:none;stroke:#ffffff;stroke-width:2;stroke-miterlimit:10;stroke-dasharray:none;stroke-opacity:1" />
    <circle
   class="st7"
   cx="365.79999"
   cy="494.05426"
   r="1.9"
   id="circle112"
   style="fill:none;stroke:#ffffff;stroke-width:2;stroke-miterlimit:10;stroke-dasharray:none;stroke-opacity:1" />
    <circle
   class="st7"
   cx="414.5"
   cy="494.05426"
   r="1.9"
   id="circle114"
   style="fill:none;stroke:#ffffff;stroke-width:2;stroke-miterlimit:10;stroke-dasharray:none;stroke-opacity:1" />
    <circle
   class="st7"
   cx="171.10001"
   cy="542.65424"
   r="1.9"
   id="circle116"
   style="fill:none;stroke:#ffffff;stroke-width:2;stroke-miterlimit:10;stroke-dasharray:none;stroke-opacity:1" />
    <circle
   class="st7"
   cx="219.7"
   cy="542.65424"
   r="1.9"
   id="circle118"
   style="fill:none;stroke:#ffffff;stroke-width:2;stroke-miterlimit:10;stroke-dasharray:none;stroke-opacity:1" />
    <circle
   class="st7"
   cx="268.39999"
   cy="542.65424"
   r="1.9"
   id="circle120"
   style="fill:none;stroke:#ffffff;stroke-width:2;stroke-miterlimit:10;stroke-dasharray:none;stroke-opacity:1" />
    <circle
   class="st7"
   cx="317.10001"
   cy="542.65424"
   r="1.9"
   id="circle122"
   style="fill:none;stroke:#ffffff;stroke-width:2;stroke-miterlimit:10;stroke-dasharray:none;stroke-opacity:1" />
    <circle
   class="st7"
   cx="365.79999"
   cy="542.65424"
   r="1.9"
   id="circle124"
   style="fill:none;stroke:#ffffff;stroke-width:2;stroke-miterlimit:10;stroke-dasharray:none;stroke-opacity:1" />
    <circle
   class="st7"
   cx="414.5"
   cy="542.65424"
   r="1.9"
   id="circle126"
   style="fill:none;stroke:#ffffff;stroke-width:2;stroke-miterlimit:10;stroke-dasharray:none;stroke-opacity:1" />
    <circle
   class="st7"
   cx="171.10001"
   cy="591.35425"
   r="1.9"
   id="circle128"
   style="fill:none;stroke:#ffffff;stroke-width:2;stroke-miterlimit:10;stroke-dasharray:none;stroke-opacity:1" />
    <circle
   class="st7"
   cx="219.7"
   cy="591.35425"
   r="1.9"
   id="circle130"
   style="fill:none;stroke:#ffffff;stroke-width:2;stroke-miterlimit:10;stroke-dasharray:none;stroke-opacity:1" />
    <circle
   class="st7"
   cx="268.39999"
   cy="591.35425"
   r="1.9"
   id="circle132"
   style="fill:none;stroke:#ffffff;stroke-width:2;stroke-miterlimit:10;stroke-dasharray:none;stroke-opacity:1" />
    <circle
   class="st7"
   cx="317.10001"
   cy="591.35425"
   r="1.9"
   id="circle134"
   style="fill:none;stroke:#ffffff;stroke-width:2;stroke-miterlimit:10;stroke-dasharray:none;stroke-opacity:1" />
    <circle
   class="st7"
   cx="365.79999"
   cy="591.35425"
   r="1.9"
   id="circle136"
   style="fill:none;stroke:#ffffff;stroke-width:2;stroke-miterlimit:10;stroke-dasharray:none;stroke-opacity:1" />
    <circle
   class="st7"
   cx="414.5"
   cy="591.35425"
   r="1.9"
   id="circle138"
   style="fill:none;stroke:#ffffff;stroke-width:2;stroke-miterlimit:10;stroke-dasharray:none;stroke-opacity:1" />
    <circle
   class="st7"
   cx="171.10001"
   cy="640.0542"
   r="1.9"
   id="circle140"
   style="fill:none;stroke:#ffffff;stroke-width:2;stroke-miterlimit:10;stroke-dasharray:none;stroke-opacity:1" />
    <circle
   class="st7"
   cx="219.7"
   cy="640.0542"
   r="1.9"
   id="circle142"
   style="fill:none;stroke:#ffffff;stroke-width:2;stroke-miterlimit:10;stroke-dasharray:none;stroke-opacity:1" />
    <circle
   class="st7"
   cx="268.39999"
   cy="640.0542"
   r="1.9"
   id="circle144"
   style="fill:none;stroke:#ffffff;stroke-width:2;stroke-miterlimit:10;stroke-dasharray:none;stroke-opacity:1" />
    <circle
   class="st7"
   cx="317.10001"
   cy="640.0542"
   r="1.9"
   id="circle146"
   style="fill:none;stroke:#ffffff;stroke-width:2;stroke-miterlimit:10;stroke-dasharray:none;stroke-opacity:1" />
    <circle
   class="st7"
   cx="365.79999"
   cy="640.0542"
   r="1.9"
   id="circle148"
   style="fill:none;stroke:#ffffff;stroke-width:2;stroke-miterlimit:10;stroke-dasharray:none;stroke-opacity:1" />
    <circle
   class="st7"
   cx="414.5"
   cy="640.0542"
   r="1.9"
   id="circle150"
   style="fill:none;stroke:#ffffff;stroke-width:2;stroke-miterlimit:10;stroke-dasharray:none;stroke-opacity:1" />
    <path
   d="M 493.8,39.854243 H 62.3 c -4,0 -7.5,2.5 -8.6,5.8 H 53.3 V 270.85424 c 0,5.5 4.9,10 11,10 h 185.9 c 1.1,0 2,0.9 2,2 v 32.3 c 0,6.6 5.3,11.9 11.9,11.9 h 37.8 v 7.8 h 166.2 v -7.8 h 36.8 c 6.6,0 11.9,-5.3 11.9,-11.9 V 62.854243 c 0,-12.7 -10.3,-23 -23,-23 z"
   style="fill:none;stroke:#ffffff;stroke-width:2;stroke-miterlimit:10;stroke-dasharray:none;stroke-opacity:1"
   id="path152" />
    <path
   style="fill:none;stroke:#ffffff;stroke-width:2;stroke-miterlimit:10;stroke-dasharray:none;stroke-opacity:1"
   d="m 301.9,331.35424 h 166.2 v 3.5 H 301.9 Z"
   id="path154" />
    <path
   class="st4"
   d="m 482.1,664.15424 c 0.9,1.6 1.8,3.1 2.8,4.7 1,-0.8 2.1,-1.3 3.4,-1.3 1.3,0 2.4,0.5 3.4,1.3 0.9,-1.4 1.8,-2.9 2.6,-4.3 -1.8,-1.2 -4,-2 -6.4,-2 -2.1,-0.1 -4.1,0.5 -5.8,1.6 z"
   id="path156"
   style="fill:none;stroke:#ffffff;stroke-width:2;stroke-miterlimit:10;stroke-dasharray:none;stroke-opacity:1" />
    <path
   class="st4"
   d="m 479.9,659.95424 c 0.4,0.9 0.9,1.8 1.4,2.7 1.9,-1.2 4.2,-1.9 6.6,-1.9 2.7,0 5.1,0.8 7.2,2.3 0.5,-0.9 0.9,-1.8 1.4,-2.7 -2.5,-1.6 -5.4,-2.5 -8.6,-2.5 -2.9,-0.1 -5.6,0.7 -8,2.1 z"
   id="path158"
   style="fill:none;stroke:#ffffff;stroke-width:2;stroke-miterlimit:10;stroke-dasharray:none;stroke-opacity:1" />
    <path
   class="st4"
   d="m 478,655.45424 1.2,3 c 2.6,-1.5 5.5,-2.4 8.7,-2.4 3.4,0 6.6,1 9.3,2.8 0.4,-1 0.9,-2 1.3,-3 -3.1,-1.9 -6.7,-2.9 -10.5,-2.9 -3.7,-0.1 -7.1,0.8 -10,2.5 z"
   id="path160"
   style="fill:none;stroke:#ffffff;stroke-width:2;stroke-miterlimit:10;stroke-dasharray:none;stroke-opacity:1" />
    <path
   class="st4"
   d="m 476.2,650.15424 c 0.4,1.2 0.8,2.5 1.2,3.7 3.1,-1.8 6.7,-2.7 10.5,-2.7 4.1,0 7.9,1.1 11.1,3.1 0.4,-1.2 0.9,-2.5 1.2,-3.7 -3.7,-2.1 -7.9,-3.2 -12.4,-3.2 -4.1,-0.1 -8.1,1 -11.6,2.8 z m 24.3,-0.5 c 1.3,-4.5 2.1,-9.1 2.4,-13.8 l -4,-181.6 c 0,-4.5 -6.7,-8.2 -10.6,-8.2 -3.9,0 -10.6,3.7 -10.6,8.2 l -4,181.6 c 0.3,4.6 1,9.1 2.3,13.4 3.6,-1.9 7.7,-2.9 12,-2.9 4.5,0.1 8.8,1.3 12.5,3.3 z"
   id="path162"
   style="fill:none;stroke:#ffffff;stroke-width:2;stroke-miterlimit:10;stroke-dasharray:none;stroke-opacity:1" />
    <path
   class="st22"
   d="m 487.9,662.45424 c 2.4,0 4.6,0.7 6.4,2 0.3,-0.5 0.5,-1 0.8,-1.4 -2.1,-1.4 -4.5,-2.3 -7.2,-2.3 -2.4,0 -4.7,0.7 -6.6,1.9 0.3,0.5 0.5,1 0.8,1.5 1.7,-1.1 3.7,-1.7 5.8,-1.7 z m 0,-4.7 c 3.1,0 6.1,0.9 8.6,2.5 0.2,-0.5 0.5,-1 0.7,-1.5 -2.7,-1.7 -5.9,-2.8 -9.3,-2.8 -3.2,0 -6.1,0.9 -8.7,2.4 0.2,0.5 0.5,1 0.7,1.5 2.4,-1.3 5.1,-2.1 8,-2.1 z m 0,-4.9 c 3.8,0 7.4,1.1 10.5,2.9 0.2,-0.5 0.4,-1 0.6,-1.6 -3.3,-2 -7.1,-3.1 -11.1,-3.1 -4,0 -7.4,1 -10.5,2.7 0.2,0.5 0.4,1.1 0.6,1.6 2.9,-1.6 6.3,-2.5 9.9,-2.5 z"
   id="path164"
   style="fill:none;stroke:#ffffff;stroke-width:2;stroke-miterlimit:10;stroke-dasharray:none;stroke-opacity:1" />
    <path
   class="st4"
   d="m 487.9,647.25424 c 4.5,0 8.7,1.2 12.4,3.2 0.1,-0.3 0.2,-0.5 0.2,-0.8 -3.8,-2.1 -8.1,-3.3 -12.6,-3.3 -4.5,0 -8.4,1.1 -12,2.9 0.1,0.3 0.2,0.5 0.2,0.8 3.6,-1.7 7.6,-2.8 11.8,-2.8 z"
   id="path166"
   style="fill:none;stroke:#ffffff;stroke-width:2;stroke-miterlimit:10;stroke-dasharray:none;stroke-opacity:1" />
    <path
   d="m 487.9,647.25424 c 4.5,0 8.7,1.2 12.4,3.2 0.1,-0.3 0.2,-0.5 0.2,-0.8 -3.8,-2.1 -8.1,-3.3 -12.6,-3.3 -4.5,0 -8.4,1.1 -12,2.9 0.1,0.3 0.2,0.5 0.2,0.8 3.6,-1.7 7.6,-2.8 11.8,-2.8 z"
   style="opacity:0.5;fill:none;stroke:#ffffff;stroke-width:2;stroke-miterlimit:10;stroke-dasharray:none;stroke-opacity:1;enable-background:new"
   id="path168" />
    <path
   class="st15"
   d="m 488.3,672.45424 c 0.3,0 0.9,-0.1 1.3,-0.7 l 2.1,-3 c -1,-0.8 -2.1,-1.3 -3.4,-1.3 -1.3,0 -2.4,0.5 -3.4,1.3 0.7,1 1.3,2 2.1,3 0.4,0.6 1,0.7 1.3,0.7 z"
   id="path170"
   style="fill:none;stroke:#ffffff;stroke-width:2;stroke-miterlimit:10;stroke-dasharray:none;stroke-opacity:1" />
    <path
   class="st7"
   d="m 500.8,495.95424 h -25 v -37.3 c 0,-6.9 5.6,-12.5 12.5,-12.5 6.9,0 12.5,5.6 12.5,12.5 z"
   id="path172"
   style="fill:none;stroke:#ffffff;stroke-width:2;stroke-miterlimit:10;stroke-dasharray:none;stroke-opacity:1" />
    <path
   class="st14"
   d="m 488.3,636.65424 c -4,0 -7.2,-3.2 -7.2,-7.2 v -57.2 c 0,-4 3.2,-7.2 7.2,-7.2 4,0 7.2,3.2 7.2,7.2 v 57.2 c 0,3.9 -3.2,7.2 -7.2,7.2 z"
   id="path174"
   style="fill:none;stroke:#ffffff;stroke-width:2;stroke-miterlimit:10;stroke-dasharray:none;stroke-opacity:1" />
    <path
   style="fill:none;stroke:#ffffff;stroke-width:2;stroke-miterlimit:10;stroke-dasharray:none;stroke-opacity:1"
   d="m 492.7,612.55424 -1.6,-7.4 0.1,-10 1.1,-9.8 -1.3,-4.6 -6.2,1.9 -1.3,7.2 0.8,7.4 -0.6,9 -0.1,11.4 7.3,3.2 z"
   id="path176" />
    <path
   class="st25"
   d="m 490.7,588.45424 c 0.3,-0.9 0.3,-2.4 0.2,-3.3 0,-0.3 -0.2,-0.7 -0.5,-0.8 -0.1,-0.1 -0.3,0 -0.4,-0.1 -0.1,-0.1 -0.2,-0.2 -0.2,-0.3 0,-0.2 -0.2,-0.6 -0.6,-0.4 0,0 -0.6,0.4 -1.5,0.6 -0.9,0.2 -1.8,0.4 -1.9,1.5 -0.1,1.1 0.2,1.5 0.8,1.3 0.6,-0.2 1,-0.4 1,0 -0.1,0.4 0,1.5 0.5,2.2 0.5,0.7 0.6,0.8 1.3,0.8 0.7,-0.1 1,-0.6 1.3,-1.5 z m -1.9,-1.6 c -0.1,-0.3 0,-0.6 0.3,-0.8 l 0.2,-0.1 c 0.1,-0.1 0.3,-0.1 0.4,0.1 0.4,0.7 0.2,1.6 -0.3,1.8 -0.3,-0.2 -0.5,-0.6 -0.6,-1 z m -0.2,8.3 c 0.1,-0.3 0.1,-0.9 0.1,-0.9 0,-0.5 -0.3,-1 -0.9,-1.1 -0.6,-0.1 -1.8,-0.2 -2,-0.1 -0.4,0.1 -0.7,0.6 -0.7,1.2 0,0.5 0.4,1.1 0.9,1.2 0.5,0 2.4,0.3 2.6,-0.3 z m -1.5,10.5 c 0.1,-0.2 0.1,-0.5 0.1,-0.7 0,-0.4 -0.1,-0.7 -0.2,-1 -0.2,-0.4 -0.5,-1.1 -0.4,-1.7 0,-1 0.7,-1.2 1,-0.9 0.4,0.3 0.7,0.8 0.8,2 0.1,0.7 0.1,1 0.2,1.2 0.1,0.3 0.4,0.4 0.6,0.1 0.2,-0.2 0.3,-0.5 0.3,-0.8 0,-0.8 -0.1,-2.6 -1.1,-4.1 -0.7,-1.3 -1.7,-0.8 -2,-0.5 -0.4,0.4 -1,1.1 -1,3.1 0,1.8 0.4,2.6 0.6,3.1 0.1,0.1 0.2,0.3 0.3,0.4 l 0.1,0.1 c 0.1,0.1 0.4,0 0.4,-0.1 z m 0.7,8.5 c -0.1,-0.4 0,-0.9 0,-1.2 0,-0.3 0,-0.6 0.2,-0.9 l 0.1,-0.1 v -0.2 h -0.2 l -0.1,0.1 c -0.2,0.4 -0.3,0.7 -0.3,1.1 0,0.4 0,0.9 0.1,1.2 0,0.1 0.1,0.1 0.2,0 -0.1,0.2 0,0.1 0,0 z"
   id="path178"
   style="fill:none;stroke:#ffffff;stroke-width:2;stroke-miterlimit:10;stroke-dasharray:none;stroke-opacity:1" />
    <path
   class="st25"
   d="m 489.5,615.85424 c 0.4,-0.7 0.6,-2 0.6,-3.2 0,0 0.1,-1.1 -0.8,-2.5 -0.9,-1.4 -1.8,-0.9 -2.2,-0.6 -0.4,0.4 -1.2,1.9 -1.1,3.8 0.2,1.8 0.7,2.8 1.5,2.9 0.9,0.3 1.6,0.2 2,-0.4 z m -1.5,-0.7 -0.1,-0.1 c -0.8,-0.3 -1,-1.1 -1,-2.1 0,-0.9 0.2,-1.4 0.5,-1.8 0.3,-0.4 0.7,-0.5 1.1,0 0.2,0.2 0.4,0.6 0.4,0.9 -0.3,0 -0.6,0.2 -0.5,0.5 0.2,0.6 0.3,0.3 0.3,0.3 0,0 0,-0.4 0.3,-0.1 v 0.6 c -0.2,-0.1 -0.5,-0.1 -0.6,0.3 -0.2,0.6 0.1,0.5 0.1,0.5 0,0 0.1,-0.3 0.4,-0.1 -0.1,0.3 -0.2,0.5 -0.3,0.7 0,0.3 -0.3,0.5 -0.6,0.4 z m 2.4,-1.3 c 0,0.6 0.6,0.9 0.9,1 0.1,0.1 0.3,0 0.3,-0.1 0,-0.4 -0.5,-0.8 -0.9,-1 -0.2,0 -0.3,0 -0.3,0.1 z m -0.7,2.3 c -0.2,0.5 0.2,1.1 0.5,1.4 0.1,0.1 0.2,0.1 0.3,0.1 0.2,-0.4 -0.2,-1 -0.4,-1.3 -0.2,-0.2 -0.3,-0.3 -0.4,-0.2 z m -1.8,2.3 c 0.5,-0.3 0.4,-1 0.3,-1.4 0,-0.1 -0.1,-0.2 -0.2,-0.2 -0.3,0.2 -0.3,0.9 -0.3,1.3 0,0.2 0.1,0.4 0.2,0.3 z m -1.4,-2.2 c 0,-0.1 0,-0.3 -0.1,-0.3 -0.4,0.1 -0.7,0.7 -0.9,1.1 -0.1,0.2 0,0.4 0.1,0.3 0.7,0 0.9,-0.7 0.9,-1.1 z m -0.7,-2 c -0.4,-0.2 -0.9,0.1 -1.3,0.3 -0.1,0.1 -0.2,0.3 -0.1,0.3 0.6,0.3 1.1,-0.1 1.3,-0.4 0.1,-0.1 0.2,-0.2 0.1,-0.2 z m -0.1,-2 c -0.1,-0.4 -0.6,-0.7 -1,-0.8 -0.2,0 -0.3,0 -0.3,0.1 0.1,0.6 0.7,0.8 1,0.8 0.2,0.1 0.3,0 0.3,-0.1 z m 0.5,-2 c 0.2,-0.4 -0.2,-0.9 -0.5,-1.2 -0.1,-0.1 -0.3,-0.2 -0.3,-0.1 -0.2,0.6 0.3,1 0.6,1.3 0.1,0.1 0.2,0.1 0.2,0 z m 1.3,-1.1 c 0.1,0 0.1,-0.1 0.2,-0.2 0.1,-0.4 0.2,-1.1 -0.2,-1.4 -0.1,-0.1 -0.2,0.1 -0.2,0.3 -0.1,0.3 -0.2,1 0.2,1.3 z m 2.1,-1 c -0.3,0.3 -0.7,0.9 -0.6,1.2 0,0.1 0.1,0 0.3,-0.1 0.3,-0.3 0.8,-0.8 0.6,-1.3 0,0 -0.1,0 -0.3,0.2 z m 0.8,3.5 c 0,0.1 0.1,0.1 0.2,0 0.3,-0.1 0.9,-0.5 0.8,-1 0,-0.1 -0.2,-0.1 -0.3,0 -0.2,0.3 -0.7,0.7 -0.7,1 z m 1.9,-18 c -0.3,-0.7 -1,-0.8 -1.4,-0.3 -0.2,0.2 -0.4,0.5 -0.7,0.7 0,0 -0.1,0.1 -0.3,0.1 v -0.2 c -0.2,-0.1 -0.2,0.1 -0.3,0.3 h -0.2 c -0.4,0 -0.3,0.3 -0.2,0.3 h 0.2 c -0.1,0.2 -0.1,0.4 0.1,0.4 0.1,0 0.2,-0.2 0.2,-0.3 h 0.1 c 0,0.1 0,0.2 0.1,0.3 0.1,0 0.1,-0.1 0.2,-0.2 0.1,0 0.1,0.1 0.1,0.1 0.8,0.6 1.1,0.9 1.4,0.8 0.4,0.1 1.2,-0.7 0.7,-2 z m -1.8,0.9 0.8,-0.8 c 0.3,-0.4 0.8,-0.2 0.9,0.3 0.1,0.6 -0.1,1.2 -0.4,1.3 -0.3,0 -0.6,-0.1 -1.3,-0.8 z"
   id="path180"
   style="fill:none;stroke:#ffffff;stroke-width:2;stroke-miterlimit:10;stroke-dasharray:none;stroke-opacity:1" />
    <path
   class="st26"
   d="m 492.4,596.25424 c 0,-0.1 0,-0.1 0,0 l 0.1,-0.1 v -0.1 c 0,-0.1 -0.1,-0.1 -0.1,-0.1 l -0.1,-0.1 h -0.1 v 0.1 c 0,0 0,0.1 0.1,0.1 -0.1,0.1 0,0.2 0.1,0.2 z m 0.6,-0.9 c 0,-0.1 -0.1,-0.2 -0.1,-0.2 0,0 -0.1,0 -0.1,-0.1 h -0.1 c -0.1,0 -0.1,0.1 -0.1,0.1 v 0.1 l 0.1,0.1 0.1,0.1 c 0.1,0 0.1,-0.1 0.2,-0.1 0,0.1 0,0 0,0 z m 0,-1.2 c 0.1,0 0.1,-0.1 0,-0.2 h -0.2 c 0,0 -0.1,0 -0.1,0.1 v 0.1 c 0,0 0,0.1 0.1,0.1 0.1,-0.1 0.2,-0.1 0.2,-0.1 z m -0.3,-1 0.1,-0.1 v -0.1 l -0.1,-0.1 h -0.1 l -0.1,0.1 -0.1,0.1 v 0.1 c 0,0 0,0.1 0.1,0 0.1,0.1 0.1,0 0.2,0 z m -0.8,-0.5 c 0.1,-0.1 0.1,-0.2 0.1,-0.2 h -0.2 c -0.1,0 -0.1,0.1 -0.2,0.1 -0.1,0 -0.1,0.1 -0.1,0.1 0,0 -0.1,0.1 0,0.2 0,0.1 0.1,0.1 0.2,0 0,-0.1 0.1,-0.1 0.2,-0.2 z"
   id="path182"
   style="fill:none;stroke:#ffffff;stroke-width:2;stroke-miterlimit:10;stroke-dasharray:none;stroke-opacity:1" />
    <radialGradient
   id="SVGID_00000026867123382460741390000016888828757446987177_"
   cx="1027.748"
   cy="254.194"
   r="83.836998"
   gradientTransform="matrix(0.84,0,0,1,-377.648,304.11)"
   gradientUnits="userSpaceOnUse">
        <stop
   offset="0"
   style="stop-color:#25b6be"
   id="stop184" />
        <stop
   offset="1"
   style="stop-color:#1ca4a9"
   id="stop186" />
    </radialGradient>
    <path
   style="fill:none;stroke:#ffffff;stroke-width:2;stroke-miterlimit:10;stroke-dasharray:none;stroke-opacity:1"
   d="m 488.3,446.05424 h 0.8 c 2.7,0.2 5.2,1.4 7.2,3.4 0.8,0.8 1.6,1.6 2,2.5 1.6,2.5 2.5,5.6 2.5,9 v 45.3 H 500 l 2.9,129.7 c -0.3,4.7 -1.1,9.3 -2.4,13.8 -0.1,0.3 -0.2,0.5 -0.2,0.8 -0.4,1.2 -0.8,2.5 -1.2,3.7 -0.2,0.5 -0.4,1 -0.6,1.6 -0.4,1 -0.8,2 -1.3,3 -0.2,0.5 -0.5,1 -0.7,1.5 -0.4,0.9 -0.9,1.8 -1.4,2.7 -0.3,0.5 -0.5,1 -0.8,1.4 -0.8,1.5 -1.7,2.9 -2.6,4.3 -0.7,1 -1.3,2 -2.1,3 -0.5,0.6 -1,0.7 -1.3,0.7 -0.3,0 -0.9,-0.1 -1.3,-0.7 l -2.1,-3 c -1,-1.5 -1.9,-3.1 -2.8,-4.7 -0.3,-0.5 -0.5,-1 -0.8,-1.5 -0.5,-0.9 -0.9,-1.8 -1.4,-2.7 -0.2,-0.5 -0.5,-1 -0.7,-1.5 l -1.2,-3 c -0.2,-0.5 -0.4,-1.1 -0.6,-1.6 -0.4,-1.2 -0.8,-2.4 -1.2,-3.7 -0.1,-0.3 -0.2,-0.5 -0.2,-0.8 -1.2,-4.4 -2,-8.9 -2.3,-13.4 l 2.6,-115.8 c -0.3,-0.3 -0.5,-0.8 -0.5,-1.3 v -57.9 c 0,-3.4 1,-6.5 2.5,-9 0.5,-0.9 1.2,-1.8 2,-2.5 2,-1.9 4.5,-3.2 7.2,-3.4 0.3,0.1 0.5,0.1 0.8,0.1 m 0,-3.5 h -0.1 c -0.3,0 -0.6,0 -0.9,0.1 -3.2,0.2 -6.3,1.7 -8.8,4.1 -1.1,1 -2,2.1 -2.6,3.3 -2,3.2 -3,6.9 -3,10.9 v 57.9 c 0,0.8 0.2,1.6 0.5,2.3 l -2.6,114.7 v 0.4 c 0.3,4.8 1.1,9.6 2.4,14.3 l 0.1,0.2 c 0.1,0.2 0.1,0.5 0.2,0.7 0.4,1.3 0.8,2.6 1.3,3.9 0.2,0.6 0.4,1.1 0.6,1.7 0.4,1.1 0.9,2.1 1.3,3.1 0.2,0.5 0.5,1.1 0.7,1.6 0.5,1 0.9,2 1.4,2.9 0.3,0.5 0.5,1 0.8,1.5 0.9,1.6 1.9,3.3 3,4.9 0.8,1.2 1.5,2.2 2.1,3.1 0.9,1.2 2.2,1.9 3.5,1.9 1.4,0 2.7,-0.7 3.5,-1.9 0.7,-0.9 1.4,-1.9 2.1,-3.1 1,-1.5 1.9,-3 2.8,-4.5 0.3,-0.5 0.6,-1 0.8,-1.5 0.5,-0.9 0.9,-1.8 1.5,-2.9 v -0.1 c 0.2,-0.5 0.5,-1 0.7,-1.5 0.4,-1 0.9,-2 1.3,-3.1 0.2,-0.6 0.4,-1.1 0.6,-1.7 0.5,-1.2 0.9,-2.6 1.3,-3.9 l 0.1,-0.2 c 0.1,-0.2 0.1,-0.4 0.2,-0.6 1.4,-4.8 2.2,-9.7 2.5,-14.6 v -0.4 l -2.8,-126.1 h 0.7 v -48.8 c 0,-3.9 -1.1,-7.7 -3,-10.9 -0.6,-1.2 -1.5,-2.3 -2.6,-3.3 -2.5,-2.4 -5.5,-3.8 -8.8,-4.1 -0.2,-0.2 -0.5,-0.3 -0.8,-0.3 z"
   id="path189" />
    <path
   class="st14"
   d="m 500.8,359.85424 h 2.1 v 26.5 h -2.1 z"
   id="path191"
   style="fill:none;stroke:#ffffff;stroke-width:2;stroke-miterlimit:10;stroke-dasharray:none;stroke-opacity:1" />
    <linearGradient
   id="SVGID_00000170275759068832259310000012346248831707818662_"
   gradientUnits="userSpaceOnUse"
   x1="312.25"
   y1="83.584"
   x2="312.25"
   y2="52.344002"
   gradientTransform="translate(-286,304.11)">
        <stop
   offset="0"
   style="stop-color:#3b1666"
   id="stop193" />
        <stop
   offset="1"
   style="stop-color:#794b9a"
   id="stop195" />
    </linearGradient>
    <path
   style="fill:none;stroke:#ffffff;stroke-width:2;stroke-miterlimit:10;stroke-dasharray:none;stroke-opacity:1"
   d="m 28.7,388.65424 h 12.7 v -31.2 H 28.7 c -8.6,0 -15.6,7 -15.6,15.6 0,8.6 7,15.6 15.6,15.6 z"
   id="path198" />
    <path
   class="st14"
   d="m 41.3,359.75424 h 2.1 v 26.5 h -2.1 z"
   id="path200"
   style="fill:none;stroke:#ffffff;stroke-width:2;stroke-miterlimit:10;stroke-dasharray:none;stroke-opacity:1" />
    <linearGradient
   id="SVGID_00000021833064821779692620000002565595206422824321_"
   gradientUnits="userSpaceOnUse"
   x1="557.25"
   y1="96.793999"
   x2="557.25"
   y2="76.734001"
   gradientTransform="translate(-286,304.11)">
        <stop
   offset=".1"
   style="stop-color:#25b6be"
   id="stop202" />
        <stop
   offset=".55"
   style="stop-color:#85bfce"
   id="stop204" />
        <stop
   offset=".8"
   style="stop-color:#32b8c1"
   id="stop206" />
    </linearGradient>
    <path
   style="fill:none;stroke:#ffffff;stroke-width:2;stroke-miterlimit:10;stroke-dasharray:none;stroke-opacity:1"
   d="m 72.8,401.85424 c -3.5,0 -6.3,-2.8 -6.3,-6.3 v -13.8 H 478 v 13.8 c 0,3.5 -2.8,6.3 -6.3,6.3 z"
   id="path209" />
    <path
   class="st30"
   d="m 477.5,382.35424 v 13.3 c 0,3.2 -2.6,5.8 -5.8,5.8 H 72.8 c -3.2,0 -5.8,-2.6 -5.8,-5.8 v -13.3 h 410.5 m 1,-1 H 66 v 14.3 c 0,3.7 3.1,6.8 6.8,6.8 h 398.9 c 3.7,0 6.8,-3.1 6.8,-6.8 z"
   id="path211"
   style="fill:none;stroke:#ffffff;stroke-width:2;stroke-miterlimit:10;stroke-dasharray:none;stroke-opacity:1" />
    <linearGradient
   id="SVGID_00000067935015978015718050000005332950643125665466_"
   gradientUnits="userSpaceOnUse"
   x1="557.15002"
   y1="91.143997"
   x2="557.15002"
   y2="51.844002"
   gradientTransform="translate(-286,304.11)">
        <stop
   offset=".1"
   style="stop-color:#25b6be"
   id="stop213" />
        <stop
   offset=".55"
   style="stop-color:#85bfce"
   id="stop215" />
        <stop
   offset=".8"
   style="stop-color:#32b8c1"
   id="stop217" />
    </linearGradient>
    <path
   style="fill:none;stroke:#ffffff;stroke-width:2;stroke-miterlimit:10;stroke-dasharray:none;stroke-opacity:1"
   d="m 482.7,396.25424 c -2.6,0 -4.7,-1.6 -4.7,-3.7 v -9.3 c 0,-0.8 -1,-1.5 -2.2,-1.5 H 69.1 c -1.2,0 -2.2,0.7 -2.2,1.5 v 9.3 c 0,2 -2.1,3.7 -4.7,3.7 H 48.1 c -2.6,0 -4.7,-1.6 -4.7,-3.7 v -35.6 h 457.5 v 35.6 c 0,2 -2.1,3.7 -4.7,3.7 z"
   id="path220" />
    <path
   class="st30"
   d="m 500.5,357.45424 v 35.1 c 0,1.8 -1.9,3.2 -4.2,3.2 h -13.6 c -2.3,0 -4.2,-1.4 -4.2,-3.2 v -9.3 c 0,-1.1 -1.2,-2 -2.7,-2 H 69.1 c -1.5,0 -2.7,0.9 -2.7,2 v 9.3 c 0,1.8 -1.9,3.2 -4.2,3.2 H 48.1 c -2.3,0 -4.2,-1.4 -4.2,-3.2 v -35 h 456.6 m 1,-1.1 H 43 v 36 c 0,2.3 2.3,4.2 5.2,4.2 h 14.1 c 2.9,0 5.2,-1.9 5.2,-4.2 v -9.3 c 0,-0.5 0.7,-1 1.7,-1 h 406.7 c 1,0 1.7,0.6 1.7,1 v 9.3 c 0,2.3 2.3,4.2 5.2,4.2 h 13.6 c 2.9,0 5.2,-1.9 5.2,-4.2 v -36 z"
   id="path222"
   style="fill:none;stroke:#ffffff;stroke-width:2;stroke-miterlimit:10;stroke-dasharray:none;stroke-opacity:1" />
    <linearGradient
   id="SVGID_00000059294258064281165970000011975874143303406483_"
   gradientUnits="userSpaceOnUse"
   x1="557.15002"
   y1="-272.15601"
   x2="557.15002"
   y2="-304.07599"
   gradientTransform="translate(-286,304.11)">
        <stop
   offset="0"
   style="stop-color:#3b1666"
   id="stop224" />
        <stop
   offset="1"
   style="stop-color:#794b9a"
   id="stop226" />
    </linearGradient>
    <path
   style="fill:none;stroke:#ffffff;stroke-width:2;stroke-miterlimit:10;stroke-dasharray:none;stroke-opacity:1"
   d="m 453.7,10.754243 c -8.2,0.7 -20.9,3.8 -36.5,16 0,0 -69.7,5.9 -142.5,6.2 h -5.2 c -72.8,-0.3 -142.5,-6.2 -142.5,-6.2 -15.6,-12.2 -28.2,-15.3 -36.4,-16 0,0 84.9,-9.6999997 178,-9.6999997 92.4,-0.89999999 185.1,9.6999997 185.1,9.6999997 z"
   id="path229" />
    <linearGradient
   id="SVGID_00000092453363402522187450000012948400354402255515_"
   gradientUnits="userSpaceOnUse"
   x1="639.5"
   y1="-280.70599"
   x2="639.5"
   y2="-283.62601"
   gradientTransform="translate(-286,304.11)">
        <stop
   offset="0"
   style="stop-color:#3b1666"
   id="stop231" />
        <stop
   offset="1"
   style="stop-color:#794b9a"
   id="stop233" />
    </linearGradient>
    <path
   style="fill:none;stroke:#ffffff;stroke-width:2;stroke-miterlimit:10;stroke-dasharray:none;stroke-opacity:1"
   d="m 369.5,24.354243 h -30 c -0.8,0 -1.5,-0.7 -1.5,-1.5 0,-0.8 0.7,-1.5 1.5,-1.5 h 30 c 0.8,0 1.5,0.7 1.5,1.5 0,0.9 -0.6,1.5 -1.5,1.5 z"
   id="path236" />
    <path
   class="st34"
   d="m 332.5,2.1542433 h 0.9 V 31.754243 h -0.9 z m 43.2,2.1 h 0.9 V 29.554243 h -0.9 z"
   id="path238"
   style="fill:none;stroke:#ffffff;stroke-width:2;stroke-miterlimit:10;stroke-dasharray:none;stroke-opacity:1" />
</svg>
