<?xml version="1.0" encoding="UTF-8" standalone="no"?>
<svg
   viewBox="0 0 98.986331 126.96289"
   version="1.1"
   id="svg75"
   sodipodi:docname="pico8_controller.svg"
   width="98.986328"
   height="126.96289"
   inkscape:version="1.1.2 (0a00cf5339, 2022-02-04)"
   xmlns:inkscape="http://www.inkscape.org/namespaces/inkscape"
   xmlns:sodipodi="http://sodipodi.sourceforge.net/DTD/sodipodi-0.dtd"
   xmlns="http://www.w3.org/2000/svg"
   xmlns:svg="http://www.w3.org/2000/svg">
  <defs
     id="defs79" />
  <sodipodi:namedview
     id="namedview77"
     pagecolor="#ffffff"
     bordercolor="#666666"
     borderopacity="1.0"
     inkscape:pageshadow="2"
     inkscape:pageopacity="0.0"
     inkscape:pagecheckerboard="true"
     showgrid="false"
     fit-margin-top="0"
     fit-margin-left="0"
     fit-margin-right="0"
     fit-margin-bottom="0"
     inkscape:zoom="1.5666454"
     inkscape:cx="-16.276817"
     inkscape:cy="11.489518"
     inkscape:window-width="2560"
     inkscape:window-height="1440"
     inkscape:window-x="1920"
     inkscape:window-y="0"
     inkscape:window-maximized="1"
     inkscape:current-layer="svg75" />
  <path
     style="color:#000000;fill:#ffffff;stroke-miterlimit:10;-inkscape-stroke:none"
     d="M 4.1796875,0 C 1.8776142,0 0,1.8776142 0,4.1796875 V 122.77539 c 0,2.30594 1.8796075,4.1875 4.1855469,4.1875 H 89.865234 c 5.031745,-5.8e-4 9.120511,-4.0913 9.121094,-9.12305 V 4.1816406 C 98.986328,1.8779104 97.108418,0 94.804687,0 Z m 0,1 H 94.804687 c 1.763291,0 3.181641,1.41835 3.181641,3.1816406 V 117.83984 c -5.21e-4,4.49139 -3.629707,8.12253 -8.121094,8.12305 H 4.1855469 C 2.4200471,125.96289 1,124.54089 1,122.77539 V 4.1796875 C 1,2.4180537 2.4180537,1 4.1796875,1 Z"
     id="path1113" />
  <path
     style="color:#000000;fill:#ffffff;stroke-miterlimit:10;-inkscape-stroke:none"
     d="M 29.789062,3.6503906 V 3.8515625 4.2832031 H 29.15625 v 0.6328125 h -0.632813 v 1.0332031 h 0.632813 v 0.6308594 h 0.632812 v 0.6308594 h 1.03125 V 6.578125 l 0.632813,0.00391 V 5.9492187 h 0.632812 V 4.9160156 H 31.453125 V 4.2832031 H 30.820312 V 3.6503906 Z m 0.400391,0.4003907 h 0.232422 v 0.6328124 h 0.632812 v 0.6328125 h 0.63086 v 0.2324219 h -0.63086 v 0.6328125 l -0.632812,-0.00391 V 6.8105469 H 30.189453 V 6.1816406 H 29.556641 V 5.5488281 H 28.923828 V 5.3164062 h 0.632813 V 4.6835937 h 0.632812 z m -19.880859,2.1289062 0.197265,0.1992187 h -0.398437 v 0.2011719 0.25 H 9.4804688 v 2.921875 H 11.134766 V 8.4921875 h 1.90625 v -2.3125 z m 2.990234,0 v 1.0507812 h 0.621094 v 1.4824219 h -0.621094 v 1.0507813 h 2.908203 V 8.7128906 H 15.585938 V 7.2304687 h 0.621093 V 6.1796875 Z m 3.798828,0 v 0.6503906 h -0.632812 v 2.921875 h 2.933593 V 8.7128906 H 19.197266 18.130859 V 7.2304687 h 1.267578 V 6.1796875 Z m 3.175781,0 v 0.1992187 0.4511719 h -0.636718 v 2.921875 h 2.919922 v -0.640625 h 0.648437 V 6.1796875 Z m 5.908204,0 0.199218,0.1992187 h -0.398437 v 0.2011719 0.8769531 h -0.636719 v 2.2949219 h 3.568359 V 6.1796875 Z M 13.699219,6.578125 h 2.107422 v 0.2519531 h -0.621094 v 2.28125 h 0.621094 V 9.3632813 H 13.699219 V 9.1113281 h 0.621094 v -2.28125 h -0.201172 -0.419922 z m 3.798828,0 h 1.5 v 0.2519531 h -1.267578 v 2.28125 h 1.267578 V 9.3515625 H 16.865234 V 7.2304687 h 0.632813 z m 3.175781,0 h 2.130859 V 8.7128906 H 22.15625 V 9.3515625 H 20.037109 V 7.2304687 h 0.636719 z m -10.166015,0.00195 h 2.132812 v 1.5117188 h -1.90625 V 9.3515625 H 9.8808594 V 7.2304687 h 0.6269536 z m 15.874999,0 h 2.13086 V 9.3515625 H 25.746094 V 7.8574219 h 0.636718 z m 0.238282,0.2382813 v 1.0332031 h 1.654297 V 7.6503906 6.8183594 Z m -5.71875,0.00586 v 2.2812501 h 1.039062 V 8.9042969 6.8242187 Z m -10.166016,0.00586 v 1.0390625 h 1.039063 V 7.6699219 6.8300781 Z M 27.021484,7.21875 H 27.875 v 0.2324219 h -0.853516 z m -5.71875,0.00586 h 0.238282 V 8.7050787 H 21.302734 Z M 11.136719,7.23047 H 11.375 v 0.2402344 h -0.238281 z m 12.3125,0.2265625 V 7.65625 8.484375 h 1.654297 V 7.4570312 Z m 0.40039,0.4003907 h 0.853516 v 0.2265625 h -0.853516 z m 2.771485,0.2207031 v 1.0332031 h 1.654297 V 8.9121094 8.078125 Z m 0.40039,0.4003906 H 27.875 v 0.234375 h -0.853516 z"
     id="path1116" />
  <path
     style="color:#000000;fill:#ffffff;stroke-miterlimit:10;-inkscape-stroke:none"
     d="m 29.488281,3.3515625 v 0.5 1.1328125 h 1.632813 V 3.3515625 Z"
     id="path1119" />
  <path
     style="color:#000000;fill:#ffffff;stroke-miterlimit:10;-inkscape-stroke:none"
     d="m 30.121094,3.9824219 v 0.5 1.1328125 h 1.632812 V 3.9824219 Z"
     id="path1122" />
  <path
     style="color:#000000;fill:#ffffff;stroke-miterlimit:10;-inkscape-stroke:none"
     d="m 30.753906,4.6152344 v 0.5 1.1328125 h 1.632813 V 4.6152344 Z"
     id="path1125" />
  <path
     style="color:#000000;fill:#ffffff;stroke-miterlimit:10;-inkscape-stroke:none"
     d="m 30.121094,5.2480469 v 0.5 1.1347656 h 1.632812 V 5.2480469 Z"
     id="path1128" />
  <path
     style="color:#000000;fill:#ffffff;stroke-miterlimit:10;-inkscape-stroke:none"
     d="m 29.488281,5.8789062 v 0.5 1.1328125 h 1.632813 V 5.8789062 Z"
     id="path1131" />
  <path
     style="color:#000000;fill:#ffffff;stroke-miterlimit:10;-inkscape-stroke:none"
     d="m 28.855469,5.2480469 v 0.5 1.1347656 h 1.632812 V 5.2480469 Z"
     id="path1134" />
  <path
     style="color:#000000;fill:#ffffff;stroke-miterlimit:10;-inkscape-stroke:none"
     d="m 28.224609,4.6152344 v 0.5 1.1328125 h 1.632813 V 4.6152344 Z"
     id="path1137" />
  <path
     style="color:#000000;fill:#ffffff;stroke-miterlimit:10;-inkscape-stroke:none"
     d="m 29.105469,4.2324219 v 0.25 0.8828125 h 1.132812 V 4.2324219 Z m 0.5,0.5 h 0.132812 v 0.1328125 h -0.132812 z"
     id="path1140" />
  <g
     fill="#aca8a6"
     id="g24"
     transform="translate(-172.72,-4.71)"
     style="fill:#ffffff;stroke:#ffffff;stroke-width:0.4;stroke-miterlimit:10">
    <path
       style="color:#000000;fill:#ffffff;stroke:none;-inkscape-stroke:none"
       d="m 230.2207,11.023438 v 3.634765 h 0.20117 1.92188 v -3.634765 h -0.97461 v 1.941406 h -0.17383 v -1.941406 z m 2.29883,0 v 3.634765 h 0.20117 1.92188 v -3.634765 h -0.97266 v 1.941406 h -0.17578 v -1.941406 z m 2.29883,0 v 3.634765 h 0.19922 1.92383 v -3.634765 h -0.97461 v 1.941406 h -0.17383 v -1.941406 z m 4.5957,0 v 3.634765 h 0.20117 0.77539 v -1.294922 h 1.14844 v -2.339843 z m 2.29883,0 v 1.046875 h 0.57422 v 1.541015 h -0.57422 v 1.046875 h 0.19922 1.92578 v -1.046875 h -0.57422 v -1.541015 h 0.57422 v -1.046875 z m 2.87305,0 v 0.646484 h -0.57422 v 2.341797 h 0.20117 0.37305 v 0.646484 h 0.19922 1.34961 v -1.046875 h -1.14844 v -1.541015 h 1.14844 v -1.046875 z m 2.29883,0 v 0.646484 h -0.57422 v 2.988281 h 0.19922 1.3496 v -0.646484 h 0.57422 v -2.988281 z m 4.02148,0 v 3.634765 h 0.20117 1.92383 v -3.634765 z m 5.17187,0 v 0.646484 h -0.57421 v 2.341797 h 0.19921 0.375 v 0.646484 h 0.19922 1.34961 v -1.046875 h -1.14843 v -1.541015 h 1.14843 v -1.046875 z m 2.29883,0 v 0.646484 h -0.57422 v 2.988281 h 0.20118 1.34765 v -0.646484 h 0.57422 v -2.988281 z m 1.72461,0 v 3.634765 h 0.19922 0.77539 v -1.941406 h 0.17578 v 1.941406 h 0.97266 v -3.634765 z m -29.48047,0.40039 h 0.17383 v 1.939453 h 0.97461 v -1.939453 h 0.17383 v 2.833985 h -1.32227 z m 2.29883,0 h 0.17383 v 1.939453 h 0.97461 v -1.939453 h 0.17383 v 2.833985 h -1.32227 z m 2.29883,0 h 0.17383 v 1.939453 h 0.97461 v -1.939453 h 0.17383 v 2.833985 h -1.32227 z m 4.5957,0 h 1.32422 v 1.541016 h -1.14844 v 1.292969 h -0.17578 z m 2.29883,0 h 1.32422 v 0.246094 h -0.57422 v 2.341797 h 0.57422 v 0.246094 h -1.32422 v -0.246094 h 0.57422 v -2.341797 h -0.57422 z m 2.87305,0 h 0.74804 v 0.246094 h -0.74804 z m 2.29687,0 h 0.75 v 2.1875 h -0.17383 v -1.941406 h -0.57617 z m 4.02344,0 h 1.32422 v 2.833985 h -1.32422 z m 5.17188,0 h 0.74804 v 0.246094 h -0.74804 z m 2.29882,0 h 0.74805 v 2.1875 h -0.17383 v -1.941406 h -0.57422 z m 1.72461,0 h 1.32227 v 2.833985 h -0.17383 v -1.941407 h -0.97461 v 1.941407 h -0.17383 z m -20.51172,0.246094 v 1.046875 h 0.97461 v -0.199219 -0.847656 z m 11.49219,0 v 1.046875 h 0.97461 v -0.199219 -0.847656 z m -11.0918,0.400391 h 0.17383 v 0.246093 h -0.17383 z m 4.02149,0 h 0.17383 v 1.541015 h -0.17383 z m 2.29883,0 h 0.17383 v 1.941406 h 0.57421 v 0.246094 h -0.74804 z m 0.57226,0 h 0.17578 v 1.541015 h -0.17578 z m 4.59961,0 h 0.17383 v 0.246093 h -0.17383 z m 4.02149,0 h 0.17382 v 1.541015 h -0.17382 z m 2.29882,0 h 0.17383 v 1.941406 h 0.57422 v 0.246094 h -0.74805 z m 0.57422,0 h 0.17383 v 1.541015 h -0.17383 z m -10.16797,0.246093 v 1.046875 h 0.19922 1.92383 v -1.046875 z m 0.4004,0.400391 h 1.32226 v 0.248047 h -1.32226 z m 2.47265,0.248047 v 1.046875 h 0.97461 v -0.201172 -0.845703 z m 0.40039,0.398437 h 0.17383 v 0.248047 h -0.17383 z m -14.1914,0.248047 v 1.046875 h 0.19921 0.7754 v -1.046875 z m 16.08789,0 v 1.046875 h 0.19922 0.77539 v -1.046875 z m -15.6875,0.400391 h 0.17382 v 0.246094 h -0.17382 z m 6.89453,0 h 0.74804 v 0.246094 h -0.74804 z m 9.19336,0 h 0.17383 v 0.246094 h -0.17383 z m 2.29883,0 h 0.74804 v 0.246094 h -0.74804 z"
       id="path1143" />
  </g>
  <linearGradient
     id="a"
     gradientUnits="userSpaceOnUse"
     x1="222.213"
     y1="99.203003"
     x2="222.213"
     y2="19.579"
     gradientTransform="translate(-173.22,-5.21)">
    <stop
       offset="0"
       stop-color="#008449"
       id="stop26" />
    <stop
       offset="1"
       stop-color="#4ba3db"
       id="stop28" />
  </linearGradient>
  <path
     style="color:#000000;fill:#ffffff;stroke-miterlimit:10;-inkscape-stroke:none"
     d="m 9.1816406,14.369141 v 0.5 80.123046 H 89.804687 V 14.369141 Z m 1.0000004,1 H 88.804687 V 93.992187 H 10.181641 Z"
     id="path1146" />
  <path
     style="color:#000000;fill:#ffffff;stroke-miterlimit:10;-inkscape-stroke:none"
     d="m 9.1816406,101.04492 v 0.5 19.76172 H 89.804687 v -20.26172 z m 1.0000004,1 h 78.623046 v 18.26172 H 10.181641 Z"
     id="path1149" />
  <g
     fill="#aca8a6"
     id="g37"
     transform="translate(-172.72,-4.71)"
     style="fill:#ffffff;stroke:#ffffff;stroke-width:0.4;stroke-miterlimit:10">
    <path
       style="color:#000000;fill:#ffffff;stroke:none;-inkscape-stroke:none"
       d="m 184.03906,120.55078 v 3.63477 h 0.19922 0.82031 v -1.29297 h 1.24219 v -2.3418 z m 2.48047,0 v 1.04688 h 0.62109 v 1.54101 h -0.62109 v 1.04688 h 0.20117 2.06055 v -1.04688 h -0.62109 v -1.54101 h 0.62109 v -1.04688 z m 3.10156,0 v 0.64649 h -0.61914 v 2.34179 h 0.19922 0.41992 v 0.64649 h 0.19922 1.44141 v -1.04688 h -1.24024 v -1.54101 h 1.24024 v -1.04688 z m 2.48047,0 v 0.64649 h -0.61914 v 2.98828 h 0.19922 1.44141 v -0.64649 h 0.61914 v -2.98828 z m 4.3418,0 v 3.63477 h 0.20117 2.06055 v -3.63477 z m 5.58203,0 v 0.64649 h -0.62109 v 2.34179 h 0.20117 0.41992 v 0.64649 h 0.20117 1.44141 v -1.04688 h -1.24219 v -1.54101 h 1.24219 v -1.04688 z m 1.86133,0 v 3.63477 h 0.19922 0.82031 v -1.29297 h 0.2207 v 1.29297 h 1.01953 v -3.63477 z m 2.48047,0 v 3.63477 h 0.20117 0.82031 v -1.29297 h 0.2207 v 1.29297 h 0.19922 0.82032 v -1.69336 h -0.61914 v -0.24805 h 0.61914 v -1.69336 z m 2.48242,0 v 1.04688 h 0.61914 v 2.58789 h 0.20117 0.82031 v -2.58789 h 0.61914 v -1.04688 z m 2.48047,0 v 3.63477 h 0.19922 0.82031 v -1.29297 h 0.2207 v 1.29297 h 0.20117 0.82032 v -1.69336 h -0.6211 v -0.24805 h 0.6211 v -1.69336 z m 2.48047,0 v 1.04688 h 0.62109 v 1.54101 h -0.62109 v 1.04688 h 0.20117 2.06055 v -1.04688 h -0.6211 v -1.54101 h 0.6211 v -1.04688 z m 2.48242,0 v 3.63477 h 0.19922 2.06054 v -2.98828 h -0.61914 v -0.64649 z m 3.09961,0 v 0.64649 h -0.61914 v 2.98828 h 0.19922 2.06054 v -1.69336 h -1.01953 v 0.64648 h -0.2207 v -1.54101 h 1.24023 v -1.04688 z m 1.86133,0 v 3.63477 h 0.19921 2.0625 v -1.04688 h -1.24218 v -0.24609 h 0.62109 v -1.04688 h -0.62109 v -0.24804 h 1.24218 v -1.04688 z m -36.81446,0.40039 h 1.46094 v 1.54102 h -1.24219 v 1.29297 h -0.21875 z m 2.48047,0 h 1.46094 v 0.2461 h -0.61914 v 2.34179 h 0.61914 v 0.2461 h -1.46094 v -0.2461 h 0.61914 v -2.34179 h -0.61914 z m 3.10156,0 h 0.83985 v 0.2461 h -0.83985 z m 2.48047,0 h 0.83985 v 2.1875 h -0.21875 -0.002 v -1.9414 h -0.61914 z m 4.3418,0 h 1.46094 v 2.83399 h -1.46094 z m 5.58203,0 h 0.8418 v 0.2461 h -0.8418 z m 1.85938,0 h 1.46093 v 2.83399 h -0.21875 v -1.29297 h -1.02148 v 1.29297 h -0.2207 z m 2.48242,0 h 1.46094 v 0.89453 h -0.21875 v -0.64843 h -1.02149 v 1.04687 h 0.62109 v 0.24805 h -0.62109 v 1.29297 h -0.2207 z m 2.48047,0 h 1.46289 v 0.2461 h -0.6211 v 2.58789 h -0.2207 v -2.58789 h -0.62109 z m 2.48242,0 h 1.46094 v 0.89453 h -0.22071 v -0.64843 h -1.02148 v 1.04687 h 0.62109 v 0.24805 h -0.62109 v 1.29297 h -0.21875 z m 2.48047,0 h 1.46093 v 0.2461 h -0.61914 v 2.34179 h 0.61914 v 0.2461 h -1.46093 v -0.2461 h 0.61914 v -2.34179 h -0.61914 z m 2.48047,0 h 0.84179 v 0.2461 h -0.62109 v 2.34179 h 1.02148 v -1.9414 h 0.21875 v 2.1875 h -1.46093 z m 3.10156,0 h 0.8418 v 0.2461 h -0.8418 z m 1.86133,0 h 1.46093 v 0.2461 h -1.24218 v 1.04687 h 0.62109 v 0.24805 h -0.62109 v 1.04687 h 1.24218 v 0.2461 h -1.46093 z m -36.9961,0.2461 v 1.04687 h 1.02149 v -0.19922 -0.84765 z m 12.4043,0 v 1.04687 h 1.02148 v -0.19922 -0.84765 z m 7.44336,0 v 1.04687 h 1.02148 v -0.19922 -0.84765 z m -19.44727,0.40039 h 0.22071 v 0.24804 h -0.22071 z m 4.3418,0 h 0.2207 v 1.54101 h -0.2207 z m 2.48242,0 h 0.21875 v 1.9414 h 0.6211 v 0.2461 h -0.83985 z m 0.61914,0 h 0.22071 v 1.54101 h -0.22071 z m 4.96094,0 h 0.2207 v 0.24804 h -0.2207 z m 4.3418,0 h 0.2207 v 1.54101 h -0.2207 z m 3.10156,0 h 0.2207 v 0.24804 h -0.2207 z m 2.48242,0 h 0.2207 v 0.24804 h -0.2207 z m 4.96094,0 h 0.2207 v 0.24804 h -0.2207 z m 4.96289,0 h 0.2207 v 1.54101 h -0.2207 z m 1.86133,0 h 0.21875 v 1.9414 h 1.02148 v -0.64648 h 0.22071 v 0.89258 h -1.46094 z m -25.21094,0.24804 v 1.04688 h 0.19922 2.0625 v -1.04688 z m 0.40039,0.39844 h 1.46094 v 0.24805 h -1.46094 z m 2.69922,0.24805 v 1.04687 h 1.02148 v -0.19922 -0.84765 z m 0.40039,0.40039 h 0.2207 v 0.24609 h -0.2207 z m 10.54688,0 h 0.21875 v 0.89258 h -0.21875 z m 4.96093,0 h 0.22071 v 0.89258 h -0.22071 z m -22.94922,0.64648 h 0.83985 v 0.2461 h -0.83985 z m 12.4043,0 h 0.8418 v 0.2461 h -0.8418 z"
       id="path1152" />
  </g>
</svg>
