<?xml version="1.0" encoding="UTF-8" standalone="no"?>
<svg
   viewBox="0 0 180.04327 223.68204"
   version="1.1"
   id="svg153"
   sodipodi:docname="pokemini_controller.svg"
   width="180.04327"
   height="223.68204"
   inkscape:version="1.1.2 (0a00cf5339, 2022-02-04)"
   xmlns:inkscape="http://www.inkscape.org/namespaces/inkscape"
   xmlns:sodipodi="http://sodipodi.sourceforge.net/DTD/sodipodi-0.dtd"
   xmlns="http://www.w3.org/2000/svg"
   xmlns:svg="http://www.w3.org/2000/svg">
  <defs
     id="defs157" />
  <sodipodi:namedview
     id="namedview155"
     pagecolor="#ffffff"
     bordercolor="#666666"
     borderopacity="1.0"
     inkscape:pageshadow="2"
     inkscape:pageopacity="0.0"
     inkscape:pagecheckerboard="true"
     showgrid="false"
     fit-margin-top="0"
     fit-margin-left="0"
     fit-margin-right="0"
     fit-margin-bottom="0"
     inkscape:zoom="3.70778"
     inkscape:cx="90.215708"
     inkscape:cy="111.92681"
     inkscape:window-width="2560"
     inkscape:window-height="1440"
     inkscape:window-x="1920"
     inkscape:window-y="0"
     inkscape:window-maximized="1"
     inkscape:current-layer="svg153" />
  <path
     style="color:#000000;fill:#ffffff;stroke-miterlimit:10;-inkscape-stroke:none"
     d="M 87.787109,0.01367188 C 76.257119,-0.03382808 61.805813,-0.10262715 48.4375,2.5742188 35.069187,5.2510646 22.698305,10.703674 15.605469,21.808594 c -1.916281,2.99953 -3.183854,6.050997 -5.460938,15.298828 -6.5362093,26.537232 -7.7314238,48.050377 -8.7656248,68.857418 -1.29875474,26.14113 -1.97173927,43.59682 -0.69726558,56.45703 1.27447368,12.86022 4.56322618,21.18374 11.09765638,28.66602 0.481466,0.5523 0.9375,1.04297 0.9375,1.04297 l 0.002,0.004 0.002,0.002 c 8.126981,8.61795 19.500288,10.11342 26.441406,10.95312 19.291303,2.3337 30.308594,3.00586 30.308594,3.00586 25.031657,1.52576 37.335587,3.04466 44.873047,4.48438 16.27339,3.10758 18.01633,4.25481 24.76758,7.9414 0.25481,0.13923 0.82459,0.41509 1.73242,0.84571 0.90783,0.43061 2.08605,0.97825 3.32227,1.5332 2.47242,1.1099 5.04891,2.23309 6.53125,2.55078 0,0 8.15963,1.70285 17.37109,-4.13476 4.56976,-2.89592 7.3714,-9.27335 9.19336,-18.05664 1.82196,-8.7833 2.61561,-20.06249 2.75781,-32.96485 0.28439,-25.80419 -2.05641,-58.09275 -4.24023,-89.515623 v -0.002 c -0.0821,-1.186874 -0.21318,-3.076703 -0.47071,-5.597657 C 174.2766,63.087748 171.3022,32.629539 158.05664,16.462891 151.38712,8.3225576 142.31399,4.2254472 130.72266,2.1796875 119.13132,0.13392775 104.96959,0.08467178 87.787109,0.01367188 Z m -0.0098,2.00000002 c 17.182486,0.071 31.277006,0.1387326 42.597656,2.1367187 11.32065,1.9979861 19.81534,5.8694274 26.13281,13.5800784 12.54642,15.313319 15.77855,45.560303 16.81055,55.652343 0.25438,2.490168 0.38485,4.348004 0.4668,5.533204 2.18413,31.427454 4.51723,63.692194 4.23437,89.357424 -0.14143,12.83261 -0.94073,24.01801 -2.7168,32.58008 -1.77606,8.56206 -4.57691,14.40986 -8.30664,16.77343 -8.62251,5.46438 -15.8789,3.86719 -15.8789,3.86719 -0.90666,-0.19431 -3.69224,-1.32237 -6.13282,-2.41797 -1.22028,-0.5478 -2.38678,-1.09238 -3.2832,-1.51758 -0.89641,-0.42519 -1.58917,-0.77019 -1.63086,-0.79297 -6.73042,-3.67522 -9.01113,-5.03029 -25.34961,-8.15039 h -0.002 c -7.67663,-1.46619 -20.054204,-2.98747 -45.125,-4.51562 0,0 -10.944747,-0.66584 -30.191406,-2.99414 -6.91109,-0.83608 -17.65601,-2.31738 -25.220703,-10.33399 l -0.002,-0.002 c -0.0013,-0.001 -0.0026,-0.003 -0.0039,-0.004 -0.0054,-0.006 -0.436908,-0.47171 -0.890625,-0.99218 C 7.0105994,182.58873 3.9218987,174.83811 2.671875,162.22461 1.4218513,149.6111 2.0767574,132.19332 3.375,106.0625 4.408797,85.263583 5.5981136,63.934652 12.087891,37.585937 14.348802,28.403787 15.4853,25.71123 17.291016,22.884766 23.975166,12.419707 35.741168,7.1580081 48.830078,4.5371094 61.918988,1.9162107 76.247357,1.9661719 87.777344,2.0136719 Z"
     id="path2" />
  <path
     style="color:#000000;fill:#ffffff;stroke-miterlimit:10;-inkscape-stroke:none"
     d="m 91.804687,140.46094 c -8.272418,0 -15,6.72758 -15,15 0,8.27242 6.727582,15 15,15 8.272423,0 15.000003,-6.72758 15.000003,-15 0,-8.27242 -6.72758,-15 -15.000003,-15 z m 0,2 c 7.19154,0 13.000003,5.80846 13.000003,13 0,7.19154 -5.808463,13 -13.000003,13 -7.191539,0 -12.999999,-5.80846 -13,-13 0,-7.19154 5.808461,-13 13,-13 z"
     id="circle4" />
  <g
     fill="#7b7677"
     id="g8"
     style="fill:none;stroke:#ffffff;stroke-width:2;stroke-miterlimit:10"
     transform="translate(1.0021392,1.0005484)">
    <path
       style="color:#000000;fill:#ffffff;stroke:none;-inkscape-stroke:none"
       d="m 90.378906,143.60547 -1.146484,0.16992 c -4.679589,0.68907 -8.372123,4.34997 -9.101563,9.02344 l -0.18164,1.15429 h 4.46875 l 0.167968,-0.79296 c 0.521039,-2.47895 2.456741,-4.40758 4.9375,-4.91993 l 0.855469,-0.16211 z m 0.847656,0 v 4.46484 l 0.804688,0.16016 c 2.502928,0.49591 4.463178,2.43272 4.988281,4.92969 l 0.166016,0.79296 h 4.468753 l -0.17969,-1.15429 c -0.72944,-4.67347 -4.423928,-8.33437 -9.103516,-9.02344 z m -2.847656,2.51172 v 0.30273 l 0.740235,-0.13867 c -2.972059,0.61381 -5.284641,2.82257 -6.197266,5.67187 h -0.439453 c 0.860715,-2.84144 3.046096,-5.00345 5.896484,-5.83593 z m 4.847656,0 c 2.850388,0.83248 5.033817,2.99449 5.894532,5.83593 h -0.439453 c -0.832305,-2.59708 -2.849675,-4.59181 -5.455079,-5.39648 z m -13.28125,8.68359 0.158204,1.13672 c 0.658219,4.75299 4.381792,8.50966 9.128906,9.20898 l 1.146484,0.16993 v -4.46485 l -0.804687,-0.16015 c -2.555506,-0.50627 -4.539158,-2.51299 -5.015625,-5.07422 l -0.152344,-0.81641 z m 17.253907,0 -0.152344,0.81641 c -0.476467,2.56123 -2.460119,4.56795 -5.015625,5.07422 l -0.804688,0.16015 v 0.82227 3.64258 l 1.144532,-0.16993 c 4.747114,-0.69932 8.472636,-4.45599 9.130856,-9.20898 l 0.15625,-1.13672 z m -14.763672,2 H 82.875 c 0.794329,2.67281 2.839526,4.73933 5.503906,5.5625 v 0.43945 c -2.909042,-0.8501 -5.122819,-3.08378 -5.943359,-6.00195 z m 16.294922,0 h 0.4375 c -0.82054,2.91817 -3.032365,5.15185 -5.941407,6.00195 v -0.43945 c 2.66438,-0.82317 4.709578,-2.88969 5.503907,-5.5625 z"
       id="path6" />
  </g>
  <g
     fill="#898784"
     stroke="#4c4c4c"
     stroke-width="0.01"
     stroke-miterlimit="10"
     id="g12"
     style="fill:none;stroke:#ffffff;stroke-width:2;stroke-miterlimit:10"
     transform="translate(1.0021392,1.0005484)">
    <path
       style="color:#000000;fill:#ffffff;stroke:none;-inkscape-stroke:none"
       d="m 91.179687,134.80273 -0.359375,0.92188 h -0.613281 l -0.486328,1.26172 -0.484375,-1.26172 h -2.757812 l 0.04102,0.10742 c -0.296685,-0.0816 -0.593973,-0.17187 -0.90625,-0.17187 -0.822705,0 -1.607126,0.31462 -2.205078,0.85742 -0.04474,-0.0526 -0.02589,-0.13798 -0.07617,-0.18555 -0.443985,-0.41993 -1.063596,-0.61523 -1.65625,-0.61523 h -2.34375 v 4.42382 1.00196 h 1.998047 l -0.998047,0.99804 h 1.609375 v -2.00585 c 0.251555,-0.028 0.512874,-0.0216 0.75586,-0.12305 h 0.002 c 0.02271,-0.009 0.03239,-0.0367 0.05469,-0.0469 0.155633,0.4493 0.18275,0.95461 0.519531,1.29297 h 0.002 c 0.602016,0.60343 1.442422,0.93555 2.304687,0.93555 0.882253,0 1.737612,-0.32044 2.359375,-0.92383 h 0.002 c 0.186017,-0.18094 0.293552,-0.41908 0.427735,-0.63867 l 0.589843,1.53125 H 89.5625 l 0.150391,0.39258 0.152343,-0.39258 h 0.59375 l 0.710938,-1.82617 0.705078,1.82617 h 0.626953 l 0.15625,0.40039 0.152344,-0.40039 h 0.568359 l 0.5,-1.29492 v 1.26953 h 4.128906 l -0.0039,0.004 h 1.607422 v -0.61523 l 0.390626,0.61523 h 3.21094 l -1.3457,-1.88867 -0.004,-0.008 c -0.0618,-0.0886 -0.16982,-0.25684 -0.30859,-0.49219 h 0.002 c -0.16446,-0.27973 -0.28938,-0.45075 -0.42187,-0.64258 0.21482,-0.35162 0.33203,-0.75922 0.33203,-1.15625 0,-0.59895 -0.25302,-1.23855 -0.7168,-1.64648 -0.46488,-0.41117 -1.083658,-0.58203 -1.683598,-0.58203 H 98.283169 97.003872 95.8652 93.878872 93.113247 l -0.246094,0.64453 -0.230468,0.60938 -0.486328,-1.25391 h -0.615235 z m 9.658203,3.13282 v 0.0137 c 0,-0.002 -0.002,-0.004 -0.002,-0.006 -3e-5,-0.003 0.002,-0.005 0.002,-0.008 z m -15.199218,0.32617 c 0.231014,0 0.309374,0.0346 0.455078,0.18164 0.145094,0.14647 0.185547,0.23559 0.185547,0.47851 0,0.25829 -0.04738,0.35833 -0.189453,0.50391 -0.14165,0.14434 -0.226033,0.18555 -0.470703,0.18555 -0.244468,0 -0.328337,-0.0419 -0.464844,-0.17969 -0.136709,-0.13802 -0.179688,-0.2268 -0.179688,-0.48437 0,-0.27919 0.04967,-0.37655 0.179688,-0.50782 0.129612,-0.13127 0.216557,-0.17773 0.484375,-0.17773 z m 12.701172,2.88086 h 0.662109 l -0.662109,0.66211 z"
       id="path10" />
  </g>
  <path
     style="color:#000000;fill:#ffffff;stroke-miterlimit:10;-inkscape-stroke:none"
     d="m 91.804687,149.41016 c -3.284739,0 -5.968749,2.68401 -5.96875,5.96875 0,3.28474 2.684011,5.96875 5.96875,5.96875 3.28474,0 5.96875,-2.68401 5.96875,-5.96875 0,-3.28474 -2.68401,-5.96875 -5.96875,-5.96875 z m 0,2 c 2.203861,0 3.968751,1.76489 3.96875,3.96875 0,2.20386 -1.764889,3.96875 -3.96875,3.96875 -2.20386,0 -3.96875,-1.76489 -3.96875,-3.96875 0,-2.20386 1.76489,-3.96875 3.96875,-3.96875 z"
     id="circle14" />
  <path
     style="color:#000000;fill:#ffffff;stroke-miterlimit:10;-inkscape-stroke:none"
     d="m 91.804687,169.75 c -6.738724,0 -12.222656,5.48393 -12.222656,12.22266 0,6.73872 5.483932,12.22265 12.222656,12.22265 6.738725,0 12.222653,-5.48393 12.222653,-12.22265 0,-6.73873 -5.483928,-12.22266 -12.222653,-12.22266 z m 0,2 c 5.657846,0 10.222653,4.56481 10.222653,10.22266 0,5.65784 -4.564807,10.22265 -10.222653,10.22265 -5.657845,0 -10.222656,-4.56481 -10.222656,-10.22265 0,-5.65785 4.564811,-10.22266 10.222656,-10.22266 z"
     id="circle16" />
  <g
     fill="#7b7677"
     id="g20"
     style="fill:none;stroke:#ffffff;stroke-width:2;stroke-miterlimit:10"
     transform="translate(1.0021392,1.0005484)">
    <path
       style="color:#000000;fill:#ffffff;stroke:none;-inkscape-stroke:none"
       d="m 90.660156,172.03906 -1.146484,0.16797 c -3.836472,0.56527 -6.865065,3.57081 -7.462891,7.40234 l -0.18164,1.1543 h 3.976562 l 0.166016,-0.79492 c 0.40218,-1.91035 1.892857,-3.39594 3.804687,-3.79102 h 0.0078 l 0.0078,-0.002 0.828125,-0.18555 z m 0.285156,0 -0.002,3.97266 0.806641,0.16015 c 1.928858,0.38238 3.436803,1.87264 3.841797,3.79688 l 0.167969,0.79492 h 3.974609 l -0.179688,-1.1543 c -0.597825,-3.83153 -3.628371,-6.83707 -7.464843,-7.40234 z m -9.074218,9.00781 0.158203,1.13672 c 0.539234,3.89703 3.594049,6.97827 7.486328,7.55078 l 1.144531,0.16797 v -3.9707 l -0.804687,-0.16016 c -1.969609,-0.38996 -3.498019,-1.93422 -3.865235,-3.9082 l -0.15039,-0.81641 z m 13.894531,0 -0.152344,0.81641 c -0.367215,1.97398 -1.893672,3.51824 -3.863281,3.9082 l -0.806641,0.16016 v 0.82227 3.14843 l 1.146485,-0.16797 c 3.892278,-0.57251 6.947094,-3.65375 7.486328,-7.55078 l 0.158203,-1.13672 z"
       id="path18" />
  </g>
  <path
     style="color:#000000;fill:#ffffff;stroke-miterlimit:10;-inkscape-stroke:none"
     d="m 91.804687,176.92187 c -2.740187,0 -4.982421,2.24419 -4.982421,4.98438 0,2.74019 2.242234,4.98242 4.982421,4.98242 2.740188,0 4.984375,-2.24223 4.984375,-4.98242 0,-2.74019 -2.244187,-4.98437 -4.984375,-4.98438 z m 0,2 c 1.659309,0 2.984375,1.32507 2.984375,2.98438 0,1.65931 -1.325066,2.98242 -2.984375,2.98242 -1.659308,0 -2.982421,-1.32311 -2.982421,-2.98242 0,-1.65931 1.323113,-2.98437 2.982421,-2.98438 z"
     id="circle22" />
  <g
     fill="#898784"
     stroke="#4c4c4c"
     stroke-width="0.01"
     stroke-miterlimit="10"
     id="g26"
     style="fill:none;stroke:#ffffff;stroke-width:2;stroke-miterlimit:10"
     transform="translate(1.0021392,1.0005484)">
    <path
       style="color:#000000;fill:#ffffff;stroke:none;-inkscape-stroke:none"
       d="m 90.695312,168.74805 c -0.26473,0 -0.485098,0.19262 -0.742187,0.27929 v -0.2207 h -4.404297 v 0.57813 c -0.463935,-0.40594 -1.075477,-0.57813 -1.671875,-0.57813 H 81.8125 v 4.41602 1.00195 h 1.998047 l -0.998047,0.99805 h 1.607422 v -0.61524 l 0.390625,0.61524 h 3.21289 l -0.002,-0.004 h 1.988282 v -0.15039 c 0.208898,0.0495 0.38294,0.20898 0.597656,0.20898 0.321015,0 0.593562,-0.21776 0.896484,-0.34961 v 0.29102 h 4.201172 v 0.006 h 2.609375 v -3.86133 h 1.478516 v -2.5625 h -5.541016 v 0.006 h -2.748047 v 0.19922 c -0.272641,-0.0911 -0.521548,-0.25781 -0.808594,-0.25781 z m -0.01172,0.57031 0.04102,0.002 c -0.0076,-3.1e-4 -0.01387,0.006 -0.02148,0.006 -0.0073,-8e-5 -0.01225,-0.008 -0.01953,-0.008 z"
       id="path24" />
  </g>
  <path
     style="color:#000000;fill:#ffffff;stroke-miterlimit:10;-inkscape-stroke:none"
     d="m 90.021484,7.8476562 c -1.220184,0 -2.226562,1.0071521 -2.226562,2.2285158 v 16.710937 c 0.003,1.216238 1.008372,2.223602 2.224609,2.226563 h 0.002 0.002 c 1.217039,-0.002 2.224586,-1.009524 2.226563,-2.226563 V 10.076172 c 0,-1.220184 -1.007152,-2.2285158 -2.228516,-2.2285158 z M 67.623047,8.3457031 c -1.255539,0 -2.291016,1.0362599 -2.291016,2.2929689 v 0.0098 l 0.09766,4.833984 0.0332,0.123047 1.080078,3.853515 0.002,0.002 c 0.340897,1.203547 1.614898,1.92017 2.820312,1.585938 l 0.002,-0.002 h 0.0039 c 1.203546,-0.340897 1.920169,-1.616851 1.585937,-2.822266 l -1.041015,-3.720703 v -3.863281 c 0,-1.2555387 -1.03626,-2.2929689 -2.292969,-2.2929689 z m 44.798833,0 c -1.25671,0 -2.29102,1.0374302 -2.29102,2.2929689 v 3.863281 l -1.04297,3.720703 c -0.33423,1.205415 0.38239,2.481369 1.58594,2.822266 h 0.004 l 0.002,0.002 c 1.20541,0.334232 2.48137,-0.382391 2.82226,-1.585938 v -0.002 l 1.11524,-3.976562 0.002,-0.126953 0.0957,-4.707031 v -0.0098 c 0,-1.256709 -1.03743,-2.2929689 -2.29296,-2.2929689 z M 90.021484,9.8476563 c 0.130635,0 0.228516,0.098702 0.228516,0.2285157 v 16.707031 c -2.23e-4,0.13728 -0.09009,0.226765 -0.226563,0.228516 -0.136241,-0.0019 -0.227421,-0.08992 -0.228515,-0.226563 v -0.002 -16.707031 c 0,-0.1306344 0.09675,-0.2285157 0.226562,-0.2285157 z M 67.623047,10.345703 c 0.165289,0 0.292969,0.12851 0.292969,0.292969 v 4.136719 l 1.113281,3.984375 c 0.04475,0.164998 -0.03801,0.308651 -0.201172,0.357421 -0.166273,0.04453 -0.312279,-0.03685 -0.359375,-0.203125 l -1.044922,-3.724609 -0.09375,-4.570312 0.002,0.01953 c 0,-0.165289 0.126556,-0.292969 0.291016,-0.292969 z m 44.798833,0 c 0.16445,0 0.29296,0.12768 0.29296,0.292969 l -0.0937,4.550781 -1.04492,3.724609 c -0.0471,0.166273 -0.1931,0.247653 -0.35937,0.203125 -0.16316,-0.04877 -0.24593,-0.192423 -0.20117,-0.357421 v -0.002 l 1.11523,-3.982421 v -4.136719 c 0,-0.164459 0.12573,-0.292969 0.29102,-0.292969 z m 49.90039,88.958984 v 1.000003 15.5957 h 5.32812 V 99.304687 Z m 2,2.000003 h 1.32812 v 12.5957 h -1.32812 z m -162.5546919,16.5 v 2 H 18.197266 v 1.57422 H 1.6113281 v 2 H 20.197266 v -5.57422 z"
     id="path28" />
  <path
     style="color:#000000;fill:#ffffff;stroke-miterlimit:10;-inkscape-stroke:none"
     d="m 162.32227,99.304687 v 5.208983 0.0742 5.20703 h 14.49609 v -2 h -12.49609 v -1.28125 h 12.28515 v -2 h -0.12695 v -1.92578 h -12.1582 v -1.2832 h 11.93945 v -2.000003 z m -7.29688,94.027343 v 29.23828 h 2 v -27.23828 h 1.10352 v 26.71875 h 2 v -28.71875 z"
     id="path30" />
  <path
     style="color:#000000;fill:#ffffff;stroke-miterlimit:10;-inkscape-stroke:none"
     d="m 156.57617,191.78125 v 5.10156 h 20.61133 v -2 h -18.61133 v -1.10156 h 19.03906 v -2 z"
     id="path32" />
  <g
     fill="#91918b"
     id="g40"
     style="fill:none;stroke:#ffffff;stroke-width:2;stroke-miterlimit:10"
     transform="translate(1.0021392,1.0005484)">
    <path
       style="color:#000000;fill:#ffffff;stroke:none;-inkscape-stroke:none"
       d="m 140.23633,125.52734 c -1.02688,0.0545 -2.0329,0.49809 -2.77149,1.31446 l -0.002,0.002 -4.1582,4.62305 -0.002,0.002 c -1.46808,1.64153 -1.33277,4.19102 0.30079,5.66797 h 0.002 l 6.1914,5.56836 9.5293,-10.59571 -6.19336,-5.56835 c -0.82083,-0.73362 -1.86961,-1.06817 -2.89648,-1.01368 z m 0.10547,1.98633 c 0.51353,-0.0273 1.03755,0.14267 1.45703,0.51758 l 4.70117,4.22852 -6.85156,7.62109 -4.70508,-4.23047 c -0.83147,-0.75377 -0.89651,-2.00771 -0.15039,-2.8457 v -0.002 c 6e-4,-6.7e-4 0.001,-0.001 0.002,-0.002 l 4.15625,-4.61914 c 0.37723,-0.41585 0.87796,-0.64076 1.39063,-0.66797 z m -0.26368,1.39453 c -0.64182,0.0341 -1.2708,0.30845 -1.73046,0.81641 l -0.002,0.002 -2.08008,2.31446 h -0.002 c -0.91295,1.02166 -0.82842,2.61973 0.1875,3.53906 h 0.002 l 3.46875,3.11914 5.4336,-6.04102 -0.74414,-0.66797 -2.72461,-2.45117 -0.002,-0.002 c -0.51083,-0.45648 -1.16482,-0.66296 -1.80665,-0.62891 z m 0.47461,2.1211 1.97852,1.77929 -2.75977,3.06641 -1.97656,-1.7793 c -0.21776,-0.19705 -0.23475,-0.50171 -0.0391,-0.7207 l 2.07422,-2.30859 c 0.19705,-0.21776 0.50367,-0.2328 0.72265,-0.0371 z m 0.15235,14.51562 -5.88672,5.88867 h -0.002 c -1.55301,1.56144 -1.55301,4.11435 0,5.67578 h 0.002 v 0.002 l 4.39844,4.39844 h 0.002 c 1.56143,1.553 4.1124,1.553 5.67383,0 h 0.002 l 5.88672,-5.88868 z m 0,2.82813 7.24804,7.24804 -4.4707,4.47071 c -0.79712,0.79282 -2.05368,0.79346 -2.85156,0.002 l -0.002,-0.002 -4.39649,-4.39453 c -0.79086,-0.79723 -0.79086,-2.05434 0,-2.85157 l 0.002,-0.002 z m 0.33789,1.16406 -0.70703,0.70703 -2.5918,2.5918 v 0.002 c -0.96467,0.97201 -0.96467,2.56901 0,3.54102 v 0.002 l 2.20117,2.20117 h 0.002 c 0.972,0.96468 2.56901,0.96468 3.54101,0 h 0.002 l 3.29883,-3.29883 z m 0,2.82812 2.91601,2.91797 -1.88086,1.88086 c -0.20858,0.20538 -0.51459,0.20649 -0.72265,0 l -2.19336,-2.19336 c -0.20649,-0.20805 -0.20538,-0.51407 0,-0.72265 5.5e-4,-5.7e-4 -5.6e-4,-0.001 0,-0.002 z"
       id="path34" />
    <path
       style="color:#000000;fill:#ffffff;stroke:none;-inkscape-stroke:none"
       d="m 152.77539,127.10156 c -8.88236,0 -16.125,7.24265 -16.125,16.125 0,8.88142 7.24264,16.125 16.125,16.125 8.88236,0 16.125,-7.24358 16.125,-16.125 0,-8.88235 -7.24264,-16.125 -16.125,-16.125 z m 0,2 c 7.79763,0 14.125,6.32738 14.125,14.125 0,7.79656 -6.32737,14.125 -14.125,14.125 -7.79763,0 -14.125,-6.32844 -14.125,-14.125 0,-7.79762 6.32737,-14.125 14.125,-14.125 z"
       id="path36" />
    <path
       style="color:#000000;fill:#ffffff;stroke:none;-inkscape-stroke:none"
       d="m 163.45312,147.02734 -10.07617,10.07618 5.88867,5.88671 v 0.002 c 1.56144,1.55301 4.11435,1.55301 5.67579,0 v -0.002 h 0.002 l 4.39844,-4.39843 c 1.55301,-1.56144 1.55301,-4.11435 0,-5.67578 v -0.002 z m 0,2.82813 4.47266,4.47265 c 0.79152,0.79789 0.79087,2.0564 -0.002,2.85352 l -4.39258,4.39258 c -0.79712,0.79282 -2.05563,0.79347 -2.85352,0.002 l -0.002,-0.002 -4.4707,-4.4707 z m -0.33789,1.16406 -5.74414,5.74609 0.70703,0.70704 2.5918,2.58984 v 0.002 c 0.97201,0.96468 2.57097,0.96468 3.54297,0 v -0.002 l 2.20117,-2.19922 0.002,-0.002 c 0.96467,-0.97201 0.96467,-2.56901 0,-3.54102 l -0.002,-0.002 z m 0,2.82813 1.88086,1.88086 c 0.20649,0.20805 0.20538,0.51407 0,0.72265 -5.5e-4,5.7e-4 5.6e-4,0.001 0,0.002 l -2.19336,2.19141 c -0.20862,0.20705 -0.51403,0.20705 -0.72265,0 l -1.88086,-1.87891 z"
       id="path38" />
  </g>
  <g
     fill="#84817e"
     id="g46"
     style="fill:none;stroke:#ffffff;stroke-width:2;stroke-miterlimit:10"
     transform="translate(1.0021392,1.0005484)">
    <path
       style="color:#000000;fill:#ffffff;stroke:none;-inkscape-stroke:none"
       d="m 117.5918,144.97266 c -2.20198,0.007 -4.00713,1.80974 -4.01367,4.01171 v 0.002 8.32812 h 14.25 v -8.32812 -0.002 c -0.007,-2.20197 -1.80975,-4.00517 -4.01172,-4.01171 h -0.002 -0.002 -6.21875 z m 0.004,2 h 6.2168 c 1.12437,0.004 2.01228,0.89293 2.01563,2.01757 v 6.32422 h -10.25 v -6.32422 -0.002 c 0.004,-1.12371 0.89386,-2.01125 2.01757,-2.01562 z m 1.55469,0.58398 c -1.37504,0 -2.50781,1.13278 -2.50781,2.50781 v 4.66407 h 8.125 v -1 -3.66407 c 0,-1.37503 -1.13278,-2.50781 -2.50781,-2.50781 z m 0,2 h 3.10938 c 0.28296,0 0.50781,0.22485 0.50781,0.50781 v 2.66407 h -4.125 v -2.66407 c 0,-0.28296 0.22485,-0.50781 0.50781,-0.50781 z m -9.51758,22.23438 -5.30859,6.41601 -0.002,0.002 c -1.39806,1.70097 -1.15729,4.24008 0.53515,5.64844 l 0.002,0.002 4.79296,3.96485 v 0.002 c 1.70062,1.39838 4.24164,1.15688 5.65039,-0.53515 l 5.3086,-6.41797 z m 0.26563,2.81445 7.89844,6.53515 -4.03321,4.87305 c -0.72022,0.86268 -1.9715,0.98159 -2.83984,0.26758 l -4.78906,-3.96289 c -0.8629,-0.72003 -0.98144,-1.97133 -0.26758,-2.83984 z m 0.44531,1.1289 -0.63672,0.76954 -2.33594,2.82421 -0.002,0.002 c -0.86936,1.05843 -0.71857,2.64892 0.33399,3.52539 h 0.002 l 2.39648,1.98437 0.002,0.002 c 1.05842,0.86936 2.64892,0.71857 3.52539,-0.33399 l 0.002,-0.002 2.97266,-3.59375 z m 0.26758,2.81446 3.17578,2.63086 -1.69531,2.04883 c -0.18786,0.22559 -0.4919,0.25469 -0.71875,0.0684 l -2.39063,-1.97851 c -0.2256,-0.18786 -0.25469,-0.49189 -0.0684,-0.71875 z"
       id="path42" />
    <path
       style="color:#000000;fill:#ffffff;stroke:none;-inkscape-stroke:none"
       d="m 121.58984,151.05469 c -8.88235,0 -16.125,7.24264 -16.125,16.125 0,8.88142 7.24265,16.125 16.125,16.125 8.88236,0 16.125,-7.24358 16.125,-16.125 0,-8.88236 -7.24264,-16.125 -16.125,-16.125 z m 0,2 c 7.79763,0 14.125,6.32737 14.125,14.125 0,7.79656 -6.32737,14.125 -14.125,14.125 -7.79762,0 -14.125,-6.32844 -14.125,-14.125 0,-7.79763 6.32738,-14.125 14.125,-14.125 z"
       id="path44" />
  </g>
  <path
     style="color:#000000;fill:#ffffff;stroke-miterlimit:10;-inkscape-stroke:none"
     d="m 122.5918,156.31445 c -6.70173,0 -12.15625,5.45258 -12.15625,12.1543 0,6.70172 5.45452,12.15625 12.15625,12.15625 6.70172,0 12.15625,-5.45453 12.15625,-12.15625 0,-6.70172 -5.45453,-12.1543 -12.15625,-12.1543 z m 0,2 c 5.62084,0 10.15625,4.53346 10.15625,10.1543 0,5.62084 -4.53541,10.15625 -10.15625,10.15625 -5.62085,0 -10.15625,-4.53541 -10.15625,-10.15625 0,-5.62084 4.5354,-10.1543 10.15625,-10.1543 z"
     id="circle48" />
  <path
     style="color:#000000;fill:#ffffff;stroke-miterlimit:10;-inkscape-stroke:none"
     d="m 116.4043,162.75195 v 12.26172 h 3.72656 c 1.05469,0 2.07115,-0.34137 2.79102,-1.07617 0.71986,-0.7348 1.08475,-1.79949 1.08593,-3.01563 0,-0.9208 -0.39842,-1.72086 -0.9707,-2.37109 0.48104,-0.63302 0.79492,-1.3602 0.79492,-2.08789 0,-1.16545 -0.41551,-2.18277 -1.1582,-2.82617 -0.74269,-0.64341 -1.70827,-0.88477 -2.6875,-0.88477 z m 3.42187,3.39063 h 0.20313 c 0.23706,0 0.29408,0.053 0.28515,0.0449 -0.009,-0.008 0.0482,-0.001 0.0488,0.32031 -6.1e-4,0.28369 -0.0597,0.33053 -0.084,0.35352 -0.0244,0.0231 -0.09,0.0684 -0.2793,0.0684 h -0.17383 z m 0,4.16406 h 0.14453 c 0.27283,0 0.38847,0.0658 0.4375,0.11133 0.049,0.0456 0.13086,0.12605 0.13086,0.50195 0,0.4653 -0.10431,0.61383 -0.12695,0.63867 -0.0226,0.0248 -0.0439,0.0625 -0.29492,0.0625 h -0.29102 z"
     id="path50" />
  <path
     style="color:#000000;fill:#ffffff;stroke-miterlimit:10;-inkscape-stroke:none"
     d="m 19.197266,113.25391 c -4.040817,0 -7.337891,3.29707 -7.337891,7.33789 0,4.04081 3.297074,7.33789 7.337891,7.33789 4.040816,0 7.339843,-3.29708 7.339843,-7.33789 0,-4.04082 -3.299027,-7.33789 -7.339843,-7.33789 z m 0,2 c 2.959937,0 5.339843,2.37795 5.339843,5.33789 0,2.95993 -2.379906,5.33789 -5.339843,5.33789 -2.959938,0 -5.337891,-2.37796 -5.337891,-5.33789 0,-2.95994 2.377953,-5.33789 5.337891,-5.33789 z"
     id="circle52" />
  <path
     style="color:#000000;fill:#ffffff;stroke-miterlimit:10;-inkscape-stroke:none"
     d="m 164.98633,107.99414 c -3.80223,0 -6.9043,3.10402 -6.9043,6.90625 0,3.80223 3.10207,6.9043 6.9043,6.9043 3.80223,0 6.90625,-3.10207 6.90625,-6.9043 0,-3.80223 -3.10402,-6.90625 -6.90625,-6.90625 z m 0,2 c 2.72135,0 4.90625,2.1849 4.90625,4.90625 0,2.72135 -2.1849,4.9043 -4.90625,4.9043 -2.72135,0 -4.9043,-2.18295 -4.9043,-4.9043 0,-2.72135 2.18295,-4.90625 4.9043,-4.90625 z"
     id="circle54" />
  <path
     style="color:#000000;fill:#ffffff;stroke-miterlimit:10;-inkscape-stroke:none"
     d="m 157.57617,187.82617 c -3.58076,0 -6.50586,2.9251 -6.50586,6.50586 0,3.58077 2.9251,6.50391 6.50586,6.50391 3.58077,0 6.50586,-2.92314 6.50586,-6.50391 0,-3.58076 -2.92509,-6.50586 -6.50586,-6.50586 z m 0,2 c 2.49989,0 4.50586,2.00598 4.50586,4.50586 0,2.49989 -2.00597,4.50391 -4.50586,4.50391 -2.49988,0 -4.50586,-2.00402 -4.50586,-4.50391 0,-2.49988 2.00598,-4.50586 4.50586,-4.50586 z"
     id="circle56" />
  <path
     style="color:#000000;fill:#ffffff;stroke-miterlimit:10;-inkscape-stroke:none"
     d="m 28.089844,181.91016 c -3.73927,0 -6.792969,3.05174 -6.792969,6.79101 0,3.73927 3.053699,6.79297 6.792969,6.79297 3.739269,0 6.791015,-3.0537 6.791015,-6.79297 0,-3.73927 -3.051746,-6.79101 -6.791015,-6.79101 z m 0,2 c 2.65839,0 4.791015,2.13262 4.791015,4.79101 0,2.65839 -2.132625,4.79297 -4.791015,4.79297 -2.658391,0 -4.792969,-2.13458 -4.792969,-4.79297 0,-2.65839 2.134578,-4.79101 4.792969,-4.79101 z"
     id="circle58" />
  <path
     style="color:#000000;fill:#ffffff;stroke-miterlimit:10;-inkscape-stroke:none"
     d="m 53.447266,4.5039062 c -4.040817,0 -7.337891,3.297074 -7.337891,7.3378908 0,4.040817 3.297074,7.337891 7.337891,7.33789 4.040816,0 7.339843,-3.297073 7.339843,-7.33789 0,-4.0408168 -3.299027,-7.3378907 -7.339843,-7.3378908 z m 0,2 c 2.959937,0 5.339843,2.3779531 5.339843,5.3378908 0,2.959937 -2.379906,5.33789 -5.339843,5.33789 -2.959938,0 -5.337891,-2.377953 -5.337891,-5.33789 0,-2.9599377 2.377953,-5.3378907 5.337891,-5.3378908 z"
     id="circle60" />
  <path
     style="color:#000000;fill:#ffffff;stroke-miterlimit:10;-inkscape-stroke:none"
     d="m 126.5957,4.4785156 c -4.04081,0 -7.33789,3.2970739 -7.33789,7.3378904 0,4.040817 3.29708,7.337891 7.33789,7.337891 4.04082,0 7.33789,-3.297074 7.33789,-7.337891 0,-4.0408165 -3.29707,-7.3378904 -7.33789,-7.3378904 z m 0,2 c 2.95994,0 5.33789,2.3779531 5.33789,5.3378904 0,2.959938 -2.37795,5.337891 -5.33789,5.337891 -2.95993,0 -5.33789,-2.377953 -5.33789,-5.337891 0,-2.9599373 2.37796,-5.3378904 5.33789,-5.3378904 z"
     id="circle62" />
  <path
     style="color:#000000;fill:#ffffff;stroke-miterlimit:10;-inkscape-stroke:none"
     d="m 149.85352,17.154297 c -3.01026,0 -5.47071,2.460448 -5.47071,5.470703 0,3.010255 2.46045,5.472656 5.47071,5.472656 3.01025,0 5.47265,-2.462401 5.47265,-5.472656 0,-3.010255 -2.4624,-5.470703 -5.47265,-5.470703 z m 0,2 c 1.92937,0 3.47265,1.541328 3.47265,3.470703 0,1.929375 -1.54328,3.472656 -3.47265,3.472656 -1.92938,0 -3.47071,-1.543281 -3.47071,-3.472656 0,-1.929375 1.54133,-3.470703 3.47071,-3.470703 z"
     id="circle64" />
  <path
     style="color:#000000;fill:#ffffff;stroke-miterlimit:10;-inkscape-stroke:none"
     d="m 30.189453,17.021484 c -3.010254,0 -5.470703,2.460449 -5.470703,5.470703 0,3.010255 2.460449,5.472657 5.470703,5.472657 3.010255,0 5.472656,-2.462402 5.472656,-5.472657 0,-3.010254 -2.462401,-5.470703 -5.472656,-5.470703 z m 0,2 c 1.929376,0 3.472656,1.541328 3.472656,3.470703 0,1.929376 -1.54328,3.472657 -3.472656,3.472657 -1.929375,0 -3.470703,-1.543281 -3.470703,-3.472657 0,-1.929375 1.541328,-3.470703 3.470703,-3.470703 z"
     id="circle66" />
  <g
     id="g84"
     style="fill:none;stroke:#ffffff;stroke-width:2;stroke-miterlimit:10"
     transform="translate(1.0021392,1.0005484)">
    <path
       style="color:#000000;fill:#ffffff;stroke:none;-inkscape-stroke:none"
       d="m 18.195312,116.80664 c -1.526819,0 -2.785156,1.25834 -2.785156,2.78516 0,1.52682 1.258337,2.78711 2.785156,2.78711 1.52682,0 2.78711,-1.26029 2.78711,-2.78711 0,-1.52682 -1.26029,-2.78516 -2.78711,-2.78516 z m 0,2 c 0.445941,0 0.78711,0.33922 0.78711,0.78516 0,0.44594 -0.341169,0.78711 -0.78711,0.78711 -0.44594,0 -0.785156,-0.34117 -0.785156,-0.78711 0,-0.44594 0.339216,-0.78516 0.785156,-0.78516 z"
       id="circle68" />
    <path
       style="color:#000000;fill:#ffffff;stroke:none;-inkscape-stroke:none"
       d="m 163.98437,111.23438 c -1.45999,0 -2.66406,1.20406 -2.66406,2.66406 0,1.45999 1.20407,2.66601 2.66406,2.66601 1.46,0 2.66602,-1.20602 2.66602,-2.66601 0,-1.46 -1.20602,-2.66406 -2.66602,-2.66406 z m 0,2 c 0.37912,0 0.66602,0.28494 0.66602,0.66406 0,0.37911 -0.2869,0.66601 -0.66602,0.66601 -0.37911,0 -0.66406,-0.2869 -0.66406,-0.66601 0,-0.37912 0.28495,-0.66406 0.66406,-0.66406 z"
       id="circle70" />
    <path
       style="color:#000000;fill:#ffffff;stroke:none;-inkscape-stroke:none"
       d="m 156.57422,190.7793 c -1.39759,0 -2.55274,1.15319 -2.55274,2.55078 0,1.39758 1.15515,2.55273 2.55274,2.55273 1.39758,0 2.55273,-1.15515 2.55273,-2.55273 0,-1.39759 -1.15515,-2.55078 -2.55273,-2.55078 z m 0,2 c 0.3167,0 0.55273,0.23407 0.55273,0.55078 0,0.3167 -0.23603,0.55273 -0.55273,0.55273 -0.31671,0 -0.55274,-0.23603 -0.55274,-0.55273 0,-0.31671 0.23603,-0.55078 0.55274,-0.55078 z"
       id="circle72" />
    <path
       style="color:#000000;fill:#ffffff;stroke:none;-inkscape-stroke:none"
       d="m 27.087891,185.06836 c -1.441768,0 -2.632813,1.19104 -2.632813,2.63281 0,1.44177 1.191045,2.63086 2.632813,2.63086 1.441767,0 2.630859,-1.18909 2.630859,-2.63086 0,-1.44177 -1.189092,-2.63281 -2.630859,-2.63281 z m 0,2 c 0.360888,0 0.630859,0.27192 0.630859,0.63281 0,0.36089 -0.269971,0.63086 -0.630859,0.63086 -0.360889,0 -0.632813,-0.26997 -0.632813,-0.63086 0,-0.36089 0.271924,-0.63281 0.632813,-0.63281 z"
       id="circle74" />
    <path
       style="color:#000000;fill:#ffffff;stroke:none;-inkscape-stroke:none"
       d="m 52.445312,8.0566406 c -1.526819,0 -2.785156,1.2583371 -2.785156,2.7851564 0,1.526819 1.258337,2.787109 2.785156,2.787109 1.52682,0 2.78711,-1.26029 2.78711,-2.787109 0,-1.5268193 -1.26029,-2.7851564 -2.78711,-2.7851564 z m 0,2.0000004 c 0.445941,0 0.78711,0.339216 0.78711,0.785156 0,0.44594 -0.341169,0.787109 -0.78711,0.787109 -0.44594,0 -0.785156,-0.341169 -0.785156,-0.787109 0,-0.44594 0.339216,-0.785156 0.785156,-0.785156 z"
       id="circle76" />
    <path
       style="color:#000000;fill:#ffffff;stroke:none;-inkscape-stroke:none"
       d="m 125.59375,8.0292969 c -1.52682,0 -2.78516,1.2583371 -2.78516,2.7851561 0,1.526819 1.25834,2.787109 2.78516,2.78711 1.52682,0 2.78711,-1.260291 2.78711,-2.78711 0,-1.526819 -1.26029,-2.7851561 -2.78711,-2.7851561 z m 0,2.0000001 c 0.44594,0 0.78711,0.339216 0.78711,0.785156 0,0.44594 -0.34117,0.78711 -0.78711,0.78711 -0.44594,0 -0.78516,-0.34117 -0.78516,-0.78711 0,-0.44594 0.33922,-0.785156 0.78516,-0.785156 z"
       id="circle78" />
    <path
       style="color:#000000;fill:#ffffff;stroke:none;-inkscape-stroke:none"
       d="m 148.85156,19.365234 c -1.23632,0 -2.25976,1.023448 -2.25976,2.259766 0,1.236318 1.02344,2.259766 2.25976,2.259766 1.23632,0 2.25977,-1.023448 2.25977,-2.259766 0,-1.236318 -1.02345,-2.259766 -2.25977,-2.259766 z m 0,2 c 0.15544,0 0.25977,0.104327 0.25977,0.259766 0,0.155439 -0.10433,0.259766 -0.25977,0.259766 -0.15544,0 -0.25976,-0.104327 -0.25976,-0.259766 0,-0.155439 0.10432,-0.259766 0.25976,-0.259766 z"
       id="circle80" />
    <path
       style="color:#000000;fill:#ffffff;stroke:none;-inkscape-stroke:none"
       d="m 29.1875,19.232422 c -1.236318,0 -2.259766,1.023448 -2.259766,2.259765 0,1.236318 1.023448,2.259766 2.259766,2.259766 1.236318,0 2.259766,-1.023448 2.259766,-2.259766 0,-1.236317 -1.023448,-2.259765 -2.259766,-2.259765 z m 0,2 c 0.155439,0 0.259766,0.104327 0.259766,0.259765 0,0.155439 -0.104327,0.259766 -0.259766,0.259766 -0.155439,0 -0.259766,-0.104327 -0.259766,-0.259766 0,-0.155438 0.104327,-0.259765 0.259766,-0.259765 z"
       id="circle82" />
  </g>
  <g
     id="g90"
     style="fill:none;stroke:#ffffff;stroke-width:2;stroke-miterlimit:10"
     transform="translate(1.0021392,1.0005484)">
    <path
       style="color:#000000;fill:#ffffff;stroke:none;-inkscape-stroke:none"
       d="m 152.88477,131.00781 c -6.70173,0 -12.15625,5.45453 -12.15625,12.15625 0,6.70172 5.45452,12.15625 12.15625,12.15625 6.70172,0 12.15625,-5.45453 12.15625,-12.15625 0,-6.70172 -5.45453,-12.15625 -12.15625,-12.15625 z m 0,2 c 5.62084,0 10.15625,4.53541 10.15625,10.15625 0,5.62085 -4.53541,10.15625 -10.15625,10.15625 -5.62085,0 -10.15625,-4.5354 -10.15625,-10.15625 0,-5.62084 4.5354,-10.15625 10.15625,-10.15625 z"
       id="circle86" />
    <path
       style="color:#000000;fill:#ffffff;stroke:none;-inkscape-stroke:none"
       d="m 150.91016,135.42773 -0.39649,2.09961 h -1.07812 l -3.01368,12.26172 h 3.60743 l 0.58593,-2.71094 h 0.6211 l 0.60156,2.71094 h 0.80273 2.83985 l -2.9961,-12.26172 h -1.16601 z"
       id="path88" />
  </g>
  <g
     id="g108"
     style="fill:none;stroke:#ffffff;stroke-width:2;stroke-miterlimit:10"
     transform="translate(1.0021392,1.0005484)">
    <path
       style="color:#000000;fill:#ffffff;stroke:none;-inkscape-stroke:none"
       d="m 89.019531,23.597656 c -18.81608,0 -35.868306,5.705196 -48.261719,14.990235 C 28.3644,47.87293 20.613281,60.791798 20.613281,75.097656 c 0,14.305858 7.751119,27.222774 20.144531,36.507814 12.393413,9.28504 29.445639,14.99219 48.261719,14.99219 18.816079,0 35.870259,-5.70715 48.263669,-14.99219 12.39342,-9.28504 20.14258,-22.201956 20.14258,-36.507814 0,-14.305858 -7.74916,-27.224726 -20.14258,-36.509765 C 124.88979,29.302852 107.83561,23.597656 89.019531,23.597656 Z m 0,2 c 18.411189,0 35.061719,5.597496 47.064449,14.589844 12.00274,8.992348 19.3418,21.325662 19.3418,34.910156 0,13.584494 -7.33906,25.915854 -19.3418,34.908204 -12.00273,8.99235 -28.65326,14.5918 -47.064449,14.5918 -18.411187,0 -35.059763,-5.59945 -47.0625,-14.5918 -12.002736,-8.99235 -19.34375,-21.32371 -19.34375,-34.908204 0,-13.584494 7.341014,-25.917808 19.34375,-34.910156 12.002737,-8.992348 28.651313,-14.589844 47.0625,-14.589844 z"
       id="ellipse92" />
    <path
       style="color:#000000;fill:#ffffff;stroke:none;-inkscape-stroke:none"
       d="m 89.021484,42.347656 c -20.081758,0 -28.532055,0.173032 -35.548828,0.5 -4.032464,0.188035 -6.411472,0.358002 -7.935547,0.675781 -0.762037,0.15889 -1.334529,0.344479 -1.814453,0.716797 -0.479924,0.372318 -0.753108,1.002785 -0.783203,1.50586 -0.377709,6.253827 -0.316023,12.40512 -0.544922,28.710937 v 0.01563 0.01367 c 0.228915,16.305925 0.167129,22.457638 0.544922,28.712889 0.0305,0.50301 0.303272,1.1337 0.783203,1.50586 0.479931,0.37215 1.052428,0.55595 1.814453,0.71484 1.524051,0.31778 3.903582,0.48775 7.935547,0.67578 7.015786,0.32697 15.46707,0.50196 35.548828,0.50196 20.081756,0 28.530106,-0.17499 35.546876,-0.50196 4.03246,-0.18803 6.41343,-0.358 7.9375,-0.67578 0.76204,-0.15889 1.33453,-0.34252 1.81445,-0.71484 0.47993,-0.37232 0.75311,-1.00279 0.78321,-1.50586 0.37779,-6.254265 0.31405,-12.405963 0.54296,-28.712889 v -0.01367 -0.01563 c -0.22891,-16.305925 -0.16517,-22.457637 -0.54296,-28.71289 -0.0305,-0.50301 -0.30328,-1.131753 -0.78321,-1.503907 -0.47993,-0.372153 -1.05438,-0.557909 -1.8164,-0.716797 -1.52405,-0.317774 -3.90359,-0.487746 -7.93555,-0.675781 -7.01579,-0.326968 -15.46512,-0.5 -35.546876,-0.5 z m 0,2 c 20.070206,0 28.478926,0.173016 35.453126,0.498047 4.00903,0.186965 6.38265,0.378494 7.62109,0.636719 0.61923,0.129112 0.93054,0.285544 0.99805,0.33789 0.0675,0.05235 0.007,-0.07057 0.0137,0.04492 0.37203,6.159792 0.31037,12.306886 0.53906,28.607422 -0.22864,16.299035 -0.16706,22.447111 -0.53906,28.605476 v 0.002 c -0.007,0.11542 0.0536,-0.009 -0.0137,0.043 -0.0673,0.0522 -0.37688,0.21073 -0.99609,0.33984 -1.23843,0.25822 -3.61352,0.4478 -7.62305,0.63477 -6.97521,0.32503 -15.38292,0.5 -35.453126,0.5 -20.070202,0 -28.480877,-0.17497 -35.455078,-0.5 -4.009026,-0.18697 -6.382647,-0.37654 -7.621094,-0.63477 -0.619223,-0.12911 -0.930541,-0.2875 -0.998046,-0.33984 -0.06751,-0.0524 -0.0047,0.0706 -0.01172,-0.0449 C 44.563721,96.921794 44.622788,90.766973 44.39453,74.486426 v -0.01367 c -1.25e-4,-0.0089 1.25e-4,-0.0067 0,-0.01563 0.228258,-16.281543 0.169192,-22.436381 0.541016,-28.591797 0.0069,-0.115424 -0.05554,0.0073 0.01172,-0.04492 0.06726,-0.05218 0.378835,-0.20878 0.998046,-0.33789 1.238424,-0.25822 3.611567,-0.449754 7.621094,-0.636719 6.975213,-0.325031 15.384876,-0.498047 35.455078,-0.498047 z"
       id="path94" />
    <path
       style="color:#000000;fill:#ffffff;stroke:none;-inkscape-stroke:none"
       d="m 56.283203,103.55078 v 5.67578 7.70899 h 3.792969 v -2.36914 h 0.43164 l 0.03711,-0.004 c 0,0 0.590429,-0.0325 1.226562,-0.30859 0.01453,-0.006 0.03024,-0.0247 0.04492,-0.0312 0.279905,1.15059 0.907354,2.03302 1.632813,2.36718 0.896715,0.41305 1.723996,0.34022 1.751953,0.33789 0.02818,6e-5 0.827776,0.005 1.68164,-0.43164 0.200812,-0.10262 0.372332,-0.35243 0.56836,-0.52148 v 0.96289 h 3.273437 0.347657 3.765625 L 74.6875,116.69141 c 0.355429,0.12066 0.71473,0.24414 1.123047,0.24414 0.876567,0 1.401983,-0.0713 1.792969,-0.18946 0.08605,-0.026 0.149124,-0.0707 0.224609,-0.10351 v 0.29492 h 1 0.435547 v 2.45703 l 0.646484,-2.45703 h 0.886719 0.466797 0.888672 v 4.13281 l 0.888672,-4.13281 h 0.615234 0.496094 2.908203 v -1.0293 c 0.256848,0.24955 0.498292,0.55686 0.773437,0.6836 0.896716,0.41304 1.723996,0.34021 1.751953,0.33789 0.02819,5e-5 0.82778,0.007 1.681641,-0.42969 0.528713,-0.27021 1.001588,-0.84734 1.355469,-1.5625 h 0.240234 v 2 h 1 1.257813 0.30664 3.146485 v -4.69727 c 0,0 0.01776,-0.56953 -0.289063,-1.16406 -0.306826,-0.59453 -1.11353,-1.24023 -2.164062,-1.24023 -0.554656,0 -0.8512,0.23231 -1.234375,0.39648 -0.250294,-0.20867 -0.572589,-0.39648 -0.896485,-0.39648 h -2.126953 v 0.96679 c -0.203266,-0.1782 -0.382077,-0.43548 -0.591797,-0.54101 -0.870011,-0.43777 -1.638343,-0.42088 -1.652343,-0.42188 l -0.03711,-0.002 h -0.142578 -0.002 c -0.345277,-6.5e-4 -1.130162,0.0252 -1.941406,0.51172 -0.261493,0.15681 -0.468888,0.46538 -0.691407,0.73633 -0.298568,-0.60868 -1.101955,-1.25 -2.148437,-1.25 -0.583837,0 -0.892814,0.26948 -1.283203,0.46484 -0.408311,-0.2735 -0.91236,-0.46484 -1.576172,-0.46484 -0.480927,0 -0.70273,0.24143 -1.054688,0.37304 -0.0068,-0.006 -0.0047,-0.0138 -0.01172,-0.0195 -0.300678,-0.2449 -0.701748,-0.35351 -1.076172,-0.35351 h -1.826172 v 0.80664 c -0.238393,-0.1978 -0.515351,-0.31337 -0.837891,-0.44727 l 1.611328,-0.85547 -2.11914,-2.34179 -2.839844,1.61523 -1.199219,0.4961 0.578125,0.72656 h -1.949218 v -2.00196 h -3.621094 v 1 1.9375 c -0.193906,-0.16573 -0.363419,-0.41349 -0.5625,-0.51367 -0.870011,-0.43777 -1.640297,-0.41892 -1.654297,-0.41992 l -0.03516,-0.002 h -0.144532 -0.002 c -0.340792,-6.4e-4 -1.114102,0.0355 -1.914062,0.5039 -0.03055,-0.24512 0.0042,-0.39836 -0.222656,-0.80078 -0.365093,-0.64766 -1.250021,-1.3125 -2.445313,-1.3125 -0.890486,5e-4 -1.687697,0.005 -2.259766,0.008 -0.09534,4.7e-4 -0.140494,-2.8e-4 -0.222656,0 z m 25.890625,7.90625 0.0625,0.006 c -0.0026,0.0211 -0.04403,0.0988 -0.04492,0.10938 0.0014,-0.0363 -0.01758,-0.11524 -0.01758,-0.11524 z m 11.689453,0.13867 0.265625,0.0586 c -0.06871,0.0517 -0.108071,0.11113 -0.166015,0.16797 -0.02539,-0.003 -0.06456,-0.0362 -0.09961,-0.0469 z m 0,0.24024 h 0.08594 c -0.02933,0.0294 -0.05984,0.0557 -0.08594,0.0859 z m -32.589844,0.23242 v 0.0664 c 0,0.0934 -0.0029,0.0777 -0.03711,0.11718 -0.01,0.0115 -0.05648,0.033 -0.07617,0.0488 0.04369,-0.0804 0.08166,-0.14218 0.113281,-0.23242 z m 3.8125,3.41211 c 0.0074,-2e-5 0.08789,0.0234 0.08789,0.0234 l -0.158203,-0.0117 c 0,0 0.06593,-0.0124 0.07031,-0.0117 z m 24.382813,0.002 c 0.0074,-2e-5 0.08789,0.0234 0.08789,0.0234 l -0.158204,-0.0117 c 0,0 0.06595,-0.0124 0.07031,-0.0117 z"
       id="path96" />
    <path
       style="color:#000000;fill:#ffffff;stroke:none;-inkscape-stroke:none"
       d="m 101.26367,109.83594 -0.0352,0.002 c -0.57634,0.0395 -1.10299,0.40848 -1.320317,0.76953 -0.217323,0.36106 -0.224609,0.74219 -0.224609,0.74219 v 0.0137 4.2793 c 0,0.49629 0.390666,0.98202 0.677736,1.13476 0.28706,0.15275 0.55078,0.15821 0.55078,0.15821 l 0.0332,0.002 h 1.00586 c 0.4655,0 0.98427,-0.34572 1.16016,-0.66602 0.0503,-0.0915 0.0226,-0.097 0.0469,-0.17968 0.17027,0.29715 0.3,0.66586 0.50391,0.74609 0.32684,0.1286 0.59375,0.0996 0.59375,0.0996 h 0.86523 c 0.4897,0 0.95015,-0.34986 1.11719,-0.61914 0.0757,-0.12196 0.0606,-0.14634 0.0898,-0.24219 0.15476,0.28715 0.27393,0.64045 0.46289,0.72852 0.30163,0.14058 0.5625,0.13281 0.5625,0.13281 h 0.01 0.98438 c 0.46549,0 1.00176,-0.36404 1.16992,-0.69922 0.0245,-0.0488 0.003,-0.0469 0.0195,-0.0937 0.15355,0.25047 0.24879,0.57989 0.41992,0.66016 0.30055,0.14097 0.56055,0.13476 0.56055,0.13476 h 0.0137 0.66797 c 0.48728,0 0.92707,-0.36704 1.09375,-0.63867 0.18592,0.30403 0.66981,0.63867 1.12891,0.63867 h 0.96093 l 0.0234,-0.002 c 0,0 0.25182,8.9e-4 0.54297,-0.13672 0.178,-0.0841 0.29471,-0.43141 0.45117,-0.70703 0.0208,0.072 -0.008,0.0726 0.0312,0.15039 0.17515,0.34561 0.71817,0.69531 1.17774,0.69531 h 0.67382 l 0.0274,-0.002 c 0,0 0.26469,-0.002 0.55664,-0.1543 0.27447,-0.14274 0.60551,-0.60513 0.64844,-1.07031 0.0464,0.48509 0.41047,0.95911 0.69335,1.0918 0.30055,0.14097 0.5625,0.13476 0.5625,0.13476 h 0.0117 0.66993 c 0.50005,0 0.96572,-0.38066 1.12109,-0.65429 0.15536,-0.27363 0.17383,-0.5293 0.17383,-0.5293 l 0.008,-0.0566 v -2.05078 c 0,-0.2785 -0.25448,-0.42794 -0.43555,-0.6543 0.0902,-0.0878 0.26728,-0.0924 0.3125,-0.1875 0.17103,-0.3598 0.11719,-0.68359 0.11719,-0.68359 l 0.006,0.11133 v -0.85352 c 0,-0.49859 -0.42778,-1.02027 -0.74219,-1.16211 -0.31441,-0.14184 -0.58398,-0.12109 -0.58398,-0.12109 h -0.61719 c -0.44777,0 -0.96331,0.30486 -1.15625,0.6289 -0.18944,0.31817 -0.17803,0.63281 -0.17773,0.64453 -0.0172,-0.14358 0.001,-0.23924 -0.13672,-0.48242 -0.21746,-0.38383 -0.80482,-0.79101 -1.42188,-0.79101 h -3.18164 -0.004 c 0,0 -0.33857,-0.0128 -0.72266,0.1582 -0.25611,0.114 -0.52075,0.43809 -0.70703,0.81836 -0.1386,-0.35481 -0.31365,-0.75113 -0.54492,-0.85547 -0.31441,-0.14184 -0.58399,-0.12109 -0.58399,-0.12109 h -0.61719 c -0.44241,0 -0.9444,0.3014 -1.14257,0.62109 -0.19749,-0.35348 -0.4622,-0.65 -0.71094,-0.75 -0.39415,-0.15845 -0.73047,-0.13281 -0.73047,-0.13281 z m 9.62305,1.89648 c 0.0333,0.0324 0.0427,0.0733 0.0762,0.11524 -0.0396,0.0311 -0.0655,0.0408 -0.10937,0.0664 -0.0315,-0.0287 -0.0404,-0.071 -0.0723,-0.10937 0.0404,-0.0321 0.0619,-0.0454 0.10547,-0.0723 z m 9.25391,0 c 0.0333,0.0324 0.0426,0.0733 0.0762,0.11524 -0.0396,0.0311 -0.0655,0.0408 -0.10938,0.0664 -0.0315,-0.0287 -0.0404,-0.071 -0.0723,-0.10937 0.0404,-0.0321 0.0619,-0.0454 0.10547,-0.0723 z m -18.45704,0.10352 h 0.30274 c -0.1494,0.0812 -0.18103,0.32287 -0.30274,0.49804 z m 2.47461,0 h 0.99805 c -0.19164,0.10416 -0.25498,0.39545 -0.38867,0.63867 -0.0849,-0.21631 -0.25843,-0.46427 -0.49805,-0.60938 -0.037,-0.0224 -0.0738,-0.0113 -0.11133,-0.0293 z m 2.85157,0 h 0.64648 v 0.40234 c -0.15001,-0.1798 -0.37034,-0.30647 -0.64648,-0.40234 z m 7.08789,0.26172 h 0.21875 c -0.0717,0.0578 -0.16415,0.0731 -0.21875,0.13476 -1.5e-4,-0.036 10e-5,-0.10298 0,-0.13476 z m 4.45898,0.25976 c 0.0393,0.22375 0.19569,0.32897 0.33399,0.50391 -0.056,0.0552 -0.17824,0.0576 -0.21485,0.11523 -0.11364,0.17881 -0.0975,0.24608 -0.11914,0.36719 z m -6.45508,0.61719 c 1.4e-4,0.0269 -1.4e-4,0.0429 0,0.0703 -0.0135,-0.0182 -0.0192,-0.0333 -0.0332,-0.0508 0.01,-0.009 0.0241,-0.0101 0.0332,-0.0195 z"
       id="path98" />
    <g
       fill-rule="evenodd"
       clip-rule="evenodd"
       fill="#ffffff"
       id="g106">
      <path
         style="color:#000000;fill:#ffffff;stroke:none;-inkscape-stroke:none"
         d="m 75.378906,28.744141 c -3.371345,-0.006 -5.826172,2.579946 -5.826172,5.609375 0,3.027919 2.456412,5.589843 5.830078,5.589843 h 27.273438 c 3.37328,-0.0012 5.83008,-2.561924 5.83008,-5.589843 0.001,-3.029385 -2.45288,-5.615337 -5.82422,-5.609375 H 75.380859 Z m 0.01367,3.132812 h 27.255864 c 1.84173,0.0041 2.70117,1.042016 2.70117,2.46875 0,1.428873 -0.8504,2.475974 -2.69727,2.46875 h -0.002 -0.002 -27.257817 -0.002 c -1.848066,0.0072 -2.695313,-1.039181 -2.695313,-2.46875 0,-1.425479 0.858506,-2.463846 2.699219,-2.46875 z"
         id="path100" />
      <path
         style="color:#000000;fill:#ffffff;stroke:none;-inkscape-stroke:none"
         d="m 74.542969,29.945312 v 1.226563 h -1.326172 l -0.002,6.330078 h 3.328125 v -0.480469 l 0.294922,0.480469 h 0.800781 l 0.759765,1.242188 v -1.242188 h 0.05859 1.263672 2.025391 V 37.5 h 1.1875 0.802734 1.183594 v 0.002 h 3.291015 v -0.34575 c 0.446933,0.243051 0.89128,0.519531 1.423829,0.519531 0.471328,0 0.88395,-0.190054 1.289062,-0.376953 V 37.5 h 2.476563 0.802734 2.478516 v -0.125 c 0.407477,0.164061 0.852385,0.197022 1.310546,0.126953 h 2.736334 v -0.322266 c 0.41897,0.208026 0.81426,0.478516 1.30273,0.478516 1.5041,0 2.88281,-1.093191 2.88281,-2.615234 v -0.002 c -3.8e-4,-0.340176 -0.26856,-0.549778 -0.39258,-0.839844 h 0.48243 1.41601 l -0.94336,-1.476563 c 0.016,-0.08078 0.0937,-0.154961 0.0937,-0.228515 0,-0.292876 -0.14151,-0.738879 -0.46093,-0.994141 -0.31943,-0.255262 -0.64318,-0.285156 -0.88282,-0.285156 h -1.37109 v 0.736328 l -0.22461,0.0293 0.22461,0.351562 v 0.394532 c -0.28764,-0.08673 -0.51501,-0.302735 -0.82422,-0.302735 -0.48831,0 -0.88386,0.270504 -1.30273,0.478516 v -1.732422 h -2.27149 l 0.363281,0.876953 -0.904296,0.367188 c -0.179328,-0.06669 -0.457034,-0.16995 -0.457032,-0.169922 6e-6,7.9e-5 -0.0013,-0.01785 -0.002,-0.0293 9.1e-5,0.02514 -7e-5,0.06305 0,0.111328 9.7e-5,0.0671 -5.7e-5,0.172171 0,0.271484 l -0.685547,0.277344 c -0.288077,0.115828 -0.647398,0.09818 -0.867187,0.304688 -0.06515,-0.0618 -0.108818,-0.162891 -0.177735,-0.212891 -0.522999,-0.379444 -1.044507,-0.49146 -1.523437,-0.478516 h -0.002 -0.002 c -0.114143,0.0034 -0.193143,0.110438 -0.304688,0.128907 l -2.96875,0.002 v 0.296875 c -0.416792,-0.203405 -0.805649,-0.476563 -1.291015,-0.476563 -0.27246,0 -0.471316,0.19838 -0.728516,0.265625 v -0.507812 h -0.697266 v -0.582032 h -3.291015 l 0.002,0.582032 h -0.699219 v 0.443359 c -0.160165,-0.02621 -0.333476,-0.156475 -0.486328,-0.152344 h -0.002 c -0.114651,0.0034 -0.194614,0.110289 -0.306641,0.128907 l -1.679687,0.002 v -1.449219 h -2.025391 -1.265625 -2.058594 v 0.466797 l -0.285156,-0.466797 h -0.814453 z m 29.791011,2.734375 0.0293,0.0293 -0.10156,0.101563 z"
         id="path102" />
      <path
         style="color:#000000;fill:#ffffff;stroke:none;-inkscape-stroke:none"
         d="m 104.18164,30.857422 c -1.01236,-0.0045 -1.85738,0.83476 -1.85742,1.847656 -0.005,1.016127 0.84182,1.859962 1.85742,1.855469 1.01301,0.002 1.85409,-0.840732 1.84961,-1.853516 0.003,-1.011915 -0.83791,-1.852921 -1.84961,-1.849609 z m -0.002,1.714844 c 0.0652,0.0076 0.13168,0.07172 0.13672,0.136718 -0.005,0.06395 -0.0705,0.125631 -0.13477,0.134766 -0.0655,-0.0083 -0.12923,-0.0713 -0.13672,-0.136719 0.008,-0.06483 0.07,-0.127981 0.13477,-0.134765 z"
         id="path104" />
    </g>
  </g>
  <path
     style="color:#000000;fill:#ffffff;stroke-miterlimit:10;-inkscape-stroke:none"
     d="m 9.0898438,51.859375 c -1.2510017,0.01926 -2.2705206,1.065321 -2.2578126,2.316406 v 0.0039 0.002 c 0.019258,1.251001 1.0653209,2.272473 2.3164063,2.259765 l 13.2480465,-0.05273 3.738282,0.99414 h 0.002 c 1.209728,0.318231 2.475849,-0.415101 2.800781,-1.623046 v -0.002 c 0.323697,-1.213421 -0.411557,-2.479502 -1.625,-2.802734 l -3.990234,-1.0625 -0.128907,-0.002 -14.0937496,-0.03125 z m 160.9804662,0.02148 -13.5957,0.07227 -0.125,0.03125 -3.69336,0.984375 c -1.17614,0.309227 -1.89629,1.535011 -1.59375,2.712891 l 0.002,0.0098 0.002,0.0078 c 0.3233,1.171983 1.55848,1.878636 2.73242,1.5625 l 3.5664,-0.949219 12.6543,0.01367 c 1.21469,0.01407 2.23437,-0.971134 2.26367,-2.185547 v -0.0078 -0.0078 c 0.012,-1.218726 -0.99022,-2.237218 -2.20898,-2.244141 z m -160.9492162,1.978516 13.9355472,0.03125 3.740234,0.996094 c 0.1599,0.04259 0.250048,0.19562 0.208984,0.353515 -0.045,0.167274 -0.190077,0.252008 -0.357422,0.208985 l -3.99414,-1.060547 -13.5214845,0.05273 h -0.00391 C 8.9572457,54.44315 8.839716,54.324479 8.8339844,54.154297 8.8338156,53.982192 8.9483006,53.862035 9.1210938,53.859375 Z M 170.0625,53.880859 c 0.13025,7.4e-4 0.21021,0.08974 0.21484,0.216797 -0.008,0.135837 -0.0977,0.230122 -0.23632,0.228516 h -0.004 l -12.93164,-0.01367 -3.82617,1.017578 h -0.002 c -0.12972,0.03493 -0.23269,-0.03149 -0.27343,-0.15625 -0.0256,-0.127657 0.0308,-0.237486 0.16015,-0.271484 h 0.002 l 3.57617,-0.951172 z M 6.0898437,73.294922 c -1.2510016,0.01926 -2.2705205,1.067274 -2.2578124,2.318359 v 0.0039 0.002 c 0.019258,1.251001 1.0653208,2.272473 2.3164062,2.259765 l 10.5332035,-0.05078 3.736328,0.994141 h 0.002 c 1.209729,0.318231 2.475849,-0.415101 2.800781,-1.623047 v -0.002 c 0.323697,-1.213422 -0.411557,-2.481456 -1.625,-2.804688 l -3.990234,-1.0625 H 17.476562 L 6.0996094,73.294922 Z m 167.1484363,0.0098 -11.03125,0.08008 -0.12305,0.0332 -3.70898,0.986328 h 0.006 c -1.17696,0.306019 -1.90204,1.530098 -1.60352,2.708984 l 0.004,0.01172 0.002,0.01172 c 0.32712,1.170718 1.56335,1.873597 2.73633,1.554687 l 3.57813,-0.951172 10.08789,0.0039 c 1.21343,0.01417 2.23553,-0.966706 2.27148,-2.179688 v -0.0098 -0.01172 c 0.011,-1.219107 -0.99374,-2.235331 -2.21289,-2.238282 z m -167.1171863,1.990235 11.2265623,0.03516 3.732422,0.994141 c 0.160556,0.04277 0.249334,0.198845 0.207031,0.357422 -0.04618,0.165823 -0.192247,0.249042 -0.359375,0.205078 L 16.9375,75.826172 6.1308594,75.878906 h -0.00195 C 5.9572457,75.88065 5.839716,75.761979 5.8339844,75.591797 5.8338102,75.419686 5.9482966,75.297582 6.1210937,75.294922 Z m 167.1171863,0.0098 c 0.12767,3.09e-4 0.2028,0.0873 0.20899,0.210938 -0.0114,0.135503 -0.0988,0.230144 -0.23829,0.228516 h -0.006 l -10.36523,-0.0039 -3.83984,1.019532 h -0.002 c -0.12757,0.03468 -0.22648,-0.03412 -0.26953,-0.154297 -0.0217,-0.125157 0.0287,-0.23245 0.15625,-0.265625 l 0.004,-0.002 3.5918,-0.955079 z"
     id="path110" />
  <path
     style="color:#000000;fill:#ffffff;stroke-miterlimit:10;-inkscape-stroke:none"
     d="m 45.652344,127.12305 c -18.190338,0 -32.958985,14.76669 -32.958985,32.95703 0,18.19034 14.768647,32.95898 32.958985,32.95898 18.190338,0 32.957031,-14.76864 32.957031,-32.95898 0,-18.19034 -14.766693,-32.95703 -32.957031,-32.95703 z m 0,2 c 17.109459,0 30.957031,13.84757 30.957031,30.95703 0,17.10946 -13.847572,30.95898 -30.957031,30.95898 -17.109459,0 -30.958985,-13.84952 -30.958985,-30.95898 0,-17.10946 13.849526,-30.95703 30.958985,-30.95703 z"
     id="circle112" />
  <path
     style="color:#000000;fill:#ffffff;stroke-miterlimit:10;-inkscape-stroke:none"
     d="m 45.652344,131.91602 c -15.542688,0 -28.164063,12.62137 -28.164063,28.16406 0,15.54269 12.621375,28.16406 28.164063,28.16406 15.542687,0 28.164062,-12.62137 28.164062,-28.16406 0,-15.54269 -12.621375,-28.16406 -28.164062,-28.16406 z m 0,2 c 14.461808,0 26.164062,11.70225 26.164062,26.16406 0,14.46181 -11.702254,26.16406 -26.164062,26.16406 -14.461808,0 -26.164063,-11.70225 -26.164063,-26.16406 0,-14.46181 11.702255,-26.16406 26.164063,-26.16406 z"
     id="circle114" />
  <path
     style="color:#000000;fill:#ffffff;stroke-miterlimit:10;-inkscape-stroke:none"
     d="m 41.994141,132.67969 c -3.687651,0.005 -6.696654,3.01547 -6.701172,6.70312 V 149.7207 H 24.953125 c -3.688103,0.004 -6.698606,3.01503 -6.703125,6.70313 v 7.31445 c 0.0045,3.6881 3.015022,6.69925 6.703125,6.70313 h 10.339844 v 10.33789 c 0.0045,3.68765 3.013521,6.6986 6.701172,6.70312 h 0.002 7.3125 c 3.68765,-0.005 6.698607,-3.01547 6.703125,-6.70312 v -10.33789 h 10.33789 c 3.687651,-0.005 6.698607,-3.01548 6.703125,-6.70313 v -7.31445 c -0.0045,-3.68765 -3.015474,-6.69861 -6.703125,-6.70313 h -10.33789 v -10.33789 c -0.0045,-3.68765 -3.015475,-6.6986 -6.703125,-6.70312 z m 0.002,2 h 7.3125 c 2.606908,0.004 4.698863,2.09621 4.703125,4.70312 v 12.33789 h 12.33789 c 2.606909,0.004 4.698864,2.09622 4.703125,4.70313 v 7.3125 c -0.0032,2.6085 -2.096573,4.70188 -4.705078,4.70508 H 54.011719 v 12.33593 c -0.0032,2.60784 -2.095551,4.70082 -4.703125,4.70508 h -7.310547 -0.002 c -2.606908,-0.004 -4.698864,-2.09622 -4.703125,-4.70312 V 168.44141 H 24.955078 c -2.608167,-0.003 -4.700814,-2.09523 -4.705078,-4.70313 v -7.3125 -0.002 c 0.0043,-2.6079 2.096911,-4.70039 4.705078,-4.70313 h 12.337891 v -12.33593 -0.002 c 0.0043,-2.60757 2.095287,-4.69993 4.703125,-4.70312 z"
     id="path116" />
  <g
     id="g149"
     style="fill:none;stroke:#ffffff;stroke-width:2;stroke-miterlimit:10"
     transform="translate(1.0021392,1.0005484)">
    <path
       style="color:#000000;fill:#ffffff;stroke:none;-inkscape-stroke:none"
       d="m 40.990234,133.66406 c -2.589792,0.008 -4.707217,2.12701 -4.714843,4.7168 v 12.11133 c -8.69e-4,0.12937 -0.08505,0.21278 -0.214844,0.21289 h -12.109375 -0.002 c -2.589793,0.008 -4.709171,2.127 -4.716797,4.71679 v 0.002 7.31445 0.002 c 0.0076,2.5898 2.127004,4.70722 4.716797,4.71485 h 0.002 12.109375 c 0.130513,0 0.21289,0.0851 0.21289,0.21484 v 12.11133 c 0.0076,2.58979 2.127005,4.70917 4.716797,4.7168 h 0.002 7.314454 0.002 c 2.589792,-0.008 4.707217,-2.12701 4.714843,-4.7168 v -12.11133 c 0,-0.13051 0.08514,-0.21484 0.214844,-0.21484 h 12.111328 0.002 c 2.589793,-0.008 4.707218,-2.12505 4.714844,-4.71485 v -0.002 -7.31445 -0.002 c -0.0076,-2.58979 -2.125051,-4.70917 -4.714844,-4.71679 h -0.002 -12.111328 c -0.130513,0 -0.21289,-0.0832 -0.21289,-0.21289 v -12.11133 c -0.0076,-2.58979 -2.127005,-4.70917 -4.716797,-4.7168 h -0.002 -7.314454 z m 0.0039,2 h 7.308593 c 1.513083,0.004 2.718201,1.20958 2.722657,2.72266 v 12.10547 c 0,1.21029 1.001405,2.21289 2.21289,2.21289 h 12.109375 c 1.511505,0.005 2.71326,1.2092 2.71875,2.7207 v 7.30859 c -0.0045,1.51309 -1.20762,2.71625 -2.720703,2.72071 H 53.238281 c -1.210297,0 -2.214844,1.00336 -2.214844,2.21484 v 12.10547 c -0.0045,1.51243 -1.20659,2.71716 -2.71875,2.72266 h -7.308593 c -1.513083,-0.004 -2.718201,-1.20958 -2.722657,-2.72266 v -12.10547 c 0,-1.2103 -1.001405,-2.21484 -2.21289,-2.21484 H 23.955078 c -1.512427,-0.004 -2.717163,-1.20659 -2.722656,-2.71875 v -0.002 -7.30664 -0.002 c 0.0055,-1.51216 1.210229,-2.71625 2.722656,-2.7207 h 12.105469 0.002 c 1.210102,-0.001 2.211895,-1.00279 2.212891,-2.21289 v -12.10547 c 0.0045,-1.51243 1.20659,-2.71716 2.71875,-2.72266 z"
       id="path118" />
    <path
       style="color:#000000;fill:#ffffff;stroke:none;-inkscape-stroke:none"
       d="m 44.791016,138.11914 c -0.640796,0 -1.281716,0.30298 -1.632813,0.91016 l -3.341797,5.78711 c -0.701742,1.21545 0.229328,2.8296 1.632813,2.83007 h 6.683593 c 1.403485,-4.7e-4 2.334555,-1.61462 1.632813,-2.83007 l -3.341797,-5.78711 c -0.351096,-0.60718 -0.992017,-0.91016 -1.632812,-0.91016 z m 0,2.08203 3.144531,5.44531 h -6.289063 z"
       id="path120" />
    <path
       style="color:#000000;fill:#ffffff;stroke:none;-inkscape-stroke:none"
       d="m 44.650391,137.97656 c -0.640796,0 -1.281716,0.30299 -1.632813,0.91016 v 0.002 l -3.341797,5.78711 c -0.701742,1.21545 0.229328,2.82765 1.632813,2.82813 h 6.68164 0.002 c 1.403485,-4.8e-4 2.334555,-1.61268 1.632813,-2.82813 l -3.341797,-5.78711 v -0.002 c -0.351096,-0.60717 -0.992017,-0.91016 -1.632812,-0.91016 z m 0,2.08399 3.142578,5.44336 h -6.285157 z"
       id="path122" />
    <path
       style="color:#000000;fill:#ffffff;stroke:none;-inkscape-stroke:none"
       d="m 31.341797,153.72656 c -0.322156,-0.0105 -0.651215,0.0628 -0.955078,0.23828 l -5.78711,3.33985 c -1.214344,0.70219 -1.214344,2.56343 0,3.26562 l 5.78711,3.3418 c 1.215453,0.70174 2.829605,-0.22933 2.830078,-1.63281 v -6.68164 -0.002 c -3.55e-4,-1.05261 -0.908532,-1.83757 -1.875,-1.86914 z m -0.125,2.06641 v 6.28906 l -5.447266,-3.14453 z"
       id="path124" />
    <path
       style="color:#000000;fill:#ffffff;stroke:none;-inkscape-stroke:none"
       d="m 31.199219,153.86719 c -0.322156,-0.0105 -0.651215,0.0628 -0.955078,0.23828 l -5.78711,3.3418 c -1.214345,0.70219 -1.214345,2.56343 0,3.26562 l 5.78711,3.3418 c 1.215453,0.70174 2.829605,-0.22933 2.830078,-1.63282 v -6.68359 c -3.55e-4,-1.05261 -0.908532,-1.83952 -1.875,-1.87109 z m -0.125,2.06836 v 6.28906 l -5.445313,-3.14453 z"
       id="path126" />
    <path
       style="color:#000000;fill:#ffffff;stroke:none;-inkscape-stroke:none"
       d="m 41.166016,170.51367 c -1.403485,4.7e-4 -2.334555,1.61463 -1.632813,2.83008 l 3.341797,5.78711 c 0.702193,1.21434 2.563432,1.21434 3.265625,0 l 3.341797,-5.78711 c 0.701742,-1.21545 -0.229328,-2.82961 -1.632813,-2.83008 z m 0.197265,2 h 6.289063 l -3.144532,5.44531 z"
       id="path128" />
    <path
       style="color:#000000;fill:#ffffff;stroke:none;-inkscape-stroke:none"
       d="m 41.308594,170.65625 c -1.403485,4.7e-4 -2.334555,1.61267 -1.632813,2.82812 l 3.339844,5.78711 v 0.002 c 0.702193,1.21434 2.563432,1.21434 3.265625,0 v -0.002 l 3.341797,-5.78711 c 0.701742,-1.21545 -0.229328,-2.82765 -1.632813,-2.82812 z m 0.197265,2 h 6.285157 l -3.142579,5.44531 z"
       id="path130" />
    <g
       id="g136">
      <path
         style="color:#000000;fill:#ffffff;stroke:none;-inkscape-stroke:none"
         d="m 57.958984,154.00977 c -0.966467,0.0316 -1.874645,0.81848 -1.875,1.87109 v 6.68164 c 4.73e-4,1.40348 1.612672,2.33455 2.828125,1.63281 l 5.789063,-3.33984 c 1.214345,-0.70219 1.214345,-2.56343 0,-3.26563 l -5.789063,-3.34179 c -0.303863,-0.17544 -0.630969,-0.24881 -0.953125,-0.23828 z m 0.125,2.07031 5.445313,3.14258 -5.445313,3.14257 z"
         id="path132" />
      <path
         style="color:#000000;fill:#ffffff;stroke:none;-inkscape-stroke:none"
         d="m 58.099609,153.86719 c -0.966467,0.0316 -1.874645,0.81848 -1.875,1.87109 v 6.68359 c 4.73e-4,1.40349 1.614625,2.33456 2.830078,1.63282 l 5.78711,-3.3418 c 1.214345,-0.70219 1.214345,-2.56343 0,-3.26562 l -5.78711,-3.3418 c -0.303863,-0.17544 -0.632922,-0.24881 -0.955078,-0.23828 z m 0.125,2.06836 5.445313,3.14453 -5.445313,3.14453 z"
         id="path134" />
    </g>
    <linearGradient
       id="a"
       gradientUnits="userSpaceOnUse"
       x1="40.426998"
       y1="161.51801"
       x2="48.872002"
       y2="156.642">
      <stop
         offset="0"
         stop-color="#004c8a"
         id="stop138" />
      <stop
         offset=".628"
         stop-color="#004b88"
         id="stop140" />
      <stop
         offset=".854"
         stop-color="#004981"
         id="stop142" />
      <stop
         offset="1"
         stop-color="#014577"
         id="stop144" />
    </linearGradient>
    <path
       style="color:#000000;fill:#ffffff;stroke:none;-inkscape-stroke:none"
       d="m 44.650391,153.20508 c -3.232825,0 -5.875,2.64217 -5.875,5.875 0,3.23282 2.642175,5.875 5.875,5.875 3.232825,0 5.875,-2.64218 5.875,-5.875 0,-3.23283 -2.642175,-5.875 -5.875,-5.875 z m 0,2 c 2.151946,0 3.875,1.72305 3.875,3.875 0,2.15194 -1.723054,3.875 -3.875,3.875 -2.151946,0 -3.875,-1.72306 -3.875,-3.875 0,-2.15195 1.723054,-3.875 3.875,-3.875 z"
       id="circle147" />
  </g>
  <path
     style="color:#000000;fill:#ffffff;stroke-miterlimit:10;-inkscape-stroke:none"
     d="m 155.32031,11.021484 c -1.73767,-0.01744 -2.13498,0.09753 -3.01758,0.16211 l -2.5,0.18164 1.93946,1.587891 c 1.74371,1.428691 3.33977,3.029357 4.76562,4.775391 10.3828,12.673982 14.42652,35.60369 16.05469,48.824218 l 1.99219,-0.115234 c 0.12866,-16.661281 -1.89976,-29.157735 -3.49414,-35.582031 -1.16445,-4.689403 -5.94482,-12.896394 -9.16993,-16.785156 -0.88174,-1.062771 -2.03571,-2.375116 -3.97851,-2.851563 h -0.002 c -0.31086,-0.07593 -0.90028,-0.17992 -2.58789,-0.197266 z m -0.0195,1.998047 c 1.62038,0.01666 1.92163,0.08856 2.13477,0.140625 1.31119,0.321553 2.0618,1.160272 2.91406,2.1875 2.93689,3.541231 7.79798,12.077646 8.76953,15.990235 1.00574,4.052427 2.15915,10.934411 2.84375,19.648437 -2.43157,-11.958446 -6.46244,-25.436247 -13.90625,-34.523437 v -0.002 c -1.01737,-1.24573 -2.22651,-2.309326 -3.40039,-3.406249 0.25068,-0.0065 0.27179,-0.0389 0.64453,-0.03516 z"
     id="path151" />
</svg>
