<?xml version="1.0" encoding="UTF-8" standalone="no"?>
<svg
   viewBox="0 0 235.6 363.70001"
   version="1.1"
   id="svg60"
   sodipodi:docname="scv_controller.svg"
   width="235.60001"
   height="363.70001"
   inkscape:version="1.1.2 (0a00cf5339, 2022-02-04)"
   xmlns:inkscape="http://www.inkscape.org/namespaces/inkscape"
   xmlns:sodipodi="http://sodipodi.sourceforge.net/DTD/sodipodi-0.dtd"
   xmlns="http://www.w3.org/2000/svg"
   xmlns:svg="http://www.w3.org/2000/svg">
  <defs
     id="defs64" />
  <sodipodi:namedview
     id="namedview62"
     pagecolor="#ffffff"
     bordercolor="#666666"
     borderopacity="1.0"
     inkscape:pageshadow="2"
     inkscape:pageopacity="0.0"
     inkscape:pagecheckerboard="true"
     showgrid="false"
     fit-margin-top="0"
     fit-margin-left="0"
     fit-margin-right="0"
     fit-margin-bottom="0"
     inkscape:zoom="2.2732301"
     inkscape:cx="117.67397"
     inkscape:cy="181.67981"
     inkscape:window-width="2560"
     inkscape:window-height="1440"
     inkscape:window-x="1920"
     inkscape:window-y="0"
     inkscape:window-maximized="1"
     inkscape:current-layer="svg60" />
  <path
     style="color:#000000;fill:#ffffff;stroke-miterlimit:10;-inkscape-stroke:none"
     d="M 25.900391,13 V 34.300781 H 5.9003906 V 117.5 c 0,6.59999 5.8949564,12 13.0000004,12 H 216.90039 c 7.09494,0 13,-5.30984 13,-12 V 43.400391 H 209.59961 V 13 Z m 2,2 H 207.59961 v 30.400391 h 1 19.30078 V 117.5 c 0,5.50983 -4.89495,10 -11,10 H 18.900391 c -6.094944,0 -11.0000004,-4.60001 -11.0000004,-10 V 36.300781 H 27.900391 Z"
     id="path2" />
  <path
     style="color:#000000;fill:#ffffff;stroke-miterlimit:10;-inkscape-stroke:none"
     d="m 203.09961,7.5 c -3.13846,0 -5.79883,2.557575 -5.79883,5.800781 V 17 c 0,0.233333 -0.10156,0.632553 -0.10156,1.199219 v 72.101562 c 0,5.840875 4.76069,10.599609 10.60156,10.599609 H 225 c 5.84087,0 10.59961,-4.758734 10.59961,-10.599609 v -56 c 0,-4.266662 -1.70871,-8.317451 -4.67969,-11.394531 l -0.006,-0.0078 -0.008,-0.0059 -9.89844,-9.90039 C 217.52211,9.5064862 212.77575,7.5 207.90039,7.5 Z M 27.800781,7.5996094 c -4.969498,0 -9.628863,2.0155818 -13.107422,5.4941406 L 4.7929687,22.992187 C 1.7075468,25.977472 0,30.039658 0,34.300781 v 56.09961 C 0,96.151667 4.7461561,101 10.599609,101 h 17.09961 c 5.840874,0 10.601562,-4.758735 10.601562,-10.599609 v -77 c 0,-3.138459 -2.537072,-5.8007816 -5.701172,-5.8007816 z M 203.09961,9.5 h 4.80078 c 4.32463,0 8.57907,1.791958 11.69336,4.90625 l 9.88672,9.888672 c 2.62902,2.722914 4.11914,6.27253 4.11914,10.005859 v 56 c 0,4.759115 -3.8405,8.59961 -8.59961,8.59961 h -17.19922 c -4.75911,0 -8.60156,-3.840495 -8.60156,-8.59961 V 18.199219 c 0,-0.233333 0.10156,-0.632553 0.10156,-1.199219 V 13.300781 C 199.30078,11.143993 201.03807,9.5 203.09961,9.5 Z M 27.800781,9.5996094 h 4.798828 c 2.035896,0 3.701172,1.7392446 3.701172,3.8007816 v 77 C 36.300781,95.159505 32.458333,99 27.699219,99 H 10.599609 C 5.8530732,99 2,95.049104 2,90.400391 v -56.09961 c 0,-3.733329 1.4883362,-7.267227 4.1953125,-9.880859 l 0.00586,-0.0059 9.9062501,-9.906249 c 3.121434,-3.121435 7.262867,-4.9082036 11.693359,-4.9082036 z"
     id="path4" />
  <path
     style="color:#000000;fill:#ffffff;stroke-miterlimit:10;-inkscape-stroke:none"
     d="m 13.5,14.085938 -1.707031,1.707031 -7.105469,7.105468 -0.00781,0.0078 C 1.7087134,25.98333 0,30.034119 0,34.300781 v 56.09961 C 0,96.151667 4.7461561,101 10.599609,101 H 13.5 Z m -2,4.828124 V 99 H 10.599609 C 5.8530732,99 2,95.049104 2,90.400391 V 34.300781 C 2,30.567452 3.4901204,27.017836 6.1191406,24.294922 Z"
     id="path6" />
  <path
     style="color:#000000;fill:#ffffff;stroke-miterlimit:10;-inkscape-stroke:none"
     d="M 68.300781,0 C 64.728058,0 60.372008,1.4063395 56.789062,3.6816406 53.206117,5.9569418 50.300781,9.1747513 50.300781,13 v 7 c 0,7.145447 5.854553,13 13,13 H 172.30078 c 7.14545,0 13,-5.854553 13,-13 v -7 c 0,-3.8302992 -2.93508,-7.0461538 -6.5293,-9.3203125 C 175.17727,1.4055288 170.8277,0 167.30078,0 h -32.5 c -1.8641,0 -3.40039,1.5362899 -3.40039,3.4003906 V 10.900391 H 104 V 3.4003906 C 104,1.5362899 102.46371,0 100.59961,0 Z m 0,2 H 100.59961 C 101.33551,2 102,2.6644939 102,3.4003906 v 9.5000004 h 31.40039 V 3.4003906 C 133.40039,2.6644939 134.06488,2 134.80078,2 h 32.5 c 2.97308,0 7.12157,1.2933036 10.40234,3.3691406 3.28078,2.075837 5.59766,4.8611654 5.59766,7.6308594 v 7 c 0,6.054539 -4.94546,11 -11,11 H 63.300781 c -6.054539,0 -11,-4.945461 -11,-11 v -7 c 0,-2.774745 2.293499,-5.5561649 5.560547,-7.6308594 C 61.128376,3.2944461 65.273512,2 68.300781,2 Z"
     id="path8" />
  <path
     style="color:#000000;fill:#ffffff;stroke-miterlimit:10;-inkscape-stroke:none"
     d="m 102,2.4003906 v 1 9.5000004 h 31.5 V 2.4003906 Z m 2,2 h 27.5 V 10.900391 H 104 Z"
     id="path10" />
  <path
     style="color:#000000;fill:#ffffff;stroke-miterlimit:10;-inkscape-stroke:none"
     d="M 46,8 C 45.411905,8 44.846215,8.2031838 44.414062,8.6113281 43.98191,9.0194725 43.716235,9.6816134 43.810547,10.341797 l -0.0098,-0.142578 V 97 c 0,1.099999 -0.03317,2.42691 -0.373047,3.32031 -0.339881,0.8934 -0.710288,1.37891 -2.126953,1.37891 H 15 c -6.7376277,0 -12.1992188,5.46354 -12.1992187,12.20117 v 237 c 0,6.73763 5.461591,12.19922 12.1992187,12.19922 h 205.5 c 6.73763,0 12.19922,-5.46159 12.19922,-12.19922 v -237 c 0,-6.73763 -5.46159,-12.20117 -12.19922,-12.20117 h -21.80078 c -1.21111,0 -2.96463,-0.58289 -4.30469,-1.50977 C 193.05447,99.262577 192.19922,98.066128 192.19922,97 V 10.199219 C 192.19922,9.0436644 191.27143,8 190,8 Z m 0,2 h 144 c 0.12857,0 0.19922,0.154774 0.19922,0.199219 V 97 c 0,2.033869 1.3967,3.68586 3.05664,4.83398 1.65993,1.14813 3.65447,1.86524 5.44336,1.86524 H 220.5 c 5.66236,0 10.19922,4.53881 10.19922,10.20117 v 237 c 0,5.66236 -4.53686,10.19922 -10.19922,10.19922 H 15 c -5.6623599,0 -10.1992188,-4.53686 -10.1992188,-10.19922 v -237 c 0,-5.66236 4.5368589,-10.20117 10.1992188,-10.20117 h 26.300781 c 2.083331,0 3.460976,-1.26137 3.996094,-2.66797 C 45.831993,99.624655 45.800781,98.099999 45.800781,97 V 10.128906 l -0.01172,-0.06445 C 45.807853,10.047232 45.889036,10 46,10 Z"
     id="path12" />
  <path
     style="color:#000000;fill:#ffffff;stroke-miterlimit:10;-inkscape-stroke:none"
     d="m 46,7.5 c -1.533332,0 -2.699219,1.2807016 -2.699219,2.699219 v 86.701172 c 0,1.376189 -0.08809,2.584957 -0.373047,3.261719 -0.284952,0.67676 -0.512668,0.9375 -1.626953,0.9375 H 15 c -7.0435827,0 -12.6992188,5.75951 -12.6992187,12.70117 v 237 C 2.3007812,357.84436 8.0583403,363.5 15,363.5 h 205.5 c 7.04358,0 12.69922,-5.75756 12.69922,-12.69922 v -237 c 0,-7.04358 -5.75756,-12.70117 -12.69922,-12.70117 h -21.80078 c -1.11429,0 -2.74679,-0.53451 -3.98828,-1.376954 -1.24149,-0.842439 -2.01172,-1.922266 -2.01172,-2.822265 V 10.199219 C 192.69922,8.7325536 191.46667,7.5 190,7.5 Z m 0.300781,3 H 189.69922 V 97 c 0,2.216664 1.49452,4.01171 3.26953,5.23633 1.77501,1.22462 3.89015,1.96289 5.73047,1.96289 H 220.5 c 5.35762,0 9.69922,4.34355 9.69922,9.70117 v 237 c 0,5.35762 -4.3416,9.69922 -9.69922,9.69922 H 15 c -5.3576218,0 -9.6992188,-4.3416 -9.6992188,-9.69922 v -237 c 0,-5.35762 4.341597,-9.70117 9.6992188,-9.70117 h 26.300781 c 2.324998,0 3.826514,-1.34613 4.429688,-2.86914 C 46.333643,99.807064 46.300781,98.149999 46.300781,97 Z"
     id="path14" />
  <path
     style="color:#000000;fill:#ffffff;stroke-miterlimit:10;-inkscape-stroke:none"
     d="m 10,101.09961 c -4.2405363,0 -7.8007813,3.45693 -7.8007812,7.80078 v 247 c 0,4.24054 3.4569259,7.79883 7.8007812,7.79883 h 5.800781 V 101.09961 h -1.101562 z m 0,2 h 3.800781 V 361.69922 H 10 c -3.2561371,0 -5.8007813,-2.63937 -5.8007813,-5.79883 v -247 c 0,-3.25614 2.641325,-5.80078 5.8007813,-5.80078 z"
     id="path16" />
  <path
     style="color:#000000;fill:#ffffff;stroke-miterlimit:10;-inkscape-stroke:none"
     d="M 222,14.085938 V 16.5 100.90039 h 2.90039 c 5.84088,0 10.59961,-4.758734 10.59961,-10.599609 V 34.199219 c 0,-4.266663 -1.70817,-8.321449 -4.69336,-11.306641 z m 2,4.828124 5.39258,5.392579 c 2.6148,2.614802 4.10742,6.159248 4.10742,9.892578 v 56.101562 c 0,4.759115 -3.84049,8.59961 -8.59961,8.59961 H 224 Z"
     id="path18" />
  <path
     style="color:#000000;fill:#ffffff;stroke-miterlimit:10;-inkscape-stroke:none"
     d="m 219.69922,101.09961 v 1 261.59961 H 225.5 c 4.34386,0 7.80078,-3.55829 7.80078,-7.79883 v -247 c 0,-4.34385 -3.56024,-7.80078 -7.80078,-7.80078 z m 2,2 H 225.5 c 3.15946,0 5.80078,2.54464 5.80078,5.80078 v 247 c 0,3.15946 -2.54464,5.79883 -5.80078,5.79883 h -3.80078 z"
     id="path20" />
  <path
     style="color:#000000;fill:#ffffff;stroke-miterlimit:10;-inkscape-stroke:none"
     d="m 13.699219,354.59961 v 1 c 0,-0.275 0.112495,-0.25616 -0.07227,-0.11328 -0.184761,0.14288 -0.549122,0.35088 -1.007812,0.55859 -0.917381,0.41542 -2.21412,0.85718 -3.4863285,1.28125 -1.2722085,0.42407 -2.5148926,0.82867 -3.4453125,1.24219 -0.4652099,0.20676 -0.8462026,0.38398 -1.2050781,0.72266 -0.1794378,0.16934 -0.3922095,0.40786 -0.4589844,0.81445 -0.065958,0.40161 0.1378012,0.8542 0.3652344,1.08789 1.3796481,1.48344 3.3411262,2.40625 5.5117187,2.40625 H 225.40039 c 2.15056,0 4.0892,-0.91368 5.4668,-2.37305 0.2262,-0.20503 0.46837,-0.57186 0.45703,-0.98633 -0.0117,-0.42845 -0.22266,-0.72253 -0.40039,-0.91015 -0.35546,-0.37525 -0.72855,-0.5486 -1.1836,-0.75781 -0.91009,-0.41844 -2.13579,-0.81975 -3.39648,-1.24415 -1.26069,-0.42439 -2.55022,-0.86772 -3.46484,-1.2832 -0.45732,-0.20774 -0.82128,-0.4137 -1.00586,-0.55664 -0.18459,-0.14293 -0.0723,-0.16367 -0.0723,0.11133 v -1 h -1 z m 1.617187,2 H 220.18359 c 0.145,0.17732 0.30258,0.3431 0.46485,0.46875 0.40057,0.31019 0.87098,0.55657 1.40429,0.79883 1.06662,0.48452 2.38804,0.92986 3.65235,1.35547 1.2049,0.40561 2.31846,0.79041 3.04883,1.11328 -0.94077,0.74321 -2.05305,1.26367 -3.35352,1.26367 H 9.9003906 c -1.282803,0 -2.3801817,-0.5115 -3.3144531,-1.23633 0.7611829,-0.33129 1.935582,-0.72397 3.1796875,-1.13867 1.277789,-0.42593 2.607617,-0.87284 3.677734,-1.35742 0.535059,-0.24229 1.005074,-0.48859 1.40625,-0.79883 0.162575,-0.12573 0.321619,-0.29126 0.466797,-0.46875 z"
     id="path22" />
  <path
     style="color:#000000;fill:#ffffff;stroke-miterlimit:10;-inkscape-stroke:none"
     d="m 0,40.400391 v 1 2.699218 h 38.300781 v -3.699218 z m 0,9.798828 v 1 2.701172 h 38.300781 v -3.701172 z m 0,8.101562 v 1 V 62 H 38.300781 V 58.300781 Z M 0,66.5 v 1 2.699219 H 38.300781 V 66.5 Z m 0,8.099609 v 1 2.701172 h 38.300781 v -3.701172 z"
     id="path24" />
  <path
     style="color:#000000;fill:#ffffff;stroke-miterlimit:10;-inkscape-stroke:none"
     d="m 2.1992188,174.59961 v 1 2.70117 H 40.400391 v -3.70117 z m 192.9003912,0 v 1 2.70117 h 38.20117 v -3.70117 z m -192.9003912,9 v 1 2.70117 H 40.400391 v -3.70117 z m 192.9003912,0 v 1 2.70117 h 38.20117 v -3.70117 z m -192.9003912,9 v 1 2.70117 H 40.400391 v -3.70117 z m 192.9003912,0 v 1 2.70117 h 38.20117 v -3.70117 z m -192.9003912,9 v 1 2.70117 H 40.400391 v -3.70117 z m 192.9003912,0 v 1 2.70117 h 38.20117 v -3.70117 z m -192.9003912,9 v 1 2.70117 H 40.400391 v -3.70117 z m 192.9003912,0 v 1 2.70117 h 38.20117 v -3.70117 z m -192.9003912,9 v 1 2.70117 H 40.400391 v -3.70117 z m 192.9003912,0 v 1 2.70117 h 38.20117 v -3.70117 z m -192.9003912,9 v 1 2.70117 H 40.400391 v -3.70117 z m 192.9003912,0 v 1 2.70117 h 38.20117 v -3.70117 z m -192.9003912,9 v 1 2.70117 H 40.400391 v -3.70117 z m 192.9003912,0 v 1 2.70117 h 38.20117 v -3.70117 z m -192.9003912,9 v 1 2.70117 H 40.400391 v -3.70117 z m 192.9003912,0 v 1 2.70117 h 38.20117 v -3.70117 z m -192.9003912,9 v 1 2.70117 H 40.400391 v -3.70117 z m 192.9003912,0 v 1 2.70117 h 38.20117 v -3.70117 z m -192.9003912,9 v 1 2.70117 H 40.400391 v -3.70117 z m 192.9003912,0 v 1 2.70117 h 38.20117 v -3.70117 z m -192.9003912,9 v 1 2.70117 H 40.400391 v -3.70117 z m 192.9003912,0 v 1 2.70117 h 38.20117 v -3.70117 z m -192.9003912,9 v 1 2.70117 H 40.400391 v -3.70117 z m 192.9003912,0 v 1 2.70117 h 38.20117 v -3.70117 z m -192.9003912,9 v 1 2.70117 H 40.400391 v -3.70117 z m 192.9003912,0 v 1 2.70117 h 38.20117 v -3.70117 z m -192.9003912,9 v 1 2.70117 H 40.400391 v -3.70117 z m 192.9003912,0 v 1 2.70117 h 38.20117 v -3.70117 z m -192.9003912,9 v 1 2.70117 H 40.400391 v -3.70117 z m 192.9003912,0 v 1 2.70117 h 38.20117 v -3.70117 z"
     id="path26" />
  <path
     style="color:#000000;fill:#ffffff;stroke-miterlimit:10;-inkscape-stroke:none"
     d="m 43.199219,40.400391 v 1 2.699218 H 192.69922 v -3.699218 z m 0,9.798828 v 1 2.701172 H 192.69922 v -3.701172 z m 0,8.101562 v 1 V 62 H 192.69922 v -3.699219 z m 0,8.199219 v 1 2.699219 H 192.69922 V 66.5 Z m 0,8.099609 v 1 2.701172 H 192.69922 v -3.701172 z"
     id="path28" />
  <path
     style="color:#000000;fill:#ffffff;stroke-miterlimit:10;-inkscape-stroke:none"
     d="m 197.19922,40.400391 v 1 2.699218 H 235.5 v -3.699218 z m 0,9.798828 v 1 2.701172 H 235.5 v -3.701172 z m 0,8.101562 v 1 V 62 H 235.5 v -3.699219 z m 0,8.199219 v 1 2.699219 H 235.5 V 66.5 Z m 0,8.099609 v 1 2.701172 H 235.5 v -3.701172 z"
     id="path30" />
  <path
     style="color:#000000;fill:#ffffff;stroke-miterlimit:10;-inkscape-stroke:none"
     d="m 119.09961,183.69922 c -32.849066,0 -59.500001,26.65093 -59.500001,59.5 0,32.84906 26.650935,59.5 59.500001,59.5 32.84906,0 59.5,-26.65094 59.5,-59.5 0,-32.84907 -26.65094,-59.5 -59.5,-59.5 z m 0,2 c 31.76819,0 57.5,25.73181 57.5,57.5 0,31.76818 -25.73181,57.5 -57.5,57.5 -31.768187,0 -57.500001,-25.73182 -57.500001,-57.5 0,-31.76819 25.731814,-57.5 57.500001,-57.5 z"
     id="circle32" />
  <g
     fill="#dcdbdb"
     id="g42"
     style="fill:none;stroke:#ffffff;stroke-width:2;stroke-miterlimit:10"
     transform="translate(1,1)">
    <path
       style="color:#000000;fill:#ffffff;stroke:none;-inkscape-stroke:none"
       d="m 118.09961,195 c -0.52222,0 -1.05461,0.19133 -1.43164,0.56836 -0.37703,0.37703 -0.56836,0.90942 -0.56836,1.43164 v 91.30078 c 0,0.52222 0.19133,1.05461 0.56836,1.43164 0.37703,0.37703 0.90942,0.56836 1.43164,0.56836 1.15555,0 2,-0.96667 2,-2 V 197 c 0,-0.52222 -0.19133,-1.05461 -0.56836,-1.43164 C 119.15422,195.19133 118.62183,195 118.09961,195 Z"
       id="path34" />
    <path
       style="color:#000000;fill:#ffffff;stroke:none;-inkscape-stroke:none"
       d="m 72.599609,240.59961 c -0.522221,0 -1.05461,0.19133 -1.43164,0.56836 -0.37703,0.37703 -0.56836,0.90942 -0.56836,1.43164 0,0.52222 0.19133,1.05461 0.56836,1.43164 0.37703,0.37703 0.909419,0.56836 1.43164,0.56836 h 91.300781 c 0.52222,0 1.05461,-0.19133 1.43164,-0.56836 0.37703,-0.37703 0.56836,-0.90942 0.56836,-1.43164 0,-0.52222 -0.19133,-1.05461 -0.56836,-1.43164 -0.37703,-0.37703 -0.90942,-0.56836 -1.43164,-0.56836 z"
       id="path36" />
    <path
       style="color:#000000;fill:#ffffff;stroke:none;-inkscape-stroke:none"
       d="m 85.900391,208.32812 c -0.515165,0 -1.031427,0.18768 -1.408204,0.56446 -0.812478,0.81248 -0.88991,2.1602 0.107422,2.9082 l -0.107422,-0.0937 64.601563,64.59961 c 0.75355,0.75355 2.05895,0.75355 2.8125,0 0.75355,-0.75355 0.75355,-2.0609 0,-2.81445 L 87.306641,208.89258 c -0.376777,-0.37678 -0.891086,-0.56446 -1.40625,-0.56446 z"
       id="path38" />
    <path
       style="color:#000000;fill:#ffffff;stroke:none;-inkscape-stroke:none"
       d="m 150.40039,208.42773 c -0.51516,0 -1.03143,0.18768 -1.4082,0.56446 l -64.599612,64.60156 c -0.753553,0.75355 -0.753553,2.05895 0,2.8125 0.753553,0.75355 2.060901,0.75355 2.814453,0 l 64.599609,-64.59961 c 0.75355,-0.75355 0.75355,-2.0609 0,-2.81445 -0.37678,-0.37678 -0.89108,-0.56446 -1.40625,-0.56446 z"
       id="path40" />
  </g>
  <path
     style="color:#000000;fill:#ffffff;stroke-miterlimit:10;-inkscape-stroke:none"
     d="M 119.09961,211.09961 C 101.38313,211.09961 87,225.48274 87,243.19922 c 0,17.71648 14.38313,32.10156 32.09961,32.10156 17.71648,0 32.09961,-14.38508 32.09961,-32.10156 0,-17.71648 -14.38313,-32.09961 -32.09961,-32.09961 z m 0,2 c 16.6356,0 30.09961,13.46401 30.09961,30.09961 0,16.6356 -13.46401,30.10156 -30.09961,30.10156 C 102.46401,273.30078 89,259.83482 89,243.19922 c 0,-16.6356 13.46401,-30.09961 30.09961,-30.09961 z"
     id="circle44" />
  <path
     style="color:#000000;fill:#ffffff;stroke-miterlimit:10;-inkscape-stroke:none"
     d="m 119.09961,219.59961 c -13.02206,0 -23.59961,10.57755 -23.59961,23.59961 0,13.02206 10.57755,23.60156 23.59961,23.60156 13.02206,0 23.59961,-10.5795 23.59961,-23.60156 0,-13.02206 -10.57755,-23.59961 -23.59961,-23.59961 z m 0,2 c 11.94118,0 21.59961,9.65843 21.59961,21.59961 0,11.94118 -9.65843,21.60156 -21.59961,21.60156 -11.94118,0 -21.59961,-9.66038 -21.59961,-21.60156 0,-11.94118 9.65843,-21.59961 21.59961,-21.59961 z"
     id="circle46" />
  <path
     style="color:#000000;fill:#ffffff;stroke-miterlimit:10;-inkscape-stroke:none"
     d="m 26,108.59961 c -0.522222,0 -1.053869,0.0402 -1.607422,0.59375 l -0.582031,0.58008 16.457031,24.52734 H 195.5332 l 0.29688,-0.44336 16.94531,-25.25781 z m 0.771484,2 H 209.02539 L 194.4668,132.30078 H 41.333984 Z"
     id="path48" />
  <path
     style="color:#000000;fill:#ffffff;stroke-miterlimit:10;-inkscape-stroke:none"
     d="m 212.72656,108.7168 -17.16015,25.58398 H 40.232422 L 23.199219,108.91406 V 158.5 c 0,1.53333 1.267449,2.80078 2.800781,2.80078 h 185 c 1.53333,0 2.80078,-1.26745 2.80078,-2.80078 v -47 c 0,-0.52222 -0.14701,-0.92879 -0.30664,-1.24805 z m -0.92578,4.96875 V 158.5 c 0,0.46667 -0.33411,0.80078 -0.80078,0.80078 H 26 c -0.466666,0 -0.800781,-0.33411 -0.800781,-0.80078 v -43.01562 l 13.966797,20.8164 H 196.63281 l 0.29688,-0.44336 z"
     id="path50" />
  <path
     style="color:#000000;fill:#ffffff;stroke-miterlimit:10;-inkscape-stroke:none"
     d="m 152.09961,114 c -0.63333,0 -1.32973,0.17161 -1.90039,0.59961 -0.464,0.348 -0.90392,0.77463 -1.19336,1.35352 -0.25963,0.51925 -0.36077,0.93903 -0.53516,1.375 -0.2683,0.67075 -0.27148,1.27187 -0.27148,1.67187 v 5.30078 c 0,0.40181 0.12026,0.68605 0.16992,1.0332 -0.32867,-0.22924 -0.63845,-0.5332 -0.96875,-0.5332 h -5.70117 V 116.5 c 0,-0.52222 -0.18146,-1.02707 -0.4668,-1.45508 -0.31378,-0.47067 -1.01098,-0.8457 -1.5332,-0.8457 -0.493,0 -1.11034,0.36546 -1.44531,0.79883 -0.37344,0.427 -0.55469,0.97248 -0.55469,1.50195 v 8.85156 c -0.33424,-0.24152 -0.65933,-0.55078 -1,-0.55078 H 131 V 116.5 c 0,-0.52222 -0.18341,-1.02707 -0.46875,-1.45508 -0.31378,-0.47067 -1.00903,-0.8457 -1.53125,-0.8457 -0.493,0 -1.11034,0.36546 -1.44531,0.79883 -0.30354,0.34707 -0.4066,0.78503 -0.45117,1.2207 -0.1333,-0.24523 -0.23142,-0.50266 -0.4336,-0.72266 -0.35942,-0.51261 -0.7646,-0.84861 -1.35351,-1.04492 -0.3,-0.1 -0.69458,-0.25195 -1.2168,-0.25195 h -3.79883 c -0.63333,0 -1.32972,0.17356 -1.90039,0.60156 -0.464,0.348 -0.90587,0.77268 -1.19531,1.35156 -0.18538,0.37077 -0.40617,0.85437 -0.54297,1.4375 -0.0114,0.0303 -0.001,0.0462 -0.0117,0.0762 -0.002,-0.01 -0.004,-0.0214 -0.006,-0.0312 -0.006,0.028 -0.0197,0.0397 -0.0254,0.0684 l 0.0234,-0.0781 c -0.0529,-0.21773 -0.0336,-0.49795 -0.11328,-0.69727 -0.20242,-0.50604 -0.45879,-0.99576 -0.85938,-1.43164 -0.35942,-0.51261 -0.7646,-0.84861 -1.35351,-1.04492 -0.3,-0.1 -0.69458,-0.25195 -1.2168,-0.25195 h -5.79883 c -0.44454,0 -0.95124,0.34961 -1.30469,0.7207 -0.15162,-0.19377 -0.31904,-0.39975 -0.57421,-0.52734 -0.31582,-0.15791 -0.63855,-0.19336 -0.92188,-0.19336 h -7.699219 c -0.493026,0 -1.112313,0.36543 -1.447265,0.79883 -0.001,0.001 0.001,0.003 0,0.004 -0.001,-0.001 -0.0029,-5.5e-4 -0.0039,-0.002 -0.01886,0.0246 -0.06527,0.0198 -0.08203,0.0449 l 0.05078,-0.0625 c -0.395712,-0.50671 -0.924082,-0.7832 -1.417968,-0.7832 -0.493027,0 -1.112314,0.36543 -1.447266,0.79883 -0.373409,0.427 -0.552734,0.97249 -0.552734,1.50195 v 4.35352 l -4.339844,-5.90625 -0.05273,-0.0547 c -0.199999,-0.2 -0.440508,-0.42826 -0.759765,-0.58789 l -0.212891,-0.10547 h -0.234375 c -0.2,0 -0.610314,-0.0122 -1.048828,0.20703 l -0.144531,0.0723 -0.115235,0.11523 c -0.1,0.1 -0.36668,0.32125 -0.585937,0.75977 -0.06267,0.12534 -0.122393,0.4481 -0.191406,0.71875 -0.114995,-0.19241 -0.184504,-0.40078 -0.345703,-0.57618 -0.359423,-0.51261 -0.764604,-0.84861 -1.353516,-1.04492 l -0.03516,-0.0117 -0.03711,-0.01 c -0.361954,-0.0905 -0.609245,-0.23047 -1.142578,-0.23047 H 77.5 c -0.633333,0 -1.329725,0.17356 -1.900391,0.60156 -0.460075,0.34506 -0.894066,0.76842 -1.183593,1.33985 -0.05148,-0.42222 -0.150385,-0.84375 -0.384766,-1.19532 -0.313784,-0.47067 -1.009028,-0.8457 -1.53125,-0.8457 h -5.800781 c -0.633333,0 -1.327772,0.17161 -1.898438,0.59961 -0.463999,0.348 -0.90587,0.77463 -1.195312,1.35351 -0.2,0.4 -0.455766,0.89993 -0.585938,1.55079 -0.09497,0.47485 -0.21875,0.92942 -0.21875,1.49609 v 5.30078 c 0,0.88333 0.11133,1.62208 0.371094,2.27149 0.217075,0.54268 0.464741,1.07802 0.921875,1.53515 0.3,0.3 0.60959,0.71492 1.289062,0.94141 0.3,0.1 0.694576,0.25195 1.216797,0.25195 h 5.800782 c 0.744443,0 1.20625,-0.49336 1.40625,-0.69336 0.370659,-0.37066 0.463634,-0.87937 0.505859,-1.36719 0.166245,0.33231 0.292253,0.67898 0.580078,0.9668 0.3,0.3 0.611543,0.71492 1.291016,0.94141 0.299999,0.1 0.694575,0.25195 1.216797,0.25195 h 3.798828 c 0.633332,0 1.329724,-0.17161 1.90039,-0.59961 0.449412,-0.33706 0.868755,-0.75911 1.158203,-1.31055 0.07559,0.3339 0.121359,0.68106 0.310547,0.96485 0.313785,0.47067 1.009029,0.8457 1.53125,0.8457 0.744444,0 1.208204,-0.49336 1.408203,-0.69336 0.435702,-0.4357 0.591797,-1.04075 0.591797,-1.60742 v -4.35156 l 4.339844,5.90625 0.05273,0.0527 c 0.2,0.2 0.440509,0.42826 0.759766,0.58789 l 0.212891,0.10547 h 0.234375 c 0.2,0 0.610314,0.0142 1.048828,-0.20508 l 0.144531,-0.0742 0.115234,-0.11328 c 0.1,-0.1 0.366681,-0.32125 0.585938,-0.75976 0.1,-0.2 0.306641,-0.62622 0.306641,-1.14844 v -8.79492 c 0.313895,0.20188 0.59379,0.49609 0.90039,0.49609 h 1.898438 v 8.29883 c 0,0.52222 0.183412,1.02707 0.46875,1.45508 0.313784,0.47067 1.009031,0.8457 1.531251,0.8457 0.49303,0 1.11231,-0.36543 1.44726,-0.79883 0.37341,-0.427 0.55274,-0.97249 0.55274,-1.50195 v -8.29883 h 1.90039 c 0.37077,0 0.46783,-0.19825 0.70117,-0.3457 v 8.64453 c 0,0.52222 0.18146,1.02707 0.4668,1.45508 0.31378,0.47067 1.01098,0.8457 1.5332,0.8457 0.74444,0 1.20625,-0.49336 1.40625,-0.69336 0.4357,-0.4357 0.59375,-1.04075 0.59375,-1.60742 v -3 h 2.16602 c 0.0896,0.0211 0.30347,0.10486 0.28515,0.0957 l 0.0645,0.0312 0.0664,0.0215 c 0.23676,0.0789 0.2284,0.076 0.31055,0.1582 0.2,0.2 0.3315,0.33417 0.47461,0.54883 0.14094,0.21141 0.29165,0.52905 0.35547,0.77539 0.0965,0.48346 0.17578,0.89246 0.17578,1.36914 0,0.52222 0.18341,1.02707 0.46875,1.45508 0.31378,0.47067 1.00903,0.8457 1.53125,0.8457 0.74444,0 1.2082,-0.49336 1.4082,-0.69336 0.3711,-0.3711 0.46193,-0.88076 0.50391,-1.36914 0.16646,0.33316 0.29352,0.68024 0.58203,0.96875 0.3,0.3 0.61154,0.71492 1.29102,0.94141 0.29999,0.1 0.69262,0.25195 1.21484,0.25195 H 124 c 0.63333,0 1.32972,-0.17161 1.90039,-0.59961 0.464,-0.348 0.90392,-0.77463 1.19336,-1.35351 0.009,-0.0187 0.0178,-0.0532 0.0273,-0.0723 0.0659,0.37792 0.13588,0.7624 0.34766,1.08008 0.31378,0.47067 1.00903,0.8457 1.53125,0.8457 h 7.69922 c 0.74444,0 1.2082,-0.49336 1.4082,-0.69336 0.0429,-0.0429 0.021,-0.11221 0.0586,-0.1582 0.001,0.002 8e-4,0.004 0.002,0.006 0.31378,0.47067 1.00903,0.8457 1.53125,0.8457 h 7.70117 c 0.74444,0 1.20625,-0.49336 1.40625,-0.69336 0.29225,-0.29225 0.32019,-0.69627 0.39844,-1.07812 0.10716,0.15567 0.14457,0.33597 0.28711,0.47851 0.3,0.3 0.61154,0.71492 1.29101,0.94141 0.3,0.1 0.69458,0.25195 1.2168,0.25195 h 5.69922 c 0.73201,0 1.17947,-0.47558 1.38476,-0.68164 0.34053,0.42028 0.93322,0.78125 1.41602,0.78125 0.493,0 1.11034,-0.36546 1.44531,-0.79883 0.37344,-0.427 0.55469,-0.97248 0.55469,-1.50195 v -3 h 1.90039 c 0.26249,0 0.21467,-0.008 0.2207,-0.0156 0.12493,0.0351 0.35336,0.122 0.33203,0.11133 l 0.0625,0.0312 0.0684,0.0215 c 0.23676,0.0789 0.22645,0.076 0.3086,0.1582 0.2,0.2 0.3315,0.33417 0.47461,0.54883 0.13993,0.2099 0.29082,0.52393 0.35547,0.76953 0.0971,0.48616 0.17773,0.89632 0.17773,1.375 0,0.52222 0.18146,1.02707 0.4668,1.45508 0.31378,0.47067 1.01098,0.8457 1.5332,0.8457 0.74444,0 1.20625,-0.49336 1.40625,-0.69336 0.4357,-0.4357 0.59375,-1.04075 0.59375,-1.60742 0,-1.06667 -0.1063,-2.0463 -0.33008,-2.94141 l -0.004,-0.0176 -0.004,-0.0156 c -0.15453,-0.54086 -0.46115,-1.04449 -0.74609,-1.55078 0.24779,-0.3374 0.57216,-0.65013 0.71289,-1.00195 0.27684,-0.6921 0.4008,-1.67468 0.008,-2.72266 l 0.0625,0.34961 c 0,-0.88333 -0.11133,-1.62208 -0.37109,-2.27149 -0.20242,-0.50604 -0.45879,-0.99576 -0.85938,-1.43164 -0.35942,-0.51261 -0.7646,-0.84861 -1.35352,-1.04492 -0.29999,-0.1 -0.69262,-0.25195 -1.21484,-0.25195 H 160.5 c -0.38183,0 -0.76882,0.32748 -1.11914,0.61914 C 159.05363,114.36962 158.4054,114 157.90039,114 Z m -46.20703,0.89258 c -0.0286,0.0286 -0.0128,0.0755 -0.0391,0.10547 -0.0198,0.0257 -0.0684,0.0206 -0.0859,0.0469 z m 53.20117,0 c -0.0286,0.0286 -0.0128,0.0755 -0.0391,0.10547 -0.0199,0.0257 -0.0684,0.0205 -0.0859,0.0469 z M 152.09961,116 h 5.68555 c 0.0789,0.13313 0.11523,0.23313 0.11523,0.30078 0,0.0778 -0.16137,0.34496 -0.008,0.19141 -0.2,0.2 -0.13663,0.10742 0.008,0.10742 h -6.31445 l -0.29297,0.29297 c -0.2,0.2 -0.15949,0.17252 -0.24024,0.21289 l -0.14453,0.0723 -0.11523,0.11524 -0.27149,0.27148 c 0.0878,-0.2492 0.19127,-0.55245 0.27344,-0.71679 0.11056,-0.22112 0.26947,-0.39644 0.60547,-0.64844 0.22933,-0.172 0.33255,-0.19922 0.69922,-0.19922 z m -85.400391,0.0996 h 5.685547 c 0.07887,0.13313 0.115234,0.23313 0.115234,0.30078 0,0.0778 -0.161366,0.34691 -0.0078,0.19336 -0.199999,0.2 -0.136631,0.10547 0.0078,0.10547 h -6.035156 l -0.212891,0.10547 c -0.2,0.1 -0.424064,0.15258 -0.759766,0.48828 l -0.298828,0.30078 c -0.141937,0.14194 -0.123248,0.19066 -0.169922,0.29297 0.07623,-0.30499 0.191937,-0.58114 0.371094,-0.93945 0.110557,-0.22112 0.269469,-0.39449 0.605469,-0.64649 0.229333,-0.172 0.332552,-0.20117 0.699219,-0.20117 z M 77.5,116.19922 h 3.800781 c -0.119089,0 0.215052,0.0659 0.585938,0.1543 -0.0076,6.2e-4 0.351864,0.25728 0.380859,0.30078 l 0.05469,0.082 0.07031,0.0703 c 0.142865,0.14287 0.295591,0.40792 0.478516,0.86524 0.0156,0.039 0.01113,0.12797 0.02539,0.16992 -0.0501,-0.11455 -0.137644,-0.2978 -0.289062,-0.44922 -0.05,-0.05 -0.122479,-0.12897 -0.257813,-0.23047 -0.135333,-0.1015 -0.366667,-0.26172 -0.75,-0.26172 0.283333,0 0.346875,0.0797 0.296875,0.0547 -0.05,-0.025 -0.21237,-0.1543 -0.595703,-0.1543 H 77.5 c -0.1,0 -0.236593,-0.006 -0.429688,0.0215 -0.193094,0.0276 -0.491641,0.0854 -0.777343,0.37109 l -0.25586,0.25391 c 0.05903,-0.13183 0.08185,-0.24768 0.158203,-0.40039 0.110558,-0.22112 0.26947,-0.39449 0.605469,-0.64649 0.229333,-0.172 0.332553,-0.20117 0.699219,-0.20117 z m 19.402344,0 h 7.583986 c 0.0788,0.13306 0.11328,0.23315 0.11328,0.30078 0,0.0778 -0.15941,0.34691 -0.006,0.19336 -0.2,0.2 -0.13858,0.10742 0.006,0.10742 h -3.90039 -3.785158 c -0.07881,-0.13306 -0.113281,-0.23315 -0.113281,-0.30078 0,-0.0778 0.159413,-0.34691 0.0059,-0.19336 l 0.07031,-0.0703 z m 10.499996,0 h 5.69727 c 0.0778,0 0.28398,0.0504 0.58398,0.15039 -0.0162,-0.005 0.35545,0.2607 0.38477,0.30469 l 0.0547,0.082 0.0703,0.0703 c 0.0341,0.0341 0.0778,0.15814 0.11328,0.20703 -0.14081,-0.0941 -0.29681,-0.21289 -0.60742,-0.21289 0.28333,0 0.34883,0.0797 0.29883,0.0547 -0.05,-0.025 -0.21433,-0.15625 -0.59766,-0.15625 h -5.80078 v 4.60156 h 4.80078 V 121.5 h 1 c 0.1,0 0.67016,-0.0569 1.00586,-0.39258 l -0.70703,0.29297 c 0.38333,0 0.61467,-0.16217 0.75,-0.26367 0.13533,-0.1015 0.20781,-0.18047 0.25781,-0.23047 0.0569,-0.0569 0.15911,-0.38808 0.2793,-0.62891 -0.0223,0.17126 0.0617,0.35753 -0.0156,0.55079 -0.15731,0.39327 -0.40498,0.74709 -0.57031,0.87109 l -0.82617,0.61914 0.64453,0.80664 c 0.2659,0.33237 0.53692,0.92674 0.71289,1.53711 0.17353,0.70109 0.26758,1.51158 0.26758,2.4375 0,-0.71111 -0.11875,-1.29492 -0.21875,-1.79492 l -0.004,-0.0234 -0.006,-0.0234 c -0.13804,-0.55218 -0.38178,-1.02677 -0.63867,-1.41211 -0.25689,-0.38533 -0.52461,-0.65351 -0.72461,-0.85351 -0.30532,-0.30532 -0.69658,-0.4927 -1.04883,-0.61524 -0.31463,-0.13597 -0.54459,-0.18831 -0.51171,-0.17187 l -0.21094,-0.10547 h -4.53516 V 116.5 c 0,-0.23333 0.0416,-0.22906 0.006,-0.19336 l 0.0703,-0.0703 z m 12.89844,0 h 3.79883 c 0.0778,0 0.28398,0.0504 0.58398,0.15039 -0.0162,-0.005 0.35545,0.2607 0.38477,0.30469 l 0.0547,0.082 0.0703,0.0703 c 0.11444,0.11444 0.24523,0.38634 0.38281,0.69336 -0.0307,-0.0396 -0.0323,-0.0713 -0.0684,-0.10742 -0.05,-0.05 -0.12248,-0.12897 -0.25781,-0.23047 -0.13533,-0.1015 -0.36667,-0.26172 -0.75,-0.26172 0.28333,0 0.34687,0.0797 0.29688,0.0547 -0.05,-0.025 -0.21433,-0.1543 -0.59766,-0.1543 h -3.79883 c -0.1,0 -0.23659,-0.006 -0.42969,0.0215 -0.19309,0.0276 -0.49164,0.0854 -0.77734,0.37109 l -0.30078,0.29883 c -0.19607,0.19607 -0.19788,0.29469 -0.23438,0.40625 0.0788,-0.27266 0.17357,-0.52683 0.33594,-0.85156 0.11056,-0.22112 0.26947,-0.39449 0.60547,-0.64649 0.22933,-0.172 0.3345,-0.20117 0.70117,-0.20117 z m 40.30078,0 h 5.69922 c 0.0778,0 0.28203,0.0504 0.58203,0.15039 -0.0162,-0.005 0.35545,0.2607 0.38477,0.30469 l 0.0547,0.082 0.0703,0.0703 c 0.0339,0.0339 0.078,0.15665 0.11328,0.20508 -0.1408,-0.0938 -0.29606,-0.21094 -0.60547,-0.21094 0.28333,0 0.34688,0.0797 0.29688,0.0547 -0.05,-0.025 -0.21433,-0.15625 -0.59766,-0.15625 h -5.79883 v 4.60156 h 4.79883 V 121.5 h 1 c 0.1,0 0.67211,-0.0569 1.00781,-0.39258 l -0.70703,0.29297 c 0.38333,0 0.61467,-0.16217 0.75,-0.26367 0.13533,-0.1015 0.20586,-0.18047 0.25586,-0.23047 0.0531,-0.0531 0.14606,-0.37078 0.26172,-0.58789 -0.0191,0.15939 0.0531,0.38689 0.004,0.50977 -0.15731,0.39327 -0.40693,0.74709 -0.57226,0.87109 l -0.82422,0.61914 0.64453,0.80664 c 0.26493,0.33117 0.5349,0.92322 0.71094,1.53125 0.17432,0.70222 0.26953,1.51524 0.26953,2.44336 0,-0.71111 -0.1207,-1.29492 -0.2207,-1.79492 l -0.004,-0.0234 -0.006,-0.0234 c -0.13804,-0.55218 -0.38178,-1.02677 -0.63867,-1.41211 -0.25689,-0.38533 -0.52461,-0.65351 -0.72461,-0.85351 -0.3053,-0.3053 -0.69465,-0.4927 -1.04687,-0.61524 -0.31464,-0.13597 -0.5446,-0.18831 -0.51172,-0.17187 -0.55777,-0.27889 -1.41433,-0.10547 -0.84766,-0.10547 H 160.5 V 116.5 c 0,-0.23333 0.0435,-0.22906 0.008,-0.19336 l 0.0684,-0.0703 z m -74.460935,0.19141 7.759766,10.55859 v 0.15039 c 0,0.0335 -0.03421,0.0878 -0.04102,0.10937 L 86.099609,116.65039 V 116.5 c 0,-0.0337 0.03406,-0.0876 0.04102,-0.10937 z m -12.375,1.6875 c -0.075,0.35447 -0.166016,0.69642 -0.166016,1.12109 V 124.5 c 0,0.41086 0.119872,0.7028 0.171875,1.05664 -0.347097,-0.40079 -0.90344,-0.75586 -1.371093,-0.75586 h -5.642579 c -0.02223,-0.0546 -0.02484,-0.0731 -0.0625,-0.14844 0.01926,0.0385 0.0039,0.0481 0.0039,-0.25195 v -5.48437 l 0.207031,-0.20899 c -0.0089,0.009 0.02194,-0.0144 0.01563,-0.008 H 72.5 c 0.669754,0 1.0381,-0.3954 1.265625,-0.62109 z M 158.5,118.30469 v 6.83594 c -0.28832,-0.16466 -0.52807,-0.44141 -0.80078,-0.44141 h -5.64258 c -0.0222,-0.0544 -0.0251,-0.0718 -0.0625,-0.14649 0.0193,0.0385 0.006,0.0481 0.006,-0.25195 V 124 h 1.90039 c 0.493,0 1.11034,-0.36546 1.44531,-0.79883 0.37344,-0.427 0.55469,-0.97248 0.55469,-1.50195 0,-0.52222 -0.18341,-1.02512 -0.46875,-1.45313 -0.31378,-0.47067 -1.00903,-0.8457 -1.53125,-0.8457 H 152 v -0.30078 c 0,-0.16887 -0.01,-0.10725 -0.0215,-0.16016 4.8e-4,-0.002 0.003,-0.006 0.004,-0.008 l 0.22461,-0.22461 -0.16211,0.11719 c 3.2e-4,-0.001 0.004,-0.007 0.004,-0.008 0.001,-0.004 -0.009,0.0129 -0.008,0.01 l -0.0723,0.0527 c -1.3e-4,-2.9e-4 1.3e-4,-0.002 0,-0.002 0.0329,-0.0171 0.0488,-0.0421 0.0801,-0.0605 0.11003,-0.0648 0.1873,-0.14179 0.27929,-0.2168 h 5.57227 c 0.31727,0 0.38322,-0.1767 0.59961,-0.29492 z m -48.90039,0.39453 h 3.64258 c 0.0222,0.0546 0.0248,0.0731 0.0625,0.14844 -0.0193,-0.0385 -0.004,-0.0481 -0.004,0.25195 0,0.23771 -0.002,0.21235 0.004,0.20117 h -3.70508 z m 53.20117,0 h 3.64063 c 0.0222,0.0546 0.0267,0.0729 0.0645,0.14844 -0.0193,-0.0385 -0.006,-0.0481 -0.006,0.25195 0,0.23767 -0.002,0.21233 0.004,0.20117 h -3.70313 z m -85.289061,0.10156 h 3.630859 c 0.02219,0.0544 0.02506,0.0716 0.0625,0.14649 -0.01926,-0.0385 -0.0059,-0.0481 -0.0059,0.25195 v 5.30078 0.1875 l -0.01172,0.0117 h -3.630859 c -0.02218,-0.0544 -0.02515,-0.0718 -0.0625,-0.14649 0.01926,0.0385 0.0059,0.0481 0.0059,-0.25195 v -5.48828 z m 42.900391,0 h 3.63086 c 0.0222,0.0544 0.0251,0.0718 0.0625,0.14649 -0.0193,-0.0385 -0.006,-0.0481 -0.006,0.25195 V 124.5 c 0,-0.28333 0.007,-0.14648 -0.0234,0.0352 -0.004,0.0228 0.0427,0.10313 0.0391,0.13476 l -0.0273,0.0293 h -3.63086 c -0.0222,-0.0544 -0.0251,-0.0718 -0.0625,-0.14649 0.0193,0.0385 0.006,0.0481 0.006,-0.25195 v -5.48828 z m -5.21289,1 -0.10547,0.44727 c 0.0675,-0.13504 0.0339,-0.22644 0.0644,-0.35352 0.005,-0.0441 0.041,-0.0487 0.041,-0.0937 z m 53.20117,0 -0.10547,0.44727 c 0.0671,-0.13422 0.032,-0.22519 0.0625,-0.35157 0.005,-0.0451 0.043,-0.0495 0.043,-0.0957 z m -18.20117,1.59961 h 3.58594 c 0.0787,0.13296 0.11523,0.23123 0.11523,0.29883 0,0.23333 -0.0435,0.22906 -0.008,0.19336 l -0.0703,0.0703 -0.0254,0.0371 h -3.59765 z m -33.79883,0.77344 v 0.99023 c -0.0863,-0.20199 -0.17484,-0.39727 -0.2832,-0.58984 0.0988,-0.13458 0.20471,-0.25963 0.2832,-0.40039 z m 2,2.12695 c 0,0.3 -0.0142,0.70797 0.20508,1.14649 0.0202,0.0404 0.0243,0.0569 0.0664,0.16211 0.0421,0.10518 0.15246,0.33019 0.32031,0.49804 0.05,0.05 0.12248,0.12897 0.25781,0.23047 0.13533,0.1015 0.36667,0.26172 0.75,0.26172 -0.28333,0 -0.34687,-0.0797 -0.29687,-0.0547 0.05,0.025 0.21432,0.1543 0.59765,0.1543 h 3.79883 c 0.1,0 0.23659,0.006 0.42969,-0.0215 0.19309,-0.0276 0.49164,-0.0854 0.77734,-0.37109 l 0.2207,-0.2207 c -0.0725,0.18101 -0.11471,0.35051 -0.22265,0.5664 -0.11056,0.22112 -0.26947,0.39644 -0.60547,0.64844 C 124.46989,127.47278 124.36667,127.5 124,127.5 h -3.80078 c -0.0778,0 -0.28203,-0.0484 -0.58203,-0.14844 0.0795,0.0265 -0.20977,-0.15898 -0.50977,-0.45898 -0.14286,-0.14287 -0.29559,-0.40597 -0.47851,-0.86328 -0.14024,-0.35059 -0.22852,-0.81263 -0.22852,-1.5293 z m -42.638671,1.28516 c 0.0047,0.0119 0.0037,0.008 0.0098,0.0234 0.04208,0.10518 0.154415,0.33019 0.322266,0.49804 0.05,0.05 0.120526,0.12897 0.255859,0.23047 0.135334,0.1015 0.366667,0.26172 0.75,0.26172 -0.283333,0 -0.346875,-0.0797 -0.296875,-0.0547 0.05,0.025 0.214324,0.1543 0.597657,0.1543 h 3.798828 c 0.1,0 0.236593,0.006 0.429687,-0.0215 0.193095,-0.0276 0.491642,-0.0854 0.777344,-0.37109 l 0.300781,-0.29883 c 0.140471,-0.14047 0.121112,-0.18923 0.167969,-0.29101 -0.0764,0.30344 -0.190755,0.57877 -0.369141,0.93554 -0.110557,0.22112 -0.269469,0.39644 -0.605468,0.64844 -0.229333,0.172 -0.334506,0.19922 -0.701172,0.19922 h -3.798828 c -0.07778,0 -0.283985,-0.0484 -0.583985,-0.14844 0.07947,0.0265 -0.209766,-0.15898 -0.509765,-0.45898 -0.142865,-0.14287 -0.295592,-0.40597 -0.478516,-0.86328 -0.04066,-0.10165 -0.03537,-0.31957 -0.06641,-0.44336 z m -10.757813,0.17578 c 0.05057,0.11495 0.138843,0.29509 0.289063,0.44531 0.05,0.05 0.122479,0.12897 0.257812,0.23047 0.135333,0.1015 0.366667,0.26172 0.75,0.26172 -0.283333,0 -0.348828,-0.0797 -0.298828,-0.0547 0.05,0.025 0.214323,0.15625 0.597656,0.15625 h 5.685547 c 0.07768,0.13179 0.115235,0.23157 0.115235,0.29883 0,0.23333 -0.04351,0.22906 -0.0078,0.19336 -0.2,0.2 -0.136632,0.10742 0.0078,0.10742 h -5.800782 c -0.07778,0 -0.283984,-0.0484 -0.583984,-0.14844 0.07947,0.0265 -0.207813,-0.15898 -0.507813,-0.45898 -0.142865,-0.14287 -0.295591,-0.40792 -0.478515,-0.86524 -0.01525,-0.0381 -0.01142,-0.12508 -0.02539,-0.16601 z m 85.509764,0.22266 c 0.0344,0.0459 0.0385,0.0815 0.0801,0.12304 0.05,0.05 0.12053,0.12897 0.25586,0.23047 0.13533,0.1015 0.36667,0.26172 0.75,0.26172 -0.28333,0 -0.34688,-0.0797 -0.29688,-0.0547 0.05,0.025 0.21433,0.1543 0.59766,0.1543 h 5.68555 c 0.0788,0.13306 0.11328,0.23315 0.11328,0.30078 0,0.23333 -0.0416,0.22906 -0.006,0.19336 -0.2,0.2 -0.13859,0.10742 0.006,0.10742 H 152 c -0.0778,0 -0.28398,-0.0504 -0.58398,-0.15039 0.0795,0.0265 -0.20977,-0.15703 -0.50977,-0.45703 -0.1171,-0.1171 -0.251,-0.38935 -0.39258,-0.70898 z m -22.83398,0.0117 -0.0508,0.17579 c 0.0116,-0.029 0.001,-0.0435 0.0117,-0.0723 0.01,-0.0421 0.0304,-0.0601 0.0391,-0.10352 z M 129,126.80078 h 7.58594 c 0.0776,0.13172 0.11328,0.23159 0.11328,0.29883 0,0.23333 -0.0416,0.22906 -0.006,0.19336 -0.2,0.2 -0.13859,0.10742 0.006,0.10742 h -7.58399 C 129.03637,127.26726 129,127.16726 129,127.09961 Z m 10.69922,0 h 7.58594 c 0.0777,0.13179 0.11523,0.23157 0.11523,0.29883 0,0.23333 -0.0435,0.22906 -0.008,0.19336 -0.2,0.2 -0.13663,0.10742 0.008,0.10742 h -7.58594 c -0.0789,-0.13313 -0.11523,-0.23313 -0.11523,-0.30078 z"
     id="path52" />
  <path
     style="color:#000000;fill:#ffffff;stroke-miterlimit:10;-inkscape-stroke:none"
     d="m 153.33594,140.64844 c -0.28395,0.018 -0.57469,0.10034 -0.89063,0.33203 -0.31594,0.23169 -0.49807,0.60226 -0.56836,0.89258 -0.0703,0.29031 -0.0762,0.54284 -0.0762,0.82617 v 8.60156 c 0,0.575 -0.007,1.02063 0.0469,1.45313 0.0543,0.43249 0.20493,0.94368 0.61523,1.30664 0.4103,0.36295 0.8842,0.45364 1.33594,0.49804 0.45174,0.0444 0.95156,0.041 1.60156,0.041 0.89048,0 1.75936,-0.42186 2.28125,-1.07422 l 0.0137,-0.0195 0.0137,-0.0195 c 2.08501,-2.8793 4.28179,-5.7759 6.39063,-8.78711 2.2e-4,-3.2e-4 0.002,3.2e-4 0.002,0 0.13848,-0.18488 0.12155,-0.19922 0.49805,-0.19922 l -0.19531,-0.0195 c 0.63973,0.12794 1.38754,0.13611 2.13086,-0.15039 0.53971,-0.19301 0.98342,-0.71062 1.10742,-1.10742 0.12619,-0.40381 0.11975,-0.65089 0.12695,-0.67969 0.0749,-0.29974 0.0395,-0.69511 -0.12695,-0.98633 -0.16641,-0.29122 -0.40145,-0.45365 -0.59571,-0.55078 -0.37331,-0.18666 -0.65643,-0.19616 -0.91015,-0.19727 -2.81119,-0.39443 -5.10131,0.60554 -6.64258,2.69727 l -0.0176,0.0254 -0.0156,0.0254 c -0.98536,1.52282 -1.98947,2.97428 -3.05274,4.48828 0.0141,-1.62012 0.0918,-3.26307 0.0918,-4.94531 0,-0.325 0.005,-0.58432 -0.0293,-0.87109 -0.034,-0.28678 -0.13308,-0.67997 -0.43945,-0.98633 -0.30637,-0.30637 -0.66467,-0.39954 -0.94922,-0.44922 -0.27844,-0.0486 -0.55122,-0.0638 -0.89062,-0.0879 l -0.0195,-0.002 c -0.28534,-0.0268 -0.55849,-0.0723 -0.83593,-0.0547 z m 0.46875,1.99218 c 0.0518,-8.6e-4 -0.072,0.0295 0.20508,0.0547 l 0.01,0.002 h 0.01 c 0.22754,0.0162 0.32931,0.0293 0.46093,0.043 0.003,0.11302 0.01,0.17537 0.01,0.35938 0,1.76296 -0.0996,3.56335 -0.0996,5.40039 l 0.004,-0.0996 c -0.11051,1.10509 0.006,1.8434 0.10351,2.62305 l 0.19531,1.56054 c -0.23787,-0.004 -0.56806,-0.002 -0.70898,-0.0156 -0.27951,-0.0275 -0.29233,-0.0794 -0.20703,-0.004 0.0853,0.0755 0.0718,0.15579 0.0449,-0.0586 -0.0269,-0.21438 -0.0312,-0.63008 -0.0312,-1.20508 v -8.60156 c 0,-0.0357 0.003,-0.0276 0.004,-0.0586 z m 9.35351,0.33399 c -0.22739,0.14537 -0.4583,0.28983 -0.61914,0.49414 0.2102,-0.13849 0.38714,-0.40251 0.61914,-0.49414 z m -17.4414,0.25586 c -1.86058,-0.27944 -3.88214,0.15421 -5.58985,1.34961 l -0.01,0.008 -0.01,0.008 c -2.17654,1.60377 -3.21378,4.19458 -2.3457,6.55078 l 0.004,0.008 0.002,0.008 c 0.89045,2.28974 3.39948,3.63867 6.13281,3.63867 0.98725,0 1.903,-0.18281 2.53125,-0.88086 0.62825,-0.69805 0.68107,-1.69566 0.43945,-2.66211 l -0.23242,-0.93164 c 0.87625,-0.37211 1.76684,-0.75127 2.63281,-1.09765 l 0.0215,-0.008 0.0215,-0.01 c 0.28124,-0.12784 0.515,-0.23486 0.75196,-0.38086 0.23695,-0.14601 0.5299,-0.36001 0.69531,-0.76172 0.16541,-0.40171 0.0952,-0.83016 -0.008,-1.11133 -0.10301,-0.28117 -0.2364,-0.50467 -0.39649,-0.77148 l -0.008,-0.0137 -0.008,-0.0117 c -1.06464,-1.6561 -2.76443,-2.65025 -4.625,-2.92969 z m -22.07227,0.17969 c -3.91269,-0.5754 -7.86403,1.86859 -8.23828,5.48632 l -0.002,0.004 v 0.004 c -0.18615,1.92351 0.77594,3.63397 2.22851,4.70117 1.43309,1.05288 3.3525,1.54311 5.33008,1.28125 0.23847,-0.008 0.45203,-0.0464 0.68164,-0.14844 0.25067,-0.11141 0.55093,-0.29326 0.75,-0.69141 l 0.041,-0.082 0.0254,-0.0898 C 124.63675,153.25966 125,152.45039 125,151.40039 v -1.02148 c 0.88444,-0.34825 1.74377,-0.69731 2.65625,-1.04493 l 0.0195,-0.006 0.0176,-0.01 c 0.40811,-0.1749 0.86198,-0.338 1.13867,-0.9375 0.13835,-0.29975 0.14668,-0.64527 0.0957,-0.89649 -0.0496,-0.24429 -0.13476,-0.42868 -0.22656,-0.61328 -0.94798,-2.00936 -2.83707,-3.12858 -5.05273,-3.46093 h -0.002 z m 38.85156,0.0957 -0.006,0.008 -0.01,0.0137 c -2.07609,2.96584 -4.26118,5.84907 -6.36133,8.74805 -6.3e-4,7.9e-4 -0.001,-7.8e-4 -0.002,0 -0.27593,0.34518 -0.20843,0.32422 -0.7168,0.32422 -0.084,0 -0.10354,-0.004 -0.18164,-0.004 l 0.98828,-0.98828 c 0.6713,-0.6713 1.11305,-1.33651 1.50977,-1.93164 l 0.008,-0.0117 c 1.18921,-1.6849 2.28479,-3.27875 3.38086,-4.9707 0.42779,-0.58058 0.91178,-0.86233 1.39062,-1.1875 z m -62.02539,0.11719 c -0.951774,0.0453 -1.923127,0.25958 -2.855466,0.65429 -5.23e-4,2.2e-4 -0.0014,-2.1e-4 -0.002,0 -2.808769,1.17111 -4.66866,4.05238 -3.871094,6.71094 0.775456,2.58485 3.646724,4.31563 6.671873,4.20899 0.3519,-3.6e-4 0.72537,-0.0134 1.13672,-0.19336 0.18106,-0.0792 0.27121,-0.30032 0.42578,-0.44922 0.18366,0.15551 0.37488,0.32488 0.54688,0.37109 0.24488,0.0658 0.45316,0.0742 0.67578,0.0742 H 104 l -0.14062,-0.01 c 0.50839,0.0726 1.08342,-0.002 1.51953,-0.32226 0.4361,-0.31981 0.6379,-0.75748 0.76953,-1.15235 l 0.0156,-0.0488 0.0117,-0.0508 c 0.16665,-0.74992 0.54294,-1.71478 0.77344,-2.69922 l 0.002,-0.01 c 0.35298,-1.06557 0.35319,-2.15725 -0.002,-3.22266 l -0.004,-0.01 -0.004,-0.0117 c -0.92426,-2.58791 -3.60938,-3.97592 -6.47071,-3.83984 z m 79.13282,0.17187 c -1.7193,0.23124 -3.34089,1.06465 -4.54883,2.44141 -1.13307,1.25027 -1.71193,2.69625 -1.54883,4.11523 0.16349,1.42241 1.05092,2.69713 2.41601,3.66406 l 0.004,0.004 0.006,0.002 c 1.56193,1.08134 3.33395,1.18025 4.91797,1.07618 1.51664,-0.0592 2.97636,-0.75395 4.13476,-1.79883 -0.005,0.0611 -0.01,0.0317 -0.01,0.13867 0,0.13032 0.007,0.30918 0.10156,0.53711 0.0943,0.22793 0.31747,0.48979 0.57617,0.61914 0.53852,0.26926 1.07666,0.2581 1.43164,0.22852 0.35499,-0.0296 0.56562,-0.0496 0.65235,-0.0352 l 0.0801,0.0137 h 0.084 c 0.45,0 0.96255,-0.26742 1.20117,-0.57422 0.23863,-0.3068 0.29766,-0.56094 0.34766,-0.71094 l 0.006,-0.0156 0.004,-0.0176 c 0.48982,-1.66537 1.08943,-3.36498 1.59961,-5.09961 l 0.01,-0.0293 0.006,-0.0293 c 0.0596,-0.2581 0.0972,-0.39498 0.13086,-0.51172 0.13238,-0.008 0.30403,-0.0117 0.5957,-0.0117 0.24263,0 0.3452,0.01 0.49024,0.0176 -0.0172,0.13348 -0.0286,0.23849 -0.0684,0.45508 l -1.17774,3.83203 c -0.11765,0.32809 -0.21773,0.59368 -0.2832,0.89062 -0.0685,0.31069 -0.11684,0.82906 0.23242,1.26563 0.34926,0.43657 0.76125,0.49763 1.07813,0.54687 0.31688,0.0493 0.64336,0.0648 1.06835,0.0898 l -0.10546,-0.0117 c 0.38886,0.0648 0.80909,0.095 1.26562,-0.0762 0.45653,-0.1712 0.85051,-0.59697 1.02734,-1.03907 l 0.008,-0.0195 0.008,-0.0215 c 0.70638,-2.01822 1.3225,-3.96602 1.73633,-6.03516 l 0.004,-0.0156 0.002,-0.0156 c 0.17764,-1.06588 0.0408,-2.11772 -0.65625,-2.83594 -0.69709,-0.71821 -1.69675,-0.92773 -2.83008,-0.92773 h -4.29883 c -0.46666,0 -0.93596,0.12712 -1.29883,0.40625 -0.36286,0.27913 -0.57907,0.67958 -0.67187,1.05078 l 0.0176,-0.0625 c -0.20059,0.62682 -0.37895,1.28343 -0.58789,1.91602 -0.38979,-0.8831 -1.0058,-1.72765 -2.08204,-2.27735 -1.58057,-0.99662 -3.37303,-1.36747 -5.07421,-1.13867 z m -34.21875,1.39844 c 1.33754,0.19528 2.53389,0.90189 3.26953,2.04297 0.0169,0.0286 0.0143,0.0285 0.0293,0.0547 -0.0763,0.0367 -0.0972,0.0522 -0.19726,0.0976 -0.0917,0.0368 -0.17989,0.0762 -0.27149,0.11328 l -0.9082,-0.9082 c -1.21035,-1.21035 -3.03699,-1.45319 -4.57617,-0.81836 -1.6393,0.63645 -2.69381,2.2219 -2.41602,3.88867 l 0.20117,1.21289 1.14649,-0.44531 c 0.0792,-0.0308 0.16275,-0.0691 0.24219,-0.0996 -0.20963,0.13015 -0.33994,0.11831 -0.53711,0.41406 l -0.52344,0.78711 0.75586,0.56641 c 0.15463,0.11597 0.32305,0.15372 0.48437,0.24023 -1.14647,-0.40799 -2.10403,-1.02686 -2.44531,-1.89648 -0.52376,-1.43815 0.0363,-3.0381 1.64844,-4.23047 1.28922,-0.8977 2.76268,-1.21444 4.09766,-1.01953 z m -22.03321,0.19531 c 1.68048,0.25207 2.72338,0.92341 3.38867,2.15625 -0.35667,0.1363 -0.68576,0.272 -1.0371,0.4082 l 0.53125,-0.33203 -0.78711,-0.88476 c -1.10332,-1.24123 -2.92817,-1.58787 -4.56836,-0.97266 -1.70755,0.5421 -2.81608,2.13673 -2.67578,3.82031 l 0.0937,1.11719 1.0996,-0.2207 c 0.25839,-0.0517 0.74152,-0.24976 1.08985,-0.35938 -0.30901,0.12956 -0.6392,0.20684 -0.91797,0.625 l -0.50391,0.75391 0.70313,0.57422 c 0.75562,0.61823 1.66752,0.80993 2.45508,0.76172 0.17271,-0.0106 0.29495,-0.0811 0.45898,-0.10742 -0.019,0.0619 -0.0212,0.11133 -0.041,0.17578 -1.45073,0.17556 -2.85391,-0.19727 -3.82422,-0.91016 -0.99557,-0.73144 -1.53114,-1.71898 -1.41993,-2.89258 0.22754,-2.18026 3.07023,-4.13495 5.95508,-3.71289 z m -22.81836,0.23242 c 0.12232,-0.006 0.22527,0.0417 0.34571,0.043 -0.63296,-0.0121 -1.272579,0.0551 -1.869144,0.32227 -1.985094,0.76955 -3.008007,2.85346 -2.355469,4.72461 0.285076,0.90423 0.972944,1.58121 1.787109,1.95703 -1.338293,-0.5044 -2.495625,-1.29727 -2.783203,-2.25586 -0.402283,-1.34094 0.736214,-3.45975 2.726563,-4.28906 l 0.002,-0.002 h 0.0039 c 0.212107,-0.09 0.421751,-0.0831 0.634766,-0.14843 l 0.02344,-0.01 c -0.0046,0.002 -0.0071,0.006 -0.01172,0.008 0.502036,-0.15284 1.007731,-0.32454 1.496091,-0.34961 z m 1.00586,0.125 c 1.64274,0.21269 3.02938,1.04751 3.51172,2.37891 0.24089,0.72665 0.24281,1.23054 0,1.95898 l -0.0156,0.0488 -0.0117,0.0508 c -0.16665,0.74991 -0.54099,1.71479 -0.77149,2.69922 -0.0684,0.20513 -0.11774,0.21864 -0.0566,0.17383 0.0611,-0.0448 0.13692,-0.0195 -0.0547,-0.0469 l -0.0703,-0.01 h -0.37109 c 0.31603,-1.01544 0.5399,-2.03259 0.83984,-2.85742 l 0.0156,-0.0391 0.01,-0.041 c 0.18104,-0.66379 0.24099,-1.35313 0.0254,-2.01953 -0.2156,-0.6664 -0.69544,-1.22744 -1.3164,-1.66211 -0.52556,-0.36789 -1.12996,-0.52584 -1.73438,-0.63477 z m 78.33203,0.008 c 0.0377,-0.005 0.0773,0.0101 0.11524,0.006 -0.1112,0.008 -0.21305,0.0445 -0.32227,0.0605 0.0716,-0.0127 0.1349,-0.0567 0.20703,-0.0664 z m 1.04297,0.0488 c 0.93101,0.0579 1.86963,0.27445 2.7461,0.83789 l 0.0449,0.0293 0.0469,0.0254 c 0.84403,0.42202 1.37376,1.41827 1.4375,1.79102 0.0349,2.07483 -1.65369,3.80226 -3.44336,4.35937 0.47923,-0.19161 0.93019,-0.44234 1.31641,-0.76172 0.82535,-0.6825 1.4375,-1.65542 1.4375,-2.7832 0,-1.90786 -1.66838,-3.24364 -3.58594,-3.49805 z m 8.33985,0.0937 c -3.9e-4,1e-5 -0.033,0.004 0.0469,0.004 h 1.37695 c -0.24329,0.0419 -0.50001,0.0779 -0.74804,0.26758 -0.31669,0.24217 -0.48274,0.5774 -0.57813,0.84961 -0.0906,0.25854 -0.14532,0.51177 -0.21484,0.81445 -0.47969,1.62917 -1.06212,3.29285 -1.56445,4.98828 -0.15567,0.006 -0.32841,-0.008 -0.44336,0.006 0.58006,-2.26722 1.37087,-4.57133 2.12304,-6.92187 z m 3.72656,0.004 h 0.61914 c 0.86667,0 1.26662,0.18853 1.39453,0.32031 0.12703,0.13088 0.23742,0.38506 0.11914,1.10742 -0.37661,1.87475 -0.94689,3.68086 -1.61523,5.59961 -0.0344,0.001 -0.0132,0.006 -0.13282,-0.0137 l -0.0527,-0.01 -0.0547,-0.002 c -0.17473,-0.0103 -0.22899,-0.0198 -0.36133,-0.0293 0.0214,-0.0613 0.0201,-0.0673 0.0449,-0.13672 l 0.008,-0.0215 1.22265,-3.97461 0.0117,-0.0566 c 0.0772,-0.41174 0.13686,-0.74442 0.14844,-1.09179 0.0116,-0.34737 -0.0316,-0.79768 -0.35156,-1.18164 -0.29202,-0.35043 -0.67525,-0.45039 -1,-0.50977 z m -14.82422,0.41211 c -0.0755,0.0411 -0.14408,0.0897 -0.2168,0.13477 0.0742,-0.0432 0.14092,-0.0954 0.2168,-0.13477 z m -1.16602,0.89648 c -0.64623,0.7109 -1.08984,1.59248 -1.08984,2.5918 v 0.0371 l 0.002,0.0391 c 0.10713,1.39267 1.10772,2.4975 2.45703,3.00782 -0.44742,-0.1174 -0.89418,-0.23451 -1.2871,-0.50586 -0.001,-8.6e-4 -0.003,-0.001 -0.004,-0.002 -1.02649,-0.73054 -1.48805,-1.50423 -1.57422,-2.2539 -0.0865,-0.75259 0.18341,-1.60313 1.04492,-2.55078 l 0.008,-0.006 0.006,-0.008 c 0.12786,-0.14612 0.29862,-0.22016 0.4375,-0.34961 z m -75.99218,0.37696 c 0.38648,0.0342 0.76453,0.17853 1.1289,0.43359 0.37904,0.26533 0.4992,0.45507 0.5586,0.63867 0.0594,0.1836 0.0682,0.4427 -0.0508,0.87891 l 0.0254,-0.0781 c -0.21041,0.57862 -0.33104,1.06458 -0.47461,1.61329 -0.23591,-0.0843 -0.47618,-0.20063 -0.68555,-0.17969 -0.24973,0.025 -0.36311,0.0798 -0.47852,0.12304 -0.68616,0.12027 -1.294998,0.0455 -1.712886,-0.13476 -0.418836,-0.18067 -0.642564,-0.41987 -0.751953,-0.77539 l -0.0078,-0.0215 -0.0078,-0.0195 c -0.324476,-0.90853 0.03421,-1.78724 1.210937,-2.22851 l 0.03125,-0.0117 0.03125,-0.0137 c 0.402427,-0.18293 0.797117,-0.25879 1.183597,-0.22461 z m 20.68554,0.0352 c -0.006,0.002 -0.007,0.004 -0.0137,0.006 -0.10653,0.0405 -0.14423,0.0442 -0.25195,0.084 0.0322,-0.0117 0.0429,-0.0444 0.0762,-0.0547 l 0.0332,-0.01 0.0312,-0.0137 c 0.0433,-0.0167 0.0817,0.002 0.125,-0.0117 z m 58.61719,0.0781 c 1.22941,0 2.19922,0.91585 2.19922,1.60156 0,0.37222 -0.23825,0.84774 -0.71289,1.24024 -0.47465,0.39249 -1.14637,0.6582 -1.78711,0.6582 -1.24369,0 -2.00062,-0.76471 -2.08008,-1.4375 0.0313,-0.92653 1.15361,-2.0625 2.38086,-2.0625 z m -81.619139,5.03515 c 0.629461,0.24229 1.344389,0.23841 2.064449,0.19141 -0.0223,0.0753 -0.0381,0.18741 -0.0625,0.25195 -0.0287,0.005 -0.0852,0.0215 -0.2832,0.0215 h -0.0195 l -0.0195,0.002 c -0.60517,0.0233 -1.118266,-0.28357 -1.679689,-0.4668 z m 89.218749,0.0664 0.16406,0.0137 c -0.0873,-0.0145 -0.1153,0.008 -0.19531,0.002 0.007,-0.001 0.0272,-0.0156 0.0312,-0.0156 z m -9.3418,0.16406 c 0.17147,0.0554 0.36612,0.0524 0.54688,0.0879 -0.18425,-0.0205 -0.37081,-0.0502 -0.54688,-0.0879 z m 2.73047,0 c -0.17637,0.0331 -0.35151,0.13028 -0.52539,0.13672 h -0.0156 -0.0137 c -0.0607,0.004 -0.10988,-0.009 -0.16992,-0.006 0.24638,-0.0312 0.49062,-0.0631 0.72461,-0.13086 z"
     id="path54" />
  <path
     style="color:#000000;fill:#ffffff;stroke-miterlimit:10;-inkscape-stroke:none"
     d="m 45.800781,139.69922 c -2.157901,0 -4.138462,1.42031 -4.568359,3.4707 -0.248623,0.96093 -0.113924,1.9669 0.416015,2.74414 0.53497,0.78462 1.370403,1.32276 2.388672,1.71875 l 0.02344,0.008 0.02344,0.008 c 0.6,0.2 1.068384,0.37502 1.390625,0.63281 l 0.02148,0.0176 0.02344,0.0156 c 0.560712,0.40051 0.800365,0.77561 0.882813,1.11914 0.08143,0.33928 0.02938,0.7267 -0.267578,1.25391 -0.582865,0.92986 -2.062003,1.63439 -2.783204,1.52344 l -0.03906,-0.006 -0.04102,-0.002 c -0.499157,-0.0357 -0.729248,-0.16536 -0.945312,-0.40234 -0.216065,-0.23697 -0.416713,-0.65583 -0.544922,-1.29687 l -0.06055,-0.29688 -0.607422,-0.60742 h -0.414062 c -0.655555,0 -1.252971,-0.0615 -1.832032,0.51758 -0.28953,0.28953 -0.413266,0.70326 -0.43164,1.01562 -0.01837,0.31237 0.02644,0.57557 0.08398,0.86328 l 0.01172,0.0605 0.01953,0.0606 c 0.242164,0.72649 0.624728,1.37277 1.142578,1.89062 1.282842,1.28284 2.987379,1.39557 4.478516,1.28906 h 0.0098 l 0.0098,-0.002 c 1.531364,-0.13921 2.908743,-0.89284 3.9375,-1.9707 0.356779,0.66373 0.896998,1.23993 1.658203,1.58594 l 0.0059,0.004 0.0078,0.004 c 1.412435,0.6141 2.996069,0.60352 4.378906,0.14258 0.933685,-0.31123 1.706156,-0.92063 2.335938,-1.66407 -0.224815,1.17161 -0.475934,2.34769 -0.697266,3.51758 l -0.167968,0.88477 0.861328,0.25976 c 0.602519,0.18076 1.212466,0.30034 1.855468,-0.006 0.643003,-0.30619 0.958041,-1.01885 1.027344,-1.64257 v -0.006 -0.004 c 0.04806,-0.48063 0.201401,-1.10901 0.326172,-1.67187 0.248503,0.12594 0.495105,0.3304 0.763672,0.41992 l 0.01563,0.006 0.01758,0.006 c 2.003492,0.58926 4.133752,0.20669 5.849609,-0.76563 0.780609,-0.44234 1.451538,-1.05042 2.013672,-1.73242 0.361688,0.72902 0.843107,1.39868 1.570313,1.87109 1.350963,0.8981 3.078478,1.06134 4.697265,0.77735 0.979858,-0.17191 1.884001,-0.57497 2.703125,-1.09961 l -0.148437,0.66992 1,0.19922 c 0.600572,0.12011 1.192397,0.12011 1.792969,0 l 0.632812,-0.12696 0.144531,-0.6289 c 0.310948,-1.34744 0.51173,-2.64588 0.800782,-3.89844 l 0.0039,-0.0156 0.002,-0.0137 c 0.234628,-1.17313 0.919463,-1.95393 2.271484,-2.46093 l 0.02148,-0.008 0.02148,-0.008 c 0.460931,-0.19754 0.889488,-0.49968 1.113281,-0.94726 0.223794,-0.44759 0.191407,-0.82227 0.191407,-1.07227 v -0.76367 l -0.736328,-0.20117 c -1.079585,-0.29444 -1.899536,0.0254 -2.578125,0.36523 -0.103668,-0.075 -0.173148,-0.21852 -0.267579,-0.25 L 81.462891,145 h -2.166016 l -0.152344,0.6875 c -0.705831,-0.70485 -1.545454,-1.18643 -2.449219,-1.36719 -2.868276,-0.5904 -5.783438,0.53296 -7.482421,2.66602 -0.20566,-0.44195 -0.383316,-0.9032 -0.72461,-1.25 -1.003391,-1.01958 -2.487501,-1.53711 -4.1875,-1.53711 -1.412647,0 -2.72049,0.41028 -3.880859,1.05078 -0.220264,-0.0883 -0.417902,-0.32422 -0.595703,-0.32422 -0.45,0 -0.690886,0.0742 -0.824219,0.0742 h -0.806641 l -0.01563,0.0762 -0.28125,-0.0566 c -0.499999,-0.1 -1.22557,-0.32276 -2.042968,0.0859 l -0.41211,0.20508 -0.111328,0.44726 c -0.409511,1.63805 -0.713672,3.25743 -1.013672,4.85742 v 0.004 0.002 c -0.139894,0.76942 -0.504279,1.14772 -1.429687,1.56836 l -0.01758,0.008 -0.01563,0.008 c -0.5913,0.29565 -0.728458,0.29719 -1.171875,-0.0195 -0.499222,-0.35659 -0.548511,-0.46752 -0.488282,-0.95508 0.09093,-0.44606 0.187053,-0.8337 0.28711,-1.33399 l 0.0039,-0.0156 0.002,-0.0156 c 0.192595,-1.15556 0.491814,-2.45674 0.699219,-3.70117 L 52.380859,145 h -3.435547 l -0.132812,0.84375 c -0.052,0.32935 -0.135515,0.65687 -0.193359,0.98242 -0.626051,-0.68021 -1.419966,-1.2537 -2.453125,-1.6582 h -0.002 c -0.453734,-0.21661 -0.830827,-0.34751 -0.910156,-0.40039 l -0.02734,-0.0195 -0.03125,-0.0156 c -0.318831,-0.18219 -0.575137,-0.36824 -0.691406,-0.50195 -0.116268,-0.13371 -0.128849,-0.14505 -0.109375,-0.32031 0.05611,-0.50502 0.309151,-0.76949 0.998047,-1.08008 0.238725,-0.0804 0.44803,-0.0997 0.548828,-0.0781 0.108332,0.0232 0.121757,0.0261 0.189453,0.14453 l -0.0059,-0.0117 c 0.333995,0.60119 0.935001,1.12186 1.605469,1.15234 0.670467,0.0305 1.088129,-0.25349 1.464843,-0.46875 l 0.503907,-0.28711 v -0.36523 l 0.208984,-0.20899 -0.138672,-0.54883 c -0.199141,-0.79656 -0.697414,-1.52432 -1.416015,-1.92968 -0.718602,-0.40537 -1.560143,-0.5293 -2.552735,-0.5293 z M 136.40039,140.5 c -0.38333,0 -0.79095,0.0761 -1.1543,0.31836 -0.36178,0.24119 -0.61441,0.64647 -0.71289,1.03516 -0.20892,0.64997 -0.35826,1.3411 -0.56445,1.99609 -0.13034,-0.0733 -0.24698,-0.21615 -0.35938,-0.24024 -0.18887,-0.0405 -0.17038,-0.004 -0.29101,-0.004 0.0667,-0.1814 0.12293,-0.31737 0.1875,-0.56641 0.11804,-0.45528 0.15985,-1.07568 -0.0703,-1.68945 l -0.24219,-0.65039 h -2.29297 l 0.16406,0.0137 c -0.48661,-0.0811 -1.047,0.002 -1.46093,0.32031 -0.41394,0.31842 -0.60343,0.76907 -0.6836,1.16992 l 0.0117,-0.0547 c -0.69419,2.6776 -1.49341,5.37917 -2.19922,8.10156 l -0.008,0.0254 -0.006,0.0293 c -0.0987,0.49339 -0.25794,1.23167 0.0527,2.03906 0.41224,1.19605 1.44998,2.07378 2.72266,2.33203 0.38085,0.0823 0.80246,0.0611 1.15039,-0.0918 0.35145,-0.15448 0.58764,-0.4033 0.74219,-0.60937 0.3091,-0.41213 0.45562,-0.70367 0.41992,-0.66797 0.31791,-0.31791 0.38099,-0.54629 0.55664,-0.9082 0.0696,0.17551 0.0827,0.35276 0.19336,0.52343 0.5535,0.9445 1.64684,1.71741 2.95313,1.57227 0.76917,-0.0855 1.36385,-0.61312 1.66406,-1.07227 0.30021,-0.45914 0.44972,-0.87295 0.59375,-1.125 l 0.77929,-1.36328 -1.56445,-0.13086 c -0.43505,-0.0362 -0.29063,-0.0812 -0.21289,0.0742 0.0777,0.15548 0.0125,0.0743 0.0918,-0.20312 l 0.0117,-0.0371 0.008,-0.041 c 0.16708,-0.83542 0.53985,-1.82468 0.76758,-2.97851 0.0578,-0.17351 0.0305,-0.071 -0.0527,-0.0234 -0.0238,0.0136 0.0601,-2.2e-4 0.0586,0.002 -0.004,0.005 -0.0281,0.004 0.14648,0.004 0.2,0 0.49599,0.0127 0.86719,-0.0801 0.36866,-0.0922 0.86829,-0.3754 1.11914,-0.86719 0.18364,-0.31858 0.33649,-0.61213 0.42773,-0.94922 0.0961,-0.35519 0.12183,-0.8366 -0.12109,-1.26171 -0.24292,-0.42512 -0.648,-0.64077 -1,-0.75391 -0.086,-0.0276 -0.18796,-0.0248 -0.27539,-0.0449 0.026,-0.0984 0.0109,-0.13506 0.0488,-0.25586 0.13393,-0.42616 0.33203,-0.9875 0.33203,-1.6875 v -1 h -1 c -0.7,0 -1.18387,-0.0294 -1.42774,-0.12695 L 136.5918,140.5 Z m -39.099609,0.40039 c -1.098109,0 -2.254228,-0.008 -3.390625,0.21875 -1.719044,0.33272 -3.472807,1.1176 -4.828125,2.37305 -1.34302,1.24406 -2.267377,3.02043 -2.169922,5.11133 -0.192143,3.08054 2.078423,5.45956 4.808594,6.25585 l 0.01367,0.004 0.01367,0.004 c 0.576426,0.15037 0.997496,0.26343 1.392578,0.32422 0.395082,0.0608 0.862396,0.0889 1.316406,-0.1875 0.45401,-0.27636 0.628886,-0.6938 0.746094,-1.01563 0.117208,-0.32182 0.204487,-0.64862 0.345703,-1.07226 l -0.01953,0.0547 c 0.06921,-0.17302 0.134583,-0.35608 0.15625,-0.60742 0.02167,-0.25133 -0.03338,-0.60796 -0.228516,-0.88672 -0.390267,-0.55752 -0.880611,-0.60376 -1.316406,-0.66601 l 0.05469,0.01 c -0.703903,-0.14078 -1.325458,-0.32948 -1.746093,-0.58008 -0.416489,-0.24812 -0.642488,-0.50183 -0.775391,-0.98828 -0.326451,-1.40794 -0.09127,-2.34731 1.105469,-3.23242 1.011184,-0.66693 2.064181,-0.91992 3.419922,-0.91992 0.799999,0 1.362075,0.12394 2.03125,-0.36914 0.334587,-0.24654 0.517347,-0.60588 0.617187,-0.89844 0.09287,-0.27214 0.147382,-0.54053 0.214844,-0.85742 v -0.004 c 0.06936,-0.24336 0.12083,-0.48557 0.08984,-0.79101 -0.03114,-0.30693 -0.211882,-0.69467 -0.482422,-0.91602 -0.541081,-0.4427 -0.971522,-0.36328 -1.369141,-0.36328 z m 77.203129,0.0273 c -0.42688,0.0104 -0.84276,0.11662 -1.21289,0.32813 -0.74028,0.42301 -1.21651,1.25013 -1.28711,2.16797 l -0.0508,0.63476 c -0.46855,-0.30226 -0.89313,-0.35937 -1.35351,-0.35937 h -0.0898 l -0.0879,0.0176 c -1.27987,0.2327 -2.56493,0.87046 -3.43164,2.10156 -0.0996,0.13729 -0.12063,0.27704 -0.20507,0.41601 0.0967,-0.42514 0.21484,-0.83338 0.21484,-1.33398 v -0.82812 l -0.8125,-0.1543 c -1.09156,-0.20792 -1.87509,-0.35624 -2.69141,0.004 -0.40816,0.18008 -0.74308,0.51048 -0.95898,0.85352 -0.2159,0.34304 -0.35079,0.7008 -0.48633,1.10742 l -0.0156,0.0469 -0.01,0.0488 c -0.49361,2.1719 -1.08569,4.3438 -1.77734,6.51757 -0.0412,0.12049 -0.15515,0.35957 -0.1836,0.75782 -0.0144,0.20226 -0.008,0.4788 0.16016,0.78515 0.15634,0.28549 0.48228,0.49481 0.77539,0.58789 0.90411,0.38956 1.77827,0.25685 2.44141,0.16211 l -0.14063,0.0117 c 0.24401,0 0.49255,-0.13186 0.71094,-0.26758 0.30403,0.25171 0.65352,0.33208 0.91797,0.33789 0.27314,0.006 0.51181,-0.036 0.77343,-0.0937 1.92492,-0.38807 3.066,-1.65379 3.76563,-3.15039 -0.11061,0.39925 -0.22152,0.80843 -0.33203,1.20313 l 0.0352,-0.10156 c -0.15976,0.39941 -0.26909,1.01423 0.12696,1.52343 0.36388,0.46786 0.82395,0.49543 1.19531,0.50391 0.28915,0.0679 0.58534,0.13594 0.72852,0.13086 0.48799,0.0559 1.00113,0.0453 1.47461,-0.19141 0.48851,-0.24425 0.81942,-0.66056 1.07031,-1.09961 l 0.0664,-0.11523 0.0332,-0.12891 c 0.59136,-2.26689 1.28788,-4.45204 1.99023,-6.75976 l -0.002,0.002 c 0.1045,-0.33964 0.18925,-0.61745 0.22851,-0.93945 0.0393,-0.32201 0.0164,-0.81326 -0.3164,-1.19727 -0.0648,-0.0748 -0.13593,-0.0456 -0.20508,-0.0996 0.39583,-0.20523 0.80044,-0.48449 0.91602,-0.77344 0.14899,-0.37248 0.16518,-0.6373 0.1914,-0.74218 l 0.0293,-0.11914 v -0.12305 c 0,-0.1 0.029,-0.34058 -0.11719,-0.68164 -0.14285,-0.33331 -0.51206,-0.63055 -0.8457,-0.75 -0.40137,-0.16014 -0.82183,-0.25021 -1.23242,-0.24024 z m -38.47461,1.5 c 0.1171,0.0468 0.2207,0.0108 0.33593,0.043 -0.005,0.004 -0.004,0.008 -0.01,0.0117 -0.0633,0.0422 -0.0718,0.0176 0.0449,0.0176 z m 0.40234,0.0508 c 0.1983,0.0511 0.38645,0.0521 0.58008,0.0723 -0.0262,0.0879 -0.0221,0.13878 -0.0527,0.23633 -0.14106,0.44884 -0.32978,1.02217 -0.25195,1.72266 l 0.0371,0.3496 0.24805,0.24805 c 0.05,0.05 0.0978,0.14364 0.36133,0.27539 0.26351,0.13176 0.49687,0.11719 0.54687,0.11719 l -0.0664,-0.002 c 0.14319,0.01 0.17744,0.0265 0.2793,0.041 -0.01,0.019 -0.0127,0.0246 -0.0234,0.0449 -0.0641,0.007 -0.13724,0.0156 -0.28906,0.0156 -0.35555,0 -0.76402,0.0102 -1.19726,0.25781 -0.43325,0.24757 -0.7094,0.70046 -0.85157,1.12695 l -0.0234,0.0664 -0.0117,0.0703 c -0.17318,0.95247 -0.55199,1.91905 -0.7793,3.01368 -0.12052,0.42178 -0.28283,0.98513 0.043,1.63671 0.11677,0.23355 0.33258,0.37392 0.53711,0.52344 -0.004,0.007 -0.0135,0.027 -0.0176,0.0332 -0.12479,0.19086 -0.0801,0.1632 -0.21094,0.17774 -0.47982,0.0533 -0.76905,-0.15981 -1.02148,-0.60156 l -0.0156,-0.0312 -0.0195,-0.0274 c -0.22683,-0.34024 -0.22411,-0.58765 -0.14453,-1.07031 0.58068,-2.79684 1.45465,-5.5306 2.34375,-8.29687 z m -5.57812,0.2207 h 0.6621 c -0.0663,0.20176 -0.16117,0.43841 -0.26367,0.78515 -0.0632,0.18953 -0.12028,0.37642 -0.13867,0.61915 -0.0184,0.24272 0.0174,0.59011 0.23047,0.89453 0.21309,0.30442 0.53442,0.46155 0.7793,0.52734 0.17221,0.0463 0.32258,0.046 0.47656,0.0527 -0.0164,0.0488 -0.0212,0.15209 -0.0352,0.17774 -0.63191,-0.0235 -1.25893,0.0141 -1.73633,0.41992 -0.53752,0.4569 -0.69476,1.05976 -0.80859,1.62891 l -0.008,0.041 -0.006,0.043 c -0.0829,0.74647 -0.34727,1.47345 -0.6543,2.39453 l -0.0254,0.0742 -0.0117,0.0781 c -0.0441,0.26445 -0.25806,0.7936 0.082,1.50781 0.11,0.231 0.37121,0.36747 0.59766,0.5293 -0.0318,0.0632 -0.1334,0.18855 -0.15234,0.22265 -0.66354,-0.14835 -1.00527,-0.44744 -1.19336,-1.01172 l -0.01,-0.0273 -0.01,-0.0273 c -0.0709,-0.17721 -0.0456,-0.43431 0.0508,-0.91993 0.68753,-2.64804 1.47475,-5.31792 2.17383,-8.00976 z m -33.833989,0.21875 c -0.01474,0.0591 -0.03765,0.16224 -0.04883,0.19922 0.106949,-0.0906 -0.0417,-0.0176 -0.771484,-0.0176 -1.633332,0 -3.173345,0.34668 -4.554688,1.26758 l -0.01758,0.0137 -0.01758,0.0137 c -1.78123,1.30624 -2.346893,3.36164 -1.882813,5.33399 l 0.0039,0.0156 0.0039,0.0137 c 0.267712,1.00392 0.937043,1.75177 1.691406,2.20117 0.665134,0.39625 1.390424,0.57078 2.097656,0.72461 -0.05871,0.18852 -0.126638,0.40077 -0.164062,0.51172 -0.219188,-0.0385 -0.568208,-0.12346 -1.083984,-0.25781 -2.042374,-0.59738 -3.538637,-2.18523 -3.378907,-4.26172 l 0.0059,-0.0644 -0.0039,-0.0664 c -0.08245,-1.48407 0.523289,-2.64139 1.542969,-3.58594 1.01968,-0.94454 2.466704,-1.60967 3.847656,-1.87695 h 0.0039 l 0.0039,-0.002 c 0.781019,-0.15621 1.736456,-0.15947 2.722656,-0.16211 z m 19.230469,0.68164 -0.0488,0.006 c -0.98122,0.0981 -1.80529,0.49472 -2.53125,1 -0.001,-0.005 0.001,-0.009 0,-0.0137 -0.074,-0.29094 -0.29313,-0.62244 -0.57031,-0.79883 -0.55114,-0.35073 -0.97713,-0.24121 -1.35547,-0.17774 -1.63696,0.23837 -2.93483,1.14051 -3.76172,2.42188 -0.7827,1.06674 -0.87878,2.20337 -1.14062,3.07617 l -0.006,0.0215 -0.006,0.0234 c -0.11902,0.47609 -0.17212,0.85226 -0.25,1.07813 -0.0779,0.22587 -0.11381,0.29305 -0.31055,0.41601 l 0.0449,-0.0273 c -0.6864,0.38134 -1.07735,1.03909 -1.23437,1.5625 -0.15702,0.52341 -0.18538,0.93986 -0.24219,1.13867 l 0.0137,-0.043 c -0.0935,0.28055 -0.0809,0.68927 0.0801,0.98438 0.16097,0.29511 0.38856,0.44818 0.57031,0.53906 0.36352,0.18176 0.63733,0.19336 0.89844,0.19336 0.92724,0 1.79472,-0.32872 2.56641,-0.81836 l -0.0625,0.61914 1,0.0937 c 2.53249,0.24119 4.94466,-1.26498 5.5664,-3.75195 0.30596,-0.93345 0.50608,-1.81315 0.77735,-2.62696 0.0922,-0.27649 0.11482,-0.42198 0.12304,-0.44335 0.008,-0.0214 -0.0845,0.10379 -0.12304,0.12304 l -0.041,0.0176 c 0.66354,-0.2949 1.12773,-0.83444 1.36328,-1.3418 0.23556,-0.50735 0.3099,-0.96617 0.40039,-1.32812 l 0.006,-0.0234 0.004,-0.0234 c 0.0802,-0.40085 0.0654,-1.01463 -0.36133,-1.4414 -0.42677,-0.42677 -0.90725,-0.45508 -1.31836,-0.45508 z m 48.05273,2.15234 c 0.0105,-0.005 0.37384,0.0437 0.47266,0.041 -0.14667,0.66044 -0.30535,1.28044 -0.54102,2.14453 l -0.002,0.01 -0.002,0.01 c -0.38903,1.5561 -0.88083,3.13269 -1.37891,4.72656 -0.0273,0.0819 -0.0161,0.0632 -0.0332,0.125 -0.24472,0.0236 -0.42033,0.0117 -0.58594,-0.002 0.65853,-2.09625 1.23733,-4.19311 1.7168,-6.29102 0.11446,-0.34337 0.2159,-0.57195 0.28125,-0.67578 0.0653,-0.10383 0.0554,-0.0805 0.0723,-0.0879 z m -52.76757,0.0156 c -0.0166,0.0636 -0.0404,0.19229 -0.0586,0.24023 -0.0795,0.20959 -0.10925,0.27793 -0.36133,0.41797 l -0.0371,0.0195 -0.0332,0.0234 c -0.59719,0.39813 -0.80433,1.04636 -0.91406,1.48437 -0.29874,1.0021 -0.49867,1.87822 -0.77344,2.80274 -0.37004,0.97546 -1.40989,1.72378 -2.36133,2.00586 0.068,-0.22659 0.0755,-0.26806 0.28907,-0.38672 l 0.0234,-0.0137 0.0215,-0.0137 c 0.60326,-0.37704 0.96851,-0.95986 1.14062,-1.45899 0.16588,-0.48105 0.21126,-0.88211 0.28711,-1.20117 0.001,-0.004 0.003,-0.005 0.004,-0.01 0.33206,-1.11054 0.44746,-1.95793 0.83789,-2.47851 l 0.0234,-0.0293 0.0215,-0.0332 c 0.46924,-0.73737 1.0784,-1.13802 1.89063,-1.36914 z m 4.26757,0.0918 c -0.015,0.0424 -0.0313,0.13632 -0.0469,0.16993 -0.0894,0.19264 -0.12487,0.25232 -0.36133,0.35742 l -0.0215,0.008 -0.0195,0.0117 c -0.43852,0.21926 -0.73284,0.64364 -0.84961,0.94727 -0.11678,0.30362 -0.14451,0.50578 -0.15235,0.52929 -0.32108,0.96325 -0.52186,1.86442 -0.80078,2.70117 l -0.0117,0.0371 -0.01,0.0371 c -0.2738,1.09518 -1.16345,1.69099 -2.21875,1.97266 0.0645,-0.12433 0.0944,-0.24687 0.30468,-0.37305 l -0.0195,0.01 c 0.6127,-0.35012 0.95289,-0.93056 1.125,-1.42969 0.17212,-0.49913 0.22142,-0.96007 0.26953,-1.29687 l -0.0156,0.084 c 0.30253,-1.31095 0.5545,-2.39763 1.46484,-3.15625 l 0.006,-0.006 0.006,-0.004 c 0.4029,-0.34534 0.87981,-0.45612 1.35156,-0.59961 z m 56.61719,0.0352 -0.0254,0.0527 c 0.004,-0.007 0.004,-0.0182 0.008,-0.0254 0.004,-0.009 0.0137,-0.0183 0.0176,-0.0273 z m 0.79102,0.006 h 0.48828 c 0.13251,0 0.16618,0.007 0.26953,0.01 -0.0131,0.0451 -0.01,0.0457 -0.0254,0.0957 v 0.002 0.002 c -0.6789,2.23066 -1.3598,4.39001 -1.95703,6.65429 -0.0945,0.14335 -0.17439,0.23759 -0.1836,0.24219 -0.0115,0.006 -0.0807,0.0392 -0.3789,0.002 l -0.0625,-0.008 h -0.0606 c -0.0861,0 -0.0496,0.0111 -0.10937,0.002 0.64467,-2.31298 1.28817,-4.68773 1.92968,-6.98242 0.0259,-0.006 0.0469,-0.009 0.0898,-0.0195 z m -3.19336,0.0449 c -0.15589,0.22688 -0.27054,0.53014 -0.45703,0.68555 l -0.0137,0.0117 -0.0117,0.01 c -1.30206,1.15738 -1.26073,2.78902 -1.49219,3.56055 l -0.002,0.002 v 0.004 c -0.37765,1.284 -1.02013,1.9761 -2.25782,2.375 0.009,-0.0199 0.0208,-0.0775 0.0293,-0.0937 0.0703,-0.13469 0.098,-0.18668 0.33398,-0.30469 l -0.0742,0.0332 c 0.57016,-0.22807 0.89795,-0.76459 1.02929,-1.1211 0.13135,-0.35651 0.17779,-0.61439 0.22656,-0.73633 l 0.0117,-0.0273 0.01,-0.0273 c 0.43689,-1.31068 0.63357,-2.46711 1.25976,-3.32813 l 0.004,-0.008 0.006,-0.008 c 0.36743,-0.52491 0.85342,-0.81543 1.39844,-1.02735 z m -86.869143,0.11914 c -0.0093,0.004 -0.01413,0.0121 -0.02344,0.0156 -0.02413,0.0115 0.02168,-0.0177 -0.01953,0 z m -39.003906,0.36719 c 0.01077,0.007 0.01471,0.005 0.02539,0.0117 0.01056,0.006 0.02273,0.0194 0.0332,0.0254 z m 2.53711,0.25391 0.04297,0.0332 c -0.0058,-0.005 -0.01172,-0.003 -0.01758,-0.008 -0.01011,-0.007 -0.01521,-0.0181 -0.02539,-0.0254 z m 13.125,0.3789 0.171875,0.25782 c -0.09089,0.0973 -0.192637,0.1767 -0.277344,0.28125 0.03763,-0.17931 0.06743,-0.3598 0.105469,-0.53907 z m 14.849609,0.21094 c -1.058745,0.80965 -2.118959,1.61779 -3.173828,2.42188 0.01628,-0.0503 -0.02214,-0.0932 -0.002,-0.14454 0.210153,-0.53413 0.672879,-1.11254 1.378906,-1.61718 0.661721,-0.40863 1.253648,-0.6234 1.796875,-0.66016 z m -10.556641,0.0254 c 0.827272,0 1.45032,0.32954 1.808594,0.77539 0.358274,0.44585 0.493571,0.99187 0.248047,1.69336 l -0.002,0.008 -0.0039,0.006 c -0.40724,1.22172 -1.201681,2.03611 -2.632813,2.45703 l -0.01758,0.006 -0.01563,0.006 c -0.911441,0.30382 -1.69999,0.11996 -2.226563,-0.2832 -0.526572,-0.40316 -0.811722,-0.99275 -0.671875,-1.79688 0.145611,-0.83726 0.686959,-1.55496 1.402344,-2.07617 0.715385,-0.52121 1.602996,-0.79492 2.111328,-0.79492 z m 16.738282,0.0508 0.15039,0.15039 c -0.08332,0.0859 -0.159463,0.16702 -0.236328,0.25782 0.02853,-0.13538 0.05709,-0.27295 0.08594,-0.40821 z m 52.070309,0.25781 c -0.25117,0.93722 -0.58804,1.82497 -0.78711,2.78711 l -0.004,0.0195 -0.004,0.0195 c -0.0206,0.12389 -8.2e-4,0.2845 -0.0117,0.42187 l -0.66797,0.0449 c -0.12275,0.008 -0.11069,-0.003 -0.17968,-0.008 -7.5e-4,-5e-5 -0.001,6e-5 -0.002,0 0.002,-0.0689 0.0121,0.007 0.0352,-0.13086 l -0.0332,0.13086 c 0.29135,-0.8721 0.62407,-1.73776 0.74023,-2.7832 l -0.0137,0.084 c 0.0862,-0.43085 0.1801,-0.52799 0.14258,-0.49609 -0.0375,0.0319 0.011,-0.0422 0.49414,-0.002 l -0.082,-0.0117 c 0.13532,0.0225 0.24393,-0.0615 0.37304,-0.0762 z m -64.492184,0.42579 c -0.0013,0.002 -6.64e-4,0.005 -0.002,0.008 -0.0019,0.004 -0.0059,0.006 -0.0078,0.01 z m 10.179687,0.26171 c -0.210323,1.01892 -0.429882,2.03447 -0.638672,3.04688 -0.300391,-0.14143 -0.578154,-0.31836 -0.96875,-0.31836 -0.588376,0 -1.000813,0.29746 -1.36914,0.56055 l -0.0098,0.008 -0.0098,0.006 c -0.247811,0.18586 -0.665696,0.36905 -1.158203,0.56641 -7.35e-4,2.8e-4 -0.0012,-2.9e-4 -0.002,0 -0.394005,0.15124 -0.71738,0.14726 -1.03125,0.125 1.701996,-1.32977 3.433475,-2.66026 5.1875,-3.99415 z m -24.847656,5.69727 -0.03516,0.0156 c 0.0061,-0.003 0.0096,-0.009 0.01563,-0.0117 0.006,-0.003 0.01353,-9.1e-4 0.01953,-0.004 z m 10.36914,0.1543 -0.03516,0.0117 c 0.0069,-0.002 0.01071,-0.008 0.01758,-0.01 0.006,-0.002 0.0116,4e-5 0.01758,-0.002 z m -21.02539,0.0312 c 0.01469,0.001 0.02238,0.0165 0.03711,0.0176 l -0.08008,-0.01 c 0.0148,0.002 0.02816,-0.01 0.04297,-0.008 z"
     id="path56" />
  <path
     style="color:#000000;fill:#ffffff;stroke-miterlimit:10;-inkscape-stroke:none"
     d="m 52,25.148437 v 12.179688 l 1.275391,-0.367188 19.238281,-5.53125 z m 132.80078,0.01563 -1.2832,0.376954 -19.23047,5.648437 20.51367,6.154297 z m -79.20117,1.736329 c -0.2,0 -0.87094,0.05649 -1.30664,0.492187 l -0.0937,0.09375 -0.10742,-0.107422 -0.14453,-0.07422 C 103.74727,27.204688 103.43372,27 102.90039,27 h -4.999999 c -0.2,0 -0.627452,-0.01285 -1.117188,0.150391 -0.363245,0.121081 -0.69444,0.289132 -1.037109,0.517578 l -0.08398,0.05469 -0.06836,0.07031 c -0.317851,0.317851 -0.526563,0.653125 -0.726563,0.953125 -0.34223,0.513345 -0.466796,1.120573 -0.466796,1.753906 0,0.585391 0.145132,1.133726 0.43164,1.621094 0.162808,0.421944 0.433951,0.829612 0.859375,1.138672 0.231453,0.202904 0.420401,0.25861 0.628906,0.339843 h -0.01953 c -0.2,0 -0.872892,0.05844 -1.308594,0.494141 l -0.113281,0.113281 -0.07422,0.146485 c -0.1,0.199999 -0.304687,0.513542 -0.304687,1.046875 0,0.199999 0.05649,0.870938 0.492187,1.30664 l 0.115235,0.115235 0.144531,0.07227 c 0.2,0.1 0.515495,0.304688 1.048828,0.304688 h 4.999999 c 0.2,0 0.6255,0.01286 1.11524,-0.150391 0.36324,-0.121082 0.69639,-0.289132 1.03906,-0.517578 l 0.082,-0.05469 0.0703,-0.07031 c 0.31785,-0.317851 0.52461,-0.651172 0.72461,-0.951172 0.34223,-0.513346 0.46875,-1.122527 0.46875,-1.755859 0,-0.586722 -0.14562,-1.136873 -0.43359,-1.625 -0.16303,-0.420598 -0.43328,-0.826637 -0.85742,-1.134766 -0.23243,-0.203777 -0.42363,-0.258573 -0.63282,-0.339844 h 0.0234 c 0.2,0 0.87094,-0.05649 1.30664,-0.492187 l 0.0937,-0.09375 0.10742,0.107422 0.14453,0.07422 c 0.2,0.1 0.51355,0.304688 1.04688,0.304688 h 1.5 v 4.900391 c 0,0.199999 0.0584,0.870938 0.49414,1.30664 l 0.11328,0.115235 0.14649,0.07227 c 0.2,0.1 0.51354,0.304688 1.04687,0.304688 0.2,0 0.87094,-0.05649 1.30664,-0.492188 l 0.11524,-0.115234 0.0723,-0.144531 c 0.1,-0.2 0.30469,-0.513543 0.30469,-1.046875 V 30.5 h 1.5 c 0.11079,0 0.4447,-0.183715 0.72461,-0.273438 -1.3e-4,0.04147 -0.0234,0.142709 -0.0234,0.173829 v 5 c 0,0.199999 0.0565,0.870938 0.49219,1.30664 l 0.11523,0.115235 0.14453,0.07227 c 0.2,0.1 0.51355,0.304688 1.04688,0.304688 0.2,0 0.87289,-0.05649 1.30859,-0.492188 l 0.11328,-0.115234 0.0742,-0.144531 c 0.1,-0.2 0.30469,-0.513543 0.30469,-1.046875 v -1.5 h 3 v 1.5 c 0,0.199999 0.0565,0.870938 0.49219,1.30664 l 0.11523,0.115235 0.14453,0.07227 c 0.2,0.1 0.5155,0.304688 1.04883,0.304688 0.2,0 0.87094,-0.05649 1.30664,-0.492188 l 0.0352,-0.03516 c 0.0372,0.04915 0.006,0.08985 0.0508,0.134766 l 0.11523,0.115234 0.14454,0.07227 c 0.19999,0.1 0.51354,0.30664 1.04687,0.30664 0.2,0 0.87094,-0.05844 1.30664,-0.49414 l 0.11524,-0.115235 0.0723,-0.144531 c 0.1,-0.2 0.30664,-0.513542 0.30664,-1.046875 V 34 h 1.79883 c 0.1,0 0.0913,0.0134 0.0527,-0.0059 l 0.21094,0.105468 h 0.23633 c -0.13333,0 -0.0477,-0.0043 0.15234,0.0957 0.0807,0.04037 0.0402,0.01094 0.24024,0.210938 0.0822,0.08215 0.0793,0.07379 0.1582,0.310547 0.1,0.3 0.15039,0.450261 0.15039,0.683594 0,0.199999 0.0565,0.870938 0.49219,1.30664 l 0.11523,0.115235 0.14453,0.07227 c 0.2,0.1 0.51355,0.304688 1.04688,0.304688 0.2,0 0.87094,-0.05649 1.30664,-0.492188 l 0.11523,-0.115234 0.0723,-0.144531 c 0.1,-0.2 0.30664,-0.513543 0.30664,-1.046875 0,-0.711111 -0.11133,-1.422857 -0.37109,-2.072266 -0.11905,-0.297614 -0.31022,-0.463817 -0.46875,-0.703125 0.11637,-0.131662 0.27279,-0.223639 0.37109,-0.371094 0.39912,-0.598684 0.44857,-1.149764 0.53906,-1.511719 L 132.5,30.623047 V 30.5 c 0,-0.05719 -0.0409,-0.101478 -0.043,-0.158203 C 132.63032,30.408993 132.72336,30.5 133,30.5 h 1.5 v 4.900391 c 0,0.199999 0.0565,0.870938 0.49219,1.30664 l 0.11523,0.115235 0.14453,0.07227 c 0.2,0.1 0.5155,0.304688 1.04883,0.304688 0.2,0 0.87094,-0.05649 1.30664,-0.492188 l 0.11524,-0.115234 0.0723,-0.144531 c 0.1,-0.2 0.30469,-0.513543 0.30469,-1.046875 V 30.5 h 1.5 c 0.1,0 0.28906,0.0102 0.55469,-0.04883 0.26562,-0.05903 0.71056,-0.245355 0.93945,-0.703125 0.1,-0.2 0.30664,-0.515495 0.30664,-1.048828 0,-0.2 -0.0584,-0.870939 -0.49414,-1.306641 -0.3357,-0.335702 -0.6737,-0.492187 -1.20703,-0.492187 H 133 c -0.2,0 -0.87094,0.05649 -1.30664,0.492187 l -0.11524,0.115234 -0.0723,0.144532 c -0.0332,0.0664 -0.0565,0.25228 -0.10156,0.347656 -0.0822,-0.07979 -0.0984,-0.189356 -0.19532,-0.259766 -0.40178,-0.352229 -0.81642,-0.498053 -1.09179,-0.589843 C 129.62745,26.987145 129.2,27 129,27 h -5 c -0.2,0 -0.87094,0.05649 -1.30664,0.492187 l -0.11523,0.115235 -0.0723,0.144531 c -0.0557,0.111418 -0.10443,0.383629 -0.17188,0.583984 -0.158,-0.243947 -0.26526,-0.506322 -0.52539,-0.695312 -0.40178,-0.352229 -0.81642,-0.498053 -1.09179,-0.589844 -0.48974,-0.163245 -0.91602,-0.15039 -0.91602,-0.15039 h -3.40039 c -0.76667,0 -1.34407,0.293726 -1.51758,0.351562 -0.41393,0.137979 -0.78776,0.456376 -1.11133,0.839844 -0.0656,-0.259815 -0.0305,-0.466031 -0.26367,-0.699219 -0.3357,-0.335702 -0.6737,-0.492187 -1.20703,-0.492187 z m 77.20117,0.935546 V 34.65625 L 171.31445,31.210937 Z M 54,27.853516 65.488281,31.369141 54,34.671875 Z m 59.69336,0.240234 c -0.0358,0.03577 -0.0212,0.06172 -0.0527,0.09766 -0.0197,0.02705 -0.0534,0.02646 -0.0723,0.05469 z m 8.93945,0.550781 0.11524,0.238281 c -0.0131,-0.03935 -0.065,-0.06626 -0.0801,-0.105468 -0.0234,-0.03987 -0.009,-0.09399 -0.0352,-0.132813 z m 9.39844,0.101563 0.11719,0.238281 c -0.0135,-0.04059 -0.0664,-0.06894 -0.082,-0.109375 -0.0229,-0.03878 -0.01,-0.09113 -0.0352,-0.128906 z m -3.93164,3.353515 0.44726,0.105469 c -0.1546,-0.0773 -0.19901,-0.04207 -0.33398,-0.07227 -0.0527,-0.0044 -0.0556,-0.0332 -0.11328,-0.0332 z"
     id="path58" />
</svg>
