<?xml version="1.0" encoding="UTF-8" standalone="no"?>
<svg
   viewBox="0 0 181.00195 181"
   version="1.1"
   id="svg36"
   sodipodi:docname="tic80_controller.svg"
   width="181.00195"
   height="181"
   inkscape:version="1.1.2 (0a00cf5339, 2022-02-04)"
   xmlns:inkscape="http://www.inkscape.org/namespaces/inkscape"
   xmlns:sodipodi="http://sodipodi.sourceforge.net/DTD/sodipodi-0.dtd"
   xmlns="http://www.w3.org/2000/svg"
   xmlns:svg="http://www.w3.org/2000/svg">
  <defs
     id="defs40" />
  <sodipodi:namedview
     id="namedview38"
     pagecolor="#ffffff"
     bordercolor="#666666"
     borderopacity="1.0"
     inkscape:pageshadow="2"
     inkscape:pageopacity="0.0"
     inkscape:pagecheckerboard="true"
     showgrid="false"
     fit-margin-top="0"
     fit-margin-left="0"
     fit-margin-right="0"
     fit-margin-bottom="0"
     inkscape:zoom="4.5921788"
     inkscape:cx="90.479927"
     inkscape:cy="90.588808"
     inkscape:window-width="2560"
     inkscape:window-height="1440"
     inkscape:window-x="1920"
     inkscape:window-y="0"
     inkscape:window-maximized="1"
     inkscape:current-layer="svg36" />
  <g
     fill="#f4f4f4"
     id="g8"
     style="fill:#ffffff;stroke:#000000;stroke-width:2"
     transform="translate(1,1)">
    <path
       style="color:#000000;fill:#ffffff;stroke:none;-inkscape-stroke:none"
       d="m -1,21.375 v 1 146.4375 H 10.1875 V 180 H 68.123047 V 168.8125 H 77.3125 V 180 H 135.25 v -11.1875 h 11.1875 V 155.625 h -11.1875 -2 -53.9375 -2 H 68.123047 66.125 12.1875 V 21.375 Z m 2,2 h 9.1875 v 132.25 1 10.1875 H 1 Z m 11.1875,134.25 H 66.123047 V 178 H 12.1875 v -9.1875 z m 55.9375,0 h 9.1875 v 9.1875 H 68.125 Z m 11.1875,0 H 133.25 V 168.8125 178 H 79.3125 v -9.1875 z m 55.9375,0 h 9.1875 v 9.1875 H 135.25 Z"
       id="path2" />
    <path
       style="color:#000000;fill:#ffffff;stroke:none;-inkscape-stroke:none"
       d="m -1,10.1875 v 1 12.189453 H 23.375 V 10.1875 Z m 2,2 h 20.375 v 9.189453 H 1 Z m 143.4375,9.1875 v 1 21.375 1 1 53.9375 1 1 42.75 H 133.25 v 1 12.18945 h 24.375 v -11.18945 -2 -31.56055 h 11.1875 V 101.6875 h 11.18945 V 43.75 H 157.625 V 21.375 Z m 2,2 h 9.1875 V 43.75 h -9.1875 z m 0,22.375 h 11.1875 20.37695 v 53.9375 h -9.18945 -11.1875 -2 -9.1875 z m 0,55.9375 h 9.1875 v 11.18945 31.56055 h -9.1875 z m 11.1875,0 h 9.1875 v 9.18945 h -9.1875 z m -22.375,44.75 h 9.1875 11.1875 v 9.18945 H 135.25 Z"
       id="path4" />
    <path
       style="color:#000000;fill:#ffffff;stroke:none;-inkscape-stroke:none"
       d="M 10.1875,-1 V 0 12.1875 H 133.25 v 11.189453 h 24.375 V 10.1875 H 146.4375 V -1 Z m 2,2 h 132.25 v 9.1875 H 133.25 12.1875 Z M 135.25,12.1875 h 11.1875 9.1875 v 9.189453 H 135.25 Z"
       id="path6" />
  </g>
  <path
     style="color:#000000;fill:#ffffff;-inkscape-stroke:none"
     d="m 11.1875,22.375 v 1 124.0625 H 136.24805 V 22.375 Z m 2,2 H 134.24805 V 145.4375 H 13.1875 Z"
     id="path10" />
  <path
     style="color:#000000;fill:#ffffff;-inkscape-stroke:none"
     d="m 22.375,44.75 v 1 56.9375 H 125.0625 V 44.75 Z m 2,2 h 98.6875 v 53.9375 H 24.375 Z"
     id="path12" />
  <g
     fill="#f4f4f4"
     id="g16"
     style="fill:#ffffff;stroke:#000000;stroke-width:2"
     transform="translate(1,1)">
    <path
       style="color:#000000;fill:#ffffff;stroke:none;-inkscape-stroke:none"
       d="m 43.75,110.875 v 1 12.1875 h 11.1875 v 11.18945 H 90.5 V 124.0625 h 11.1875 V 110.875 H 88.5 v 1 10.1875 H 56.9375 V 110.875 Z m 2,2 h 9.1875 v 9.1875 H 45.75 Z m 44.75,0 h 9.1875 v 9.1875 H 90.5 Z M 56.9375,124.0625 H 88.5 v 9.18945 H 56.9375 Z"
       id="path14" />
  </g>
  <g
     fill="#26356b"
     id="g20"
     style="fill:#ffffff;stroke:#000000;stroke-width:2"
     transform="translate(1,1)">
    <path
       style="color:#000000;fill:#ffffff;stroke:none;-inkscape-stroke:none"
       d="m 21.375,10.1875 v 1 12.189453 H 135.25 V 10.1875 Z m 2,2 H 133.25 v 9.189453 H 23.375 Z m -2,20.375 v 1 12.189453 H 124.0625 V 32.5625 Z m 2,2 h 98.6875 v 9.189453 H 23.375 Z m -13.1875,109.875 v 1 12.18945 H 135.24805 V 144.4375 Z m 2,2 h 121.06055 v 9.18945 H 12.1875 Z"
       id="path18" />
  </g>
  <g
     fill="#181a2b"
     id="g24"
     style="fill:#ffffff;stroke:#000000;stroke-width:2"
     transform="translate(1,1)">
    <path
       style="color:#000000;fill:#ffffff;stroke:none;-inkscape-stroke:none"
       d="m 43.75,54.9375 v 1 34.564453 H 56.9375 V 54.9375 Z m 44.75,0 v 1 34.564453 h 13.1875 V 54.9375 Z m -42.75,2 h 9.1875 V 88.501953 H 45.75 Z m 44.75,0 h 9.1875 V 88.501953 H 90.5 Z"
       id="path22" />
  </g>
  <g
     fill="#181a2b"
     id="g28"
     style="fill:#ffffff;stroke:#000000;stroke-width:2"
     transform="translate(1,1)">
    <path
       style="color:#000000;fill:#ffffff;stroke:none;-inkscape-stroke:none"
       d="m 133.25,21.375 v 1 124.0625 h 13.1875 v -44.75 H 157.625 V 90.501953 h 11.1875 V 54.9375 H 155.625 v 1 V 88.5 h -9.1875 V 21.375 Z m 2,2 h 9.1875 v 65.125 1 12.1875 42.75 H 135.25 Z m 22.375,33.5625 h 9.1875 V 88.501953 H 157.625 V 88.5 Z M 146.4375,90.5 h 9.1875 v 0.002 9.185547 h -9.1875 z"
       id="path26" />
  </g>
  <g
     id="g34"
     style="fill:#ffffff;stroke:#000000;stroke-width:2"
     transform="translate(1,1)">
    <g
       fill="#181a2b"
       id="g32"
       style="fill:#ffffff">
      <path
         style="color:#000000;fill:#ffffff;stroke:none;-inkscape-stroke:none"
         d="m 21.375,155.625 v 1 12.1875 H 56.9375 V 155.625 Z m 67.125,0 v 1 12.1875 h 35.5625 V 155.625 Z m -65.125,2 h 31.5625 v 9.1875 H 23.375 Z m 67.125,0 h 31.5625 v 9.1875 H 90.5 Z"
         id="path30" />
    </g>
  </g>
</svg>
