<?xml version="1.0" encoding="UTF-8" standalone="no"?>
<svg
   enable-background="new 0 0 66.037 80.081"
   viewBox="0 0 67.037107 81.080077"
   version="1.1"
   id="svg18"
   sodipodi:docname="videopacplus_controller.svg"
   width="67.037109"
   height="81.080078"
   inkscape:version="1.1.2 (0a00cf5339, 2022-02-04)"
   xmlns:inkscape="http://www.inkscape.org/namespaces/inkscape"
   xmlns:sodipodi="http://sodipodi.sourceforge.net/DTD/sodipodi-0.dtd"
   xmlns="http://www.w3.org/2000/svg"
   xmlns:svg="http://www.w3.org/2000/svg">
  <defs
     id="defs22" />
  <sodipodi:namedview
     id="namedview20"
     pagecolor="#ffffff"
     bordercolor="#666666"
     borderopacity="1.0"
     inkscape:pageshadow="2"
     inkscape:pageopacity="0.0"
     inkscape:pagecheckerboard="true"
     showgrid="false"
     fit-margin-top="0"
     fit-margin-left="0"
     fit-margin-right="0"
     fit-margin-bottom="0"
     inkscape:zoom="10.264607"
     inkscape:cx="33.464506"
     inkscape:cy="40.527611"
     inkscape:window-width="2560"
     inkscape:window-height="1440"
     inkscape:window-x="1920"
     inkscape:window-y="0"
     inkscape:window-maximized="1"
     inkscape:current-layer="svg18" />
  <path
     style="color:#000000;fill:#ffffff;stroke-miterlimit:10;-inkscape-stroke:none"
     d="M 2.7148438,0 C 1.2242672,0 0,1.2242672 0,2.7148438 V 78.367187 c 0,1.490577 1.2242672,2.712891 2.7148438,2.712891 H 64.324219 c 1.4898,0 2.711666,-1.221361 2.71289,-2.710937 V 2.7148438 C 67.037109,1.2242672 65.814795,0 64.324219,0 Z m 0,1 H 64.324219 c 0.945421,0 1.71289,0.7694227 1.71289,1.7148438 V 78.367187 c -7.76e-4,0.944422 -0.768693,1.712891 -1.71289,1.712891 H 2.7148438 C 1.7694227,80.080078 1,79.312609 1,78.367187 V 2.7148438 C 1,1.7694227 1.7694227,1 2.7148438,1 Z"
     id="path2" />
  <path
     style="color:#000000;fill:#ffffff;stroke-miterlimit:10;-inkscape-stroke:none"
     d="m 10.509766,6.9023437 c -1.8201412,0 -3.3085941,1.4904061 -3.3085941,3.3105473 v 30.328125 30.328125 c 0,1.82014 1.4884529,3.310546 3.3085941,3.310546 h 46.017578 c 1.819316,0 3.308594,-1.490406 3.308593,-3.310546 v -29.984375 -0.6875 -29.984375 c 10e-7,-1.8201412 -1.489277,-3.3105473 -3.308593,-3.3105473 z m 0,1 h 46.017578 c 1.276681,0 2.308594,1.0326909 2.308593,2.3105473 v 29.984375 0.6875 29.984375 c 0,1.277856 -1.031912,2.310546 -2.308593,2.310546 H 10.509766 c -1.2778564,0 -2.3085941,-1.03269 -2.3085941,-2.310546 V 40.541016 10.212891 c 0,-1.2778564 1.0307377,-2.3105473 2.3085941,-2.3105473 z"
     id="path4" />
  <path
     style="color:#000000;fill:#ffffff;stroke-miterlimit:10;-inkscape-stroke:none"
     d="m 10.509766,7.5449219 c -1.505505,0 -2.7402348,1.2347298 -2.7402348,2.7402341 v 30.328125 30.330078 c 0,1.505505 1.2347298,2.740235 2.7402348,2.740235 h 46.017578 c 1.505504,0 2.740234,-1.23473 2.740234,-2.740235 V 40.957031 40.271484 10.285156 c 0,-1.5055043 -1.23473,-2.7402341 -2.740234,-2.7402341 z m 0,1 h 46.017578 c 0.960493,0 1.740234,0.7797414 1.740234,1.7402341 v 29.986328 0.685547 29.986328 c 0,0.960493 -0.779741,1.740235 -1.740234,1.740235 H 10.509766 c -0.9604933,0 -1.7402347,-0.779742 -1.7402347,-1.740235 V 40.613281 10.285156 c 0,-0.9604927 0.7797414,-1.7402341 1.7402347,-1.7402341 z M 33.443359,27.160156 c -0.668394,0 -1.309228,0.263061 -1.78125,0.736328 l -1.984375,1.984375 h -2.808593 c -1.383282,0 -2.515625,1.134297 -2.515625,2.517578 v 2.806641 l -1.986329,1.986328 c -0.471663,0.471664 -0.734374,1.110285 -0.734375,1.779297 0,0.669012 0.263559,1.307238 0.734375,1.779297 l 1.986329,1.986328 v 2.808594 c 0,1.383281 1.132343,2.515625 2.515625,2.515625 h 2.810546 l 1.984375,1.986328 c 0.471712,0.472956 1.112239,0.734375 1.78125,0.734375 0.669012,0 1.307586,-0.261419 1.779297,-0.734375 l 1.986328,-1.986328 h 2.806641 c 1.383282,0 2.517578,-1.132344 2.517578,-2.515625 V 42.736328 L 44.521484,40.75 c 0.470376,-0.471616 0.734403,-1.109819 0.732422,-1.779297 0,-0.669012 -0.263558,-1.307238 -0.734375,-1.779297 l -1.986328,-1.986328 v -2.806641 c 0,-1.383281 -1.134296,-2.517578 -2.517578,-2.517578 h -2.806641 l -1.986328,-1.986328 c -0.471663,-0.471663 -1.110285,-0.734375 -1.779297,-0.734375 z m 0,1 c 0.410988,0 0.78593,0.157024 1.072266,0.44336 l 2.277344,2.277343 h 3.222656 c 0.840716,0 1.517578,0.676862 1.517578,1.517578 v 3.220704 l 2.277344,2.279296 c 0.287182,0.287941 0.443359,0.661279 0.443359,1.072266 v 0.002 c 0.0015,0.409833 -0.154224,0.782373 -0.441406,1.070313 l -2.277344,2.279297 v 3.222656 c 0,0.840716 -0.676862,1.515625 -1.517578,1.515625 h -3.222656 l -2.277344,2.279297 c -0.286287,0.287043 -0.661278,0.441406 -1.072266,0.441406 -0.410987,0 -0.785978,-0.154363 -1.072265,-0.441406 L 30.09375,47.060547 h -3.224609 c -0.840717,0 -1.515625,-0.674909 -1.515625,-1.515625 v -3.222656 l -2.279297,-2.279297 c -0.287183,-0.28794 -0.441407,-0.661279 -0.441407,-1.072266 0,-0.410987 0.155071,-0.78593 0.441407,-1.072266 l 2.279297,-2.279296 v -3.220704 c 0,-0.840716 0.674908,-1.517578 1.515625,-1.517578 h 3.222656 l 2.279297,-2.279297 c 0.285977,-0.286732 0.660661,-0.441406 1.072265,-0.441406 z"
     id="path6" />
  <path
     style="color:#000000;fill:#ffffff;stroke-miterlimit:10;-inkscape-stroke:none"
     d="m 26.683594,9.4863281 c -0.394003,0 -0.72461,0.3291044 -0.72461,0.7246099 0,0.392816 0.331793,0.724609 0.72461,0.724609 h 29.132812 c 0.392817,0 0.72461,-0.331793 0.72461,-0.724609 0,-0.3928173 -0.331793,-0.7246099 -0.72461,-0.7246099 z m 0,2.0859379 c -0.394003,0 -0.72461,0.329104 -0.72461,0.724609 0,0.392817 0.331793,0.722656 0.72461,0.722656 h 29.132812 c 0.392817,0 0.72461,-0.329839 0.72461,-0.722656 0,-0.392817 -0.331793,-0.724609 -0.72461,-0.724609 z m 0,2.083984 c -0.394003,0 -0.72461,0.329104 -0.72461,0.724609 0,0.392817 0.331793,0.722657 0.72461,0.722657 h 29.132812 c 0.392817,0 0.72461,-0.32984 0.72461,-0.722657 0,-0.392816 -0.331793,-0.724609 -0.72461,-0.724609 z m 0,2.083984 c -0.394003,0 -0.72461,0.329105 -0.72461,0.72461 0,0.392817 0.331793,0.722656 0.72461,0.722656 h 29.132812 c 0.392817,0 0.72461,-0.329839 0.72461,-0.722656 0,-0.392817 -0.331793,-0.72461 -0.72461,-0.72461 z m 0,2.083985 c -0.394003,0 -0.72461,0.329104 -0.72461,0.724609 0,0.392817 0.331793,0.722656 0.72461,0.722656 h 29.132812 c 0.392817,0 0.72461,-0.329839 0.72461,-0.722656 0,-0.392817 -0.331793,-0.724609 -0.72461,-0.724609 z m 0,2.083984 c -0.394003,0 -0.72461,0.329105 -0.72461,0.724609 0,0.392817 0.331793,0.722657 0.72461,0.722657 h 29.132812 c 0.392817,0 0.72461,-0.32984 0.72461,-0.722657 0,-0.392816 -0.331793,-0.724609 -0.72461,-0.724609 z M 10.660156,53.898437 c -0.392817,0 -0.7246091,0.32984 -0.7246091,0.722657 0,0.392817 0.3317921,0.724609 0.7246091,0.724609 h 45.716797 c 0.392817,0 0.721459,-0.328127 0.724609,-0.71875 v -0.0039 -0.002 c 0,-0.392817 -0.329839,-0.722657 -0.722656,-0.722657 z m 0,3.72461 c -0.392817,0 -0.7246091,0.331792 -0.7246091,0.724609 0,0.392817 0.3317921,0.72461 0.7246091,0.72461 h 45.716797 c 0.392817,0 0.721459,-0.330081 0.724609,-0.720704 v -0.002 -0.002 c 0,-0.392817 -0.329839,-0.724609 -0.722656,-0.724609 z m 0,3.726562 c -0.392817,0 -0.7246091,0.331793 -0.7246091,0.72461 0,0.392817 0.3317921,0.724609 0.7246091,0.724609 h 45.716797 c 0.395505,0 0.721425,-0.328953 0.724609,-0.720703 v -0.002 -0.002 c 0,-0.392817 -0.329839,-0.72461 -0.722656,-0.72461 z m 0,3.72461 c -0.392817,0 -0.7246091,0.331792 -0.7246091,0.724609 0,0.392817 0.3317921,0.72461 0.7246091,0.724609 h 45.716797 c 0.392817,10e-7 0.721459,-0.33008 0.724609,-0.720703 v -0.002 -0.002 c 0,-0.392817 -0.329839,-0.724609 -0.722656,-0.724609 z m 0,3.726562 c -0.392817,0 -0.7246091,0.331793 -0.7246091,0.72461 0,0.392816 0.3317921,0.722656 0.7246091,0.722656 h 45.716797 c 0.392817,0 0.721459,-0.328127 0.724609,-0.71875 v -0.002 -0.002 c 0,-0.392817 -0.329839,-0.72461 -0.722656,-0.72461 z"
     id="path8" />
  <path
     style="color:#000000;fill:#ffffff;stroke-miterlimit:10;-inkscape-stroke:none"
     d="m 33.443359,32.943359 c -3.282138,0 -5.953125,2.670987 -5.953125,5.953125 0,3.282139 2.670987,5.953125 5.953125,5.953125 3.282139,0 5.953125,-2.670986 5.953125,-5.953125 0,-3.282138 -2.670986,-5.953125 -5.953125,-5.953125 z m 0,1 c 2.741856,0 4.953125,2.21127 4.953125,4.953125 0,2.741856 -2.211269,4.953125 -4.953125,4.953125 -2.741855,0 -4.953125,-2.211269 -4.953125,-4.953125 0,-2.741855 2.21127,-4.953125 4.953125,-4.953125 z"
     id="path10" />
  <path
     style="color:#000000;fill:#ffffff;stroke-miterlimit:10;-inkscape-stroke:none"
     d="m 33.443359,35.037109 c -2.124269,0 -3.859375,1.736139 -3.859375,3.859375 0,2.123237 1.735106,3.861328 3.859375,3.861328 2.123417,0 3.861328,-1.737911 3.861328,-3.861328 0,-2.123236 -1.737058,-3.859375 -3.861328,-3.859375 z m 0,1.447266 c 1.333763,0 2.41211,1.077385 2.41211,2.412109 0,1.334932 -1.077178,2.41211 -2.41211,2.41211 -1.334724,0 -2.412109,-1.078347 -2.412109,-2.41211 0,-1.334724 1.078346,-2.412109 2.412109,-2.412109 z"
     id="path12" />
  <path
     style="color:#000000;fill:#ffffff;stroke-miterlimit:10;-inkscape-stroke:none"
     d="M 23.337891,8.0449219 V 20.318359 H 8.2695312 v 1 H 24.337891 V 8.0449219 Z"
     id="path14" />
  <path
     style="color:#000000;fill:#ffffff;stroke-miterlimit:10;-inkscape-stroke:none"
     d="m 10.509766,7.5449219 c -1.505505,0 -2.7402348,1.2347298 -2.7402348,2.7402341 v 11.033203 h 0.5 16.0683598 V 7.5449219 Z m 0,1 H 23.337891 V 20.318359 H 8.7695313 V 10.285156 c 0,-0.9604927 0.7797414,-1.7402341 1.7402347,-1.7402341 z"
     id="path16" />
</svg>
