<?xml version="1.0" encoding="UTF-8" standalone="no"?>
<!-- Svg Vector Icons : http://www.onlinewebfonts.com/icon -->

<svg
   version="1.1"
   x="0px"
   y="0px"
   viewBox="0 0 236 234.89999"
   enable-background="new 0 0 256 256"
   xml:space="preserve"
   id="svg12"
   sodipodi:docname="virtual_controller.svg"
   inkscape:version="1.1.2 (0a00cf5339, 2022-02-04)"
   width="236"
   height="234.89999"
   xmlns:inkscape="http://www.inkscape.org/namespaces/inkscape"
   xmlns:sodipodi="http://sodipodi.sourceforge.net/DTD/sodipodi-0.dtd"
   xmlns="http://www.w3.org/2000/svg"
   xmlns:svg="http://www.w3.org/2000/svg"><defs
   id="defs16" /><sodipodi:namedview
   id="namedview14"
   pagecolor="#ffffff"
   bordercolor="#666666"
   borderopacity="1.0"
   inkscape:pageshadow="2"
   inkscape:pageopacity="0.0"
   inkscape:pagecheckerboard="true"
   showgrid="false"
   inkscape:zoom="3.2109375"
   inkscape:cx="117.87835"
   inkscape:cy="117.41119"
   inkscape:window-width="2560"
   inkscape:window-height="1440"
   inkscape:window-x="1920"
   inkscape:window-y="0"
   inkscape:window-maximized="1"
   inkscape:current-layer="g6"
   fit-margin-top="0"
   fit-margin-left="0"
   fit-margin-right="0"
   fit-margin-bottom="0" />
<metadata
   id="metadata2"> Svg Vector Icons : http://www.onlinewebfonts.com/icon </metadata>
<g
   id="g10"
   style="fill:#ffffff"
   transform="translate(-10.1,-10.6)"><g
     id="g8"
     style="fill:#ffffff"><g
       id="g6"
       style="fill:#ffffff"><path
         style="color:#000000;fill:#ffffff;-inkscape-stroke:none"
         d="m 129.40039,10.099609 c -7.8e-4,0 -0.1063,0.01037 -0.12695,0.01563 -0.0207,0.0053 -0.0327,0.01021 -0.043,0.01367 -0.0205,0.0069 -0.0337,0.01225 -0.0469,0.01758 -0.0264,0.01067 -0.0525,0.02104 -0.084,0.03516 -0.063,0.02824 -0.14612,0.06803 -0.25391,0.11914 -0.21558,0.102225 -0.52481,0.252503 -0.92773,0.449219 -0.80585,0.393433 -1.98002,0.971262 -3.48438,1.716797 -3.00871,1.49107 -7.33844,3.647931 -12.66992,6.310547 -10.66296,5.32523 -25.338145,12.675323 -41.488279,20.77539 -16.10042,8.100211 -30.751332,15.500857 -41.376954,20.888672 -5.31281,2.693908 -9.61857,4.884274 -12.597656,6.408203 -1.489543,0.761965 -2.647031,1.357075 -3.433593,1.765625 -0.393282,0.204276 -0.693739,0.363204 -0.898438,0.472657 -0.10235,0.05473 -0.180675,0.09635 -0.238281,0.128906 -0.0288,0.01628 -0.05105,0.0292 -0.07617,0.04492 -0.01256,0.0079 -0.02484,0.01528 -0.04883,0.0332 -0.012,0.009 -0.02681,0.01931 -0.05664,0.04883 -0.02983,0.02952 -0.148437,0.355078 -0.148437,0.355469 0,3.9e-4 0.03107,0.175302 0.03125,0.175781 1.76e-4,4.79e-4 0.031,0.06943 0.04492,0.0918 0.02784,0.04473 0.04807,0.0667 0.06445,0.08398 0.03276,0.03456 0.05146,0.04739 0.06836,0.06055 0.03379,0.02632 0.05889,0.04392 0.08789,0.0625 0.05801,0.03717 0.128604,0.07741 0.21875,0.128906 0.180291,0.102995 0.437356,0.243018 0.767578,0.419922 0.660442,0.353809 1.610773,0.852045 2.787109,1.458985 2.352672,1.213878 5.603426,2.865189 9.205078,4.666015 3.548795,1.79939 6.798096,3.448885 9.158203,4.660156 1.180356,0.605791 2.138588,1.101634 2.798828,1.451172 0.119804,0.06343 0.173799,0.09495 0.273438,0.148438 -0.117594,0.06533 -0.187656,0.105702 -0.333984,0.185547 -0.697205,0.380434 -1.71241,0.920895 -2.966797,1.576172 -2.508775,1.310554 -5.979926,3.084274 -9.826172,4.982421 h -0.002 v 0.002 c -3.800781,1.90039 -7.278015,3.649305 -9.806641,4.951171 -1.264313,0.650934 -2.29132,1.190644 -3.007812,1.582032 -0.358247,0.195694 -0.637621,0.352524 -0.837891,0.474609 -0.100135,0.06104 -0.1779589,0.112441 -0.2480469,0.164063 -0.035044,0.02581 -0.068816,0.04969 -0.1113281,0.0918 -0.021256,0.02105 -0.044153,0.04577 -0.076172,0.09375 -0.01601,0.02399 -0.034874,0.05471 -0.052734,0.09961 -0.00893,0.02245 -0.018483,0.04868 -0.025391,0.08008 -0.00691,0.0314 -0.011719,0.108594 -0.011719,0.109375 0,7.81e-4 0.00643,0.08125 0.013672,0.113281 0.00724,0.03203 0.016161,0.05744 0.025391,0.08008 0.01846,0.04527 0.03651,0.0758 0.052734,0.09961 0.032448,0.04762 0.056808,0.071 0.078125,0.0918 0.042634,0.04158 0.075756,0.06585 0.1113281,0.0918 0.071145,0.05189 0.1510159,0.103636 0.2539069,0.166016 0.205781,0.12476 0.4942,0.28718 0.863281,0.488281 0.738162,0.402204 1.795897,0.957298 3.097656,1.626953 2.603519,1.33931 6.179318,3.13947 10.080078,5.08985 h 0.002 c 3.946338,1.94819 7.519629,3.77298 10.103516,5.12109 1.291943,0.67406 2.337431,1.22964 3.056641,1.62109 0.16577,0.0902 0.248934,0.1388 0.378906,0.21094 -0.129972,0.0721 -0.213136,0.12071 -0.378906,0.21094 -0.71921,0.39145 -1.764698,0.94508 -3.056641,1.61914 -2.583887,1.34811 -6.157178,3.1729 -10.103516,5.12109 -3.953654,1.95181 -7.529985,3.77703 -10.121093,5.12891 -1.295554,0.67594 -2.344602,1.23481 -3.072266,1.63086 -0.363832,0.19802 -0.646263,0.35451 -0.84375,0.46875 -0.09874,0.0571 -0.174984,0.10317 -0.2363284,0.14258 -0.030672,0.0197 -0.056653,0.035 -0.089844,0.0605 -0.016595,0.0128 -0.034617,0.0262 -0.066406,0.0586 -0.015895,0.0162 -0.03594,0.0368 -0.064453,0.0801 -0.014257,0.0216 -0.048633,0.0913 -0.048828,0.0918 -1.95e-4,4.9e-4 -0.035156,0.18516 -0.035156,0.18555 0,3.9e-4 0.036911,0.18896 0.037109,0.18945 1.98e-4,4.9e-4 0.034336,0.0701 0.048828,0.0918 0.028985,0.0433 0.048429,0.064 0.064453,0.0801 0.032048,0.0321 0.049719,0.044 0.066406,0.0566 0.033374,0.0252 0.060818,0.0429 0.091797,0.0625 0.061957,0.0392 0.1383534,0.0836 0.2382804,0.14062 0.199854,0.11409 0.485947,0.27083 0.853516,0.46875 0.735139,0.39585 1.792351,0.95318 3.09375,1.62891 2.602798,1.35145 6.179742,3.17776 10.082031,5.12891 h 0.002 v 0.002 c 3.946338,1.94819 7.519629,3.77102 10.103516,5.11914 1.291943,0.67406 2.337431,1.22964 3.056641,1.62109 0.16577,0.0902 0.248934,0.1388 0.378906,0.21094 -0.129972,0.0721 -0.213136,0.12071 -0.378906,0.21094 -0.71921,0.39145 -1.764698,0.94703 -3.056641,1.62109 -2.583887,1.34812 -6.157178,3.17095 -10.103516,5.11914 -3.953654,1.95181 -7.529985,3.77898 -10.121093,5.13086 -1.295554,0.67594 -2.344602,1.23286 -3.072266,1.62891 -0.363832,0.19802 -0.646263,0.35451 -0.84375,0.46875 -0.09874,0.0571 -0.1749832,0.10317 -0.2363276,0.14258 -0.030672,0.0197 -0.056653,0.037 -0.089844,0.0625 -0.016595,0.0127 -0.034617,0.0243 -0.066406,0.0566 -0.015895,0.0162 -0.03594,0.0368 -0.064453,0.0801 -0.014257,0.0216 -0.048633,0.0913 -0.048828,0.0918 -1.95e-4,4.9e-4 -0.035156,0.18516 -0.035156,0.18555 0,3.9e-4 0.036911,0.18896 0.037109,0.18945 1.98e-4,4.9e-4 0.034336,0.0701 0.048828,0.0918 0.028985,0.0433 0.048429,0.064 0.064453,0.0801 0.032048,0.0321 0.049719,0.044 0.066406,0.0566 0.033374,0.0252 0.060818,0.0429 0.091797,0.0625 0.061957,0.0392 0.1383536,0.0836 0.2382806,0.14062 0.199854,0.11409 0.485947,0.27278 0.853516,0.47071 0.735139,0.39584 1.792351,0.95122 3.09375,1.62695 2.602798,1.35145 6.179742,3.17776 10.082031,5.1289 h 0.002 v 0.002 c 3.946338,1.94819 7.519629,3.77102 10.103516,5.11914 1.291943,0.67406 2.337431,1.22964 3.056641,1.62109 0.16577,0.0902 0.248934,0.1388 0.378906,0.21094 -0.129972,0.0721 -0.213136,0.12071 -0.378906,0.21094 -0.71921,0.39145 -1.764698,0.94703 -3.056641,1.62109 -2.583887,1.34812 -6.157178,3.17095 -10.103516,5.11914 -3.953654,1.95181 -7.529985,3.77898 -10.121093,5.13086 -1.295554,0.67594 -2.344602,1.23286 -3.072266,1.62891 -0.363832,0.19802 -0.646263,0.35451 -0.84375,0.46875 -0.09874,0.0571 -0.1749834,0.10317 -0.2363278,0.14258 -0.030672,0.0197 -0.056653,0.037 -0.089844,0.0625 -0.016595,0.0127 -0.034617,0.0262 -0.066406,0.0586 -0.015895,0.0162 -0.03594,0.0348 -0.064453,0.0781 -0.014257,0.0216 -0.048633,0.0913 -0.048828,0.0918 -1.95e-4,4.9e-4 -0.035156,0.18711 -0.035156,0.1875 0,3.9e-4 0.1205001,0.32796 0.1503906,0.35742 0.029891,0.0295 0.044635,0.0379 0.056641,0.0469 0.024011,0.0179 0.036245,0.0254 0.048828,0.0332 0.025165,0.0157 0.047273,0.0287 0.076172,0.0449 0.057798,0.0325 0.1355402,0.0761 0.2382812,0.13086 0.205482,0.10945 0.507495,0.26643 0.902344,0.47071 0.789697,0.40855 1.951459,1.00365 3.447265,1.76562 2.991612,1.52394 7.316453,3.71428 12.654297,6.4082 10.675288,5.38765 25.401745,12.78876 41.601563,20.88868 l 59.025389,29.61132 59.12305,-29.61132 c 16.20035,-8.10018 30.94981,-15.50088 41.65039,-20.88868 5.35029,-2.69389 9.68851,-4.88428 12.68945,-6.4082 1.50047,-0.76196 2.66658,-1.35709 3.45899,-1.76562 0.3962,-0.20427 0.69809,-0.36128 0.90429,-0.47071 0.1031,-0.0547 0.18226,-0.0983 0.24024,-0.13086 0.029,-0.0162 0.0529,-0.0293 0.0781,-0.0449 0.0126,-0.008 0.0229,-0.0134 0.0469,-0.0312 0.012,-0.009 0.0267,-0.0194 0.0566,-0.0488 0.0299,-0.0294 0.15039,-0.35703 0.15039,-0.35742 0,-3.9e-4 -0.035,-0.18701 -0.0352,-0.1875 -1.9e-4,-4.9e-4 -0.0326,-0.0702 -0.0469,-0.0918 -0.0285,-0.0433 -0.0486,-0.0619 -0.0645,-0.0781 -0.0318,-0.0324 -0.0498,-0.0459 -0.0664,-0.0586 -0.0332,-0.0255 -0.0592,-0.0428 -0.0899,-0.0625 -0.0613,-0.0394 -0.13758,-0.0855 -0.23632,-0.14258 -0.19749,-0.11424 -0.47992,-0.27073 -0.84375,-0.46875 -0.72767,-0.39605 -1.77672,-0.95297 -3.07227,-1.62891 -2.59111,-1.35188 -6.16939,-3.17905 -10.12305,-5.13086 -3.94633,-1.94819 -7.51767,-3.77102 -10.10156,-5.11914 -1.29194,-0.67406 -2.33743,-1.22964 -3.05664,-1.62109 -0.16374,-0.0891 -0.24617,-0.13555 -0.375,-0.20703 0.13245,-0.0727 0.2176,-0.12183 0.38672,-0.21289 0.72736,-0.39166 1.78148,-0.94878 3.08008,-1.62305 2.59659,-1.34823 6.16976,-3.1708 10.0664,-5.11914 l 0.002,-0.002 c 3.95256,-1.95129 7.53058,-3.77733 10.12109,-5.1289 1.29555,-0.67594 2.3446,-1.23286 3.07227,-1.62891 0.36383,-0.19802 0.64626,-0.35451 0.84375,-0.46875 0.0987,-0.0571 0.17498,-0.10317 0.23632,-0.14258 0.0307,-0.0197 0.0567,-0.037 0.0899,-0.0625 0.0166,-0.0127 0.0346,-0.0262 0.0664,-0.0586 0.0159,-0.0162 0.0359,-0.0348 0.0645,-0.0781 0.0143,-0.0216 0.0467,-0.0913 0.0469,-0.0918 2e-4,-4.9e-4 0.0352,-0.18711 0.0352,-0.1875 0,-3.9e-4 -0.035,-0.18506 -0.0352,-0.18555 -1.9e-4,-4.9e-4 -0.0326,-0.0701 -0.0469,-0.0918 -0.0285,-0.0433 -0.0486,-0.0639 -0.0645,-0.0801 -0.0318,-0.0324 -0.0498,-0.0439 -0.0664,-0.0566 -0.0332,-0.0255 -0.0592,-0.0428 -0.0899,-0.0625 -0.0613,-0.0394 -0.13758,-0.0855 -0.23632,-0.14258 -0.19749,-0.11424 -0.47992,-0.27073 -0.84375,-0.46875 -0.72767,-0.39605 -1.77672,-0.95297 -3.07227,-1.62891 -2.59111,-1.35188 -6.16939,-3.17905 -10.12305,-5.13086 -3.94633,-1.94819 -7.51767,-3.77102 -10.10156,-5.11914 -1.29194,-0.67406 -2.33743,-1.22964 -3.05664,-1.62109 -0.1641,-0.0893 -0.24596,-0.13738 -0.375,-0.20899 0.13236,-0.0726 0.21777,-0.12191 0.38672,-0.21289 0.72736,-0.39165 1.78148,-0.94682 3.08008,-1.62109 2.59659,-1.34823 6.16976,-3.1708 10.0664,-5.11914 l 0.002,-0.002 c 3.95256,-1.9513 7.53058,-3.77734 10.12109,-5.12891 1.29555,-0.67594 2.3446,-1.23286 3.07227,-1.62891 0.36383,-0.19802 0.64626,-0.35646 0.84375,-0.4707 0.0987,-0.0571 0.17498,-0.10122 0.23632,-0.14062 0.0307,-0.0197 0.0567,-0.037 0.0899,-0.0625 0.0166,-0.0127 0.0346,-0.0262 0.0664,-0.0586 0.0159,-0.0162 0.0359,-0.0348 0.0645,-0.0781 0.0143,-0.0217 0.0467,-0.0933 0.0469,-0.0937 2e-4,-4.9e-4 0.0352,-0.18516 0.0352,-0.18555 0,-3.9e-4 -0.035,-0.18506 -0.0352,-0.18555 -1.9e-4,-4.9e-4 -0.0326,-0.0702 -0.0469,-0.0918 -0.0285,-0.0433 -0.0486,-0.0639 -0.0645,-0.0801 -0.0318,-0.0324 -0.0498,-0.0458 -0.0664,-0.0586 -0.0332,-0.0255 -0.0592,-0.0408 -0.0899,-0.0605 -0.0613,-0.0394 -0.13758,-0.0855 -0.23632,-0.14258 -0.19749,-0.11424 -0.47992,-0.27073 -0.84375,-0.46875 -0.72767,-0.39605 -1.77672,-0.95492 -3.07227,-1.63086 -2.59111,-1.35188 -6.16939,-3.1771 -10.12305,-5.12891 -3.94633,-1.94819 -7.51767,-3.77298 -10.10156,-5.12109 -1.29194,-0.67406 -2.33743,-1.22769 -3.05664,-1.61914 -0.1641,-0.0893 -0.24596,-0.13738 -0.375,-0.20899 0.13245,-0.0726 0.2176,-0.12182 0.38672,-0.21289 0.72736,-0.39165 1.78148,-0.94682 3.08008,-1.62109 2.59679,-1.34834 6.1694,-3.17258 10.0664,-5.12109 3.95366,-1.95181 7.53194,-3.77703 10.12305,-5.12891 1.29555,-0.675943 2.3446,-1.232858 3.07227,-1.628908 0.36383,-0.198025 0.64626,-0.356465 0.84375,-0.470703 0.0987,-0.05712 0.17498,-0.103176 0.23632,-0.142579 0.0307,-0.0197 0.0567,-0.03506 0.0899,-0.06055 0.0166,-0.01274 0.0346,-0.02622 0.0664,-0.05859 0.0159,-0.01619 0.0359,-0.03678 0.0645,-0.08008 0.0143,-0.02165 0.0467,-0.09131 0.0469,-0.0918 2e-4,-4.91e-4 0.0352,-0.185156 0.0352,-0.185547 0,-3.91e-4 -0.0311,-0.173349 -0.0312,-0.173828 -1.8e-4,-4.79e-4 -0.031,-0.07138 -0.0449,-0.09375 -0.0279,-0.04473 -0.0481,-0.0667 -0.0645,-0.08398 -0.0328,-0.03456 -0.0515,-0.04739 -0.0684,-0.06055 -0.0338,-0.02632 -0.0589,-0.04196 -0.0879,-0.06055 -0.058,-0.03717 -0.12665,-0.07936 -0.21679,-0.13086 -0.18029,-0.102994 -0.43736,-0.243017 -0.76758,-0.419922 -0.66044,-0.353808 -1.61273,-0.852045 -2.78906,-1.458984 -2.35228,-1.213673 -5.6022,-2.863591 -9.20313,-4.664062 h -0.002 c -3.54915,-1.799572 -6.79789,-3.44878 -9.15821,-4.660157 -1.18035,-0.60579 -2.13858,-1.103586 -2.79882,-1.453125 -0.11825,-0.0626 -0.17092,-0.09355 -0.26953,-0.146484 0.10051,-0.05523 0.15618,-0.0868 0.27734,-0.152344 0.66276,-0.358544 1.62634,-0.866524 2.81836,-1.484375 2.38403,-1.235702 5.68126,-2.910533 9.32812,-4.708984 5.35293,-2.65145 8.65687,-4.353046 10.64063,-5.490235 0.99188,-0.568594 1.65285,-0.992296 2.09375,-1.345703 0.4409,-0.353406 0.74414,-0.638709 0.74414,-1.111328 0,-0.310416 -0.14493,-0.430908 -0.26563,-0.554687 -0.12069,-0.12378 -0.26943,-0.241522 -0.46679,-0.382813 -0.39474,-0.282581 -0.9827,-0.646302 -1.83594,-1.134765 -1.70647,-0.976927 -4.46893,-2.447122 -8.74023,-4.648438 -8.54261,-4.402632 -23.11739,-11.726073 -47.26758,-23.826172 v -0.002 C 155.9234,23.251936 129.62305,10.152344 129.62305,10.152344 l -0.10547,-0.05274 z m -0.0137,1.050782 c 0.18707,0.09318 26.20429,13.055285 58.18945,28.998046 v -0.002 c 24.14976,12.099878 38.72544,19.424907 47.25781,23.822266 4.26619,2.198679 7.02328,3.666382 8.70118,4.626953 0.83895,0.480286 1.40918,0.836098 1.75,1.080078 0.12227,0.08753 0.17735,0.139647 0.23828,0.19336 -0.0144,-0.009 -0.007,0.03121 -0.29492,0.261718 -0.36223,0.290343 -0.99423,0.703361 -1.96485,1.259766 -1.94123,1.11281 -5.23887,2.812393 -10.58594,5.460937 -3.6524,1.801204 -6.95513,3.477709 -9.3457,4.716797 -1.19548,0.619648 -2.16237,1.130811 -2.83398,1.494141 -0.33581,0.181665 -0.59613,0.325892 -0.7793,0.431641 -0.0916,0.05287 -0.16416,0.09501 -0.22266,0.132812 -0.0292,0.0189 -0.0544,0.03433 -0.0879,0.06055 -0.0168,0.01311 -0.034,0.02644 -0.0664,0.06055 -0.0162,0.01705 -0.0367,0.03965 -0.0645,0.08398 -0.0139,0.02217 -0.0447,0.09131 -0.0449,0.0918 -1.8e-4,4.82e-4 -0.0332,0.175391 -0.0332,0.175781 0,3.91e-4 0.033,0.177256 0.0332,0.177735 1.8e-4,4.79e-4 0.0327,0.07133 0.0469,0.09375 0.0284,0.04484 0.0479,0.06487 0.0644,0.08203 0.0331,0.03432 0.0514,0.04948 0.0684,0.0625 0.034,0.02603 0.0605,0.04011 0.0898,0.05859 0.0586,0.03696 0.12939,0.07945 0.22071,0.130859 0.18263,0.102823 0.44145,0.243129 0.77539,0.419922 0.66788,0.353585 1.6284,0.850323 2.81054,1.457031 2.36429,1.213416 5.61588,2.863993 9.16602,4.664063 l 0.002,0.002 c 3.59834,1.79917 6.84604,3.447084 9.19336,4.658203 1.17366,0.60556 2.12334,1.101856 2.77539,1.451172 0.11652,0.06242 0.16853,0.09369 0.26563,0.146484 -0.12846,0.07127 -0.20996,0.118267 -0.37305,0.207031 -0.71921,0.391449 -1.7647,0.947037 -3.05664,1.621094 -2.58389,1.348119 -6.15718,3.170949 -10.10352,5.119139 v 0.002 h -0.002 c -3.90229,1.95114 -7.47923,3.77745 -10.08203,5.1289 -1.3014,0.67573 -2.35861,1.23111 -3.09375,1.62695 -0.36757,0.19793 -0.65366,0.35662 -0.85352,0.47071 -0.0999,0.057 -0.17632,0.1014 -0.23828,0.14062 -0.031,0.0196 -0.0584,0.0373 -0.0918,0.0625 -0.0167,0.0126 -0.0344,0.0245 -0.0664,0.0566 -0.016,0.0161 -0.0355,0.0367 -0.0644,0.0801 -0.0145,0.0217 -0.0486,0.0913 -0.0488,0.0918 -2e-4,4.9e-4 -0.0371,0.18906 -0.0371,0.18945 0,3.9e-4 0.035,0.18506 0.0352,0.18555 1.9e-4,4.9e-4 0.0346,0.0701 0.0488,0.0918 0.0285,0.0433 0.0486,0.0639 0.0645,0.0801 0.0318,0.0324 0.0498,0.0439 0.0664,0.0566 0.0332,0.0255 0.0592,0.0428 0.0899,0.0625 0.0613,0.0394 0.13758,0.0855 0.23632,0.14258 0.19749,0.11424 0.47992,0.27073 0.84375,0.46875 0.72767,0.39605 1.77672,0.95297 3.07227,1.62891 2.59111,1.35188 6.16744,3.17905 10.12109,5.13086 3.94634,1.94819 7.51963,3.77102 10.10352,5.11914 1.29194,0.67406 2.33743,1.22964 3.05664,1.62109 0.16577,0.0902 0.24893,0.1388 0.37891,0.21094 -0.12998,0.0721 -0.21314,0.12071 -0.37891,0.21094 -0.71921,0.39145 -1.7647,0.94703 -3.05664,1.62109 -2.58389,1.34812 -6.15718,3.17095 -10.10352,5.11914 v 0.002 h -0.002 c -3.90229,1.95115 -7.47923,3.77746 -10.08203,5.12891 -1.3014,0.67573 -2.35861,1.23306 -3.09375,1.62891 -0.36757,0.19792 -0.65366,0.35466 -0.85352,0.46875 -0.0999,0.057 -0.17632,0.10139 -0.23828,0.14062 -0.031,0.0196 -0.0584,0.0373 -0.0918,0.0625 -0.0167,0.0126 -0.0344,0.0245 -0.0664,0.0566 -0.016,0.0161 -0.0355,0.0367 -0.0644,0.0801 -0.0145,0.0217 -0.0486,0.0913 -0.0488,0.0918 -2e-4,4.9e-4 -0.0371,0.18906 -0.0371,0.18945 0,3.9e-4 0.035,0.18506 0.0352,0.18555 1.9e-4,4.9e-4 0.0346,0.0702 0.0488,0.0918 0.0285,0.0433 0.0486,0.0639 0.0645,0.0801 0.0318,0.0324 0.0498,0.0459 0.0664,0.0586 0.0332,0.0255 0.0592,0.0408 0.0899,0.0605 0.0613,0.0394 0.13758,0.0855 0.23632,0.14258 0.19749,0.11424 0.47992,0.27073 0.84375,0.46875 0.72767,0.39605 1.77672,0.95492 3.07227,1.63086 2.59111,1.35188 6.16744,3.1771 10.12109,5.12891 3.94634,1.94819 7.51963,3.77298 10.10352,5.12109 1.29194,0.67406 2.33743,1.22769 3.05664,1.61914 0.16577,0.0902 0.24893,0.1388 0.37891,0.21094 -0.12998,0.0721 -0.21314,0.12071 -0.37891,0.21094 -0.71921,0.39145 -1.7647,0.94703 -3.05664,1.62109 -2.58389,1.34811 -6.15718,3.1729 -10.10352,5.12109 h -0.002 c -3.90229,1.95115 -7.47923,3.77746 -10.08203,5.12891 -1.3014,0.67573 -2.35861,1.23306 -3.09375,1.62891 -0.36757,0.19792 -0.65366,0.35466 -0.85352,0.46875 -0.0999,0.057 -0.17632,0.10335 -0.23828,0.14257 -0.031,0.0196 -0.0584,0.0353 -0.0918,0.0606 -0.0167,0.0126 -0.0344,0.0264 -0.0664,0.0586 -0.016,0.0161 -0.0355,0.0348 -0.0644,0.0781 -0.0145,0.0217 -0.0486,0.0933 -0.0488,0.0937 -2e-4,4.9e-4 -0.0371,0.18711 -0.0371,0.1875 0,3.9e-4 0.035,0.18506 0.0352,0.18555 1.9e-4,4.9e-4 0.0346,0.0701 0.0488,0.0918 0.0285,0.0433 0.0486,0.0639 0.0645,0.0801 0.0318,0.0324 0.0498,0.0459 0.0664,0.0586 0.0332,0.0255 0.0592,0.0408 0.0899,0.0605 0.0613,0.0394 0.13758,0.0855 0.23632,0.14258 0.19749,0.11424 0.47992,0.27268 0.84375,0.4707 0.72767,0.39605 1.77672,0.95297 3.07227,1.62891 2.59111,1.35188 6.16744,3.1771 10.12109,5.12891 3.94634,1.94819 7.51963,3.77298 10.10352,5.12109 1.29194,0.67406 2.33743,1.22964 3.05664,1.62109 0.14938,0.0813 0.22137,0.12277 0.3418,0.18946 -0.14217,0.0739 -0.23248,0.12217 -0.41602,0.21679 -0.78884,0.4067 -1.9536,1.0022 -3.45312,1.76368 -2.99905,1.52295 -7.33585,3.71265 -12.68555,6.40625 -10.6994,5.38719 -25.44882,12.78691 -41.64844,20.88671 l -58.67578,29.38868 -58.576171,-29.38868 h -0.002 C 53.023225,207.45302 38.29929,200.05316 27.625,194.66602 c -5.337145,-2.69358 -9.660758,-4.88332 -12.650391,-6.40625 -1.494816,-0.76147 -2.657276,-1.35699 -3.443359,-1.76368 -0.181823,-0.0941 -0.271043,-0.14121 -0.412109,-0.21484 0.121038,-0.067 0.193352,-0.10955 0.34375,-0.19141 0.719209,-0.39145 1.764697,-0.94703 3.05664,-1.62109 2.583887,-1.34811 6.155225,-3.1729 10.101563,-5.12109 3.953654,-1.95181 7.531939,-3.77703 10.123047,-5.12891 1.295554,-0.67594 2.344601,-1.23286 3.072265,-1.62891 0.363832,-0.19802 0.646263,-0.35646 0.84375,-0.4707 0.09874,-0.0571 0.174984,-0.10317 0.236328,-0.14258 0.03067,-0.0197 0.05665,-0.0351 0.08984,-0.0605 0.0166,-0.0128 0.03462,-0.0262 0.06641,-0.0586 0.0159,-0.0162 0.03594,-0.0368 0.06445,-0.0801 0.01426,-0.0216 0.04668,-0.0913 0.04687,-0.0918 1.96e-4,-4.9e-4 0.03516,-0.18516 0.03516,-0.18555 0,-3.9e-4 -0.03496,-0.18506 -0.03516,-0.18555 -1.95e-4,-4.9e-4 -0.03262,-0.0701 -0.04687,-0.0918 -0.02851,-0.0433 -0.04856,-0.0639 -0.06445,-0.0801 -0.03179,-0.0324 -0.04981,-0.0459 -0.06641,-0.0586 -0.03319,-0.0255 -0.05917,-0.0408 -0.08984,-0.0605 -0.06134,-0.0394 -0.137584,-0.0855 -0.236328,-0.14258 -0.197487,-0.11424 -0.479918,-0.27268 -0.84375,-0.4707 -0.727664,-0.39605 -1.776711,-0.95297 -3.072265,-1.62891 -2.590711,-1.35167 -6.168162,-3.17744 -10.121094,-5.12891 h -0.002 c -3.897002,-1.94851 -7.46961,-3.77275 -10.066406,-5.12109 -1.298599,-0.67427 -2.352719,-1.22944 -3.080079,-1.62109 -0.16912,-0.0911 -0.254269,-0.14024 -0.386718,-0.21289 0.129034,-0.0716 0.210897,-0.11967 0.375,-0.20899 0.719209,-0.39145 1.764697,-0.94508 3.05664,-1.61914 2.583887,-1.34811 6.155225,-3.1729 10.101563,-5.12109 3.953654,-1.95181 7.531939,-3.77703 10.123047,-5.12891 1.295554,-0.67594 2.344601,-1.23481 3.072265,-1.63086 0.363832,-0.19802 0.646263,-0.35451 0.84375,-0.46875 0.09874,-0.0571 0.174984,-0.10317 0.236328,-0.14258 0.03067,-0.0197 0.05665,-0.035 0.08984,-0.0605 0.0166,-0.0127 0.03462,-0.0262 0.06641,-0.0586 0.0159,-0.0162 0.03594,-0.0368 0.06445,-0.0801 0.01426,-0.0216 0.04668,-0.0913 0.04687,-0.0918 1.96e-4,-4.9e-4 0.03516,-0.18516 0.03516,-0.18555 0,-3.9e-4 -0.03496,-0.18506 -0.03516,-0.18555 -1.95e-4,-4.9e-4 -0.03262,-0.0721 -0.04687,-0.0937 -0.02851,-0.0433 -0.04856,-0.0619 -0.06445,-0.0781 -0.03179,-0.0324 -0.04981,-0.0459 -0.06641,-0.0586 -0.03319,-0.0255 -0.05917,-0.0428 -0.08984,-0.0625 -0.06134,-0.0394 -0.137584,-0.0835 -0.236328,-0.14062 -0.197487,-0.11424 -0.479918,-0.27268 -0.84375,-0.4707 -0.727664,-0.39605 -1.776711,-0.95297 -3.072265,-1.62891 -2.590509,-1.35157 -6.168528,-3.17761 -10.121094,-5.12891 l -0.002,-0.002 c -3.896646,-1.94834 -7.469814,-3.77091 -10.066406,-5.11914 -1.298599,-0.67427 -2.352719,-1.22944 -3.080079,-1.62109 -0.168953,-0.091 -0.254363,-0.14029 -0.386718,-0.21289 0.129034,-0.0716 0.210897,-0.11967 0.375,-0.20899 0.719209,-0.39145 1.764697,-0.94703 3.05664,-1.62109 2.583887,-1.34812 6.155225,-3.17095 10.101563,-5.11914 3.953654,-1.95181 7.531939,-3.77898 10.123047,-5.13086 1.295554,-0.67594 2.344601,-1.23286 3.072265,-1.62891 0.363832,-0.19802 0.646263,-0.35451 0.84375,-0.46875 0.09874,-0.0571 0.174984,-0.10317 0.236328,-0.14258 0.03067,-0.0197 0.05665,-0.037 0.08984,-0.0625 0.0166,-0.0127 0.03462,-0.0243 0.06641,-0.0566 0.0159,-0.0162 0.03594,-0.0368 0.06445,-0.0801 0.01426,-0.0217 0.04668,-0.0913 0.04687,-0.0918 1.96e-4,-4.9e-4 0.03516,-0.18516 0.03516,-0.18555 0,-3.9e-4 -0.03496,-0.18701 -0.03516,-0.1875 -1.95e-4,-4.9e-4 -0.03262,-0.0701 -0.04687,-0.0918 -0.02851,-0.0433 -0.04856,-0.0619 -0.06445,-0.0781 -0.03179,-0.0324 -0.04981,-0.0459 -0.06641,-0.0586 -0.03319,-0.0255 -0.05917,-0.0428 -0.08984,-0.0625 -0.06134,-0.0394 -0.137584,-0.0855 -0.236328,-0.14258 -0.197487,-0.11424 -0.479918,-0.27073 -0.84375,-0.46875 -0.727664,-0.39605 -1.776711,-0.95297 -3.072265,-1.62891 -2.590509,-1.35157 -6.168528,-3.17761 -10.121094,-5.1289 l -0.002,-0.002 C 20.72292,102.50208 17.150559,100.70256 14.554688,99.367187 13.25645,98.699344 12.200899,98.148577 11.476563,97.753906 11.279564,97.646568 11.175004,97.582732 11.029297,97.5 c 0.137132,-0.07796 0.231447,-0.136573 0.414062,-0.236328 0.702256,-0.383611 1.725644,-0.919294 2.986329,-1.56836 2.520968,-1.297924 5.99251,-3.048009 9.791015,-4.947265 3.853746,-1.901849 7.331436,-3.677744 9.847656,-4.992188 1.258111,-0.657221 2.276503,-1.198794 2.982422,-1.583984 0.35296,-0.192595 0.626527,-0.345586 0.81836,-0.457031 0.09592,-0.05572 0.170313,-0.09976 0.230468,-0.138672 0.03008,-0.01946 0.05663,-0.03671 0.08984,-0.0625 0.01661,-0.0129 0.03452,-0.02559 0.06641,-0.05859 0.01594,-0.0165 0.03438,-0.0384 0.0625,-0.08203 0.01406,-0.02181 0.04669,-0.09131 0.04687,-0.0918 1.89e-4,-4.88e-4 0.03516,-0.18125 0.03516,-0.181641 0,-3.9e-4 -0.03302,-0.175302 -0.0332,-0.175781 -1.79e-4,-4.79e-4 -0.03073,-0.07133 -0.04492,-0.09375 -0.02838,-0.04484 -0.04987,-0.06683 -0.06641,-0.08398 -0.03308,-0.03432 -0.05137,-0.04753 -0.06836,-0.06055 -0.03398,-0.02603 -0.05859,-0.04207 -0.08789,-0.06055 -0.05861,-0.03696 -0.131337,-0.07749 -0.222656,-0.128906 -0.182638,-0.102823 -0.441449,-0.243129 -0.775391,-0.419922 -0.667883,-0.353586 -1.628404,-0.852276 -2.810546,-1.458985 -2.364285,-1.213416 -5.613926,-2.863992 -9.164063,-4.664062 h -0.002 -0.002 c -3.59834,-1.79917 -6.846036,-3.449037 -9.193359,-4.660156 -1.173662,-0.60556 -2.123335,-1.101856 -2.775391,-1.451172 -0.101389,-0.05432 -0.14372,-0.07989 -0.230469,-0.126953 0.138804,-0.07273 0.226291,-0.118479 0.404297,-0.210938 0.782967,-0.406683 1.939155,-1.0022 3.427734,-1.763672 2.977158,-1.522943 7.283525,-3.712663 12.595703,-6.40625 C 39.975919,55.94681 54.625061,48.547038 70.724609,40.447266 86.874443,32.347349 101.54892,24.996634 112.21094,19.671875 c 5.33101,-2.662379 9.6591,-4.818417 12.66601,-6.308594 1.50346,-0.745088 2.67617,-1.323121 3.47852,-1.714843 0.40117,-0.195862 0.71104,-0.346268 0.91992,-0.445313 0.0497,-0.02359 0.0732,-0.03498 0.11133,-0.05273 z m 0.21289,8.589843 -49.123048,24.613282 c -13.500596,6.700308 -25.752636,12.874743 -34.628906,17.40039 -4.438435,2.262977 -8.03273,4.113968 -10.519531,5.41211 -1.243401,0.64907 -2.208631,1.159021 -2.867188,1.515625 -0.329278,0.178301 -0.582163,0.318316 -0.757812,0.419921 -0.08782,0.0508 -0.156153,0.09194 -0.212891,0.128907 -0.02837,0.01848 -0.05206,0.03355 -0.08594,0.06055 -0.01694,0.0135 -0.03563,0.02884 -0.06836,0.06445 -0.01636,0.0178 -0.03748,0.03894 -0.06445,0.08398 -0.02697,0.04504 -0.07227,0.258985 -0.07227,0.259766 0,7.81e-4 0.04694,0.2165 0.07422,0.261718 0.02727,0.04522 0.04794,0.06813 0.06445,0.08594 0.03302,0.03562 0.05132,0.04905 0.06836,0.0625 0.03408,0.02689 0.0594,0.04415 0.08789,0.0625 0.05698,0.03671 0.124722,0.07654 0.21289,0.126953 0.176336,0.100833 0.429271,0.239025 0.759766,0.416016 0.660989,0.353982 1.62978,0.86077 2.876953,1.505859 2.494346,1.290179 6.098628,3.130169 10.542969,5.386719 8.888281,4.512896 21.138136,10.689574 34.58789,17.439453 l 49.124998,24.712897 49.22461,-24.712897 h 0.002 c 13.45033,-6.800165 25.67592,-13.000843 34.53906,-17.513672 4.43158,-2.256414 8.02194,-4.092007 10.50586,-5.369141 1.24196,-0.638566 2.20706,-1.136972 2.86328,-1.480468 0.32812,-0.171748 0.57818,-0.303403 0.75,-0.396485 0.0859,-0.04654 0.15086,-0.08419 0.20118,-0.113281 0.0252,-0.01454 0.0454,-0.02478 0.0703,-0.04102 0.0125,-0.0081 0.0249,-0.01649 0.0508,-0.03711 0.0129,-0.01031 0.0298,-0.02125 0.0606,-0.05469 0.0308,-0.03344 0.13281,-0.341407 0.13281,-0.341797 0,-3.91e-4 -0.10206,-0.306406 -0.13281,-0.339844 -0.0308,-0.03344 -0.0476,-0.04438 -0.0606,-0.05469 -0.0259,-0.02062 -0.0383,-0.02899 -0.0508,-0.03711 -0.025,-0.01624 -0.0452,-0.02842 -0.0703,-0.04297 -0.0503,-0.02909 -0.11525,-0.0648 -0.20118,-0.111328 -0.17184,-0.09307 -0.42186,-0.224824 -0.75,-0.396484 -0.65626,-0.34332 -1.62127,-0.842663 -2.86328,-1.480469 -2.484,-1.275612 -6.07613,-3.107205 -10.50781,-5.357422 -8.86335,-4.500433 -21.08837,-10.675435 -34.53906,-17.425781 z m 0,1.119141 48.77539,24.488281 c 13.44928,6.74964 25.67353,12.924271 34.53516,17.423828 4.43081,2.249779 8.02229,4.081084 10.5039,5.355469 1.24081,0.637193 2.20354,1.133555 2.85547,1.474609 0.0812,0.04246 0.11217,0.0601 0.18359,0.09766 -0.0714,0.03758 -0.10243,0.05517 -0.18359,0.09766 -0.65197,0.341269 -1.61462,0.840521 -2.85547,1.478516 -2.4817,1.275989 -6.07299,3.111106 -10.5039,5.367187 -8.86184,4.512163 -21.08551,10.711898 -34.53516,17.511719 v -0.002 L 129.59961,118.64063 80.923828,94.152344 C 67.474323,87.402592 55.224192,81.228688 46.337891,76.716797 41.89474,74.460851 38.292758,72.619975 35.802734,71.332031 c -1.245011,-0.643971 -2.212553,-1.150467 -2.865234,-1.5 -0.109347,-0.05856 -0.154626,-0.08511 -0.246094,-0.134765 0.0907,-0.0498 0.135802,-0.0761 0.244141,-0.134766 0.650035,-0.351989 1.614497,-0.861963 2.855469,-1.509766 C 38.27296,66.757128 41.866179,64.90655 46.302734,62.644531 55.175846,58.120494 67.423581,51.9472 80.921875,45.248047 h 0.002 z M 47.927734,87.810547 c -0.03574,-0.007 -0.100207,-0.01101 -0.201172,0.0039 -0.07178,0.0083 -0.139135,0.01689 -0.193359,0.0332 -0.07508,0.02259 -0.153907,0.05052 -0.246094,0.08594 -0.184373,0.07084 -0.415286,0.168829 -0.693359,0.292968 -0.556146,0.24828 -1.296753,0.59978 -2.162109,1.021485 -1.730714,0.843409 -3.959412,1.968527 -6.16211,3.107422 -2.202698,1.138895 -4.378948,2.28978 -6.009765,3.183593 -0.815409,0.446907 -1.492713,0.829566 -1.97461,1.117188 -0.240948,0.143811 -0.43265,0.262185 -0.576172,0.361328 -0.07176,0.04957 -0.130511,0.09283 -0.189453,0.144531 -0.02947,0.02585 -0.05912,0.05146 -0.09766,0.09961 -0.03853,0.04815 -0.121094,0.107682 -0.121094,0.33789 0,3.91e-4 0.101971,0.308416 0.132813,0.341797 0.03084,0.03338 0.04759,0.04442 0.06055,0.05469 0.02592,0.02054 0.03828,0.02901 0.05078,0.03711 0.02499,0.01619 0.04506,0.02648 0.07031,0.04102 0.0505,0.02906 0.116844,0.06676 0.203125,0.113281 0.172563,0.09305 0.422466,0.224834 0.751953,0.396484 0.658975,0.343302 1.628337,0.842678 2.875,1.480466 2.493328,1.27559 6.096904,3.10724 10.541016,5.35743 8.888224,4.50036 21.139376,10.67554 34.589844,17.42578 l 49.125002,24.61132 49.22461,-24.71289 c 13.45033,-6.80016 25.67592,-13.00084 34.53906,-17.51367 4.43158,-2.25641 8.02194,-4.09005 10.50586,-5.367186 1.24196,-0.638566 2.20706,-1.136972 2.86328,-1.480468 0.32812,-0.171749 0.57817,-0.305356 0.75,-0.398438 0.0859,-0.04654 0.15281,-0.08224 0.20313,-0.111328 0.0252,-0.01454 0.0454,-0.02673 0.0703,-0.04297 0.0125,-0.0081 0.0249,-0.01649 0.0508,-0.03711 0.013,-0.01031 0.0278,-0.02125 0.0586,-0.05469 0.0307,-0.03344 0.13281,-0.339453 0.13281,-0.339843 0,-3.91e-4 -0.0155,-0.124555 -0.0156,-0.125 -1.1e-4,-4.46e-4 -0.0191,-0.06134 -0.0293,-0.08398 -0.0204,-0.04529 -0.0387,-0.07211 -0.0547,-0.09375 -0.0319,-0.04328 -0.0544,-0.06359 -0.0723,-0.08008 -0.0357,-0.03297 -0.0581,-0.04754 -0.082,-0.06445 -0.0478,-0.03383 -0.0956,-0.06516 -0.15625,-0.101563 -0.12126,-0.0728 -0.28647,-0.165557 -0.49804,-0.28125 -0.42315,-0.231385 -1.02828,-0.551217 -1.77344,-0.939453 -1.49032,-0.77647 -3.54079,-1.826444 -5.79102,-2.976562 h -0.002 L 209.19922,88.441406 169.07617,108.55273 129.5,128.33984 89.224609,108.05273 h -0.002 C 78.072622,102.50272 67.872369,97.427773 60.408203,93.751953 c -3.732083,-1.83791 -6.779157,-3.325988 -8.921875,-4.349609 -1.071359,-0.511811 -1.916914,-0.906967 -2.511719,-1.173828 -0.297402,-0.133431 -0.53118,-0.234959 -0.707031,-0.304688 -0.08792,-0.03486 -0.159884,-0.06254 -0.228516,-0.08398 -0.03431,-0.01072 -0.06726,-0.02065 -0.111328,-0.0293 z m -0.134765,1.003906 c 0.03025,0.01067 0.05548,0.01924 0.105468,0.03906 0.14998,0.05947 0.377677,0.156868 0.667969,0.287109 0.580585,0.260482 1.42058,0.653999 2.488281,1.164062 2.135404,1.020127 5.1817,2.506664 8.91211,4.34375 7.460413,3.673973 17.65936,8.749216 28.808594,14.298836 h 0.002 L 129.5,129.45898 l 40.02344,-20.01171 39.67773,-19.888676 7.97461,3.988281 c 2.24799,1.148974 4.29757,2.197695 5.78125,2.970703 0.69039,0.359701 1.22385,0.644092 1.63086,0.865234 -0.0824,0.04338 -0.12078,0.06497 -0.2168,0.115235 -0.65197,0.341268 -1.61657,0.840521 -2.85742,1.478515 -2.4817,1.275988 -6.07299,3.109158 -10.5039,5.365238 -8.86184,4.51216 -21.08551,10.71189 -34.53516,17.51172 L 127.69922,146.33984 79.023437,121.95313 C 65.573933,115.20337 53.324258,109.02892 44.4375,104.5293 c -4.443379,-2.24982 -8.046067,-4.08106 -10.537109,-5.355472 -1.245522,-0.637207 -2.212492,-1.13549 -2.867188,-1.476562 -0.126086,-0.06569 -0.182599,-0.09651 -0.285156,-0.150391 0.02089,-0.01257 0.027,-0.01823 0.04883,-0.03125 0.461853,-0.275659 1.13377,-0.655892 1.943359,-1.099609 1.61918,-0.887435 3.792937,-2.035773 5.990235,-3.171875 2.197297,-1.136103 4.419389,-2.259818 6.138672,-3.097657 0.859641,-0.418919 1.593256,-0.765858 2.130859,-1.005859 0.268802,-0.120001 0.489061,-0.213706 0.644531,-0.273438 0.06499,-0.02497 0.110889,-0.04065 0.148438,-0.05273 z m 158.607421,27.925777 -39.62305,19.8125 -39.17578,19.58789 -38.876951,-19.58789 c -10.701563,-5.40078 -20.551402,-10.30071 -27.765625,-13.85156 -3.607111,-1.77542 -6.554822,-3.21222 -8.621093,-4.20703 -1.033136,-0.49741 -1.845628,-0.88496 -2.41211,-1.14844 -0.283241,-0.13174 -0.505745,-0.2327 -0.666015,-0.30273 -0.08013,-0.035 -0.144495,-0.0626 -0.199219,-0.084 -0.02736,-0.0107 -0.05056,-0.0198 -0.08008,-0.0293 -0.02952,-0.009 -0.02222,-0.0293 -0.179688,-0.0293 -0.269212,0 -0.338924,0.0617 -0.535156,0.13477 -0.196232,0.0731 -0.442277,0.17433 -0.736328,0.30273 -0.588102,0.25681 -1.36919,0.62001 -2.279297,1.05664 -1.820214,0.87326 -4.155536,2.03984 -6.464844,3.22266 -2.309308,1.18281 -4.590397,2.38178 -6.298828,3.31836 -0.854215,0.46829 -1.564571,0.86921 -2.070312,1.17578 -0.252871,0.15328 -0.453488,0.28146 -0.605469,0.39062 -0.07599,0.0546 -0.138445,0.10309 -0.201172,0.16211 -0.03136,0.0295 -0.06321,0.0601 -0.101563,0.11328 -0.03836,0.0532 -0.107421,0.12696 -0.107421,0.32227 0,7.8e-4 0.04499,0.2165 0.07227,0.26172 0.02727,0.0452 0.04794,0.0681 0.06445,0.0859 0.03302,0.0356 0.05132,0.049 0.06836,0.0625 0.03408,0.0269 0.0594,0.0422 0.08789,0.0605 0.05698,0.0367 0.124723,0.0785 0.212891,0.12891 0.176336,0.10083 0.429271,0.23902 0.759766,0.41601 0.660989,0.35399 1.62978,0.86077 2.876953,1.50586 2.494346,1.29018 6.098628,3.13017 10.542968,5.38672 8.888682,4.5131 21.139376,10.68922 34.589844,17.43946 l 49.023439,24.71289 49.22656,-24.71289 v -0.002 c 13.45033,-6.80016 25.67592,-12.99889 34.53906,-17.51172 4.43158,-2.25641 8.02194,-4.092 10.50586,-5.36914 1.24196,-0.63856 2.20706,-1.13697 2.86328,-1.48047 0.32812,-0.17174 0.57817,-0.30535 0.75,-0.39843 0.0859,-0.0465 0.15281,-0.0822 0.20313,-0.11133 0.0252,-0.0145 0.0454,-0.0267 0.0703,-0.043 0.0125,-0.008 0.0249,-0.0145 0.0508,-0.0352 0.013,-0.0103 0.0278,-0.0232 0.0586,-0.0566 0.0307,-0.0334 0.13281,-0.33945 0.13281,-0.33984 0,-3.9e-4 -0.0194,-0.13821 -0.0195,-0.13867 -1.3e-4,-4.6e-4 -0.0219,-0.0633 -0.0332,-0.0859 -0.0226,-0.0453 -0.0426,-0.0717 -0.0586,-0.0918 -0.0319,-0.0402 -0.0512,-0.057 -0.0684,-0.0723 -0.0343,-0.0304 -0.0571,-0.0469 -0.082,-0.0645 -0.05,-0.035 -0.10485,-0.0695 -0.17383,-0.11132 -0.13795,-0.0836 -0.33022,-0.19327 -0.57617,-0.33008 -0.49189,-0.27363 -1.19725,-0.65189 -2.06836,-1.10938 -1.74161,-0.91466 -4.14363,-2.14173 -6.79687,-3.44336 l -0.002,-0.002 z m 0,1.11915 9.37695,4.68945 h 0.002 c 2.64566,1.29787 5.04261,2.52162 6.77539,3.43164 0.86476,0.45415 1.56306,0.83074 2.04297,1.09766 -0.0853,0.0449 -0.12646,0.0667 -0.22657,0.11914 -0.65197,0.34126 -1.61657,0.84052 -2.85742,1.47851 -2.4817,1.27599 -6.07299,3.10915 -10.5039,5.36524 -8.86184,4.51216 -21.08551,10.71385 -34.53516,17.51367 L 127.70117,176.04102 79.125,151.55273 c -13.449505,-6.74975 -25.699636,-12.92365 -34.585938,-17.43554 -4.44315,-2.25595 -8.045132,-4.09682 -10.535156,-5.38477 -1.245012,-0.64397 -2.212553,-1.15047 -2.865234,-1.5 -0.147863,-0.0792 -0.219054,-0.11886 -0.333985,-0.18164 0.05132,-0.0319 0.07109,-0.0489 0.128907,-0.084 0.482148,-0.29227 1.185858,-0.68978 2.033203,-1.1543 1.69469,-0.92905 3.97025,-2.12501 6.273437,-3.30469 2.303188,-1.17968 4.635452,-2.34358 6.44336,-3.21093 0.903954,-0.43368 1.677556,-0.79471 2.246093,-1.04297 0.284269,-0.12414 0.517278,-0.21932 0.683594,-0.28125 0.129989,-0.0484 0.16801,-0.0517 0.146485,-0.0566 0.0307,0.0127 0.05435,0.0232 0.09961,0.043 0.14681,0.0641 0.365077,0.16299 0.644531,0.29297 0.558908,0.25996 1.369466,0.64624 2.400391,1.14258 2.061849,0.99269 5.0079,2.42855 8.613281,4.20313 7.210763,3.54914 17.059398,8.45041 27.757813,13.84961 l 39.324218,19.8125 39.62305,-19.8125 z m 0,28.48242 -39.62305,19.81054 -39.17578,19.58789 -38.876951,-19.58593 v -0.002 C 77.97356,160.75182 68.122426,155.85163 60.908203,152.30078 c -3.607111,-1.77542 -6.553929,-3.21198 -8.626953,-4.20703 -1.036512,-0.49753 -1.855097,-0.88448 -2.429688,-1.14844 -0.287295,-0.13197 -0.51284,-0.23398 -0.679687,-0.30469 -0.08342,-0.0354 -0.151159,-0.062 -0.210938,-0.084 -0.02989,-0.011 -0.05707,-0.0217 -0.08984,-0.0312 -0.03278,-0.009 -0.05104,-0.0254 -0.171875,-0.0254 -0.271528,0 -0.338846,0.0628 -0.535157,0.13672 -0.19631,0.0739 -0.442277,0.17694 -0.736328,0.30664 -0.5881,0.25939 -1.369251,0.62588 -2.279297,1.06641 -1.820091,0.88104 -4.155855,2.05718 -6.464843,3.24609 -2.308989,1.18891 -4.589666,2.38911 -6.296875,3.32031 -0.853605,0.4656 -1.562804,0.86381 -2.066407,1.16211 -0.251801,0.14915 -0.450764,0.27151 -0.599609,0.37305 -0.07442,0.0508 -0.135385,0.0949 -0.195312,0.14648 -0.02996,0.0258 -0.05863,0.0521 -0.09766,0.0996 -0.03903,0.0475 -0.126953,0.10117 -0.126953,0.3418 0,7.8e-4 0.04499,0.2165 0.07227,0.26172 0.02727,0.0452 0.04794,0.0681 0.06445,0.0859 0.03302,0.0356 0.05132,0.0491 0.06836,0.0625 0.03408,0.0269 0.0594,0.0441 0.08789,0.0625 0.05698,0.0367 0.124723,0.0765 0.212891,0.12696 0.176335,0.10083 0.429271,0.23902 0.759765,0.41601 0.66099,0.35399 1.62978,0.86077 2.876953,1.50586 2.494347,1.29018 6.098629,3.13017 10.542969,5.38672 8.888681,4.5131 21.139376,10.68922 34.589844,17.43945 l 49.124997,24.61329 49.12305,-24.71289 c 13.50087,-6.75044 25.75099,-12.9253 34.62695,-17.42579 4.43798,-2.25024 8.03197,-4.08178 10.51758,-5.35742 1.2428,-0.63781 2.20875,-1.13714 2.86523,-1.48047 0.32824,-0.17166 0.57812,-0.30341 0.75,-0.39648 0.0859,-0.0465 0.1528,-0.0842 0.20313,-0.11328 0.0252,-0.0146 0.0453,-0.0248 0.0703,-0.041 0.0125,-0.008 0.0249,-0.0165 0.0508,-0.0371 0.013,-0.0103 0.0278,-0.0212 0.0586,-0.0547 0.0307,-0.0334 0.13281,-0.34141 0.13281,-0.3418 0,-3.9e-4 -0.0194,-0.13822 -0.0195,-0.13867 -1.3e-4,-4.6e-4 -0.0219,-0.0633 -0.0332,-0.0859 -0.0226,-0.0453 -0.0426,-0.0717 -0.0586,-0.0918 -0.0319,-0.0402 -0.0512,-0.057 -0.0684,-0.0723 -0.0343,-0.0304 -0.0571,-0.047 -0.082,-0.0645 -0.05,-0.035 -0.10485,-0.0695 -0.17383,-0.11132 -0.13795,-0.0836 -0.33022,-0.19327 -0.57617,-0.33008 -0.49189,-0.27363 -1.19725,-0.65189 -2.06836,-1.10938 -1.74182,-0.91476 -4.14326,-2.14156 -6.79687,-3.44336 h -0.002 z m 0,1.11718 9.37695,4.68946 h 0.002 c 2.64566,1.29787 5.04261,2.52162 6.77539,3.43164 0.86476,0.45415 1.56306,0.83074 2.04297,1.09765 -0.0853,0.0449 -0.12643,0.0668 -0.22657,0.11914 -0.65211,0.34105 -1.6178,0.83939 -2.85937,1.47657 -2.48314,1.27436 -6.07666,3.10571 -10.51367,5.35547 -8.87403,4.4995 -21.12199,10.67427 -34.6211,17.42382 h -0.002 L 127.69922,205.54102 79.023437,181.15234 C 65.573933,174.40259 53.325754,168.22869 44.439453,163.7168 c -4.44315,-2.25595 -8.047086,-4.09683 -10.537109,-5.38477 -1.245012,-0.64397 -2.2106,-1.15047 -2.863282,-1.5 -0.138344,-0.0741 -0.202932,-0.11017 -0.3125,-0.16992 0.04188,-0.0252 0.05766,-0.0373 0.103516,-0.0645 0.484287,-0.28686 1.1872,-0.68006 2.035156,-1.14258 1.695913,-0.92505 3.971884,-2.12446 6.275391,-3.31055 2.303507,-1.18609 4.637283,-2.35917 6.445312,-3.23437 0.904015,-0.43761 1.677556,-0.80197 2.246094,-1.05274 0.28427,-0.12538 0.517356,-0.2226 0.683594,-0.28515 0.134456,-0.0506 0.183327,-0.0543 0.148437,-0.0586 0.03308,0.013 0.06423,0.0264 0.117188,0.0488 0.149803,0.0635 0.369913,0.16127 0.652344,0.29102 0.564862,0.25948 1.380264,0.6444 2.414062,1.14062 2.067597,0.99245 5.013759,2.43051 8.619141,4.20508 7.210763,3.54914 17.059664,8.44819 27.808594,13.84765 l 39.324219,19.8125 39.62305,-19.8125 z m 0,28.48243 -39.62305,19.81054 -39.17578,19.58789 -38.876951,-19.58593 C 77.97356,190.35338 68.122426,185.45319 60.908203,181.90234 c -3.607111,-1.77542 -6.553929,-3.21393 -8.626953,-4.20898 -1.036512,-0.49753 -1.855097,-0.88449 -2.429688,-1.14844 -0.287295,-0.13197 -0.51284,-0.23398 -0.679687,-0.30469 -0.08342,-0.0353 -0.151159,-0.062 -0.210938,-0.084 -0.02989,-0.011 -0.05707,-0.0198 -0.08984,-0.0293 -0.03278,-0.009 -0.05104,-0.0273 -0.171875,-0.0273 -0.271528,0 -0.338846,0.0628 -0.535157,0.13672 -0.19631,0.0739 -0.442277,0.17694 -0.736328,0.30664 -0.5881,0.25939 -1.369251,0.62588 -2.279297,1.0664 -1.820091,0.88105 -4.155855,2.05719 -6.464843,3.2461 -2.308989,1.18891 -4.589666,2.38911 -6.296875,3.32031 -0.853605,0.4656 -1.562804,0.86381 -2.066407,1.16211 -0.251801,0.14915 -0.450764,0.27346 -0.599609,0.375 -0.07442,0.0508 -0.135385,0.093 -0.195312,0.14453 -0.02996,0.0258 -0.05863,0.0522 -0.09766,0.0996 -0.03903,0.0475 -0.126953,0.10313 -0.126953,0.34375 0,7.8e-4 0.04499,0.21455 0.07227,0.25977 0.02727,0.0452 0.04794,0.0681 0.06445,0.0859 0.03302,0.0356 0.05132,0.0491 0.06836,0.0625 0.03408,0.0269 0.0594,0.0442 0.08789,0.0625 0.05698,0.0367 0.124723,0.0765 0.212891,0.12696 0.176335,0.10083 0.429271,0.23902 0.759765,0.41601 0.66099,0.35399 1.62978,0.86077 2.876953,1.50586 2.494347,1.29018 6.098629,3.13212 10.542969,5.38867 8.888681,4.5131 21.139376,10.68727 34.589844,17.4375 l 49.124997,24.61329 49.22266,-24.7129 c 13.45069,-6.75034 25.67766,-12.92534 34.54101,-17.42578 4.43168,-2.25021 8.02186,-4.08181 10.50586,-5.35742 1.24201,-0.6378 2.20702,-1.13715 2.86328,-1.48047 0.32814,-0.17166 0.57816,-0.30342 0.75,-0.39648 0.0859,-0.0465 0.1528,-0.0822 0.20313,-0.11133 0.0252,-0.0145 0.0454,-0.0267 0.0703,-0.043 0.0125,-0.008 0.0249,-0.0165 0.0508,-0.0371 0.013,-0.0103 0.0278,-0.0213 0.0586,-0.0547 0.0307,-0.0334 0.13281,-0.33945 0.13281,-0.33984 0,-3.9e-4 -0.0194,-0.14017 -0.0195,-0.14062 -1.3e-4,-4.6e-4 -0.0219,-0.0633 -0.0332,-0.0859 -0.0226,-0.0453 -0.0426,-0.0717 -0.0586,-0.0918 -0.0319,-0.0402 -0.0512,-0.0571 -0.0684,-0.0723 -0.0343,-0.0304 -0.0571,-0.0469 -0.082,-0.0645 -0.05,-0.035 -0.10485,-0.0676 -0.17383,-0.10937 -0.13795,-0.0836 -0.33022,-0.19522 -0.57617,-0.33203 -0.49189,-0.27363 -1.19725,-0.65189 -2.06836,-1.10938 -1.74161,-0.91466 -4.14363,-2.13978 -6.79687,-3.4414 l -0.002,-0.002 z m 0,1.11718 9.37695,4.68946 h 0.002 c 2.64566,1.29787 5.04261,2.52162 6.77539,3.43164 0.8654,0.45449 1.56498,0.83071 2.04492,1.09765 -0.086,0.0453 -0.12738,0.0682 -0.22852,0.1211 -0.65193,0.34105 -1.61661,0.83741 -2.85742,1.47461 -2.48161,1.27438 -6.07114,3.10569 -10.50195,5.35547 -8.86163,4.49955 -21.08587,10.67418 -34.53516,17.42382 l -48.77734,24.48828 -48.675783,-24.38671 c -13.449504,-6.74976 -25.697683,-12.92561 -34.583984,-17.4375 -4.44315,-2.25595 -8.047086,-4.09683 -10.537109,-5.38477 -1.245012,-0.64397 -2.2106,-1.14851 -2.863282,-1.49805 -0.137523,-0.0736 -0.201455,-0.11043 -0.310546,-0.16992 0.04136,-0.0249 0.05633,-0.0377 0.101562,-0.0644 0.484287,-0.28686 1.1872,-0.68201 2.035156,-1.14453 1.695913,-0.92505 3.971884,-2.12446 6.275391,-3.31055 2.303507,-1.18609 4.637283,-2.35917 6.445312,-3.23437 0.904015,-0.43761 1.677556,-0.80197 2.246094,-1.05274 0.28427,-0.12538 0.517356,-0.2226 0.683594,-0.28516 0.132323,-0.0498 0.17535,-0.052 0.146484,-0.0566 0.03321,0.013 0.06551,0.0241 0.119141,0.0469 0.149803,0.0635 0.369913,0.16127 0.652344,0.29101 0.564862,0.25949 1.380264,0.64441 2.414062,1.14063 2.067597,0.99245 5.013759,2.43051 8.619141,4.20508 7.210763,3.54914 17.059664,8.44819 27.808594,13.84765 l 39.324219,19.8125 39.62305,-19.8125 z"
         id="path4" /></g></g></g>
</svg>
