<?xml version="1.0" encoding="UTF-8" standalone="no"?>
<!-- Svg Vector Icons : http://www.onlinewebfonts.com/icon -->

<svg
   version="1.1"
   x="0px"
   y="0px"
   viewBox="0 0 236.12041 120.0346"
   enable-background="new 0 0 256 256"
   xml:space="preserve"
   id="svg22"
   sodipodi:docname="vpinball_controller.svg"
   width="236.12041"
   height="120.0346"
   inkscape:version="1.1.2 (0a00cf5339, 2022-02-04)"
   xmlns:inkscape="http://www.inkscape.org/namespaces/inkscape"
   xmlns:sodipodi="http://sodipodi.sourceforge.net/DTD/sodipodi-0.dtd"
   xmlns="http://www.w3.org/2000/svg"
   xmlns:svg="http://www.w3.org/2000/svg"><defs
   id="defs26" /><sodipodi:namedview
   id="namedview24"
   pagecolor="#ffffff"
   bordercolor="#666666"
   borderopacity="1.0"
   inkscape:pageshadow="2"
   inkscape:pageopacity="0.0"
   inkscape:pagecheckerboard="true"
   showgrid="false"
   fit-margin-top="0"
   fit-margin-left="0"
   fit-margin-right="0"
   fit-margin-bottom="0"
   inkscape:zoom="3.2109375"
   inkscape:cx="117.87835"
   inkscape:cy="60.107056"
   inkscape:window-width="2560"
   inkscape:window-height="1440"
   inkscape:window-x="1920"
   inkscape:window-y="0"
   inkscape:window-maximized="1"
   inkscape:current-layer="svg22" />
<metadata
   id="metadata2"> Svg Vector Icons : http://www.onlinewebfonts.com/icon </metadata>
<g
   id="g20"
   transform="translate(-9.9677695,-67.981027)"
   style="fill:#ffffff;stroke:#000000"><g
     id="g18"
     style="fill:#ffffff"><g
       id="g16"
       style="fill:#ffffff"><path
         style="color:#000000;fill:#ffffff;stroke:none;-inkscape-stroke:none"
         d="m 143.63281,67.480469 c -1.55064,0.0069 -3.06922,0.146343 -4.52734,0.427734 l -0.002,0.002 h -0.002 c -6.09218,1.218437 -11.3932,4.074845 -16.05468,8.736328 -3.63929,3.63928 -5.89304,7.123145 -7.7129,11.875 -1.10954,2.825116 -1.23437,3.974892 -1.23437,9.578125 0,5.600144 0.12457,6.754464 1.23242,9.576174 1.82058,4.85486 4.07884,8.24095 7.71485,11.87695 v 0.002 h 0.002 c 9.62913,9.52777 22.59843,11.77626 34.66797,5.79492 5.72825,-2.76184 11.27205,-8.40871 14.03125,-14.0293 l 0.002,-0.002 0.002,-0.004 c 1.93246,-4.06832 3.44727,-9.57199 3.44727,-13.214844 0,-3.631776 -1.41038,-9.136826 -3.44922,-13.216797 -2.75913,-5.72264 -8.30673,-11.270889 -14.0293,-14.03125 -4.49217,-2.208015 -9.43595,-3.391883 -14.08789,-3.371093 z m 0.004,1.001953 c 4.4793,-0.01671 9.28475,1.123645 13.64258,3.265625 l 0.002,0.002 h 0.002 c 5.47609,2.640255 10.92615,8.090321 13.56641,13.566406 l 0.002,0.0039 0.002,0.0039 c 1.95974,3.919497 3.3457,9.408727 3.3457,12.77539 0,3.357137 -1.48402,8.853477 -3.35156,12.785157 -2.64191,5.37751 -8.09476,10.92728 -13.56446,13.56445 l -0.002,0.002 h -0.004 c -11.72883,5.81514 -24.15604,3.6633 -33.52539,-5.60742 -3.56271,-3.56314 -5.7053,-6.77535 -7.48437,-11.51953 v -0.004 l -0.002,-0.004 c -1.08896,-2.77189 -1.16602,-3.62276 -1.16602,-9.216797 0,-5.594042 0.0771,-6.44491 1.16602,-9.216797 v -0.002 l 0.002,-0.002 c 1.78013,-4.648135 3.92561,-7.964678 7.48633,-11.52539 4.53754,-4.537547 9.6348,-7.280919 15.54101,-8.462891 1.39188,-0.268609 2.8487,-0.402633 4.3418,-0.408203 z m -1.53516,7.134765 c -1.99351,0.191691 -3.98597,0.649676 -6.16601,1.410157 -14.35085,5.022794 -18.94105,24.541176 -8.61133,36.302736 9.53118,10.86349 28.41044,9.43171 36.19726,-2.86328 v 0.004 c 4.43068,-6.9036 4.4321,-17.82851 0.004,-24.734372 l -0.002,-0.0039 c -3.19049,-5.143254 -9.19118,-9.001851 -15.24805,-9.925781 l -0.004,-0.002 h -0.002 c -2.17968,-0.304141 -4.17446,-0.37919 -6.16797,-0.1875 z m 0.0957,0.990235 c 1.9046,-0.183128 3.80993,-0.107631 5.92773,0.1875 5.74171,0.875854 11.54071,4.613802 14.55078,9.46875 l 0.002,0.0039 0.002,0.002 c 4.16807,6.494444 4.16807,17.165708 0,23.660158 l -0.002,0.002 c -7.41315,11.70498 -25.53276,13.07476 -34.60156,2.73828 -9.87026,-11.23841 -5.45968,-29.920067 8.18945,-34.697263 2.11996,-0.739518 4.02516,-1.181925 5.93165,-1.365234 z"
         id="path4" /><path
         style="color:#000000;fill:#ffffff;stroke:none;-inkscape-stroke:none"
         d="m 145.90039,83.902344 c -1.6151,-0.100858 -3.70377,0.30073 -5.08008,0.830078 -2.86626,1.094822 -5.52284,3.330067 -7.49609,5.982422 -1.9736,2.652825 -3.27149,5.728788 -3.32422,8.576172 v 0.0039 0.0059 c 0,1.157244 0.0154,1.874384 0.22656,2.507804 0.21114,0.63342 0.61918,1.09444 1.23633,1.66016 l 0.004,0.006 0.006,0.004 c 1.56598,1.34998 3.37858,1.58374 4.82226,0.82617 1.44368,-0.75758 2.48405,-2.41763 2.80078,-4.634773 0.19141,-1.339846 0.70622,-3.135868 1.13672,-3.916016 0.964,-1.56964 3.77788,-3.054687 5.9668,-3.054687 2.25,0 4.34073,-1.648962 4.79101,-3.900391 v -0.0059 l 0.002,-0.0039 c 0.10811,-0.594601 0.11386,-1.13259 -0.0684,-1.664062 -0.18222,-0.531472 -0.52332,-1.025641 -1.03906,-1.644531 l -0.002,-0.002 -0.002,-0.002 c -0.56114,-0.663161 -1.00103,-1.117209 -1.62109,-1.365234 -0.61397,-0.245586 -1.30973,-0.258051 -2.35938,-0.208984 z m -0.0332,0.996093 0.0273,0.002 h 0.0293 c 1.03267,-0.04918 1.5849,-0.0133 1.96484,0.138671 0.37994,0.151976 0.69161,0.447147 1.23047,1.083985 0.48108,0.577932 0.74004,0.983816 0.85742,1.326172 0.11719,0.341796 0.12171,0.655332 0.0312,1.15625 -0.35169,1.746438 -2.06006,3.09375 -3.80859,3.09375 -2.60833,0 -5.58673,1.512836 -6.82617,3.541015 l -0.006,0.0078 -0.004,0.0098 c -0.56872,1.023701 -1.0498,2.815389 -1.25781,4.271485 -0.28327,1.982855 -1.19407,3.323205 -2.27539,3.890625 -1.07959,0.56652 -2.36554,0.44955 -3.69727,-0.69531 -0.57624,-0.52893 -0.82085,-0.81803 -0.95898,-1.23242 -0.13837,-0.41511 -0.17358,-1.04849 -0.17383,-2.183598 v -0.002 c 0.0478,-2.55219 1.25099,-5.474511 3.12695,-7.996094 1.8764,-2.522169 4.41763,-4.637193 7.05078,-5.642578 l 0.002,-0.002 c 1.215,-0.467309 3.3067,-0.859631 4.6875,-0.767579 z"
         id="path6" /><path
         style="color:#000000;fill:#ffffff;stroke:none;-inkscape-stroke:none"
         d="m 34.464844,89.308594 c -2.585817,-2.24e-4 -5.161142,0.235709 -6.896485,0.708984 -8.668229,2.346194 -15.108704,8.995113 -17.451171,17.753902 v 0.002 c -1.1420243,4.36045 -0.7411563,11.34397 0.71289,15.39453 l 0.002,0.008 0.002,0.006 c 1.421283,3.65473 3.548084,7.10998 6.21875,9.57813 4.6e-4,4.4e-4 0.0034,0.003 0.0039,0.004 0.0013,0.001 0.0026,0.003 0.0039,0.004 0.411489,0.39467 1.700138,1.41224 3.798828,3.04883 2.103422,1.64027 4.967316,3.84754 8.335937,6.42773 6.737243,5.16038 15.495876,11.81673 24.240235,18.42969 8.744359,6.61296 17.473729,13.18264 24.148437,18.16797 3.337355,2.49266 6.160201,4.58869 8.216797,6.09765 1.028298,0.75449 1.865918,1.36108 2.480469,1.79883 0.614551,0.43776 0.94805,0.67926 1.1875,0.80469 1.43139,0.74432 3.892772,1.00695 6.388672,0.96875 2.493266,-0.0382 4.953587,-0.37675 6.380857,-1.17383 3.95609,-2.08509 6.44766,-6.15871 6.85938,-11.19531 0.12439,-1.29324 0.23893,-2.33783 -0.14258,-3.69727 -0.38211,-1.36159 -1.23179,-3.00394 -2.97461,-5.64648 -3.48564,-5.28508 -10.581176,-14.60042 -24.88086,-33.5 -7.201364,-9.55181 -14.053431,-18.50335 -19.267578,-25.23047 -2.607073,-3.36356 -4.804975,-6.17124 -6.433594,-8.220704 C 53.7699,97.798754 52.762452,96.5559 52.353597,96.147044 l -0.0039,-0.0039 -0.002,-0.002 c -2.873424,-2.770802 -7.023051,-5.099508 -10.919922,-6.125 v 0.002 c -1.780882,-0.47141 -4.377074,-0.708761 -6.96289,-0.708984 z m -0.0039,1.033203 c 2.539179,-2.24e-4 5.091824,0.212036 6.710938,0.640625 v 0.002 c 3.703122,0.974506 7.753899,3.245808 10.480469,5.875 0.243754,0.244553 1.343202,1.570646 2.964843,3.611328 1.624504,2.04429 3.82036,4.84951 6.425782,8.21094 5.210843,6.72286 12.059191,15.67058 19.257812,25.21875 v 0.002 c 14.300288,18.90038 21.404402,28.23236 24.843752,33.44727 1.71968,2.60745 2.51415,4.17878 2.84766,5.36719 0.33351,1.1884 0.23475,2.03201 0.10937,3.33593 v 0.004 0.002 c -0.38855,4.7598 -2.69427,8.4828 -6.33398,10.39844 l -0.006,0.004 -0.006,0.002 c -1.07341,0.60111 -3.509971,1.01203 -5.914066,1.04883 -2.404095,0.0368 -4.841549,-0.29979 -5.910156,-0.85547 -0.02305,-0.0121 -0.462648,-0.29957 -1.070313,-0.73242 -0.607665,-0.43285 -1.442558,-1.03808 -2.46875,-1.79102 -2.052384,-1.50587 -4.874861,-3.60204 -8.210937,-6.09375 -6.672154,-4.98341 -15.399455,-11.55008 -24.142579,-18.16211 -8.743123,-6.61202 -17.501708,-13.26937 -24.236328,-18.42773 -3.367309,-2.57918 -6.228816,-4.78286 -8.328125,-6.41992 -2.099308,-1.63707 -3.486948,-2.75796 -3.728515,-2.99024 l -0.0039,-0.004 -0.0039,-0.002 c -2.52235,-2.32832 -4.589463,-5.66464 -5.966797,-9.20117 l -0.002,-0.004 c -1.34476,-3.74979 -1.742649,-10.76029 -0.685547,-14.79883 v -0.002 c 2.257761,-8.439692 8.415832,-14.79085 16.746094,-17.044921 h 0.002 c 1.564654,-0.426724 4.089728,-0.640402 6.628906,-0.640625 z m 1.925782,6.347656 c -5.19874,-0.664741 -10.240252,1.32707 -14.449226,5.765627 v 0.002 h -0.002 c -3.445548,3.64823 -4.629392,6.4451 -4.933594,11.21094 l -0.002,0.006 v 0.004 c -0.203906,4.68985 0.954778,8.17181 3.824219,11.45118 l 0.0059,0.008 0.0059,0.006 c 0.186478,0.19744 0.5189,0.46501 1.117188,0.94922 0.598288,0.48421 1.423282,1.13942 2.443359,1.9414 2.040155,1.60397 4.862252,3.79599 8.208985,6.38086 6.693464,5.16974 15.485301,11.90733 24.304687,18.63281 8.819387,6.72549 17.666537,13.43877 24.472656,18.5586 3.40306,2.55991 6.295099,4.72248 8.419922,6.28906 1.062412,0.78329 1.932122,1.41657 2.580078,1.87891 0.64319,0.45893 1.022757,0.72751 1.269532,0.86133 5.83e-4,3.3e-4 0.0014,-3.4e-4 0.002,0 1.548729,0.88413 3.302056,0.75269 5.099609,-0.30469 0.962634,-0.56626 1.732999,-1.51116 2.244149,-2.54688 0.51112,-1.03571 0.77086,-2.16625 0.59375,-3.16992 l -0.002,-0.0176 -0.004,-0.0176 c -0.0383,-0.15329 -0.0672,-0.16705 -0.10352,-0.23046 -0.0363,-0.0634 -0.0794,-0.13492 -0.13476,-0.22071 -0.11066,-0.17157 -0.26442,-0.39878 -0.46094,-0.68164 -0.39303,-0.56571 -0.956481,-1.35373 -1.669928,-2.33789 -1.426893,-1.96831 -3.451733,-4.71714 -5.882813,-7.99219 -4.862159,-6.55008 -11.352944,-15.20861 -17.947265,-23.95312 -6.594322,-8.74451 -13.291788,-17.57346 -18.566407,-24.46094 -2.637309,-3.44374 -4.918345,-6.40222 -6.654296,-8.62304 -1.735951,-2.22083 -2.903773,-3.68092 -3.398438,-4.2168 v -0.002 h -0.002 c -1.357844,-1.4623 -3.291041,-2.78244 -5.152344,-3.611333 -1.742665,-0.820078 -3.493651,-1.337014 -5.226562,-1.558594 z m -0.132813,0.970703 c 1.626461,0.215919 3.276263,0.712267 4.933594,1.492188 l 0.0039,0.002 0.0059,0.002 c 1.735623,0.771388 3.596216,2.049676 4.835937,3.384766 0.405677,0.43959 1.61184,1.93669 3.34375,4.15234 1.732405,2.21628 4.014268,5.17304 6.650391,8.61523 5.272246,6.88439 11.967381,15.71211 18.560547,24.45508 6.593165,8.74298 13.083653,17.40244 17.943359,23.94922 2.429853,3.27339 4.452287,6.01792 5.875,7.98047 0.711357,0.98127 1.27238,1.76693 1.658199,2.32226 0.19291,0.27767 0.34202,0.49825 0.44141,0.65235 0.0432,0.067 0.0734,0.11436 0.0957,0.15234 0.11331,0.69422 -0.0668,1.64372 -0.5,2.52149 -0.438862,0.88928 -1.118101,1.69321 -1.855465,2.12695 -1.601766,0.94222 -2.846817,1.01164 -4.097657,0.29687 l -0.0059,-0.002 -0.0059,-0.004 c -0.07844,-0.0422 -0.531405,-0.34379 -1.171875,-0.80079 -0.64047,-0.45699 -1.508313,-1.08759 -2.56836,-1.86914 -2.120093,-1.56309 -5.012441,-3.72437 -8.414062,-6.2832 -6.803242,-5.11766 -15.648701,-11.83019 -24.466797,-18.55469 -8.818096,-6.7245 -17.607931,-13.46115 -24.298828,-18.6289 -3.345449,-2.58388 -6.167112,-4.77624 -8.203125,-6.37696 -1.018007,-0.80035 -1.83994,-1.45276 -2.431641,-1.93164 -0.589253,-0.47689 -0.984668,-0.82341 -1.013672,-0.85351 -1.2e-4,-1.3e-4 -0.0038,-0.004 -0.0039,-0.004 -2.721177,-3.1157 -3.760211,-6.23099 -3.564418,-10.73422 0.296701,-4.62696 1.312273,-7.03113 4.664062,-10.58008 4.040552,-4.259923 8.711279,-6.130073 13.589844,-5.482424 z"
         id="path8" /><path
         style="color:#000000;fill:#ffffff;stroke:none;-inkscape-stroke:none"
         d="m 35.259766,103.75 c -0.960916,0.0284 -1.933188,0.18292 -2.896485,0.46875 -0.44978,0.12851 -1.000978,0.41606 -1.607422,0.77734 -0.606443,0.36129 -1.243771,0.79385 -1.767578,1.21289 l -0.002,0.002 -0.002,0.002 c -3.715865,3.0355 -4.467707,7.66027 -3.066406,11.48438 1.4013,3.82411 4.969298,6.90234 9.78125,6.90234 4.648497,0 8.166558,-2.7888 9.662109,-6.39648 1.495552,-3.60769 0.981702,-8.06713 -2.308594,-11.35743 -2.119933,-2.11993 -4.904231,-3.18112 -7.792968,-3.0957 z m 0.0293,0.99414 c 2.623758,-0.0833 5.126579,0.87853 7.056641,2.80859 3.009698,3.0097 3.446243,7.00028 2.091797,10.26758 -1.354446,3.26731 -4.486787,5.7793 -8.738281,5.7793 -4.388039,0 -7.5681,-2.77021 -8.841797,-6.24609 -1.273697,-3.47589 -0.624362,-7.60269 2.759765,-10.36719 0.475632,-0.38011 1.083375,-0.79306 1.650391,-1.13086 0.568555,-0.33871 1.118922,-0.60234 1.369141,-0.67383 l 0.0039,-0.002 h 0.002 c 0.884739,-0.26303 1.771899,-0.40777 2.646484,-0.43555 z"
         id="path10" /><path
         style="color:#000000;fill:#ffffff;stroke:none;-inkscape-stroke:none"
         d="m 217.82227,105.30664 c -0.77273,0.11102 -2.43662,0.50716 -3.94141,0.9082 -0.33971,0.0826 -0.82637,0.29011 -1.60352,0.63477 -0.77715,0.34466 -1.80072,0.81975 -3.03906,1.41016 -2.47668,1.1808 -5.80941,2.81955 -9.71094,4.76562 -7.80304,3.89214 -17.87978,9.01643 -27.90625,14.17969 -10.02646,5.16325 -20.00235,10.36397 -27.60547,14.40625 -3.80155,2.02114 -7.00905,3.75307 -9.33593,5.04687 -1.16344,0.6469 -2.10672,1.18401 -2.79688,1.59571 -0.34507,0.20584 -0.62758,0.37982 -0.8457,0.52343 -0.21118,0.13904 -0.3467,0.23243 -0.47461,0.35743 -1.01115,0.90174 -2.17991,2.68605 -2.90039,4.02343 -4.8e-4,8.7e-4 -0.001,0.001 -0.002,0.002 -2.3e-4,4.2e-4 2.3e-4,0.002 0,0.002 -1.11948,2.0365 -1.35938,3.21867 -1.35938,6.33789 0,3.22083 0.24986,4.22047 1.36719,6.15039 l 0.002,0.004 0.002,0.004 c 2.49961,4.16603 7.50921,7.14258 12.1289,7.14258 0.14451,0 0.27529,-0.0213 0.49805,-0.0527 0.22276,-0.0315 0.51188,-0.0769 0.86914,-0.13672 0.71452,-0.11958 1.69692,-0.29425 2.91797,-0.51953 2.44208,-0.45056 5.84011,-1.10022 9.94726,-1.90039 8.21431,-1.60035 19.26528,-3.80103 31.16602,-6.20118 24.69949,-5.04989 36.61645,-7.44711 43.11328,-9.31054 6.49683,-1.86343 7.65597,-3.29174 10.44336,-6.12891 7.0264,-7.12823 9.58311,-17.41668 6.61914,-26.30859 l -0.002,-0.002 v -0.002 c -2.55886,-7.47186 -9.1818,-13.57309 -17.33008,-16.01758 l -0.01,-0.004 -0.0117,-0.002 c -1.44483,-0.36121 -3.48182,-0.66108 -5.41406,-0.83789 -1.93224,-0.1768 -3.72214,-0.23815 -4.78515,-0.0703 z m 0.15625,0.98633 c 0.83698,-0.13216 2.6463,-0.0931 4.53906,0.0801 1.88716,0.17268 3.89106,0.47298 5.24609,0.81054 7.84632,2.35676 14.22081,8.25129 16.66211,15.375 2.83603,8.50808 0.39077,18.41927 -6.38281,25.29102 -2.8126,2.86283 -3.6027,4.03257 -10.00586,5.86914 -6.40316,1.83657 -18.33665,4.24092 -43.03711,9.29102 -11.89841,2.39967 -22.94802,4.59967 -31.1582,6.19921 -4.10534,0.79983 -7.50147,1.449 -9.9375,1.89844 -1.21802,0.22472 -2.19577,0.39966 -2.90039,0.51758 -0.35231,0.059 -0.63717,0.1053 -0.84571,0.13477 -0.20853,0.0295 -0.36443,0.041 -0.35742,0.041 -4.17946,0 -8.96861,-2.82346 -11.26953,-6.65625 -4.6e-4,-7.7e-4 -0.001,-0.001 -0.002,-0.002 -1.07764,-1.86255 -1.22852,-2.46886 -1.22852,-5.64258 0,-3.07849 0.15987,-3.89862 1.23828,-5.85938 v -0.002 l 0.002,-0.002 c 0.67825,-1.25961 1.9048,-3.06447 2.6914,-3.76367 l 0.01,-0.01 0.0117,-0.01 c -1.4e-4,1.4e-4 0.13619,-0.11001 0.33398,-0.24024 0.1978,-0.13023 0.4693,-0.29877 0.80664,-0.5 0.67469,-0.40247 1.6111,-0.93792 2.76953,-1.58203 2.31686,-1.28823 5.52188,-3.01763 9.32031,-5.03711 7.59688,-4.03896 17.57024,-9.23866 27.59375,-14.40039 10.02352,-5.16173 20.09759,-10.28473 27.89454,-14.17383 3.89847,-1.94455 7.22824,-3.58159 9.69531,-4.75781 1.23353,-0.58811 2.25293,-1.06019 3.01562,-1.39844 0.7627,-0.33825 1.31276,-0.54826 1.43555,-0.57812 l 0.004,-0.002 h 0.006 c 1.4893,-0.39714 3.21439,-0.79904 3.84179,-0.88867 h 0.004 z m 4.49023,6.75391 c -2.28973,-0.14109 -4.59586,0.10004 -6.44141,0.78515 -0.61427,0.21569 -2.17864,0.96597 -4.64843,2.18164 -2.474,1.21774 -5.78846,2.87879 -9.6543,4.83789 -7.73168,3.9182 -17.67287,9.02294 -27.51758,14.11719 -9.84471,5.09425 -19.5913,10.17782 -26.93555,14.05859 -3.67212,1.94039 -6.74392,3.58147 -8.92773,4.77149 -1.09191,0.59501 -1.96079,1.07609 -2.57617,1.42969 -0.30769,0.17679 -0.55188,0.3205 -0.73242,0.43359 -0.0903,0.0565 -0.16344,0.10567 -0.22657,0.15039 -0.0631,0.0447 -0.10225,0.0562 -0.19531,0.16992 v 0.002 h -0.002 c -0.78552,0.96679 -0.97075,2.39256 -0.75586,3.80274 0.21488,1.41018 0.84765,2.83274 1.91211,3.78516 l 0.002,0.002 0.002,0.002 c 0.43996,0.38497 0.96816,0.72913 1.4961,0.98633 0.52794,0.2572 1.04034,0.4375 1.5332,0.4375 0.1628,0 0.23518,-0.0214 0.43164,-0.0527 0.19646,-0.0314 0.46109,-0.077 0.79297,-0.13672 0.66376,-0.1194 1.59663,-0.29434 2.76953,-0.51953 2.3458,-0.4504 5.65218,-1.10028 9.67774,-1.9004 8.0511,-1.60022 18.97584,-3.8011 30.82617,-6.20117 14.85173,-3.00035 25.82927,-5.301 33.30859,-6.93945 3.73966,-0.81922 6.60423,-1.47122 8.64453,-1.96484 2.04031,-0.49363 3.21069,-0.8062 3.73828,-1.02344 l 0.01,-0.004 0.01,-0.004 c 5.35759,-2.47274 8.96982,-7.5307 9.58789,-13.40235 v -0.002 -0.002 c 0.72147,-7.42088 -3.45688,-15.18845 -9.77735,-18.29688 l -0.004,-0.002 -0.004,-0.002 c -1.77946,-0.8374 -4.05333,-1.35888 -6.34375,-1.5 z m -0.0625,1.03125 c 2.18296,0.13377 4.3564,0.61142 5.97656,1.37304 5.87745,2.89291 9.89713,10.32318 9.21875,17.30078 -0.58293,5.52355 -3.96727,10.26186 -9.0039,12.58985 -0.32742,0.13376 -1.55836,0.48157 -3.58008,0.9707 -2.02844,0.49075 -4.88967,1.14266 -8.625,1.96094 -7.47066,1.63655 -18.44278,3.9359 -33.29102,6.93554 -11.84965,2.39993 -22.77534,4.6014 -30.82422,6.20118 -4.02443,0.79988 -7.33017,1.44883 -9.67187,1.89843 -1.17085,0.22481 -2.10126,0.39948 -2.75781,0.51758 -0.32828,0.0591 -0.58845,0.10522 -0.77344,0.13477 -0.18499,0.0296 -0.34874,0.0391 -0.27344,0.0391 -0.20714,0 -0.64669,-0.12009 -1.09375,-0.33789 -0.44547,-0.21703 -0.9139,-0.52013 -1.27344,-0.83399 l -0.002,-0.002 c -6.4e-4,-5.6e-4 -0.001,-10e-4 -0.002,-0.002 -0.83342,-0.74791 -1.40111,-1.97457 -1.58594,-3.1875 -0.18483,-1.21293 0.0302,-2.38367 0.54297,-3.01758 -0.0306,0.0359 -0.0313,0.0319 0,0.01 0.0375,-0.0266 0.0991,-0.0686 0.17969,-0.11914 0.16122,-0.101 0.39765,-0.24079 0.69921,-0.41407 0.60313,-0.34655 1.46828,-0.82684 2.55665,-1.41992 2.17673,-1.18615 5.24596,-2.82438 8.91601,-4.76367 7.34011,-3.87859 17.08692,-8.96144 26.92969,-14.05469 9.84277,-5.09324 19.78209,-10.19711 27.50976,-14.11328 3.86384,-1.95808 7.17479,-3.6193 9.64258,-4.83398 2.4678,-1.21469 4.15699,-2.0029 4.54492,-2.13868 l 0.004,-0.002 h 0.006 c 1.65417,-0.61441 3.84668,-0.82528 6.03125,-0.6914 z"
         id="path12" /><path
         style="color:#000000;fill:#ffffff;stroke:none;-inkscape-stroke:none"
         d="m 219.86719,120.06836 c -0.74204,0.0649 -1.4388,0.21824 -2.04883,0.4668 -2.42874,0.95037 -4.79438,3.00086 -5.96484,5.34179 -1.61256,3.12387 -1.19487,7.81318 0.73046,10.70117 l 0.004,0.004 0.002,0.004 c 3.88615,5.56664 12.17862,5.87994 16.68555,0.74414 l 0.002,-0.002 c 4.11115,-4.74363 2.75614,-12.48528 -2.61328,-15.65234 l -0.006,-0.002 c -1.91868,-1.19735 -4.55833,-1.8006 -6.79101,-1.60547 z m 2.1875,1.09961 c 1.46212,0.19009 2.95948,0.65509 4.08008,1.35547 l 0.006,0.004 0.006,0.004 c 4.82229,2.83664 6.06131,9.8872 2.375,14.14062 -4.09251,4.66088 -11.59501,4.37487 -15.10937,-0.65429 -8.3e-4,-0.001 -0.001,-0.003 -0.002,-0.004 -1.66859,-2.51208 -2.04861,-7.01059 -0.66602,-9.68359 l 0.002,-0.004 0.002,-0.002 c 1.02953,-2.05906 3.26234,-4.00976 5.43359,-4.85938 h 0.004 l 0.004,-0.002 c 0.9766,-0.39951 2.40312,-0.48501 3.86524,-0.29492 z"
         id="path14" /></g></g></g>
</svg>
