<?xml version="1.0" encoding="UTF-8" standalone="no"?>
<svg
   viewBox="0 0 71 71"
   fill="none"
   version="1.1"
   id="svg60"
   sodipodi:docname="wasm4_controller.svg"
   width="71"
   height="71"
   inkscape:version="1.1.2 (0a00cf5339, 2022-02-04)"
   xmlns:inkscape="http://www.inkscape.org/namespaces/inkscape"
   xmlns:sodipodi="http://sodipodi.sourceforge.net/DTD/sodipodi-0.dtd"
   xmlns="http://www.w3.org/2000/svg"
   xmlns:svg="http://www.w3.org/2000/svg">
  <defs
     id="defs12" />
  <sodipodi:namedview
     id="namedview10"
     pagecolor="#ffffff"
     bordercolor="#666666"
     borderopacity="1.0"
     inkscape:pageshadow="2"
     inkscape:pageopacity="0.0"
     inkscape:pagecheckerboard="true"
     showgrid="false"
     fit-margin-top="0"
     fit-margin-left="0"
     fit-margin-right="0"
     fit-margin-bottom="0"
     inkscape:zoom="11.003021"
     inkscape:cx="67.935889"
     inkscape:cy="25.084021"
     inkscape:window-width="2560"
     inkscape:window-height="1440"
     inkscape:window-x="1920"
     inkscape:window-y="0"
     inkscape:window-maximized="1"
     inkscape:current-layer="svg60" />
  <path
     style="color:#000000;fill:#ffffff;fill-rule:evenodd;stroke-linecap:square;-inkscape-stroke:none;paint-order:markers stroke"
     d="M 0,0 V 71 H 71 V 0 H 42.988281 l 0.04102,0.53710937 c 0.0092,0.12228385 0.01664,0.24444472 0.01953,0.36523438 -0.0011,4.17782615 -3.379451,7.55273435 -7.558594,7.55273435 -4.17501,0 -7.546945,-3.3689065 -7.554687,-7.5410156 0.01234,-0.11173078 0.02704,-0.22265204 0.04492,-0.3359375 L 28.072266,0 h -0.585938 z m 1,1 h 25.953125 c 0.05675,4.6707208 3.852201,8.4550781 8.537109,8.4550781 4.684909,0 8.482309,-3.7843573 8.539063,-8.4550781 H 70 V 70 H 1 Z m 56.066406,31.744141 c -3.557151,0 -6.451172,2.89402 -6.451172,6.451171 0,3.557152 2.893919,6.453126 6.451172,6.453125 3.557253,0 6.451172,-2.895973 6.451172,-6.453125 0,-3.557151 -2.89402,-6.451171 -6.451172,-6.451171 z m -41.277343,0.892578 v 0.5 7.708984 H 7.5800781 v 7.511719 h 8.2089849 v 8.208984 h 7.511718 v -8.208984 h 8.208985 v -7.511719 h -8.208985 v -8.208984 z m 41.277343,0.107422 c 3.016842,0 5.451172,2.43433 5.451172,5.451171 0,3.016842 -2.434431,5.453126 -5.451172,5.453125 -3.01674,0 -5.451172,-2.436283 -5.451172,-5.453125 0,-3.016841 2.43433,-5.451171 5.451172,-5.451171 z m -40.277344,0.892578 h 5.511719 v 8.208984 h 8.208985 v 5.511719 h -8.208985 v 8.208984 H 16.789062 V 48.357422 H 8.5800781 v -5.511719 h 8.2089839 z m 29.603516,10.896484 c -3.557253,0 -6.451172,2.89402 -6.451172,6.451172 0,3.557152 2.894021,6.451172 6.451172,6.451172 3.557152,0 6.453125,-2.893919 6.453125,-6.451172 0,-3.557253 -2.895872,-6.451172 -6.453125,-6.451172 z m 0,1 c 3.016741,0 5.453125,2.434432 5.453125,5.451172 0,3.01674 -2.436283,5.451172 -5.453125,5.451172 -3.016842,0 -5.451172,-2.43433 -5.451172,-5.451172 0,-3.016842 2.434432,-5.451172 5.451172,-5.451172 z"
     id="rect885" />
</svg>
