<?xml version="1.0" encoding="UTF-8" standalone="no"?>
<svg
   viewBox="-382.3 255.5 140.93573 201"
   version="1.1"
   id="svg146"
   sodipodi:docname="wii_controller.svg"
   width="140.93573"
   height="201"
   inkscape:version="1.1.2 (0a00cf5339, 2022-02-04)"
   xmlns:inkscape="http://www.inkscape.org/namespaces/inkscape"
   xmlns:sodipodi="http://sodipodi.sourceforge.net/DTD/sodipodi-0.dtd"
   xmlns="http://www.w3.org/2000/svg"
   xmlns:svg="http://www.w3.org/2000/svg">
  <defs
     id="defs150" />
  <sodipodi:namedview
     id="namedview148"
     pagecolor="#ffffff"
     bordercolor="#666666"
     borderopacity="1.0"
     inkscape:pageshadow="2"
     inkscape:pageopacity="0.0"
     inkscape:pagecheckerboard="true"
     showgrid="false"
     fit-margin-top="0"
     fit-margin-left="0"
     fit-margin-right="0"
     fit-margin-bottom="0"
     inkscape:zoom="2.9062089"
     inkscape:cx="3.2688635"
     inkscape:cy="134.53954"
     inkscape:window-width="2560"
     inkscape:window-height="1440"
     inkscape:window-x="1920"
     inkscape:window-y="0"
     inkscape:window-maximized="1"
     inkscape:current-layer="svg146" />
  <path
     style="color:#000000;fill:#ffffff;-inkscape-stroke:none"
     d="m -292.21974,255.5 c -3.81276,0 -6.88281,3.07005 -6.88281,6.88281 v 187.23438 c 0,3.81276 3.07005,6.88281 6.88281,6.88281 h 43.9707 c 3.81277,0 6.88477,-3.07005 6.88477,-6.88281 V 262.38281 c 0,-3.81276 -3.072,-6.88281 -6.88477,-6.88281 z m 0,1.70898 h 43.9707 c 2.84784,0 5.17383,2.32599 5.17383,5.17383 v 187.23438 c 0,2.84784 -2.32599,5.17383 -5.17383,5.17383 h -43.9707 c -2.84783,0 -5.17383,-2.32599 -5.17383,-5.17383 V 262.38281 c 0,-2.84784 2.326,-5.17383 5.17383,-5.17383 z"
     id="path2" />
  <path
     style="color:#000000;fill:#ffffff;-inkscape-stroke:none"
     d="m -292.21974,256.20898 c -3.39328,0 -6.17383,2.78054 -6.17383,6.17383 v 187.23438 c 0,3.39329 2.78055,6.17383 6.17383,6.17383 h 43.9707 c 3.3933,0 6.17383,-2.78054 6.17383,-6.17383 V 262.38281 c 0,-3.39329 -2.78053,-6.17383 -6.17383,-6.17383 z m 0,1 h 43.9707 c 2.84784,0 5.17383,2.32599 5.17383,5.17383 v 187.23438 c 0,2.84784 -2.32599,5.17383 -5.17383,5.17383 h -43.9707 c -2.84783,0 -5.17383,-2.32599 -5.17383,-5.17383 V 262.38281 c 0,-2.84784 2.326,-5.17383 5.17383,-5.17383 z m 21.13477,18.64649 c -0.53795,0 -1.00365,0.31406 -1.28516,0.73633 -0.28151,0.42226 -0.41992,0.95536 -0.41992,1.53515 v 7.65625 h -7.65625 c -0.59169,0 -1.12971,0.16479 -1.54492,0.45313 -0.41522,0.28834 -0.72852,0.73105 -0.72852,1.2539 v 4.60938 c 0,0.53794 0.31406,1.00365 0.73633,1.28516 0.42226,0.2815 0.95732,0.41992 1.53711,0.41992 h 7.65625 v 7.65625 c 0,0.59169 0.16478,1.12971 0.45312,1.54492 0.28834,0.41521 0.7291,0.72852 1.25196,0.72851 h 4.60937 c 0.53794,0 1.00364,-0.31406 1.28516,-0.73632 0.28151,-0.42227 0.42187,-0.95732 0.42187,-1.53711 v -7.65625 h 7.6543 c 0.59169,0 1.12971,-0.16479 1.54492,-0.45313 0.41521,-0.28834 0.72852,-0.7291 0.72852,-1.25195 v -4.60938 c 0,-0.53794 -0.31407,-1.00364 -0.73633,-1.28515 -0.42227,-0.28151 -0.95733,-0.42188 -1.53711,-0.42188 h -7.6543 v -7.65625 c 0,-0.59169 -0.16478,-1.12776 -0.45312,-1.54297 -0.28835,-0.41521 -0.73106,-0.72851 -1.25391,-0.72851 z m 0,1 h 4.60937 c 0.11545,0 0.27672,0.0757 0.43164,0.29883 0.15492,0.22308 0.27539,0.57144 0.27539,0.97265 v 8.65625 h 8.6543 c 0.41312,0 0.76639,0.10989 0.98242,0.25391 0.21603,0.14402 0.29102,0.28185 0.29102,0.45312 v 4.60938 c 0,0.11544 -0.0757,0.27672 -0.29883,0.43164 -0.22309,0.15492 -0.5734,0.27344 -0.97461,0.27344 h -8.6543 v 8.65625 c 0,0.41312 -0.10988,0.76639 -0.2539,0.98242 -0.14403,0.21603 -0.28185,0.29102 -0.45313,0.29101 h -4.60937 c -0.11545,0 -0.27672,-0.0757 -0.43164,-0.29882 -0.15493,-0.22309 -0.27344,-0.5734 -0.27344,-0.97461 v -8.65625 h -8.65625 c -0.41312,0 -0.76639,-0.10793 -0.98242,-0.25196 -0.21604,-0.14402 -0.29102,-0.28185 -0.29102,-0.45312 v -4.60938 c 0,-0.11544 0.0757,-0.27672 0.29883,-0.43164 0.22309,-0.15492 0.5734,-0.27539 0.97461,-0.27539 h 8.65625 v -8.65625 c 0,-0.41312 0.10793,-0.76443 0.25195,-0.98047 0.14402,-0.21603 0.28185,-0.29101 0.45313,-0.29101 z m 2.26953,66.87109 c -3.03092,0 -5.46485,2.43393 -5.46485,5.46485 0,3.03091 2.43393,5.46484 5.46485,5.46484 3.03091,0 5.46484,-2.43393 5.46484,-5.46484 0,-3.03092 -2.43393,-5.46485 -5.46484,-5.46485 z m 0,1 c 2.501,0 4.46484,1.96385 4.46484,4.46485 0,2.501 -1.96384,4.46484 -4.46484,4.46484 -2.501,0 -4.46485,-1.96384 -4.46485,-4.46484 0,-2.501 1.96385,-4.46485 4.46485,-4.46485 z"
     id="path4" />
  <path
     style="color:#000000;fill:#ffffff;-inkscape-stroke:none"
     d="m -278.60646,432.5918 v 4.54687 h 4.54688 v -4.04687 h -0.5 v -0.5 z m 12.19922,0 v 4.54687 h 4.54492 v -4.04687 h -0.5 v -0.5 z m 12.12695,0 v 4.54687 h 4.54688 v -4.04687 h -0.5 v -0.5 z m -23.32617,1 h 2.54688 v 2.54687 h -2.54688 z m 12.19922,0 h 2.54492 v 2.54687 h -2.54492 z m 12.12695,0 h 2.54688 v 2.54687 h -2.54688 z"
     id="path6" />
  <path
     style="color:#000000;fill:#ffffff;-inkscape-stroke:none"
     d="m -290.73341,432.5918 v 4.54687 h 4.54492 v -4.04687 h -0.5 v -0.5 z m 1,1 h 2.54492 v 2.54687 h -2.54492 z"
     id="path8" />
  <path
     style="color:#000000;fill:#ffffff;-inkscape-stroke:none"
     d="m -263.49708,379.1875 c -0.85776,0 -1.5625,0.7067 -1.5625,1.56445 0,0.85776 0.70474,1.56446 1.5625,1.56446 0.85775,0 1.56445,-0.7067 1.56445,-1.56446 0,-0.85775 -0.7067,-1.56445 -1.56445,-1.56445 z m 0,1 c 0.31731,0 0.56445,0.24714 0.56445,0.56445 0,0.31732 -0.24714,0.56446 -0.56445,0.56446 -0.31732,0 -0.5625,-0.24714 -0.5625,-0.56446 0,-0.31731 0.24518,-0.56445 0.5625,-0.56445 z"
     id="circle10" />
  <path
     style="color:#000000;fill:#ffffff;-inkscape-stroke:none"
     d="m -268.81544,379.1875 c -0.85776,0 -1.56446,0.7067 -1.56446,1.56445 0,0.85776 0.7067,1.56446 1.56446,1.56446 0.85775,0 1.56445,-0.7067 1.56445,-1.56446 0,-0.85775 -0.7067,-1.56445 -1.56445,-1.56445 z m 0,1 c 0.31731,0 0.56445,0.24714 0.56445,0.56445 0,0.31732 -0.24714,0.56446 -0.56445,0.56446 -0.31732,0 -0.56446,-0.24714 -0.56446,-0.56446 0,-0.31731 0.24714,-0.56445 0.56446,-0.56445 z"
     id="circle12" />
  <path
     style="color:#000000;fill:#ffffff;-inkscape-stroke:none"
     d="m -274.1338,379.1875 c -0.85776,0 -1.56446,0.7067 -1.56446,1.56445 0,0.85776 0.7067,1.56446 1.56446,1.56446 0.85775,0 1.5625,-0.7067 1.5625,-1.56446 0,-0.85775 -0.70475,-1.56445 -1.5625,-1.56445 z m 0,1 c 0.31731,0 0.5625,0.24714 0.5625,0.56445 0,0.31732 -0.24519,0.56446 -0.5625,0.56446 -0.31732,0 -0.56446,-0.24714 -0.56446,-0.56446 0,-0.31731 0.24714,-0.56445 0.56446,-0.56445 z"
     id="circle14" />
  <path
     style="color:#000000;fill:#ffffff;-inkscape-stroke:none"
     d="m -263.49708,374.93359 c -0.85776,0 -1.5625,0.70475 -1.5625,1.5625 0,0.85776 0.70474,1.56446 1.5625,1.56446 0.85775,0 1.56445,-0.7067 1.56445,-1.56446 0,-0.85775 -0.7067,-1.5625 -1.56445,-1.5625 z m 0,1 c 0.31731,0 0.56445,0.24519 0.56445,0.5625 0,0.31732 -0.24714,0.56446 -0.56445,0.56446 -0.31732,0 -0.5625,-0.24714 -0.5625,-0.56446 0,-0.31731 0.24518,-0.5625 0.5625,-0.5625 z"
     id="circle16" />
  <path
     style="color:#000000;fill:#ffffff;-inkscape-stroke:none"
     d="m -268.81544,374.93359 c -0.85776,0 -1.56446,0.70475 -1.56446,1.5625 0,0.85776 0.7067,1.56446 1.56446,1.56446 0.85775,0 1.56445,-0.7067 1.56445,-1.56446 0,-0.85775 -0.7067,-1.5625 -1.56445,-1.5625 z m 0,1 c 0.31731,0 0.56445,0.24519 0.56445,0.5625 0,0.31732 -0.24714,0.56446 -0.56445,0.56446 -0.31732,0 -0.56446,-0.24714 -0.56446,-0.56446 0,-0.31731 0.24714,-0.5625 0.56446,-0.5625 z"
     id="circle18" />
  <path
     style="color:#000000;fill:#ffffff;-inkscape-stroke:none"
     d="m -274.1338,374.93359 c -0.85776,0 -1.56446,0.70475 -1.56446,1.5625 0,0.85776 0.7067,1.56446 1.56446,1.56446 0.85775,0 1.5625,-0.7067 1.5625,-1.56446 0,-0.85775 -0.70475,-1.5625 -1.5625,-1.5625 z m 0,1 c 0.31731,0 0.5625,0.24519 0.5625,0.5625 0,0.31732 -0.24519,0.56446 -0.5625,0.56446 -0.31732,0 -0.56446,-0.24714 -0.56446,-0.56446 0,-0.31731 0.24714,-0.5625 0.56446,-0.5625 z"
     id="circle20" />
  <path
     style="color:#000000;fill:#ffffff;-inkscape-stroke:none"
     d="m -263.49708,371.03125 c -0.66191,0 -1.20899,0.54707 -1.20899,1.20898 0,0.66192 0.54708,1.21094 1.20899,1.21094 0.66191,0 1.21093,-0.54902 1.21093,-1.21094 0,-0.66191 -0.54902,-1.20898 -1.21093,-1.20898 z m 0,1 c 0.12147,0 0.21093,0.0875 0.21093,0.20898 0,0.12148 -0.0895,0.21094 -0.21093,0.21094 -0.12147,0 -0.20899,-0.0895 -0.20899,-0.21094 0,-0.12147 0.0875,-0.20898 0.20899,-0.20898 z"
     id="circle22" />
  <path
     style="color:#000000;fill:#ffffff;-inkscape-stroke:none"
     d="m -268.81544,371.03125 c -0.66191,0 -1.20899,0.54707 -1.20899,1.20898 0,0.66192 0.54708,1.21094 1.20899,1.21094 0.66191,0 1.20898,-0.54902 1.20898,-1.21094 0,-0.66191 -0.54707,-1.20898 -1.20898,-1.20898 z m 0,1 c 0.12147,0 0.20898,0.0875 0.20898,0.20898 0,0.12148 -0.0875,0.21094 -0.20898,0.21094 -0.12147,0 -0.20899,-0.0895 -0.20899,-0.21094 0,-0.12147 0.0875,-0.20898 0.20899,-0.20898 z"
     id="circle24" />
  <path
     style="color:#000000;fill:#ffffff;-inkscape-stroke:none"
     d="m -274.1338,371.03125 c -0.66191,0 -1.21094,0.54707 -1.21094,1.20898 0,0.66192 0.54903,1.21094 1.21094,1.21094 0.66191,0 1.20898,-0.54902 1.20898,-1.21094 0,-0.66191 -0.54707,-1.20898 -1.20898,-1.20898 z m 0,1 c 0.12147,0 0.20898,0.0875 0.20898,0.20898 0,0.12148 -0.0875,0.21094 -0.20898,0.21094 -0.12147,0 -0.21094,-0.0895 -0.21094,-0.21094 0,-0.12147 0.0895,-0.20898 0.21094,-0.20898 z"
     id="circle26" />
  <path
     style="color:#000000;fill:#ffffff;-inkscape-stroke:none"
     d="m -263.49708,367.13086 c -0.46607,0 -0.85352,0.3894 -0.85352,0.85547 0,0.46606 0.38745,0.85351 0.85352,0.85351 0.46606,0 0.85547,-0.38745 0.85547,-0.85351 0,-0.46607 -0.38941,-0.85547 -0.85547,-0.85547 z m 0,0.70898 c 0.0744,0 0.14648,0.0721 0.14648,0.14649 0,0.0744 -0.0721,0.14453 -0.14648,0.14453 -0.0744,0 -0.14453,-0.0702 -0.14453,-0.14453 0,-0.0744 0.0702,-0.14649 0.14453,-0.14649 z"
     id="circle28" />
  <path
     style="color:#000000;fill:#ffffff;-inkscape-stroke:none"
     d="m -268.81544,367.13086 c -0.46607,0 -0.85547,0.3894 -0.85547,0.85547 0,0.46606 0.3894,0.85351 0.85547,0.85351 0.46606,0 0.85547,-0.38745 0.85547,-0.85351 0,-0.46607 -0.38941,-0.85547 -0.85547,-0.85547 z m 0,0.70898 c 0.0744,0 0.14453,0.0721 0.14453,0.14649 0,0.0744 -0.0702,0.14453 -0.14453,0.14453 -0.0744,0 -0.14453,-0.0702 -0.14453,-0.14453 0,-0.0744 0.0702,-0.14649 0.14453,-0.14649 z"
     id="circle30" />
  <path
     style="color:#000000;fill:#ffffff;-inkscape-stroke:none"
     d="m -274.1338,367.13086 c -0.46607,0 -0.85547,0.3894 -0.85547,0.85547 0,0.46606 0.3894,0.85351 0.85547,0.85351 0.46606,0 0.85351,-0.38745 0.85351,-0.85351 0,-0.46607 -0.38745,-0.85547 -0.85351,-0.85547 z m 0,0.70898 c 0.0744,0 0.14453,0.0721 0.14453,0.14649 0,0.0744 -0.0702,0.14453 -0.14453,0.14453 -0.0744,0 -0.14649,-0.0702 -0.14649,-0.14453 0,-0.0744 0.0721,-0.14649 0.14649,-0.14649 z"
     id="circle32" />
  <path
     style="color:#000000;fill:#ffffff;-inkscape-stroke:none"
     d="m -263.49708,388.4082 c -0.46607,0 -0.85352,0.38745 -0.85352,0.85352 0,0.46606 0.38745,0.85547 0.85352,0.85547 0.46606,0 0.85547,-0.38941 0.85547,-0.85547 0,-0.46607 -0.38941,-0.85352 -0.85547,-0.85352 z m 0,0.70899 c 0.0744,0 0.14648,0.0702 0.14648,0.14453 0,0.0744 -0.0721,0.14648 -0.14648,0.14648 -0.0744,0 -0.14453,-0.0721 -0.14453,-0.14648 0,-0.0744 0.0702,-0.14453 0.14453,-0.14453 z"
     id="circle34" />
  <path
     style="color:#000000;fill:#ffffff;-inkscape-stroke:none"
     d="m -268.81544,388.4082 c -0.46607,0 -0.85547,0.38745 -0.85547,0.85352 0,0.46606 0.3894,0.85547 0.85547,0.85547 0.46606,0 0.85547,-0.38941 0.85547,-0.85547 0,-0.46607 -0.38941,-0.85352 -0.85547,-0.85352 z m 0,0.70899 c 0.0744,0 0.14453,0.0702 0.14453,0.14453 0,0.0744 -0.0702,0.14648 -0.14453,0.14648 -0.0744,0 -0.14453,-0.0721 -0.14453,-0.14648 0,-0.0744 0.0702,-0.14453 0.14453,-0.14453 z"
     id="circle36" />
  <path
     style="color:#000000;fill:#ffffff;-inkscape-stroke:none"
     d="m -274.1338,388.4082 c -0.46607,0 -0.85547,0.38745 -0.85547,0.85352 0,0.46606 0.3894,0.85547 0.85547,0.85547 0.46606,0 0.85351,-0.38941 0.85351,-0.85547 0,-0.46607 -0.38745,-0.85352 -0.85351,-0.85352 z m 0,0.70899 c 0.0744,0 0.14453,0.0702 0.14453,0.14453 0,0.0744 -0.0702,0.14648 -0.14453,0.14648 -0.0744,0 -0.14649,-0.0721 -0.14649,-0.14648 0,-0.0744 0.0721,-0.14453 0.14649,-0.14453 z"
     id="circle38" />
  <path
     style="color:#000000;fill:#ffffff;-inkscape-stroke:none"
     d="m -263.49708,383.79883 c -0.66191,0 -1.20899,0.54707 -1.20899,1.20898 0,0.66191 0.54708,1.20899 1.20899,1.20899 0.66191,0 1.21093,-0.54708 1.21093,-1.20899 0,-0.66191 -0.54902,-1.20898 -1.21093,-1.20898 z m 0,1 c 0.12147,0 0.21093,0.0875 0.21093,0.20898 0,0.12147 -0.0895,0.20899 -0.21093,0.20899 -0.12147,0 -0.20899,-0.0875 -0.20899,-0.20899 0,-0.12147 0.0875,-0.20898 0.20899,-0.20898 z"
     id="circle40" />
  <path
     style="color:#000000;fill:#ffffff;-inkscape-stroke:none"
     d="m -268.81544,383.79883 c -0.66191,0 -1.20899,0.54707 -1.20899,1.20898 0,0.66191 0.54708,1.20899 1.20899,1.20899 0.66191,0 1.20898,-0.54708 1.20898,-1.20899 0,-0.66191 -0.54707,-1.20898 -1.20898,-1.20898 z m 0,1 c 0.12147,0 0.20898,0.0875 0.20898,0.20898 0,0.12147 -0.0875,0.20899 -0.20898,0.20899 -0.12147,0 -0.20899,-0.0875 -0.20899,-0.20899 0,-0.12147 0.0875,-0.20898 0.20899,-0.20898 z"
     id="circle42" />
  <path
     style="color:#000000;fill:#ffffff;-inkscape-stroke:none"
     d="m -274.1338,383.79883 c -0.66191,0 -1.21094,0.54707 -1.21094,1.20898 0,0.66191 0.54903,1.20899 1.21094,1.20899 0.66191,0 1.20898,-0.54708 1.20898,-1.20899 0,-0.66191 -0.54707,-1.20898 -1.20898,-1.20898 z m 0,1 c 0.12147,0 0.20898,0.0875 0.20898,0.20898 0,0.12147 -0.0875,0.20899 -0.20898,0.20899 -0.12147,0 -0.21094,-0.0875 -0.21094,-0.20899 0,-0.12147 0.0895,-0.20898 0.21094,-0.20898 z"
     id="circle44" />
  <path
     style="color:#000000;fill:#ffffff;-inkscape-stroke:none"
     d="m -271.08497,275.85547 c -0.52286,0 -0.96362,0.3133 -1.25196,0.72851 -0.28834,0.41521 -0.45312,0.95128 -0.45312,1.54297 v 7.65625 h -7.65625 c -0.57979,0 -1.11485,0.14037 -1.53711,0.42188 -0.42227,0.28151 -0.73633,0.74721 -0.73633,1.28515 v 4.60938 c 0,0.52285 0.3133,0.96361 0.72852,1.25195 0.41521,0.28834 0.95323,0.45313 1.54492,0.45313 h 7.65625 v 7.65625 c 0,0.57979 0.13841,1.11484 0.41992,1.53711 0.28151,0.42226 0.74721,0.73633 1.28516,0.73632 h 4.60937 c 0.52285,0 0.96556,-0.3133 1.25391,-0.72851 0.28834,-0.41521 0.45312,-0.95323 0.45312,-1.54492 v -7.65625 h 7.6543 c 0.57978,0 1.11484,-0.13842 1.53711,-0.41992 0.42226,-0.28151 0.73633,-0.74722 0.73633,-1.28516 v -4.60938 c 0,-0.52285 -0.31331,-0.96556 -0.72852,-1.2539 -0.41521,-0.28834 -0.95323,-0.45313 -1.54492,-0.45313 h -7.6543 v -7.67383 l -0.002,-0.0176 c -0.0407,-0.56988 -0.19825,-1.0884 -0.47266,-1.5 -0.2744,-0.4116 -0.70957,-0.73633 -1.23242,-0.73633 z m 0,1.2832 h 4.60937 c 0.034,0 0.11812,0.0252 0.22461,0.19336 0.10649,0.16814 0.19727,0.45273 0.19727,0.79492 v 8.93946 h 8.93945 c 0.3422,0 0.62873,0.0908 0.79687,0.19726 0.16815,0.10649 0.19336,0.19263 0.19336,0.22656 v 4.60938 c 0,0.0339 -0.0252,0.11812 -0.19336,0.22461 -0.16814,0.10649 -0.45468,0.19726 -0.79687,0.19726 h -8.93945 v 8.93946 c 0,0.3422 -0.0908,0.62873 -0.19727,0.79687 -0.10649,0.16814 -0.19066,0.19336 -0.22461,0.19336 h -4.60937 c -0.034,0 -0.11812,-0.0252 -0.22461,-0.19336 -0.10649,-0.16814 -0.19727,-0.45467 -0.19727,-0.79687 v -8.93946 h -8.93945 c -0.3422,0 -0.62873,-0.0908 -0.79688,-0.19726 -0.16814,-0.10649 -0.19336,-0.19067 -0.19336,-0.22461 v -4.60938 c 0,-0.0339 0.0252,-0.12007 0.19336,-0.22656 0.16815,-0.10649 0.45468,-0.19726 0.79688,-0.19726 h 8.93945 v -8.93946 c 0,-0.34219 0.0908,-0.62678 0.19727,-0.79492 0.10649,-0.16814 0.19066,-0.19336 0.22461,-0.19336 z"
     id="path46" />
  <path
     style="color:#000000;fill:#ffffff;-inkscape-stroke:none"
     d="m -271.08497,276.13867 c -0.46252,0 -0.83993,0.29443 -1.07032,0.6582 -0.23039,0.36378 -0.35156,0.82122 -0.35156,1.33008 v 7.93946 h -7.93945 c -0.50887,0 -0.96826,0.12313 -1.33203,0.35351 -0.36377,0.23039 -0.65821,0.6078 -0.65821,1.07031 v 4.60938 c 0,0.46251 0.29444,0.83797 0.65821,1.06836 0.36377,0.23039 0.82316,0.35351 1.33203,0.35351 h 7.93945 v 7.93946 c 0,0.50886 0.12117,0.96826 0.35156,1.33203 0.23039,0.36377 0.60781,0.6582 1.07032,0.6582 h 4.60937 c 0.46251,0 0.83992,-0.29443 1.07031,-0.6582 0.23039,-0.36377 0.35157,-0.82317 0.35157,-1.33203 v -7.93946 h 7.93945 c 0.50886,0 0.96826,-0.12312 1.33203,-0.35351 0.36377,-0.23039 0.6582,-0.60585 0.6582,-1.06836 v -4.60938 c 0,-0.46251 -0.29443,-0.83992 -0.6582,-1.07031 -0.36377,-0.23038 -0.82317,-0.35351 -1.33203,-0.35351 h -7.93945 v -7.95899 l -0.002,-0.0215 c -0.0403,-0.48396 -0.15407,-0.92087 -0.36914,-1.2793 -0.21506,-0.35843 -0.58827,-0.66797 -1.05078,-0.66797 z m 0,1 h 4.60937 c 0.034,0 0.0893,0.008 0.19336,0.18164 0.10314,0.1719 0.19701,0.47914 0.22852,0.8418 v 8.9043 h 8.93945 c 0.3422,0 0.62873,0.0908 0.79687,0.19726 0.16815,0.10649 0.19336,0.19263 0.19336,0.22656 v 4.60938 c 0,0.0339 -0.0252,0.11812 -0.19336,0.22461 -0.16814,0.10649 -0.45468,0.19726 -0.79687,0.19726 h -8.93945 v 8.93946 c 0,0.3422 -0.0908,0.62873 -0.19727,0.79687 -0.10649,0.16814 -0.19066,0.19336 -0.22461,0.19336 h -4.60937 c -0.034,0 -0.11812,-0.0252 -0.22461,-0.19336 -0.10649,-0.16814 -0.19727,-0.45467 -0.19727,-0.79687 v -8.93946 h -8.93945 c -0.3422,0 -0.62873,-0.0908 -0.79688,-0.19726 -0.16814,-0.10649 -0.19336,-0.19067 -0.19336,-0.22461 v -4.60938 c 0,-0.0339 0.0252,-0.12007 0.19336,-0.22656 0.16815,-0.10649 0.45468,-0.19726 0.79688,-0.19726 h 8.93945 v -8.93946 c 0,-0.34219 0.0908,-0.62678 0.19727,-0.79492 0.10649,-0.16814 0.19066,-0.19336 0.22461,-0.19336 z"
     id="path48" />
  <path
     style="color:#000000;fill:#ffffff;-inkscape-stroke:none"
     d="m -269.67091,278.125 v 0.5 5.39258 h 1.71094 V 278.125 Z m -10.56641,10.84961 v 0.5 1.20898 h 5.89258 v -1.70898 z m 16.95117,0 v 0.5 1.20898 h 5.89258 v -1.70898 z m -6.38476,6.5957 v 0.5 5.39453 h 1.71094 v -5.89453 z"
     id="path50" />
  <path
     style="color:#000000;fill:#ffffff;-inkscape-stroke:none"
     d="m -284.98536,262.23828 c -3.03092,0 -5.46485,2.43198 -5.46485,5.46289 0,3.03092 2.43393,5.46485 5.46485,5.46485 3.0309,0 5.46484,-2.43393 5.46484,-5.46485 0,-3.03091 -2.43394,-5.46289 -5.46484,-5.46289 z m 0,1 c 2.50098,0 4.46484,1.96189 4.46484,4.46289 0,2.501 -1.96386,4.46485 -4.46484,4.46485 -2.50101,0 -4.46485,-1.96385 -4.46485,-4.46485 0,-2.501 1.96384,-4.46289 4.46485,-4.46289 z"
     id="path52" />
  <path
     style="color:#000000;fill:#ffffff;-inkscape-stroke:none"
     d="m -284.98536,262.37891 c -2.89455,0 -5.25196,2.3574 -5.25196,5.25195 0,2.89455 2.35741,5.25195 5.25196,5.25195 2.89454,0 5.25195,-2.3574 5.25195,-5.25195 0,-2.89455 -2.35741,-5.25195 -5.25195,-5.25195 z m 0,1 c 2.3541,0 4.25195,1.89784 4.25195,4.25195 0,2.35411 -1.89785,4.25195 -4.25195,4.25195 -2.35411,0 -4.25196,-1.89784 -4.25196,-4.25195 0,-2.35411 1.89785,-4.25195 4.25196,-4.25195 z"
     id="circle54" />
  <path
     style="color:#000000;fill:#ffffff;-inkscape-stroke:none"
     d="m -284.98536,265.42969 c -1.53586,0 -2.76954,1.23368 -2.76954,2.76953 0,1.53586 1.23368,2.76953 2.76954,2.76953 1.53584,0 2.76953,-1.23367 2.76953,-2.76953 0,-1.53585 -1.23369,-2.76953 -2.76953,-2.76953 z m 0,1.70898 c 0.57328,0 1.06054,0.48727 1.06054,1.06055 0,0.57329 -0.48726,1.06055 -1.06054,1.06055 -0.5733,0 -1.06055,-0.48726 -1.06055,-1.06055 0,-0.57328 0.48725,-1.06055 1.06055,-1.06055 z"
     id="path56" />
  <path
     style="color:#000000;fill:#ffffff;-inkscape-stroke:none"
     d="m -286.26661,264.22266 v 0.5 4.68554 h 2.56054 v -5.18554 z m 1,1 h 0.56054 v 3.18554 h -0.56054 z"
     id="path58" />
  <path
     style="color:#000000;fill:#ffffff;-inkscape-stroke:none"
     d="m -285.84083,264.50781 v 0.5 3.97461 h 1.70898 v -4.47461 z"
     id="path60" />
  <path
     style="color:#000000;fill:#ffffff;-inkscape-stroke:none"
     d="m -268.81544,311.03125 c -5.45128,0 -9.86133,4.48688 -9.86133,9.93359 0,5.4467 4.41005,9.93164 9.86133,9.93164 5.45126,0 9.86133,-4.48493 9.86133,-9.93164 0,-5.44671 -4.41007,-9.93359 -9.86133,-9.93359 z m 0,1 c 4.90332,0 8.86133,4.02569 8.86133,8.93359 0,4.90789 -3.95801,8.93164 -8.86133,8.93164 -4.90334,0 -8.86133,-4.02375 -8.86133,-8.93164 0,-4.9079 3.95799,-8.93359 8.86133,-8.93359 z"
     id="path62" />
  <path
     style="color:#000000;fill:#ffffff;-inkscape-stroke:none"
     d="m -268.81544,311.24414 c -5.32513,0 -9.64844,4.36058 -9.64844,9.7207 0,5.36013 4.32331,9.71875 9.64844,9.71875 5.32512,0 9.64843,-4.35862 9.64843,-9.71875 0,-5.36012 -4.32331,-9.7207 -9.64843,-9.7207 z m 0,1 c 4.7805,0 8.64843,3.89686 8.64843,8.7207 0,4.82384 -3.86793,8.71875 -8.64843,8.71875 -4.7805,0 -8.64844,-3.89491 -8.64844,-8.71875 0,-4.82384 3.86794,-8.7207 8.64844,-8.7207 z"
     id="ellipse64" />
  <path
     style="color:#000000;fill:#ffffff;-inkscape-stroke:none"
     d="m -269.64357,316.99023 -3.30078,7.85547 1.91406,0.82032 2.21485,-5.31836 2.02148,4.85156 0.92188,-0.38477 -2.84375,-6.82422 h 0.0644 l 2.84961,6.78516 0.92187,-0.38672 -3.10742,-7.39844 z m 0.66406,1 h 0.0645 l -2.65039,6.35938 -0.0723,-0.0312 z"
     id="path66" />
  <path
     style="color:#000000;fill:#ffffff;-inkscape-stroke:none"
     d="m -271.15919,321.10352 v 0.5 1.5625 h 4.6875 v -2.0625 z m 1,1 h 2.6875 v 0.0625 h -2.6875 z"
     id="path68" />
  <path
     style="color:#000000;fill:#ffffff;-inkscape-stroke:none"
     d="m -268.81544,343.72656 c -3.03092,0 -5.46485,2.43393 -5.46485,5.46485 0,3.03091 2.43393,5.46484 5.46485,5.46484 3.03091,0 5.46484,-2.43393 5.46484,-5.46484 0,-3.03092 -2.43393,-5.46485 -5.46484,-5.46485 z m 0,1 c 2.501,0 4.46484,1.96385 4.46484,4.46485 0,2.501 -1.96384,4.46484 -4.46484,4.46484 -2.501,0 -4.46485,-1.96384 -4.46485,-4.46484 0,-2.501 1.96385,-4.46485 4.46485,-4.46485 z"
     id="path70" />
  <path
     style="color:#000000;fill:#ffffff;-inkscape-stroke:none"
     d="m -268.81544,343.93945 c -2.89438,0 -5.25196,2.35758 -5.25196,5.25196 0,2.89437 2.35758,5.25195 5.25196,5.25195 2.89437,0 5.25195,-2.35758 5.25195,-5.25195 0,-2.89438 -2.35758,-5.25196 -5.25195,-5.25196 z m 0,1 c 2.35383,0 4.25195,1.89812 4.25195,4.25196 0,2.35383 -1.89812,4.25195 -4.25195,4.25195 -2.35384,0 -4.25196,-1.89812 -4.25196,-4.25195 0,-2.35384 1.89812,-4.25196 4.25196,-4.25196 z"
     id="path72" />
  <path
     style="color:#000000;fill:#ffffff;-inkscape-stroke:none"
     d="m -268.81544,346.20508 -4.09961,3.34375 h 1.61328 v 1.98242 h 0.5 v 0.5 h 4.33008 v -2.48242 h 1.75586 z m 0,1.29101 1.34375,1.09571 v 2.43945 h -2.83008 v -2.32227 z"
     id="path74" />
  <path
     style="color:#000000;fill:#ffffff;-inkscape-stroke:none"
     d="m -270.09474,349.04687 v 1.99219 h 2.55859 v -1.49219 h -0.5 v -0.5 z"
     id="path76" />
  <path
     style="color:#000000;fill:#ffffff;-inkscape-stroke:none"
     d="m -283.49708,343.72656 c -3.03092,0 -5.46289,2.43393 -5.46289,5.46485 0,3.03091 2.43197,5.46484 5.46289,5.46484 2.96695,0 5.46484,-2.42538 5.46484,-5.46484 0,-3.03092 -2.43393,-5.46485 -5.46484,-5.46485 z m 0,1 c 2.501,0 4.46484,1.96385 4.46484,4.46485 0,2.49245 -2.04175,4.46484 -4.46484,4.46484 -2.501,0 -4.46289,-1.96384 -4.46289,-4.46484 0,-2.501 1.96189,-4.46485 4.46289,-4.46485 z"
     id="path78" />
  <path
     style="color:#000000;fill:#ffffff;-inkscape-stroke:none"
     d="m -283.49708,343.93945 c -2.89455,0 -5.25196,2.35741 -5.25196,5.25196 0,2.89455 2.35741,5.25195 5.25196,5.25195 2.89455,0 5.25195,-2.3574 5.25195,-5.25195 0,-2.89455 -2.3574,-5.25196 -5.25195,-5.25196 z m 0,1 c 2.35411,0 4.25195,1.89785 4.25195,4.25196 0,2.35411 -1.89784,4.25195 -4.25195,4.25195 -2.35411,0 -4.25196,-1.89784 -4.25196,-4.25195 0,-2.35411 1.89785,-4.25196 4.25196,-4.25196 z"
     id="circle80" />
  <path
     style="color:#000000;fill:#ffffff;-inkscape-stroke:none"
     d="m -286.69044,348.33594 v 0.5 1.21093 h 6.38867 v -1.71093 z"
     id="path82" />
  <path
     style="color:#000000;fill:#ffffff;-inkscape-stroke:none"
     d="m -254.1338,343.72656 c -3.03092,0 -5.46485,2.43393 -5.46485,5.46485 0,3.03091 2.43393,5.46484 5.46485,5.46484 3.03091,0 5.46289,-2.43393 5.46289,-5.46484 0,-3.03092 -2.43198,-5.46485 -5.46289,-5.46485 z m 0,1 c 2.501,0 4.46289,1.96385 4.46289,4.46485 0,2.501 -1.96189,4.46484 -4.46289,4.46484 -2.501,0 -4.46485,-1.96384 -4.46485,-4.46484 0,-2.501 1.96385,-4.46485 4.46485,-4.46485 z"
     id="path84" />
  <path
     style="color:#000000;fill:#ffffff;-inkscape-stroke:none"
     d="m -254.1338,343.93945 c -2.89455,0 -5.25196,2.35741 -5.25196,5.25196 0,2.89455 2.35741,5.25195 5.25196,5.25195 2.89455,0 5.25195,-2.3574 5.25195,-5.25195 0,-2.89455 -2.3574,-5.25196 -5.25195,-5.25196 z m 0,1 c 2.35411,0 4.25195,1.89785 4.25195,4.25196 0,2.35411 -1.89784,4.25195 -4.25195,4.25195 -2.35411,0 -4.25196,-1.89784 -4.25196,-4.25195 0,-2.35411 1.89785,-4.25196 4.25196,-4.25196 z"
     id="circle86" />
  <path
     style="color:#000000;fill:#ffffff;-inkscape-stroke:none"
     d="m -254.6338,346.49609 v 1.83985 h -2.69531 v 0.5 1.21093 h 2.69531 v 1.83985 h 1 v -1.83985 h 2.69336 v -1.71093 h -2.69336 v -1.83985 z"
     id="path88" />
  <path
     style="color:#000000;fill:#ffffff;-inkscape-stroke:none"
     d="m -254.98927,345.99609 v 0.5 5.89063 h 1.70898 v -6.39063 z"
     id="path90" />
  <path
     style="color:#000000;fill:#ffffff;-inkscape-stroke:none"
     d="m -268.81544,395.14453 c -4.16738,0 -7.52149,3.35411 -7.52149,7.52149 0,4.16737 3.35412,7.52148 7.52149,7.52148 4.16737,0 7.52148,-3.35411 7.52148,-7.52148 0,-4.16738 -3.35411,-7.52149 -7.52148,-7.52149 z m 0,1 c 3.63404,0 6.52148,2.88745 6.52148,6.52149 0,3.63404 -2.88744,6.52148 -6.52148,6.52148 -3.63404,0 -6.52149,-2.88744 -6.52149,-6.52148 0,-3.63404 2.88745,-6.52149 6.52149,-6.52149 z"
     id="path92" />
  <path
     style="color:#000000;fill:#ffffff;-inkscape-stroke:none"
     d="m -268.81544,395.42969 c -4.03046,0 -7.3086,3.27814 -7.3086,7.30859 0,4.03045 3.27814,7.30859 7.3086,7.30859 4.03045,0 7.30859,-3.27814 7.30859,-7.30859 0,-4.03045 -3.27814,-7.30859 -7.30859,-7.30859 z m 0,1 c 3.49001,0 6.30859,2.81858 6.30859,6.30859 0,3.49001 -2.81858,6.3086 -6.30859,6.30859 -3.49002,0 -6.3086,-2.81858 -6.3086,-6.30859 0,-3.49001 2.81858,-6.30859 6.3086,-6.30859 z"
     id="circle94" />
  <path
     style="color:#000000;fill:#ffffff;-inkscape-stroke:none"
     d="m -268.34669,398.77148 -2.97266,0.59571 0.41211,2.06054 1.0957,-0.25781 v 4.83399 h 1.5625 v -1 h -0.5625 v -5.09571 l -1.3164,0.3086 -0.0137,-0.0664 1.99218,-0.39844 z"
     id="path96" />
  <path
     style="color:#000000;fill:#ffffff;-inkscape-stroke:none"
     d="m -271.01661,404.50781 v 0.5 1.5625 h 4.54492 v -2.0625 z m 1,1 h 2.54492 v 0.0625 h -2.54492 z"
     id="path98" />
  <path
     style="color:#000000;fill:#ffffff;-inkscape-stroke:none"
     d="m -268.81544,414.36523 c -4.16738,0 -7.52149,3.35413 -7.52149,7.52149 0,4.16737 3.35411,7.52148 7.52149,7.52148 4.16737,0 7.52148,-3.35411 7.52148,-7.52148 0,-4.16736 -3.35411,-7.52149 -7.52148,-7.52149 z m 0,1 c 3.63404,0 6.52148,2.88746 6.52148,6.52149 0,3.63404 -2.88744,6.52148 -6.52148,6.52148 -3.63404,0 -6.52149,-2.88744 -6.52149,-6.52148 0,-3.63403 2.88745,-6.52149 6.52149,-6.52149 z"
     id="path100" />
  <path
     style="color:#000000;fill:#ffffff;-inkscape-stroke:none"
     d="m -268.81544,414.57812 c -4.03046,0 -7.3086,3.27815 -7.3086,7.3086 0,4.03045 3.27814,7.30859 7.3086,7.30859 4.03045,0 7.30859,-3.27814 7.30859,-7.30859 0,-4.03045 -3.27814,-7.30859 -7.30859,-7.3086 z m 0,1 c 3.49001,0 6.30859,2.81859 6.30859,6.3086 0,3.49001 -2.81858,6.30859 -6.30859,6.30859 -3.49002,0 -6.3086,-2.81858 -6.3086,-6.30859 0,-3.49001 2.81858,-6.3086 6.3086,-6.3086 z"
     id="circle102" />
  <path
     style="color:#000000;fill:#ffffff;-inkscape-stroke:none"
     d="m -268.72755,418.17969 c -0.78794,-0.0337 -1.69482,0.23536 -2.58399,0.89258 l -0.40429,0.30078 1.24023,1.65234 0.40039,-0.29883 c 0.50871,-0.38153 0.91399,-0.5095 1.1836,-0.52148 0.26526,-0.0118 0.39504,0.0748 0.46484,0.15625 0.1197,0.15139 0.2002,0.37012 -0.24609,0.8164 l -0.002,0.004 -2.55664,2.625 0.082,-0.0664 c -0.20238,0.13494 -0.35291,0.3658 -0.39258,0.58399 -0.0397,0.21818 10e-4,0.40283 0.0527,0.55664 0.1447,0.43414 0.53767,0.69726 0.97266,0.69726 h 2.9746 0.57032 v -0.92968 l 0.42968,0.42968 v -1.56445 h -1.59765 l 0.82031,-0.85547 -0.0332,0.0312 c 1.24199,-1.07639 1.22292,-2.66701 0.49023,-3.58984 -0.41552,-0.54942 -1.08059,-0.88635 -1.86523,-0.91992 z m -0.0684,0.97656 c 0.52412,0.0195 0.91747,0.25128 1.14062,0.54883 l 0.004,0.006 0.006,0.006 c 0.28981,0.36226 0.28035,0.96368 -0.006,1.5625 0.26759,-0.55948 0.33207,-1.14107 0.006,-1.54883 l -0.002,-0.004 -0.004,-0.004 c -0.28538,-0.34245 -0.75383,-0.5385 -1.28125,-0.51563 0.0385,-8e-4 0.0995,-0.0522 0.13672,-0.0508 z m -0.16992,0.0645 c -0.37547,0.0219 -0.80562,0.26739 -1.23243,0.50782 l -0.0273,-0.0352 c 0.45505,-0.24616 0.90135,-0.46013 1.25977,-0.47266 z m 0.96093,2.70703 c -0.002,0.002 -0.002,0.004 -0.004,0.006 l -0.0176,0.0156 -2.45703,2.56445 h 2.9414 v 0.0645 h -2.9746 c 0.009,0 -0.0263,-0.0223 -0.0234,-0.0137 -0.008,-0.0241 -0.006,-0.0132 -0.008,-0.0254 l 2.52148,-2.58984 z"
     id="path104" />
  <path
     style="color:#000000;fill:#ffffff;-inkscape-stroke:none"
     d="m -275.55568,356.06641 v 0.5 3.62109 h 1.42383 v -4.12109 z m 1.98438,0 v 0.5 3.62109 h 1.42578 v -4.12109 z m -2.56446,83.69921 -2.29882,0.72657 2.85742,10.12109 h 2.10156 l 1.61133,-5.57617 1.50391,5.21484 0.96093,-0.27734 -2.46484,-8.54297 -2.36328,8.18164 h -0.5918 l -2.39062,-8.45898 0.39453,-0.125 2.32617,8.13867 2.36328,-8.27149 h 0.58984 l 2.28711,8.30079 2.33399,-8.16797 0.39453,0.125 -2.49219,8.82422 0.96289,0.27148 2.75586,-9.75781 -2.30078,-0.72657 -1.63672,5.73047 -1.54297,-5.59961 h -2.10547 l -1.60937,5.63282 z m 10.9336,0.20313 v 0.5 1.98828 h 2.41797 v -2.48828 z m 3.47461,0 v 0.5 1.98828 h 2.41992 v -2.48828 z m -2.47461,1 h 0.41797 v 0.48828 h -0.41797 z m 3.47461,0 h 0.41992 v 0.48828 h -0.41992 z m -4.47461,1.69531 v 0.5 7.37891 h 2.41797 v -7.87891 z m 3.47461,0 v 0.5 7.37891 h 2.41992 v -7.87891 z m -2.47461,1 h 0.41797 v 5.87891 h -0.41797 z m 3.47461,0 h 0.41992 v 5.87891 h -0.41992 z"
     id="path106" />
  <path
     style="color:#000000;fill:#ffffff;-inkscape-stroke:none"
     d="m -267.84083,355.93359 -1.11914,0.22461 v 0.67969 c -0.16431,-0.24243 -0.33622,-0.4823 -0.59961,-0.63281 l -0.0137,-0.008 -0.0117,-0.006 c -0.56467,-0.28234 -1.23026,-0.28234 -1.79493,0 l -0.0273,0.0137 -0.0254,0.0176 c -0.58879,0.39252 -0.91755,1.10192 -0.92578,1.87695 v -0.68555 h -2.98633 v 0.5 0.92578 h 2.98633 v -0.68554 c 0.008,0.73337 0.3012,1.43914 0.94336,1.81445 0.31455,0.20464 0.65073,0.29102 0.96875,0.29102 0.30457,0 0.59688,-0.11404 0.86133,-0.2793 0.27439,-0.12558 0.45928,-0.34951 0.625,-0.58399 v 0.79102 h 1.42382 v -0.63867 h 0.49805 l 0.0117,0.0215 0.01,-0.0215 h 0.4121 l 0.0547,-0.0996 v 0.73828 h 0.92578 v -0.57422 l 0.0742,0.0742 v -2.19727 l -0.38672,-0.0996 0.16993,-0.33984 0.0605,0.01 0.16406,-0.98633 -0.78906,-0.13086 -0.72656,1.45312 z m 2.56836,0.0625 v 4.26368 h 2.48632 v -0.42579 -0.57421 -0.42579 h -1.06054 v -1.41211 h 1.56054 v -1.42578 z m -4.41993,0.63868 0.0195,0.0137 c -0.006,-0.004 -0.01,-8e-5 -0.0156,-0.004 -0.003,-0.002 -7.5e-4,-0.008 -0.004,-0.01 z m -0.7539,0.7871 c 0.14185,0 0.0913,-0.0264 0.21875,0.0586 l 0.01,0.006 0.01,0.006 c 0.17807,0.10684 0.32617,0.35343 0.32617,0.70703 0,0.35361 -0.10608,0.50271 -0.32617,0.63476 -0.22851,0.13711 -0.31186,0.12207 -0.43555,0.0293 l -0.0195,-0.0156 -0.0234,-0.0137 c -0.19487,-0.11692 -0.2539,-0.23354 -0.2539,-0.63476 v -0.0312 l -0.004,-0.0312 c -0.0517,-0.41343 0.041,-0.50581 0.25391,-0.63477 0.095,-0.0374 0.26626,-0.0801 0.24414,-0.0801 z m -1.49414,0.77735 c 0,0.008 0.01,0.0131 0.01,0.0215 10e-4,0.0143 -0.008,0.0247 -0.006,0.0391 z m 0.69726,1.46289 c 0.008,0.006 0.0208,-0.006 0.0293,0 0.01,0.006 0.004,0.0233 0.0137,0.0293 z"
     id="path108" />
  <path
     style="color:#000000;fill:#ffffff;-inkscape-stroke:none"
     d="m -284.67677,273.00781 -0.16992,0.57813 h -0.43946 l -0.3125,1.0332 -0.30078,-1.10156 -1.41601,0.23633 0.15039,0.55078 c -0.15856,-0.21736 -0.30867,-0.44369 -0.55078,-0.58203 l -0.0117,-0.008 -0.0137,-0.006 c -0.56467,-0.28233 -1.23026,-0.28233 -1.79493,0 l -0.0273,0.0137 -0.0254,0.0176 c -0.59622,0.39748 -0.93164,1.11786 -0.93164,1.9043 0,0.74362 0.29865,1.46158 0.94922,1.8418 0.31455,0.20464 0.65073,0.29101 0.96875,0.29101 0.14184,0 0.29898,0.006 0.49414,-0.043 0.16116,-0.0403 0.32722,-0.1751 0.46289,-0.32421 0.55549,-0.3129 0.84726,-0.89722 0.90625,-1.54102 l 0.52148,1.9082 h 0.44336 l 0.125,0.45508 0.13867,-0.45508 h 0.47461 l 0.3086,-1.05273 0.27929,1.05273 h 0.44725 l 0.125,0.45508 0.13867,-0.45508 h 0.0996 v -0.33007 l 0.84375,-2.78321 -0.0918,-0.0176 0.0957,-0.47656 v 3.60742 h 2.48437 v -0.42578 -0.57422 -0.42578 h -1.05859 v -1.34179 h 1.55859 v -1.42383 h -2.98437 v 0.0605 l -0.69922,-0.14062 -0.33594,1.11133 -0.28125,-1.03125 h -0.41797 z m -3.92578,1.93164 c 0.0901,0 0.13698,0.0275 0.24219,0.0801 0.1748,0.10909 0.32226,0.34844 0.32226,0.69727 0,0.35361 -0.10608,0.50271 -0.32617,0.63476 -0.22851,0.13711 -0.31186,0.12207 -0.43555,0.0293 l -0.0195,-0.0156 -0.0234,-0.0137 c -0.19487,-0.11692 -0.25195,-0.23354 -0.25195,-0.63476 v -0.0312 l -0.004,-0.0312 c -0.0517,-0.41344 0.0391,-0.50582 0.25196,-0.63477 0.095,-0.0374 0.26626,-0.0801 0.24414,-0.0801 z m -1.49219,0.77735 c 0,0.008 0.01,0.0131 0.01,0.0215 0.002,0.015 -0.008,0.026 -0.006,0.041 z m 0.69531,1.46289 c 0.008,0.006 0.0208,-0.006 0.0293,0 0.01,0.006 0.004,0.0233 0.0137,0.0293 z m 24.41016,80.16406 v 0.5 0.92578 h 2.56055 v -1.42578 z"
     id="path110" />
  <path
     style="color:#000000;fill:#ffffff;-inkscape-stroke:none"
     d="m -292.93263,273.51367 v 4.1211 h 0.92578 0.57031 v -1.20508 h 0.0957 l 0.0273,-0.004 c 0.87263,-0.0969 1.4375,-0.78692 1.4375,-1.49023 0,-0.70331 -0.62382,-1.32901 -1.51367,-1.41797 l -0.0254,-0.004 z m 12.76562,0 v 1.34766 h -2.33984 v 0.5 0.92578 h 2.33984 v 1.34766 h 0.92579 0.57031 v -1.20508 h 0.0957 l 0.0274,-0.004 c 0.87263,-0.0969 1.43749,-0.78692 1.4375,-1.49023 -10e-6,-0.70331 -0.62382,-1.32901 -1.51368,-1.41797 l -0.0254,-0.004 z m -11.33984,1.42578 h 0.0664 c 0.1019,0 0.0906,0.007 0.10156,0.0137 0.008,0.023 0.0478,0.0508 -0.10156,0.0508 h -0.0664 z m 12.76563,0 h 0.0684 c 0.10125,0 0.0883,0.007 0.0996,0.0137 0.008,0.0229 0.0491,0.0508 -0.0996,0.0508 h -0.0684 z"
     id="path112" />
  <path
     style="color:#000000;fill:#ffffff;-inkscape-stroke:none"
     d="m -279.08302,274.91992 -0.23047,1.38281 0.44727,0.11133 c 0.0935,0.0234 0.22503,0.13552 0.32617,0.3125 0.10113,0.17699 0.14648,0.43302 0.14648,0.40821 v 0.5 h 0.42578 0.5 v -0.57422 l 0.0742,0.0742 c 0,-0.082 -0.0608,-0.16143 -0.0742,-0.24024 v -0.25976 l 0.5,0.5 c 0,-0.39109 -0.13441,-0.80702 -0.38672,-1.2129 -0.2523,-0.40587 -0.65411,-0.80536 -1.23046,-0.91015 z"
     id="path114" />
  <path
     style="color:#000000;fill:#ffffff;-inkscape-stroke:none"
     d="m -288.45997,430.18164 c -0.64776,0 -1.28125,0.44878 -1.28125,1.13672 0,0.68794 0.63349,1.13867 1.28125,1.13867 0.64775,0 1.27929,-0.45073 1.27929,-1.13867 0,-0.68794 -0.63154,-1.13672 -1.27929,-1.13672 z m 10.99218,0 c -0.64776,0 -1.28125,0.44878 -1.28125,1.13672 0,0.68794 0.63349,1.13867 1.28125,1.13867 0.52942,0 0.96275,-0.35042 1.13477,-0.83594 0.1722,0.48521 0.60554,0.83594 1.13476,0.83594 0.64776,0 1.2793,-0.45073 1.2793,-1.13867 0,-0.68794 -0.63154,-1.13672 -1.2793,-1.13672 -0.529,0 -0.96234,0.34915 -1.13476,0.83398 -0.17224,-0.48514 -0.60558,-0.83398 -1.13477,-0.83398 z m 10.99219,0 c -0.64775,0 -1.2793,0.44878 -1.2793,1.13672 0,0.68794 0.63155,1.13867 1.2793,1.13867 0.52923,0 0.96256,-0.35073 1.13477,-0.83594 0.17201,0.48552 0.60534,0.83594 1.13476,0.83594 0.52923,0 0.96257,-0.35073 1.13477,-0.83594 0.17201,0.48552 0.60534,0.83594 1.13476,0.83594 0.64776,0 1.28125,-0.45073 1.28125,-1.13867 0,-0.68794 -0.63349,-1.13672 -1.28125,-1.13672 -0.52919,0 -0.96252,0.34884 -1.13476,0.83398 -0.17243,-0.48483 -0.60577,-0.83398 -1.13477,-0.83398 -0.52518,0 -0.95278,0.34553 -1.1289,0.82422 -0.0613,-0.18519 -0.0871,-0.38825 -0.23633,-0.51758 -0.23911,-0.20723 -0.56083,-0.30664 -0.9043,-0.30664 z m 11.06445,0 c -0.64775,0 -1.27929,0.44878 -1.27929,1.13672 0,0.68794 0.63154,1.13867 1.27929,1.13867 0.52943,0 0.96275,-0.35042 1.13477,-0.83594 0.17201,0.48552 0.60535,0.83594 1.13477,0.83594 0.52941,0 0.96275,-0.35042 1.13476,-0.83594 0.17202,0.48552 0.60535,0.83594 1.13477,0.83594 0.52941,0 0.96275,-0.35042 1.13476,-0.83594 0.17202,0.48552 0.60535,0.83594 1.13477,0.83594 0.64776,0 1.27929,-0.45073 1.27929,-1.13867 0,-0.68794 -0.63153,-1.13672 -1.27929,-1.13672 -0.52982,0 -0.96314,0.34979 -1.13477,0.83594 -0.17162,-0.48615 -0.60495,-0.83594 -1.13476,-0.83594 -0.52982,0 -0.96314,0.34979 -1.13477,0.83594 -0.17162,-0.48615 -0.60495,-0.83594 -1.13476,-0.83594 -0.52982,0 -0.96315,0.34979 -1.13477,0.83594 -0.17163,-0.48615 -0.60495,-0.83594 -1.13477,-0.83594 z m -33.04882,1 c 0.2033,0 0.27929,0.11544 0.27929,0.13672 0,0.0213 -0.076,0.13867 -0.27929,0.13867 -0.20331,0 -0.28125,-0.11739 -0.28125,-0.13867 0,-0.0213 0.0779,-0.13672 0.28125,-0.13672 z m 10.99218,0 c 0.20331,0 0.2793,0.11544 0.2793,0.13672 0,0.0213 -0.076,0.13867 -0.2793,0.13867 -0.20332,0 -0.28125,-0.11739 -0.28125,-0.13867 0,-0.0213 0.0779,-0.13672 0.28125,-0.13672 z m 2.26953,0 c 0.20331,0 0.2793,0.11544 0.2793,0.13672 0,0.0213 -0.076,0.13867 -0.2793,0.13867 -0.2033,0 -0.28125,-0.11739 -0.28125,-0.13867 0,-0.0213 0.0779,-0.13672 0.28125,-0.13672 z m 8.72266,0 c 0.15299,0 0.22315,0.0392 0.25,0.0625 0.0268,0.0233 0.0312,0.0302 0.0312,0.0742 0,0.0213 -0.0779,0.13867 -0.28125,0.13867 -0.2033,0 -0.2793,-0.11739 -0.2793,-0.13867 0,-0.0213 0.076,-0.13672 0.2793,-0.13672 z m 2.26953,0 c 0.20331,0 0.28125,0.11544 0.28125,0.13672 0,0.0213 -0.0779,0.13867 -0.28125,0.13867 -0.2033,0 -0.27929,-0.11739 -0.27929,-0.13867 0,-0.0213 0.076,-0.13672 0.27929,-0.13672 z m 2.26953,0 c 0.20331,0 0.28125,0.11544 0.28125,0.13672 0,0.0213 -0.0779,0.13867 -0.28125,0.13867 -0.2033,0 -0.27929,-0.11739 -0.27929,-0.13867 0,-0.0213 0.076,-0.13672 0.27929,-0.13672 z m 6.52539,0 c 0.20332,0 0.2793,0.11544 0.2793,0.13672 0,0.0213 -0.076,0.13867 -0.2793,0.13867 -0.2033,0 -0.27929,-0.11739 -0.27929,-0.13867 0,-0.0213 0.076,-0.13672 0.27929,-0.13672 z m 2.26954,0 c 0.2033,0 0.27929,0.11544 0.27929,0.13672 0,0.0213 -0.076,0.13867 -0.27929,0.13867 -0.20331,0 -0.2793,-0.11739 -0.2793,-0.13867 0,-0.0213 0.076,-0.13672 0.2793,-0.13672 z m 2.26953,0 c 0.2033,0 0.27929,0.11544 0.27929,0.13672 0,0.0213 -0.076,0.13867 -0.27929,0.13867 -0.20331,0 -0.2793,-0.11739 -0.2793,-0.13867 0,-0.0213 0.076,-0.13672 0.2793,-0.13672 z m 2.26953,0 c 0.20332,0 0.27929,0.11544 0.27929,0.13672 0,0.0213 -0.076,0.13867 -0.27929,0.13867 -0.20331,0 -0.2793,-0.11739 -0.2793,-0.13867 0,-0.0213 0.076,-0.13672 0.2793,-0.13672 z"
     id="path116" />
  <path
     style="color:#000000;fill:#ffffff;-inkscape-stroke:none"
     d="m -354.27638,305.99609 c -7.15259,0 -13.48003,2.83766 -18.24805,8.25586 -5.99882,6.7236 -12.25956,20.65732 -8.77343,48.75977 0.7088,6.025 1.41773,12.40791 2.12695,18.57812 2.05663,18.29691 4.13037,36.92256 7.4668,51.01563 1.66827,7.04678 3.64755,12.96024 6.13476,17.16015 2.48721,4.19992 5.55466,6.73438 9.30664,6.73438 h 3.97266 c 3.75198,0 6.82359,-2.53453 9.3164,-6.73438 2.49281,-4.19984 4.4796,-10.11325 6.15235,-17.16015 3.34526,-14.0928 5.41828,-32.7187 7.43945,-51.01563 v -0.004 c 0.70915,-6.16967 1.41822,-12.55187 2.12695,-18.57617 v -0.002 c 3.4147,-28.10338 -2.8475,-42.03426 -8.77343,-48.75586 -4.76802,-5.4182 -11.09547,-8.25586 -18.24805,-8.25586 z m 0,1 c 6.88995,0 12.90242,2.69593 17.49609,7.91602 h 0.002 c 5.70483,6.47011 11.9243,20.05647 8.53125,47.97851 h -0.002 v 0.002 c -0.70948,6.03062 -1.41788,12.41312 -2.12695,18.58203 v 0.002 c -2.02124,18.29754 -4.09681,36.90521 -7.41797,50.89649 -1.66058,6.99563 -3.63826,12.83798 -6.03906,16.88281 -2.40081,4.04483 -5.15228,6.24414 -8.45703,6.24414 h -3.97266 c -3.30474,0 -6.05194,-2.19938 -8.44726,-6.24414 -2.39533,-4.04476 -4.3653,-9.8851 -6.02149,-16.88086 -3.31238,-13.99151 -5.38854,-32.60026 -7.44531,-50.89844 v -0.002 c -0.70907,-6.16891 -1.41747,-12.55141 -2.12695,-18.58203 l -0.002,-0.002 v -0.002 c -3.4637,-27.92172 2.75588,-41.50561 8.5293,-47.97461 h 0.002 l 0.002,-0.002 c 4.59367,-5.22009 10.60613,-7.91602 17.49609,-7.91602 z"
     id="path118" />
  <path
     style="color:#000000;fill:#ffffff;-inkscape-stroke:none"
     d="m -354.27638,306.42187 c -8.27704,0 -16.27568,3.92694 -21.49609,12.97266 -5.22042,9.04572 -7.69596,23.15983 -5.16993,43.61719 2.51599,20.26965 4.51881,43.44802 7.92188,61.5918 1.70153,9.07189 3.74695,16.88374 6.41406,22.47851 1.33356,2.79738 2.82316,5.04509 4.53125,6.61328 1.70809,1.56819 3.65691,2.44922 5.8125,2.44922 h 3.97266 c 2.15559,0 4.10441,-0.88103 5.8125,-2.44922 1.70809,-1.56819 3.19769,-3.8159 4.53125,-6.61328 2.66711,-5.59477 4.71252,-13.40662 6.41406,-22.47851 3.40307,-18.14378 5.40589,-41.32215 7.92188,-61.5918 2.49048,-20.422 -0.003,-34.53787 -5.22266,-43.5918 -5.21996,-9.05393 -13.20037,-12.99804 -21.44336,-12.99805 z m 0,1 c 7.9272,0 15.51441,3.71512 20.57812,12.49805 5.06372,8.78293 7.56975,22.68352 5.09571,42.9707 -2.51936,20.29725 -4.52451,43.46604 -7.91211,61.52735 -1.69385,9.03093 -3.73737,16.78748 -6.33399,22.23437 -1.29831,2.72345 -2.73513,4.86369 -4.30468,6.30469 -1.56956,1.441 -3.24977,2.1875 -5.13672,2.1875 h -3.97266 c -1.88695,0 -3.56716,-0.7465 -5.13672,-2.1875 -1.56955,-1.441 -3.00637,-3.58124 -4.30468,-6.30469 -2.59663,-5.44689 -4.64014,-13.20344 -6.33399,-22.23437 -3.3877,-18.06186 -5.39264,-41.23161 -7.91211,-61.5293 -2.50942,-20.32274 -0.0203,-34.22269 5.04297,-42.99609 5.06326,-8.77341 12.66677,-12.47071 20.63086,-12.47071 z"
     id="path120" />
  <path
     style="color:#000000;fill:#ffffff;-inkscape-stroke:none"
     d="m -353.42482,323.75781 -11.58984,4.76758 -4.76758,11.58789 4.68945,11.32617 0.92383,-0.38281 -4.53125,-10.94336 4.45313,-10.82226 10.82031,-4.45313 10.75195,4.45313 4.45313,10.82226 -4.45313,10.75391 -10.94336,4.60156 0.38672,0.92187 11.32422,-4.76171 4.76758,-11.51563 -4.76758,-11.58789 z"
     id="path122" />
  <path
     style="color:#000000;fill:#ffffff;-inkscape-stroke:none"
     d="m -353.42482,326.16797 -9.88672,4.05859 -4.05859,9.88672 3.97852,9.62305 0.92382,-0.38086 -3.82031,-9.24219 3.74219,-9.12109 9.11914,-3.74219 9.05078,3.74219 3.74414,9.12109 -3.74414,9.05078 -9.24023,3.82031 0.38281,0.92383 9.62305,-3.97851 4.05859,-9.81641 -4.05664,-9.88672 z"
     id="path124" />
  <path
     style="color:#000000;fill:#ffffff;-inkscape-stroke:none"
     d="m -353.42482,326.59375 -9.60351,3.91602 -3.91602,9.60351 3.91602,9.53125 9.41211,3.91016 0.38281,-0.92383 -9.02735,-3.75 -3.60351,-8.76758 3.60351,-8.83594 8.83399,-3.60156 8.76758,3.60156 3.66992,8.83594 -3.74805,8.95703 0.92188,0.38477 3.91015,-9.3418 -3.98828,-9.60351 z"
     id="path126" />
  <path
     style="color:#000000;fill:#ffffff;-inkscape-stroke:none"
     d="m -353.42482,328.97461 c -6.14558,0 -11.13867,4.99309 -11.13867,11.13867 0,6.14558 4.99309,11.13867 11.13867,11.13867 6.14559,0 11.13867,-4.99309 11.13867,-11.13867 0,-6.14558 -4.99308,-11.13867 -11.13867,-11.13867 z m 0,1 c 5.60515,0 10.13867,4.53353 10.13867,10.13867 0,5.60515 -4.53352,10.13867 -10.13867,10.13867 -5.60514,0 -10.13867,-4.53352 -10.13867,-10.13867 0,-5.60514 4.53353,-10.13867 10.13867,-10.13867 z"
     id="circle128" />
  <path
     style="color:#000000;fill:#ffffff;-inkscape-stroke:none"
     d="m -353.42482,330.03906 c -5.55805,0 -10.07422,4.51617 -10.07422,10.07422 0,5.55805 4.51617,10.07422 10.07422,10.07422 5.55805,0 10.07422,-4.51617 10.07422,-10.07422 0,-5.55805 -4.51617,-10.07422 -10.07422,-10.07422 z m 0,1 c 5.01761,0 9.07422,4.05661 9.07422,9.07422 0,5.01761 -4.05661,9.07422 -9.07422,9.07422 -5.01761,0 -9.07422,-4.05661 -9.07422,-9.07422 0,-5.01761 4.05661,-9.07422 9.07422,-9.07422 z"
     id="circle130" />
  <path
     style="color:#000000;fill:#ffffff;-inkscape-stroke:none"
     d="m -353.42482,331.03125 c -5.00968,0 -9.08203,4.07235 -9.08203,9.08203 0,5.00968 4.07235,9.08203 9.08203,9.08203 5.00968,0 9.08008,-4.07235 9.08008,-9.08203 0,-5.00968 -4.0704,-9.08203 -9.08008,-9.08203 z m 0,1 c 4.46924,0 8.08008,3.61279 8.08008,8.08203 0,4.46924 -3.61084,8.08203 -8.08008,8.08203 -4.46924,0 -8.08203,-3.61279 -8.08203,-8.08203 0,-4.46924 3.61279,-8.08203 8.08203,-8.08203 z"
     id="circle132" />
  <path
     style="color:#000000;fill:#ffffff;-inkscape-stroke:none"
     d="m -353.42482,331.88281 c -4.53965,0 -8.23047,3.69082 -8.23047,8.23047 0,4.53965 3.69082,8.23047 8.23047,8.23047 4.53965,0 8.23047,-3.69082 8.23047,-8.23047 0,-4.53965 -3.69082,-8.23047 -8.23047,-8.23047 z m 0,1 c 3.99921,0 7.23047,3.23126 7.23047,7.23047 0,3.99921 -3.23126,7.23047 -7.23047,7.23047 -3.99921,0 -7.23047,-3.23126 -7.23047,-7.23047 0,-3.99921 3.23126,-7.23047 7.23047,-7.23047 z"
     id="circle134" />
  <path
     style="color:#000000;fill:#ffffff;-inkscape-stroke:none"
     d="m -353.42482,332.66406 c -4.10879,0 -7.45117,3.34043 -7.45117,7.44922 0,4.10879 3.34238,7.45117 7.45117,7.45117 4.10879,0 7.44922,-3.34238 7.44922,-7.45117 0,-4.10879 -3.34043,-7.44922 -7.44922,-7.44922 z m 0,1 c 3.56835,0 6.44922,2.88087 6.44922,6.44922 0,3.56835 -2.88087,6.45117 -6.44922,6.45117 -3.56835,0 -6.45117,-2.88282 -6.45117,-6.45117 0,-3.56835 2.88282,-6.44922 6.45117,-6.44922 z"
     id="circle136" />
  <path
     style="color:#000000;fill:#ffffff;-inkscape-stroke:none"
     d="m -353.42482,333.30078 c -3.75627,0 -6.8125,3.05623 -6.8125,6.8125 0,3.75627 3.05623,6.8125 6.8125,6.8125 3.75627,0 6.81055,-3.05623 6.81055,-6.8125 0,-3.75627 -3.05428,-6.8125 -6.81055,-6.8125 z m 0,1 c 3.21583,0 5.81055,2.59667 5.81055,5.8125 0,3.21583 -2.59472,5.8125 -5.81055,5.8125 -3.21583,0 -5.8125,-2.59667 -5.8125,-5.8125 0,-3.21583 2.59667,-5.8125 5.8125,-5.8125 z"
     id="circle138" />
  <path
     style="color:#000000;fill:#ffffff;-inkscape-stroke:none"
     d="m -353.42482,333.93945 c -3.40375,0 -6.17383,2.77008 -6.17383,6.17383 0,3.40375 2.77008,6.17383 6.17383,6.17383 3.40375,0 6.17383,-2.77008 6.17383,-6.17383 0,-3.40375 -2.77008,-6.17383 -6.17383,-6.17383 z m 0,1 c 2.86331,0 5.17383,2.31052 5.17383,5.17383 0,2.86331 -2.31052,5.17383 -5.17383,5.17383 -2.86331,0 -5.17383,-2.31052 -5.17383,-5.17383 0,-2.86331 2.31052,-5.17383 5.17383,-5.17383 z"
     id="circle140" />
  <path
     style="color:#000000;fill:#ffffff;-inkscape-stroke:none"
     d="m -353.42482,334.50781 c -3.09039,0 -5.60742,2.51508 -5.60742,5.60547 0,3.0904 2.51703,5.60742 5.60742,5.60742 3.0904,0 5.60547,-2.51702 5.60547,-5.60742 0,-3.09039 -2.51507,-5.60547 -5.60547,-5.60547 z m 0,1 c 2.54996,0 4.60547,2.05552 4.60547,4.60547 0,2.54996 -2.05551,4.60742 -4.60547,4.60742 -2.54995,0 -4.60742,-2.05746 -4.60742,-4.60742 0,-2.54995 2.05747,-4.60547 4.60742,-4.60547 z"
     id="circle142" />
  <path
     style="color:#000000;fill:#ffffff;-inkscape-stroke:none"
     d="m -353.42482,335.00391 c -2.81621,0 -5.11133,2.29316 -5.11133,5.10937 0,2.81621 2.29512,5.10938 5.11133,5.10938 2.81621,0 5.10938,-2.29317 5.10938,-5.10938 0,-2.81621 -2.29317,-5.10937 -5.10938,-5.10937 z m 0,1 c 2.27577,0 4.10938,1.8336 4.10938,4.10937 0,2.27577 -1.83361,4.10938 -4.10938,4.10938 -2.27577,0 -4.11133,-1.83361 -4.11133,-4.10938 0,-2.27577 1.83556,-4.10937 4.11133,-4.10937 z"
     id="circle144" />
  <path
     style="color:#000000;fill:#ffffff;-inkscape-stroke:none"
     d="m -364.43849,350.78711 -0.38477,0.92187 11.20508,4.68164 0.38477,-0.92382 z"
     id="path1036" />
</svg>
