<?xml version="1.0" encoding="UTF-8" standalone="no"?>
<!-- Generator: Adobe Illustrator 22.0.0, SVG Export Plug-In . SVG Version: 6.00 Build 0)  -->

<svg
   version="1.1"
   id="Layer_1"
   x="0px"
   y="0px"
   viewBox="0 0 550.40623 288.95311"
   xml:space="preserve"
   sodipodi:docname="wiiu_controller.svg"
   width="550.40625"
   height="288.95312"
   inkscape:version="1.1.2 (0a00cf5339, 2022-02-04)"
   xmlns:inkscape="http://www.inkscape.org/namespaces/inkscape"
   xmlns:sodipodi="http://sodipodi.sourceforge.net/DTD/sodipodi-0.dtd"
   xmlns="http://www.w3.org/2000/svg"
   xmlns:svg="http://www.w3.org/2000/svg"><defs
   id="defs423" /><sodipodi:namedview
   id="namedview421"
   pagecolor="#ffffff"
   bordercolor="#666666"
   borderopacity="1.0"
   inkscape:pageshadow="2"
   inkscape:pageopacity="0.0"
   inkscape:pagecheckerboard="true"
   showgrid="false"
   fit-margin-top="0"
   fit-margin-left="0"
   fit-margin-right="0"
   fit-margin-bottom="0"
   inkscape:zoom="2.1177919"
   inkscape:cx="340.21284"
   inkscape:cy="93.021416"
   inkscape:window-width="2560"
   inkscape:window-height="1440"
   inkscape:window-x="1920"
   inkscape:window-y="0"
   inkscape:window-maximized="1"
   inkscape:current-layer="g418" />
<g
   id="g418"
   transform="rotate(-90,144.47363,143.72949)"
   style="fill:none;fill-opacity:1;stroke:#000000;stroke-opacity:1">
	<path
   style="color:#000000;fill:#ffffff;stroke:none;-inkscape-stroke:none"
   d="m 281.88281,477.31836 c -0.64247,0.12442 -1.33321,0.38131 -2.07617,0.75586 l -0.17187,0.0859 -0.10743,0.1582 -38.44336,55.76562 -0.0117,0.21094 c -0.0879,1.54829 0.12747,2.8013 0.6914,3.76367 0.56393,0.96238 1.50041,1.57379 2.57617,1.78321 2.15152,0.41883 4.85035,-0.49524 7.92383,-2.25977 6.14697,-3.52906 13.77729,-10.69189 19.89258,-19.625 6.05542,-8.84483 11.01492,-19.98335 13.0918,-28.31445 1.03844,-4.16555 1.40715,-7.60143 0.65625,-9.90625 -0.37546,-1.15241 -1.13364,-2.07455 -2.23438,-2.38086 -0.55037,-0.15316 -1.14464,-0.16153 -1.78711,-0.0371 z m 1.38477,1.48242 c 0.5626,0.15656 0.93342,0.54859 1.21094,1.40039 0.55503,1.70361 0.32276,5.03343 -0.68555,9.07813 -2.01662,8.08938 -6.93643,19.15592 -12.875,27.83007 -5.9967,8.75988 -13.55433,15.81445 -19.40235,19.17188 -2.924,1.67871 -5.42477,2.37325 -6.89062,2.08789 -0.73293,-0.14268 -1.21054,-0.46106 -1.56641,-1.06836 -0.33685,-0.57485 -0.50723,-1.51961 -0.46289,-2.76562 l 38.03516,-55.17579 c 1.21222,-0.58178 2.09914,-0.70818 2.63672,-0.55859 z"
   id="path2" />
	<path
   style="color:#000000;fill:#ffffff;stroke:none;-inkscape-stroke:none"
   d="m 282.75,476.80078 c -0.90859,0.001 -1.87724,0.32748 -2.91211,0.82031 l -0.24219,-0.16601 -0.25195,0.36523 -0.004,0.002 -0.59765,0.86328 0.004,0.002 -37.80859,54.8457 -1.75,-0.10156 1.44727,0.99805 c -0.007,0.16925 -0.0156,0.33895 -0.0156,0.50195 0,1.64721 0.38239,3.02597 1.25195,4.01172 0.87729,0.99557 2.16346,1.43031 3.50782,1.42578 1.75436,-0.004 3.71451,-0.64877 5.86328,-1.74219 h 0.002 c 6.44049,-3.29078 14.70275,-10.84114 21.26953,-20.42578 4.02152,-5.87427 7.55172,-12.74503 10.09375,-19.14648 v -0.002 c 2.53969,-6.40465 4.10909,-12.29177 4.11328,-16.43164 v -0.002 c -0.002,-1.55263 -0.21204,-2.89828 -0.82226,-3.98047 l -0.002,-0.002 c -0.31008,-0.54537 -0.73747,-1.02125 -1.28906,-1.34961 -0.55133,-0.32983 -1.19245,-0.48754 -1.85742,-0.48633 z m 0,2.36719 c 0.3089,7.4e-4 0.48606,0.0594 0.64648,0.1543 0.23076,0.13815 0.45739,0.3974 0.65039,0.95312 0.18919,0.54617 0.30759,1.35488 0.30665,2.3457 0.004,3.53085 -1.46681,9.32217 -3.94532,15.5586 -2.47788,6.24132 -5.94735,12.98712 -9.84765,18.68359 -4.24072,6.19523 -9.26234,11.53769 -13.89844,15.29688 -2.31698,1.87903 -4.5402,3.36156 -6.49414,4.35742 -1.94959,0.99656 -3.64742,1.48647 -4.78711,1.48437 -0.88674,-0.003 -1.36938,-0.21758 -1.73633,-0.6289 -0.35638,-0.40156 -0.6582,-1.15333 -0.6582,-2.44336 0,-0.0676 0.004,-0.13966 0.006,-0.20899 l 37.90429,-54.98633 c 0.7818,-0.36023 1.45799,-0.56704 1.85352,-0.5664 z"
   id="path4" />
	<path
   style="color:#000000;fill:#ffffff;stroke:none;-inkscape-stroke:none"
   d="m 243.93555,8.5957031 c -1.07374,0.2173591 -2.0037,0.83446 -2.56055,1.8007809 -0.55685,0.966322 -0.76439,2.222094 -0.66602,3.769532 l 0.0137,0.210937 38.90429,55.662109 0.17188,0.08398 c 1.49106,0.739001 2.76827,1.007541 3.86719,0.693359 1.09891,-0.314182 1.85241,-1.243021 2.2207,-2.398437 0.73658,-2.310833 0.3462,-5.744252 -0.71875,-9.904297 -2.1299,-8.320091 -7.16224,-19.428325 -13.27735,-28.232422 C 265.7143,21.390091 258.03879,14.283034 251.87111,10.798823 248.78728,9.0567177 246.08304,8.16098 243.93557,8.5956981 Z m 0.29882,1.4707029 c 1.46253,-0.2960621 3.96479,0.379843 6.89844,2.03711 5.86732,3.314532 13.46875,10.314374 19.52539,19.033203 5.99688,8.633885 10.98855,19.671357 13.05664,27.75 1.03405,4.039321 1.28686,7.367415 0.74219,9.076172 -0.27233,0.854378 -0.64114,1.249483 -1.20312,1.410156 -0.53671,0.153445 -1.4236,0.0336 -2.63868,-0.539063 L 242.23242,13.917969 c -0.0532,-1.246999 0.11038,-2.193652 0.44336,-2.771485 0.35153,-0.610024 0.82733,-0.932047 1.55859,-1.080078 z"
   id="path6" />
	<path
   style="color:#000000;fill:#ffffff;stroke:none;-inkscape-stroke:none"
   d="m 245.01953,8.0566406 c -1.34414,-0.00409 -2.62914,0.4243355 -3.50976,1.4121094 -0.87387,0.979118 -1.25782,2.35243 -1.25782,3.988281 0,0.184826 0.007,0.380405 0.0176,0.576172 l -1.42969,1 1.73828,-0.109375 38.4629,55.033203 -0.10938,0.220703 0.40234,0.199219 0.27149,0.134766 0.66601,0.330078 0.0645,-0.126953 c 0.82493,0.333649 1.64144,0.661191 2.38476,0.662109 0.66152,9.02e-4 1.30021,-0.155763 1.84961,-0.480469 0.82461,-0.485648 1.36297,-1.289776 1.67578,-2.191406 0.31321,-0.899616 0.43645,-1.930277 0.4375,-3.082031 -0.004,-4.133223 -1.60443,-10.022801 -4.1875,-16.433594 -2.58546,-6.40771 -6.17289,-13.287892 -10.25,-19.158203 -4.40837,-6.344989 -9.57999,-11.782943 -14.42968,-15.667969 -2.4259,-1.942542 -4.77202,-3.495881 -6.92579,-4.582031 V 9.7793 c -2.15271,-1.081988 -4.11618,-1.7188709 -5.8692,-1.7226594 z m 0.002,2.3691404 c 1.14617,-0.0026 2.84981,0.484063 4.80469,1.470703 5.88173,2.958787 14.07176,10.258814 20.47656,19.486328 v 0.002 c 3.95374,5.692465 7.47955,12.444337 10,18.691406 2.52106,6.241151 4.01941,12.038754 4.01563,15.548828 v 0.002 c 0.002,1.296942 -0.22639,2.268189 -0.50781,2.751953 v 0.002 c -0.1449,0.250817 -0.28238,0.383799 -0.43946,0.476563 -0.16043,0.09373 -0.3419,0.151281 -0.65039,0.152344 -0.39495,6.41e-4 -1.06687,-0.200987 -1.83789,-0.548829 l -38.2539,-54.732421 c -0.003,-0.08946 -0.01,-0.18429 -0.01,-0.269532 0,-1.275985 0.29936,-2.013608 0.65625,-2.410156 0.36522,-0.405878 0.85354,-0.620452 1.74609,-0.623047 z"
   id="path8" />
	
		<linearGradient
   id="SVGID_1_"
   gradientUnits="userSpaceOnUse"
   x1="-156.0238"
   y1="377.7417"
   x2="-155.0238"
   y2="377.7417"
   gradientTransform="matrix(-274.7877,211.2392,-211.2392,-274.7877,37202.055,136925.58)">
		<stop
   offset="0"
   style="stop-color:#ECEBEB"
   id="stop10" />
		<stop
   offset="1"
   style="stop-color:#D6D7DA"
   id="stop12" />
	</linearGradient>
	
	
		<linearGradient
   id="SVGID_2_"
   gradientUnits="userSpaceOnUse"
   x1="-155.1545"
   y1="377.69141"
   x2="-154.1545"
   y2="377.69141"
   gradientTransform="matrix(0,528.8799,-528.8799,0,199954.23,82058.117)">
		<stop
   offset="0"
   style="stop-color:#FCFCFC"
   id="stop17" />
		<stop
   offset="1"
   style="stop-color:#E9EAEC"
   id="stop19" />
	</linearGradient>
	
	
		<linearGradient
   id="SVGID_3_"
   gradientUnits="userSpaceOnUse"
   x1="-156.0238"
   y1="377.74469"
   x2="-155.0238"
   y2="377.74469"
   gradientTransform="matrix(-274.7877,211.2392,-211.2392,-274.7877,37202.055,136925.58)">
		<stop
   offset="0"
   style="stop-color:#EBEBEB"
   id="stop24" />
		<stop
   offset="1"
   style="stop-color:#D6D7DA"
   id="stop26" />
	</linearGradient>
	
	
		<linearGradient
   id="SVGID_4_"
   gradientUnits="userSpaceOnUse"
   x1="-155.1545"
   y1="377.67001"
   x2="-154.1545"
   y2="377.67001"
   gradientTransform="matrix(0,528.8799,-528.8799,0,199954.23,82058.117)">
		<stop
   offset="0"
   style="stop-color:#FCFCFC"
   id="stop31" />
		<stop
   offset="1"
   style="stop-color:#E9EAEC"
   id="stop33" />
	</linearGradient>
	
	<path
   style="color:#000000;fill:#ffffff;stroke:none;-inkscape-stroke:none"
   d="m 59.074219,116.79492 c -4.117303,0 -7.470703,3.35429 -7.470703,7.47071 v 298.2246 c 0,4.11731 3.3534,7.47071 7.470703,7.47071 H 227.8457 c 4.11731,0 7.47071,-3.3534 7.47071,-7.47071 v -298.9746 h -0.1543 c -0.39504,-3.749 -3.46703,-6.72071 -7.31836,-6.72071 z m 0,2.26953 H 227.8457 c 1.44229,0 2.73235,0.58059 3.67578,1.52344 0.94059,0.94146 1.52065,2.2296 1.52344,3.66797 v 298.23437 c 0,1.44175 -0.58007,2.73437 -1.52344,3.67774 -0.94353,0.94353 -2.23486,1.52344 -3.67773,1.52344 H 59.074219 c -1.441981,0 -2.732148,-0.58126 -3.675782,-1.52344 -0.942858,-0.94374 -1.52539,-2.23517 -1.52539,-3.67774 v -298.2246 c 0,-1.44175 0.580071,-2.73437 1.523437,-3.67774 0.943734,-0.94286 2.235168,-1.52344 3.677735,-1.52344 z"
   id="path38" />
	
		<linearGradient
   id="SVGID_5_"
   gradientUnits="userSpaceOnUse"
   x1="-154.59959"
   y1="379.3786"
   x2="-153.59959"
   y2="379.3786"
   gradientTransform="matrix(169.1915,-295.3357,295.3357,169.1915,-85827.609,-109426.23)">
		<stop
   offset="0"
   style="stop-color:#303135"
   id="stop40" />
		<stop
   offset="1"
   style="stop-color:#606368"
   id="stop42" />
	</linearGradient>
	<path
   style="color:#000000;fill:#ffffff;stroke:none;-inkscape-stroke:none"
   d="m 58.775391,124.32031 v 0.75 297.36524 H 228.4668 V 124.32031 Z m 1.5,1.5 H 226.9668 V 420.93555 H 60.275391 Z"
   id="rect45" />
	<path
   style="color:#000000;fill:#ffffff;stroke:none;-inkscape-stroke:none"
   d="m 58.390625,123.93555 v 298.88476 h 0.384766 1.5 168.576169 V 123.93555 Z m 2.269531,2.26953 H 226.58008 v 294.3457 H 60.660156 Z"
   id="polygon47" />
	<path
   style="color:#000000;fill:#ffffff;stroke:none;-inkscape-stroke:none"
   d="m 62.265625,446.13477 -0.707031,0.0195 c -0.331502,0.01 -0.667716,0.11109 -0.947266,0.29297 -0.28635,0.18682 -0.512746,0.46684 -0.646484,0.77539 -0.136402,0.31439 -0.185547,0.65069 -0.185547,1.0039 0,0.31434 0.05979,0.62682 0.189453,0.91016 0.131755,0.28791 0.344625,0.54784 0.613281,0.72265 0.254609,0.16568 0.567576,0.26368 0.875,0.26368 0.223627,0 0.44101,-0.0956 0.650391,-0.19336 l 0.0098,0.125 0.71875,-0.0234 c 0.309886,-0.0102 0.620085,-0.10703 0.875,-0.27344 0.274172,-0.17897 0.484543,-0.44993 0.607422,-0.74219 0.120104,-0.28402 0.169922,-0.58995 0.169922,-0.90039 0,-0.29213 -0.05026,-0.58297 -0.164062,-0.85546 -0.117885,-0.28392 -0.320974,-0.55129 -0.591797,-0.72852 -0.244866,-0.16024 -0.549298,-0.25781 -0.84961,-0.25781 -0.20513,0 -0.400024,0.0861 -0.589843,0.16992 z"
   id="path49" />
	<path
   style="color:#000000;fill:#ffffff;stroke:none;-inkscape-stroke:none"
   d="m 59.832031,449.19531 v 3.81641 h 1.867188 v -0.18945 h 0.86914 v 0.11718 h 1.867188 v -3.74414 z"
   id="polygon51" />
	<path
   style="color:#000000;fill:#ffffff;stroke:none;-inkscape-stroke:none"
   d="m 59.832031,452.06445 v 3.43946 h 1.867188 v -1.52735 h 2.736328 v -0.75 -1.16211 z"
   id="polygon53" />
	<path
   style="color:#000000;fill:#ffffff;stroke:none;-inkscape-stroke:none"
   d="m 59.832031,454.50391 v 3.8125 h 1.867188 v -0.1875 h 0.86914 v 0.11523 h 1.867188 v -3.74023 z"
   id="polygon55" />
	<path
   style="color:#000000;fill:#ffffff;stroke:none;-inkscape-stroke:none"
   d="m 62.15625,457.26953 c -0.388905,0 -0.770447,0.0737 -1.123047,0.22266 l -0.002,0.002 c -0.370299,0.15788 -0.704042,0.41854 -0.925781,0.75977 -0.235912,0.36254 -0.326172,0.78881 -0.326172,1.22461 0,0.45993 0.142587,0.92291 0.427734,1.2832 0.291606,0.36904 0.716144,0.60976 1.173828,0.72656 l 0.728516,0.18555 0.09375,-0.3711 0.08203,0.34571 0.757813,-0.21875 c 0.414873,-0.11998 0.79871,-0.36614 1.058593,-0.71485 0.261996,-0.35153 0.386719,-0.79246 0.386719,-1.23047 0,-0.38838 -0.09509,-0.77385 -0.279297,-1.11132 l -0.002,-0.002 c -0.193918,-0.35215 -0.499574,-0.64677 -0.861328,-0.83203 -0.362277,-0.18717 -0.770478,-0.26953 -1.189453,-0.26953 z m 0.0039,1.92383 c 0.120404,0 0.236319,0.0191 0.351563,0.0566 8.93e-4,3.1e-4 0.0011,-3e-4 0.002,0 0.05946,0.0206 0.0674,0.0283 0.0918,0.0625 0.01116,0.0157 0.03125,0.0458 0.03125,0.16406 0,0.0814 -0.0092,0.0716 -0.0039,0.0645 0.01724,-0.0229 0.0059,0.008 -0.121093,0.0488 l -0.332032,0.10547 -0.349609,-0.0762 c -0.143139,-0.0313 -0.164681,-0.0643 -0.167969,-0.0684 l -0.002,-0.004 -0.002,-0.002 c -0.01772,-0.0212 -0.02539,-0.017 -0.02539,-0.10351 0,-0.0577 0.0079,-0.0885 0.03906,-0.14063 0.0093,-0.0155 0.0018,-0.0173 0.06836,-0.043 h 0.002 v -0.002 c 0.09058,-0.0354 0.225939,-0.0625 0.417969,-0.0625 z"
   id="path57" />
	<path
   style="color:#000000;fill:#ffffff;stroke:none;-inkscape-stroke:none"
   d="m 62.568359,460.28711 v 1.02148 h -2.736328 v 0.75 1.16016 h 2.736328 v 1.02539 h 1.867188 v -3.95703 z"
   id="polygon59" />
	<path
   style="color:#000000;fill:#ffffff;stroke:none;-inkscape-stroke:none"
   d="m 9.5976563,266.58789 v 1.91016 h 1.4609377 v 0.10937 H 9.5976563 v 0.75 1.16211 h 4.5996097 v -1.91211 h -1.271485 v -0.10937 h 1.271485 v -1.91016 z"
   id="polygon61" />
	<path
   style="color:#000000;fill:#ffffff;stroke:none;-inkscape-stroke:none"
   d="m 11.857422,269.57812 c -0.379029,10e-6 -0.7573,0.0863 -1.099609,0.25391 -0.36682,0.1774 -0.677739,0.46211 -0.8886724,0.80469 -0.2161744,0.35088 -0.3222656,0.7626 -0.3222656,1.17383 0,0.38603 0.096805,0.77328 0.2832031,1.11328 0.1982369,0.36213 0.5118749,0.6597 0.8789059,0.84765 0.363741,0.18627 0.771229,0.27149 1.185547,0.27149 0.406123,0 0.80457,-0.0816 1.16211,-0.25781 0.364761,-0.17939 0.677343,-0.46623 0.884765,-0.81446 0.207355,-0.34811 0.310547,-0.75332 0.310547,-1.1582 0,-0.60281 -0.236363,-1.19935 -0.669922,-1.61133 -0.450743,-0.42906 -1.075629,-0.62305 -1.724609,-0.62305 z m -0.0078,1.92383 c 0.35171,0 0.453928,0.0811 0.455079,0.082 4e-6,10e-6 0.002,0 0.002,0 0.07742,0.0817 0.08984,0.1125 0.08984,0.23047 0,0.079 -0.01033,0.11012 -0.03711,0.15235 -0.02629,0.0415 -0.04593,0.0605 -0.115234,0.0918 l -0.002,0.002 c -0.06981,0.0319 -0.180943,0.0586 -0.34961,0.0586 -0.273686,0 -0.367315,-0.0569 -0.416015,-0.10156 -0.07406,-0.0679 -0.08203,-0.0747 -0.08203,-0.20899 0,-0.12643 0.0067,-0.13482 0.08399,-0.20703 0.05649,-0.0528 0.130783,-0.0996 0.371093,-0.0996 z"
   id="path63" />
	<path
   style="color:#000000;fill:#ffffff;stroke:none;-inkscape-stroke:none"
   d="m 9.5976563,273.05664 v 0.75 0.75391 0.32422 l -1.359375,0.41406 1.359375,0.41992 v 0.2832 1.51172 h 4.5996097 v -1.83594 l -1.048828,-0.36132 1.048828,-0.35157 v -1.9082 z"
   id="path65" />
	<path
   style="color:#000000;fill:#ffffff;stroke:none;-inkscape-stroke:none"
   d="m 9.5976563,276.68945 v 3.8125 h 1.8671877 v -0.1875 h 0.867187 v 0.11524 h 1.865235 v -3.74024 z"
   id="polygon67" />
	<path
   style="color:#000000;fill:#ffffff;stroke:none;-inkscape-stroke:none"
   d="m 90.257812,447.46094 -0.707031,0.0215 c -0.330064,0.01 -0.66574,0.10991 -0.945312,0.29297 -4.29e-4,2.8e-4 4.28e-4,0.002 0,0.002 -0.288304,0.1885 -0.515309,0.4666 -0.648438,0.77344 -0.136402,0.31439 -0.183594,0.64995 -0.183594,1.00391 0,0.31376 0.06069,0.62524 0.189454,0.9082 v 0.004 l 0.002,0.002 c 0.131328,0.28348 0.341359,0.54504 0.611328,0.7207 h 0.002 l 0.002,0.002 c 0.251435,0.16188 0.56064,0.25976 0.871094,0.25976 0.221331,0 0.437828,-0.0968 0.646484,-0.19336 l 0.0098,0.125 0.720703,-0.0234 c 0.307143,-0.0101 0.616092,-0.1057 0.873047,-0.27343 0.27621,-0.18031 0.486768,-0.45029 0.609375,-0.74024 0.120503,-0.28497 0.169922,-0.5906 0.169922,-0.90039 0,-0.29273 -0.05149,-0.58628 -0.164063,-0.85742 -0.117884,-0.28392 -0.320973,-0.55128 -0.591797,-0.72852 -0.248429,-0.16257 -0.552584,-0.25585 -0.849609,-0.25585 -0.202434,0 -0.398843,0.0842 -0.589844,0.16796 z"
   id="path69" />
	<path
   style="color:#000000;fill:#ffffff;stroke:none;-inkscape-stroke:none"
   d="m 90.560547,450.2832 v 1.02344 h -2.734375 v 0.75 1.16016 h 2.734375 v 1.02539 h 1.867187 v -3.95899 z"
   id="polygon71" />
	<path
   style="color:#000000;fill:#ffffff;stroke:none;-inkscape-stroke:none"
   d="m 87.826172,452.48437 v 1.08985 0.96094 l 0.939453,0.34179 v 0.25586 l -0.939453,0.36133 v 2.09961 l 4.601562,-1.88281 V 454.25 Z"
   id="path73" />
	<path
   style="color:#000000;fill:#ffffff;stroke:none;-inkscape-stroke:none"
   d="m 90.392578,455.85352 -0.103516,0.21289 h -0.960937 -0.751953 v 1.49804 l -0.748047,-0.74804 v 1.1582 h 1.013672 c -0.01144,0.007 -0.01351,0.01 -0.02539,0.0176 l -0.990234,0.6289 v 2.29883 l 1.988281,-1.27148 c 0.281292,0.24387 0.655673,0.39844 1.017578,0.39843 0.296471,10e-6 0.603306,-0.084 0.859375,-0.24023 0.262861,-0.16033 0.489586,-0.41985 0.603516,-0.71484 v -0.002 -0.002 c 0.111446,-0.29179 0.132812,-0.56976 0.132812,-0.89648 v -2.125 h -2.005859 z"
   id="path75" />
	<path
   style="color:#000000;fill:#ffffff;stroke:none;-inkscape-stroke:none"
   d="m 90.560547,458.95703 v 1.02344 h -2.734375 v 0.75 1.16015 h 2.734375 v 1.02735 h 1.867187 v -3.96094 z"
   id="polygon77" />
	<path
   style="color:#000000;fill:#ffffff;stroke:none;-inkscape-stroke:none"
   d="m 9.7089844,350.3125 v 1.9707 c 0,0.24822 0.021143,0.47912 0.078125,0.70313 1.563e-4,6.1e-4 -1.569e-4,10e-4 0,0.002 0.055249,0.21969 0.1463013,0.42819 0.2792966,0.60938 l 0.0039,0.006 0.0039,0.004 c 0.153143,0.20128 0.351617,0.3485 0.5625,0.45313 0.236154,0.11716 0.49862,0.17382 0.751953,0.17382 0.323138,0 0.664687,-0.1065 0.931641,-0.30664 0.172167,0.0671 0.342386,0.1504 0.52539,0.15039 0.289892,0 0.58167,-0.0901 0.81836,-0.23632 l 0.002,-0.002 c 0.254933,-0.15862 0.467088,-0.40604 0.58789,-0.68164 v -0.002 c 0.127612,-0.28901 0.164063,-0.58098 0.164063,-0.89063 v -1.95312 h -3.957031 z m 4.2519536,2.52148 -0.002,0.008 c 6.69e-4,-0.002 -6.57e-4,-0.004 0,-0.006 2.69e-4,-8.7e-4 0.0017,-0.001 0.002,-0.002 z"
   id="path79" />
	<path
   style="color:#000000;fill:#ffffff;stroke:none;-inkscape-stroke:none"
   d="m 9.7109375,352.62891 v 1.09179 0.97657 l 0.9707035,0.35156 v 0.30078 l -0.9707035,0.375 v 2.11523 l 4.7070315,-1.92578 v -1.47656 z"
   id="path81" />
	<path
   style="color:#000000;fill:#ffffff;stroke:none;-inkscape-stroke:none"
   d="m 12.539063,356.07422 v 1.05859 H 9.7109375 v 0.75 1.17383 h 2.8281255 v 1.06055 h 1.878906 v -4.04297 z"
   id="polygon83" />
	<path
   style="color:#000000;fill:#ffffff;stroke:none;-inkscape-stroke:none"
   d="m 12.539063,358.81445 v 1.05664 H 9.7109375 v 0.75 1.17578 h 2.8281255 v 1.0586 h 1.878906 v -4.04102 z"
   id="polygon85" />
	<path
   style="color:#000000;fill:#ffffff;stroke:none;-inkscape-stroke:none"
   d="m 9.7109375,361.80273 v 3.89258 h 1.8789065 v -0.19336 h 0.949219 v 0.11914 h 1.878906 v -3.81836 z"
   id="polygon87" />
	<path
   style="color:#000000;fill:#ffffff;stroke:none;-inkscape-stroke:none"
   d="m 12.318359,364.64648 -0.07226,0.14844 H 9.7109375 v 0.75 1.17383 h 1.0996095 c -0.03674,0.0246 -0.04781,0.0354 -0.08984,0.0625 l 0.0059,-0.002 -1.0156255,0.64453 v 2.3164 l 2.0253905,-1.29687 c 0.286848,0.2573 0.681038,0.41406 1.056641,0.41406 0.300374,0 0.61,-0.0835 0.871094,-0.24219 0.270172,-0.16357 0.499434,-0.42907 0.615234,-0.72656 h 0.002 v -0.002 c 0.115112,-0.29889 0.136719,-0.58405 0.136719,-0.91992 v -2.17188 h -2.078125 z"
   id="path89" />
	<path
   style="color:#000000;fill:#ffffff;stroke:none;-inkscape-stroke:none"
   d="m 14.417969,367.03906 -2.828125,1.89063 H 9.7109375 v 0.75 1.17383 h 1.8710935 l 2.833985,1.96093 v -2.32812 l -0.851563,-0.5625 0.853516,-0.5586 z"
   id="path91" />
	<path
   style="color:#000000;fill:#ffffff;stroke:none;-inkscape-stroke:none"
   d="m 9.8222656,408.46094 v 0.75 1.16015 h 1.2597654 v 0.0469 c 0,0.54074 0.09388,1.07197 0.517578,1.46094 0.313851,0.28812 0.752691,0.44921 1.175782,0.44921 0.255845,0 0.515932,-0.0568 0.748047,-0.16992 4.46e-4,-2.1e-4 0.0015,2.2e-4 0.002,0 0.228998,-0.11033 0.439616,-0.28202 0.58789,-0.49414 0.149489,-0.21385 0.230524,-0.45229 0.269532,-0.68945 0.03149,-0.18337 0.03906,-0.36572 0.03906,-0.59375 v -1.91992 z"
   id="path93" />
	<path
   style="color:#000000;fill:#ffffff;stroke:none;-inkscape-stroke:none"
   d="m 12.082031,411.22852 c -0.382293,0 -0.760784,0.0865 -1.101562,0.25195 -0.363966,0.17674 -0.674789,0.45947 -0.886719,0.80273 v 0.002 c -0.2162904,0.35128 -0.3222656,0.76391 -0.3222656,1.17578 0,0.38466 0.095183,0.76911 0.2812496,1.10937 4.47e-4,8.2e-4 0.0015,10e-4 0.002,0.002 0.198119,0.36352 0.51229,0.6604 0.880859,0.84765 0.362684,0.18427 0.768002,0.27149 1.181641,0.27149 0.406017,0 0.805089,-0.0816 1.162109,-0.25782 l 0.0039,-0.002 c 0.364472,-0.17945 0.676114,-0.46549 0.882813,-0.8125 0.20828,-0.34815 0.310547,-0.75137 0.310547,-1.15625 0,-0.60343 -0.23485,-1.20259 -0.669922,-1.61523 h -0.002 c -0.449914,-0.42518 -1.072706,-0.61914 -1.722657,-0.61914 z m -0.0098,1.92187 c 0.35458,0 0.457558,0.0847 0.455078,0.082 l 0.002,0.002 c 0.07979,0.0834 0.0918,0.11289 0.0918,0.23047 0,0.0765 -0.01112,0.10829 -0.03906,0.15235 -0.02629,0.0415 -0.04397,0.0605 -0.113281,0.0918 h -0.002 l -0.0039,0.002 c -0.06742,0.031 -0.177037,0.0586 -0.345703,0.0586 -0.275,0 -0.368423,-0.0561 -0.417969,-0.10156 -0.0744,-0.0679 -0.08203,-0.0747 -0.08203,-0.20899 0,-0.12801 0.0062,-0.13649 0.08203,-0.20703 0.05926,-0.0551 0.135436,-0.10156 0.373047,-0.10156 z"
   id="path95" />
	<path
   style="color:#000000;fill:#ffffff;stroke:none;-inkscape-stroke:none"
   d="m 14.421875,414.21484 -4.5996094,1.21875 v 0.57813 0.98633 l 0.6445314,0.17968 -0.6445314,0.17774 v 1.53906 l 4.5996094,1.26367 v -1.98633 l -0.318359,-0.0781 0.318359,-0.0898 V 416.375 l -0.330078,-0.0937 0.330078,-0.0762 z"
   id="path97" />
	<path
   style="color:#000000;fill:#ffffff;stroke:none;-inkscape-stroke:none"
   d="m 9.8222656,418.8125 v 3.8125 H 11.6875 v -0.1875 h 0.869141 v 0.11719 h 1.865234 v -3.74219 z"
   id="polygon99" />
	<path
   style="color:#000000;fill:#ffffff;stroke:none;-inkscape-stroke:none"
   d="m 12.384766,421.49219 -0.09961,0.20898 h -0.96289 -0.75 v 0.41016 1.08984 H 9.8222656 v 0.41016 h 1.0156254 c -0.01054,0.007 -0.01253,0.009 -0.02344,0.0156 l -0.9921874,0.62891 v 2.29883 l 1.9863284,-1.27149 c 0.280284,0.24301 0.655673,0.39844 1.017578,0.39844 0.296731,0 0.601366,-0.0844 0.855469,-0.23828 h 0.002 v -0.002 c 0.264206,-0.16115 0.489639,-0.4213 0.603515,-0.70899 v -0.002 -0.002 c 0.11576,-0.29767 0.134766,-0.57744 0.134766,-0.90235 v -2.125 h -2.007812 z m -0.248047,3.55859 c 0.0028,0.002 0.007,1.4e-4 0.0098,0.002 0.0021,0.001 0.0018,0.005 0.0039,0.006 z"
   id="path101" />
	<path
   style="color:#000000;fill:#ffffff;stroke:none;-inkscape-stroke:none"
   d="m 9.6074219,236.7832 v 0.75 0.75586 0.32422 l -1.359375,0.41406 1.359375,0.41993 v 0.2832 1.51172 h 4.6035161 v -1.83594 l -1.054688,-0.36133 1.054688,-0.35351 v -1.90821 z"
   id="path103" />
	<path
   style="color:#000000;fill:#ffffff;stroke:none;-inkscape-stroke:none"
   d="m 9.6074219,240.47852 v 0.75 1.1621 h 4.6035161 v -1.9121 z"
   id="rect105" />
	<path
   style="color:#000000;fill:#ffffff;stroke:none;-inkscape-stroke:none"
   d="m 11.931641,241.49219 c -0.389593,0 -0.771605,0.0747 -1.123047,0.22265 l -0.002,0.002 c -0.374295,0.15813 -0.70659,0.41992 -0.9277347,0.75976 -0.2369896,0.36414 -0.3242188,0.79096 -0.3242188,1.22461 0,0.4586 0.1407769,0.92326 0.4277344,1.28516 0.2915701,0.36734 0.7161441,0.60781 1.1738281,0.72461 l 0.726563,0.1875 0.0957,-0.375 0.08203,0.34765 0.757812,-0.21875 c 0.41387,-0.12011 0.79871,-0.36614 1.058594,-0.71484 0.262671,-0.35244 0.384766,-0.79305 0.384766,-1.23047 0,-0.38838 -0.09382,-0.77497 -0.279297,-1.11328 h -0.002 c -0.194952,-0.35403 -0.501161,-0.64713 -0.861328,-0.83203 h -0.002 c -0.361784,-0.18575 -0.767929,-0.26953 -1.185547,-0.26953 z m 0.002,1.92383 c 0.125568,0 0.242492,0.0184 0.355469,0.0566 0.05952,0.0202 0.06509,0.0277 0.08984,0.0625 0.01116,0.0157 0.03125,0.0439 0.03125,0.16211 0,0.0878 -0.01075,0.076 -0.002,0.0644 l -0.002,0.002 -0.002,0.004 c 0.01939,-0.026 0.01065,0.004 -0.117188,0.0449 l -0.328125,0.10352 -0.355468,-0.0762 c -0.142197,-0.0306 -0.165545,-0.0607 -0.171875,-0.0684 v -0.002 h -0.002 c -0.01772,-0.0212 -0.02344,-0.017 -0.02344,-0.10351 0,-0.062 0.0068,-0.0885 0.03711,-0.13868 l 0.002,-0.002 0.0039,-0.004 c 0.0057,-0.01 0.0012,-0.0157 0.06445,-0.041 0.09445,-0.0362 0.230646,-0.0644 0.419922,-0.0644 z"
   id="path107" />
	
		<linearGradient
   id="SVGID_6_"
   gradientUnits="userSpaceOnUse"
   x1="-139.6196"
   y1="379.79871"
   x2="-138.6196"
   y2="379.79871"
   gradientTransform="matrix(24.267,-2.1695,2.1695,24.267,2816.0525,-9245.0723)">
		<stop
   offset="0"
   style="stop-color:#1C1C1E"
   id="stop109" />
		<stop
   offset="1"
   style="stop-color:#9BA2AA"
   id="stop111" />
	</linearGradient>
	<path
   style="color:#000000;fill:#ffffff;stroke:none;-inkscape-stroke:none"
   d="m 264.10742,195.00781 c -2.71452,0 -5.17651,1.20367 -6.95117,3.13672 h -0.002 c -1.77347,1.93411 -2.86524,4.60204 -2.86524,7.54102 v 135.24023 c 0,2.93898 1.09177,5.60691 2.86524,7.54102 h 0.002 c 1.77466,1.93305 4.23665,3.13672 6.95117,3.13672 h 0.42969 c 2.71414,-10e-4 5.17642,-1.20357 6.95117,-3.13672 1.77459,-1.93416 2.86719,-4.60027 2.86719,-7.53907 V 205.68555 c 0,-2.9388 -1.0925,-5.60676 -2.86719,-7.54102 -1.77466,-1.93305 -4.23664,-3.13672 -6.95117,-3.13672 z m 0,1.5 h 0.42969 c 2.27347,0 4.32636,0.9974 5.8457,2.65235 1.51667,1.65365 2.47266,3.95881 2.47266,6.52539 v 135.24218 c 0,2.5672 -0.95525,4.8696 -2.47266,6.52344 -1.51924,1.65485 -3.57185,2.65143 -5.8457,2.65235 h -0.42969 c -2.27292,0 -4.32647,-0.99811 -5.8457,-2.65235 -1.51653,-1.65389 -2.47266,-3.95837 -2.47266,-6.52539 V 205.68555 c 0,-2.56602 0.95521,-4.87164 2.47071,-6.52539 l 0.002,-0.002 c 1.51915,-1.65371 3.57318,-2.65039 5.8457,-2.65039 z"
   id="path114" />
	<path
   style="color:#000000;fill:#ffffff;stroke:none;-inkscape-stroke:none"
   d="m 264.10742,194.14062 c -2.97584,-0.001 -5.66892,1.32233 -7.58984,3.41797 -1.92117,2.09582 -3.09375,4.97204 -3.09375,8.12696 v 135.24023 c 0,3.15492 1.17258,6.03114 3.09375,8.12695 1.921,2.09574 4.61435,3.41797 7.58984,3.41797 h 0.42969 c 2.97549,0 5.67079,-1.32223 7.5918,-3.41797 1.92116,-2.09581 3.09375,-4.97203 3.09375,-8.12695 v -134.49023 -0.75 -0.75 h -0.13868 c -0.17785,-2.84352 -1.19517,-5.45805 -2.95507,-7.37696 -1.92092,-2.09564 -4.61596,-3.41905 -7.5918,-3.41797 z m 0,2.36719 h 0.42969 c 2.27347,0 4.32636,0.9974 5.8457,2.65235 1.51589,1.6538 2.47266,3.95899 2.47266,6.52539 v 0.75 134.49023 c 0,2.5672 -0.95535,4.87165 -2.47266,6.52539 -1.51934,1.65495 -3.57223,2.65235 -5.8457,2.65235 h -0.42969 c -2.2733,-9.2e-4 -4.32656,-0.99822 -5.8457,-2.65235 -1.51653,-1.65389 -2.47266,-3.95837 -2.47266,-6.52539 V 205.68555 c 0,-2.56602 0.95521,-4.87164 2.47071,-6.52539 l 0.002,-0.002 c 1.51915,-1.65371 3.57318,-2.65039 5.8457,-2.65039 z"
   id="path116" />
	<g
   id="g132"
   style="fill:#ffffff;stroke:#ffffff;stroke-width:1.5">
		<path
   style="color:#000000;fill:#ffffff;stroke:none;-inkscape-stroke:none"
   d="m 30.441406,157.62305 c -0.874582,0 -1.606437,0.2741 -2.101562,0.74609 -0.495125,0.47199 -0.726658,1.10937 -0.730469,1.71875 -0.0076,1.21877 0.933482,2.47461 2.373047,2.47461 h 5.564453 v -4.93945 z m 0,1.5 h 3.605469 v 1.93945 h -4.064453 c -0.594433,0 -0.876175,-0.46462 -0.873047,-0.96484 0.0016,-0.25012 0.08453,-0.4719 0.265625,-0.64454 0.181093,-0.17263 0.48749,-0.33007 1.066406,-0.33007 z"
   id="path118" />
		<path
   style="color:#000000;fill:#ffffff;stroke:none;-inkscape-stroke:none"
   d="m 26.636719,152.88867 v 0.14258 c -0.576449,0.13423 -1.10933,0.36568 -1.488282,0.7793 -0.541337,0.59086 -0.804687,1.3981 -0.804687,2.27148 v 8.25 c 0,1.57031 1.188764,2.9668 2.8125,2.9668 h 6.035156 c 0.552721,0 1.070157,-0.18876 1.494141,-0.51172 0.423983,-0.32297 0.783203,-0.8293 0.783203,-1.46094 v -2.66015 h -5.714844 c -0.725002,0 -1.173109,-0.27624 -1.521484,-0.73243 -0.348375,-0.45619 -0.552256,-1.12507 -0.554688,-1.80468 -0.0024,-0.67961 0.19723,-1.35095 0.53711,-1.80664 0.33988,-0.4557 0.770375,-0.72461 1.46289,-0.72461 h 5.869141 v -2.20313 c 0,-0.63096 -0.1962,-1.23763 -0.587891,-1.71094 -0.391691,-0.4733 -1.006703,-0.79492 -1.689453,-0.79492 h -5.882812 z m 0.75,1.5 h 0.75 5.132812 c 0.24525,0 0.393395,0.083 0.533203,0.25195 0.139809,0.16895 0.244141,0.43988 0.244141,0.75391 v 0.70313 h -4.369141 c -1.140482,0 -2.08724,0.55213 -2.666015,1.32812 -0.578775,0.77599 -0.837428,1.74635 -0.833985,2.70899 0.0034,0.96263 0.269111,1.93544 0.861328,2.71093 0.592218,0.7755 1.554348,1.32032 2.714844,1.32032 h 4.214844 v 1.16015 c 0,0.0444 -0.03709,0.14855 -0.193359,0.26758 -0.156266,0.11903 -0.403706,0.20508 -0.583985,0.20508 H 27.15625 c -0.810261,0 -1.3125,-0.58711 -1.3125,-1.4668 v -8.25 c 0,-0.57862 0.164495,-0.99163 0.410156,-1.25976 0.245662,-0.26814 0.587515,-0.4336 1.132813,-0.4336 z"
   id="path120" />
		<path
   style="color:#000000;fill:#ffffff;stroke:none;-inkscape-stroke:none"
   d="m 33.369141,141.4707 c -1.204918,0 -2.19336,1.00938 -2.19336,2.23438 0,1.23609 0.965853,2.29883 2.19336,2.29883 1.227506,0 2.193359,-1.06274 2.193359,-2.29883 0,-1.21288 -0.978913,-2.23438 -2.193359,-2.23438 z m 0,1.5 c 0.393551,0 0.693359,0.29726 0.693359,0.73438 0,0.49791 -0.312867,0.79883 -0.693359,0.79883 -0.380493,0 -0.69336,-0.30092 -0.69336,-0.79883 0,-0.425 0.330278,-0.73438 0.69336,-0.73438 z"
   id="path122" />
		<path
   style="color:#000000;fill:#ffffff;stroke:none;-inkscape-stroke:none"
   d="m 21.476562,141.71875 v 0.75 3.30859 h 9.775391 v -4.05859 z m 1.5,1.5 h 6.775391 v 1.05859 h -6.775391 z"
   id="rect124" />
		<path
   style="color:#000000;fill:#ffffff;stroke:none;-inkscape-stroke:none"
   d="m 33.369141,146.64844 c -1.21831,0 -2.19336,1.03086 -2.19336,2.25586 0,1.22425 0.965853,2.27734 2.19336,2.27734 1.227506,0 2.193359,-1.05309 2.193359,-2.27734 0,-1.21288 -0.965853,-2.25586 -2.193359,-2.25586 z m 0,1.5 c 0.380492,0 0.693359,0.31874 0.693359,0.75586 0,0.46775 -0.312867,0.77734 -0.693359,0.77734 -0.380493,0 -0.69336,-0.30959 -0.69336,-0.77734 0,-0.425 0.343671,-0.75586 0.69336,-0.75586 z"
   id="path126" />
		<path
   style="color:#000000;fill:#ffffff;stroke:none;-inkscape-stroke:none"
   d="m 21.476562,146.89648 v 0.75 3.3086 h 9.775391 v -4.0586 z m 1.5,1.5 h 6.775391 v 1.0586 h -6.775391 z"
   id="rect128" />
		<path
   style="color:#000000;fill:#ffffff;stroke:none;-inkscape-stroke:none"
   d="m 34.861328,122.95313 -0.949219,0.26171 c 0,0 -2.337822,0.64507 -4.8125,1.33399 -2.474678,0.68892 -5.028203,1.40315 -5.658203,1.60547 -1.071835,0.34181 -2.046875,1.28503 -2.046875,2.59179 0,0.73766 0.295799,1.36865 0.707031,1.78711 0.410527,0.41775 0.902342,0.64479 1.341797,0.78321 7.56e-4,2.3e-4 0.0012,0.002 0.002,0.002 0.488863,0.16256 2.129985,0.6128 3.761719,1.06055 0.26835,0.0736 0.264548,0.0723 0.521485,0.14257 -0.255964,0.0697 -0.252268,0.0677 -0.519532,0.14063 -1.636072,0.44635 -3.323712,0.90857 -3.757812,1.04101 l -0.01172,0.004 -0.01172,0.004 c -0.430858,0.14799 -0.917914,0.37966 -1.326172,0.79492 -0.408257,0.41526 -0.707031,1.04053 -0.707031,1.77148 0,1.32103 0.983681,2.2489 2.033203,2.60743 l 0.0078,0.002 0.0059,0.002 c 0.62984,0.20208 3.18561,0.91655 5.660156,1.60547 2.474547,0.68892 4.810547,1.33398 4.810547,1.33398 l 0.949219,0.26172 v -4.26953 l -0.564453,-0.14453 -5.953125,-1.51367 c 0.294524,-0.0773 0.289456,-0.0746 0.599609,-0.15625 1.763096,-0.46404 3.597854,-0.94956 4.142578,-1.11524 0.572155,-0.16583 1.062471,-0.45438 1.396485,-0.8789 0.334894,-0.42564 0.482422,-0.96013 0.482422,-1.49024 0,-0.538 -0.147343,-1.07436 -0.482422,-1.5 -0.335079,-0.42563 -0.822079,-0.71148 -1.386719,-0.88671 l -0.0078,-0.002 -0.0098,-0.004 c -0.643305,-0.18235 -2.749,-0.72698 -4.753906,-1.25 l 6.537109,-1.67774 z m -1.5,1.9707 v 1.11523 l -10.457031,2.68164 c 0.0132,-0.57251 0.385821,-0.94524 0.99414,-1.13867 h 0.002 c 0.462999,-0.14868 3.128995,-0.89956 5.601562,-1.58789 1.984436,-0.55244 3.187824,-0.88485 3.859375,-1.07031 z m -10.357422,4.11328 2.148438,0.55859 c 0,0 6.607765,1.7192 7.503906,1.97266 0.359214,0.11239 0.543661,0.25025 0.646484,0.38086 0.103421,0.13137 0.16211,0.28426 0.16211,0.57226 0,0.27389 -0.05875,0.43114 -0.16211,0.5625 -0.103355,0.13137 -0.281816,0.26481 -0.636718,0.36719 l -0.0059,0.002 -0.0039,0.002 c -0.407221,0.12401 -2.332587,0.63752 -4.095703,1.10156 -1.763117,0.46404 -3.408203,0.89063 -3.408203,0.89063 l 0.0059,1.45312 8.203125,2.08594 v 1.13281 c -0.671484,-0.18547 -1.875034,-0.51787 -3.859375,-1.07031 -2.46641,-0.68665 -5.11415,-1.4325 -5.587891,-1.58399 -0.642476,-0.21947 -1.019531,-0.56853 -1.019531,-1.1875 0,-0.36304 0.102602,-0.54296 0.277344,-0.7207 0.173853,-0.17683 0.448765,-0.32578 0.738281,-0.42578 0.323584,-0.0982 2.067585,-0.57795 3.69336,-1.02149 1.634424,-0.44589 3.175781,-0.86328 3.175781,-0.86328 l 2.673828,-0.72461 -2.673828,-0.72265 c 0,0 -1.539967,-0.41885 -3.173828,-0.86719 -1.633861,-0.44833 -3.437313,-0.95425 -3.697266,-1.04102 l -0.0059,-0.002 -0.0059,-0.002 c -0.281969,-0.0887 -0.552842,-0.23146 -0.724609,-0.40625 -0.103741,-0.10557 -0.121096,-0.29064 -0.167969,-0.44336 z"
   id="path130" />
	</g>
	<path
   style="color:#000000;fill:#ffffff;stroke:none;-inkscape-stroke:none"
   d="m 11.998047,378.23437 c -0.622817,10e-6 -1.220757,0.17634 -1.675781,0.56055 h -0.002 c -0.4555892,0.3862 -0.7167974,0.98675 -0.7167974,1.58594 0,0.49786 0.1733383,1.00276 0.5156254,1.36719 0.191033,0.20338 0.481027,0.26988 0.734375,0.38867 v 0.32617 h 0.751953 l 0.152344,-1.3457 0.123046,0.12304 v 1.4375 l 0.978516,-0.3164 c 0.436897,-0.14081 0.835216,-0.38164 1.117188,-0.73828 0.277447,-0.34879 0.425781,-0.79633 0.425781,-1.23828 0,-0.63327 -0.292717,-1.26572 -0.792969,-1.64844 -0.451645,-0.34634 -1.021118,-0.50196 -1.611328,-0.50196 z m -0.02148,1.91602 c 0.28619,0 0.432896,0.0611 0.511718,0.11914 0.07993,0.0589 0.05469,0.0109 0.05469,0.0957 0,0.12544 0.07246,0.0595 -0.183594,0.15821 l -0.292969,0.11328 -0.289062,-0.0684 c -0.206679,-0.0493 -0.289582,-0.11534 -0.304688,-0.13086 -0.01511,-0.0155 -0.01172,0.0179 -0.01172,-0.0586 0,-0.0882 -0.02025,-0.0514 0.06055,-0.11329 0.08399,-0.0643 0.205391,-0.11523 0.455079,-0.11523 z"
   id="path134" />
	<path
   style="color:#000000;fill:#ffffff;stroke:none;-inkscape-stroke:none"
   d="m 12.003906,381.31641 c -0.633565,0 -1.245446,0.20341 -1.697265,0.61523 h -0.002 c -0.4520942,0.41504 -0.7011724,1.0276 -0.7011724,1.64648 0,0.62326 0.2362096,1.24017 0.6835934,1.66211 h 0.002 c 0.44675,0.41986 1.059792,0.625 1.689453,0.625 0.609402,0 1.199285,-0.17666 1.652343,-0.55273 v -0.002 h 0.002 c 0.499786,-0.41774 0.769531,-1.06941 0.769531,-1.72852 0,-0.6481 -0.261408,-1.2873 -0.748047,-1.70312 l -0.002,-0.002 -0.002,-0.002 c -0.448878,-0.37629 -1.037464,-0.55859 -1.646485,-0.55859 z m 0,1.91211 c 0.252607,0 0.362612,0.0517 0.4375,0.11132 3.14e-4,2.5e-4 0.0016,-2.5e-4 0.002,0 0.07959,0.0643 0.0957,0.0764 0.0957,0.26563 0,0.15274 -0.0088,0.15849 -0.08594,0.22265 -3.91e-4,3.3e-4 -0.0016,-3.2e-4 -0.002,0 -0.09441,0.0779 -0.201061,0.12696 -0.433594,0.12696 -0.247389,0 -0.370439,-0.051 -0.458984,-0.11719 h -0.002 c -0.08514,-0.0643 -0.09375,-0.0652 -0.09375,-0.24609 0,-0.16345 0.01084,-0.17262 0.08984,-0.24024 0.08174,-0.07 0.19066,-0.12304 0.451172,-0.12304 z"
   id="path136" />
	<path
   style="color:#000000;fill:#ffffff;stroke:none;-inkscape-stroke:none"
   d="m 9.6992188,384.85156 v 1.90821 h 0.6835942 l -0.6835942,0.43359 v 0.42773 l -1.2753907,0.79102 h 1.2753907 v 0.40625 h 4.6562502 v -1.90625 H 13.691406 L 14.355469,386.5 v -0.48047 l 1.199219,-0.75976 h -1.199219 v -0.40821 z"
   id="polygon138" />
	<path
   style="color:#000000;fill:#ffffff;stroke:none;-inkscape-stroke:none"
   d="m 12.496094,387.73828 v 1.03906 H 9.6992188 v 1.90821 h 2.7968752 v 1.03125 h 0.75 1.109375 v -3.97852 z"
   id="polygon140" />
	<path
   style="color:#000000;fill:#ffffff;stroke:none;-inkscape-stroke:none"
   d="m 9.6992188,390.69531 v 1.90821 h 1.3554692 v 0.0586 c -0.146894,-0.002 -0.291382,-0.01 -0.44336,0.0176 -0.147137,0.0247 -0.290833,0.0625 -0.425781,0.11328 l -0.4863282,0.18359 v 0.25586 0.75195 h 1.1601562 l -0.146484,0.2129 c 0.0467,-0.0176 0.09255,-0.0297 0.15039,-0.0391 l 0.0078,-0.002 0.0078,-0.002 c 0.0042,-7.7e-4 0.132689,-0.0108 0.31836,-0.002 h 0.002 v 0.41407 c 0.09736,-0.005 0.246456,-0.0145 0.296875,-0.0156 l 0.01953,-0.002 0.02148,-0.002 c 0.19339,-0.0149 0.375696,-0.0311 0.617188,-0.18359 0.01981,-0.0124 0.02105,-0.0266 0.03906,-0.0391 0.188043,0.0847 0.31254,0.28711 0.519532,0.28711 0.399726,0 0.822664,-0.0888 1.152343,-0.39063 l 0.002,-0.002 0.0039,-0.004 c 0.38033,-0.35482 0.484375,-0.84562 0.484375,-1.32226 v -2.19727 z m 1.5117192,1.95703 0.05664,0.002 c -0.02173,-10e-4 -0.03942,0.003 -0.06055,0.002 -0.0057,4.3e-4 0.01148,-0.004 0.0039,-0.004 z m -0.07813,1.80274 c -0.04064,0.0499 -0.163361,0.11761 -0.230469,0.125 l -0.0332,0.004 c 0.08006,-0.005 0.09836,-0.006 0.166015,-0.01 z"
   id="path142" />
	<path
   style="color:#000000;fill:#ffffff;stroke:none;-inkscape-stroke:none"
   d="m 12.003906,393.58398 c -0.633565,0 -1.245446,0.20146 -1.697265,0.61329 l -0.002,0.002 c -0.4520942,0.41504 -0.7011724,1.02759 -0.7011724,1.64648 0,0.62326 0.2362096,1.23821 0.6835934,1.66016 v 0.002 h 0.002 c 0.44675,0.41986 1.059792,0.625 1.689453,0.625 0.609402,0 1.199285,-0.17862 1.652343,-0.55469 h 0.002 c 0.499786,-0.41773 0.769531,-1.0694 0.769531,-1.72851 0,-0.6481 -0.261408,-1.2873 -0.748047,-1.70313 l -0.002,-0.004 -0.002,-0.002 c -0.448878,-0.37628 -1.037464,-0.55664 -1.646485,-0.55664 z m 0,1.91211 c 0.252607,0 0.362612,0.0517 0.4375,0.11133 3.14e-4,2.5e-4 0.0016,-2.5e-4 0.002,0 0.07958,0.0643 0.0957,0.0744 0.0957,0.26367 0,0.15436 -0.0085,0.15849 -0.08789,0.22461 -0.09441,0.0779 -0.201061,0.12696 -0.433594,0.12696 -0.247391,0 -0.370439,-0.053 -0.458984,-0.11914 h -0.002 c -0.08512,-0.0643 -0.09375,-0.0632 -0.09375,-0.24415 0,-0.16344 0.01084,-0.17261 0.08984,-0.24023 0.08174,-0.07 0.19066,-0.12305 0.451172,-0.12305 z"
   id="path144" />
	<path
   style="color:#000000;fill:#ffffff;stroke:none;-inkscape-stroke:none"
   d="m 9.6992188,397.13672 v 3.46094 h 1.8593752 v -1.55469 h 2.796875 v -1.90625 h -0.75 z"
   id="polygon146" />
	<path
   style="color:#000000;fill:#ffffff;stroke:none;-inkscape-stroke:none"
   d="m 27.972656,86.332031 c -1.685781,0 -2.953125,1.537897 -2.953125,3.296875 v 5.617188 c 0,1.758978 1.267344,3.296875 2.953125,3.296875 1.685782,0 2.953125,-1.537897 2.953125,-3.296875 v -5.617188 c 0,-1.758978 -1.267343,-3.296875 -2.953125,-3.296875 z m 0,1.5 c 0.756217,0 1.453125,0.733856 1.453125,1.796875 v 5.617188 c 0,1.063019 -0.696908,1.796875 -1.453125,1.796875 -0.756216,0 -1.453125,-0.733856 -1.453125,-1.796875 v -5.617188 c 0,-1.063019 0.696909,-1.796875 1.453125,-1.796875 z"
   id="path148" />
	<path
   style="color:#000000;fill:#ffffff;stroke:none;-inkscape-stroke:none"
   d="m 27.972656,449.52734 c -1.686191,0 -2.953125,1.53865 -2.953125,3.29688 v 5.61719 c 0,1.75822 1.266934,3.29492 2.953125,3.29492 1.686191,0 2.953125,-1.5367 2.953125,-3.29492 v -5.61719 c 0,-1.75823 -1.266934,-3.29688 -2.953125,-3.29688 z m 0,1.5 c 0.755807,0 1.453125,0.73511 1.453125,1.79688 v 5.61719 c 0,1.06177 -0.697318,1.79492 -1.453125,1.79492 -0.755807,0 -1.453125,-0.73315 -1.453125,-1.79492 v -5.61719 c 0,-1.06177 0.697318,-1.79688 1.453125,-1.79688 z"
   id="path150" />
	
		<linearGradient
   id="SVGID_7_"
   gradientUnits="userSpaceOnUse"
   x1="-138.7316"
   y1="378.40991"
   x2="-137.7316"
   y2="378.40991"
   gradientTransform="matrix(23.1384,0,0,23.1384,3226.5906,-8482.2383)">
		<stop
   offset="0"
   style="stop-color:#4969AA"
   id="stop152" />
		<stop
   offset="1"
   style="stop-color:#98B0D9"
   id="stop154" />
	</linearGradient>
	<path
   style="color:#000000;fill:#ffffff;stroke:none;-inkscape-stroke:none"
   d="m 28.503906,261.23047 c -6.798728,-0.20219 -12.480031,5.22044 -12.679687,12.08203 v 0.002 0.002 c -0.0031,0.11934 -0.0059,0.24061 -0.0059,0.36523 v 0.008 0.01 c 0.15824,6.86271 5.809472,12.31995 12.609375,12.1582 6.575418,-0.15642 11.8753,-5.52147 12.029297,-12.1582 v -0.01 -0.008 c 0.0011,-6.72099 -5.297392,-12.24897 -11.953125,-12.45117 z m -0.04492,1.5 c 5.850941,0.17775 10.496899,5.0141 10.498047,10.94726 -0.143235,5.85391 -4.789471,10.54319 -10.566406,10.67969 -5.979429,0.14224 -10.931467,-4.63107 -11.072266,-10.6914 -1.5e-5,-6.7e-4 1.6e-5,-10e-4 0,-0.002 1.86e-4,-0.10106 0.0032,-0.20263 0.0059,-0.30664 v -0.002 c 0.177374,-6.05945 5.15616,-10.8028 11.134765,-10.625 z m -0.320312,1.16406 c -5.344924,0 -9.685547,4.39539 -9.685547,9.78711 0,5.39172 4.340623,9.78711 9.685547,9.78711 5.344924,0 9.685547,-4.39539 9.685547,-9.78711 0,-5.39172 -4.340623,-9.78711 -9.685547,-9.78711 z m 0,1.5 c 4.525066,0 8.185547,3.69684 8.185547,8.28711 0,4.59027 -3.660481,8.28711 -8.185547,8.28711 -4.525067,0 -8.185547,-3.69684 -8.185547,-8.28711 0,-4.59027 3.66048,-8.28711 8.185547,-8.28711 z"
   id="path157" />
	<path
   style="color:#000000;fill:#ffffff;stroke:none;-inkscape-stroke:none"
   d="m 28.138672,260.76758 c -3.358342,10e-4 -6.659998,1.36596 -9.035156,3.74219 -2.374764,2.37582 -3.742188,5.67634 -3.742188,9.03515 0,3.35898 1.368582,6.65942 3.742188,9.03516 2.374315,2.37644 5.676814,3.74112 9.035156,3.74219 3.362092,0.002 6.657946,-1.36711 9.035156,-3.74219 2.376698,-2.3767 3.742188,-5.67479 3.742188,-9.03516 0,-3.3613 -1.365347,-6.65938 -3.742188,-9.03515 -2.376367,-2.37531 -5.673064,-3.74432 -9.035156,-3.74219 z m 0,2.41601 c 2.70104,-9.3e-4 5.407877,1.10896 7.316406,3.01563 1.907086,1.90708 3.044922,4.64897 3.044922,7.3457 0,2.6962 -1.138443,5.43663 -3.044922,7.34375 -1.908429,1.9075 -4.615194,3.01851 -7.316406,3.01758 -2.694939,-0.002 -5.439081,-1.13932 -7.34375,-3.04492 -1.905186,-1.90612 -3.017578,-4.61734 -3.017578,-7.31641 0,-2.6989 1.113063,-5.4091 3.017578,-7.3164 1.903396,-1.90618 4.648639,-3.04307 7.34375,-3.04493 z"
   id="path159" />
	<path
   style="color:#000000;fill:#ffffff;stroke:none;-inkscape-stroke:none"
   d="m 27.625,266.03711 v 3.05469 h -4.580078 v 9.57031 H 27.625 v 3.08398 l 7.251953,-7.87109 -0.46875,-0.50781 z m 1.5,3.83008 3.710937,4.01172 -3.710937,4.02734 v -0.74414 H 24.544922 V 270.5918 H 29.125 Z m -4.369141,1.20703 v 5.60547 h 4.486328 v -5.60547 h -0.75 z m 1.5,1.5 h 1.486328 v 2.60547 h -1.486328 z"
   id="path161" />
	<path
   style="color:#000000;fill:#ffffff;stroke:none;-inkscape-stroke:none"
   d="m 28.132812,239.46875 c -0.979346,0 -1.789062,0.81167 -1.789062,1.79102 0,0.98021 0.810011,1.78906 1.789062,1.78906 0.979923,0 1.791016,-0.80914 1.791016,-1.78906 0,-0.97906 -0.810799,-1.79102 -1.791016,-1.79102 z m 0,1.5 c 0.169783,0 0.291016,0.12207 0.291016,0.29102 0,0.16807 -0.122939,0.28906 -0.291016,0.28906 -0.168947,0 -0.289062,-0.11928 -0.289062,-0.28906 0,-0.17066 0.11841,-0.29102 0.289062,-0.29102 z"
   id="path163" />
	<path
   style="color:#000000;fill:#ffffff;stroke:none;-inkscape-stroke:none"
   d="m 27.931641,358.80469 c -1.324992,0.001 -2.416016,1.09114 -2.416016,2.41601 -0.0014,1.32644 1.088937,2.41992 2.416016,2.41992 h 0.0039 c 1.327079,0 2.416015,-1.09447 2.416015,-2.41992 -0.0014,-1.32609 -1.094471,-2.41601 -2.419921,-2.41601 z m 0,1.5 c 0.516547,0 0.919361,0.40206 0.919921,0.91797 -0.001,0.51559 -0.401756,0.91796 -0.916015,0.91796 h -0.0039 c -0.51492,0 -0.916576,-0.4024 -0.916016,-0.91796 v -0.002 c 0,-0.51246 0.401962,-0.91442 0.916016,-0.91601 z"
   id="path165" />
	<path
   style="color:#000000;fill:#ffffff;stroke:none;-inkscape-stroke:none"
   d="m 25.355469,381.78711 c -2.759265,0 -5.011719,2.25245 -5.011719,5.01172 v 5.1914 c 0,2.75927 2.252454,5.01172 5.011719,5.01172 h 5.191406 c 2.759265,0 5.011719,-2.25245 5.011719,-5.01172 v -4.4414 -0.75 -0.75 H 35.40625 c -0.377391,-2.39083 -2.365771,-4.26172 -4.859375,-4.26172 z m 0,2.41601 h 5.191406 c 1.442027,0.003 2.592578,1.15393 2.595703,2.59766 v 5.1875 c -0.0023,1.44295 -1.153271,2.59453 -2.597656,2.59766 h -5.189453 c -1.442293,-0.002 -2.591537,-1.15224 -2.595703,-2.59571 v -5.18945 -0.002 c 0.0034,-1.44137 1.152894,-2.59154 2.595703,-2.59571 z"
   id="path167" />
	<path
   style="color:#000000;fill:#ffffff;stroke:none;-inkscape-stroke:none"
   d="m 28.925781,384.38672 v 1.43945 h -4.330078 v 0.75 1.73047 h 4.330078 v 1.43555 h 2.38086 v -5.35547 z"
   id="polygon169" />
	<path
   style="color:#000000;fill:#ffffff;stroke:none;-inkscape-stroke:none"
   d="m 31.306641,388.08984 -0.988282,0.32813 -5.722656,1.9043 v 0.98242 l -0.404297,0.1289 0.404297,0.125 v 0.89258 l 6.710938,2.23828 v -2.63476 l -2.09961,-0.64649 2.09961,-0.66797 z"
   id="polygon171" />
	<path
   style="color:#000000;fill:#ffffff;stroke:none;-inkscape-stroke:none"
   d="m 26.751953,409.61133 0.002,0.15625 c -3.54057,0.37983 -6.288702,3.13329 -6.658203,6.67773 h -0.152344 v 0.7461 0.006 0.002 0.78711 l 0.158203,-0.006 c 0.383066,3.53525 3.131688,6.28141 6.671875,6.65234 v 0.15039 h 0.740235 c 0.0035,10e-6 0.0063,0.002 0.0098,0.002 h 0.75 v -0.15235 c 3.55931,-0.36718 6.325161,-3.13322 6.691407,-6.6914 h 0.152343 l -0.002,-0.74414 v -0.006 -0.77149 l -0.15625,0.002 c -0.380188,-3.54423 -3.137449,-6.29501 -6.685547,-6.66015 v -0.15039 h -0.74414 -0.0059 z m 1.058594,1.19922 -0.01172,0.0117 h 0.02539 l 0.3125,0.3125 -0.476563,0.002 -0.27539,0.004 -0.460938,0.002 0.3125,-0.31446 h 0.0039 l -0.002,-0.004 0.0098,-0.01 z m -0.291016,0.29492 -0.0039,0.006 h 0.0098 z m 0.0039,0.92187 h 0.0059 c 2.861066,0 5.167098,2.30347 5.169922,5.16407 v 0.006 c 0,2.86173 -2.304494,5.16817 -5.166016,5.16992 h -0.0078 c -2.861522,-0.002 -5.166892,-2.30847 -5.166016,-5.16992 v -0.004 c 0.0018,-2.86019 2.305102,-5.16319 5.164062,-5.16602 z m 6.072266,4.57422 0.302734,0.30078 v 0.006 l 0.0039,-0.002 0.0098,0.01 0.0059,0.5625 v 0.002 h -0.002 l -0.01172,-0.0137 v 0.0254 l -0.302735,0.30273 -0.002,-0.51758 -0.002,-0.16992 z m -12.511719,0.25977 0.04883,0.0488 v 0.008 l 0.0039,-0.004 0.02344,0.0215 0.0098,0.5332 -0.0039,0.004 -0.02344,-0.0234 v 0.0469 l -0.04687,0.0469 -0.002,-0.14063 -0.0078,-0.4375 z m 12.53125,0.32226 v 0.01 l 0.0059,-0.006 z"
   id="path173" />
	<path
   style="color:#000000;fill:#ffffff;stroke:none;-inkscape-stroke:none"
   d="m 26.019531,413.51562 c -1.651508,0.44285 -2.822265,1.97388 -2.822265,3.68165 0,1.7085 1.170757,3.23879 2.822265,3.68164 1.65,0.44243 3.42387,-0.29686 4.277344,-1.77344 l 0.371094,-0.64453 -1.951172,-1.15039 -0.378906,0.65625 c -0.299555,0.51857 -1.156802,0.87411 -1.734375,0.71875 h -0.002 v -0.002 c -0.580135,-0.15543 -1.15039,-0.89223 -1.15039,-1.48828 0,-0.59656 0.569174,-1.33272 1.15039,-1.48828 0.577852,-0.15482 1.436774,0.20213 1.736329,0.7207 l 0.378906,0.6543 1.951172,-1.14648 -0.371094,-0.64453 c -0.852604,-1.47852 -2.627596,-2.21776 -4.277344,-1.7754 z"
   id="path175" />
	<path
   style="color:#000000;fill:#ffffff;stroke:none;-inkscape-stroke:none"
   d="m 26.447266,416.05664 v 0.75 1.5332 h 4.810546 v -2.2832 z"
   id="rect177" />
	<path
   style="color:#000000;fill:#ffffff;stroke:none;-inkscape-stroke:none"
   d="m 96.515625,61.003906 v 20.384766 c 0,0.642586 -0.17482,1.025286 -0.445313,1.283203 -0.270492,0.257917 -0.696566,0.431641 -1.353515,0.431641 H 82.533203 v 2.445312 h 0.75 11.433594 c 1.301194,0 2.401449,-0.410982 3.146484,-1.173828 0.745036,-0.762846 1.097657,-1.827523 1.097656,-2.986328 V 61.003906 Z"
   id="path179" />
	<path
   style="color:#000000;fill:#ffffff;stroke:none;-inkscape-stroke:none"
   d="m 83.441406,59.632812 c -1.393263,0 -2.380859,1.250794 -2.380859,2.583985 v 18.642578 c 0,1.333068 0.987572,2.582031 2.380859,2.582031 h 10.910156 c 1.393264,0 2.382813,-1.24884 2.382813,-2.582031 V 62.216797 c 0,-1.333068 -0.989525,-2.583985 -2.382813,-2.583985 z m 0,2.359375 h 10.908203 c -0.06385,-1.56e-4 0.05469,-0.02679 0.05469,0.22461 v 18.642578 c 0,0.249822 -0.120225,0.222656 -0.05273,0.222656 H 83.441406 c 0.06627,0 -0.02148,0.05344 -0.02148,-0.222656 V 62.216797 c 0,-0.276097 0.08775,-0.22461 0.02148,-0.22461 z"
   id="path181" />
	
		<linearGradient
   id="SVGID_8_"
   gradientUnits="userSpaceOnUse"
   x1="-150.1167"
   y1="382.77921"
   x2="-149.1167"
   y2="382.77921"
   gradientTransform="matrix(43.0484,-37.3352,37.3352,43.0484,-7692.3018,-21992.17)">
		<stop
   offset="0"
   style="stop-color:#FFFFFF"
   id="stop183" />
		<stop
   offset="1"
   style="stop-color:#C6C6CE"
   id="stop185" />
	</linearGradient>
	<path
   style="color:#000000;fill:#ffffff;stroke:none;-inkscape-stroke:none"
   d="m 152.42773,46.402344 c -1.5254,0 -2.80273,1.239327 -2.80273,2.777343 v 14.175782 h -14.15234 c -1.5267,0 -2.80079,1.239576 -2.80079,2.777343 v 11.363282 c 0,1.537129 1.27409,2.77539 2.80079,2.77539 H 149.625 v 14.177735 c 0,1.53821 1.27669,2.777344 2.80273,2.777343 h 11.33594 c 1.5267,0 2.80274,-1.239576 2.80274,-2.777343 V 80.271484 h 14.15234 c 1.52605,0 2.80078,-1.237817 2.80078,-2.77539 V 66.132812 c 0,-1.53821 -1.27473,-2.777343 -2.80078,-2.777343 H 166.56641 V 49.179687 c 0,-1.537129 -1.27604,-2.777343 -2.80274,-2.777343 z m 0,1.5 h 11.33594 c 0.7313,0 1.30274,0.558475 1.30274,1.277343 v 15.675782 h 15.65234 c 0.72995,0 1.30078,0.557556 1.30078,1.277343 v 11.363282 c 0,0.718425 -0.57083,1.27539 -1.30078,1.27539 h -15.65234 v 15.677735 c 0,0.72023 -0.57144,1.277344 -1.30274,1.277343 h -11.33594 c -0.72995,0 -1.30273,-0.557556 -1.30273,-1.277343 V 78.771484 h -15.65234 c -0.73131,0 -1.30079,-0.556522 -1.30079,-1.27539 V 66.132812 c 0,-0.72023 0.56948,-1.277343 1.30079,-1.277343 H 151.125 V 49.179687 c 0,-0.717981 0.57414,-1.277343 1.30273,-1.277343 z"
   id="path188" />
	<path
   style="color:#000000;fill:#ffffff;stroke:none;-inkscape-stroke:none"
   d="m 138.14844,70.982422 v 0.75 1.980469 h 9.70898 v -2.730469 z"
   id="rect190" />
	<path
   style="color:#000000;fill:#ffffff;stroke:none;-inkscape-stroke:none"
   d="m 156.72852,51.974609 v 0.75 8.958985 h 2.73242 v -9.708985 z"
   id="rect192" />
	<path
   style="color:#000000;fill:#ffffff;stroke:none;-inkscape-stroke:none"
   d="m 156.72852,81.945312 v 0.75 8.958985 h 2.73242 v -9.708985 z"
   id="rect194" />
	<path
   style="color:#000000;fill:#ffffff;stroke:none;-inkscape-stroke:none"
   d="m 168.33203,70.982422 v 0.75 1.980469 h 9.70899 v -2.730469 z"
   id="rect196" />
	<path
   style="color:#000000;fill:#ffffff;stroke:none;-inkscape-stroke:none"
   d="m 152.41406,46.402344 c -1.52871,0 -2.81054,1.240564 -2.81054,2.783203 v 1.78125 h 11.03125 c 0.72684,0 1.31054,0.569211 1.31054,1.283203 v 15.669922 h 15.64258 c 0.7282,0 1.31055,0.566814 1.31055,1.28125 v 11.060547 h 1.81054 c 1.52916,0 2.8125,-1.241198 2.8125,-2.783203 V 65.388672 h -0.31836 c -0.3651,-1.127963 -1.25813,-2.033203 -2.49609,-2.033203 H 166.56641 V 49.185547 c 0,-1.542196 -1.2812,-2.783203 -2.81055,-2.783203 z m 0,1.5 h 11.3418 c 0.72864,0 1.31055,0.567401 1.31055,1.283203 v 15.669922 h 15.64062 c 0.72685,0 1.3125,0.569211 1.3125,1.283203 v 0.75 h 0.002 v 10.589844 c 0,0.713992 -0.58565,1.283203 -1.3125,1.283203 h -0.31054 v -9.560547 c 0,-1.541562 -1.28075,-2.78125 -2.81055,-2.78125 H 163.44531 V 52.25 c 0,-1.542006 -1.28139,-2.783203 -2.81054,-2.783203 h -9.53125 v -0.28125 c 0,-0.715359 0.58325,-1.283203 1.31054,-1.283203 z m -16.95312,15.453125 c -1.52915,0 -2.8125,1.241197 -2.8125,2.783203 v 1.78125 h 17.79101 v -3.064453 h -0.75 v -1.5 h -0.75 z m 0,1.5 h 13.47851 v 1.564453 h -14.79101 v -0.28125 c 0,-0.713992 0.58565,-1.283203 1.3125,-1.283203 z m 26.48437,14.378906 v 17.980469 h 1.81055 c 1.52935,0 2.81055,-1.241007 2.81055,-2.783203 V 79.234375 h -0.75 z m 1.5,1.5 h 1.6211 v 13.697266 c 0,0.715801 -0.58191,1.283203 -1.31055,1.283203 h -0.31055 z"
   id="path198" />
	<path
   style="color:#000000;fill:#ffffff;stroke:none;-inkscape-stroke:none"
   d="m 152.42578,46.044922 c -2.02323,0 -3.73047,1.651252 -3.73047,3.699219 V 63.160156 H 135.4707 c -2.02397,0 -3.72851,1.652609 -3.72851,3.699219 v 10.638672 c 0,2.04661 1.70454,3.699219 3.72851,3.699219 h -0.0469 l 12.42578,0.769531 0.84766,12.535156 c 0.13408,1.980798 1.70134,3.648438 3.72656,3.648438 h 10.6914 c 2.02398,0 3.73047,-1.651559 3.73047,-3.699219 V 81.199219 h 13.54688 c 2.02397,0 3.72851,-1.653512 3.72851,-3.701172 v -9.888672 h 0.002 v -0.75 c 0,-2.046917 -1.70454,-3.699219 -3.72852,-3.699219 H 166.8457 V 49.744141 c 0,-2.04661 -1.70423,-3.699219 -3.72851,-3.699219 z m -1.45703,2.099609 c -0.22397,0.305352 -0.44141,0.63052 -0.44141,1.033203 v 14.919922 0.166016 h -0.16601 -0.16602 V 49.744141 c 0,-0.64725 0.31646,-1.196122 0.77344,-1.59961 z m 1.45508,0.666016 h 11.33984 c 0.26353,0 0.39649,0.138029 0.39649,0.367187 v 14.919922 1.666016 h 1.66601 14.89258 c 0.26353,0 0.39453,0.138029 0.39453,0.367187 v 11.367188 c 0,0.227522 -0.13178,0.367187 -0.39453,0.367187 h -14.89258 -1.66601 v 1.667969 14.917969 c 0,0.229159 -0.13296,0.367187 -0.39649,0.367187 h -11.33984 c -0.26116,0 -0.39649,-0.140461 -0.39649,-0.367187 V 79.53125 77.865234 h -1.66601 -14.89063 c -0.26353,0 -0.39648,-0.138028 -0.39648,-0.367187 V 66.130859 c 0,-0.229158 0.13295,-0.367187 0.39648,-0.367187 h 14.89063 1.66601 V 64.097656 49.177734 c 0,-0.226726 0.13533,-0.367187 0.39649,-0.367187 z m -18.49219,16.484375 c -0.1521,0.266942 -0.35742,0.510233 -0.35742,0.835937 v 11.367188 c 0,1.02884 0.87401,1.867187 1.89648,1.867187 h 14.89063 0.16601 v 0.166016 14.919922 c 0,1.029273 0.87365,1.867187 1.89649,1.867187 h 11.33984 c 0.36572,0 0.65868,-0.205793 0.95313,-0.390625 -0.41067,0.433717 -0.96887,0.722657 -1.60157,0.722657 h -10.6914 c -1.20478,0 -2.14456,-0.980802 -2.23047,-2.25 l -0.93555,-13.84961 -13.76367,-0.853515 h -0.0234 c -1.20602,0 -2.22851,-0.989832 -2.22851,-2.199219 V 66.859375 c 0,-0.615308 0.27072,-1.164311 0.68945,-1.564453 z m 48.68164,1.541015 c 1e-4,0.0075 0.008,0.012 0.008,0.01953 v 10.642578 c 0,1.210337 -1.02249,2.201172 -2.22851,2.201172 h -14.73242 v -0.166016 -0.167969 h 0.16601 14.89258 c 1.02325,0 1.89453,-0.83871 1.89453,-1.867187 z"
   id="path200" />
	
		<radialGradient
   id="SVGID_9_"
   cx="-155.1545"
   cy="413.64301"
   r="1"
   gradientTransform="matrix(0,-11.0028,10.7853,0,-4304.9238,-1203.9897)"
   gradientUnits="userSpaceOnUse">
		<stop
   offset="0"
   style="stop-color:#656464"
   id="stop202" />
		<stop
   offset="0.6381"
   style="stop-color:#656464"
   id="stop204" />
		<stop
   offset="1"
   style="stop-color:#DCDCDC"
   id="stop206" />
	</radialGradient>
	<path
   style="color:#000000;fill:#ffffff;stroke:none;-inkscape-stroke:none"
   d="m 156.33984,491.47266 c -6.43283,0.004 -11.66086,5.23303 -11.66406,11.66601 -0.003,6.43822 5.22677,11.67453 11.66406,11.67774 h 0.0137 c 6.43737,-0.003 11.67028,-5.2403 11.66601,-11.67774 -0.004,-6.43723 -5.2424,-11.66922 -11.67969,-11.66601 z m 0.002,1.5 c 5.6267,-0.003 10.174,4.53925 10.17773,10.16601 0.004,5.62656 -4.53941,10.17494 -10.16601,10.17774 h -0.0117 c -5.6267,-0.003 -10.16882,-4.54997 -10.16602,-10.17774 0.003,-5.623 4.54286,-10.16228 10.16602,-10.16601 z"
   id="path209" />
	
		<linearGradient
   id="SVGID_10_"
   gradientUnits="userSpaceOnUse"
   x1="-188.7612"
   y1="378.40991"
   x2="-187.7612"
   y2="378.40991"
   gradientTransform="matrix(-11.3073,0,0,-11.3073,-1973.8865,4780.1431)">
		<stop
   offset="0"
   style="stop-color:#FFFFFF"
   id="stop211" />
		<stop
   offset="1"
   style="stop-color:#9EA5AD"
   id="stop213" />
	</linearGradient>
	<path
   style="color:#000000;fill:#ffffff;stroke:none;-inkscape-stroke:none"
   d="m 158.7168,490.54492 c -5.96429,0 -10.81446,4.84915 -10.81446,10.8125 0,5.96336 4.85017,10.81445 10.81446,10.81445 5.96335,0 10.81445,-4.85109 10.81445,-10.81445 0,-5.96326 -4.85017,-10.8125 -10.81445,-10.8125 z m 0,1.5 c 5.1537,0 9.31445,4.15978 9.31445,9.3125 0,5.15264 -4.16182,9.31445 -9.31445,9.31445 -5.15371,0 -9.31446,-4.16181 -9.31446,-9.31445 0,-5.15263 4.16075,-9.3125 9.31446,-9.3125 z"
   id="path216" />
	<path
   style="color:#000000;fill:#ffffff;stroke:none;-inkscape-stroke:none"
   d="m 158.7168,490.06445 c -6.22727,0 -11.29102,5.06469 -11.29102,11.29297 0,5.96138 4.68167,10.73048 10.54102,11.13867 v 0.15235 h 0.75 0.75 v -0.15235 c 5.85933,-0.40726 10.54194,-5.17655 10.54297,-11.13867 0,-6.22726 -5.06485,-11.2919 -11.29297,-11.29297 z m 0,2.45703 c 2.44665,0 4.64666,0.98652 6.24804,2.58789 1.60138,1.60138 2.58985,3.80139 2.58985,6.24805 0,2.44666 -0.98847,4.64862 -2.58985,6.25 -1.60138,1.60138 -3.80139,2.58789 -6.24804,2.58789 -2.44666,0 -4.64752,-0.98633 -6.25,-2.58789 -1.60138,-1.60138 -2.58789,-3.80334 -2.58789,-6.25 0,-2.44666 0.98651,-4.64667 2.58789,-6.24805 1.60258,-1.60166 3.80226,-2.58789 6.25,-2.58789 z"
   id="path218" />
	<path
   style="color:#000000;fill:#ffffff;stroke:none;-inkscape-stroke:none"
   d="m 154.39062,496.91992 v 1.0918 1.53125 l 2.16602,0.78515 v 1.94922 l -2.16602,0.83399 v 2.71094 l 8.65235,-3.54102 v -2.03906 z m 4.4375,4.23633 0.34571,0.12891 -0.34571,0.1289 z"
   id="path220" />
	
		<radialGradient
   id="SVGID_11_"
   cx="-155.1546"
   cy="413.64301"
   r="1"
   gradientTransform="matrix(0,-11.0028,10.7853,0,-4326.5708,-1225.923)"
   gradientUnits="userSpaceOnUse">
		<stop
   offset="0"
   style="stop-color:#656464"
   id="stop222" />
		<stop
   offset="0.6381"
   style="stop-color:#656464"
   id="stop224" />
		<stop
   offset="1"
   style="stop-color:#DCDCDC"
   id="stop226" />
	</radialGradient>
	<path
   style="color:#000000;fill:#ffffff;stroke:none;-inkscape-stroke:none"
   d="m 134.69336,469.53906 c -6.4312,0.003 -11.66175,5.23395 -11.66602,11.66602 -0.003,6.43728 5.22879,11.67542 11.66602,11.67969 h 0.0117 c 6.43731,-0.004 11.66922,-5.24334 11.66601,-11.67969 -0.003,-6.43738 -5.2403,-11.67029 -11.67773,-11.66602 z m 0,1.5 c 5.62655,-0.004 10.17494,4.54136 10.17773,10.16797 0.003,5.62564 -4.53934,10.174 -10.16601,10.17774 h -0.0117 c -5.62676,-0.004 -10.16881,-4.55104 -10.16602,-10.17774 0.004,-5.62192 4.54523,-10.16517 10.16602,-10.16797 z"
   id="path229" />
	
		<linearGradient
   id="SVGID_12_"
   gradientUnits="userSpaceOnUse"
   x1="-188.7612"
   y1="378.40991"
   x2="-187.7612"
   y2="378.40991"
   gradientTransform="matrix(-11.3073,0,0,-11.3073,-1995.5336,4758.21)">
		<stop
   offset="0"
   style="stop-color:#FFFFFF"
   id="stop231" />
		<stop
   offset="1"
   style="stop-color:#9EA5AD"
   id="stop233" />
	</linearGradient>
	<path
   style="color:#000000;fill:#ffffff;stroke:none;-inkscape-stroke:none"
   d="m 137.07031,468.60937 c -5.96428,0 -10.81445,4.8511 -10.81445,10.81446 0,5.96335 4.85008,10.81445 10.81445,10.81445 5.96345,0 10.81446,-4.8511 10.81446,-10.81445 0,-5.96243 -4.85101,-10.81446 -10.81446,-10.81446 z m 0,1.5 c 5.15255,0 9.31446,4.1629 9.31446,9.31446 0,5.15263 -4.16191,9.31445 -9.31446,9.31445 -5.15361,0 -9.31445,-4.16182 -9.31445,-9.31445 0,-5.15264 4.16075,-9.31446 9.31445,-9.31446 z"
   id="path236" />
	<path
   style="color:#000000;fill:#ffffff;stroke:none;-inkscape-stroke:none"
   d="m 137.07031,468.13086 c -6.22735,0 -11.29297,5.06562 -11.29297,11.29297 0,5.96151 4.68336,10.73255 10.54297,11.14062 v 0.15235 h 0.75 0.75 v -0.15235 c 5.85941,-0.40734 10.53999,-5.1785 10.54102,-11.14062 0,-6.22642 -5.06373,-11.2919 -11.29102,-11.29297 z m 0,2.45703 c 2.44647,0 4.64654,0.98731 6.24805,2.58789 1.60166,1.60258 2.58789,3.80139 2.58789,6.24805 0,2.44666 -0.98633,4.64752 -2.58789,6.25 -1.60258,1.60166 -3.80139,2.58789 -6.24805,2.58789 -2.44647,0 -4.64739,-0.98713 -6.25,-2.58789 -1.60156,-1.60248 -2.58789,-3.80334 -2.58789,-6.25 0,-2.44666 0.98623,-4.64547 2.58789,-6.24805 1.60248,-1.60156 3.80335,-2.58789 6.25,-2.58789 z"
   id="path238" />
	<path
   style="color:#000000;fill:#ffffff;stroke:none;-inkscape-stroke:none"
   d="m 132.74414,475.97656 v 3.47461 c 0,0.49896 0.0432,0.94204 0.14453,1.33985 0.0991,0.38751 0.2527,0.74318 0.48047,1.04687 0.24046,0.32062 0.56475,0.56423 0.93359,0.74609 h 0.002 c 0.39021,0.19104 0.8227,0.28907 1.26367,0.28907 0.55662,0 1.10122,-0.1704 1.53711,-0.50196 0.13207,-0.10046 0.16378,-0.28677 0.27148,-0.41211 0.0721,0.0578 0.10464,0.15849 0.1836,0.20704 0.37883,0.23291 0.81643,0.35937 1.25586,0.35937 0.4668,0 0.93189,-0.13909 1.33789,-0.39258 4.2e-4,-2.6e-4 -4.3e-4,-0.002 0,-0.002 0.42293,-0.26259 0.7584,-0.65092 0.95898,-1.10742 0.20712,-0.46995 0.28125,-1.0033 0.28125,-1.61524 v -3.43164 h -7.89844 z m 1.5,1.5 h 0.64844 l 0.19531,0.19531 h -0.84375 z m 4.14648,0.94531 h 0.66016 v 0.67774 c 0,0.47877 -0.0505,0.80859 -0.0664,0.86133 -0.0199,0.0628 -0.0184,0.0553 -0.0547,0.0781 v 0.002 h -0.002 c -0.0538,0.034 -0.10786,0.0547 -0.22461,0.0547 -0.12619,0 -0.15814,-0.022 -0.18164,-0.0391 -0.0171,-0.0127 -0.0454,-0.0331 -0.0801,-0.15039 v -0.004 l -0.002,-0.004 c -0.008,-0.0254 -0.0488,-0.29379 -0.0488,-0.68164 z m -3.30078,0.002 h 0.95703 v 0.90039 c 0,0.41214 -0.0467,0.70361 -0.082,0.81055 -0.0354,0.10716 -0.0642,0.1422 -0.1289,0.1875 -0.0676,0.0467 -0.12987,0.0703 -0.26953,0.0703 -0.12348,0 -0.1901,-0.0223 -0.24219,-0.0508 h -0.002 l -0.002,-0.002 c -0.0772,-0.0415 -0.10023,-0.0695 -0.11523,-0.0937 -0.0301,-0.0486 -0.0675,-0.13656 -0.0937,-0.2832 v -0.002 -0.002 c -0.003,-0.014 -0.0215,-0.21978 -0.0215,-0.50781 z"
   id="path240" />
	
		<radialGradient
   id="SVGID_13_"
   cx="-155.1545"
   cy="413.64801"
   r="1"
   gradientTransform="matrix(0,-11.0012,10.7838,0,-4304.3257,-1247.3937)"
   gradientUnits="userSpaceOnUse">
		<stop
   offset="0"
   style="stop-color:#656464"
   id="stop242" />
		<stop
   offset="0.6381"
   style="stop-color:#656464"
   id="stop244" />
		<stop
   offset="1"
   style="stop-color:#DCDCDC"
   id="stop246" />
	</radialGradient>
	<path
   style="color:#000000;fill:#ffffff;stroke:none;-inkscape-stroke:none"
   d="m 156.35742,447.82422 c -6.4312,0.003 -11.66174,5.23395 -11.66601,11.66601 -0.003,6.43729 5.22863,11.67649 11.66601,11.67969 6.43733,0 11.67188,-5.23649 11.67188,-11.67383 0,-6.43733 -5.23455,-11.67187 -11.67188,-11.67187 z m 0,1.5 c 5.62666,0 10.17188,4.54522 10.17188,10.17187 0,5.62666 -4.54522,10.17383 -10.17188,10.17383 -5.62661,-0.003 -10.16881,-4.55103 -10.16601,-10.17773 0.004,-5.62192 4.54523,-10.16517 10.16601,-10.16797 z"
   id="path249" />
	
		<linearGradient
   id="SVGID_14_"
   gradientUnits="userSpaceOnUse"
   x1="-188.7612"
   y1="378.40991"
   x2="-187.7612"
   y2="378.40991"
   gradientTransform="matrix(-11.3073,0,0,-11.3073,-1973.8685,4736.4951)">
		<stop
   offset="0"
   style="stop-color:#FFFFFF"
   id="stop251" />
		<stop
   offset="1"
   style="stop-color:#9EA5AD"
   id="stop253" />
	</linearGradient>
	<path
   style="color:#000000;fill:#ffffff;stroke:none;-inkscape-stroke:none"
   d="m 158.73437,446.89648 c -5.96428,0 -10.81445,4.8511 -10.81445,10.81446 0,5.96335 4.85017,10.8125 10.81445,10.8125 5.96336,0 10.81446,-4.84915 10.81446,-10.8125 0,-5.96336 -4.8511,-10.81446 -10.81446,-10.81446 z m 0,1.5 c 5.15264,0 9.31446,4.16182 9.31446,9.31446 0,5.15263 -4.16182,9.3125 -9.31446,9.3125 -5.1537,0 -9.31445,-4.15987 -9.31445,-9.3125 0,-5.15264 4.16075,-9.31446 9.31445,-9.31446 z"
   id="path256" />
	<path
   style="color:#000000;fill:#ffffff;stroke:none;-inkscape-stroke:none"
   d="m 158.73437,446.41797 c -6.22726,0 -11.29101,5.06273 -11.29101,11.29101 0,5.96141 4.68163,10.73247 10.54101,11.14063 v 0.15234 h 0.75 0.75 v -0.15234 c 5.8595,-0.4071 10.54195,-5.17839 10.54297,-11.14063 0,-6.22735 -5.06577,-11.28994 -11.29297,-11.29101 z m 0,2.45508 c 2.44666,0 4.64863,0.98651 6.25,2.58789 1.60138,1.60138 2.5879,3.80334 2.5879,6.25 0,2.44665 -0.98652,4.64667 -2.5879,6.24804 -1.60137,1.60138 -3.80334,2.5879 -6.25,2.58789 -2.44665,0 -4.64751,-0.98633 -6.25,-2.58789 -1.60137,-1.60137 -2.58789,-3.80139 -2.58789,-6.24804 0,-2.44666 0.98652,-4.64862 2.58789,-6.25 1.60259,-1.60166 3.80227,-2.58789 6.25,-2.58789 z"
   id="path258" />
	<path
   style="color:#000000;fill:#ffffff;stroke:none;-inkscape-stroke:none"
   d="m 163.05859,453.0293 -5.09765,3.4082 h -2.04883 -0.75195 v 1.49805 l -0.74805,-0.74805 v 1.69531 h 3.54297 l 5.10547,3.53516 v -2.93945 l -2.44141,-1.60743 -0.004,-0.002 c -0.0838,-0.0543 -0.1475,-0.0889 -0.22851,-0.14062 0.0581,-0.0367 0.11577,-0.068 0.17383,-0.10547 l 0.002,-0.002 2.49609,-1.63281 z"
   id="path260" />
	
		<radialGradient
   id="SVGID_15_"
   cx="-155.1545"
   cy="413.64301"
   r="1"
   gradientTransform="matrix(0,-11.0028,10.7853,0,-4283.0596,-1225.9235)"
   gradientUnits="userSpaceOnUse">
		<stop
   offset="0"
   style="stop-color:#656464"
   id="stop262" />
		<stop
   offset="0.6381"
   style="stop-color:#656464"
   id="stop264" />
		<stop
   offset="1"
   style="stop-color:#DCDCDC"
   id="stop266" />
	</radialGradient>
	<path
   style="color:#000000;fill:#ffffff;stroke:none;-inkscape-stroke:none"
   d="m 178.20508,469.53906 c -6.43199,0.004 -11.66282,5.23388 -11.66602,11.66602 -0.003,6.43822 5.22872,11.67453 11.66602,11.67773 h 0.0117 c 6.43738,-0.003 11.66921,-5.24045 11.66601,-11.67773 -0.003,-6.43738 -5.24045,-11.66922 -11.67773,-11.66602 z m 0,1.5 c 5.6267,-0.003 10.17493,4.53941 10.17773,10.16602 0.003,5.6267 -4.5394,10.17493 -10.16601,10.17773 h -0.0117 c -5.62669,-0.003 -10.16882,-4.54996 -10.16602,-10.17773 0.003,-5.62186 4.54401,-10.16229 10.16602,-10.16602 z"
   id="path269" />
	
		<linearGradient
   id="SVGID_16_"
   gradientUnits="userSpaceOnUse"
   x1="-188.7612"
   y1="378.40991"
   x2="-187.7612"
   y2="378.40991"
   gradientTransform="matrix(-11.3073,0,0,-11.3073,-1952.0219,4758.2095)">
		<stop
   offset="0"
   style="stop-color:#FFFFFF"
   id="stop271" />
		<stop
   offset="1"
   style="stop-color:#9EA5AD"
   id="stop273" />
	</linearGradient>
	<path
   style="color:#000000;fill:#ffffff;stroke:none;-inkscape-stroke:none"
   d="m 180.58203,468.60937 c -5.96428,0 -10.81445,4.8511 -10.81445,10.81446 0,5.96335 4.85017,10.81445 10.81445,10.81445 5.96336,0 10.81445,-4.8511 10.81445,-10.81445 0,-5.96336 -4.85109,-10.81445 -10.81445,-10.81446 z m 0,1.5 c 5.15263,0 9.31445,4.16182 9.31445,9.31446 0,5.15263 -4.16182,9.31445 -9.31445,9.31445 -5.1537,0 -9.31445,-4.16182 -9.31445,-9.31445 0,-5.15264 4.16075,-9.31446 9.31445,-9.31446 z"
   id="path276" />
	<path
   style="color:#000000;fill:#ffffff;stroke:none;-inkscape-stroke:none"
   d="m 180.58203,468.13086 c -6.22727,0 -11.29297,5.06468 -11.29297,11.29297 0,5.96149 4.68346,10.73064 10.54297,11.13867 v 0.15234 h 0.75 0.75 v -0.15234 c 5.85934,-0.40727 10.53999,-5.17655 10.54102,-11.13867 0,-6.22735 -5.06382,-11.2919 -11.29102,-11.29297 z m 0,2.45703 c 2.44666,0 4.64667,0.98651 6.24805,2.58789 1.60138,1.60138 2.58984,3.80139 2.58984,6.24805 0,2.44666 -0.98846,4.64667 -2.58984,6.24804 -1.60258,1.60167 -3.80139,2.58985 -6.24805,2.58985 -2.44666,0 -4.64752,-0.98829 -6.25,-2.58985 -1.60138,-1.60137 -2.58789,-3.80138 -2.58789,-6.24804 0,-2.44666 0.98651,-4.64667 2.58789,-6.24805 1.60258,-1.60166 3.80227,-2.58789 6.25,-2.58789 z"
   id="path278" />
	<path
   style="color:#000000;fill:#ffffff;stroke:none;-inkscape-stroke:none"
   d="m 184.9043,475.01953 -4.16407,2.96484 -2.98242,-2.21289 v -0.375 h -3.01953 l 1.51953,1.12891 v 1.14063 l 2.4375,1.7539 -2.4375,1.7207 v 3.01758 l 4.51953,-3.23633 4.12891,3.07618 v -2.89453 l -2.125,-1.61133 2.12305,-1.50391 z"
   id="path280" />
	
		<linearGradient
   id="SVGID_17_"
   gradientUnits="userSpaceOnUse"
   x1="-181.90021"
   y1="378.40991"
   x2="-180.90021"
   y2="378.40991"
   gradientTransform="matrix(-14.2079,0,0,-14.2079,-2474.6599,5831.6187)">
		<stop
   offset="0"
   style="stop-color:#FFFFFF"
   id="stop282" />
		<stop
   offset="1"
   style="stop-color:#C5C7CC"
   id="stop284" />
	</linearGradient>
	<path
   style="color:#000000;fill:#ffffff;stroke:none;-inkscape-stroke:none"
   d="m 102.54688,447.44336 c -4.275193,0.001 -7.755864,3.48159 -7.755864,7.75586 0.0011,4.27416 3.482519,7.75586 7.757814,7.75586 4.27542,0 7.75586,-3.48159 7.75586,-7.75586 0,-4.2744 -3.48146,-7.75586 -7.75586,-7.75586 z m 0,1.5 h 0.002 c 3.46359,0 6.25586,2.79226 6.25586,6.25586 0,3.46372 -2.79129,6.25586 -6.25586,6.25586 -3.464701,0 -6.256919,-2.79203 -6.257814,-6.25586 0,-3.46373 2.791055,-6.25497 6.255864,-6.25586 z"
   id="path287" />
	<path
   style="color:#000000;fill:#ffffff;stroke:none;-inkscape-stroke:none"
   d="m 102.54688,447.01172 c -4.514232,10e-4 -8.189458,3.67615 -8.189458,8.18945 0.001,4.24837 3.295215,7.63918 7.441408,8.03711 v 0.15234 h 0.75 0.75 v -0.15234 c 4.1462,-0.39831 7.43945,-3.79158 7.43945,-8.03906 -0.001,-4.51411 -3.67525,-8.1875 -8.18945,-8.1875 z m 0,2.36523 h 0.002 c 3.22462,0 5.82226,2.59876 5.82226,5.82227 0,1.61363 -0.6494,3.06063 -1.70507,4.11719 -1.05671,1.05582 -2.50356,1.70507 -4.11719,1.70507 -3.224627,0 -5.824221,-2.59875 -5.824221,-5.82226 0,-3.22365 2.597779,-5.82227 5.822271,-5.82227 z"
   id="path289" />
	<path
   style="color:#000000;fill:#ffffff;stroke:none;-inkscape-stroke:none"
   d="m 101.26172,451.30078 v 2.5957 h -2.613283 v 2.60743 h 2.613283 v 2.5957 h 2.5918 v -0.75 -1.8457 h 2.59375 v -2.60743 h -2.59375 v -2.5957 z"
   id="polygon291" />
	
		<linearGradient
   id="SVGID_18_"
   gradientUnits="userSpaceOnUse"
   x1="-181.90021"
   y1="378.40991"
   x2="-180.90021"
   y2="378.40991"
   gradientTransform="matrix(-14.2079,0,0,-14.2079,-2503.0674,5831.6187)">
		<stop
   offset="0"
   style="stop-color:#FFFFFF"
   id="stop293" />
		<stop
   offset="1"
   style="stop-color:#C5C7CC"
   id="stop295" />
	</linearGradient>
	<path
   style="color:#000000;fill:#ffffff;stroke:none;-inkscape-stroke:none"
   d="m 74.138672,447.44336 c -4.274293,0.001 -7.753906,3.48159 -7.753906,7.75586 0,4.2744 3.481461,7.75586 7.755859,7.75586 4.275422,0 7.756964,-3.48136 7.755859,-7.75586 0,-4.2744 -3.481461,-7.75586 -7.755859,-7.75586 z m 0,1.5 h 0.002 c 3.463595,0 6.255859,2.79226 6.255859,6.25586 8.96e-4,3.46349 -2.791289,6.25586 -6.255859,6.25586 -3.463595,0 -6.255859,-2.79227 -6.255859,-6.25586 0,-3.46373 2.790206,-6.25497 6.253906,-6.25586 z"
   id="path298" />
	<path
   style="color:#000000;fill:#ffffff;stroke:none;-inkscape-stroke:none"
   d="m 74.138672,447.01172 c -4.513204,10e-4 -8.189453,3.67513 -8.189453,8.18945 0,4.24857 3.295104,7.63918 7.441406,8.03711 v 0.15234 h 0.75 0.75 v -0.15234 c 4.146068,-0.39826 7.439453,-3.79076 7.439453,-8.03906 0,-4.51433 -3.675249,-8.1875 -8.189453,-8.1875 z m 0,2.36523 h 0.002 c 1.613631,0 3.060628,0.64941 4.117187,1.70508 1.055821,1.05671 1.705079,2.50356 1.705079,4.11719 0,1.61363 -0.649406,3.06063 -1.705079,4.11719 -1.056707,1.05582 -2.503556,1.70507 -4.117187,1.70507 -1.613045,0 -3.060728,-0.65008 -4.117188,-1.70507 -1.05582,-1.05671 -1.707031,-2.50356 -1.707031,-4.11719 0,-3.22463 2.598753,-5.82227 5.822266,-5.82227 z"
   id="path300" />
	<path
   style="color:#000000;fill:#ffffff;stroke:none;-inkscape-stroke:none"
   d="m 72.853516,451.30078 v 0.75 7.04883 h 2.591796 v -7.79883 z"
   id="rect302" />
	<path
   style="color:#000000;fill:#ffffff;stroke:none;-inkscape-stroke:none"
   d="m 62.287109,1.2109375 c -0.0087,0.00199 -0.01673,0.00582 -0.02539,0.00781 v -0.00195 c -0.01197,0.00321 -0.02318,0.00851 -0.03516,0.011719 C 26.59745,9.4586199 0.05078125,44.592885 0.05078125,86.847656 V 461.55859 c 0,48.38373 34.85608775,87.46094 78.21289075,87.46094 H 210.01953 c 22.97658,0 43.55738,-10.99734 57.82617,-28.50781 0.0105,-0.0117 0.0227,-0.0215 0.0332,-0.0332 l -0.002,-0.002 c 0.008,-0.01 0.0175,-0.0176 0.0254,-0.0273 l -1.13867,-0.97266 c -0.008,0.009 -0.017,0.0181 -0.0254,0.0274 -13.86889,15.4409 -33.01276,24.95117 -54.22851,24.95117 H 80.753906 c -42.456292,0 -76.7109373,-38.11099 -76.7109373,-85.56055 V 85.845703 c 0,-40.480837 24.9398383,-74.168415 58.6054683,-83.1796874 z M 20.978516,29.675781 C 9.4884152,44.828877 2.5429687,64.392708 2.5429688,85.845703 V 458.89453 c 0,48.17234 34.8573152,87.06055 78.2109372,87.06055 H 212.50977 c 11.01506,0 21.47484,-2.53572 30.96289,-7.07422 -10.10776,5.48844 -21.42481,8.63867 -33.45313,8.63867 H 78.263672 c -42.455112,0 -76.7128907,-38.29676 -76.7128908,-85.96094 V 86.847656 c 10e-8,-22.027678 7.3681675,-42.003371 19.4277348,-57.171875 z"
   id="path304" />
	
	<g
   id="g354"
   style="fill:#ffffff;stroke:#ffffff;stroke-width:1.5">
		
			<radialGradient
   id="SVGID_19_"
   cx="-94.309303"
   cy="174.0045"
   r="91.216797"
   gradientTransform="rotate(90,143.7317,274.4565)"
   gradientUnits="userSpaceOnUse">
			<stop
   offset="0"
   style="stop-color:#FFFFFF"
   id="stop308" />
			<stop
   offset="1"
   style="stop-color:#B4B4B4"
   id="stop310" />
		</radialGradient>
		<path
   style="color:#000000;fill:#ffffff;stroke:none;-inkscape-stroke:none"
   d="m 220.39844,20.287109 c -15.38715,0 -27.87696,12.48981 -27.87696,27.876953 0,15.387144 12.48981,27.876954 27.87696,27.876954 15.38714,0 27.87695,-12.48981 27.87695,-27.876954 0,-15.387143 -12.48981,-27.876953 -27.87695,-27.876953 z m 0,1.5 c 14.57648,0 26.37695,11.800469 26.37695,26.376953 0,14.576485 -11.80047,26.376954 -26.37695,26.376954 -14.57649,0 -26.37696,-11.800469 -26.37696,-26.376954 0,-14.576484 11.80047,-26.376953 26.37696,-26.376953 z"
   id="circle313" />
		<path
   style="color:#000000;fill:#ffffff;stroke:none;-inkscape-stroke:none"
   d="m 220.39844,26.609375 c -11.89505,0 -21.55469,9.659637 -21.55469,21.554687 0,11.895051 9.65964,21.554688 21.55469,21.554688 11.89505,0 21.55273,-9.659637 21.55273,-21.554688 0,-11.89505 -9.65768,-21.554687 -21.55273,-21.554687 z m 0,1.5 c 11.08439,0 20.05273,8.970296 20.05273,20.054687 0,11.084392 -8.96834,20.054688 -20.05273,20.054688 -11.08439,0 -20.05469,-8.970296 -20.05469,-20.054688 0,-11.084391 8.9703,-20.054687 20.05469,-20.054687 z"
   id="circle315" />
		
			<radialGradient
   id="SVGID_20_"
   cx="-82.560501"
   cy="197.7905"
   r="19.0919"
   gradientTransform="matrix(-0.6494,0.7604,-0.692,-0.591,303.6439,227.8376)"
   gradientUnits="userSpaceOnUse">
			<stop
   offset="0"
   style="stop-color:#FFFFFF"
   id="stop317" />
			<stop
   offset="1"
   style="stop-color:#818080"
   id="stop319" />
		</radialGradient>
		<path
   style="color:#000000;fill:#ffffff;stroke:none;-inkscape-stroke:none"
   d="m 220.39844,28.322266 c -10.94954,0 -19.8418,8.892257 -19.8418,19.841796 0,10.94954 8.89226,19.841797 19.8418,19.841797 10.94954,0 19.84179,-8.892257 19.84179,-19.841797 0,-10.949539 -8.89225,-19.841796 -19.84179,-19.841796 z m 0,1.5 c 10.13888,0 18.34179,8.202917 18.34179,18.341796 0,10.13888 -8.20291,18.341797 -18.34179,18.341797 -10.13888,0 -18.3418,-8.202917 -18.3418,-18.341797 0,-10.138879 8.20292,-18.341796 18.3418,-18.341796 z"
   id="circle322" />
		
			<linearGradient
   id="SVGID_21_"
   gradientUnits="userSpaceOnUse"
   x1="-91.7314"
   y1="206.9613"
   x2="-73.389702"
   y2="188.61971"
   gradientTransform="rotate(90,143.7317,274.4565)">
			<stop
   offset="0"
   style="stop-color:#FFFFFF"
   id="stop324" />
			<stop
   offset="1"
   style="stop-color:#818080"
   id="stop326" />
		</linearGradient>
		<path
   style="color:#000000;fill:#ffffff;stroke:none;-inkscape-stroke:none"
   d="m 220.39844,34.445312 c -7.56791,0 -13.71875,6.150847 -13.71875,13.71875 0,7.567904 6.15084,13.71875 13.71875,13.71875 7.5679,0 13.71875,-6.150846 13.71875,-13.71875 0,-7.567903 -6.15085,-13.71875 -13.71875,-13.71875 z m 0,1.5 c 6.75724,0 12.21875,5.461507 12.21875,12.21875 0,6.757244 -5.46151,12.21875 -12.21875,12.21875 -6.75725,0 -12.21875,-5.461506 -12.21875,-12.21875 0,-6.757243 5.4615,-12.21875 12.21875,-12.21875 z"
   id="circle329" />
		
			<linearGradient
   id="SVGID_22_"
   gradientUnits="userSpaceOnUse"
   x1="-95.468697"
   y1="210.6987"
   x2="-69.652397"
   y2="184.88229"
   gradientTransform="rotate(90,143.7317,274.4565)">
			<stop
   offset="0"
   style="stop-color:#F5F5F4"
   id="stop331" />
			<stop
   offset="1"
   style="stop-color:#C9C6C4"
   id="stop333" />
		</linearGradient>
		<path
   style="color:#000000;fill:#ffffff;stroke:none;-inkscape-stroke:none"
   d="m 220.39844,29.158203 c -10.48728,0 -19.00586,8.518582 -19.00586,19.005859 0,10.487278 8.51858,19.00586 19.00586,19.00586 10.48727,0 19.0039,-8.518582 19.0039,-19.00586 0,-10.487277 -8.51663,-19.005859 -19.0039,-19.005859 z m 0,1.5 c 9.67662,0 17.5039,7.829242 17.5039,17.505859 0,9.676618 -7.82728,17.50586 -17.5039,17.50586 -9.67662,0 -17.50586,-7.829242 -17.50586,-17.50586 0,-9.676617 7.82924,-17.505859 17.50586,-17.505859 z"
   id="circle336" />
		<path
   style="color:#000000;fill:#ffffff;stroke:none;-inkscape-stroke:none"
   d="m 220.39844,34.169922 c -7.71076,0 -13.9961,6.283385 -13.9961,13.99414 0,7.709812 6.28527,13.996094 13.9961,13.996094 7.71075,0 13.99609,-6.285338 13.99609,-13.996094 0,-7.710755 -6.28534,-13.99414 -13.99609,-13.99414 z m 0,1.5 c 6.89723,0 12.49609,5.596911 12.49609,12.49414 0,6.89723 -5.59886,12.496094 -12.49609,12.496094 -6.89716,0 -12.4961,-5.59992 -12.4961,-12.496094 0,-6.897229 5.59887,-12.49414 12.4961,-12.49414 z"
   id="path338" />
		
			<linearGradient
   id="SVGID_23_"
   gradientUnits="userSpaceOnUse"
   x1="-91.521599"
   y1="206.7518"
   x2="-73.599297"
   y2="188.8295"
   gradientTransform="rotate(90,143.7317,274.4565)">
			<stop
   offset="0"
   style="stop-color:#727176"
   id="stop340" />
			<stop
   offset="1"
   style="stop-color:#D7D5D7"
   id="stop342" />
		</linearGradient>
		<path
   style="color:#000000;fill:#ffffff;stroke:none;-inkscape-stroke:none"
   d="m 220.39844,34.736328 c -7.3978,0 -13.42969,6.029933 -13.42969,13.427734 0,7.397802 6.03189,13.429688 13.42969,13.429688 7.3978,0 13.42773,-6.031886 13.42773,-13.429688 0,-7.397801 -6.02993,-13.427734 -13.42773,-13.427734 z m 0,1.5 c 6.58418,0 11.92773,5.34355 11.92773,11.927734 0,6.584185 -5.34355,11.929688 -11.92773,11.929688 -6.58419,0 -11.92969,-5.345503 -11.92969,-11.929688 0,-6.584184 5.3455,-11.927734 11.92969,-11.927734 z"
   id="path345" />
		
			<linearGradient
   id="SVGID_24_"
   gradientUnits="userSpaceOnUse"
   x1="-91.125099"
   y1="189.22591"
   x2="-73.995903"
   y2="206.3551"
   gradientTransform="rotate(90,143.7317,274.4565)">
			<stop
   offset="0"
   style="stop-color:#FFFFFF"
   id="stop347" />
			<stop
   offset="1"
   style="stop-color:#D7D5D7"
   id="stop349" />
		</linearGradient>
		<path
   style="color:#000000;fill:#ffffff;stroke:none;-inkscape-stroke:none"
   d="m 220.39844,35.302734 c -7.0946,0 -12.86328,5.766732 -12.86328,12.861328 0,7.094597 5.76868,12.861329 12.86328,12.861329 7.09459,0 12.86133,-5.766732 12.86133,-12.861329 0,-7.094596 -5.76674,-12.861328 -12.86133,-12.861328 z m 0,1.5 c 6.28393,0 11.36133,5.077392 11.36133,11.361328 0,6.283937 -5.0774,11.361329 -11.36133,11.361329 -6.28394,0 -11.36328,-5.077392 -11.36328,-11.361329 0,-6.283936 5.07934,-11.361328 11.36328,-11.361328 z"
   id="circle352" />
	</g>
	<path
   style="color:#000000;fill:#ffffff;stroke:none;-inkscape-stroke:none"
   d="M 77.833984,-0.74414062 C 34.231724,-0.74414062 -0.75,38.509277 -0.75,87.089844 V 461.82812 c 0,48.58057 34.981724,87.83399 78.583984,87.83399 H 209.61914 c 43.60226,0 78.58398,-39.25342 78.58398,-87.83399 V 87.089844 c 0,-48.580577 -34.98271,-87.83398463 -78.58398,-87.83398462 z m 0,2.30273432 H 209.61914 c 42.20723,0 76.2832,38.0626473 76.2832,85.5312503 V 461.82812 c 0,47.4676 -34.07497,85.53321 -76.2832,85.53321 H 77.833984 c -42.208232,0 -76.2812496,-38.0656 -76.2812496,-85.53321 V 87.089844 c 0,-47.468603 34.0740166,-85.5312503 76.2812496,-85.5312503 z"
   id="path306" /><g
   id="g402"
   style="fill:#ffffff;stroke:#ffffff;stroke-width:1.5">
		
			<radialGradient
   id="SVGID_25_"
   cx="355.20731"
   cy="174.0045"
   r="91.216797"
   gradientTransform="rotate(90,143.7317,274.4565)"
   gradientUnits="userSpaceOnUse">
			<stop
   offset="0"
   style="stop-color:#FFFFFF"
   id="stop356" />
			<stop
   offset="1"
   style="stop-color:#B4B4B4"
   id="stop358" />
		</radialGradient>
		<path
   style="color:#000000;fill:#ffffff;stroke:none;-inkscape-stroke:none"
   d="m 220.39844,469.80469 c -15.38715,0 -27.87696,12.48981 -27.87696,27.87695 0,15.38714 12.48981,27.87695 27.87696,27.87695 15.38714,0 27.87695,-12.48981 27.87695,-27.87695 0,-15.38714 -12.48981,-27.87695 -27.87695,-27.87695 z m 0,1.5 c 14.57648,0 26.37695,11.80047 26.37695,26.37695 0,14.57648 -11.80047,26.37695 -26.37695,26.37695 -14.57649,0 -26.37696,-11.80047 -26.37696,-26.37695 0,-14.57648 11.80047,-26.37695 26.37696,-26.37695 z"
   id="circle361" />
		<path
   style="color:#000000;fill:#ffffff;stroke:none;-inkscape-stroke:none"
   d="m 220.39844,476.12695 c -11.89505,0 -21.55469,9.65964 -21.55469,21.55469 0,11.89505 9.65964,21.55273 21.55469,21.55273 11.89505,0 21.55273,-9.65768 21.55273,-21.55273 0,-11.89505 -9.65768,-21.55469 -21.55273,-21.55469 z m 0,1.5 c 11.08439,0 20.05273,8.9703 20.05273,20.05469 0,11.08439 -8.96834,20.05273 -20.05273,20.05273 -11.08439,0 -20.05469,-8.96834 -20.05469,-20.05273 0,-11.08439 8.9703,-20.05469 20.05469,-20.05469 z"
   id="circle363" />
		
			<radialGradient
   id="SVGID_26_"
   cx="366.95609"
   cy="197.7905"
   r="19.0919"
   gradientTransform="matrix(-0.6494,0.7604,-0.692,-0.591,595.5816,335.539)"
   gradientUnits="userSpaceOnUse">
			<stop
   offset="0"
   style="stop-color:#FFFFFF"
   id="stop365" />
			<stop
   offset="1"
   style="stop-color:#818080"
   id="stop367" />
		</radialGradient>
		<path
   style="color:#000000;fill:#ffffff;stroke:none;-inkscape-stroke:none"
   d="m 220.39844,477.83984 c -10.94954,0 -19.8418,8.89226 -19.8418,19.8418 0,10.94954 8.89226,19.8418 19.8418,19.8418 10.94954,0 19.84179,-8.89226 19.84179,-19.8418 0,-10.94954 -8.89225,-19.8418 -19.84179,-19.8418 z m 0,1.5 c 10.13888,0 18.34179,8.20292 18.34179,18.3418 0,10.13888 -8.20291,18.3418 -18.34179,18.3418 -10.13888,0 -18.3418,-8.20292 -18.3418,-18.3418 0,-10.13888 8.20292,-18.3418 18.3418,-18.3418 z"
   id="circle370" />
		
			<linearGradient
   id="SVGID_27_"
   gradientUnits="userSpaceOnUse"
   x1="357.78519"
   y1="206.9613"
   x2="376.12689"
   y2="188.61971"
   gradientTransform="rotate(90,143.7317,274.4565)">
			<stop
   offset="0"
   style="stop-color:#FFFFFF"
   id="stop372" />
			<stop
   offset="1"
   style="stop-color:#818080"
   id="stop374" />
		</linearGradient>
		<path
   style="color:#000000;fill:#ffffff;stroke:none;-inkscape-stroke:none"
   d="m 220.39844,483.96289 c -7.56791,0 -13.71875,6.15085 -13.71875,13.71875 0,7.5679 6.15084,13.71875 13.71875,13.71875 7.5679,0 13.71875,-6.15085 13.71875,-13.71875 0,-7.5679 -6.15085,-13.71875 -13.71875,-13.71875 z m 0,1.5 c 6.75724,0 12.21875,5.46151 12.21875,12.21875 0,6.75724 -5.46151,12.21875 -12.21875,12.21875 -6.75725,0 -12.21875,-5.46151 -12.21875,-12.21875 0,-6.75724 5.4615,-12.21875 12.21875,-12.21875 z"
   id="circle377" />
		
			<linearGradient
   id="SVGID_28_"
   gradientUnits="userSpaceOnUse"
   x1="354.04791"
   y1="210.6987"
   x2="379.8642"
   y2="184.88229"
   gradientTransform="rotate(90,143.7317,274.4565)">
			<stop
   offset="0"
   style="stop-color:#F5F5F4"
   id="stop379" />
			<stop
   offset="1"
   style="stop-color:#C9C6C4"
   id="stop381" />
		</linearGradient>
		<path
   style="color:#000000;fill:#ffffff;stroke:none;-inkscape-stroke:none"
   d="m 220.39844,478.67578 c -10.48728,0 -19.00586,8.51858 -19.00586,19.00586 0,10.48728 8.51858,19.00391 19.00586,19.00391 10.48727,0 19.0039,-8.51663 19.0039,-19.00391 0,-10.48728 -8.51663,-19.00586 -19.0039,-19.00586 z m 0,1.5 c 9.67662,0 17.5039,7.82924 17.5039,17.50586 0,9.67662 -7.82728,17.50391 -17.5039,17.50391 -9.67662,0 -17.50586,-7.82729 -17.50586,-17.50391 0,-9.67662 7.82924,-17.50586 17.50586,-17.50586 z"
   id="circle384" />
		<path
   style="color:#000000;fill:#ffffff;stroke:none;-inkscape-stroke:none"
   d="m 220.39844,483.68555 c -7.71076,0 -13.9961,6.28533 -13.9961,13.99609 0,7.71076 6.28534,13.99609 13.9961,13.99609 7.71075,0 13.99609,-6.28533 13.99609,-13.99609 0,-7.71076 -6.28534,-13.99609 -13.99609,-13.99609 z m 0,1.5 c 6.89723,0 12.49609,5.59886 12.49609,12.49609 0,6.89723 -5.59886,12.49609 -12.49609,12.49609 -6.89723,0 -12.4961,-5.59886 -12.4961,-12.49609 0,-6.89723 5.59887,-12.49609 12.4961,-12.49609 z"
   id="path386" />
		
			<linearGradient
   id="SVGID_29_"
   gradientUnits="userSpaceOnUse"
   x1="357.995"
   y1="206.7518"
   x2="375.9173"
   y2="188.8295"
   gradientTransform="rotate(90,143.7317,274.4565)">
			<stop
   offset="0"
   style="stop-color:#727176"
   id="stop388" />
			<stop
   offset="1"
   style="stop-color:#D7D5D7"
   id="stop390" />
		</linearGradient>
		<path
   style="color:#000000;fill:#ffffff;stroke:none;-inkscape-stroke:none"
   d="m 220.39844,484.25195 c -7.3978,0 -13.42969,6.03189 -13.42969,13.42969 0,7.3978 6.03189,13.42773 13.42969,13.42773 7.3978,0 13.42773,-6.02993 13.42773,-13.42773 0,-7.3978 -6.02993,-13.42969 -13.42773,-13.42969 z m 0,1.5 c 6.58418,0 11.92773,5.34551 11.92773,11.92969 0,6.58419 -5.34355,11.92773 -11.92773,11.92773 -6.58419,0 -11.92969,-5.34354 -11.92969,-11.92773 0,-6.58418 5.3455,-11.92969 11.92969,-11.92969 z"
   id="path393" />
		
			<linearGradient
   id="SVGID_30_"
   gradientUnits="userSpaceOnUse"
   x1="358.39139"
   y1="189.22591"
   x2="375.5206"
   y2="206.3551"
   gradientTransform="rotate(90,143.7317,274.4565)">
			<stop
   offset="0"
   style="stop-color:#FFFFFF"
   id="stop395" />
			<stop
   offset="1"
   style="stop-color:#D7D5D7"
   id="stop397" />
		</linearGradient>
		<path
   style="color:#000000;fill:#ffffff;stroke:none;-inkscape-stroke:none"
   d="m 220.39844,484.81836 c -7.0946,0 -12.86328,5.76868 -12.86328,12.86328 0,7.0946 5.76868,12.86133 12.86328,12.86133 7.09459,0 12.86133,-5.76673 12.86133,-12.86133 0,-7.0946 -5.76674,-12.86328 -12.86133,-12.86328 z m 0,1.5 c 6.28393,0 11.36133,5.07934 11.36133,11.36328 0,6.28394 -5.0774,11.36133 -11.36133,11.36133 -6.28394,0 -11.36328,-5.07739 -11.36328,-11.36133 0,-6.28394 5.07934,-11.36328 11.36328,-11.36328 z"
   id="circle400" />
	</g>
	<g
   id="g416"
   style="fill:#ffffff;stroke:#ffffff;stroke-width:1.5">
		<path
   style="color:#000000;fill:#ffffff;stroke:none;-inkscape-stroke:none"
   d="m 264.24414,263.1543 c -5.57471,0 -10.10937,4.53466 -10.10937,10.10937 0,5.57471 4.53466,10.10938 10.10937,10.10938 5.57471,0 10.11133,-4.53467 10.11133,-10.10938 0,-5.57471 -4.53662,-10.10937 -10.11133,-10.10937 z m 0,1.5 c 4.76405,0 8.61133,3.84532 8.61133,8.60937 0,4.76405 -3.84728,8.60938 -8.61133,8.60938 -4.76405,0 -8.60937,-3.84533 -8.60937,-8.60938 0,-4.76405 3.84532,-8.60937 8.60937,-8.60937 z"
   id="circle404" />
		<path
   style="color:#000000;fill:#ffffff;stroke:none;-inkscape-stroke:none"
   d="m 264.17773,264.96094 c -4.57726,0.003 -8.29821,3.73342 -8.29492,8.31054 0.003,4.57739 3.73237,8.29822 8.3086,8.29493 h 0.0117 c 4.57727,-0.003 8.30017,-3.73147 8.29688,-8.3086 -0.003,-4.57738 -3.73237,-8.30016 -8.30859,-8.29687 h -0.0117 z m 0.002,1.5 h 0.0117 c 3.76576,-0.003 6.80588,3.03027 6.80859,6.79687 0.003,3.76687 -3.03015,6.80589 -6.79688,6.8086 h -0.0117 c -3.76577,0.003 -6.80589,-3.03027 -6.8086,-6.79688 -0.003,-3.76686 3.03015,-6.80588 6.79688,-6.80859 z"
   id="path406" />
		<path
   style="color:#000000;fill:#ffffff;stroke:none;-inkscape-stroke:none"
   d="m 264.14258,267.06445 c -3.41438,0.003 -6.19563,2.78983 -6.19336,6.20508 0.002,3.41471 2.78878,6.1965 6.20312,6.19531 h 0.002 0.01 c 3.41438,-0.003 6.19563,-2.78983 6.19336,-6.20507 -0.003,-3.41524 -2.78983,-6.19759 -6.20508,-6.19532 h -0.008 z m 0.002,1.5 h 0.008 0.002 c 2.60474,-0.002 4.70053,2.09251 4.70312,4.69727 6.6e-4,2.60382 -2.09236,4.70053 -4.69531,4.70312 h -0.01 c -2.60474,0.002 -4.70139,-2.09264 -4.70312,-4.69726 -0.002,-2.60475 2.09169,-4.70053 4.69531,-4.70313 z"
   id="path408" />
		<path
   style="color:#000000;fill:#ffffff;stroke:none;-inkscape-stroke:none"
   d="m 264.16797,268.91992 c -2.39134,0 -4.3457,1.95542 -4.3457,4.3457 0,2.39054 1.95541,4.34375 4.3457,4.34375 2.39054,0 4.34375,-1.95425 4.34375,-4.34375 0,-2.39083 -1.95267,-4.3457 -4.34375,-4.3457 z m 0,1.5 c 1.58091,0 2.84375,1.26454 2.84375,2.8457 0,1.57851 -1.26429,2.84375 -2.84375,2.84375 -1.57971,0 -2.8457,-1.26429 -2.8457,-2.84375 0,-1.5797 1.26504,-2.8457 2.8457,-2.8457 z"
   id="path410" />
		<path
   style="color:#000000;fill:#ffffff;stroke:none;-inkscape-stroke:none"
   d="m 263.60937,269.54687 c -2.04442,0 -3.71875,1.67237 -3.71875,3.7168 0,2.04443 1.67433,3.71875 3.71875,3.71875 2.04443,0 3.7168,-1.67432 3.7168,-3.71875 0,-2.04443 -1.67237,-3.71679 -3.7168,-3.7168 z m 0,1.5 c 1.23357,0 2.2168,0.98323 2.2168,2.2168 0,1.23357 -0.98323,2.21875 -2.2168,2.21875 -1.23356,0 -2.21874,-0.98518 -2.21875,-2.21875 0,-1.23357 0.98519,-2.21679 2.21875,-2.2168 z"
   id="path412" />
		<path
   style="color:#000000;fill:#ffffff;stroke:none;-inkscape-stroke:none"
   d="m 263.61719,271.95117 c -0.71585,0 -1.31446,0.59861 -1.31446,1.31445 0,0.71615 0.59861,1.3125 1.31446,1.3125 0.71614,0 1.3125,-0.59635 1.3125,-1.3125 0,-0.71584 -0.59636,-1.31445 -1.3125,-1.31445 z m 0,1.12695 c 0.0918,0 0.18554,0.0934 0.18554,0.1875 0,0.0918 -0.0937,0.18555 -0.18554,0.18555 -0.0942,0 -0.1875,-0.0937 -0.1875,-0.18555 0,-0.0941 0.0933,-0.1875 0.1875,-0.1875 z"
   id="path414" />
	</g>
</g>
</svg>
