<?xml version="1.0" encoding="UTF-8" standalone="no"?>
<svg
   viewBox="0 0 71.765001 31.694002"
   version="1.1"
   id="svg32"
   sodipodi:docname="x1_controller.svg"
   width="71.764999"
   height="31.694"
   inkscape:version="1.1.2 (0a00cf5339, 2022-02-04)"
   xmlns:inkscape="http://www.inkscape.org/namespaces/inkscape"
   xmlns:sodipodi="http://sodipodi.sourceforge.net/DTD/sodipodi-0.dtd"
   xmlns="http://www.w3.org/2000/svg"
   xmlns:svg="http://www.w3.org/2000/svg">
  <defs
     id="defs36" />
  <sodipodi:namedview
     id="namedview34"
     pagecolor="#ffffff"
     bordercolor="#666666"
     borderopacity="1.0"
     inkscape:pageshadow="2"
     inkscape:pageopacity="0.0"
     inkscape:pagecheckerboard="true"
     showgrid="false"
     inkscape:zoom="11.502135"
     inkscape:cx="56.120018"
     inkscape:cy="-3.9992577"
     inkscape:window-width="2560"
     inkscape:window-height="1440"
     inkscape:window-x="1920"
     inkscape:window-y="0"
     inkscape:window-maximized="1"
     inkscape:current-layer="svg32"
     fit-margin-top="0"
     fit-margin-left="0"
     fit-margin-right="0"
     fit-margin-bottom="0" />
  <path
     d="m 70.948,14.163 c 0.367,0 0.667,0.3 0.667,0.667 v 14.315 c 0,1.325 -1.007,2.399 -2.252,2.399 H 2.401 c -1.243,0 -2.25099999,-1.074 -2.25099999,-2.399 V 2.549 C 0.15000001,1.224 1.158,0.15000001 2.401,0.15000001 h 66.962 c 1.244,0 2.252,1.07399999 2.252,2.39899999 v 3.233 a 0.669,0.669 0 0 1 -0.667,0.667 h -0.096 v 7.713 h 0.096"
     fill="#0c0e0d"
     id="path2"
     style="fill:none;stroke:#ffffff;stroke-width:0.3;stroke-miterlimit:4;stroke-dasharray:none;stroke-opacity:1" />
  <path
     d="M 3.116,1.577 H 68.65 a 2.192,2.192 0 0 1 2.203,2.181 V 27.935 A 2.192,2.192 0 0 1 68.65,30.117 H 3.116 c -1.217,0 -2.20399999,-0.977 -2.20399999,-2.182 V 3.759 C 0.91200001,2.554 1.899,1.577 3.116,1.577"
     fill="#1c1d1e"
     id="path4"
     style="fill:none;stroke:#ffffff;stroke-width:0.3;stroke-miterlimit:4;stroke-dasharray:none;stroke-opacity:1" />
  <path
     d="m 3.363,3.456 h 64.624 c 0.692,0 1.254,0.559 1.254,1.248 v 22.285 a 1.25,1.25 0 0 1 -1.254,1.248 H 3.363 c -0.692,0 -1.254,-0.559 -1.254,-1.248 V 4.704 c 0,-0.689 0.562,-1.248 1.254,-1.248"
     fill="#bfbfb4"
     id="path6"
     style="fill:none;stroke:#ffffff;stroke-width:0.3;stroke-miterlimit:4;stroke-dasharray:none;stroke-opacity:1" />
  <path
     d="M 9.664,9.307 H 8.622 V 8.702 H 8.085 v 1.584 H 8.623 V 9.649 h 1.042 v 0.637 h 0.538 V 8.702 H 9.664 V 9.307 M 11.1,9.649 11.475,9.034 11.838,9.649 H 11.1 m 0.166,-0.947 -0.965,1.584 h 0.411 L 10.91,9.962 h 1.113 l 0.191,0.325 h 0.657 L 11.907,8.703 h -0.641 m 3.74,0.685 C 15.135,9.22 15.117,8.974 14.87,8.833 14.641,8.701 14.204,8.653 13.93,8.653 c -0.438,0 -0.719,0.03 -0.959,0.07 v 1.563 h 0.538 V 8.961 c 0.153,-0.029 0.309,-0.041 0.465,-0.036 0.213,0.009 0.333,0.042 0.43,0.111 0.099,0.07 0.126,0.227 -0.003,0.335 -0.097,0.081 -0.292,0.145 -0.729,0.078 l -0.063,0.102 0.827,0.734 h 0.733 L 14.433,9.648 C 14.61,9.626 14.878,9.556 15.006,9.388 M 6.905,9.249 C 6.594,9.189 6.33,9.152 6.33,9.051 6.33,8.94 6.543,8.91 6.846,8.943 7.124,8.973 7.397,9.045 7.654,9.155 L 7.845,8.842 C 7.642,8.764 7.222,8.665 6.842,8.654 6.425,8.642 5.721,8.679 5.691,9.101 5.663,9.487 6.213,9.58 6.574,9.664 6.926,9.746 7.256,9.775 7.256,9.897 7.256,9.982 7.14,10.05 6.832,10.026 6.462,9.998 6.147,9.897 5.833,9.741 l -0.208,0.343 a 3.72,3.72 0 0 0 1.217,0.252 C 7.331,10.344 7.884,10.265 7.896,9.846 7.904,9.495 7.542,9.373 6.905,9.249 m 9.84,0.127 C 16.652,9.452 16.516,9.479 16.302,9.478 16.149,9.474 15.996,9.455 15.847,9.418 V 8.961 c 0.154,-0.029 0.311,-0.041 0.468,-0.036 0.214,0.009 0.34,0.045 0.433,0.111 0.097,0.068 0.129,0.231 -0.003,0.34 m 0.47,-0.542 c -0.219,-0.13 -0.629,-0.18 -0.944,-0.18 -0.438,0 -0.723,0.03 -0.962,0.07 v 1.563 h 0.538 V 9.715 a 3.45,3.45 0 0 0 0.555,0.042 c 0.44,-0.003 0.768,-0.106 0.917,-0.269 0.211,-0.232 0.14,-0.51 -0.104,-0.654"
     fill="#040006"
     id="path8"
     style="fill:none;stroke:#ffffff;stroke-width:0.3;stroke-miterlimit:4;stroke-dasharray:none;stroke-opacity:1" />
  <path
     fill="#668ecc"
     d="m 39.342,5.995 h 28.565 v 4.341 H 39.342 V 5.995"
     id="path10"
     style="fill:none;stroke:#ffffff;stroke-width:0.3;stroke-miterlimit:4;stroke-dasharray:none;stroke-opacity:1" />
  <path
     fill="#58a08f"
     d="m 39.198,5.995 h 11.184 l -2.455,4.34 h -8.729 v -4.34"
     id="path12"
     style="fill:none;stroke:#ffffff;stroke-width:0.3;stroke-miterlimit:4;stroke-dasharray:none;stroke-opacity:1" />
  <path
     d="m 40.125,9.791 0.987,-1.077 0.622,1.077 H 40.125 M 41.078,8.655 41.121,8.63 41.078,8.655 m 0.052,-0.109 -0.046,0.05 -1.187,1.295 h 2.01 L 41.13,8.546 m 1.255,1.245 -1.573,-2.806 1.92,-0.013 1.417,2.539 h 1.186 l 1.173,-2.032 h -0.83 L 46.182,6.974 H 48.54 L 46.913,9.791 H 42.385 M 42.717,6.945 42.761,6.921 42.717,6.945 M 42.79,6.871 h -0.03 l -2.119,0.015 1.685,3.005 H 46.97 L 48.712,6.874 H 46.14 l -0.619,0.619 -0.085,0.085 h 0.898 L 45.277,9.41 h -1.07 L 42.79,6.871"
     fill="#010202"
     id="path14"
     style="fill:none;stroke:#ffffff;stroke-width:0.3;stroke-miterlimit:4;stroke-dasharray:none;stroke-opacity:1" />
  <path
     d="M 43.309,6.978 45.045,6.971 43.934,8.117 43.309,6.978 m 1.973,-0.108 -2.141,0.009 0.04,0.074 0.044,-0.024 -0.044,0.024 0.73,1.331 1.371,-1.414"
     fill="#010202"
     id="path16"
     style="fill:none;stroke:#ffffff;stroke-width:0.3;stroke-miterlimit:4;stroke-dasharray:none;stroke-opacity:1" />
  <path
     d="M 49.973,9.914 V 9.752 h 0.321 c 0.186,0 0.34,-0.053 0.463,-0.159 0.151,-0.126 0.228,-0.31 0.228,-0.553 V 6.915 h 0.18 v 2.184 c 0,0.257 -0.087,0.46 -0.262,0.608 a 0.876,0.876 0 0 1 -0.591,0.206 h -0.339 z m 3.157,0.051 c -0.423,0 -0.782,-0.151 -1.079,-0.454 A 1.526,1.526 0 0 1 51.61,8.415 c 0,-0.426 0.146,-0.79 0.44,-1.093 0.298,-0.305 0.657,-0.458 1.08,-0.458 0.426,0 0.786,0.153 1.083,0.458 a 1.505,1.505 0 0 1 0.446,1.093 c 0,0.425 -0.148,0.791 -0.445,1.096 A 1.46,1.46 0 0 1 53.13,9.965 Z m 0,-0.162 c 0.374,0 0.691,-0.136 0.95,-0.407 0.26,-0.274 0.39,-0.601 0.39,-0.98 0,-0.38 -0.13,-0.706 -0.39,-0.977 C 53.821,7.165 53.504,7.027 53.13,7.027 a 1.25,1.25 0 0 0 -0.951,0.412 1.379,1.379 0 0 0 -0.381,0.977 1.39,1.39 0 0 0 0.381,0.98 1.263,1.263 0 0 0 0.951,0.407 z m 3.595,-2.887 h 0.18 v 0.818 a 0.946,0.946 0 0 1 -0.253,0.681 0.77,0.77 0 0 1 -0.573,0.248 v 1.25 H 55.898 V 8.663 A 0.77,0.77 0 0 1 55.325,8.415 0.946,0.946 0 0 1 55.072,7.734 V 6.916 h 0.18 v 0.831 a 0.748,0.748 0 0 0 0.206,0.548 0.716,0.716 0 0 0 0.53,0.205 c 0.218,0 0.395,-0.068 0.532,-0.205 a 0.75,0.75 0 0 0 0.205,-0.548 z m 2.927,2.843 v 0.155 h -0.381 c -0.4,0 -0.74,-0.128 -1.02,-0.385 -0.309,-0.283 -0.463,-0.654 -0.463,-1.114 0,-0.46 0.154,-0.831 0.463,-1.114 0.279,-0.257 0.619,-0.386 1.02,-0.386 h 0.385 v 0.154 h -0.351 c -0.349,0 -0.648,0.11 -0.899,0.33 -0.286,0.248 -0.429,0.586 -0.429,1.015 0,0.428 0.143,0.766 0.429,1.015 0.251,0.22 0.551,0.33 0.899,0.33 z m 2.446,-1.862 v 2.017 h -0.18 V 8.45 H 60.385 V 8.296 h 1.533 V 7.841 C 61.918,7.59 61.84,7.392 61.683,7.246 61.529,7.1 61.323,7.027 61.066,7.027 c -0.257,0 -0.464,0.073 -0.621,0.219 -0.154,0.146 -0.23,0.344 -0.23,0.595 V 9.914 H 60.034 V 7.897 c 0,-0.323 0.093,-0.576 0.278,-0.758 0.185,-0.182 0.438,-0.274 0.754,-0.274 0.317,0 0.568,0.091 0.754,0.274 0.186,0.183 0.278,0.435 0.278,0.758 z m 0.733,2.017 h -0.18 V 7.807 c 0,-0.286 0.08,-0.514 0.24,-0.686 0.163,-0.171 0.38,-0.257 0.651,-0.257 0.271,0 0.491,0.073 0.659,0.218 a 0.705,0.705 0 0 1 0.257,0.561 c 0,0.386 -0.164,0.635 -0.492,0.75 v 0.009 c 0.168,0.028 0.303,0.103 0.402,0.223 0.099,0.12 0.149,0.275 0.149,0.467 V 9.914 H 64.329 V 9.066 A 0.529,0.529 0 0 0 64.166,8.659 C 64.043,8.548 63.86,8.492 63.618,8.492 H 63.001 V 8.338 h 0.488 c 0.254,0 0.45,-0.063 0.587,-0.188 0.128,-0.117 0.192,-0.28 0.192,-0.488 A 0.574,0.574 0 0 0 64.063,7.204 0.769,0.769 0 0 0 63.541,7.028 c -0.226,0 -0.401,0.07 -0.527,0.21 -0.123,0.14 -0.185,0.327 -0.185,0.562 v 2.114 z m 2.385,0 h -0.18 V 6.916 h 0.65 c 0.412,0 0.765,0.139 1.059,0.416 0.308,0.289 0.462,0.65 0.462,1.084 0,0.445 -0.136,0.806 -0.406,1.083 A 1.341,1.341 0 0 1 65.798,9.915 H 65.365 V 9.753 h 0.416 c 0.374,0 0.678,-0.136 0.912,-0.407 C 66.91,9.092 67.018,8.782 67.018,8.417 67.018,8.04 66.885,7.723 66.62,7.466 66.354,7.209 66.02,7.08 65.618,7.08 H 65.216 Z M 9.987,13.039 a 0.54,0.54 0 0 0 -0.533,0.555 v 3.817 H 5.638 a 0.557,0.557 0 0 0 -0.555,0.554 v 3.071 a 0.557,0.557 0 0 0 0.555,0.554 h 3.817 v 3.817 a 0.521,0.521 0 0 0 0.533,0.533 h 3.092 c 0.304,0 0.533,-0.229 0.533,-0.533 V 21.59 h 3.817 c 0.304,0 0.554,-0.25 0.554,-0.554 v -3.071 c 0,-0.304 -0.25,-0.554 -0.554,-0.554 H 13.613 V 13.594 A 0.54,0.54 0 0 0 13.08,13.039 Z"
     id="path18"
     style="fill:none;stroke:#ffffff;stroke-width:0.3;stroke-miterlimit:4;stroke-dasharray:none;stroke-opacity:1" />
  <path
     d="m 10.094,13.52 a 0.168,0.168 0 0 0 -0.171,0.17 v 4.166 H 5.758 a 0.167,0.167 0 0 0 -0.17,0.17 v 2.935 a 0.174,0.174 0 0 0 0.17,0.178 h 4.166 v 4.159 a 0.175,0.175 0 0 0 0.171,0.178 h 2.942 c 0.097,0 0.171,-0.082 0.171,-0.178 v -4.159 h 4.166 c 0.096,0 0.17,-0.082 0.17,-0.178 v -2.935 c 0,-0.096 -0.074,-0.17 -0.17,-0.17 H 13.208 V 13.69 c 0,-0.096 -0.074,-0.17 -0.171,-0.17 z"
     fill="#191919"
     id="path20"
     style="fill:none;stroke:#ffffff;stroke-width:0.3;stroke-miterlimit:4;stroke-dasharray:none;stroke-opacity:1" />
  <path
     fill="#040006"
     d="m 7.232,18.28 -0.02,-0.02 -0.619,0.619 -0.64,0.64 0.64,0.64 0.667,0.667 V 20.415 H 8.499 V 18.624 H 7.26 v -0.413 l -0.048,0.049 0.02,0.02 H 7.204 v 0.4 h 1.239 v 1.678 H 7.204 v 0.331 l -0.571,-0.57 -0.6,-0.6 0.6,-0.6 L 7.252,18.3 7.232,18.28 H 7.204 Z m 8.653,0 -0.02,0.02 0.62,0.619 0.599,0.6 -0.599,0.6 -0.572,0.57 V 20.358 H 14.674 V 18.68 h 1.239 v -0.4 h -0.028 l -0.02,0.02 0.02,-0.02 h -0.028 v 0.344 h -1.24 v 1.791 h 1.24 v 0.411 l 0.668,-0.667 0.639,-0.64 -0.639,-0.64 -0.668,-0.668 v 0.069 z m -3.1,-3.13 0.02,-0.02 -0.619,-0.619 -0.64,-0.639 -0.639,0.639 -0.668,0.668 h 0.412 v 1.239 h 1.791 v -1.239 h 0.412 l -0.049,-0.049 -0.02,0.02 v -0.028 h -0.4 v 1.239 h -1.678 v -1.239 h -0.331 l 0.57,-0.571 0.6,-0.6 0.6,0.6 0.619,0.619 0.02,-0.02 v -0.028 z m 0,8.785 -0.02,-0.021 -0.619,0.62 -0.6,0.6 -0.6,-0.6 -0.57,-0.571 h 0.331 v -1.239 h 1.678 v 1.239 h 0.4 v -0.028 l -0.02,-0.021 0.02,0.021 v -0.029 h -0.343 v -1.239 h -1.791 v 1.239 h -0.412 l 0.668,0.668 0.639,0.64 0.64,-0.64 0.668,-0.668 h -0.069 z m 0.268,-4.436 H 13.012 V 19.5 a 1.445,1.445 0 0 1 -1.444,1.445 h -10e-4 c -0.798,0 -1.445,-0.646 -1.445,-1.444 v -0.003 h -0.006 0.005 -0.005 0.005 a 1.445,1.445 0 0 1 2.889,-0.001 v 0.002 h 0.085 v -0.002 a 1.53,1.53 0 0 0 -1.528,-1.528 h -0.002 l 0.001,0.042 v -0.042 a 1.528,1.528 0 0 0 -1.527,1.528 v 0.002 l 0.042,-10e-4 H 10.038 V 19.5 c 0,0.844 0.685,1.527 1.528,1.527 h 10e-4 a 1.528,1.528 0 0 0 1.527,-1.528 v -10e-4 h -0.041 z"
     id="path22"
     style="fill:none;stroke:#ffffff;stroke-width:0.3;stroke-miterlimit:4;stroke-dasharray:none;stroke-opacity:1" />
  <path
     fill="#0c0e0d"
     d="M 69.522,11.179 V 8.585 h 1.099 v 2.594 z"
     id="path24"
     style="fill:none;stroke:#ffffff;stroke-width:0.3;stroke-miterlimit:4;stroke-dasharray:none;stroke-opacity:1" />
  <path
     d="m 48.564,14.342 h 0.163 v 1.983 a 0.933,0.933 0 0 0 0.235,0.634 0.766,0.766 0 0 0 1.161,0.009 0.898,0.898 0 0 0 0.248,-0.642 0.9,0.9 0 0 0 -0.248,-0.643 0.766,0.766 0 0 0 -0.57,-0.261 c -0.233,0 -0.445,0.098 -0.634,0.295 v -0.193 c 0.209,-0.171 0.42,-0.257 0.634,-0.257 0.28,0 0.515,0.102 0.703,0.304 a 1.05,1.05 0 0 1 0.287,0.754 c 0,0.302 -0.096,0.555 -0.287,0.758 a 0.926,0.926 0 0 1 -0.703,0.3 c -0.279,0 -0.515,-0.1 -0.706,-0.3 -0.188,-0.203 -0.283,-0.456 -0.283,-0.758 z m 12.631,2.976 h -0.163 v -1.015 c 0,-0.243 -0.078,-0.454 -0.235,-0.634 -0.157,-0.18 -0.354,-0.27 -0.591,-0.27 a 0.745,0.745 0 0 0 -0.562,0.257 c -0.171,0.177 -0.257,0.393 -0.257,0.646 0,0.253 0.086,0.47 0.257,0.647 a 0.747,0.747 0 0 0 0.562,0.257 c 0.233,0 0.445,-0.099 0.634,-0.295 v 0.193 c -0.206,0.171 -0.417,0.257 -0.634,0.257 -0.28,0 -0.516,-0.1 -0.707,-0.3 -0.188,-0.203 -0.283,-0.456 -0.283,-0.758 0,-0.302 0.095,-0.554 0.283,-0.753 a 0.932,0.932 0 0 1 0.707,-0.304 0.919,0.919 0 0 1 0.702,0.304 c 0.191,0.2 0.287,0.451 0.287,0.753 z"
     fill="#040006"
     id="path26"
     style="fill:none;stroke:#ffffff;stroke-width:0.3;stroke-miterlimit:4;stroke-dasharray:none;stroke-opacity:1" />
  <path
     d="m 49.553,17.857 a 4.1065,4.1065 0 1 1 0,8.213 4.1065,4.1065 0 0 1 0,-8.213 z m 10.653,0.018 a 4.1065,4.1065 0 1 1 0,8.213 4.1065,4.1065 0 0 1 0,-8.213 z"
     id="path28"
     style="fill:none;stroke:#ffffff;stroke-width:0.3;stroke-miterlimit:4;stroke-dasharray:none;stroke-opacity:1" />
  <path
     d="m 49.553,18.419 a 3.546,3.546 0 1 1 0,7.091 3.546,3.546 0 0 1 0,-7.091 z m 10.653,0.018 a 3.545,3.545 0 1 1 0,7.09 3.545,3.545 0 0 1 0,-7.09 z"
     fill="#1a1d22"
     id="path30"
     style="fill:none;stroke:#ffffff;stroke-width:0.3;stroke-miterlimit:4;stroke-dasharray:none;stroke-opacity:1" />
</svg>
