<?xml version="1.0" encoding="UTF-8" standalone="no"?>
<svg
   enable-background="new 0 0 394.448 403.24"
   viewBox="0 0 398.67594 406.74464"
   version="1.1"
   id="svg160"
   sodipodi:docname="zx81_controller.svg"
   inkscape:version="1.1.2 (0a00cf5339, 2022-02-04)"
   width="398.67593"
   height="406.74463"
   xmlns:inkscape="http://www.inkscape.org/namespaces/inkscape"
   xmlns:sodipodi="http://sodipodi.sourceforge.net/DTD/sodipodi-0.dtd"
   xmlns="http://www.w3.org/2000/svg"
   xmlns:svg="http://www.w3.org/2000/svg">
  <defs
     id="defs164" />
  <sodipodi:namedview
     id="namedview162"
     pagecolor="#ffffff"
     bordercolor="#666666"
     borderopacity="1.0"
     inkscape:pageshadow="2"
     inkscape:pageopacity="0.0"
     inkscape:pagecheckerboard="true"
     showgrid="false"
     inkscape:zoom="2.0384883"
     inkscape:cx="42.923965"
     inkscape:cy="258.27963"
     inkscape:window-width="1264"
     inkscape:window-height="1389"
     inkscape:window-x="3204"
     inkscape:window-y="8"
     inkscape:window-maximized="1"
     inkscape:current-layer="g90"
     fit-margin-top="0"
     fit-margin-left="0"
     fit-margin-right="0"
     fit-margin-bottom="0" />
  <g
     clip-rule="evenodd"
     fill-rule="evenodd"
     id="g90"
     transform="translate(2.2267136,2.0044071)">
    <path
       style="color:#000000;fill:#ffffff;stroke:#ffffff;stroke-width:1;stroke-miterlimit:4.10345;stroke-dasharray:none;stroke-opacity:1"
       d="M 12.441406,-1 C 7.9030201,-1 4.7957818,-1.0605513 2.5742188,-0.50976562 1.4634372,-0.23437281 0.52119962,0.23237708 -0.11523437,1.0292969 -0.75166837,1.8262167 -1,2.8589358 -1,4.0292969 V 394.61523 c 0,2.09708 0.19619717,4.46929 1.5546875,6.40625 1.3584903,1.93697 3.8699704,3.21875 7.8359375,3.21875 7.526992,0 370.133755,-9.5e-4 377.666015,-0.002 3.96597,0 6.4794,-1.27983 7.83789,-3.2168 1.35849,-1.93696 1.55274,-4.30917 1.55274,-6.40625 V 4.0273437 c 0,-1.170184 -0.24821,-2.2032506 -0.88477,-3 -0.63656,-0.79674926 -1.57669,-1.26179839 -2.6875,-1.53710932 C 389.65339,-1.0603875 386.54375,-1 382.00586,-1 Z m 0,2 H 382.00586 c 4.5461,0 7.65833,0.00326 9.38672,0.4316406 0.86419,0.2141886 1.33048,0.4971255 1.60742,0.84375 0.27694,0.3466246 0.44727,0.8521392 0.44727,1.7519531 V 394.61523 c 0,1.95493 -0.23615,3.89579 -1.19141,5.25782 -0.95526,1.36203 -2.63819,2.36523 -6.19922,2.36523 -7.52373,0.001 -370.139023,0.002 -377.666015,0.002 -3.5610253,0 -5.2439614,-1.00515 -6.1992187,-2.36718 C 1.2361489,398.51102 1,396.57016 1,394.61523 V 4.0292969 C 1,3.1291601 1.1703568,2.6240791 1.4472656,2.2773438 1.7241745,1.9306084 2.190596,1.6458723 3.0546875,1.4316406 4.7828705,1.0031772 7.8948015,1 12.441406,1 Z"
       id="path2" />
    <path
       style="color:#000000;fill:#ffffff;stroke:#ffffff;stroke-width:1;stroke-miterlimit:4.10345;stroke-dasharray:none;stroke-opacity:1"
       d="m 11.835938,221.97656 c -4.443175,0 -7.8938512,1.12684 -9.9804693,4.40821 C -0.23114933,229.66613 -1,234.77143 -1,242.78516 c 0,2.8e-4 0.97426029,0.99953 0.99414062,1 0.01988034,4.6e-4 0.0405455,0.002 0.06640625,0.002 0.05172151,6e-4 0.12296703,0.001 0.21875001,0.002 0.19156594,10e-4 0.4759507,9.5e-4 0.84960932,0.002 0.7473174,0.002 1.8540711,0.004 3.2988282,0.006 2.889514,0.003 7.1285226,0.007 12.5214846,0.01 10.785923,0.005 26.1938,0.008 44.683593,0.01 36.979587,0.003 86.285818,6.5e-4 135.591798,-0.004 98.61196,-0.009 197.22266,-0.0273 197.22266,-0.0273 h 1 v -1 c 0,-8.00981 -0.71944,-13.1068 -2.75586,-16.39063 -2.03643,-3.28383 -5.44745,-4.41797 -9.89063,-4.41797 z m 0,2 H 382.80078 c 4.13882,0 6.54934,0.82475 8.19141,3.47266 1.55682,2.51045 2.31246,7.16412 2.39258,14.33594 -1.05394,1.9e-4 -98.07957,0.0183 -196.16016,0.0273 -49.30592,0.005 -98.612458,0.007 -135.591798,0.004 -18.489669,-0.002 -33.898163,-0.005 -44.683593,-0.01 -5.392715,-0.002 -9.6290513,-0.006 -12.5175784,-0.01 -1.4442635,-0.002 -2.5515317,-0.004 -3.296875,-0.006 -0.030193,-9e-5 -0.039354,8e-5 -0.068359,0 0.083958,-7.17115 0.8782436,-11.82051 2.4765626,-14.33399 1.6853781,-2.65038 4.1541518,-3.48047 8.2929688,-3.48047 z"
       id="path4" />
    <path
       style="color:#000000;fill:#ffffff;stroke:#ffffff;stroke-width:2;stroke-miterlimit:4.10345;stroke-dasharray:none;stroke-opacity:1"
       d="M 12.628906,-1 C 8.0905201,-1 4.9813286,-1.0605513 2.7597656,-0.50976562 1.6489841,-0.23437281 0.70869962,0.23237708 0.07226562,1.0292969 -0.56416837,1.8262167 -0.8125,2.8589358 -0.8125,4.0292969 v 51.2714841 1 h 2 l -1,1 H 395.44922 V 4.0273437 c 0,-1.170184 -0.2482,-2.2032506 -0.88477,-3 C 393.92789,0.23059444 392.98581,-0.23445469 391.875,-0.50976562 389.65339,-1.0603875 386.5457,-1 382.00781,-1 Z m 0,2 H 382.00781 c 4.54611,0 7.65834,0.00326 9.38672,0.4316406 0.86419,0.2141886 1.33049,0.4971255 1.60742,0.84375 0.27694,0.3466246 0.44727,0.8521392 0.44727,1.7519531 V 55.300781 H 1.1875 V 4.0292969 C 1.1875,3.1291601 1.3578568,2.6240791 1.6347656,2.2773438 1.9116745,1.9306084 2.378096,1.6458723 3.2421875,1.4316406 4.9703705,1.0031772 8.0823015,1 12.628906,1 Z"
       id="path6" />
    <path
       style="color:#000000;fill:#ffffff;stroke:#ffffff;stroke-width:1;stroke-miterlimit:4.10345;stroke-dasharray:none;stroke-opacity:1"
       d="m 15.460938,241.76562 c -4.156372,0 -7.5468755,3.38959 -7.5468755,7.54493 v 139.7539 c 0,4.15552 3.3913535,7.54688 7.5468755,7.54688 H 379.17383 c 4.15552,0 7.54687,-3.39136 7.54687,-7.54688 v -139.7539 c 0,-4.15552 -3.39135,-7.54493 -7.54687,-7.54493 z m 0,2 H 379.17383 c 3.07447,0 5.54687,2.47046 5.54687,5.54493 v 139.7539 c 0,3.07447 -2.4724,5.54688 -5.54687,5.54688 H 15.460938 c -3.074472,0 -5.5468755,-2.47241 -5.5468755,-5.54688 v -139.7539 c 0,-3.07466 2.4712545,-5.54493 5.5468755,-5.54493 z"
       id="path8" />
    <path
       style="color:#000000;fill:#ffffff;stroke:#ffffff;stroke-width:1;stroke-miterlimit:4.10345;stroke-dasharray:none;stroke-opacity:1"
       d="m 50.826172,323.57227 c -1.780321,0 -3.245577,1.46533 -3.244141,3.24609 v 15.42578 c 0,1.77978 1.46382,3.24414 3.244141,3.24414 h 21.570312 c 1.780321,0 3.246094,-1.46382 3.246094,-3.24414 v -15.42773 c 0,-1.78032 -1.465773,-3.24414 -3.246094,-3.24414 z m 0,2 h 21.570312 c 0.699677,0 1.246094,0.54446 1.246094,1.24414 v 15.42773 c 0,0.69968 -0.546417,1.24414 -1.246094,1.24414 H 50.826172 c -0.699677,0 -1.244141,-0.54393 -1.244141,-1.24414 v -15.42773 c -5.64e-4,-0.69925 0.544464,-1.24414 1.244141,-1.24414 z"
       id="path10" />
    <path
       style="color:#000000;fill:#ffffff;stroke:#ffffff;stroke-width:1;stroke-miterlimit:4.10345;stroke-dasharray:none;stroke-opacity:1"
       d="m 84.117187,323.57031 c -1.78032,0 -3.24414,1.46382 -3.24414,3.24414 v 15.43164 c 0,1.78032 1.46382,3.24414 3.24414,3.24414 h 21.574223 c 1.77975,0 3.24414,-1.46382 3.24414,-3.24414 v -15.43164 c 0,-1.77978 -1.46382,-3.24414 -3.24414,-3.24414 z m 0,2 h 21.574223 c 0.69967,0 1.24414,0.54393 1.24414,1.24414 v 15.43164 c 0,0.69968 -0.5459,1.24414 -1.24414,1.24414 H 84.117187 c -0.699676,0 -1.24414,-0.54446 -1.24414,-1.24414 v -15.43164 c 0,-0.69967 0.544464,-1.24414 1.24414,-1.24414 z"
       id="path12" />
    <path
       style="color:#000000;fill:#ffffff;stroke:#ffffff;stroke-width:1;stroke-miterlimit:4.10345;stroke-dasharray:none;stroke-opacity:1"
       d="m 117.41016,323.57031 c -1.78032,0 -3.24414,1.46382 -3.24414,3.24414 v 15.43164 c 0,1.78032 1.46382,3.24414 3.24414,3.24414 h 21.57421 c 1.78033,0 3.2461,-1.46382 3.2461,-3.24414 v -15.43164 c 0,-1.78032 -1.46577,-3.24414 -3.2461,-3.24414 z m 0,2 h 21.57421 c 0.69968,0 1.2461,0.54447 1.2461,1.24414 v 15.43164 c 0,0.69968 -0.54642,1.24414 -1.2461,1.24414 h -21.57421 c -0.69968,0 -1.24414,-0.54446 -1.24414,-1.24414 v -15.43164 c 0,-0.69967 0.54446,-1.24414 1.24414,-1.24414 z"
       id="path14" />
    <path
       style="color:#000000;fill:#ffffff;stroke:#ffffff;stroke-width:1;stroke-miterlimit:4.10345;stroke-dasharray:none;stroke-opacity:1"
       d="m 150.70312,323.57031 c -1.78032,0 -3.24362,1.46534 -3.24218,3.2461 v 15.42968 c 0,1.77979 1.46186,3.24414 3.24218,3.24414 h 21.57422 c 1.77976,0 3.24414,-1.46382 3.24414,-3.24414 v -15.43164 c 0,-1.78032 -1.46438,-3.24414 -3.24414,-3.24414 z m 0,2 h 21.57422 c 0.69824,0 1.24414,0.54447 1.24414,1.24414 v 15.43164 c 0,0.69968 -0.5459,1.24414 -1.24414,1.24414 h -21.57422 c -0.69967,0 -1.24218,-0.54392 -1.24218,-1.24414 v -15.43164 c -5.7e-4,-0.69924 0.54251,-1.24414 1.24218,-1.24414 z"
       id="path16" />
    <path
       style="color:#000000;fill:#ffffff;stroke:#ffffff;stroke-width:1;stroke-miterlimit:4.10345;stroke-dasharray:none;stroke-opacity:1"
       d="m 183.99609,323.57031 c -1.78032,0 -3.24414,1.46382 -3.24414,3.24414 v 15.43164 c 0,1.78032 1.46382,3.24414 3.24414,3.24414 h 21.57422 c 1.77976,0 3.24414,-1.46382 3.24414,-3.24414 v -15.43164 c 0,-1.77978 -1.46382,-3.24414 -3.24414,-3.24414 z m 0,2 h 21.57422 c 0.69968,0 1.24414,0.54393 1.24414,1.24414 v 15.43164 c 0,0.69968 -0.5459,1.24414 -1.24414,1.24414 h -21.57422 c -0.69967,0 -1.24414,-0.54446 -1.24414,-1.24414 v -15.43164 c 0,-0.69967 0.54447,-1.24414 1.24414,-1.24414 z"
       id="path18" />
    <path
       style="color:#000000;fill:#ffffff;stroke:#ffffff;stroke-width:1;stroke-miterlimit:4.10345;stroke-dasharray:none;stroke-opacity:1"
       d="m 217.28906,323.57031 c -1.78032,0 -3.24218,1.46436 -3.24219,3.24414 v 15.43164 c 10e-6,1.77979 1.46187,3.24414 3.24219,3.24414 h 21.57422 c 1.77976,0 3.24414,-1.46382 3.24414,-3.24414 v -15.43164 c 0,-1.77978 -1.46382,-3.24414 -3.24414,-3.24414 z m 0,2 h 21.57422 c 0.69968,0 1.24414,0.54393 1.24414,1.24414 v 15.43164 c 0,0.69968 -0.5459,1.24414 -1.24414,1.24414 h -21.57422 c -0.69967,0 -1.24218,-0.54392 -1.24219,-1.24414 v -15.43164 c 0,-0.70021 0.54252,-1.24414 1.24219,-1.24414 z"
       id="path20" />
    <path
       style="color:#000000;fill:#ffffff;stroke:#ffffff;stroke-width:1;stroke-miterlimit:4.10345;stroke-dasharray:none;stroke-opacity:1"
       d="m 250.58203,323.57031 c -1.78032,0 -3.24219,1.46436 -3.24219,3.24414 v 15.43164 c 0,1.77979 1.46187,3.24414 3.24219,3.24414 h 21.57422 c 1.78032,0 3.24609,-1.46382 3.24609,-3.24414 v -15.43164 c 0,-1.78032 -1.46577,-3.24414 -3.24609,-3.24414 z m 0,2 h 21.57422 c 0.69968,0 1.24609,0.54447 1.24609,1.24414 v 15.43164 c 0,0.69968 -0.54641,1.24414 -1.24609,1.24414 h -21.57422 c -0.69968,0 -1.24219,-0.54392 -1.24219,-1.24414 v -15.43164 c 0,-0.70021 0.54251,-1.24414 1.24219,-1.24414 z"
       id="path22" />
    <path
       style="color:#000000;fill:#ffffff;stroke:#ffffff;stroke-width:1;stroke-miterlimit:4.10345;stroke-dasharray:none;stroke-opacity:1"
       d="m 283.87695,323.57031 c -1.77975,0 -3.24466,1.46426 -3.24609,3.24414 v 15.43164 c 0,1.78032 1.46577,3.24414 3.24609,3.24414 h 21.57227 c 1.77976,0 3.24414,-1.46382 3.24414,-3.24414 v -15.43164 c 0,-1.77978 -1.46382,-3.24414 -3.24414,-3.24414 z m 0,2 h 21.57227 c 0.69968,0 1.24414,0.54393 1.24414,1.24414 v 15.43164 c 0,0.69968 -0.5459,1.24414 -1.24414,1.24414 h -21.57227 c -0.69967,0 -1.24609,-0.54446 -1.24609,-1.24414 v -15.42968 -0.002 c 0.002,-0.69916 0.54851,-1.24414 1.24609,-1.24414 z"
       id="path24" />
    <path
       style="color:#000000;fill:#ffffff;stroke:#ffffff;stroke-width:1;stroke-miterlimit:4.10345;stroke-dasharray:none;stroke-opacity:1"
       d="m 317.16992,323.57031 c -1.77976,0 -3.24414,1.46382 -3.24414,3.24414 v 15.43164 c 0,1.77979 1.46382,3.24414 3.24414,3.24414 h 21.57227 c 1.78032,0 3.24609,-1.46382 3.24609,-3.24414 v -15.43164 c 0,-1.78032 -1.46577,-3.24414 -3.24609,-3.24414 z m 0,2 h 21.57227 c 0.69967,0 1.24609,0.54447 1.24609,1.24414 v 15.43164 c 0,0.69968 -0.54642,1.24414 -1.24609,1.24414 h -21.57227 c -0.69967,0 -1.24414,-0.54392 -1.24414,-1.24414 v -15.43164 c 0,-0.69967 0.5459,-1.24414 1.24414,-1.24414 z"
       id="path26" />
    <path
       style="color:#000000;fill:#ffffff;stroke:#ffffff;stroke-width:1;stroke-miterlimit:4.10345;stroke-dasharray:none;stroke-opacity:1"
       d="m 350.46289,323.57031 c -1.77976,0 -3.24466,1.46426 -3.24609,3.24414 v 15.43164 c 0,1.78032 1.46577,3.24414 3.24609,3.24414 h 21.57227 c 1.77975,0 3.24414,-1.46382 3.24414,-3.24414 v -15.43164 c 0,-1.77978 -1.46382,-3.24414 -3.24414,-3.24414 z m 0,2 h 21.57227 c 0.69967,0 1.24414,0.54393 1.24414,1.24414 v 15.43164 c 0,0.69968 -0.5459,1.24414 -1.24414,1.24414 h -21.57227 c -0.69968,0 -1.24609,-0.54446 -1.24609,-1.24414 v -15.42968 -0.002 c 0.002,-0.69916 0.54851,-1.24414 1.24609,-1.24414 z"
       id="path28" />
    <path
       style="color:#000000;fill:#ffffff;stroke:#ffffff;stroke-width:1;stroke-miterlimit:4.10345;stroke-dasharray:none;stroke-opacity:1"
       d="m 35.189453,355.4668 c -1.779219,0 -3.244141,1.46382 -3.244141,3.24414 v 15.43164 c 0,1.77922 1.46382,3.24414 3.244141,3.24414 h 21.574219 c 1.779783,0 3.246094,-1.46382 3.246094,-3.24414 v -15.43164 c 0,-1.77976 -1.465773,-3.24414 -3.246094,-3.24414 z m 0,2 h 21.574219 c 0.699677,0 1.246094,0.5459 1.246094,1.24414 v 15.43164 c 0,0.69967 -0.54588,1.24414 -1.246094,1.24414 H 35.189453 c -0.699677,0 -1.244141,-0.54536 -1.244141,-1.24414 v -15.43164 c 0,-0.69968 0.545362,-1.24414 1.244141,-1.24414 z"
       id="path30" />
    <path
       style="color:#000000;fill:#ffffff;stroke:#ffffff;stroke-width:1;stroke-miterlimit:4.10345;stroke-dasharray:none;stroke-opacity:1"
       d="m 68.484375,355.4668 c -1.779783,0 -3.246094,1.46382 -3.246094,3.24414 v 15.43164 c 0,1.77976 1.465773,3.24414 3.246094,3.24414 h 21.574219 c 1.779219,0 3.24414,-1.46382 3.24414,-3.24414 v -15.43164 c 0,-1.77922 -1.463819,-3.24414 -3.24414,-3.24414 z m 0,2 h 21.574219 c 0.699676,0 1.24414,0.54536 1.24414,1.24414 v 15.43164 c 0,0.69967 -0.545362,1.24414 -1.24414,1.24414 H 68.484375 c -0.699677,0 -1.246094,-0.5459 -1.246094,-1.24414 v -15.43164 c 0,-0.69968 0.54588,-1.24414 1.246094,-1.24414 z"
       id="path32" />
    <path
       style="color:#000000;fill:#ffffff;stroke:#ffffff;stroke-width:1;stroke-miterlimit:4.10345;stroke-dasharray:none;stroke-opacity:1"
       d="m 101.77734,355.4668 c -1.779779,0 -3.245573,1.46338 -3.244137,3.24414 v 15.43164 c 0,1.77922 1.46382,3.24414 3.244137,3.24414 h 21.57422 c 1.77922,0 3.24414,-1.46382 3.24414,-3.24414 v -15.43164 c 0,-1.77922 -1.46382,-3.24414 -3.24414,-3.24414 z m 0,2 h 21.57422 c 0.69968,0 1.24414,0.54536 1.24414,1.24414 v 15.43164 c 0,0.69967 -0.54536,1.24414 -1.24414,1.24414 h -21.57422 c -0.69967,0 -1.24414,-0.54536 -1.24414,-1.24414 v -15.43164 c -5.6e-4,-0.69924 0.54393,-1.24414 1.24414,-1.24414 z"
       id="path34" />
    <path
       style="color:#000000;fill:#ffffff;stroke:#ffffff;stroke-width:1;stroke-miterlimit:4.10345;stroke-dasharray:none;stroke-opacity:1"
       d="m 135.07031,355.4668 c -1.77978,0 -3.24557,1.46338 -3.24414,3.24414 v 15.43164 c 0,1.77922 1.46382,3.24414 3.24414,3.24414 h 21.57422 c 1.77922,0 3.24414,-1.46382 3.24414,-3.24414 v -15.43164 c 0,-1.77922 -1.46382,-3.24414 -3.24414,-3.24414 z m 0,2 h 21.57422 c 0.69968,0 1.24414,0.54536 1.24414,1.24414 v 15.43164 c 0,0.69967 -0.54536,1.24414 -1.24414,1.24414 h -21.57422 c -0.69967,0 -1.24414,-0.54536 -1.24414,-1.24414 v -15.43164 c -5.6e-4,-0.69924 0.54393,-1.24414 1.24414,-1.24414 z"
       id="path36" />
    <path
       style="color:#000000;fill:#ffffff;stroke:#ffffff;stroke-width:1;stroke-miterlimit:4.10345;stroke-dasharray:none;stroke-opacity:1"
       d="m 168.36328,355.4668 c -1.77978,0 -3.24558,1.46338 -3.24414,3.24414 v 15.43164 c 0,1.77922 1.46382,3.24414 3.24414,3.24414 h 21.57422 c 1.77978,0 3.24414,-1.46382 3.24414,-3.24414 v -15.43164 c 0,-1.77976 -1.46382,-3.24414 -3.24414,-3.24414 z m 0,2 h 21.57422 c 0.69968,0 1.24414,0.5459 1.24414,1.24414 v 15.43164 c 0,0.69967 -0.54393,1.24414 -1.24414,1.24414 h -21.57422 c -0.69968,0 -1.24414,-0.54536 -1.24414,-1.24414 v -15.43164 c -5.6e-4,-0.69924 0.54393,-1.24414 1.24414,-1.24414 z"
       id="path38" />
    <path
       style="color:#000000;fill:#ffffff;stroke:#ffffff;stroke-width:1;stroke-miterlimit:4.10345;stroke-dasharray:none;stroke-opacity:1"
       d="m 201.65625,355.4668 c -1.77978,0 -3.24558,1.46338 -3.24414,3.24414 v 15.43164 c 0,1.77922 1.46382,3.24414 3.24414,3.24414 h 21.57422 c 1.77922,0 3.24414,-1.46382 3.24414,-3.24414 v -15.43164 c 0,-1.77922 -1.46382,-3.24414 -3.24414,-3.24414 z m 0,2 h 21.57422 c 0.69968,0 1.24414,0.54536 1.24414,1.24414 v 15.43164 c 0,0.69967 -0.54536,1.24414 -1.24414,1.24414 h -21.57422 c -0.69968,0 -1.24414,-0.54536 -1.24414,-1.24414 v -15.43164 c -5.6e-4,-0.69924 0.54393,-1.24414 1.24414,-1.24414 z"
       id="path40" />
    <path
       style="color:#000000;fill:#ffffff;stroke:#ffffff;stroke-width:1;stroke-miterlimit:4.10345;stroke-dasharray:none;stroke-opacity:1"
       d="m 234.94922,355.4668 c -1.77978,0 -3.24414,1.46435 -3.24414,3.24414 v 15.43164 c 0,1.77922 1.46382,3.24414 3.24414,3.24414 h 21.57422 c 1.77978,0 3.24414,-1.46382 3.24414,-3.24414 v -15.43164 c 0,-1.77976 -1.46382,-3.24414 -3.24414,-3.24414 z m 0,2 h 21.57422 c 0.69967,0 1.24414,0.5459 1.24414,1.24414 v 15.43164 c 0,0.69967 -0.54393,1.24414 -1.24414,1.24414 h -21.57422 c -0.69968,0 -1.24414,-0.54536 -1.24414,-1.24414 v -15.43164 c 0,-0.70022 0.54392,-1.24414 1.24414,-1.24414 z"
       id="path42" />
    <path
       style="color:#000000;fill:#ffffff;stroke:#ffffff;stroke-width:1;stroke-miterlimit:4.10345;stroke-dasharray:none;stroke-opacity:1"
       d="m 268.24219,355.4668 c -1.77922,0 -3.24466,1.46425 -3.2461,3.24414 v 15.43164 c 0,1.77976 1.46578,3.24414 3.2461,3.24414 h 21.57422 c 1.77978,0 3.24414,-1.46382 3.24414,-3.24414 v -15.43164 c 0,-1.77976 -1.46382,-3.24414 -3.24414,-3.24414 z m 0,2 h 21.57422 c 0.69967,0 1.24414,0.5459 1.24414,1.24414 v 15.43164 c 0,0.69967 -0.54393,1.24414 -1.24414,1.24414 h -21.57422 c -0.69968,0 -1.2461,-0.5459 -1.2461,-1.24414 v -15.43164 c 5.7e-4,-0.70012 0.54732,-1.24414 1.2461,-1.24414 z"
       id="path44" />
    <path
       style="color:#000000;fill:#ffffff;stroke:#ffffff;stroke-width:1;stroke-miterlimit:4.10345;stroke-dasharray:none;stroke-opacity:1"
       d="m 301.53516,355.4668 c -1.77922,0 -3.24414,1.46382 -3.24414,3.24414 v 15.43164 c 0,1.77922 1.46382,3.24414 3.24414,3.24414 h 21.57421 c 1.77922,0 3.24415,-1.46382 3.24415,-3.24414 v -15.43164 c 0,-1.77922 -1.46382,-3.24414 -3.24415,-3.24414 z m 0,2 h 21.57421 c 0.69968,0 1.24415,0.54536 1.24415,1.24414 v 15.43164 c 0,0.69967 -0.54537,1.24414 -1.24415,1.24414 h -21.57421 c -0.69968,0 -1.24414,-0.54536 -1.24414,-1.24414 v -15.43164 c 0,-0.69968 0.54536,-1.24414 1.24414,-1.24414 z"
       id="path46" />
    <path
       style="color:#000000;fill:#ffffff;stroke:#ffffff;stroke-width:1;stroke-miterlimit:4.10345;stroke-dasharray:none;stroke-opacity:1"
       d="m 334.82812,355.4668 c -1.77921,0 -3.24414,1.46382 -3.24414,3.24414 v 15.43164 c 0,1.77976 1.46439,3.24414 3.24414,3.24414 h 21.57422 c 1.77979,0 3.24414,-1.46382 3.24414,-3.24414 v -15.43164 c 0,-1.77976 -1.46382,-3.24414 -3.24414,-3.24414 z m 0,2 h 21.57422 c 0.69968,0 1.24414,0.5459 1.24414,1.24414 v 15.43164 c 0,0.69967 -0.54392,1.24414 -1.24414,1.24414 h -21.57422 c -0.69824,0 -1.24414,-0.5459 -1.24414,-1.24414 v -15.43164 c 0,-0.69968 0.54537,-1.24414 1.24414,-1.24414 z"
       id="path48" />
    <path
       style="color:#000000;fill:#ffffff;stroke:#ffffff;stroke-width:1;stroke-miterlimit:4.10345;stroke-dasharray:none;stroke-opacity:1"
       d="m 42.830078,291.21875 c -1.779757,0 -3.242187,1.46438 -3.242187,3.24414 v 15.42969 c 0,1.77978 1.461866,3.24609 3.242187,3.24609 h 21.574219 c 1.779757,0 3.244141,-1.46577 3.24414,-3.24609 v -15.42969 c 0,-1.77922 -1.463819,-3.24414 -3.24414,-3.24414 z m 0,2 h 21.574219 c 0.699677,0 1.24414,0.54536 1.24414,1.24414 v 15.42969 c 0,0.69967 -0.545899,1.24609 -1.24414,1.24609 H 42.830078 c -0.699677,0 -1.242187,-0.54588 -1.242187,-1.24609 v -15.42969 c 0,-0.69824 0.543946,-1.24414 1.242187,-1.24414 z"
       id="path50" />
    <path
       style="color:#000000;fill:#ffffff;stroke:#ffffff;stroke-width:1;stroke-miterlimit:4.10345;stroke-dasharray:none;stroke-opacity:1"
       d="m 76.125,291.21875 c -1.780321,0 -3.245577,1.46395 -3.244141,3.24414 v 15.42969 c 0,1.77978 1.46382,3.24609 3.244141,3.24609 h 21.574219 c 1.779757,0 3.244141,-1.46577 3.244141,-3.24609 v -15.42969 c 0,-1.77922 -1.46382,-3.24414 -3.244141,-3.24414 z m 0,2 h 21.574219 c 0.699676,0 1.24414,0.54536 1.24414,1.24414 v 15.42969 c 0,0.69967 -0.5459,1.24609 -1.24414,1.24609 H 76.125 c -0.699677,0 -1.244141,-0.54588 -1.244141,-1.24609 v -15.43164 c -5.63e-4,-0.69781 0.544464,-1.24219 1.244141,-1.24219 z"
       id="path52" />
    <path
       style="color:#000000;fill:#ffffff;stroke:#ffffff;stroke-width:1;stroke-miterlimit:4.10345;stroke-dasharray:none;stroke-opacity:1"
       d="m 109.41797,291.21875 c -1.78032,0 -3.24558,1.46395 -3.24414,3.24414 v 15.42969 c 0,1.77978 1.46382,3.24609 3.24414,3.24609 h 21.57422 c 1.77975,0 3.24414,-1.46577 3.24414,-3.24609 v -15.42969 c 0,-1.77922 -1.46382,-3.24414 -3.24414,-3.24414 z m 0,2 h 21.57422 c 0.69967,0 1.24414,0.54536 1.24414,1.24414 v 15.42969 c 0,0.69967 -0.5459,1.24609 -1.24414,1.24609 h -21.57422 c -0.69968,0 -1.24414,-0.54588 -1.24414,-1.24609 v -15.43164 c -5.7e-4,-0.69781 0.54446,-1.24219 1.24414,-1.24219 z"
       id="path54" />
    <path
       style="color:#000000;fill:#ffffff;stroke:#ffffff;stroke-width:1;stroke-miterlimit:4.10345;stroke-dasharray:none;stroke-opacity:1"
       d="m 142.71094,291.21875 c -1.78032,0 -3.24414,1.46438 -3.24414,3.24414 v 15.42969 c 0,1.78032 1.46382,3.24609 3.24414,3.24609 h 21.57422 c 1.78032,0 3.24414,-1.46577 3.24414,-3.24609 v -15.42969 c 0,-1.77976 -1.46382,-3.24414 -3.24414,-3.24414 z m 0,2 h 21.57422 c 0.69967,0 1.24414,0.5459 1.24414,1.24414 v 15.42969 c 0,0.69967 -0.54447,1.24609 -1.24414,1.24609 h -21.57422 c -0.69968,0 -1.24414,-0.54642 -1.24414,-1.24609 v -15.42969 c 0,-0.69824 0.54446,-1.24414 1.24414,-1.24414 z"
       id="path56" />
    <path
       style="color:#000000;fill:#ffffff;stroke:#ffffff;stroke-width:1;stroke-miterlimit:4.10345;stroke-dasharray:none;stroke-opacity:1"
       d="m 176.00391,291.21875 c -1.78032,0 -3.24558,1.46395 -3.24414,3.24414 v 15.42969 c 0,1.77978 1.46382,3.24609 3.24414,3.24609 h 21.57421 c 1.78033,0 3.24415,-1.46577 3.24415,-3.24609 v -15.42969 c 0,-1.77976 -1.46382,-3.24414 -3.24415,-3.24414 z m 0,2 h 21.57421 c 0.69968,0 1.24415,0.5459 1.24415,1.24414 v 15.42969 c 0,0.69967 -0.54447,1.24609 -1.24415,1.24609 h -21.57421 c -0.69968,0 -1.24414,-0.54588 -1.24414,-1.24609 v -15.43164 c -5.7e-4,-0.69781 0.54446,-1.24219 1.24414,-1.24219 z"
       id="path58" />
    <path
       style="color:#000000;fill:#ffffff;stroke:#ffffff;stroke-width:1;stroke-miterlimit:4.10345;stroke-dasharray:none;stroke-opacity:1"
       d="m 209.29687,291.21875 c -1.78032,0 -3.24414,1.46438 -3.24414,3.24414 v 15.42969 c 0,1.78032 1.46382,3.24609 3.24414,3.24609 h 21.57422 c 1.77976,0 3.24414,-1.46577 3.24414,-3.24609 v -15.42969 c 0,-1.77922 -1.46382,-3.24414 -3.24414,-3.24414 z m 0,2 h 21.57422 c 0.69968,0 1.24414,0.54536 1.24414,1.24414 v 15.42969 c 0,0.69967 -0.5459,1.24609 -1.24414,1.24609 h -21.57422 c -0.69967,0 -1.24414,-0.54642 -1.24414,-1.24609 v -15.42969 c 0,-0.69824 0.54447,-1.24414 1.24414,-1.24414 z"
       id="path60" />
    <path
       style="color:#000000;fill:#ffffff;stroke:#ffffff;stroke-width:1;stroke-miterlimit:4.10345;stroke-dasharray:none;stroke-opacity:1"
       d="m 242.58984,291.21875 c -1.78032,0 -3.24414,1.46492 -3.24414,3.24414 v 15.42969 c 0,1.77978 1.46382,3.24609 3.24414,3.24609 h 21.57422 c 1.77976,0 3.24414,-1.46577 3.24414,-3.24609 v -15.42969 c 0,-1.77922 -1.46382,-3.24414 -3.24414,-3.24414 z m 0,2 h 21.57422 c 0.69968,0 1.24414,0.54536 1.24414,1.24414 v 15.42969 c 0,0.69967 -0.5459,1.24609 -1.24414,1.24609 h -21.57422 c -0.69967,0 -1.24414,-0.54588 -1.24414,-1.24609 v -15.42969 c 0,-0.69878 0.54447,-1.24414 1.24414,-1.24414 z"
       id="path62" />
    <path
       style="color:#000000;fill:#ffffff;stroke:#ffffff;stroke-width:1;stroke-miterlimit:4.10345;stroke-dasharray:none;stroke-opacity:1"
       d="m 275.88281,291.21875 c -1.77975,0 -3.24414,1.46438 -3.24414,3.24414 v 15.42969 c 0,1.77978 1.46382,3.24609 3.24414,3.24609 h 21.57422 c 1.77976,0 3.24414,-1.46577 3.24414,-3.24609 v -15.42969 c 0,-1.77922 -1.46382,-3.24414 -3.24414,-3.24414 z m 0,2 h 21.57422 c 0.69968,0 1.24414,0.54536 1.24414,1.24414 v 15.42969 c 0,0.69967 -0.5459,1.24609 -1.24414,1.24609 h -21.57422 c -0.69967,0 -1.24414,-0.54588 -1.24414,-1.24609 v -15.42969 c 0,-0.69824 0.5459,-1.24414 1.24414,-1.24414 z"
       id="path64" />
    <path
       style="color:#000000;fill:#ffffff;stroke:#ffffff;stroke-width:1;stroke-miterlimit:4.10345;stroke-dasharray:none;stroke-opacity:1"
       d="m 309.17578,291.21875 c -1.77976,0 -3.2427,1.46287 -3.24414,3.24219 v 15.43164 c 0,1.78032 1.46382,3.24609 3.24414,3.24609 H 330.75 c 1.77976,0 3.24414,-1.46577 3.24414,-3.24609 v -15.42969 c 0,-1.77922 -1.46382,-3.24414 -3.24414,-3.24414 z m 0,2 H 330.75 c 0.69968,0 1.24414,0.54536 1.24414,1.24414 v 15.42969 c 0,0.69967 -0.5459,1.24609 -1.24414,1.24609 h -21.57422 c -0.69968,0 -1.24414,-0.54642 -1.24414,-1.24609 v -15.42969 c 5.6e-4,-0.69868 0.5459,-1.24414 1.24414,-1.24414 z"
       id="path66" />
    <path
       style="color:#000000;fill:#ffffff;stroke:#ffffff;stroke-width:1;stroke-miterlimit:4.10345;stroke-dasharray:none;stroke-opacity:1"
       d="m 342.46875,291.21875 c -1.77976,0 -3.2427,1.46287 -3.24414,3.24219 v 15.43164 c 0,1.78032 1.46382,3.24609 3.24414,3.24609 h 21.57422 c 1.78032,0 3.24414,-1.46577 3.24414,-3.24609 v -15.42969 c 0,-1.77976 -1.46382,-3.24414 -3.24414,-3.24414 z m 0,2 h 21.57422 c 0.69968,0 1.24414,0.5459 1.24414,1.24414 v 15.42969 c 0,0.69967 -0.54446,1.24609 -1.24414,1.24609 h -21.57422 c -0.69968,0 -1.24414,-0.54642 -1.24414,-1.24609 v -15.42969 c 5.6e-4,-0.69868 0.5459,-1.24414 1.24414,-1.24414 z"
       id="path68" />
    <path
       style="color:#000000;fill:#ffffff;stroke:#ffffff;stroke-width:1;stroke-miterlimit:4.10345;stroke-dasharray:none;stroke-opacity:1"
       d="m 25.482422,259.28711 c -1.780321,0 -3.246094,1.46382 -3.246094,3.24414 v 15.43164 c 0,1.78032 1.465773,3.24414 3.246094,3.24414 h 21.574219 c 1.779757,0 3.24414,-1.46382 3.24414,-3.24414 v -15.43164 c 0,-1.77978 -1.46382,-3.24414 -3.24414,-3.24414 z m 0,2 h 21.574219 c 0.699676,0 1.24414,0.54393 1.24414,1.24414 v 15.43164 c 0,0.69968 -0.5459,1.24414 -1.24414,1.24414 H 25.482422 c -0.699677,0 -1.246094,-0.54446 -1.246094,-1.24414 v -15.43164 c 0,-0.69968 0.546417,-1.24414 1.246094,-1.24414 z"
       id="path70" />
    <path
       style="color:#000000;fill:#ffffff;stroke:#ffffff;stroke-width:1;stroke-miterlimit:4.10345;stroke-dasharray:none;stroke-opacity:1"
       d="m 58.775391,259.28711 c -1.780321,0 -3.244141,1.46436 -3.244141,3.24414 v 15.43164 c 0,1.77978 1.46382,3.24414 3.244141,3.24414 h 21.574218 c 1.779757,0 3.244141,-1.46382 3.244141,-3.24414 v -15.43164 c 0,-1.77978 -1.46382,-3.24414 -3.244141,-3.24414 z m 0,2 h 21.574218 c 0.699677,0 1.244141,0.54393 1.244141,1.24414 v 15.43164 c 0,0.69968 -0.5459,1.24414 -1.244141,1.24414 H 58.775391 c -0.699677,0 -1.244141,-0.54393 -1.244141,-1.24414 v -15.43164 c 0,-0.70021 0.544464,-1.24414 1.244141,-1.24414 z"
       id="path72" />
    <path
       style="color:#000000;fill:#ffffff;stroke:#ffffff;stroke-width:1;stroke-miterlimit:4.10345;stroke-dasharray:none;stroke-opacity:1"
       d="m 92.068359,259.28711 c -1.779757,0 -3.24414,1.46382 -3.24414,3.24414 v 15.43164 c 0,1.77978 1.46382,3.24414 3.24414,3.24414 h 21.574221 c 1.77976,0 3.24414,-1.46382 3.24414,-3.24414 v -15.43164 c 0,-1.77978 -1.46382,-3.24414 -3.24414,-3.24414 z m 0,2 h 21.574221 c 0.69967,0 1.24414,0.54393 1.24414,1.24414 v 15.43164 c 0,0.69968 -0.5459,1.24414 -1.24414,1.24414 H 92.068359 c -0.699676,0 -1.24414,-0.54393 -1.24414,-1.24414 v -15.43164 c 0,-0.69968 0.5459,-1.24414 1.24414,-1.24414 z"
       id="path74" />
    <path
       style="color:#000000;fill:#ffffff;stroke:#ffffff;stroke-width:1;stroke-miterlimit:4.10345;stroke-dasharray:none;stroke-opacity:1"
       d="m 125.36133,259.28711 c -1.77976,0 -3.24414,1.46382 -3.24414,3.24414 v 15.43164 c 0,1.77978 1.46382,3.24414 3.24414,3.24414 h 21.57422 c 1.78032,0 3.24414,-1.46382 3.24414,-3.24414 v -15.43164 c 0,-1.78032 -1.46382,-3.24414 -3.24414,-3.24414 z m 0,2 h 21.57422 c 0.69967,0 1.24414,0.54446 1.24414,1.24414 v 15.43164 c 0,0.69968 -0.54447,1.24414 -1.24414,1.24414 h -21.57422 c -0.69968,0 -1.24414,-0.54393 -1.24414,-1.24414 v -15.43164 c 0,-0.69968 0.5459,-1.24414 1.24414,-1.24414 z"
       id="path76" />
    <path
       style="color:#000000;fill:#ffffff;stroke:#ffffff;stroke-width:1;stroke-miterlimit:4.10345;stroke-dasharray:none;stroke-opacity:1"
       d="m 158.6543,259.28711 c -1.77976,0 -3.24414,1.46382 -3.24414,3.24414 v 15.43164 c 0,1.77978 1.46382,3.24414 3.24414,3.24414 h 21.57422 c 1.78032,0 3.24414,-1.46382 3.24414,-3.24414 v -15.43164 c 0,-1.78032 -1.46382,-3.24414 -3.24414,-3.24414 z m 0,2 h 21.57422 c 0.69967,0 1.24414,0.54446 1.24414,1.24414 v 15.43164 c 0,0.69968 -0.54447,1.24414 -1.24414,1.24414 H 158.6543 c -0.69968,0 -1.24414,-0.54393 -1.24414,-1.24414 v -15.43164 c 0,-0.69968 0.5459,-1.24414 1.24414,-1.24414 z"
       id="path78" />
    <path
       style="color:#000000;fill:#ffffff;stroke:#ffffff;stroke-width:1;stroke-miterlimit:4.10345;stroke-dasharray:none;stroke-opacity:1"
       d="m 191.94727,259.28711 c -1.77976,0 -3.24415,1.46382 -3.24415,3.24414 v 15.43164 c 0,1.77978 1.46382,3.24414 3.24415,3.24414 h 21.57421 c 1.78033,0 3.24414,-1.46382 3.24414,-3.24414 v -15.43164 c 10e-6,-1.78032 -1.46381,-3.24414 -3.24414,-3.24414 z m 0,2 h 21.57421 c 0.69968,0 1.24415,0.54446 1.24414,1.24414 v 15.43164 c 0,0.69968 -0.54446,1.24414 -1.24414,1.24414 h -21.57421 c -0.69968,0 -1.24415,-0.54393 -1.24415,-1.24414 v -15.43164 c 0,-0.69968 0.5459,-1.24414 1.24415,-1.24414 z"
       id="path80" />
    <path
       style="color:#000000;fill:#ffffff;stroke:#ffffff;stroke-width:1;stroke-miterlimit:4.10345;stroke-dasharray:none;stroke-opacity:1"
       d="m 225.24023,259.28711 c -1.78032,0 -3.24414,1.46382 -3.24414,3.24414 v 15.43164 c 0,1.78032 1.46382,3.24414 3.24414,3.24414 h 21.57422 c 1.77976,0 3.24414,-1.46382 3.24414,-3.24414 v -15.43164 c 0,-1.77978 -1.46382,-3.24414 -3.24414,-3.24414 z m 0,2 h 21.57422 c 0.69968,0 1.24414,0.54393 1.24414,1.24414 v 15.43164 c 0,0.69968 -0.5459,1.24414 -1.24414,1.24414 h -21.57422 c -0.69967,0 -1.24414,-0.54446 -1.24414,-1.24414 v -15.43164 c 0,-0.69968 0.54447,-1.24414 1.24414,-1.24414 z"
       id="path82" />
    <path
       style="color:#000000;fill:#ffffff;stroke:#ffffff;stroke-width:1;stroke-miterlimit:4.10345;stroke-dasharray:none;stroke-opacity:1"
       d="m 258.5332,259.28711 c -1.78032,0 -3.24414,1.46382 -3.24414,3.24414 v 15.43164 c 0,1.78032 1.46382,3.24414 3.24414,3.24414 h 21.57422 c 1.77976,0 3.24414,-1.46382 3.24414,-3.24414 v -15.43164 c 0,-1.77978 -1.46382,-3.24414 -3.24414,-3.24414 z m 0,2 h 21.57422 c 0.69968,0 1.24414,0.54393 1.24414,1.24414 v 15.43164 c 0,0.69968 -0.5459,1.24414 -1.24414,1.24414 H 258.5332 c -0.69967,0 -1.24414,-0.54446 -1.24414,-1.24414 v -15.43164 c 0,-0.69968 0.54447,-1.24414 1.24414,-1.24414 z"
       id="path84" />
    <path
       style="color:#000000;fill:#ffffff;stroke:#ffffff;stroke-width:1;stroke-miterlimit:4.10345;stroke-dasharray:none;stroke-opacity:1"
       d="m 291.82617,259.28711 c -1.78032,0 -3.24557,1.46534 -3.24414,3.24609 v 15.42969 c 0,1.77978 1.46382,3.24414 3.24414,3.24414 h 21.57422 c 1.78032,0 3.24609,-1.46382 3.24609,-3.24414 v -15.43164 c 0,-1.78032 -1.46577,-3.24414 -3.24609,-3.24414 z m 0,2 h 21.57422 c 0.69968,0 1.24609,0.54446 1.24609,1.24414 v 15.43164 c 0,0.69968 -0.54641,1.24414 -1.24609,1.24414 h -21.57422 c -0.69967,0 -1.24414,-0.54393 -1.24414,-1.24414 v -15.43164 c -5.6e-4,-0.69924 0.54447,-1.24414 1.24414,-1.24414 z"
       id="path86" />
    <path
       style="color:#000000;fill:#ffffff;stroke:#ffffff;stroke-width:1;stroke-miterlimit:4.10345;stroke-dasharray:none;stroke-opacity:1"
       d="m 325.11914,259.28711 c -1.78032,0 -3.24362,1.46534 -3.24219,3.24609 v 15.42969 c 0,1.77978 1.46187,3.24414 3.24219,3.24414 h 21.57422 c 1.77976,0 3.24414,-1.46382 3.24414,-3.24414 v -15.43164 c 0,-1.77978 -1.46382,-3.24414 -3.24414,-3.24414 z m 0,2 h 21.57422 c 0.69968,0 1.24414,0.54393 1.24414,1.24414 v 15.43164 c 0,0.69968 -0.5459,1.24414 -1.24414,1.24414 h -21.57422 c -0.69968,0 -1.24219,-0.54393 -1.24219,-1.24414 v -15.43164 c -5.6e-4,-0.69924 0.54251,-1.24414 1.24219,-1.24414 z"
       id="path88" />
  </g>
  <path
     style="color:#000000;fill:#ffffff;stroke:none;stroke-width:1;stroke-miterlimit:4.10345;stroke-dasharray:none;stroke-opacity:1"
     d="m 21.914214,189.78175 v 5.54688 h 6.267578 c 0.368387,0 0.776707,-0.004 1.224609,-0.0117 0.08226,-0.001 0.153623,-0.006 0.234375,-0.008 -0.139506,0.14841 -0.27089,0.28618 -0.416015,0.4414 -0.354415,0.37907 -0.676231,0.73849 -0.966797,1.08008 l -0.0059,0.008 -7.003907,8.50586 v 4.75782 h 1 16.09375 v -5.59375 h -7.105468 c -0.392109,0 -0.826269,0.008 -1.304688,0.0254 -0.12508,0.005 -0.237183,0.009 -0.359375,0.0137 0.200042,-0.20832 0.392381,-0.40146 0.601563,-0.62891 0.387309,-0.42121 0.745095,-0.82864 1.070312,-1.22265 l 0.002,-0.002 6.751953,-8.25586 v -4.65625 z m 2,2 h 12.083984 v 1.94336 l -6.298828,7.70117 c -0.298142,0.36109 -0.630425,0.741 -0.996094,1.13868 -0.36951,0.40177 -0.722572,0.76749 -1.05664,1.10156 l -1.498047,1.5 v 1.52148 l 1.033203,-0.0332 c 0.493704,-0.016 0.98795,-0.0415 1.480469,-0.0742 l 0.03125,-0.002 c 0.416855,-0.0156 0.853128,-0.0303 1.310547,-0.0469 0.45758,-0.0166 0.868531,-0.0234 1.232422,-0.0234 h 5.105468 v 1.59375 h -13.09375 v -2.03907 l 6.533203,-7.93554 0.002,-0.002 0.0078,-0.01 c 0.265191,-0.31139 0.562717,-0.6451 0.894531,-1 0.343881,-0.3678 0.671393,-0.71414 0.980469,-1.03906 0.350699,-0.36617 0.707,-0.72538 1.072266,-1.07422 l 0.310547,-0.29493 v -1.57421 l -1.06836,0.0742 c -0.466762,0.0323 -0.924687,0.0567 -1.371094,0.0723 h -0.0039 -0.0039 c -0.383743,0.0166 -0.794138,0.0292 -1.230469,0.0371 -0.438096,0.008 -0.83584,0.0117 -1.189453,0.0117 h -4.267624 z"
     id="path92" />
  <path
     style="color:#000000;fill:#ffffff;stroke:none;stroke-width:1;stroke-miterlimit:4.10345;stroke-dasharray:none;stroke-opacity:1"
     d="m 37.353667,189.78175 6.285156,9.74219 -6.798828,10.57813 h 1.832031 5.34961 l 2.183594,-3.7168 0.002,-0.002 c 0.224307,-0.38028 0.451844,-0.79582 0.68164,-1.2461 0.122964,-0.24094 0.223704,-0.45198 0.333985,-0.67578 0.102261,0.21521 0.198991,0.417 0.308593,0.64844 0.213734,0.45336 0.43446,0.87529 0.664063,1.26367 l 2.134766,3.72852 h 7.375 l -6.744141,-10.60352 6.175781,-9.7168 h -6.964844 l -1.794921,2.97461 -0.002,0.004 c -0.223888,0.37768 -0.449705,0.78056 -0.677734,1.21094 -0.130468,0.24624 -0.238447,0.47159 -0.355469,0.70507 -0.112664,-0.2287 -0.220663,-0.44788 -0.34375,-0.68945 v -0.002 c -0.222041,-0.43671 -0.446868,-0.84357 -0.669922,-1.22266 v -0.002 l -1.769531,-2.97852 z m 3.669922,2 h 2.396484 l 1.1875,1.99805 c 0.201987,0.34345 0.404432,0.71397 0.607422,1.11328 0.206856,0.40594 0.398355,0.79412 0.574219,1.16016 0.197084,0.42718 0.404129,0.87086 0.619141,1.33203 l 0.267578,0.57812 h 1.345703 l 0.259765,-0.60546 c 0.189151,-0.44168 0.387158,-0.86711 0.591797,-1.27735 l 0.0039,-0.008 0.0039,-0.008 c 0.173191,-0.36274 0.367727,-0.75005 0.583984,-1.15821 0.215971,-0.40762 0.426749,-0.78263 0.63086,-1.12695 l -0.0059,0.006 1.210938,-2.00391 h 2.195312 l -4.904297,7.71875 5.470703,8.60157 h -2.572265 l -1.564453,-2.72852 -0.0039,-0.008 c -0.195231,-0.32934 -0.388491,-0.6987 -0.582031,-1.10938 l -0.002,-0.002 c -0.202392,-0.42738 -0.391148,-0.8251 -0.568359,-1.19727 l -0.01172,-0.0234 c -0.193675,-0.43647 -0.386621,-0.87161 -0.580078,-1.30664 l -0.263578,-0.5933 h -1.349609 l -0.263672,0.5957 c -0.191133,0.432 -0.392525,0.86602 -0.601563,1.30078 v 0.002 c -0.177534,0.37077 -0.373776,0.76811 -0.591797,1.19532 -0.213774,0.41888 -0.423716,0.79948 -0.625,1.14062 v 0.002 l -1.605468,2.73243 h -2.373047 l 5.513672,-8.58008 z"
     id="path94" />
  <path
     style="color:#000000;fill:#ffffff;stroke:none;stroke-width:1;stroke-miterlimit:4.10345;stroke-dasharray:none;stroke-opacity:1"
     d="m 64.256011,190.20168 c -1.062833,0 -2.051058,0.12503 -2.958985,0.38476 -0.902387,0.25783 -1.703692,0.6361 -2.382812,1.14844 -0.676755,0.51055 -1.2198,1.14794 -1.59375,1.88476 -0.377482,0.74379 -0.564453,1.57125 -0.564453,2.4336 0,1.00127 0.287924,1.95181 0.853515,2.73828 v 0.002 c 0.217413,0.30183 0.513613,0.53831 0.806641,0.77735 -0.506597,0.3358 -0.949264,0.73669 -1.308594,1.21093 -0.719615,0.94975 -1.089843,2.10002 -1.089843,3.32422 0,0.9953 0.217716,1.93364 0.664062,2.75586 0.43405,0.79957 1.048316,1.48553 1.806641,2.0332 0.756345,0.54625 1.636371,0.94979 2.61914,1.22266 0.984306,0.2733 2.045734,0.40625 3.173828,0.40625 h 0.002 c 1.125413,-0.003 2.180294,-0.13616 3.158203,-0.41016 0.975852,-0.27341 1.850587,-0.67969 2.599609,-1.22656 0.755954,-0.55279 1.36604,-1.2566 1.796875,-2.08008 0.44067,-0.84227 0.65625,-1.79208 0.65625,-2.80078 0,-1.22226 -0.362502,-2.37242 -1.068359,-3.32812 h -0.002 c -0.400263,-0.54101 -0.926189,-0.97036 -1.521485,-1.32617 0.299383,-0.24581 0.733875,-0.36616 0.955078,-0.67774 0.557817,-0.78573 0.84961,-1.72026 0.84961,-2.69531 0,-0.87612 -0.184457,-1.70999 -0.564453,-2.45117 -0.374918,-0.72887 -0.918005,-1.35672 -1.589844,-1.85157 h -0.002 c -0.67144,-0.49335 -1.462315,-0.85691 -2.353516,-1.10546 -0.899664,-0.25092 -1.881957,-0.36914 -2.941406,-0.36914 z m 0,2 c 0.910549,0 1.711963,0.10378 2.404297,0.29687 0.700797,0.19545 1.262472,0.46242 1.707031,0.78906 0.44416,0.32715 0.763012,0.70117 0.996094,1.1543 0.225471,0.44042 0.34375,0.93596 0.34375,1.53711 0,0.59894 -0.152286,1.07679 -0.480469,1.53906 -0.301513,0.42471 -0.786406,0.78676 -1.564453,1.06445 l -0.664063,0.23633 v 1.53711 l 0.730469,0.20508 c 1.005798,0.28318 1.654856,0.72134 2.087891,1.30664 0.457367,0.61988 0.677734,1.29364 0.677734,2.13867 0,0.73131 -0.146404,1.33728 -0.427734,1.875 -0.291164,0.55652 -0.682987,1.00937 -1.207032,1.39258 -0.532605,0.38847 -1.177821,0.69574 -1.957031,0.91406 -0.77695,0.21769 -1.65022,0.33284 -2.621094,0.33594 -0.971903,0 -1.850979,-0.11528 -2.638671,-0.33398 -0.789229,-0.21913 -1.444722,-0.52822 -1.984375,-0.91797 -0.537674,-0.38832 -0.932754,-0.8348 -1.220704,-1.36524 -0.275652,-0.50778 -0.419921,-1.08807 -0.419921,-1.80078 0,-0.8438 0.22121,-1.50693 0.683593,-2.11719 0.448299,-0.59166 1.099574,-1.03601 2.078125,-1.33398 l 0.708985,-0.21484 v -1.52539 l -0.667969,-0.23438 c -0.796642,-0.27946 -1.290592,-0.64391 -1.587891,-1.05664 -0.31967,-0.44511 -0.476562,-0.93031 -0.476562,-1.57031 0,-0.58165 0.117139,-1.07509 0.347656,-1.5293 0.23405,-0.46117 0.560381,-0.84991 1.015625,-1.19336 0.452879,-0.34166 1.020905,-0.62009 1.728516,-0.82226 0.700072,-0.20027 1.501038,-0.30664 2.408203,-0.30664 z m -0.02539,0.78125 c -1.014811,0 -1.94699,0.25561 -2.640625,0.86328 h -0.002 c -0.676177,0.59382 -1.041016,1.48693 -1.041016,2.40234 0,0.90545 0.373858,1.78963 1.050782,2.37109 0.69623,0.59974 1.623666,0.84571 2.632812,0.84571 1.022432,0 1.956382,-0.24184 2.652344,-0.85157 0.667106,-0.58426 1.03125,-1.46439 1.03125,-2.36523 0,-0.91222 -0.356469,-1.79906 -1.021484,-2.39453 -0.693485,-0.62096 -1.635023,-0.87109 -2.66211,-0.87109 z m 0,2 c 0.712911,0 1.101657,0.16029 1.326172,0.36132 0.252984,0.22653 0.357422,0.43652 0.357422,0.9043 0,0.44516 -0.09676,0.64159 -0.347656,0.86133 -0.224037,0.19627 -0.620372,0.35547 -1.335938,0.35547 -0.697871,0 -1.090582,-0.15634 -1.328125,-0.36133 h -0.002 v -0.002 c -0.259075,-0.22254 -0.353515,-0.41097 -0.353516,-0.85352 0,-0.46258 0.101507,-0.67026 0.361329,-0.89844 0.242364,-0.21232 0.629078,-0.36718 1.322265,-0.36718 z m 0.04883,5.11718 c -1.152173,0 -2.201929,0.30283 -2.990234,0.97852 -0.792892,0.67844 -1.210938,1.70199 -1.210938,2.7793 0,1.05161 0.42304,2.05129 1.205079,2.70898 l 0.002,0.002 c 0.788949,0.66233 1.835475,0.94727 2.99414,0.94727 1.121467,0 2.150799,-0.30203 2.933594,-0.96094 0.784443,-0.6603 1.216797,-1.65529 1.216797,-2.69726 0,-1.07106 -0.40004,-2.08727 -1.173828,-2.76954 -0.777338,-0.68555 -1.825066,-0.98828 -2.976563,-0.98828 z m 0,2 c 0.818502,0 1.311683,0.18784 1.652344,0.48828 0.342211,0.30174 0.498047,0.63459 0.498047,1.26954 0,0.56602 -0.140303,0.86026 -0.505859,1.16796 -0.367204,0.30909 -0.862,0.49024 -1.644532,0.49024 -0.841332,0 -1.363934,-0.1908 -1.708984,-0.48047 -0.348886,-0.2939 -0.492188,-0.58818 -0.492188,-1.17773 0,-0.6287 0.154613,-0.95421 0.511719,-1.25977 0.359694,-0.30831 0.871628,-0.49805 1.689453,-0.49805 z"
     id="path96" />
  <path
     style="color:#000000;fill:#ffffff;stroke:none;stroke-width:1;stroke-miterlimit:4.10345;stroke-dasharray:none;stroke-opacity:1"
     d="m 72.759917,189.78175 v 20.32032 h 1 5.210938 v -20.32032 z m 2,2 h 2.210938 v 16.32032 h -2.210938 z"
     id="path98" />
  <path
     style="color:#000000;fill:#ffffff;stroke:none;stroke-width:1;stroke-miterlimit:4.10345;stroke-dasharray:none;stroke-opacity:1"
     d="m 123.26773,9.986829 v 1 22.578125 h 7.75585 V 9.986829 Z m 2,2 h 3.75586 v 19.578125 h -3.75586 z"
     id="path140" />
  <path
     style="color:#000000;fill:#ffffff;stroke:none;stroke-width:1;stroke-miterlimit:4.10345;stroke-dasharray:none;stroke-opacity:1"
     d="m 131.90054,15.742688 v 1 4.75 0.5625 11.509766 h 27.89258 V 15.742688 Z m 2,2 h 23.89258 v 13.822266 h -23.89258 v -8.072266 h 20.13672 v -3.4375 h -20.13672 z m 3.75,8.066406 v 1 2.439454 h 16.38672 v -3.439454 z"
     id="path142" />
  <path
     style="color:#000000;fill:#ffffff;stroke:none;stroke-width:1;stroke-miterlimit:4.10345;stroke-dasharray:none;stroke-opacity:1"
     d="m 160.67007,15.742688 v 1 16.822266 h 7.75195 V 15.742688 Z m 2,2 h 3.75195 v 13.822266 h -3.75195 z"
     id="path144" />
  <path
     style="color:#000000;fill:#ffffff;stroke:none;stroke-width:1;stroke-miterlimit:4.10345;stroke-dasharray:none;stroke-opacity:1"
     d="m 160.67007,9.986829 v 1 5.316406 h 7.75195 V 9.986829 Z m 2,2 h 3.75195 v 2.316406 h -3.75195 z"
     id="path146" />
  <path
     style="color:#000000;fill:#ffffff;stroke:none;stroke-width:1;stroke-miterlimit:4.10345;stroke-dasharray:none;stroke-opacity:1"
     d="m 169.29898,15.742688 v 1 16.822266 h 7.7539 V 22.055188 h 23.01563 v -6.3125 z m 2,2 h 26.76953 v 2.3125 h -23.01563 v 11.509766 h -3.7539 z"
     id="path148" />
  <path
     style="color:#000000;fill:#ffffff;stroke:none;stroke-width:1;stroke-miterlimit:4.10345;stroke-dasharray:none;stroke-opacity:1"
     d="m 91.619292,15.742688 v 1 16.822266 H 122.38882 V 27.248548 H 99.375151 v -5.19336 h 23.015619 v -6.3125 z m 2,2 h 26.771478 v 2.3125 H 97.375151 v 9.19336 h 23.013669 v 2.316406 H 93.619292 Z"
     id="path150" />
  <path
     style="color:#000000;fill:#ffffff;stroke:none;stroke-width:1;stroke-miterlimit:4.10345;stroke-dasharray:none;stroke-opacity:1"
     d="m 59.970855,15.742688 v 1 16.822266 h 7.755859 V 22.055188 h 15.261719 v 11.509766 h 7.753906 V 15.742688 Z m 2,2 H 88.742339 V 31.564954 H 84.988433 V 20.055188 H 65.726714 v 11.509766 h -3.755859 z"
     id="path152" />
  <path
     style="color:#000000;fill:#ffffff;stroke:none;stroke-width:1;stroke-miterlimit:4.10345;stroke-dasharray:none;stroke-opacity:1"
     d="m 51.339995,15.742688 v 1 16.822266 h 7.753906 V 15.742688 Z m 2,2 h 3.753906 v 13.822266 h -3.753906 z"
     id="path154" />
  <path
     style="color:#000000;fill:#ffffff;stroke:none;stroke-width:1;stroke-miterlimit:4.10345;stroke-dasharray:none;stroke-opacity:1"
     d="m 51.339995,9.986829 v 1 5.316406 h 7.753906 V 9.986829 Z m 2,2 h 3.753906 v 2.316406 h -3.753906 z"
     id="path156" />
  <path
     style="color:#000000;fill:#ffffff;stroke:none;stroke-width:1;stroke-miterlimit:4.10345;stroke-dasharray:none;stroke-opacity:1"
     d="m 19.695464,15.742688 v 1 10.50586 0.560546 5.75586 h 30.769531 v -11.509766 -0.5625 -5.75 z m 2,2 h 26.769531 v 2.3125 H 25.447417 v 3.4375 h 23.017578 v 8.072266 H 21.695464 V 29.248548 H 44.711089 V 25.809094 H 21.695464 Z"
     id="path158" />
</svg>
